M48
; DRILL file {KiCad 9.0.3} date 2026-02-21T10:46:50-0300
; FORMAT={-:-/ absolute / metric / decimal}
; #@! TF.CreationDate,2026-02-21T10:46:50-03:00
; #@! TF.GenerationSoftware,Kicad,Pcbnew,9.0.3
; #@! TF.FileFunction,Plated,1,4,PTH
FMAT,2
METRIC
; #@! TA.AperFunction,Plated,PTH,ViaDrill
T1C0.300
; #@! TA.AperFunction,Plated,PTH,ComponentDrill
T2C0.900
; #@! TA.AperFunction,Plated,PTH,ComponentDrill
T3C1.000
; #@! TA.AperFunction,Plated,PTH,ComponentDrill
T4C1.050
%
G90
G05
T1
X110.235Y-111.119
X112.292Y-115.346
X114.791Y-107.258
X138.653Y-86.514
X139.522Y-75.677
X143.976Y-97.236
X144.3Y-95.278
X144.334Y-115.567
X144.426Y-119.256
X144.926Y-138.625
X144.946Y-133.93
X145.466Y-135.921
X146.492Y-143.721
X148.298Y-66.626
X150.474Y-65.588
X151.467Y-97.762
X151.603Y-138.607
X152.405Y-105.076
X153.124Y-100.324
X153.131Y-98.703
X153.663Y-103.998
X154.666Y-102.36
X155.696Y-103.942
X155.886Y-98.56
X158.606Y-100.848
X158.626Y-103.147
X158.638Y-99.606
X159.244Y-130.966
X159.615Y-107.381
X160.214Y-96.122
X160.26Y-97.715
X167.395Y-97.629
X168.475Y-98.708
X171.728Y-71.696
X174.461Y-80.283
X179.453Y-113.185
X180.825Y-108.572
X182.319Y-104.635
X182.422Y-83.803
X183.125Y-84.502
X184.184Y-86.974
X186.326Y-97.162
X188.879Y-82.975
X189.182Y-97.58
T2
X132.25Y-60.225
X139.85Y-60.225
T3
X127.575Y-71.97
X127.575Y-74.51
X127.575Y-77.05
X127.575Y-79.59
X127.575Y-82.13
X127.575Y-84.67
X127.575Y-87.21
X127.575Y-89.75
X136.76Y-100.655
X136.76Y-103.195
X136.76Y-105.735
X136.76Y-108.275
X139.3Y-100.655
X139.3Y-103.195
X139.3Y-105.735
X139.3Y-108.275
T4
X193.85Y-105.9
X193.85Y-108.4
M30
