%TF.GenerationSoftware,KiCad,Pcbnew,9.0.3*%
%TF.CreationDate,2026-02-21T18:13:44-03:00*%
%TF.ProjectId,Boros Rocket - Plate,426f726f-7320-4526-9f63-6b6574202d20,rev?*%
%TF.SameCoordinates,Original*%
%TF.FileFunction,Plated,1,4,PTH,Drill*%
%TF.FilePolarity,Positive*%
%FSLAX46Y46*%
G04 Gerber Fmt 4.6, Leading zero omitted, Abs format (unit mm)*
G04 Created by KiCad (PCBNEW 9.0.3) date 2026-02-21 18:13:44*
%MOMM*%
%LPD*%
G01*
G04 APERTURE LIST*
%TA.AperFunction,ViaDrill*%
%ADD10C,0.300000*%
%TD*%
%TA.AperFunction,ComponentDrill*%
%ADD11C,0.900000*%
%TD*%
%TA.AperFunction,ComponentDrill*%
%ADD12C,1.000000*%
%TD*%
%TA.AperFunction,ComponentDrill*%
%ADD13C,1.050000*%
%TD*%
G04 APERTURE END LIST*
D10*
X114514100Y-108368600D03*
X117175000Y-113316000D03*
X118584700Y-110783200D03*
X118719400Y-106514100D03*
X120481200Y-79573600D03*
X121015200Y-109116000D03*
X123280300Y-103387400D03*
X123673000Y-108613000D03*
X124000000Y-123050400D03*
X124075000Y-125649900D03*
X124474400Y-79854500D03*
X125760200Y-102839600D03*
X125871800Y-100737200D03*
X125987300Y-111860400D03*
X126765300Y-97826800D03*
X126913900Y-80229000D03*
X127000500Y-115174200D03*
X127250300Y-109081800D03*
X127442500Y-82867900D03*
X127624600Y-90710800D03*
X128151400Y-76552100D03*
X128463700Y-102129200D03*
X128548000Y-105977200D03*
X128705700Y-107594600D03*
X128805700Y-108413600D03*
X129636300Y-110611600D03*
X130075000Y-120575000D03*
X130093600Y-100623500D03*
X130434000Y-96231800D03*
X130490300Y-107585000D03*
X131265600Y-113587500D03*
X131506400Y-98739400D03*
X131615900Y-92217400D03*
X131993600Y-114709200D03*
X132425000Y-91447500D03*
X132955200Y-96695200D03*
X132959000Y-100065900D03*
X133413400Y-100980000D03*
X134181700Y-81680300D03*
X135270000Y-111860400D03*
X135473400Y-79897000D03*
X135773500Y-106280200D03*
D11*
%TO.C,LS1*%
X122325000Y-68925000D03*
X129925000Y-68925000D03*
D12*
%TO.C,U1*%
X115200000Y-70260000D03*
X115200000Y-72800000D03*
X115200000Y-75340000D03*
X115200000Y-77880000D03*
X115200000Y-80420000D03*
X115200000Y-82960000D03*
X115200000Y-85500000D03*
X115200000Y-88040000D03*
%TO.C,J4*%
X120825000Y-91660000D03*
X120825000Y-94200000D03*
X120825000Y-96740000D03*
X120825000Y-99280000D03*
X123365000Y-91660000D03*
X123365000Y-94200000D03*
X123365000Y-96740000D03*
X123365000Y-99280000D03*
D13*
%TO.C,J1*%
X115300000Y-125150000D03*
X117800000Y-125150000D03*
M02*
