%TF.GenerationSoftware,KiCad,Pcbnew,9.0.3*%
%TF.CreationDate,2026-02-21T19:03:26-03:00*%
%TF.ProjectId,Boros_Rocket_Plate_V4,426f726f-7320-4526-9f63-6b6574202d20,rev?*%
%TF.SameCoordinates,Original*%
%TF.FileFunction,Plated,1,2,PTH,Drill*%
%TF.FilePolarity,Positive*%
%FSLAX46Y46*%
G04 Gerber Fmt 4.6, Leading zero omitted, Abs format (unit mm)*
G04 Created by KiCad (PCBNEW 9.0.3) date 2026-02-21 19:03:26*
%MOMM*%
%LPD*%
G01*
G04 APERTURE LIST*
%TA.AperFunction,ViaDrill*%
%ADD10C,0.300000*%
%TD*%
%TA.AperFunction,ComponentDrill*%
%ADD11C,0.900000*%
%TD*%
%TA.AperFunction,ComponentDrill*%
%ADD12C,1.000000*%
%TD*%
%TA.AperFunction,ComponentDrill*%
%ADD13C,1.050000*%
%TD*%
G04 APERTURE END LIST*
D10*
X112125000Y-108683700D03*
X114079500Y-107609600D03*
X114374100Y-115151400D03*
X115014300Y-100437300D03*
X117517700Y-107656100D03*
X117672300Y-80983500D03*
X117672300Y-106537600D03*
X119357500Y-95472000D03*
X120668800Y-109491700D03*
X120902900Y-108213800D03*
X121854300Y-102097000D03*
X122312500Y-123181100D03*
X122500000Y-125925000D03*
X122737500Y-77676400D03*
X123140300Y-123150400D03*
X123143700Y-85141000D03*
X123536200Y-87909200D03*
X123974300Y-100673700D03*
X124189800Y-101886400D03*
X124706100Y-101111700D03*
X124856700Y-103919100D03*
X125146100Y-76832000D03*
X126962800Y-107261600D03*
X127038300Y-109867200D03*
X127333800Y-116527600D03*
X127458900Y-105576700D03*
X127845300Y-101895100D03*
X128167500Y-81575200D03*
X128172100Y-98308400D03*
X128362300Y-109976500D03*
X128382300Y-96137400D03*
X128603900Y-99736800D03*
X128735900Y-94538800D03*
X128741000Y-100538600D03*
X129089200Y-101678400D03*
X129685700Y-100624600D03*
X130250000Y-102202900D03*
X130356500Y-105075800D03*
X130654900Y-106215800D03*
X131315700Y-96704400D03*
X131563000Y-93138700D03*
X131795600Y-100862700D03*
X131953500Y-95804600D03*
X132037100Y-105075700D03*
X132731100Y-96532900D03*
X133655600Y-73937700D03*
X135250600Y-111913700D03*
X135323100Y-97029300D03*
D11*
%TO.C,LS1*%
X122325000Y-68925000D03*
X129925000Y-68925000D03*
D12*
%TO.C,U1*%
X115200000Y-70260000D03*
X115200000Y-72800000D03*
X115200000Y-75340000D03*
X115200000Y-77880000D03*
X115200000Y-80420000D03*
X115200000Y-82960000D03*
X115200000Y-85500000D03*
X115200000Y-88040000D03*
%TO.C,J4*%
X120825000Y-91660000D03*
X120825000Y-94200000D03*
X120825000Y-96740000D03*
X120825000Y-99280000D03*
X123365000Y-91660000D03*
X123365000Y-94200000D03*
X123365000Y-96740000D03*
X123365000Y-99280000D03*
D13*
%TO.C,J1*%
X115300000Y-124850000D03*
X117800000Y-124850000D03*
M02*
