%TF.GenerationSoftware,KiCad,Pcbnew,9.0.3*%
%TF.CreationDate,2026-02-21T10:46:01-03:00*%
%TF.ProjectId,Boros Rocket,426f726f-7320-4526-9f63-6b65742e6b69,rev?*%
%TF.SameCoordinates,Original*%
%TF.FileFunction,Paste,Top*%
%TF.FilePolarity,Positive*%
%FSLAX46Y46*%
G04 Gerber Fmt 4.6, Leading zero omitted, Abs format (unit mm)*
G04 Created by KiCad (PCBNEW 9.0.3) date 2026-02-21 10:46:01*
%MOMM*%
%LPD*%
G01*
G04 APERTURE LIST*
G04 Aperture macros list*
%AMRoundRect*
0 Rectangle with rounded corners*
0 $1 Rounding radius*
0 $2 $3 $4 $5 $6 $7 $8 $9 X,Y pos of 4 corners*
0 Add a 4 corners polygon primitive as box body*
4,1,4,$2,$3,$4,$5,$6,$7,$8,$9,$2,$3,0*
0 Add four circle primitives for the rounded corners*
1,1,$1+$1,$2,$3*
1,1,$1+$1,$4,$5*
1,1,$1+$1,$6,$7*
1,1,$1+$1,$8,$9*
0 Add four rect primitives between the rounded corners*
20,1,$1+$1,$2,$3,$4,$5,0*
20,1,$1+$1,$4,$5,$6,$7,0*
20,1,$1+$1,$6,$7,$8,$9,0*
20,1,$1+$1,$8,$9,$2,$3,0*%
G04 Aperture macros list end*
%ADD10C,0.010000*%
%ADD11RoundRect,0.072500X-0.732500X-0.217500X0.732500X-0.217500X0.732500X0.217500X-0.732500X0.217500X0*%
%ADD12RoundRect,0.200000X-0.200000X-0.275000X0.200000X-0.275000X0.200000X0.275000X-0.200000X0.275000X0*%
%ADD13RoundRect,0.225000X-0.225000X-0.250000X0.225000X-0.250000X0.225000X0.250000X-0.225000X0.250000X0*%
%ADD14RoundRect,0.225000X-0.250000X0.225000X-0.250000X-0.225000X0.250000X-0.225000X0.250000X0.225000X0*%
%ADD15RoundRect,0.073750X-0.551250X-0.221250X0.551250X-0.221250X0.551250X0.221250X-0.551250X0.221250X0*%
%ADD16R,0.400000X1.350000*%
%ADD17R,1.600000X1.400000*%
%ADD18R,1.450000X1.300000*%
%ADD19R,1.900000X1.900000*%
%ADD20RoundRect,0.087500X0.087500X-0.207500X0.087500X0.207500X-0.087500X0.207500X-0.087500X-0.207500X0*%
%ADD21RoundRect,0.087500X0.207500X-0.087500X0.207500X0.087500X-0.207500X0.087500X-0.207500X-0.087500X0*%
%ADD22RoundRect,0.250000X0.250000X0.475000X-0.250000X0.475000X-0.250000X-0.475000X0.250000X-0.475000X0*%
%ADD23RoundRect,0.033750X-0.386250X-0.101250X0.386250X-0.101250X0.386250X0.101250X-0.386250X0.101250X0*%
%ADD24RoundRect,0.250000X-0.250000X-0.475000X0.250000X-0.475000X0.250000X0.475000X-0.250000X0.475000X0*%
%ADD25RoundRect,0.225000X0.250000X-0.225000X0.250000X0.225000X-0.250000X0.225000X-0.250000X-0.225000X0*%
%ADD26RoundRect,0.125000X0.125000X-0.625000X0.125000X0.625000X-0.125000X0.625000X-0.125000X-0.625000X0*%
%ADD27RoundRect,0.125000X0.625000X-0.125000X0.625000X0.125000X-0.625000X0.125000X-0.625000X-0.125000X0*%
%ADD28RoundRect,0.073750X-0.531250X-0.221250X0.531250X-0.221250X0.531250X0.221250X-0.531250X0.221250X0*%
%ADD29RoundRect,0.200000X0.275000X-0.200000X0.275000X0.200000X-0.275000X0.200000X-0.275000X-0.200000X0*%
%ADD30RoundRect,0.150000X-0.587500X-0.150000X0.587500X-0.150000X0.587500X0.150000X-0.587500X0.150000X0*%
%ADD31RoundRect,0.200000X-0.275000X0.200000X-0.275000X-0.200000X0.275000X-0.200000X0.275000X0.200000X0*%
G04 APERTURE END LIST*
D10*
%TO.C,U4*%
X112110000Y-110100000D02*
X111090000Y-110100000D01*
X111090000Y-109200000D01*
X112110000Y-109200000D01*
X112110000Y-110100000D01*
G36*
X112110000Y-110100000D02*
G01*
X111090000Y-110100000D01*
X111090000Y-109200000D01*
X112110000Y-109200000D01*
X112110000Y-110100000D01*
G37*
%TD*%
D11*
%TO.C,U7*%
X180435000Y-93770000D03*
X180435000Y-95040000D03*
X180435000Y-96310000D03*
X180435000Y-97580000D03*
X187645000Y-97580000D03*
X187645000Y-96310000D03*
X187645000Y-95040000D03*
X187645000Y-93770000D03*
%TD*%
D12*
%TO.C,R1*%
X150300000Y-137600000D03*
X151950000Y-137600000D03*
%TD*%
%TO.C,R8*%
X142650000Y-90500000D03*
X144300000Y-90500000D03*
%TD*%
D13*
%TO.C,C15*%
X182450000Y-103400000D03*
X184000000Y-103400000D03*
%TD*%
D14*
%TO.C,C6*%
X174750000Y-59800000D03*
X174750000Y-61350000D03*
%TD*%
D15*
%TO.C,VR1*%
X179570000Y-108700000D03*
X179570000Y-109650000D03*
X179570000Y-110600000D03*
X182080000Y-110600000D03*
X182080000Y-108700000D03*
%TD*%
D14*
%TO.C,C3*%
X170625000Y-109425000D03*
X170625000Y-110975000D03*
%TD*%
D16*
%TO.C,J2*%
X146525000Y-145650000D03*
X147175000Y-145650000D03*
X147825000Y-145650000D03*
X148475000Y-145650000D03*
X149125000Y-145650000D03*
D17*
X144625000Y-145875000D03*
X151025000Y-145875000D03*
D18*
X151250000Y-148325000D03*
D19*
X149025000Y-148325000D03*
X146625000Y-148325000D03*
D18*
X144400000Y-148325000D03*
%TD*%
D20*
%TO.C,U3*%
X183835000Y-84140000D03*
X184335000Y-84140000D03*
X184835000Y-84140000D03*
X185335000Y-84140000D03*
D21*
X185500000Y-83475000D03*
X185500000Y-82975000D03*
X185500000Y-82475000D03*
D20*
X185335000Y-81810000D03*
X184835000Y-81810000D03*
X184335000Y-81810000D03*
X183835000Y-81810000D03*
D21*
X183670000Y-82475000D03*
X183670000Y-82975000D03*
X183670000Y-83475000D03*
%TD*%
D22*
%TO.C,C1*%
X112000000Y-103550000D03*
X110100000Y-103550000D03*
%TD*%
D23*
%TO.C,U4*%
X110165000Y-108900000D03*
X110165000Y-109400000D03*
X110165000Y-109900000D03*
X110165000Y-110400000D03*
X113035000Y-110400000D03*
X113035000Y-109900000D03*
X113035000Y-109400000D03*
X113035000Y-108900000D03*
%TD*%
D24*
%TO.C,C2*%
X143460000Y-117192500D03*
X145360000Y-117192500D03*
%TD*%
D13*
%TO.C,C13*%
X137225000Y-90050000D03*
X138775000Y-90050000D03*
%TD*%
D25*
%TO.C,C5*%
X154425000Y-142225000D03*
X154425000Y-140675000D03*
%TD*%
D26*
%TO.C,U2*%
X153225000Y-105500000D03*
X154025000Y-105500000D03*
X154825000Y-105500000D03*
X155625000Y-105500000D03*
X156425000Y-105500000D03*
X157225000Y-105500000D03*
X158025000Y-105500000D03*
X158825000Y-105500000D03*
D27*
X160200000Y-104125000D03*
X160200000Y-103325000D03*
X160200000Y-102525000D03*
X160200000Y-101725000D03*
X160200000Y-100925000D03*
X160200000Y-100125000D03*
X160200000Y-99325000D03*
X160200000Y-98525000D03*
D26*
X158825000Y-97150000D03*
X158025000Y-97150000D03*
X157225000Y-97150000D03*
X156425000Y-97150000D03*
X155625000Y-97150000D03*
X154825000Y-97150000D03*
X154025000Y-97150000D03*
X153225000Y-97150000D03*
D27*
X151850000Y-98525000D03*
X151850000Y-99325000D03*
X151850000Y-100125000D03*
X151850000Y-100925000D03*
X151850000Y-101725000D03*
X151850000Y-102525000D03*
X151850000Y-103325000D03*
X151850000Y-104125000D03*
%TD*%
D28*
%TO.C,U6*%
X143670000Y-136725000D03*
X143670000Y-137675000D03*
X143670000Y-138625000D03*
X146180000Y-138625000D03*
X146180000Y-137675000D03*
X146180000Y-136725000D03*
%TD*%
D29*
%TO.C,R6*%
X151075000Y-64250000D03*
X151075000Y-62600000D03*
%TD*%
D14*
%TO.C,C14*%
X191050000Y-81850000D03*
X191050000Y-83400000D03*
%TD*%
D30*
%TO.C,Q1*%
X146500000Y-64750000D03*
X146500000Y-66650000D03*
X148375000Y-65700000D03*
%TD*%
D13*
%TO.C,C12*%
X120150000Y-100700000D03*
X121700000Y-100700000D03*
%TD*%
%TO.C,C16*%
X179650000Y-118125000D03*
X181200000Y-118125000D03*
%TD*%
D12*
%TO.C,R3*%
X110900000Y-116500000D03*
X112550000Y-116500000D03*
%TD*%
%TO.C,R2*%
X168825000Y-71575000D03*
X170475000Y-71575000D03*
%TD*%
D31*
%TO.C,R4*%
X138675000Y-73250000D03*
X138675000Y-74900000D03*
%TD*%
D25*
%TO.C,C4*%
X174250000Y-101275000D03*
X174250000Y-99725000D03*
%TD*%
M02*
