%TF.GenerationSoftware,KiCad,Pcbnew,9.0.3*%
%TF.CreationDate,2026-02-21T10:46:01-03:00*%
%TF.ProjectId,Boros Rocket,426f726f-7320-4526-9f63-6b65742e6b69,rev?*%
%TF.SameCoordinates,Original*%
%TF.FileFunction,Copper,L2,Inr*%
%TF.FilePolarity,Positive*%
%FSLAX46Y46*%
G04 Gerber Fmt 4.6, Leading zero omitted, Abs format (unit mm)*
G04 Created by KiCad (PCBNEW 9.0.3) date 2026-02-21 10:46:01*
%MOMM*%
%LPD*%
G01*
G04 APERTURE LIST*
%TA.AperFunction,ComponentPad*%
%ADD10C,2.500000*%
%TD*%
%TA.AperFunction,ComponentPad*%
%ADD11R,2.500000X2.500000*%
%TD*%
%TA.AperFunction,ComponentPad*%
%ADD12R,1.700000X1.700000*%
%TD*%
%TA.AperFunction,ComponentPad*%
%ADD13C,1.700000*%
%TD*%
%TA.AperFunction,ComponentPad*%
%ADD14C,1.778000*%
%TD*%
%TA.AperFunction,ComponentPad*%
%ADD15R,1.575000X1.575000*%
%TD*%
%TA.AperFunction,ComponentPad*%
%ADD16C,1.575000*%
%TD*%
%TA.AperFunction,ViaPad*%
%ADD17C,0.600000*%
%TD*%
%TA.AperFunction,Conductor*%
%ADD18C,0.200000*%
%TD*%
G04 APERTURE END LIST*
D10*
%TO.N,Net-(Q1-C)*%
%TO.C,LS1*%
X139850000Y-60225000D03*
D11*
%TO.N,3V3*%
X132250000Y-60225000D03*
%TD*%
D12*
%TO.N,NRST*%
%TO.C,J4*%
X136760000Y-100655000D03*
D13*
%TO.N,SWDIO*%
X139300000Y-100655000D03*
%TO.N,SWCLK*%
X136760000Y-103195000D03*
%TO.N,3V3*%
X139300000Y-103195000D03*
%TO.N,USB_VBUS*%
X136760000Y-105735000D03*
%TO.N,UART_RX*%
X139300000Y-105735000D03*
%TO.N,UART_TX*%
X136760000Y-108275000D03*
%TO.N,GND*%
X139300000Y-108275000D03*
%TD*%
D14*
%TO.N,Net-(C12-Pad2)*%
%TO.C,U1*%
X127575000Y-87210000D03*
%TO.N,BARO_CS*%
X127575000Y-74510000D03*
%TO.N,GND*%
X127575000Y-84670000D03*
%TO.N,unconnected-(U1-PadINT)*%
X127575000Y-71970000D03*
%TO.N,SPI_SCK*%
X127575000Y-82130000D03*
%TO.N,SPI_MOSI*%
X127575000Y-77050000D03*
%TO.N,SPI_MISO*%
X127575000Y-79590000D03*
%TO.N,Net-(C13-Pad2)*%
X127575000Y-89750000D03*
%TD*%
D15*
%TO.N,VBAT*%
%TO.C,J1*%
X193850000Y-108400000D03*
D16*
%TO.N,GND*%
X193850000Y-105900000D03*
%TD*%
D17*
%TO.N,GND*%
X171727600Y-71696200D03*
X148298300Y-66625800D03*
X188878700Y-82975000D03*
X144426200Y-119256200D03*
X182318700Y-104635400D03*
X144925900Y-138625000D03*
%TO.N,VBAT*%
X180825000Y-108572300D03*
X110234800Y-111119300D03*
X179452600Y-113185200D03*
X144334000Y-115566700D03*
%TO.N,3V3*%
X144300000Y-95278000D03*
%TO.N,USB_DM*%
X145466500Y-135920600D03*
X155886500Y-98559900D03*
X153130600Y-98703300D03*
%TO.N,USB_DP*%
X153123600Y-100324000D03*
X144946400Y-133929700D03*
%TO.N,Net-(U4-PROG)*%
X114791200Y-107258200D03*
X112292100Y-115345600D03*
%TO.N,BUZZER_EN*%
X152404700Y-105076000D03*
X150474000Y-65588300D03*
%TO.N,SPI_MOSI*%
X189182200Y-97580000D03*
X168474500Y-98708000D03*
X183125100Y-84501900D03*
X167395100Y-97628700D03*
%TO.N,BARO_CS*%
X160259500Y-97715500D03*
%TO.N,SPI_MISO*%
X158638100Y-99606200D03*
X138653000Y-86513700D03*
%TO.N,SPI_SCK*%
X158605700Y-100848000D03*
X186326300Y-97161600D03*
X182422300Y-83803500D03*
%TO.N,IMU_INT2*%
X153662800Y-103998100D03*
X174460700Y-80282600D03*
%TO.N,IMU_INT1*%
X184184200Y-86973500D03*
X154666300Y-102359800D03*
%TO.N,USB_VBUS_SENSE*%
X159243700Y-130966200D03*
X160214100Y-96121600D03*
%TO.N,NRST*%
X159615000Y-107380700D03*
X139521800Y-75677000D03*
%TO.N,USB_VBUS*%
X146491500Y-143721100D03*
X151603000Y-138606900D03*
%TO.N,SWCLK*%
X151467200Y-97762200D03*
%TO.N,UART_RX*%
X158626500Y-103146700D03*
%TO.N,SWDIO*%
X143976300Y-97235900D03*
%TO.N,UART_TX*%
X155695700Y-103942400D03*
%TD*%
D18*
%TO.N,GND*%
X144344700Y-138043800D02*
X144925900Y-138625000D01*
X144426200Y-119256200D02*
X144344700Y-119337700D01*
X193850000Y-87946300D02*
X188878700Y-82975000D01*
X193850000Y-105900000D02*
X193850000Y-87946300D01*
X144344700Y-119337700D02*
X144344700Y-138043800D01*
%TO.N,VBAT*%
X110234800Y-111119300D02*
X139886600Y-111119300D01*
X139886600Y-111119300D02*
X144334000Y-115566700D01*
X179452600Y-113185200D02*
X180825000Y-111812800D01*
X180825000Y-111812800D02*
X180825000Y-108572300D01*
%TO.N,3V3*%
X139300000Y-103195000D02*
X144578000Y-97917000D01*
X144578000Y-97917000D02*
X144578000Y-95556000D01*
X144578000Y-95556000D02*
X144300000Y-95278000D01*
%TO.N,USB_DM*%
X153130600Y-98703300D02*
X153760600Y-99333300D01*
X153760600Y-99333300D02*
X153760600Y-100625600D01*
X153760600Y-100625600D02*
X146857200Y-107529000D01*
X146857200Y-107529000D02*
X146857200Y-134529900D01*
X146857200Y-134529900D02*
X145466500Y-135920600D01*
%TO.N,USB_DP*%
X145266600Y-108181000D02*
X153123600Y-100324000D01*
X144946400Y-133929700D02*
X145266600Y-133609500D01*
X145266600Y-133609500D02*
X145266600Y-108181000D01*
%TO.N,BUZZER_EN*%
X152404700Y-102607300D02*
X152404700Y-105076000D01*
X154368400Y-100643600D02*
X152404700Y-102607300D01*
X154368400Y-69482700D02*
X154368400Y-100643600D01*
X150474000Y-65588300D02*
X154368400Y-69482700D01*
%TO.N,SPI_MOSI*%
X168474400Y-98708000D02*
X167395100Y-97628700D01*
X168474500Y-98708000D02*
X168474400Y-98708000D01*
%TO.N,SPI_MISO*%
X138653000Y-86513700D02*
X134498700Y-86513700D01*
X134498700Y-86513700D02*
X127575000Y-79590000D01*
%TO.N,IMU_INT2*%
X154064500Y-103596400D02*
X154064500Y-101515500D01*
X173275800Y-80282600D02*
X174460700Y-80282600D01*
X154770100Y-100809900D02*
X154770100Y-98788300D01*
X154770100Y-98788300D02*
X173275800Y-80282600D01*
X154064500Y-101515500D02*
X154770100Y-100809900D01*
X153662800Y-103998100D02*
X154064500Y-103596400D01*
%TO.N,IMU_INT1*%
X156216100Y-100674100D02*
X156216100Y-99268800D01*
X168511400Y-86973500D02*
X184184200Y-86973500D01*
X154530400Y-102359800D02*
X156216100Y-100674100D01*
X154530400Y-102359800D02*
X154666300Y-102359800D01*
X156216100Y-99268800D02*
X168511400Y-86973500D01*
%TO.N,USB_VBUS_SENSE*%
X159652700Y-96683000D02*
X159652700Y-104931400D01*
X160214100Y-96121600D02*
X159652700Y-96683000D01*
X159652700Y-104931400D02*
X160224600Y-105503300D01*
X160224600Y-129985300D02*
X159243700Y-130966200D01*
X160214300Y-96121800D02*
X160214100Y-96121600D01*
X160214100Y-96121600D02*
X160214300Y-96121800D01*
X160224600Y-105503300D02*
X160224600Y-129985300D01*
%TO.N,NRST*%
X136760000Y-100655000D02*
X136760000Y-99503300D01*
X139521800Y-96741500D02*
X136760000Y-99503300D01*
X139521800Y-75677000D02*
X139521800Y-96741500D01*
%TO.N,USB_VBUS*%
X146491500Y-143721100D02*
X151603000Y-138609600D01*
X151603000Y-138609600D02*
X151603000Y-138606900D01*
%TO.N,SWCLK*%
X144882700Y-104346700D02*
X137911700Y-104346700D01*
X137911700Y-104346700D02*
X136760000Y-103195000D01*
X151467200Y-97762200D02*
X144882700Y-104346700D01*
%TO.N,SWDIO*%
X139300000Y-100655000D02*
X140557200Y-100655000D01*
X140557200Y-100655000D02*
X143976300Y-97235900D01*
%TD*%
%TA.AperFunction,Conductor*%
%TO.N,GND*%
G36*
X149574853Y-49877664D02*
G01*
X150972684Y-49916883D01*
X150976033Y-49917024D01*
X152372261Y-49995434D01*
X152375714Y-49995677D01*
X153769157Y-50113212D01*
X153772503Y-50113542D01*
X155122977Y-50265704D01*
X155162110Y-50270114D01*
X155165563Y-50270552D01*
X156550166Y-50466025D01*
X156553556Y-50466552D01*
X157932199Y-50700793D01*
X157935599Y-50701420D01*
X159307078Y-50974224D01*
X159310417Y-50974937D01*
X160673732Y-51286105D01*
X160677106Y-51286924D01*
X162031185Y-51636213D01*
X162034431Y-51637099D01*
X163378247Y-52024246D01*
X163381456Y-52025219D01*
X164713813Y-52449879D01*
X164717044Y-52450959D01*
X165858198Y-52850266D01*
X166036981Y-52912825D01*
X166040247Y-52914020D01*
X167346626Y-53412691D01*
X167349858Y-53413977D01*
X168641756Y-53949099D01*
X168644950Y-53950475D01*
X169138043Y-54171120D01*
X169921331Y-54521618D01*
X169924455Y-54523069D01*
X170059963Y-54588326D01*
X171184339Y-55129797D01*
X171187451Y-55131350D01*
X172429818Y-55773172D01*
X172432812Y-55774771D01*
X173656719Y-56451201D01*
X173659739Y-56452926D01*
X174864133Y-57163380D01*
X174867104Y-57165189D01*
X176051120Y-57909155D01*
X176054029Y-57911040D01*
X177216720Y-58687927D01*
X177219540Y-58689869D01*
X178360047Y-59499100D01*
X178362795Y-59501110D01*
X178857790Y-59873632D01*
X179480076Y-60341951D01*
X179482826Y-60344081D01*
X180576103Y-61215941D01*
X180578791Y-61218147D01*
X181647166Y-62120308D01*
X181649792Y-62122589D01*
X182692454Y-63054369D01*
X182695015Y-63056723D01*
X183711150Y-64017394D01*
X183713643Y-64019819D01*
X184702380Y-65008556D01*
X184704805Y-65011049D01*
X185665476Y-66027184D01*
X185667830Y-66029745D01*
X186422166Y-66873847D01*
X186426678Y-66879192D01*
X189347800Y-70544549D01*
X189355980Y-70556111D01*
X191974170Y-74745215D01*
X191979807Y-74755241D01*
X194299523Y-79369729D01*
X194304389Y-79380703D01*
X195750241Y-83119976D01*
X195753741Y-83130374D01*
X197075956Y-87720705D01*
X197078157Y-87729557D01*
X197925780Y-91768231D01*
X197927878Y-91782075D01*
X198451612Y-97343639D01*
X198452151Y-97356584D01*
X198402268Y-102045594D01*
X198401847Y-102054573D01*
X198152474Y-105047056D01*
X198151814Y-105053146D01*
X197852610Y-107297178D01*
X197851698Y-107302972D01*
X197502710Y-109222404D01*
X197501615Y-109227755D01*
X196927723Y-111747891D01*
X196926631Y-111752308D01*
X196128791Y-114744207D01*
X196125083Y-114755796D01*
X195152752Y-117348677D01*
X195151638Y-117351538D01*
X194004314Y-120194906D01*
X193999670Y-120205070D01*
X192478911Y-123171797D01*
X192475331Y-123178294D01*
X189955379Y-127444749D01*
X189948557Y-127455085D01*
X187604687Y-130646737D01*
X187599527Y-130653289D01*
X185180968Y-133520653D01*
X185173078Y-133529165D01*
X182355114Y-136297253D01*
X182349143Y-136302746D01*
X178931109Y-139246746D01*
X178923062Y-139253116D01*
X176280751Y-141172531D01*
X176273518Y-141177406D01*
X173156530Y-143122406D01*
X173147705Y-143127423D01*
X169132315Y-145197469D01*
X169121907Y-145202240D01*
X164982234Y-146873072D01*
X164972058Y-146876673D01*
X161381378Y-147973825D01*
X161372976Y-147976073D01*
X156934030Y-148998527D01*
X156920277Y-149000889D01*
X155177225Y-149200094D01*
X153733206Y-149449064D01*
X153721165Y-149450538D01*
X150306178Y-149699807D01*
X150298248Y-149700131D01*
X147481105Y-149725061D01*
X147473335Y-149724886D01*
X143590294Y-149515620D01*
X143307154Y-149500361D01*
X143297335Y-149499440D01*
X142922033Y-149449064D01*
X140723289Y-149153930D01*
X140719014Y-149153280D01*
X139812209Y-148999208D01*
X139808789Y-148998577D01*
X138437353Y-148725781D01*
X138433951Y-148725055D01*
X137070667Y-148413894D01*
X137067288Y-148413073D01*
X135713269Y-148063801D01*
X135709913Y-148062885D01*
X135400779Y-147973825D01*
X134366197Y-147675767D01*
X134362898Y-147674765D01*
X133030621Y-147250131D01*
X133027322Y-147249029D01*
X131707418Y-146787174D01*
X131704152Y-146785979D01*
X130397773Y-146287308D01*
X130394541Y-146286022D01*
X129102643Y-145750900D01*
X129099449Y-145749524D01*
X127823084Y-145178388D01*
X127819929Y-145176923D01*
X126560060Y-144570202D01*
X126556948Y-144568649D01*
X125564103Y-144055733D01*
X125314607Y-143926841D01*
X125311551Y-143925208D01*
X124992774Y-143749026D01*
X124811112Y-143648625D01*
X145941000Y-143648625D01*
X145941000Y-143793575D01*
X145976711Y-143926847D01*
X145978517Y-143933588D01*
X146050988Y-144059111D01*
X146050990Y-144059113D01*
X146050991Y-144059115D01*
X146153485Y-144161609D01*
X146153486Y-144161610D01*
X146153488Y-144161611D01*
X146279011Y-144234082D01*
X146279012Y-144234082D01*
X146279015Y-144234084D01*
X146419025Y-144271600D01*
X146419028Y-144271600D01*
X146563972Y-144271600D01*
X146563975Y-144271600D01*
X146703985Y-144234084D01*
X146829515Y-144161609D01*
X146932009Y-144059115D01*
X147004484Y-143933585D01*
X147042000Y-143793575D01*
X147042000Y-143717644D01*
X147061685Y-143650605D01*
X147078319Y-143629963D01*
X151514563Y-139193719D01*
X151575886Y-139160234D01*
X151602244Y-139157400D01*
X151675472Y-139157400D01*
X151675475Y-139157400D01*
X151815485Y-139119884D01*
X151941015Y-139047409D01*
X152043509Y-138944915D01*
X152115984Y-138819385D01*
X152153500Y-138679375D01*
X152153500Y-138534425D01*
X152115984Y-138394415D01*
X152043509Y-138268885D01*
X151941015Y-138166391D01*
X151941013Y-138166390D01*
X151941011Y-138166388D01*
X151815488Y-138093917D01*
X151815489Y-138093917D01*
X151804006Y-138090840D01*
X151675475Y-138056400D01*
X151530525Y-138056400D01*
X151401993Y-138090840D01*
X151390511Y-138093917D01*
X151264988Y-138166388D01*
X151264982Y-138166393D01*
X151162493Y-138268882D01*
X151162488Y-138268888D01*
X151090017Y-138394411D01*
X151090016Y-138394415D01*
X151052500Y-138534425D01*
X151052500Y-138534427D01*
X151052500Y-138613056D01*
X151032815Y-138680095D01*
X151016181Y-138700737D01*
X146582637Y-143134281D01*
X146521314Y-143167766D01*
X146494956Y-143170600D01*
X146419025Y-143170600D01*
X146290493Y-143205040D01*
X146279011Y-143208117D01*
X146153488Y-143280588D01*
X146153482Y-143280593D01*
X146050993Y-143383082D01*
X146050988Y-143383088D01*
X145978517Y-143508611D01*
X145978516Y-143508615D01*
X145941000Y-143648625D01*
X124811112Y-143648625D01*
X124087680Y-143248798D01*
X124084660Y-143247073D01*
X122880266Y-142536619D01*
X122877295Y-142534810D01*
X121693279Y-141790844D01*
X121690360Y-141788952D01*
X120527701Y-141012087D01*
X120524837Y-141010115D01*
X120072507Y-140689170D01*
X119384365Y-140200907D01*
X119381591Y-140198880D01*
X118899429Y-139836015D01*
X118264323Y-139358048D01*
X118261573Y-139355918D01*
X117168296Y-138484058D01*
X117165608Y-138481852D01*
X116097233Y-137579691D01*
X116094607Y-137577410D01*
X115051945Y-136645630D01*
X115049384Y-136643276D01*
X114867267Y-136471100D01*
X114033249Y-135682605D01*
X114030756Y-135680180D01*
X113042019Y-134691443D01*
X113039594Y-134688950D01*
X112738248Y-134370206D01*
X112078918Y-133672810D01*
X112076569Y-133670254D01*
X112006355Y-133591685D01*
X111144789Y-132627592D01*
X111142508Y-132624966D01*
X110240347Y-131556591D01*
X110238141Y-131553903D01*
X109366281Y-130460626D01*
X109364151Y-130457876D01*
X108791362Y-129696774D01*
X108523310Y-129340595D01*
X108521300Y-129337847D01*
X107712069Y-128197340D01*
X107710112Y-128194498D01*
X107216051Y-127455085D01*
X106933240Y-127031829D01*
X106931355Y-127028920D01*
X106187389Y-125844904D01*
X106185580Y-125841933D01*
X105475126Y-124637539D01*
X105473401Y-124634519D01*
X104796971Y-123410612D01*
X104795372Y-123407618D01*
X104153550Y-122165251D01*
X104151997Y-122162139D01*
X103545276Y-120902270D01*
X103543811Y-120899115D01*
X102972675Y-119622750D01*
X102971299Y-119619556D01*
X102436177Y-118327658D01*
X102434891Y-118324426D01*
X101936220Y-117018047D01*
X101935025Y-117014781D01*
X101473159Y-115694844D01*
X101472079Y-115691613D01*
X101338695Y-115273125D01*
X111741600Y-115273125D01*
X111741600Y-115418075D01*
X111779116Y-115558085D01*
X111779117Y-115558088D01*
X111851588Y-115683611D01*
X111851590Y-115683613D01*
X111851591Y-115683615D01*
X111954085Y-115786109D01*
X111954086Y-115786110D01*
X111954088Y-115786111D01*
X112079611Y-115858582D01*
X112079612Y-115858582D01*
X112079615Y-115858584D01*
X112219625Y-115896100D01*
X112219628Y-115896100D01*
X112364572Y-115896100D01*
X112364575Y-115896100D01*
X112504585Y-115858584D01*
X112630115Y-115786109D01*
X112732609Y-115683615D01*
X112805084Y-115558085D01*
X112842600Y-115418075D01*
X112842600Y-115273125D01*
X112805084Y-115133115D01*
X112801086Y-115126191D01*
X112732611Y-115007588D01*
X112732606Y-115007582D01*
X112630117Y-114905093D01*
X112630111Y-114905088D01*
X112504588Y-114832617D01*
X112504589Y-114832617D01*
X112493106Y-114829540D01*
X112364575Y-114795100D01*
X112219625Y-114795100D01*
X112091093Y-114829540D01*
X112079611Y-114832617D01*
X111954088Y-114905088D01*
X111954082Y-114905093D01*
X111851593Y-115007582D01*
X111851588Y-115007588D01*
X111779117Y-115133111D01*
X111779116Y-115133115D01*
X111741600Y-115273125D01*
X101338695Y-115273125D01*
X101047419Y-114359256D01*
X101046446Y-114356047D01*
X100659299Y-113012231D01*
X100658413Y-113008985D01*
X100309124Y-111654906D01*
X100308305Y-111651532D01*
X100303911Y-111632282D01*
X100170284Y-111046825D01*
X109684300Y-111046825D01*
X109684300Y-111191775D01*
X109721816Y-111331785D01*
X109721817Y-111331788D01*
X109794288Y-111457311D01*
X109794290Y-111457313D01*
X109794291Y-111457315D01*
X109896785Y-111559809D01*
X109896786Y-111559810D01*
X109896788Y-111559811D01*
X110022311Y-111632282D01*
X110022312Y-111632282D01*
X110022315Y-111632284D01*
X110162325Y-111669800D01*
X110162328Y-111669800D01*
X110307272Y-111669800D01*
X110307275Y-111669800D01*
X110447285Y-111632284D01*
X110572815Y-111559809D01*
X110626505Y-111506119D01*
X110687828Y-111472634D01*
X110714186Y-111469800D01*
X139690056Y-111469800D01*
X139757095Y-111489485D01*
X139777737Y-111506119D01*
X143747181Y-115475562D01*
X143780666Y-115536885D01*
X143783500Y-115563243D01*
X143783500Y-115639175D01*
X143821016Y-115779185D01*
X143821017Y-115779188D01*
X143893488Y-115904711D01*
X143893490Y-115904713D01*
X143893491Y-115904715D01*
X143995985Y-116007209D01*
X143995986Y-116007210D01*
X143995988Y-116007211D01*
X144121511Y-116079682D01*
X144121512Y-116079682D01*
X144121515Y-116079684D01*
X144261525Y-116117200D01*
X144261528Y-116117200D01*
X144406472Y-116117200D01*
X144406475Y-116117200D01*
X144546485Y-116079684D01*
X144672015Y-116007209D01*
X144704419Y-115974805D01*
X144765742Y-115941320D01*
X144835434Y-115946304D01*
X144891367Y-115988176D01*
X144915784Y-116053640D01*
X144916100Y-116062486D01*
X144916100Y-133272751D01*
X144896415Y-133339790D01*
X144843611Y-133385545D01*
X144824199Y-133392524D01*
X144745994Y-133413479D01*
X144733911Y-133416717D01*
X144608388Y-133489188D01*
X144608382Y-133489193D01*
X144505893Y-133591682D01*
X144505888Y-133591688D01*
X144433417Y-133717211D01*
X144433416Y-133717215D01*
X144395900Y-133857225D01*
X144395900Y-134002175D01*
X144417193Y-134081640D01*
X144433417Y-134142188D01*
X144505888Y-134267711D01*
X144505890Y-134267713D01*
X144505891Y-134267715D01*
X144608385Y-134370209D01*
X144608386Y-134370210D01*
X144608388Y-134370211D01*
X144733911Y-134442682D01*
X144733912Y-134442682D01*
X144733915Y-134442684D01*
X144873925Y-134480200D01*
X144873928Y-134480200D01*
X145018872Y-134480200D01*
X145018875Y-134480200D01*
X145158885Y-134442684D01*
X145284415Y-134370209D01*
X145386909Y-134267715D01*
X145459384Y-134142185D01*
X145496900Y-134002175D01*
X145496900Y-133926244D01*
X145516585Y-133859205D01*
X145533219Y-133838563D01*
X145547070Y-133824712D01*
X145593214Y-133744788D01*
X145600602Y-133717215D01*
X145600604Y-133717211D01*
X145605023Y-133700715D01*
X145617100Y-133655644D01*
X145617100Y-108377543D01*
X145636785Y-108310504D01*
X145653415Y-108289866D01*
X146295019Y-107648261D01*
X146356342Y-107614777D01*
X146426034Y-107619761D01*
X146481967Y-107661633D01*
X146506384Y-107727097D01*
X146506700Y-107735943D01*
X146506700Y-134333356D01*
X146487015Y-134400395D01*
X146470381Y-134421037D01*
X145557637Y-135333781D01*
X145496314Y-135367266D01*
X145469956Y-135370100D01*
X145394025Y-135370100D01*
X145265493Y-135404540D01*
X145254011Y-135407617D01*
X145128488Y-135480088D01*
X145128482Y-135480093D01*
X145025993Y-135582582D01*
X145025988Y-135582588D01*
X144953517Y-135708111D01*
X144953516Y-135708115D01*
X144916000Y-135848125D01*
X144916000Y-135993075D01*
X144948907Y-136115885D01*
X144953517Y-136133088D01*
X145025988Y-136258611D01*
X145025990Y-136258613D01*
X145025991Y-136258615D01*
X145128485Y-136361109D01*
X145128486Y-136361110D01*
X145128488Y-136361111D01*
X145254011Y-136433582D01*
X145254012Y-136433582D01*
X145254015Y-136433584D01*
X145394025Y-136471100D01*
X145394028Y-136471100D01*
X145538972Y-136471100D01*
X145538975Y-136471100D01*
X145678985Y-136433584D01*
X145804515Y-136361109D01*
X145907009Y-136258615D01*
X145979484Y-136133085D01*
X146017000Y-135993075D01*
X146017000Y-135917144D01*
X146036685Y-135850105D01*
X146053319Y-135829463D01*
X146549001Y-135333781D01*
X147137670Y-134745112D01*
X147183814Y-134665188D01*
X147207700Y-134576044D01*
X147207700Y-134483756D01*
X147207700Y-107725544D01*
X147227385Y-107658505D01*
X147244019Y-107637863D01*
X151842519Y-103039363D01*
X151903842Y-103005878D01*
X151973534Y-103010862D01*
X152029467Y-103052734D01*
X152053884Y-103118198D01*
X152054200Y-103127044D01*
X152054200Y-104596614D01*
X152034515Y-104663653D01*
X152017881Y-104684295D01*
X151964193Y-104737982D01*
X151964188Y-104737988D01*
X151891717Y-104863511D01*
X151891716Y-104863515D01*
X151854200Y-105003525D01*
X151854200Y-105148475D01*
X151891609Y-105288085D01*
X151891717Y-105288488D01*
X151964188Y-105414011D01*
X151964190Y-105414013D01*
X151964191Y-105414015D01*
X152066685Y-105516509D01*
X152066686Y-105516510D01*
X152066688Y-105516511D01*
X152192211Y-105588982D01*
X152192212Y-105588982D01*
X152192215Y-105588984D01*
X152332225Y-105626500D01*
X152332228Y-105626500D01*
X152477172Y-105626500D01*
X152477175Y-105626500D01*
X152617185Y-105588984D01*
X152742715Y-105516509D01*
X152845209Y-105414015D01*
X152917684Y-105288485D01*
X152955200Y-105148475D01*
X152955200Y-105003525D01*
X152917684Y-104863515D01*
X152894025Y-104822537D01*
X152845211Y-104737988D01*
X152845206Y-104737982D01*
X152791519Y-104684295D01*
X152758034Y-104622972D01*
X152755200Y-104596614D01*
X152755200Y-102803844D01*
X152774885Y-102736805D01*
X152791519Y-102716163D01*
X153502319Y-102005363D01*
X153563642Y-101971878D01*
X153633334Y-101976862D01*
X153689267Y-102018734D01*
X153713684Y-102084198D01*
X153714000Y-102093044D01*
X153714000Y-103323600D01*
X153694315Y-103390639D01*
X153641511Y-103436394D01*
X153598287Y-103445797D01*
X153598385Y-103446539D01*
X153590328Y-103447599D01*
X153450311Y-103485117D01*
X153324788Y-103557588D01*
X153324782Y-103557593D01*
X153222293Y-103660082D01*
X153222288Y-103660088D01*
X153149817Y-103785611D01*
X153149816Y-103785615D01*
X153112300Y-103925625D01*
X153112300Y-104070575D01*
X153149816Y-104210585D01*
X153149817Y-104210588D01*
X153222288Y-104336111D01*
X153222290Y-104336113D01*
X153222291Y-104336115D01*
X153324785Y-104438609D01*
X153324786Y-104438610D01*
X153324788Y-104438611D01*
X153450311Y-104511082D01*
X153450312Y-104511082D01*
X153450315Y-104511084D01*
X153590325Y-104548600D01*
X153590328Y-104548600D01*
X153735272Y-104548600D01*
X153735275Y-104548600D01*
X153875285Y-104511084D01*
X154000815Y-104438609D01*
X154103309Y-104336115D01*
X154175784Y-104210585D01*
X154213300Y-104070575D01*
X154213300Y-103994644D01*
X154221221Y-103967665D01*
X154226012Y-103939954D01*
X154231688Y-103932021D01*
X154232985Y-103927605D01*
X154245928Y-103910816D01*
X154247727Y-103908854D01*
X154286656Y-103869925D01*
X155145200Y-103869925D01*
X155145200Y-104014875D01*
X155177718Y-104136231D01*
X155182717Y-104154888D01*
X155255188Y-104280411D01*
X155255190Y-104280413D01*
X155255191Y-104280415D01*
X155357685Y-104382909D01*
X155357686Y-104382910D01*
X155357688Y-104382911D01*
X155483211Y-104455382D01*
X155483212Y-104455382D01*
X155483215Y-104455384D01*
X155623225Y-104492900D01*
X155623228Y-104492900D01*
X155768172Y-104492900D01*
X155768175Y-104492900D01*
X155908185Y-104455384D01*
X156033715Y-104382909D01*
X156136209Y-104280415D01*
X156208684Y-104154885D01*
X156246200Y-104014875D01*
X156246200Y-103869925D01*
X156208684Y-103729915D01*
X156168369Y-103660088D01*
X156136211Y-103604388D01*
X156136206Y-103604382D01*
X156033717Y-103501893D01*
X156033711Y-103501888D01*
X155908188Y-103429417D01*
X155908189Y-103429417D01*
X155896706Y-103426340D01*
X155768175Y-103391900D01*
X155623225Y-103391900D01*
X155494693Y-103426340D01*
X155483211Y-103429417D01*
X155357688Y-103501888D01*
X155357682Y-103501893D01*
X155255193Y-103604382D01*
X155255188Y-103604388D01*
X155182717Y-103729911D01*
X155182716Y-103729915D01*
X155145200Y-103869925D01*
X154286656Y-103869925D01*
X154344970Y-103811612D01*
X154391114Y-103731688D01*
X154415000Y-103642543D01*
X154415000Y-103550256D01*
X154415000Y-103023983D01*
X154434685Y-102956944D01*
X154487489Y-102911189D01*
X154556647Y-102901245D01*
X154571084Y-102904206D01*
X154593825Y-102910300D01*
X154593827Y-102910300D01*
X154738772Y-102910300D01*
X154738775Y-102910300D01*
X154878785Y-102872784D01*
X155004315Y-102800309D01*
X155106809Y-102697815D01*
X155179284Y-102572285D01*
X155216800Y-102432275D01*
X155216800Y-102287325D01*
X155210341Y-102263220D01*
X155212002Y-102193373D01*
X155242432Y-102143448D01*
X156496570Y-100889312D01*
X156542714Y-100809388D01*
X156566600Y-100720244D01*
X156566600Y-100627956D01*
X156566600Y-99465344D01*
X156586285Y-99398305D01*
X156602919Y-99377663D01*
X159090519Y-96890063D01*
X159151842Y-96856578D01*
X159221534Y-96861562D01*
X159277467Y-96903434D01*
X159301884Y-96968898D01*
X159302200Y-96977744D01*
X159302200Y-99194282D01*
X159282515Y-99261321D01*
X159229711Y-99307076D01*
X159160553Y-99317020D01*
X159096997Y-99287995D01*
X159079828Y-99269773D01*
X159078610Y-99268186D01*
X158976117Y-99165693D01*
X158976111Y-99165688D01*
X158850588Y-99093217D01*
X158850589Y-99093217D01*
X158839106Y-99090140D01*
X158710575Y-99055700D01*
X158565625Y-99055700D01*
X158437093Y-99090140D01*
X158425611Y-99093217D01*
X158300088Y-99165688D01*
X158300082Y-99165693D01*
X158197593Y-99268182D01*
X158197588Y-99268188D01*
X158125117Y-99393711D01*
X158125116Y-99393715D01*
X158087600Y-99533725D01*
X158087600Y-99678675D01*
X158124286Y-99815586D01*
X158125117Y-99818688D01*
X158197588Y-99944211D01*
X158197590Y-99944213D01*
X158197591Y-99944215D01*
X158300085Y-100046709D01*
X158411989Y-100111317D01*
X158460204Y-100161884D01*
X158473426Y-100230492D01*
X158447458Y-100295356D01*
X158397442Y-100333264D01*
X158393217Y-100335013D01*
X158267688Y-100407488D01*
X158267682Y-100407493D01*
X158165193Y-100509982D01*
X158165188Y-100509988D01*
X158092717Y-100635511D01*
X158092716Y-100635515D01*
X158055200Y-100775525D01*
X158055200Y-100920475D01*
X158082719Y-101023175D01*
X158092717Y-101060488D01*
X158165188Y-101186011D01*
X158165190Y-101186013D01*
X158165191Y-101186015D01*
X158267685Y-101288509D01*
X158267686Y-101288510D01*
X158267688Y-101288511D01*
X158393211Y-101360982D01*
X158393212Y-101360982D01*
X158393215Y-101360984D01*
X158533225Y-101398500D01*
X158533228Y-101398500D01*
X158678172Y-101398500D01*
X158678175Y-101398500D01*
X158818185Y-101360984D01*
X158943715Y-101288509D01*
X159046209Y-101186015D01*
X159070813Y-101143400D01*
X159121380Y-101095184D01*
X159189987Y-101081962D01*
X159254852Y-101107930D01*
X159295380Y-101164844D01*
X159302200Y-101205400D01*
X159302200Y-102753273D01*
X159282515Y-102820312D01*
X159229711Y-102866067D01*
X159160553Y-102876011D01*
X159096997Y-102846986D01*
X159070814Y-102815276D01*
X159067009Y-102808685D01*
X158964515Y-102706191D01*
X158964513Y-102706190D01*
X158964511Y-102706188D01*
X158838988Y-102633717D01*
X158838989Y-102633717D01*
X158827506Y-102630640D01*
X158698975Y-102596200D01*
X158554025Y-102596200D01*
X158425493Y-102630640D01*
X158414011Y-102633717D01*
X158288488Y-102706188D01*
X158288482Y-102706193D01*
X158185993Y-102808682D01*
X158185988Y-102808688D01*
X158113517Y-102934211D01*
X158113516Y-102934215D01*
X158076000Y-103074225D01*
X158076000Y-103219175D01*
X158111999Y-103353522D01*
X158113517Y-103359188D01*
X158185988Y-103484711D01*
X158185990Y-103484713D01*
X158185991Y-103484715D01*
X158288485Y-103587209D01*
X158288486Y-103587210D01*
X158288488Y-103587211D01*
X158414011Y-103659682D01*
X158414012Y-103659682D01*
X158414015Y-103659684D01*
X158554025Y-103697200D01*
X158554028Y-103697200D01*
X158698972Y-103697200D01*
X158698975Y-103697200D01*
X158838985Y-103659684D01*
X158964515Y-103587209D01*
X159067009Y-103484715D01*
X159070813Y-103478125D01*
X159121379Y-103429911D01*
X159189986Y-103416687D01*
X159254851Y-103442655D01*
X159295380Y-103499569D01*
X159302200Y-103540126D01*
X159302200Y-104977544D01*
X159322458Y-105053146D01*
X159326086Y-105066687D01*
X159326087Y-105066690D01*
X159372227Y-105146608D01*
X159372231Y-105146613D01*
X159837781Y-105612163D01*
X159871266Y-105673486D01*
X159874100Y-105699844D01*
X159874100Y-106718606D01*
X159854415Y-106785645D01*
X159801611Y-106831400D01*
X159732453Y-106841344D01*
X159718008Y-106838381D01*
X159687476Y-106830200D01*
X159687475Y-106830200D01*
X159542525Y-106830200D01*
X159413993Y-106864640D01*
X159402511Y-106867717D01*
X159276988Y-106940188D01*
X159276982Y-106940193D01*
X159174493Y-107042682D01*
X159174488Y-107042688D01*
X159102017Y-107168211D01*
X159102016Y-107168215D01*
X159064500Y-107308225D01*
X159064500Y-107453175D01*
X159100579Y-107587821D01*
X159102017Y-107593188D01*
X159174488Y-107718711D01*
X159174490Y-107718713D01*
X159174491Y-107718715D01*
X159276985Y-107821209D01*
X159276986Y-107821210D01*
X159276988Y-107821211D01*
X159402511Y-107893682D01*
X159402512Y-107893682D01*
X159402515Y-107893684D01*
X159542525Y-107931200D01*
X159542528Y-107931200D01*
X159687473Y-107931200D01*
X159687475Y-107931200D01*
X159718006Y-107923019D01*
X159787855Y-107924680D01*
X159845718Y-107963842D01*
X159873223Y-108028070D01*
X159874100Y-108042793D01*
X159874100Y-129788756D01*
X159854415Y-129855795D01*
X159837781Y-129876437D01*
X159334837Y-130379381D01*
X159273514Y-130412866D01*
X159247156Y-130415700D01*
X159171225Y-130415700D01*
X159042693Y-130450140D01*
X159031211Y-130453217D01*
X158905688Y-130525688D01*
X158905682Y-130525693D01*
X158803193Y-130628182D01*
X158803188Y-130628188D01*
X158730717Y-130753711D01*
X158730716Y-130753715D01*
X158693200Y-130893725D01*
X158693200Y-131038675D01*
X158730716Y-131178685D01*
X158730717Y-131178688D01*
X158803188Y-131304211D01*
X158803190Y-131304213D01*
X158803191Y-131304215D01*
X158905685Y-131406709D01*
X158905686Y-131406710D01*
X158905688Y-131406711D01*
X159031211Y-131479182D01*
X159031212Y-131479182D01*
X159031215Y-131479184D01*
X159171225Y-131516700D01*
X159171228Y-131516700D01*
X159316172Y-131516700D01*
X159316175Y-131516700D01*
X159456185Y-131479184D01*
X159581715Y-131406709D01*
X159684209Y-131304215D01*
X159756684Y-131178685D01*
X159794200Y-131038675D01*
X159794200Y-130962744D01*
X159813885Y-130895705D01*
X159830519Y-130875063D01*
X160077400Y-130628182D01*
X160505070Y-130200512D01*
X160551214Y-130120588D01*
X160575100Y-130031444D01*
X160575100Y-113112725D01*
X178902100Y-113112725D01*
X178902100Y-113257675D01*
X178939616Y-113397685D01*
X178939617Y-113397688D01*
X179012088Y-113523211D01*
X179012090Y-113523213D01*
X179012091Y-113523215D01*
X179114585Y-113625709D01*
X179114586Y-113625710D01*
X179114588Y-113625711D01*
X179240111Y-113698182D01*
X179240112Y-113698182D01*
X179240115Y-113698184D01*
X179380125Y-113735700D01*
X179380128Y-113735700D01*
X179525072Y-113735700D01*
X179525075Y-113735700D01*
X179665085Y-113698184D01*
X179790615Y-113625709D01*
X179893109Y-113523215D01*
X179965584Y-113397685D01*
X180003100Y-113257675D01*
X180003100Y-113181744D01*
X180022785Y-113114705D01*
X180039419Y-113094063D01*
X180535101Y-112598381D01*
X181105470Y-112028012D01*
X181151614Y-111948088D01*
X181175500Y-111858943D01*
X181175500Y-111766656D01*
X181175500Y-109051686D01*
X181195185Y-108984647D01*
X181211819Y-108964005D01*
X181215700Y-108960124D01*
X181265509Y-108910315D01*
X181337984Y-108784785D01*
X181375500Y-108644775D01*
X181375500Y-108499825D01*
X181337984Y-108359815D01*
X181297596Y-108289862D01*
X181265511Y-108234288D01*
X181265506Y-108234282D01*
X181163017Y-108131793D01*
X181163011Y-108131788D01*
X181037488Y-108059317D01*
X181037489Y-108059317D01*
X181026006Y-108056240D01*
X180897475Y-108021800D01*
X180752525Y-108021800D01*
X180623993Y-108056240D01*
X180612511Y-108059317D01*
X180486988Y-108131788D01*
X180486982Y-108131793D01*
X180384493Y-108234282D01*
X180384488Y-108234288D01*
X180312017Y-108359811D01*
X180312016Y-108359815D01*
X180274500Y-108499825D01*
X180274500Y-108644775D01*
X180288614Y-108697447D01*
X180312017Y-108784788D01*
X180384488Y-108910311D01*
X180384493Y-108910317D01*
X180438181Y-108964005D01*
X180471666Y-109025328D01*
X180474500Y-109051686D01*
X180474500Y-111616256D01*
X180454815Y-111683295D01*
X180438181Y-111703937D01*
X179543737Y-112598381D01*
X179482414Y-112631866D01*
X179456056Y-112634700D01*
X179380125Y-112634700D01*
X179251593Y-112669140D01*
X179240111Y-112672217D01*
X179114588Y-112744688D01*
X179114582Y-112744693D01*
X179012093Y-112847182D01*
X179012088Y-112847188D01*
X178939617Y-112972711D01*
X178939616Y-112972715D01*
X178902100Y-113112725D01*
X160575100Y-113112725D01*
X160575100Y-107587821D01*
X192812000Y-107587821D01*
X192812000Y-109212178D01*
X192826532Y-109285235D01*
X192826533Y-109285239D01*
X192826534Y-109285240D01*
X192881899Y-109368101D01*
X192964760Y-109423466D01*
X192964764Y-109423467D01*
X193037821Y-109437999D01*
X193037824Y-109438000D01*
X193037826Y-109438000D01*
X194662176Y-109438000D01*
X194662177Y-109437999D01*
X194735240Y-109423466D01*
X194818101Y-109368101D01*
X194873466Y-109285240D01*
X194888000Y-109212174D01*
X194888000Y-107587826D01*
X194888000Y-107587823D01*
X194887999Y-107587821D01*
X194873467Y-107514764D01*
X194873466Y-107514760D01*
X194818101Y-107431899D01*
X194735240Y-107376534D01*
X194735239Y-107376533D01*
X194735235Y-107376532D01*
X194662177Y-107362000D01*
X194662174Y-107362000D01*
X193037826Y-107362000D01*
X193037823Y-107362000D01*
X192964764Y-107376532D01*
X192964760Y-107376533D01*
X192881899Y-107431899D01*
X192826533Y-107514760D01*
X192826532Y-107514764D01*
X192812000Y-107587821D01*
X160575100Y-107587821D01*
X160575100Y-106002187D01*
X192812499Y-106002187D01*
X192852369Y-106202621D01*
X192852371Y-106202629D01*
X192930579Y-106391441D01*
X192930580Y-106391443D01*
X193031197Y-106542025D01*
X193400968Y-106172253D01*
X193429896Y-106222357D01*
X193527643Y-106320104D01*
X193577744Y-106349030D01*
X193207972Y-106718802D01*
X193358552Y-106819417D01*
X193358565Y-106819424D01*
X193547370Y-106897628D01*
X193547378Y-106897630D01*
X193747812Y-106937500D01*
X193952187Y-106937500D01*
X194152621Y-106897630D01*
X194152629Y-106897628D01*
X194341436Y-106819423D01*
X194341437Y-106819422D01*
X194492026Y-106718802D01*
X194122255Y-106349030D01*
X194172357Y-106320104D01*
X194270104Y-106222357D01*
X194299030Y-106172254D01*
X194668802Y-106542026D01*
X194769422Y-106391437D01*
X194769423Y-106391436D01*
X194847628Y-106202629D01*
X194847630Y-106202621D01*
X194887500Y-106002187D01*
X194887500Y-105797812D01*
X194847630Y-105597378D01*
X194847628Y-105597370D01*
X194769424Y-105408565D01*
X194769417Y-105408552D01*
X194668802Y-105257972D01*
X194299030Y-105627744D01*
X194270104Y-105577643D01*
X194172357Y-105479896D01*
X194122254Y-105450968D01*
X194492025Y-105081197D01*
X194492025Y-105081196D01*
X194341443Y-104980580D01*
X194341441Y-104980579D01*
X194152629Y-104902371D01*
X194152621Y-104902369D01*
X193952187Y-104862500D01*
X193747813Y-104862500D01*
X193547378Y-104902369D01*
X193547370Y-104902371D01*
X193358566Y-104980575D01*
X193358553Y-104980582D01*
X193207973Y-105081197D01*
X193577745Y-105450969D01*
X193527643Y-105479896D01*
X193429896Y-105577643D01*
X193400969Y-105627745D01*
X193031197Y-105257973D01*
X192930582Y-105408553D01*
X192930575Y-105408566D01*
X192852371Y-105597370D01*
X192852369Y-105597378D01*
X192812500Y-105797812D01*
X192812500Y-106002187D01*
X192812499Y-106002187D01*
X160575100Y-106002187D01*
X160575100Y-105457156D01*
X160551214Y-105368012D01*
X160544550Y-105356469D01*
X160505070Y-105288088D01*
X160039519Y-104822537D01*
X160006034Y-104761214D01*
X160003200Y-104734856D01*
X160003200Y-98378343D01*
X160022885Y-98311304D01*
X160075689Y-98265549D01*
X160144847Y-98255605D01*
X160159280Y-98258565D01*
X160187025Y-98266000D01*
X160187027Y-98266000D01*
X160331972Y-98266000D01*
X160331975Y-98266000D01*
X160471985Y-98228484D01*
X160597515Y-98156009D01*
X160700009Y-98053515D01*
X160772484Y-97927985D01*
X160810000Y-97787975D01*
X160810000Y-97643025D01*
X160786742Y-97556225D01*
X166844600Y-97556225D01*
X166844600Y-97701175D01*
X166879841Y-97832695D01*
X166882117Y-97841188D01*
X166954588Y-97966711D01*
X166954590Y-97966713D01*
X166954591Y-97966715D01*
X167057085Y-98069209D01*
X167057086Y-98069210D01*
X167057088Y-98069211D01*
X167182611Y-98141682D01*
X167182612Y-98141682D01*
X167182615Y-98141684D01*
X167322625Y-98179200D01*
X167398556Y-98179200D01*
X167465595Y-98198885D01*
X167486237Y-98215519D01*
X167887681Y-98616963D01*
X167921166Y-98678286D01*
X167924000Y-98704644D01*
X167924000Y-98780475D01*
X167961493Y-98920400D01*
X167961517Y-98920488D01*
X168033988Y-99046011D01*
X168033990Y-99046013D01*
X168033991Y-99046015D01*
X168136485Y-99148509D01*
X168136486Y-99148510D01*
X168136488Y-99148511D01*
X168262011Y-99220982D01*
X168262012Y-99220982D01*
X168262015Y-99220984D01*
X168402025Y-99258500D01*
X168402028Y-99258500D01*
X168546972Y-99258500D01*
X168546975Y-99258500D01*
X168686985Y-99220984D01*
X168812515Y-99148509D01*
X168915009Y-99046015D01*
X168987484Y-98920485D01*
X169025000Y-98780475D01*
X169025000Y-98635525D01*
X168987484Y-98495515D01*
X168984770Y-98490815D01*
X168915011Y-98369988D01*
X168915006Y-98369982D01*
X168812517Y-98267493D01*
X168812511Y-98267488D01*
X168686988Y-98195017D01*
X168686989Y-98195017D01*
X168669448Y-98190317D01*
X168546975Y-98157500D01*
X168546972Y-98157500D01*
X168470944Y-98157500D01*
X168403905Y-98137815D01*
X168383263Y-98121181D01*
X167981919Y-97719837D01*
X167948434Y-97658514D01*
X167945600Y-97632156D01*
X167945600Y-97556227D01*
X167945600Y-97556225D01*
X167908084Y-97416215D01*
X167885721Y-97377482D01*
X167835611Y-97290688D01*
X167835606Y-97290682D01*
X167733117Y-97188193D01*
X167733115Y-97188191D01*
X167607585Y-97115716D01*
X167508347Y-97089125D01*
X185775800Y-97089125D01*
X185775800Y-97234075D01*
X185811556Y-97367515D01*
X185813317Y-97374088D01*
X185885788Y-97499611D01*
X185885790Y-97499613D01*
X185885791Y-97499615D01*
X185988285Y-97602109D01*
X185988286Y-97602110D01*
X185988288Y-97602111D01*
X186113811Y-97674582D01*
X186113812Y-97674582D01*
X186113815Y-97674584D01*
X186253825Y-97712100D01*
X186253828Y-97712100D01*
X186398772Y-97712100D01*
X186398775Y-97712100D01*
X186538785Y-97674584D01*
X186664315Y-97602109D01*
X186758899Y-97507525D01*
X188631700Y-97507525D01*
X188631700Y-97652475D01*
X188667586Y-97786400D01*
X188669217Y-97792488D01*
X188741688Y-97918011D01*
X188741690Y-97918013D01*
X188741691Y-97918015D01*
X188844185Y-98020509D01*
X188844187Y-98020510D01*
X188969711Y-98092982D01*
X188969712Y-98092982D01*
X188969715Y-98092984D01*
X189109725Y-98130500D01*
X189109728Y-98130500D01*
X189254672Y-98130500D01*
X189254675Y-98130500D01*
X189394685Y-98092984D01*
X189520215Y-98020509D01*
X189622709Y-97918015D01*
X189695184Y-97792485D01*
X189732700Y-97652475D01*
X189732700Y-97507525D01*
X189695184Y-97367515D01*
X189668727Y-97321691D01*
X189622711Y-97241988D01*
X189622706Y-97241982D01*
X189520217Y-97139493D01*
X189520211Y-97139488D01*
X189394688Y-97067017D01*
X189394689Y-97067017D01*
X189383206Y-97063940D01*
X189254675Y-97029500D01*
X189109725Y-97029500D01*
X188981193Y-97063940D01*
X188969711Y-97067017D01*
X188844188Y-97139488D01*
X188844182Y-97139493D01*
X188741693Y-97241982D01*
X188741688Y-97241988D01*
X188669217Y-97367511D01*
X188666544Y-97377488D01*
X188631700Y-97507525D01*
X186758899Y-97507525D01*
X186766809Y-97499615D01*
X186839284Y-97374085D01*
X186876800Y-97234075D01*
X186876800Y-97089125D01*
X186839284Y-96949115D01*
X186809706Y-96897885D01*
X186766811Y-96823588D01*
X186766806Y-96823582D01*
X186664317Y-96721093D01*
X186664311Y-96721088D01*
X186538788Y-96648617D01*
X186538789Y-96648617D01*
X186527306Y-96645540D01*
X186398775Y-96611100D01*
X186253825Y-96611100D01*
X186125293Y-96645540D01*
X186113811Y-96648617D01*
X185988288Y-96721088D01*
X185988282Y-96721093D01*
X185885793Y-96823582D01*
X185885788Y-96823588D01*
X185813317Y-96949111D01*
X185813316Y-96949115D01*
X185775800Y-97089125D01*
X167508347Y-97089125D01*
X167467575Y-97078200D01*
X167322625Y-97078200D01*
X167194093Y-97112640D01*
X167182611Y-97115717D01*
X167057088Y-97188188D01*
X167057082Y-97188193D01*
X166954593Y-97290682D01*
X166954588Y-97290688D01*
X166882117Y-97416211D01*
X166882116Y-97416215D01*
X166844600Y-97556225D01*
X160786742Y-97556225D01*
X160772484Y-97503015D01*
X160734599Y-97437397D01*
X160700011Y-97377488D01*
X160700006Y-97377482D01*
X160597517Y-97274993D01*
X160597511Y-97274988D01*
X160471988Y-97202517D01*
X160471989Y-97202517D01*
X160460506Y-97199440D01*
X160331975Y-97165000D01*
X160187025Y-97165000D01*
X160159292Y-97172430D01*
X160134298Y-97171835D01*
X160109553Y-97175394D01*
X160099972Y-97171018D01*
X160089443Y-97170768D01*
X160068739Y-97156755D01*
X160045997Y-97146369D01*
X160040302Y-97137507D01*
X160031581Y-97131605D01*
X160021739Y-97108624D01*
X160008223Y-97087591D01*
X160005943Y-97071735D01*
X160004077Y-97067377D01*
X160003200Y-97052656D01*
X160003200Y-96879544D01*
X160022885Y-96812505D01*
X160039519Y-96791863D01*
X160122963Y-96708419D01*
X160184286Y-96674934D01*
X160210644Y-96672100D01*
X160286572Y-96672100D01*
X160286575Y-96672100D01*
X160426585Y-96634584D01*
X160552115Y-96562109D01*
X160654609Y-96459615D01*
X160727084Y-96334085D01*
X160764600Y-96194075D01*
X160764600Y-96049125D01*
X160727084Y-95909115D01*
X160666318Y-95803866D01*
X160654611Y-95783588D01*
X160654606Y-95783582D01*
X160552117Y-95681093D01*
X160552115Y-95681091D01*
X160531904Y-95669422D01*
X160483690Y-95618855D01*
X160470468Y-95550248D01*
X160496436Y-95485383D01*
X160506216Y-95474364D01*
X168620263Y-87360319D01*
X168681586Y-87326834D01*
X168707944Y-87324000D01*
X183704814Y-87324000D01*
X183771853Y-87343685D01*
X183792495Y-87360319D01*
X183846185Y-87414009D01*
X183846186Y-87414010D01*
X183846188Y-87414011D01*
X183971711Y-87486482D01*
X183971712Y-87486482D01*
X183971715Y-87486484D01*
X184111725Y-87524000D01*
X184111728Y-87524000D01*
X184256672Y-87524000D01*
X184256675Y-87524000D01*
X184396685Y-87486484D01*
X184522215Y-87414009D01*
X184624709Y-87311515D01*
X184697184Y-87185985D01*
X184734700Y-87045975D01*
X184734700Y-86901025D01*
X184697184Y-86761015D01*
X184657933Y-86693031D01*
X184624711Y-86635488D01*
X184624706Y-86635482D01*
X184522217Y-86532993D01*
X184522211Y-86532988D01*
X184396688Y-86460517D01*
X184396689Y-86460517D01*
X184385206Y-86457440D01*
X184256675Y-86423000D01*
X184111725Y-86423000D01*
X183983193Y-86457440D01*
X183971711Y-86460517D01*
X183846188Y-86532988D01*
X183846182Y-86532993D01*
X183792495Y-86586681D01*
X183731172Y-86620166D01*
X183704814Y-86623000D01*
X168465256Y-86623000D01*
X168376112Y-86646886D01*
X168376109Y-86646887D01*
X168296191Y-86693027D01*
X168296186Y-86693031D01*
X156601681Y-98387536D01*
X156540358Y-98421021D01*
X156470666Y-98416037D01*
X156414733Y-98374165D01*
X156400740Y-98349589D01*
X156327011Y-98221888D01*
X156327006Y-98221882D01*
X156224517Y-98119393D01*
X156224515Y-98119391D01*
X156180722Y-98094107D01*
X156132506Y-98043540D01*
X156119284Y-97974933D01*
X156145252Y-97910068D01*
X156155033Y-97899047D01*
X170323057Y-83731025D01*
X181871800Y-83731025D01*
X181871800Y-83875975D01*
X181907289Y-84008421D01*
X181909317Y-84015988D01*
X181981788Y-84141511D01*
X181981790Y-84141513D01*
X181981791Y-84141515D01*
X182084285Y-84244009D01*
X182084286Y-84244010D01*
X182084288Y-84244011D01*
X182209811Y-84316482D01*
X182209812Y-84316482D01*
X182209815Y-84316484D01*
X182349825Y-84354000D01*
X182349828Y-84354000D01*
X182450600Y-84354000D01*
X182517639Y-84373685D01*
X182563394Y-84426489D01*
X182574600Y-84478000D01*
X182574600Y-84574375D01*
X182582585Y-84604174D01*
X182612117Y-84714388D01*
X182684588Y-84839911D01*
X182684590Y-84839913D01*
X182684591Y-84839915D01*
X182787085Y-84942409D01*
X182787086Y-84942410D01*
X182787088Y-84942411D01*
X182912611Y-85014882D01*
X182912612Y-85014882D01*
X182912615Y-85014884D01*
X183052625Y-85052400D01*
X183052628Y-85052400D01*
X183197572Y-85052400D01*
X183197575Y-85052400D01*
X183337585Y-85014884D01*
X183463115Y-84942409D01*
X183565609Y-84839915D01*
X183638084Y-84714385D01*
X183675600Y-84574375D01*
X183675600Y-84429425D01*
X183638084Y-84289415D01*
X183565609Y-84163885D01*
X183463115Y-84061391D01*
X183463113Y-84061390D01*
X183463111Y-84061388D01*
X183337588Y-83988917D01*
X183337589Y-83988917D01*
X183326106Y-83985840D01*
X183197575Y-83951400D01*
X183096800Y-83951400D01*
X183029761Y-83931715D01*
X182984006Y-83878911D01*
X182972800Y-83827400D01*
X182972800Y-83731027D01*
X182972800Y-83731025D01*
X182935284Y-83591015D01*
X182900634Y-83531000D01*
X182862811Y-83465488D01*
X182862806Y-83465482D01*
X182760317Y-83362993D01*
X182760311Y-83362988D01*
X182634788Y-83290517D01*
X182634789Y-83290517D01*
X182623306Y-83287440D01*
X182494775Y-83253000D01*
X182349825Y-83253000D01*
X182221293Y-83287440D01*
X182209811Y-83290517D01*
X182084288Y-83362988D01*
X182084282Y-83362993D01*
X181981793Y-83465482D01*
X181981788Y-83465488D01*
X181909317Y-83591011D01*
X181909316Y-83591015D01*
X181871800Y-83731025D01*
X170323057Y-83731025D01*
X173384663Y-80669419D01*
X173445986Y-80635934D01*
X173472344Y-80633100D01*
X173981314Y-80633100D01*
X174048353Y-80652785D01*
X174068995Y-80669419D01*
X174122685Y-80723109D01*
X174122686Y-80723110D01*
X174122688Y-80723111D01*
X174248211Y-80795582D01*
X174248212Y-80795582D01*
X174248215Y-80795584D01*
X174388225Y-80833100D01*
X174388228Y-80833100D01*
X174533172Y-80833100D01*
X174533175Y-80833100D01*
X174673185Y-80795584D01*
X174798715Y-80723109D01*
X174901209Y-80620615D01*
X174973684Y-80495085D01*
X175011200Y-80355075D01*
X175011200Y-80210125D01*
X174973684Y-80070115D01*
X174949029Y-80027412D01*
X174901211Y-79944588D01*
X174901206Y-79944582D01*
X174798717Y-79842093D01*
X174798711Y-79842088D01*
X174673188Y-79769617D01*
X174673189Y-79769617D01*
X174661706Y-79766540D01*
X174533175Y-79732100D01*
X174388225Y-79732100D01*
X174259693Y-79766540D01*
X174248211Y-79769617D01*
X174122688Y-79842088D01*
X174122682Y-79842093D01*
X174068995Y-79895781D01*
X174007672Y-79929266D01*
X173981314Y-79932100D01*
X173229656Y-79932100D01*
X173140512Y-79955986D01*
X173140509Y-79955987D01*
X173060591Y-80002127D01*
X173060586Y-80002131D01*
X154930581Y-98132137D01*
X154869258Y-98165622D01*
X154799566Y-98160638D01*
X154743633Y-98118766D01*
X154719216Y-98053302D01*
X154718900Y-98044456D01*
X154718900Y-69436558D01*
X154718900Y-69436556D01*
X154695014Y-69347412D01*
X154695011Y-69347406D01*
X154648873Y-69267494D01*
X154648870Y-69267491D01*
X154648869Y-69267488D01*
X154583612Y-69202231D01*
X151060819Y-65679437D01*
X151027334Y-65618114D01*
X151024500Y-65591756D01*
X151024500Y-65515827D01*
X151024500Y-65515825D01*
X150986984Y-65375815D01*
X150914509Y-65250285D01*
X150812015Y-65147791D01*
X150812013Y-65147790D01*
X150812011Y-65147788D01*
X150686488Y-65075317D01*
X150686489Y-65075317D01*
X150675006Y-65072240D01*
X150546475Y-65037800D01*
X150401525Y-65037800D01*
X150272993Y-65072240D01*
X150261511Y-65075317D01*
X150135988Y-65147788D01*
X150135982Y-65147793D01*
X150033493Y-65250282D01*
X150033488Y-65250288D01*
X149961017Y-65375811D01*
X149961016Y-65375815D01*
X149923500Y-65515825D01*
X149923500Y-65660775D01*
X149928501Y-65679437D01*
X149961017Y-65800788D01*
X150033488Y-65926311D01*
X150033490Y-65926313D01*
X150033491Y-65926315D01*
X150135985Y-66028809D01*
X150135986Y-66028810D01*
X150135988Y-66028811D01*
X150261511Y-66101282D01*
X150261512Y-66101282D01*
X150261515Y-66101284D01*
X150401525Y-66138800D01*
X150477456Y-66138800D01*
X150544495Y-66158485D01*
X150565137Y-66175119D01*
X153981581Y-69591562D01*
X154015066Y-69652885D01*
X154017900Y-69679243D01*
X154017900Y-98795556D01*
X154011661Y-98816801D01*
X154010082Y-98838890D01*
X154002009Y-98849673D01*
X153998215Y-98862595D01*
X153981481Y-98877094D01*
X153968210Y-98894823D01*
X153955589Y-98899530D01*
X153945411Y-98908350D01*
X153923493Y-98911501D01*
X153902746Y-98919240D01*
X153889585Y-98916377D01*
X153876253Y-98918294D01*
X153856109Y-98909094D01*
X153834473Y-98904388D01*
X153816747Y-98891119D01*
X153812697Y-98889269D01*
X153806219Y-98883237D01*
X153717419Y-98794437D01*
X153683934Y-98733114D01*
X153681100Y-98706756D01*
X153681100Y-98630827D01*
X153681100Y-98630825D01*
X153643584Y-98490815D01*
X153603288Y-98421021D01*
X153571111Y-98365288D01*
X153571106Y-98365282D01*
X153468617Y-98262793D01*
X153468611Y-98262788D01*
X153343088Y-98190317D01*
X153343089Y-98190317D01*
X153331606Y-98187240D01*
X153203075Y-98152800D01*
X153058125Y-98152800D01*
X152929593Y-98187240D01*
X152918111Y-98190317D01*
X152792588Y-98262788D01*
X152792582Y-98262793D01*
X152690093Y-98365282D01*
X152690088Y-98365288D01*
X152617617Y-98490811D01*
X152617616Y-98490815D01*
X152580100Y-98630825D01*
X152580100Y-98775775D01*
X152614562Y-98904388D01*
X152617617Y-98915788D01*
X152690088Y-99041311D01*
X152690090Y-99041313D01*
X152690091Y-99041315D01*
X152792585Y-99143809D01*
X152792586Y-99143810D01*
X152792588Y-99143811D01*
X152918111Y-99216282D01*
X152918112Y-99216282D01*
X152918115Y-99216284D01*
X153058125Y-99253800D01*
X153134056Y-99253800D01*
X153163496Y-99262444D01*
X153193483Y-99268968D01*
X153198498Y-99272722D01*
X153201095Y-99273485D01*
X153221737Y-99290119D01*
X153373781Y-99442163D01*
X153407266Y-99503486D01*
X153410100Y-99529844D01*
X153410100Y-99669248D01*
X153390415Y-99736287D01*
X153337611Y-99782042D01*
X153268453Y-99791986D01*
X153254007Y-99789023D01*
X153251521Y-99788356D01*
X153196075Y-99773500D01*
X153051125Y-99773500D01*
X152922593Y-99807940D01*
X152911111Y-99811017D01*
X152785588Y-99883488D01*
X152785582Y-99883493D01*
X152683093Y-99985982D01*
X152683088Y-99985988D01*
X152610617Y-100111511D01*
X152610616Y-100111515D01*
X152573100Y-100251525D01*
X152573100Y-100251527D01*
X152573100Y-100327456D01*
X152553415Y-100394495D01*
X152536781Y-100415137D01*
X144986131Y-107965786D01*
X144986129Y-107965789D01*
X144953792Y-108021800D01*
X144953791Y-108021801D01*
X144939986Y-108045710D01*
X144916100Y-108134856D01*
X144916100Y-115070914D01*
X144896415Y-115137953D01*
X144843611Y-115183708D01*
X144774453Y-115193652D01*
X144710897Y-115164627D01*
X144704419Y-115158595D01*
X144672017Y-115126193D01*
X144672011Y-115126188D01*
X144546488Y-115053717D01*
X144546489Y-115053717D01*
X144535006Y-115050640D01*
X144406475Y-115016200D01*
X144406472Y-115016200D01*
X144330543Y-115016200D01*
X144263504Y-114996515D01*
X144242862Y-114979881D01*
X140101813Y-110838831D01*
X140101808Y-110838827D01*
X140021890Y-110792687D01*
X140021889Y-110792686D01*
X140021888Y-110792686D01*
X139932744Y-110768800D01*
X139932743Y-110768800D01*
X110714186Y-110768800D01*
X110647147Y-110749115D01*
X110626505Y-110732481D01*
X110572817Y-110678793D01*
X110572811Y-110678788D01*
X110447288Y-110606317D01*
X110447289Y-110606317D01*
X110435806Y-110603240D01*
X110307275Y-110568800D01*
X110162325Y-110568800D01*
X110033793Y-110603240D01*
X110022311Y-110606317D01*
X109896788Y-110678788D01*
X109896782Y-110678793D01*
X109794293Y-110781282D01*
X109794288Y-110781288D01*
X109721817Y-110906811D01*
X109721816Y-110906815D01*
X109684300Y-111046825D01*
X100170284Y-111046825D01*
X99997137Y-110288217D01*
X99996418Y-110284846D01*
X99810050Y-109347914D01*
X99723620Y-108913399D01*
X99722991Y-108909989D01*
X99686878Y-108697445D01*
X99600386Y-108188389D01*
X135659500Y-108188389D01*
X135659500Y-108361611D01*
X135686598Y-108532701D01*
X135740127Y-108697445D01*
X135818768Y-108851788D01*
X135920586Y-108991928D01*
X136043072Y-109114414D01*
X136183212Y-109216232D01*
X136337555Y-109294873D01*
X136502299Y-109348402D01*
X136673389Y-109375500D01*
X136673390Y-109375500D01*
X136846610Y-109375500D01*
X136846611Y-109375500D01*
X137017701Y-109348402D01*
X137182445Y-109294873D01*
X137336788Y-109216232D01*
X137476928Y-109114414D01*
X137599414Y-108991928D01*
X137701232Y-108851788D01*
X137779873Y-108697445D01*
X137833402Y-108532701D01*
X137860500Y-108361611D01*
X137860500Y-108188428D01*
X138200000Y-108188428D01*
X138200000Y-108361571D01*
X138227085Y-108532584D01*
X138280591Y-108697257D01*
X138359194Y-108851521D01*
X138438097Y-108960124D01*
X138869269Y-108528952D01*
X138899901Y-108582007D01*
X138992993Y-108675099D01*
X139046046Y-108705729D01*
X138614874Y-109136901D01*
X138723478Y-109215805D01*
X138877742Y-109294408D01*
X139042415Y-109347914D01*
X139213429Y-109375000D01*
X139386571Y-109375000D01*
X139557584Y-109347914D01*
X139722257Y-109294408D01*
X139876528Y-109215801D01*
X139985124Y-109136902D01*
X139985125Y-109136901D01*
X139553953Y-108705729D01*
X139607007Y-108675099D01*
X139700099Y-108582007D01*
X139730729Y-108528953D01*
X140161901Y-108960125D01*
X140161902Y-108960124D01*
X140240801Y-108851528D01*
X140319408Y-108697257D01*
X140372914Y-108532584D01*
X140400000Y-108361571D01*
X140400000Y-108188428D01*
X140372914Y-108017415D01*
X140319408Y-107852742D01*
X140240805Y-107698478D01*
X140161901Y-107589874D01*
X139730729Y-108021046D01*
X139700099Y-107967993D01*
X139607007Y-107874901D01*
X139553952Y-107844270D01*
X139985124Y-107413097D01*
X139876521Y-107334194D01*
X139722257Y-107255591D01*
X139557584Y-107202085D01*
X139386571Y-107175000D01*
X139213429Y-107175000D01*
X139042415Y-107202085D01*
X138877742Y-107255591D01*
X138723476Y-107334195D01*
X138723474Y-107334196D01*
X138614874Y-107413096D01*
X138614874Y-107413097D01*
X139046047Y-107844270D01*
X138992993Y-107874901D01*
X138899901Y-107967993D01*
X138869270Y-108021047D01*
X138438097Y-107589874D01*
X138438096Y-107589874D01*
X138359196Y-107698474D01*
X138359195Y-107698476D01*
X138280591Y-107852742D01*
X138227085Y-108017415D01*
X138200000Y-108188428D01*
X137860500Y-108188428D01*
X137860500Y-108188389D01*
X137833402Y-108017299D01*
X137779873Y-107852555D01*
X137701232Y-107698212D01*
X137599414Y-107558072D01*
X137476928Y-107435586D01*
X137336788Y-107333768D01*
X137182445Y-107255127D01*
X137017701Y-107201598D01*
X137017699Y-107201597D01*
X137017698Y-107201597D01*
X136886271Y-107180781D01*
X136846611Y-107174500D01*
X136673389Y-107174500D01*
X136633728Y-107180781D01*
X136502302Y-107201597D01*
X136337552Y-107255128D01*
X136183211Y-107333768D01*
X136124351Y-107376533D01*
X136043072Y-107435586D01*
X136043070Y-107435588D01*
X136043069Y-107435588D01*
X135920588Y-107558069D01*
X135920588Y-107558070D01*
X135920586Y-107558072D01*
X135892872Y-107596217D01*
X135818768Y-107698211D01*
X135740128Y-107852552D01*
X135686597Y-108017302D01*
X135679943Y-108059316D01*
X135659500Y-108188389D01*
X99600386Y-108188389D01*
X99488752Y-107531356D01*
X99488222Y-107527942D01*
X99477666Y-107453172D01*
X99439909Y-107185725D01*
X114240700Y-107185725D01*
X114240700Y-107330675D01*
X114273524Y-107453175D01*
X114278217Y-107470688D01*
X114350688Y-107596211D01*
X114350690Y-107596213D01*
X114350691Y-107596215D01*
X114453185Y-107698709D01*
X114453186Y-107698710D01*
X114453188Y-107698711D01*
X114578711Y-107771182D01*
X114578712Y-107771182D01*
X114578715Y-107771184D01*
X114718725Y-107808700D01*
X114718728Y-107808700D01*
X114863672Y-107808700D01*
X114863675Y-107808700D01*
X115003685Y-107771184D01*
X115129215Y-107698709D01*
X115231709Y-107596215D01*
X115304184Y-107470685D01*
X115341700Y-107330675D01*
X115341700Y-107185725D01*
X115304184Y-107045715D01*
X115302436Y-107042688D01*
X115231711Y-106920188D01*
X115231706Y-106920182D01*
X115129217Y-106817693D01*
X115129211Y-106817688D01*
X115003688Y-106745217D01*
X115003689Y-106745217D01*
X114992206Y-106742140D01*
X114863675Y-106707700D01*
X114718725Y-106707700D01*
X114590193Y-106742140D01*
X114578711Y-106745217D01*
X114453188Y-106817688D01*
X114453182Y-106817693D01*
X114350693Y-106920182D01*
X114350688Y-106920188D01*
X114278217Y-107045711D01*
X114278216Y-107045715D01*
X114240700Y-107185725D01*
X99439909Y-107185725D01*
X99316530Y-106311788D01*
X99292752Y-106143360D01*
X99292314Y-106139910D01*
X99273070Y-105969118D01*
X99236932Y-105648389D01*
X135659500Y-105648389D01*
X135659500Y-105821611D01*
X135686598Y-105992701D01*
X135740127Y-106157445D01*
X135818768Y-106311788D01*
X135920586Y-106451928D01*
X136043072Y-106574414D01*
X136183212Y-106676232D01*
X136337555Y-106754873D01*
X136502299Y-106808402D01*
X136673389Y-106835500D01*
X136673390Y-106835500D01*
X136846610Y-106835500D01*
X136846611Y-106835500D01*
X137017701Y-106808402D01*
X137182445Y-106754873D01*
X137336788Y-106676232D01*
X137476928Y-106574414D01*
X137599414Y-106451928D01*
X137701232Y-106311788D01*
X137779873Y-106157445D01*
X137833402Y-105992701D01*
X137860500Y-105821611D01*
X137860500Y-105648389D01*
X137833402Y-105477299D01*
X137779873Y-105312555D01*
X137701232Y-105158212D01*
X137599414Y-105018072D01*
X137476928Y-104895586D01*
X137336788Y-104793768D01*
X137182445Y-104715127D01*
X137017701Y-104661598D01*
X137017699Y-104661597D01*
X137017698Y-104661597D01*
X136886271Y-104640781D01*
X136846611Y-104634500D01*
X136673389Y-104634500D01*
X136633728Y-104640781D01*
X136502302Y-104661597D01*
X136337552Y-104715128D01*
X136183211Y-104793768D01*
X136121166Y-104838847D01*
X136043072Y-104895586D01*
X136043070Y-104895588D01*
X136043069Y-104895588D01*
X135920588Y-105018069D01*
X135920588Y-105018070D01*
X135920586Y-105018072D01*
X135899528Y-105047056D01*
X135818768Y-105158211D01*
X135740128Y-105312552D01*
X135686597Y-105477302D01*
X135667579Y-105597378D01*
X135659500Y-105648389D01*
X99236932Y-105648389D01*
X99135742Y-104750303D01*
X99135412Y-104746957D01*
X99017877Y-103353514D01*
X99017634Y-103350053D01*
X99004062Y-103108389D01*
X135659500Y-103108389D01*
X135659500Y-103281610D01*
X135685504Y-103445797D01*
X135686598Y-103452701D01*
X135735884Y-103604388D01*
X135740128Y-103617447D01*
X135774470Y-103684847D01*
X135818768Y-103771788D01*
X135920586Y-103911928D01*
X136043072Y-104034414D01*
X136183212Y-104136232D01*
X136337555Y-104214873D01*
X136502299Y-104268402D01*
X136673389Y-104295500D01*
X136673390Y-104295500D01*
X136846610Y-104295500D01*
X136846611Y-104295500D01*
X137017701Y-104268402D01*
X137182445Y-104214873D01*
X137182447Y-104214871D01*
X137186971Y-104213402D01*
X137256812Y-104211407D01*
X137312970Y-104243652D01*
X137696488Y-104627170D01*
X137776412Y-104673314D01*
X137865556Y-104697200D01*
X137865557Y-104697200D01*
X137957844Y-104697200D01*
X138482096Y-104697200D01*
X138549135Y-104716885D01*
X138594890Y-104769689D01*
X138604834Y-104838847D01*
X138575809Y-104902403D01*
X138569777Y-104908881D01*
X138460588Y-105018069D01*
X138460588Y-105018070D01*
X138460586Y-105018072D01*
X138439528Y-105047056D01*
X138358768Y-105158211D01*
X138280128Y-105312552D01*
X138226597Y-105477302D01*
X138207579Y-105597378D01*
X138199500Y-105648389D01*
X138199500Y-105821611D01*
X138226598Y-105992701D01*
X138280127Y-106157445D01*
X138358768Y-106311788D01*
X138460586Y-106451928D01*
X138583072Y-106574414D01*
X138723212Y-106676232D01*
X138877555Y-106754873D01*
X139042299Y-106808402D01*
X139213389Y-106835500D01*
X139213390Y-106835500D01*
X139386610Y-106835500D01*
X139386611Y-106835500D01*
X139557701Y-106808402D01*
X139722445Y-106754873D01*
X139876788Y-106676232D01*
X140016928Y-106574414D01*
X140139414Y-106451928D01*
X140241232Y-106311788D01*
X140319873Y-106157445D01*
X140373402Y-105992701D01*
X140400500Y-105821611D01*
X140400500Y-105648389D01*
X140373402Y-105477299D01*
X140319873Y-105312555D01*
X140241232Y-105158212D01*
X140139414Y-105018072D01*
X140030223Y-104908881D01*
X139996738Y-104847558D01*
X140001722Y-104777866D01*
X140043594Y-104721933D01*
X140109058Y-104697516D01*
X140117904Y-104697200D01*
X144928842Y-104697200D01*
X144928844Y-104697200D01*
X145017988Y-104673314D01*
X145097912Y-104627170D01*
X151376063Y-98349019D01*
X151437386Y-98315534D01*
X151463744Y-98312700D01*
X151539672Y-98312700D01*
X151539675Y-98312700D01*
X151679685Y-98275184D01*
X151805215Y-98202709D01*
X151907709Y-98100215D01*
X151980184Y-97974685D01*
X152017700Y-97834675D01*
X152017700Y-97689725D01*
X151980184Y-97549715D01*
X151953219Y-97503011D01*
X151907711Y-97424188D01*
X151907706Y-97424182D01*
X151805217Y-97321693D01*
X151805211Y-97321688D01*
X151679688Y-97249217D01*
X151679689Y-97249217D01*
X151652710Y-97241988D01*
X151539675Y-97211700D01*
X151394725Y-97211700D01*
X151281690Y-97241988D01*
X151254711Y-97249217D01*
X151129188Y-97321688D01*
X151129182Y-97321693D01*
X151026693Y-97424182D01*
X151026688Y-97424188D01*
X150954217Y-97549711D01*
X150954216Y-97549715D01*
X150916700Y-97689725D01*
X150916700Y-97689727D01*
X150916700Y-97765656D01*
X150897015Y-97832695D01*
X150880381Y-97853337D01*
X144773837Y-103959881D01*
X144712514Y-103993366D01*
X144686156Y-103996200D01*
X140321551Y-103996200D01*
X140254512Y-103976515D01*
X140208757Y-103923711D01*
X140198813Y-103854553D01*
X140221233Y-103799314D01*
X140231186Y-103785615D01*
X140241232Y-103771788D01*
X140319873Y-103617445D01*
X140373402Y-103452701D01*
X140400500Y-103281611D01*
X140400500Y-103108389D01*
X140373402Y-102937299D01*
X140319873Y-102772555D01*
X140319869Y-102772547D01*
X140318401Y-102768029D01*
X140316406Y-102698188D01*
X140348649Y-102642031D01*
X144858470Y-98132212D01*
X144904614Y-98052288D01*
X144913129Y-98020510D01*
X144913130Y-98020508D01*
X144918755Y-97999511D01*
X144928500Y-97963144D01*
X144928500Y-95509856D01*
X144904614Y-95420712D01*
X144867112Y-95355759D01*
X144850500Y-95293759D01*
X144850500Y-95205527D01*
X144850500Y-95205525D01*
X144812984Y-95065515D01*
X144740509Y-94939985D01*
X144638015Y-94837491D01*
X144638013Y-94837490D01*
X144638011Y-94837488D01*
X144512488Y-94765017D01*
X144512489Y-94765017D01*
X144501006Y-94761940D01*
X144372475Y-94727500D01*
X144227525Y-94727500D01*
X144098993Y-94761940D01*
X144087511Y-94765017D01*
X143961988Y-94837488D01*
X143961982Y-94837493D01*
X143859493Y-94939982D01*
X143859488Y-94939988D01*
X143787017Y-95065511D01*
X143787016Y-95065515D01*
X143749500Y-95205525D01*
X143749500Y-95350475D01*
X143782694Y-95474355D01*
X143787017Y-95490488D01*
X143859488Y-95616011D01*
X143859490Y-95616013D01*
X143859491Y-95616015D01*
X143961985Y-95718509D01*
X144087515Y-95790984D01*
X144135594Y-95803866D01*
X144195254Y-95840231D01*
X144225783Y-95903078D01*
X144227500Y-95923641D01*
X144227500Y-96571689D01*
X144207815Y-96638728D01*
X144155011Y-96684483D01*
X144085853Y-96694427D01*
X144071409Y-96691464D01*
X144048779Y-96685400D01*
X144048775Y-96685400D01*
X143903825Y-96685400D01*
X143775293Y-96719840D01*
X143763811Y-96722917D01*
X143638288Y-96795388D01*
X143638282Y-96795393D01*
X143535793Y-96897882D01*
X143535788Y-96897888D01*
X143463317Y-97023411D01*
X143458883Y-97039955D01*
X143425800Y-97163425D01*
X143425800Y-97163427D01*
X143425800Y-97239356D01*
X143406115Y-97306395D01*
X143389481Y-97327037D01*
X140495943Y-100220574D01*
X140434620Y-100254059D01*
X140364928Y-100249075D01*
X140308995Y-100207203D01*
X140297777Y-100189188D01*
X140262108Y-100119184D01*
X140241232Y-100078212D01*
X140139414Y-99938072D01*
X140016928Y-99815586D01*
X139876788Y-99713768D01*
X139722445Y-99635127D01*
X139557701Y-99581598D01*
X139557699Y-99581597D01*
X139557698Y-99581597D01*
X139426271Y-99560781D01*
X139386611Y-99554500D01*
X139213389Y-99554500D01*
X139173728Y-99560781D01*
X139042302Y-99581597D01*
X138877552Y-99635128D01*
X138723211Y-99713768D01*
X138692217Y-99736287D01*
X138583072Y-99815586D01*
X138583070Y-99815588D01*
X138583069Y-99815588D01*
X138460588Y-99938069D01*
X138460588Y-99938070D01*
X138460586Y-99938072D01*
X138425777Y-99985982D01*
X138358768Y-100078211D01*
X138280128Y-100232552D01*
X138226597Y-100397302D01*
X138203269Y-100544594D01*
X138199500Y-100568389D01*
X138199500Y-100741611D01*
X138204872Y-100775527D01*
X138222893Y-100889313D01*
X138226598Y-100912701D01*
X138278749Y-101073205D01*
X138280128Y-101077447D01*
X138285201Y-101087403D01*
X138358768Y-101231788D01*
X138460586Y-101371928D01*
X138583072Y-101494414D01*
X138723212Y-101596232D01*
X138877555Y-101674873D01*
X139042299Y-101728402D01*
X139213389Y-101755500D01*
X139213390Y-101755500D01*
X139386610Y-101755500D01*
X139386611Y-101755500D01*
X139557701Y-101728402D01*
X139722445Y-101674873D01*
X139876788Y-101596232D01*
X140016928Y-101494414D01*
X140139414Y-101371928D01*
X140241232Y-101231788D01*
X140290774Y-101134554D01*
X140322034Y-101073205D01*
X140370009Y-101022409D01*
X140432519Y-101005500D01*
X140603340Y-101005500D01*
X140603344Y-101005500D01*
X140689740Y-100982350D01*
X140759584Y-100984013D01*
X140817447Y-101023175D01*
X140844952Y-101087403D01*
X140833366Y-101156305D01*
X140809510Y-101189806D01*
X139852969Y-102146347D01*
X139791646Y-102179832D01*
X139726970Y-102176597D01*
X139557698Y-102121597D01*
X139426271Y-102100781D01*
X139386611Y-102094500D01*
X139213389Y-102094500D01*
X139173728Y-102100781D01*
X139042302Y-102121597D01*
X138877552Y-102175128D01*
X138723211Y-102253768D01*
X138677022Y-102287327D01*
X138583072Y-102355586D01*
X138583070Y-102355588D01*
X138583069Y-102355588D01*
X138460588Y-102478069D01*
X138460588Y-102478070D01*
X138460586Y-102478072D01*
X138416859Y-102538256D01*
X138358768Y-102618211D01*
X138280128Y-102772552D01*
X138226597Y-102937302D01*
X138199500Y-103108389D01*
X138199500Y-103281610D01*
X138225504Y-103445797D01*
X138226598Y-103452701D01*
X138275884Y-103604388D01*
X138280128Y-103617447D01*
X138358768Y-103771788D01*
X138378767Y-103799314D01*
X138382998Y-103811174D01*
X138391243Y-103820689D01*
X138394516Y-103843454D01*
X138402247Y-103865121D01*
X138399395Y-103877385D01*
X138401187Y-103889847D01*
X138391632Y-103910769D01*
X138386422Y-103933175D01*
X138377392Y-103941950D01*
X138372162Y-103953403D01*
X138352810Y-103965839D01*
X138336316Y-103981869D01*
X138322570Y-103985273D01*
X138313384Y-103991177D01*
X138278449Y-103996200D01*
X138108244Y-103996200D01*
X138041205Y-103976515D01*
X138020563Y-103959881D01*
X137808652Y-103747970D01*
X137775167Y-103686647D01*
X137778402Y-103621971D01*
X137779873Y-103617445D01*
X137833402Y-103452701D01*
X137860500Y-103281611D01*
X137860500Y-103108389D01*
X137833402Y-102937299D01*
X137779873Y-102772555D01*
X137701232Y-102618212D01*
X137599414Y-102478072D01*
X137476928Y-102355586D01*
X137336788Y-102253768D01*
X137182445Y-102175127D01*
X137017701Y-102121598D01*
X137017699Y-102121597D01*
X137017698Y-102121597D01*
X136886271Y-102100781D01*
X136846611Y-102094500D01*
X136673389Y-102094500D01*
X136633728Y-102100781D01*
X136502302Y-102121597D01*
X136337552Y-102175128D01*
X136183211Y-102253768D01*
X136137022Y-102287327D01*
X136043072Y-102355586D01*
X136043070Y-102355588D01*
X136043069Y-102355588D01*
X135920588Y-102478069D01*
X135920588Y-102478070D01*
X135920586Y-102478072D01*
X135876859Y-102538256D01*
X135818768Y-102618211D01*
X135740128Y-102772552D01*
X135686597Y-102937302D01*
X135659500Y-103108389D01*
X99004062Y-103108389D01*
X98939224Y-101953833D01*
X98939083Y-101950484D01*
X98899863Y-100552600D01*
X98899815Y-100549175D01*
X98899815Y-99150824D01*
X98899864Y-99147346D01*
X98905249Y-98955402D01*
X98939083Y-97749512D01*
X98939224Y-97746169D01*
X99017634Y-96349933D01*
X99017878Y-96346477D01*
X99060579Y-95840231D01*
X99135413Y-94953035D01*
X99135741Y-94949703D01*
X99292314Y-93560082D01*
X99292752Y-93556639D01*
X99488222Y-92172057D01*
X99488750Y-92168654D01*
X99722995Y-90789987D01*
X99723622Y-90786590D01*
X99745135Y-90678438D01*
X99947652Y-89660313D01*
X126435500Y-89660313D01*
X126435500Y-89839686D01*
X126463557Y-90016830D01*
X126518985Y-90187418D01*
X126600414Y-90347231D01*
X126705832Y-90492328D01*
X126705836Y-90492333D01*
X126832666Y-90619163D01*
X126832671Y-90619167D01*
X126959232Y-90711118D01*
X126977772Y-90724588D01*
X127137584Y-90806016D01*
X127308166Y-90861442D01*
X127374598Y-90871963D01*
X127485314Y-90889500D01*
X127485319Y-90889500D01*
X127664686Y-90889500D01*
X127763099Y-90873912D01*
X127841834Y-90861442D01*
X128012416Y-90806016D01*
X128172228Y-90724588D01*
X128317335Y-90619162D01*
X128444162Y-90492335D01*
X128549588Y-90347228D01*
X128631016Y-90187416D01*
X128686442Y-90016834D01*
X128698912Y-89938099D01*
X128714500Y-89839686D01*
X128714500Y-89660313D01*
X128686442Y-89483169D01*
X128686442Y-89483166D01*
X128631016Y-89312584D01*
X128549588Y-89152772D01*
X128536118Y-89134232D01*
X128444167Y-89007671D01*
X128444163Y-89007666D01*
X128317333Y-88880836D01*
X128317328Y-88880832D01*
X128172231Y-88775414D01*
X128172230Y-88775413D01*
X128172228Y-88775412D01*
X128012416Y-88693984D01*
X127841834Y-88638558D01*
X127841832Y-88638557D01*
X127841830Y-88638557D01*
X127664686Y-88610500D01*
X127664681Y-88610500D01*
X127485319Y-88610500D01*
X127485314Y-88610500D01*
X127308169Y-88638557D01*
X127137581Y-88693985D01*
X126977768Y-88775414D01*
X126832671Y-88880832D01*
X126832666Y-88880836D01*
X126705836Y-89007666D01*
X126705832Y-89007671D01*
X126600414Y-89152768D01*
X126518985Y-89312581D01*
X126463557Y-89483169D01*
X126435500Y-89660313D01*
X99947652Y-89660313D01*
X99996427Y-89415106D01*
X99997134Y-89411796D01*
X100308309Y-88048446D01*
X100309126Y-88045088D01*
X100333052Y-87952335D01*
X100547674Y-87120313D01*
X126435500Y-87120313D01*
X126435500Y-87299686D01*
X126463557Y-87476830D01*
X126463558Y-87476834D01*
X126518984Y-87647416D01*
X126556326Y-87720705D01*
X126600414Y-87807231D01*
X126705832Y-87952328D01*
X126705836Y-87952333D01*
X126832666Y-88079163D01*
X126832671Y-88079167D01*
X126959232Y-88171118D01*
X126977772Y-88184588D01*
X127137584Y-88266016D01*
X127308166Y-88321442D01*
X127374598Y-88331963D01*
X127485314Y-88349500D01*
X127485319Y-88349500D01*
X127664686Y-88349500D01*
X127763099Y-88333912D01*
X127841834Y-88321442D01*
X128012416Y-88266016D01*
X128172228Y-88184588D01*
X128317335Y-88079162D01*
X128444162Y-87952335D01*
X128549588Y-87807228D01*
X128631016Y-87647416D01*
X128686442Y-87476834D01*
X128707531Y-87343685D01*
X128714500Y-87299686D01*
X128714500Y-87120313D01*
X128689724Y-86963887D01*
X128686442Y-86943166D01*
X128631016Y-86772584D01*
X128549588Y-86612772D01*
X128530632Y-86586681D01*
X128444167Y-86467671D01*
X128444163Y-86467666D01*
X128317333Y-86340836D01*
X128317328Y-86340832D01*
X128172231Y-86235414D01*
X128172230Y-86235413D01*
X128172228Y-86235412D01*
X128012416Y-86153984D01*
X127841834Y-86098558D01*
X127841832Y-86098557D01*
X127841830Y-86098557D01*
X127664686Y-86070500D01*
X127664681Y-86070500D01*
X127485319Y-86070500D01*
X127485314Y-86070500D01*
X127308169Y-86098557D01*
X127137581Y-86153985D01*
X126977768Y-86235414D01*
X126832671Y-86340832D01*
X126832666Y-86340836D01*
X126705836Y-86467666D01*
X126705832Y-86467671D01*
X126600414Y-86612768D01*
X126518985Y-86772581D01*
X126463557Y-86943169D01*
X126435500Y-87120313D01*
X100547674Y-87120313D01*
X100658417Y-86690996D01*
X100659293Y-86687786D01*
X101046446Y-85343952D01*
X101047413Y-85340763D01*
X101289775Y-84580359D01*
X126436000Y-84580359D01*
X126436000Y-84759640D01*
X126464046Y-84936717D01*
X126519445Y-85107221D01*
X126519446Y-85107224D01*
X126600838Y-85266962D01*
X126685176Y-85383045D01*
X127144269Y-84923952D01*
X127174901Y-84977007D01*
X127267993Y-85070099D01*
X127321046Y-85100729D01*
X126861953Y-85559821D01*
X126861953Y-85559823D01*
X126978030Y-85644157D01*
X127137775Y-85725553D01*
X127137778Y-85725554D01*
X127308282Y-85780953D01*
X127485360Y-85809000D01*
X127664640Y-85809000D01*
X127841717Y-85780953D01*
X128012221Y-85725554D01*
X128012224Y-85725553D01*
X128171969Y-85644157D01*
X128288045Y-85559824D01*
X128288046Y-85559822D01*
X127828953Y-85100729D01*
X127882007Y-85070099D01*
X127975099Y-84977007D01*
X128005729Y-84923953D01*
X128464822Y-85383046D01*
X128464824Y-85383045D01*
X128549157Y-85266969D01*
X128630553Y-85107224D01*
X128630554Y-85107221D01*
X128685953Y-84936717D01*
X128714000Y-84759640D01*
X128714000Y-84580359D01*
X128685953Y-84403282D01*
X128630554Y-84232778D01*
X128630553Y-84232775D01*
X128549157Y-84073030D01*
X128464823Y-83956953D01*
X128464821Y-83956953D01*
X128005728Y-84416045D01*
X127975099Y-84362993D01*
X127882007Y-84269901D01*
X127828952Y-84239270D01*
X128288045Y-83780176D01*
X128171962Y-83695838D01*
X128012224Y-83614446D01*
X128012221Y-83614445D01*
X127841717Y-83559046D01*
X127664640Y-83531000D01*
X127485360Y-83531000D01*
X127308282Y-83559046D01*
X127137778Y-83614445D01*
X127137775Y-83614446D01*
X126978035Y-83695839D01*
X126978033Y-83695840D01*
X126861953Y-83780176D01*
X127321047Y-84239270D01*
X127267993Y-84269901D01*
X127174901Y-84362993D01*
X127144270Y-84416047D01*
X126685176Y-83956953D01*
X126600840Y-84073033D01*
X126600839Y-84073035D01*
X126519446Y-84232775D01*
X126519445Y-84232778D01*
X126464046Y-84403282D01*
X126436000Y-84580359D01*
X101289775Y-84580359D01*
X101472086Y-84008365D01*
X101473151Y-84005176D01*
X101935033Y-82685193D01*
X101936220Y-82681952D01*
X102045056Y-82396834D01*
X102181147Y-82040313D01*
X126435500Y-82040313D01*
X126435500Y-82219686D01*
X126463557Y-82396830D01*
X126518985Y-82567418D01*
X126600414Y-82727231D01*
X126705832Y-82872328D01*
X126705836Y-82872333D01*
X126832666Y-82999163D01*
X126832671Y-82999167D01*
X126959232Y-83091118D01*
X126977772Y-83104588D01*
X127137584Y-83186016D01*
X127308166Y-83241442D01*
X127374598Y-83251963D01*
X127485314Y-83269500D01*
X127485319Y-83269500D01*
X127664686Y-83269500D01*
X127768859Y-83253000D01*
X127841834Y-83241442D01*
X128012416Y-83186016D01*
X128172228Y-83104588D01*
X128317335Y-82999162D01*
X128444162Y-82872335D01*
X128549588Y-82727228D01*
X128631016Y-82567416D01*
X128686442Y-82396834D01*
X128698912Y-82318099D01*
X128714500Y-82219686D01*
X128714500Y-82040313D01*
X128686442Y-81863169D01*
X128686442Y-81863166D01*
X128631016Y-81692584D01*
X128549588Y-81532772D01*
X128536118Y-81514232D01*
X128444167Y-81387671D01*
X128444163Y-81387666D01*
X128317333Y-81260836D01*
X128317328Y-81260832D01*
X128172231Y-81155414D01*
X128172230Y-81155413D01*
X128172228Y-81155412D01*
X128012416Y-81073984D01*
X127841834Y-81018558D01*
X127841832Y-81018557D01*
X127841830Y-81018557D01*
X127664686Y-80990500D01*
X127664681Y-80990500D01*
X127485319Y-80990500D01*
X127485314Y-80990500D01*
X127308169Y-81018557D01*
X127137581Y-81073985D01*
X126977768Y-81155414D01*
X126832671Y-81260832D01*
X126832666Y-81260836D01*
X126705836Y-81387666D01*
X126705832Y-81387671D01*
X126600414Y-81532768D01*
X126518985Y-81692581D01*
X126463557Y-81863169D01*
X126435500Y-82040313D01*
X102181147Y-82040313D01*
X102434902Y-81375544D01*
X102436177Y-81372341D01*
X102482364Y-81260838D01*
X102971305Y-80080427D01*
X102972675Y-80077249D01*
X103230837Y-79500313D01*
X126435500Y-79500313D01*
X126435500Y-79679686D01*
X126443802Y-79732100D01*
X126463558Y-79856834D01*
X126518984Y-80027416D01*
X126592932Y-80172548D01*
X126600414Y-80187231D01*
X126705832Y-80332328D01*
X126705836Y-80332333D01*
X126832666Y-80459163D01*
X126832671Y-80459167D01*
X126882113Y-80495088D01*
X126977772Y-80564588D01*
X127137584Y-80646016D01*
X127308166Y-80701442D01*
X127374598Y-80711963D01*
X127485314Y-80729500D01*
X127485319Y-80729500D01*
X127664686Y-80729500D01*
X127763099Y-80713912D01*
X127841834Y-80701442D01*
X128012416Y-80646016D01*
X128013573Y-80645426D01*
X128014058Y-80645335D01*
X128016915Y-80644152D01*
X128017163Y-80644752D01*
X128082239Y-80632530D01*
X128146980Y-80658805D01*
X128157548Y-80668230D01*
X134283487Y-86794169D01*
X134326345Y-86818913D01*
X134363412Y-86840314D01*
X134452556Y-86864200D01*
X138173614Y-86864200D01*
X138240653Y-86883885D01*
X138261295Y-86900519D01*
X138314985Y-86954209D01*
X138314986Y-86954210D01*
X138314988Y-86954211D01*
X138440511Y-87026682D01*
X138440512Y-87026682D01*
X138440515Y-87026684D01*
X138580525Y-87064200D01*
X138580528Y-87064200D01*
X138725472Y-87064200D01*
X138725475Y-87064200D01*
X138865485Y-87026684D01*
X138985302Y-86957507D01*
X139053199Y-86941035D01*
X139119226Y-86963887D01*
X139162417Y-87018808D01*
X139171300Y-87064895D01*
X139171300Y-96544956D01*
X139151615Y-96611995D01*
X139134981Y-96632637D01*
X136479531Y-99288086D01*
X136479527Y-99288091D01*
X136468874Y-99306544D01*
X136468872Y-99306547D01*
X136464025Y-99314944D01*
X136433386Y-99368012D01*
X136409500Y-99457156D01*
X136409500Y-99460740D01*
X136403987Y-99475058D01*
X136386583Y-99497801D01*
X136371679Y-99522254D01*
X136365619Y-99525197D01*
X136361527Y-99530546D01*
X136334592Y-99540269D01*
X136308833Y-99552783D01*
X136297252Y-99553749D01*
X136295809Y-99554271D01*
X136294525Y-99553977D01*
X136288269Y-99554500D01*
X135885323Y-99554500D01*
X135812264Y-99569032D01*
X135812260Y-99569033D01*
X135729399Y-99624399D01*
X135674033Y-99707260D01*
X135674032Y-99707264D01*
X135659500Y-99780321D01*
X135659500Y-101529678D01*
X135674032Y-101602735D01*
X135674033Y-101602739D01*
X135674034Y-101602740D01*
X135729399Y-101685601D01*
X135812260Y-101740966D01*
X135812264Y-101740967D01*
X135885321Y-101755499D01*
X135885324Y-101755500D01*
X135885326Y-101755500D01*
X137634676Y-101755500D01*
X137634677Y-101755499D01*
X137707740Y-101740966D01*
X137790601Y-101685601D01*
X137845966Y-101602740D01*
X137860500Y-101529674D01*
X137860500Y-99780326D01*
X137860500Y-99780323D01*
X137860499Y-99780321D01*
X137845967Y-99707264D01*
X137845966Y-99707260D01*
X137826864Y-99678672D01*
X137790601Y-99624399D01*
X137707740Y-99569034D01*
X137707739Y-99569033D01*
X137707735Y-99569032D01*
X137634677Y-99554500D01*
X137634674Y-99554500D01*
X137503844Y-99554500D01*
X137436805Y-99534815D01*
X137391050Y-99482011D01*
X137381106Y-99412853D01*
X137410131Y-99349297D01*
X137416163Y-99342819D01*
X138606182Y-98152800D01*
X139802270Y-96956712D01*
X139848414Y-96876788D01*
X139853829Y-96856578D01*
X139857972Y-96841119D01*
X139865638Y-96812505D01*
X139872300Y-96787644D01*
X139872300Y-76156386D01*
X139891985Y-76089347D01*
X139908619Y-76068705D01*
X139962309Y-76015015D01*
X140034784Y-75889485D01*
X140072300Y-75749475D01*
X140072300Y-75604525D01*
X140034784Y-75464515D01*
X139985505Y-75379162D01*
X139962311Y-75338988D01*
X139962306Y-75338982D01*
X139859817Y-75236493D01*
X139859811Y-75236488D01*
X139734288Y-75164017D01*
X139734289Y-75164017D01*
X139722806Y-75160940D01*
X139594275Y-75126500D01*
X139449325Y-75126500D01*
X139320793Y-75160940D01*
X139309311Y-75164017D01*
X139183788Y-75236488D01*
X139183782Y-75236493D01*
X139081293Y-75338982D01*
X139081288Y-75338988D01*
X139008817Y-75464511D01*
X139008816Y-75464515D01*
X138971300Y-75604525D01*
X138971300Y-75749475D01*
X139008816Y-75889485D01*
X139008817Y-75889488D01*
X139081288Y-76015011D01*
X139081293Y-76015017D01*
X139134981Y-76068705D01*
X139168466Y-76130028D01*
X139171300Y-76156386D01*
X139171300Y-85962504D01*
X139151615Y-86029543D01*
X139098811Y-86075298D01*
X139029653Y-86085242D01*
X138985300Y-86069891D01*
X138865488Y-86000717D01*
X138865489Y-86000717D01*
X138854006Y-85997640D01*
X138725475Y-85963200D01*
X138580525Y-85963200D01*
X138451993Y-85997640D01*
X138440511Y-86000717D01*
X138314988Y-86073188D01*
X138314982Y-86073193D01*
X138261295Y-86126881D01*
X138199972Y-86160366D01*
X138173614Y-86163200D01*
X134695244Y-86163200D01*
X134628205Y-86143515D01*
X134607563Y-86126881D01*
X128653230Y-80172548D01*
X128619745Y-80111225D01*
X128624729Y-80041533D01*
X128630420Y-80028584D01*
X128631016Y-80027416D01*
X128686442Y-79856834D01*
X128706198Y-79732100D01*
X128714500Y-79679686D01*
X128714500Y-79500313D01*
X128686442Y-79323169D01*
X128686442Y-79323166D01*
X128631016Y-79152584D01*
X128549588Y-78992772D01*
X128536118Y-78974232D01*
X128444167Y-78847671D01*
X128444163Y-78847666D01*
X128317333Y-78720836D01*
X128317328Y-78720832D01*
X128172231Y-78615414D01*
X128172230Y-78615413D01*
X128172228Y-78615412D01*
X128012416Y-78533984D01*
X127841834Y-78478558D01*
X127841832Y-78478557D01*
X127841830Y-78478557D01*
X127664686Y-78450500D01*
X127664681Y-78450500D01*
X127485319Y-78450500D01*
X127485314Y-78450500D01*
X127308169Y-78478557D01*
X127137581Y-78533985D01*
X126977768Y-78615414D01*
X126832671Y-78720832D01*
X126832666Y-78720836D01*
X126705836Y-78847666D01*
X126705832Y-78847671D01*
X126600414Y-78992768D01*
X126518985Y-79152581D01*
X126463557Y-79323169D01*
X126435500Y-79500313D01*
X103230837Y-79500313D01*
X103543831Y-78800840D01*
X103545256Y-78797771D01*
X104152004Y-77537844D01*
X104153550Y-77534748D01*
X104450310Y-76960313D01*
X126435500Y-76960313D01*
X126435500Y-77139686D01*
X126463557Y-77316830D01*
X126463558Y-77316834D01*
X126518984Y-77487416D01*
X126544686Y-77537860D01*
X126600414Y-77647231D01*
X126705832Y-77792328D01*
X126705836Y-77792333D01*
X126832666Y-77919163D01*
X126832671Y-77919167D01*
X126959232Y-78011118D01*
X126977772Y-78024588D01*
X127137584Y-78106016D01*
X127308166Y-78161442D01*
X127374598Y-78171963D01*
X127485314Y-78189500D01*
X127485319Y-78189500D01*
X127664686Y-78189500D01*
X127763099Y-78173912D01*
X127841834Y-78161442D01*
X128012416Y-78106016D01*
X128172228Y-78024588D01*
X128317335Y-77919162D01*
X128444162Y-77792335D01*
X128549588Y-77647228D01*
X128631016Y-77487416D01*
X128686442Y-77316834D01*
X128698912Y-77238099D01*
X128714500Y-77139686D01*
X128714500Y-76960313D01*
X128686442Y-76783169D01*
X128686442Y-76783166D01*
X128631016Y-76612584D01*
X128549588Y-76452772D01*
X128536118Y-76434232D01*
X128444167Y-76307671D01*
X128444163Y-76307666D01*
X128317333Y-76180836D01*
X128317328Y-76180832D01*
X128172231Y-76075414D01*
X128172230Y-76075413D01*
X128172228Y-76075412D01*
X128012416Y-75993984D01*
X127841834Y-75938558D01*
X127841832Y-75938557D01*
X127841830Y-75938557D01*
X127664686Y-75910500D01*
X127664681Y-75910500D01*
X127485319Y-75910500D01*
X127485314Y-75910500D01*
X127308169Y-75938557D01*
X127137581Y-75993985D01*
X126977768Y-76075414D01*
X126832671Y-76180832D01*
X126832666Y-76180836D01*
X126705836Y-76307666D01*
X126705832Y-76307671D01*
X126600414Y-76452768D01*
X126518985Y-76612581D01*
X126463557Y-76783169D01*
X126435500Y-76960313D01*
X104450310Y-76960313D01*
X104795387Y-76292351D01*
X104796955Y-76289416D01*
X105473419Y-75065448D01*
X105475107Y-75062491D01*
X105853918Y-74420313D01*
X126435500Y-74420313D01*
X126435500Y-74599686D01*
X126463557Y-74776830D01*
X126463558Y-74776834D01*
X126518984Y-74947416D01*
X126579140Y-75065480D01*
X126600414Y-75107231D01*
X126705832Y-75252328D01*
X126705836Y-75252333D01*
X126832666Y-75379163D01*
X126832671Y-75379167D01*
X126950138Y-75464511D01*
X126977772Y-75484588D01*
X127137584Y-75566016D01*
X127308166Y-75621442D01*
X127374598Y-75631963D01*
X127485314Y-75649500D01*
X127485319Y-75649500D01*
X127664686Y-75649500D01*
X127763099Y-75633912D01*
X127841834Y-75621442D01*
X128012416Y-75566016D01*
X128172228Y-75484588D01*
X128317335Y-75379162D01*
X128444162Y-75252335D01*
X128549588Y-75107228D01*
X128631016Y-74947416D01*
X128686442Y-74776834D01*
X128698912Y-74698099D01*
X128714500Y-74599686D01*
X128714500Y-74420313D01*
X128686442Y-74243169D01*
X128686442Y-74243166D01*
X128631016Y-74072584D01*
X128549588Y-73912772D01*
X128508750Y-73856563D01*
X128444167Y-73767671D01*
X128444163Y-73767666D01*
X128317333Y-73640836D01*
X128317328Y-73640832D01*
X128172231Y-73535414D01*
X128172230Y-73535413D01*
X128172228Y-73535412D01*
X128012416Y-73453984D01*
X127841834Y-73398558D01*
X127841832Y-73398557D01*
X127841830Y-73398557D01*
X127664686Y-73370500D01*
X127664681Y-73370500D01*
X127485319Y-73370500D01*
X127485314Y-73370500D01*
X127308169Y-73398557D01*
X127137581Y-73453985D01*
X126977768Y-73535414D01*
X126832671Y-73640832D01*
X126832666Y-73640836D01*
X126705836Y-73767666D01*
X126705832Y-73767671D01*
X126600414Y-73912768D01*
X126518985Y-74072581D01*
X126463557Y-74243169D01*
X126435500Y-74420313D01*
X105853918Y-74420313D01*
X106185592Y-73858044D01*
X106187389Y-73855095D01*
X106931382Y-72671036D01*
X106933218Y-72668203D01*
X107459671Y-71880313D01*
X126435500Y-71880313D01*
X126435500Y-72059686D01*
X126463557Y-72236830D01*
X126518985Y-72407418D01*
X126600414Y-72567231D01*
X126705832Y-72712328D01*
X126705836Y-72712333D01*
X126832666Y-72839163D01*
X126832671Y-72839167D01*
X126959232Y-72931118D01*
X126977772Y-72944588D01*
X127137584Y-73026016D01*
X127308166Y-73081442D01*
X127374598Y-73091963D01*
X127485314Y-73109500D01*
X127485319Y-73109500D01*
X127664686Y-73109500D01*
X127763099Y-73093912D01*
X127841834Y-73081442D01*
X128012416Y-73026016D01*
X128172228Y-72944588D01*
X128317335Y-72839162D01*
X128444162Y-72712335D01*
X128549588Y-72567228D01*
X128631016Y-72407416D01*
X128686442Y-72236834D01*
X128698912Y-72158099D01*
X128714500Y-72059686D01*
X128714500Y-71880313D01*
X128686442Y-71703169D01*
X128686442Y-71703166D01*
X128631016Y-71532584D01*
X128549588Y-71372772D01*
X128536118Y-71354232D01*
X128444167Y-71227671D01*
X128444163Y-71227666D01*
X128317333Y-71100836D01*
X128317328Y-71100832D01*
X128172231Y-70995414D01*
X128172230Y-70995413D01*
X128172228Y-70995412D01*
X128012416Y-70913984D01*
X127841834Y-70858558D01*
X127841832Y-70858557D01*
X127841830Y-70858557D01*
X127664686Y-70830500D01*
X127664681Y-70830500D01*
X127485319Y-70830500D01*
X127485314Y-70830500D01*
X127308169Y-70858557D01*
X127137581Y-70913985D01*
X126977768Y-70995414D01*
X126832671Y-71100832D01*
X126832666Y-71100836D01*
X126705836Y-71227666D01*
X126705832Y-71227671D01*
X126600414Y-71372768D01*
X126518985Y-71532581D01*
X126463557Y-71703169D01*
X126435500Y-71880313D01*
X107459671Y-71880313D01*
X107710150Y-71505445D01*
X107712046Y-71502692D01*
X108521324Y-70362119D01*
X108523284Y-70359438D01*
X109364164Y-69242105D01*
X109366281Y-69239373D01*
X110238141Y-68146096D01*
X110240347Y-68143408D01*
X110563844Y-67760310D01*
X111142532Y-67075004D01*
X111144764Y-67072435D01*
X112076606Y-66029704D01*
X112078885Y-66027224D01*
X113039628Y-65011013D01*
X113041983Y-65008592D01*
X114030792Y-64019783D01*
X114033213Y-64017428D01*
X115049424Y-63056685D01*
X115051904Y-63054406D01*
X116094635Y-62122564D01*
X116097204Y-62120332D01*
X117165618Y-61218138D01*
X117168296Y-61215941D01*
X118261590Y-60344067D01*
X118264305Y-60341964D01*
X119381638Y-59501084D01*
X119384319Y-59499124D01*
X120157786Y-58950321D01*
X130749500Y-58950321D01*
X130749500Y-61499678D01*
X130764032Y-61572735D01*
X130764033Y-61572739D01*
X130764034Y-61572740D01*
X130819399Y-61655601D01*
X130902260Y-61710966D01*
X130902264Y-61710967D01*
X130975321Y-61725499D01*
X130975324Y-61725500D01*
X130975326Y-61725500D01*
X133524676Y-61725500D01*
X133524677Y-61725499D01*
X133597740Y-61710966D01*
X133680601Y-61655601D01*
X133735966Y-61572740D01*
X133750500Y-61499674D01*
X133750500Y-60106902D01*
X138349500Y-60106902D01*
X138349500Y-60343097D01*
X138386446Y-60576368D01*
X138459433Y-60800996D01*
X138566657Y-61011433D01*
X138705483Y-61202510D01*
X138872490Y-61369517D01*
X139063567Y-61508343D01*
X139162991Y-61559002D01*
X139274003Y-61615566D01*
X139274005Y-61615566D01*
X139274008Y-61615568D01*
X139394412Y-61654689D01*
X139498631Y-61688553D01*
X139731903Y-61725500D01*
X139731908Y-61725500D01*
X139968097Y-61725500D01*
X140201368Y-61688553D01*
X140425992Y-61615568D01*
X140636433Y-61508343D01*
X140827510Y-61369517D01*
X140994517Y-61202510D01*
X141133343Y-61011433D01*
X141240568Y-60800992D01*
X141313553Y-60576368D01*
X141350500Y-60343097D01*
X141350500Y-60106902D01*
X141313553Y-59873631D01*
X141240566Y-59649003D01*
X141133342Y-59438566D01*
X140994517Y-59247490D01*
X140827510Y-59080483D01*
X140636433Y-58941657D01*
X140425996Y-58834433D01*
X140201368Y-58761446D01*
X139968097Y-58724500D01*
X139968092Y-58724500D01*
X139731908Y-58724500D01*
X139731903Y-58724500D01*
X139498631Y-58761446D01*
X139274003Y-58834433D01*
X139063566Y-58941657D01*
X138968359Y-59010830D01*
X138872490Y-59080483D01*
X138872488Y-59080485D01*
X138872487Y-59080485D01*
X138705485Y-59247487D01*
X138705485Y-59247488D01*
X138705483Y-59247490D01*
X138645862Y-59329550D01*
X138566657Y-59438566D01*
X138459433Y-59649003D01*
X138386446Y-59873631D01*
X138349500Y-60106902D01*
X133750500Y-60106902D01*
X133750500Y-58950326D01*
X133750500Y-58950323D01*
X133750499Y-58950321D01*
X133735967Y-58877264D01*
X133735966Y-58877260D01*
X133707350Y-58834433D01*
X133680601Y-58794399D01*
X133597740Y-58739034D01*
X133597739Y-58739033D01*
X133597735Y-58739032D01*
X133524677Y-58724500D01*
X133524674Y-58724500D01*
X130975326Y-58724500D01*
X130975323Y-58724500D01*
X130902264Y-58739032D01*
X130902260Y-58739033D01*
X130819399Y-58794399D01*
X130764033Y-58877260D01*
X130764032Y-58877264D01*
X130749500Y-58950321D01*
X120157786Y-58950321D01*
X120524892Y-58689846D01*
X120527645Y-58687950D01*
X121690403Y-57911018D01*
X121693236Y-57909182D01*
X122877315Y-57165176D01*
X122880244Y-57163392D01*
X124084691Y-56452907D01*
X124087648Y-56451219D01*
X125311616Y-55774755D01*
X125314551Y-55773187D01*
X126556963Y-55131342D01*
X126560044Y-55129804D01*
X127819971Y-54523056D01*
X127823040Y-54521631D01*
X129099465Y-53950468D01*
X129102627Y-53949105D01*
X130394569Y-53413965D01*
X130397744Y-53412702D01*
X131704177Y-52914010D01*
X131707393Y-52912833D01*
X133027376Y-52450951D01*
X133030565Y-52449886D01*
X134362963Y-52025213D01*
X134366132Y-52024251D01*
X135709986Y-51637093D01*
X135713196Y-51636217D01*
X137067309Y-51286920D01*
X137070646Y-51286109D01*
X138433996Y-50974934D01*
X138437306Y-50974227D01*
X139808812Y-50701417D01*
X139812187Y-50700795D01*
X141190854Y-50466550D01*
X141194222Y-50466027D01*
X142578845Y-50270551D01*
X142582282Y-50270114D01*
X143971903Y-50113541D01*
X143975235Y-50113213D01*
X145368690Y-49995677D01*
X145372133Y-49995434D01*
X146768369Y-49917024D01*
X146771712Y-49916883D01*
X148169547Y-49877664D01*
X148173025Y-49877615D01*
X149571375Y-49877615D01*
X149574853Y-49877664D01*
G37*
%TD.AperFunction*%
%TD*%
M02*
