%TF.GenerationSoftware,KiCad,Pcbnew,9.0.3*%
%TF.CreationDate,2026-02-21T10:46:01-03:00*%
%TF.ProjectId,Boros Rocket,426f726f-7320-4526-9f63-6b65742e6b69,rev?*%
%TF.SameCoordinates,Original*%
%TF.FileFunction,Legend,Top*%
%TF.FilePolarity,Positive*%
%FSLAX46Y46*%
G04 Gerber Fmt 4.6, Leading zero omitted, Abs format (unit mm)*
G04 Created by KiCad (PCBNEW 9.0.3) date 2026-02-21 10:46:01*
%MOMM*%
%LPD*%
G01*
G04 APERTURE LIST*
%ADD10C,0.150000*%
%ADD11C,0.100000*%
%ADD12C,0.200000*%
%ADD13C,0.120000*%
%ADD14C,0.127000*%
%ADD15C,0.000000*%
G04 APERTURE END LIST*
D10*
X195873866Y-102230951D02*
X195873866Y-101469047D01*
D11*
X118950312Y-129942236D02*
X118902693Y-129989856D01*
X118902693Y-129989856D02*
X118759836Y-130037475D01*
X118759836Y-130037475D02*
X118664598Y-130037475D01*
X118664598Y-130037475D02*
X118521741Y-129989856D01*
X118521741Y-129989856D02*
X118426503Y-129894617D01*
X118426503Y-129894617D02*
X118378884Y-129799379D01*
X118378884Y-129799379D02*
X118331265Y-129608903D01*
X118331265Y-129608903D02*
X118331265Y-129466046D01*
X118331265Y-129466046D02*
X118378884Y-129275570D01*
X118378884Y-129275570D02*
X118426503Y-129180332D01*
X118426503Y-129180332D02*
X118521741Y-129085094D01*
X118521741Y-129085094D02*
X118664598Y-129037475D01*
X118664598Y-129037475D02*
X118759836Y-129037475D01*
X118759836Y-129037475D02*
X118902693Y-129085094D01*
X118902693Y-129085094D02*
X118950312Y-129132713D01*
X119378884Y-130037475D02*
X119378884Y-129370808D01*
X119378884Y-129561284D02*
X119426503Y-129466046D01*
X119426503Y-129466046D02*
X119474122Y-129418427D01*
X119474122Y-129418427D02*
X119569360Y-129370808D01*
X119569360Y-129370808D02*
X119664598Y-129370808D01*
X120140789Y-130037475D02*
X120045551Y-129989856D01*
X120045551Y-129989856D02*
X119997932Y-129942236D01*
X119997932Y-129942236D02*
X119950313Y-129846998D01*
X119950313Y-129846998D02*
X119950313Y-129561284D01*
X119950313Y-129561284D02*
X119997932Y-129466046D01*
X119997932Y-129466046D02*
X120045551Y-129418427D01*
X120045551Y-129418427D02*
X120140789Y-129370808D01*
X120140789Y-129370808D02*
X120283646Y-129370808D01*
X120283646Y-129370808D02*
X120378884Y-129418427D01*
X120378884Y-129418427D02*
X120426503Y-129466046D01*
X120426503Y-129466046D02*
X120474122Y-129561284D01*
X120474122Y-129561284D02*
X120474122Y-129846998D01*
X120474122Y-129846998D02*
X120426503Y-129942236D01*
X120426503Y-129942236D02*
X120378884Y-129989856D01*
X120378884Y-129989856D02*
X120283646Y-130037475D01*
X120283646Y-130037475D02*
X120140789Y-130037475D01*
X120855075Y-129989856D02*
X120950313Y-130037475D01*
X120950313Y-130037475D02*
X121140789Y-130037475D01*
X121140789Y-130037475D02*
X121236027Y-129989856D01*
X121236027Y-129989856D02*
X121283646Y-129894617D01*
X121283646Y-129894617D02*
X121283646Y-129846998D01*
X121283646Y-129846998D02*
X121236027Y-129751760D01*
X121236027Y-129751760D02*
X121140789Y-129704141D01*
X121140789Y-129704141D02*
X120997932Y-129704141D01*
X120997932Y-129704141D02*
X120902694Y-129656522D01*
X120902694Y-129656522D02*
X120855075Y-129561284D01*
X120855075Y-129561284D02*
X120855075Y-129513665D01*
X120855075Y-129513665D02*
X120902694Y-129418427D01*
X120902694Y-129418427D02*
X120997932Y-129370808D01*
X120997932Y-129370808D02*
X121140789Y-129370808D01*
X121140789Y-129370808D02*
X121236027Y-129418427D01*
X121664599Y-129989856D02*
X121759837Y-130037475D01*
X121759837Y-130037475D02*
X121950313Y-130037475D01*
X121950313Y-130037475D02*
X122045551Y-129989856D01*
X122045551Y-129989856D02*
X122093170Y-129894617D01*
X122093170Y-129894617D02*
X122093170Y-129846998D01*
X122093170Y-129846998D02*
X122045551Y-129751760D01*
X122045551Y-129751760D02*
X121950313Y-129704141D01*
X121950313Y-129704141D02*
X121807456Y-129704141D01*
X121807456Y-129704141D02*
X121712218Y-129656522D01*
X121712218Y-129656522D02*
X121664599Y-129561284D01*
X121664599Y-129561284D02*
X121664599Y-129513665D01*
X121664599Y-129513665D02*
X121712218Y-129418427D01*
X121712218Y-129418427D02*
X121807456Y-129370808D01*
X121807456Y-129370808D02*
X121950313Y-129370808D01*
X121950313Y-129370808D02*
X122045551Y-129418427D01*
X123188409Y-129370808D02*
X123426504Y-130037475D01*
X123664599Y-129370808D02*
X123426504Y-130037475D01*
X123426504Y-130037475D02*
X123331266Y-130275570D01*
X123331266Y-130275570D02*
X123283647Y-130323189D01*
X123283647Y-130323189D02*
X123188409Y-130370808D01*
X124188409Y-130037475D02*
X124093171Y-129989856D01*
X124093171Y-129989856D02*
X124045552Y-129942236D01*
X124045552Y-129942236D02*
X123997933Y-129846998D01*
X123997933Y-129846998D02*
X123997933Y-129561284D01*
X123997933Y-129561284D02*
X124045552Y-129466046D01*
X124045552Y-129466046D02*
X124093171Y-129418427D01*
X124093171Y-129418427D02*
X124188409Y-129370808D01*
X124188409Y-129370808D02*
X124331266Y-129370808D01*
X124331266Y-129370808D02*
X124426504Y-129418427D01*
X124426504Y-129418427D02*
X124474123Y-129466046D01*
X124474123Y-129466046D02*
X124521742Y-129561284D01*
X124521742Y-129561284D02*
X124521742Y-129846998D01*
X124521742Y-129846998D02*
X124474123Y-129942236D01*
X124474123Y-129942236D02*
X124426504Y-129989856D01*
X124426504Y-129989856D02*
X124331266Y-130037475D01*
X124331266Y-130037475D02*
X124188409Y-130037475D01*
X125378885Y-129370808D02*
X125378885Y-130037475D01*
X124950314Y-129370808D02*
X124950314Y-129894617D01*
X124950314Y-129894617D02*
X124997933Y-129989856D01*
X124997933Y-129989856D02*
X125093171Y-130037475D01*
X125093171Y-130037475D02*
X125236028Y-130037475D01*
X125236028Y-130037475D02*
X125331266Y-129989856D01*
X125331266Y-129989856D02*
X125378885Y-129942236D01*
X125855076Y-130037475D02*
X125855076Y-129370808D01*
X125855076Y-129561284D02*
X125902695Y-129466046D01*
X125902695Y-129466046D02*
X125950314Y-129418427D01*
X125950314Y-129418427D02*
X126045552Y-129370808D01*
X126045552Y-129370808D02*
X126140790Y-129370808D01*
X127093172Y-129370808D02*
X127474124Y-129370808D01*
X127236029Y-130037475D02*
X127236029Y-129180332D01*
X127236029Y-129180332D02*
X127283648Y-129085094D01*
X127283648Y-129085094D02*
X127378886Y-129037475D01*
X127378886Y-129037475D02*
X127474124Y-129037475D01*
X127807458Y-130037475D02*
X127807458Y-129370808D01*
X127807458Y-129037475D02*
X127759839Y-129085094D01*
X127759839Y-129085094D02*
X127807458Y-129132713D01*
X127807458Y-129132713D02*
X127855077Y-129085094D01*
X127855077Y-129085094D02*
X127807458Y-129037475D01*
X127807458Y-129037475D02*
X127807458Y-129132713D01*
X128283648Y-129370808D02*
X128283648Y-130037475D01*
X128283648Y-129466046D02*
X128331267Y-129418427D01*
X128331267Y-129418427D02*
X128426505Y-129370808D01*
X128426505Y-129370808D02*
X128569362Y-129370808D01*
X128569362Y-129370808D02*
X128664600Y-129418427D01*
X128664600Y-129418427D02*
X128712219Y-129513665D01*
X128712219Y-129513665D02*
X128712219Y-130037475D01*
X129616981Y-129370808D02*
X129616981Y-130180332D01*
X129616981Y-130180332D02*
X129569362Y-130275570D01*
X129569362Y-130275570D02*
X129521743Y-130323189D01*
X129521743Y-130323189D02*
X129426505Y-130370808D01*
X129426505Y-130370808D02*
X129283648Y-130370808D01*
X129283648Y-130370808D02*
X129188410Y-130323189D01*
X129616981Y-129989856D02*
X129521743Y-130037475D01*
X129521743Y-130037475D02*
X129331267Y-130037475D01*
X129331267Y-130037475D02*
X129236029Y-129989856D01*
X129236029Y-129989856D02*
X129188410Y-129942236D01*
X129188410Y-129942236D02*
X129140791Y-129846998D01*
X129140791Y-129846998D02*
X129140791Y-129561284D01*
X129140791Y-129561284D02*
X129188410Y-129466046D01*
X129188410Y-129466046D02*
X129236029Y-129418427D01*
X129236029Y-129418427D02*
X129331267Y-129370808D01*
X129331267Y-129370808D02*
X129521743Y-129370808D01*
X129521743Y-129370808D02*
X129616981Y-129418427D01*
X130474124Y-129989856D02*
X130378886Y-130037475D01*
X130378886Y-130037475D02*
X130188410Y-130037475D01*
X130188410Y-130037475D02*
X130093172Y-129989856D01*
X130093172Y-129989856D02*
X130045553Y-129894617D01*
X130045553Y-129894617D02*
X130045553Y-129513665D01*
X130045553Y-129513665D02*
X130093172Y-129418427D01*
X130093172Y-129418427D02*
X130188410Y-129370808D01*
X130188410Y-129370808D02*
X130378886Y-129370808D01*
X130378886Y-129370808D02*
X130474124Y-129418427D01*
X130474124Y-129418427D02*
X130521743Y-129513665D01*
X130521743Y-129513665D02*
X130521743Y-129608903D01*
X130521743Y-129608903D02*
X130045553Y-129704141D01*
X130950315Y-130037475D02*
X130950315Y-129370808D01*
X130950315Y-129561284D02*
X130997934Y-129466046D01*
X130997934Y-129466046D02*
X131045553Y-129418427D01*
X131045553Y-129418427D02*
X131140791Y-129370808D01*
X131140791Y-129370808D02*
X131236029Y-129370808D01*
X131521744Y-129989856D02*
X131616982Y-130037475D01*
X131616982Y-130037475D02*
X131807458Y-130037475D01*
X131807458Y-130037475D02*
X131902696Y-129989856D01*
X131902696Y-129989856D02*
X131950315Y-129894617D01*
X131950315Y-129894617D02*
X131950315Y-129846998D01*
X131950315Y-129846998D02*
X131902696Y-129751760D01*
X131902696Y-129751760D02*
X131807458Y-129704141D01*
X131807458Y-129704141D02*
X131664601Y-129704141D01*
X131664601Y-129704141D02*
X131569363Y-129656522D01*
X131569363Y-129656522D02*
X131521744Y-129561284D01*
X131521744Y-129561284D02*
X131521744Y-129513665D01*
X131521744Y-129513665D02*
X131569363Y-129418427D01*
X131569363Y-129418427D02*
X131664601Y-129370808D01*
X131664601Y-129370808D02*
X131807458Y-129370808D01*
X131807458Y-129370808D02*
X131902696Y-129418427D01*
X132426506Y-129989856D02*
X132426506Y-130037475D01*
X132426506Y-130037475D02*
X132378887Y-130132713D01*
X132378887Y-130132713D02*
X132331268Y-130180332D01*
X118807455Y-131647419D02*
X118807455Y-131123609D01*
X118807455Y-131123609D02*
X118759836Y-131028371D01*
X118759836Y-131028371D02*
X118664598Y-130980752D01*
X118664598Y-130980752D02*
X118474122Y-130980752D01*
X118474122Y-130980752D02*
X118378884Y-131028371D01*
X118807455Y-131599800D02*
X118712217Y-131647419D01*
X118712217Y-131647419D02*
X118474122Y-131647419D01*
X118474122Y-131647419D02*
X118378884Y-131599800D01*
X118378884Y-131599800D02*
X118331265Y-131504561D01*
X118331265Y-131504561D02*
X118331265Y-131409323D01*
X118331265Y-131409323D02*
X118378884Y-131314085D01*
X118378884Y-131314085D02*
X118474122Y-131266466D01*
X118474122Y-131266466D02*
X118712217Y-131266466D01*
X118712217Y-131266466D02*
X118807455Y-131218847D01*
X119283646Y-130980752D02*
X119283646Y-131647419D01*
X119283646Y-131075990D02*
X119331265Y-131028371D01*
X119331265Y-131028371D02*
X119426503Y-130980752D01*
X119426503Y-130980752D02*
X119569360Y-130980752D01*
X119569360Y-130980752D02*
X119664598Y-131028371D01*
X119664598Y-131028371D02*
X119712217Y-131123609D01*
X119712217Y-131123609D02*
X119712217Y-131647419D01*
X120616979Y-131647419D02*
X120616979Y-130647419D01*
X120616979Y-131599800D02*
X120521741Y-131647419D01*
X120521741Y-131647419D02*
X120331265Y-131647419D01*
X120331265Y-131647419D02*
X120236027Y-131599800D01*
X120236027Y-131599800D02*
X120188408Y-131552180D01*
X120188408Y-131552180D02*
X120140789Y-131456942D01*
X120140789Y-131456942D02*
X120140789Y-131171228D01*
X120140789Y-131171228D02*
X120188408Y-131075990D01*
X120188408Y-131075990D02*
X120236027Y-131028371D01*
X120236027Y-131028371D02*
X120331265Y-130980752D01*
X120331265Y-130980752D02*
X120521741Y-130980752D01*
X120521741Y-130980752D02*
X120616979Y-131028371D01*
X122236027Y-131599800D02*
X122140789Y-131647419D01*
X122140789Y-131647419D02*
X121950313Y-131647419D01*
X121950313Y-131647419D02*
X121855075Y-131599800D01*
X121855075Y-131599800D02*
X121807456Y-131504561D01*
X121807456Y-131504561D02*
X121807456Y-131123609D01*
X121807456Y-131123609D02*
X121855075Y-131028371D01*
X121855075Y-131028371D02*
X121950313Y-130980752D01*
X121950313Y-130980752D02*
X122140789Y-130980752D01*
X122140789Y-130980752D02*
X122236027Y-131028371D01*
X122236027Y-131028371D02*
X122283646Y-131123609D01*
X122283646Y-131123609D02*
X122283646Y-131218847D01*
X122283646Y-131218847D02*
X121807456Y-131314085D01*
X122616980Y-131647419D02*
X123140789Y-130980752D01*
X122616980Y-130980752D02*
X123140789Y-131647419D01*
X123521742Y-130980752D02*
X123521742Y-131980752D01*
X123521742Y-131028371D02*
X123616980Y-130980752D01*
X123616980Y-130980752D02*
X123807456Y-130980752D01*
X123807456Y-130980752D02*
X123902694Y-131028371D01*
X123902694Y-131028371D02*
X123950313Y-131075990D01*
X123950313Y-131075990D02*
X123997932Y-131171228D01*
X123997932Y-131171228D02*
X123997932Y-131456942D01*
X123997932Y-131456942D02*
X123950313Y-131552180D01*
X123950313Y-131552180D02*
X123902694Y-131599800D01*
X123902694Y-131599800D02*
X123807456Y-131647419D01*
X123807456Y-131647419D02*
X123616980Y-131647419D01*
X123616980Y-131647419D02*
X123521742Y-131599800D01*
X124807456Y-131599800D02*
X124712218Y-131647419D01*
X124712218Y-131647419D02*
X124521742Y-131647419D01*
X124521742Y-131647419D02*
X124426504Y-131599800D01*
X124426504Y-131599800D02*
X124378885Y-131504561D01*
X124378885Y-131504561D02*
X124378885Y-131123609D01*
X124378885Y-131123609D02*
X124426504Y-131028371D01*
X124426504Y-131028371D02*
X124521742Y-130980752D01*
X124521742Y-130980752D02*
X124712218Y-130980752D01*
X124712218Y-130980752D02*
X124807456Y-131028371D01*
X124807456Y-131028371D02*
X124855075Y-131123609D01*
X124855075Y-131123609D02*
X124855075Y-131218847D01*
X124855075Y-131218847D02*
X124378885Y-131314085D01*
X125712218Y-131599800D02*
X125616980Y-131647419D01*
X125616980Y-131647419D02*
X125426504Y-131647419D01*
X125426504Y-131647419D02*
X125331266Y-131599800D01*
X125331266Y-131599800D02*
X125283647Y-131552180D01*
X125283647Y-131552180D02*
X125236028Y-131456942D01*
X125236028Y-131456942D02*
X125236028Y-131171228D01*
X125236028Y-131171228D02*
X125283647Y-131075990D01*
X125283647Y-131075990D02*
X125331266Y-131028371D01*
X125331266Y-131028371D02*
X125426504Y-130980752D01*
X125426504Y-130980752D02*
X125616980Y-130980752D01*
X125616980Y-130980752D02*
X125712218Y-131028371D01*
X125997933Y-130980752D02*
X126378885Y-130980752D01*
X126140790Y-130647419D02*
X126140790Y-131504561D01*
X126140790Y-131504561D02*
X126188409Y-131599800D01*
X126188409Y-131599800D02*
X126283647Y-131647419D01*
X126283647Y-131647419D02*
X126378885Y-131647419D01*
X127426505Y-131599800D02*
X127521743Y-131647419D01*
X127521743Y-131647419D02*
X127712219Y-131647419D01*
X127712219Y-131647419D02*
X127807457Y-131599800D01*
X127807457Y-131599800D02*
X127855076Y-131504561D01*
X127855076Y-131504561D02*
X127855076Y-131456942D01*
X127855076Y-131456942D02*
X127807457Y-131361704D01*
X127807457Y-131361704D02*
X127712219Y-131314085D01*
X127712219Y-131314085D02*
X127569362Y-131314085D01*
X127569362Y-131314085D02*
X127474124Y-131266466D01*
X127474124Y-131266466D02*
X127426505Y-131171228D01*
X127426505Y-131171228D02*
X127426505Y-131123609D01*
X127426505Y-131123609D02*
X127474124Y-131028371D01*
X127474124Y-131028371D02*
X127569362Y-130980752D01*
X127569362Y-130980752D02*
X127712219Y-130980752D01*
X127712219Y-130980752D02*
X127807457Y-131028371D01*
X128426505Y-131647419D02*
X128331267Y-131599800D01*
X128331267Y-131599800D02*
X128283648Y-131552180D01*
X128283648Y-131552180D02*
X128236029Y-131456942D01*
X128236029Y-131456942D02*
X128236029Y-131171228D01*
X128236029Y-131171228D02*
X128283648Y-131075990D01*
X128283648Y-131075990D02*
X128331267Y-131028371D01*
X128331267Y-131028371D02*
X128426505Y-130980752D01*
X128426505Y-130980752D02*
X128569362Y-130980752D01*
X128569362Y-130980752D02*
X128664600Y-131028371D01*
X128664600Y-131028371D02*
X128712219Y-131075990D01*
X128712219Y-131075990D02*
X128759838Y-131171228D01*
X128759838Y-131171228D02*
X128759838Y-131456942D01*
X128759838Y-131456942D02*
X128712219Y-131552180D01*
X128712219Y-131552180D02*
X128664600Y-131599800D01*
X128664600Y-131599800D02*
X128569362Y-131647419D01*
X128569362Y-131647419D02*
X128426505Y-131647419D01*
X129188410Y-131647419D02*
X129188410Y-130980752D01*
X129188410Y-131075990D02*
X129236029Y-131028371D01*
X129236029Y-131028371D02*
X129331267Y-130980752D01*
X129331267Y-130980752D02*
X129474124Y-130980752D01*
X129474124Y-130980752D02*
X129569362Y-131028371D01*
X129569362Y-131028371D02*
X129616981Y-131123609D01*
X129616981Y-131123609D02*
X129616981Y-131647419D01*
X129616981Y-131123609D02*
X129664600Y-131028371D01*
X129664600Y-131028371D02*
X129759838Y-130980752D01*
X129759838Y-130980752D02*
X129902695Y-130980752D01*
X129902695Y-130980752D02*
X129997934Y-131028371D01*
X129997934Y-131028371D02*
X130045553Y-131123609D01*
X130045553Y-131123609D02*
X130045553Y-131647419D01*
X130902695Y-131599800D02*
X130807457Y-131647419D01*
X130807457Y-131647419D02*
X130616981Y-131647419D01*
X130616981Y-131647419D02*
X130521743Y-131599800D01*
X130521743Y-131599800D02*
X130474124Y-131504561D01*
X130474124Y-131504561D02*
X130474124Y-131123609D01*
X130474124Y-131123609D02*
X130521743Y-131028371D01*
X130521743Y-131028371D02*
X130616981Y-130980752D01*
X130616981Y-130980752D02*
X130807457Y-130980752D01*
X130807457Y-130980752D02*
X130902695Y-131028371D01*
X130902695Y-131028371D02*
X130950314Y-131123609D01*
X130950314Y-131123609D02*
X130950314Y-131218847D01*
X130950314Y-131218847D02*
X130474124Y-131314085D01*
X132569362Y-130980752D02*
X132569362Y-131790276D01*
X132569362Y-131790276D02*
X132521743Y-131885514D01*
X132521743Y-131885514D02*
X132474124Y-131933133D01*
X132474124Y-131933133D02*
X132378886Y-131980752D01*
X132378886Y-131980752D02*
X132236029Y-131980752D01*
X132236029Y-131980752D02*
X132140791Y-131933133D01*
X132569362Y-131599800D02*
X132474124Y-131647419D01*
X132474124Y-131647419D02*
X132283648Y-131647419D01*
X132283648Y-131647419D02*
X132188410Y-131599800D01*
X132188410Y-131599800D02*
X132140791Y-131552180D01*
X132140791Y-131552180D02*
X132093172Y-131456942D01*
X132093172Y-131456942D02*
X132093172Y-131171228D01*
X132093172Y-131171228D02*
X132140791Y-131075990D01*
X132140791Y-131075990D02*
X132188410Y-131028371D01*
X132188410Y-131028371D02*
X132283648Y-130980752D01*
X132283648Y-130980752D02*
X132474124Y-130980752D01*
X132474124Y-130980752D02*
X132569362Y-131028371D01*
X133188410Y-131647419D02*
X133093172Y-131599800D01*
X133093172Y-131599800D02*
X133045553Y-131552180D01*
X133045553Y-131552180D02*
X132997934Y-131456942D01*
X132997934Y-131456942D02*
X132997934Y-131171228D01*
X132997934Y-131171228D02*
X133045553Y-131075990D01*
X133045553Y-131075990D02*
X133093172Y-131028371D01*
X133093172Y-131028371D02*
X133188410Y-130980752D01*
X133188410Y-130980752D02*
X133331267Y-130980752D01*
X133331267Y-130980752D02*
X133426505Y-131028371D01*
X133426505Y-131028371D02*
X133474124Y-131075990D01*
X133474124Y-131075990D02*
X133521743Y-131171228D01*
X133521743Y-131171228D02*
X133521743Y-131456942D01*
X133521743Y-131456942D02*
X133474124Y-131552180D01*
X133474124Y-131552180D02*
X133426505Y-131599800D01*
X133426505Y-131599800D02*
X133331267Y-131647419D01*
X133331267Y-131647419D02*
X133188410Y-131647419D01*
X134093172Y-131647419D02*
X133997934Y-131599800D01*
X133997934Y-131599800D02*
X133950315Y-131552180D01*
X133950315Y-131552180D02*
X133902696Y-131456942D01*
X133902696Y-131456942D02*
X133902696Y-131171228D01*
X133902696Y-131171228D02*
X133950315Y-131075990D01*
X133950315Y-131075990D02*
X133997934Y-131028371D01*
X133997934Y-131028371D02*
X134093172Y-130980752D01*
X134093172Y-130980752D02*
X134236029Y-130980752D01*
X134236029Y-130980752D02*
X134331267Y-131028371D01*
X134331267Y-131028371D02*
X134378886Y-131075990D01*
X134378886Y-131075990D02*
X134426505Y-131171228D01*
X134426505Y-131171228D02*
X134426505Y-131456942D01*
X134426505Y-131456942D02*
X134378886Y-131552180D01*
X134378886Y-131552180D02*
X134331267Y-131599800D01*
X134331267Y-131599800D02*
X134236029Y-131647419D01*
X134236029Y-131647419D02*
X134093172Y-131647419D01*
X135283648Y-131647419D02*
X135283648Y-130647419D01*
X135283648Y-131599800D02*
X135188410Y-131647419D01*
X135188410Y-131647419D02*
X134997934Y-131647419D01*
X134997934Y-131647419D02*
X134902696Y-131599800D01*
X134902696Y-131599800D02*
X134855077Y-131552180D01*
X134855077Y-131552180D02*
X134807458Y-131456942D01*
X134807458Y-131456942D02*
X134807458Y-131171228D01*
X134807458Y-131171228D02*
X134855077Y-131075990D01*
X134855077Y-131075990D02*
X134902696Y-131028371D01*
X134902696Y-131028371D02*
X134997934Y-130980752D01*
X134997934Y-130980752D02*
X135188410Y-130980752D01*
X135188410Y-130980752D02*
X135283648Y-131028371D01*
X136950315Y-131647419D02*
X136950315Y-130647419D01*
X136950315Y-131599800D02*
X136855077Y-131647419D01*
X136855077Y-131647419D02*
X136664601Y-131647419D01*
X136664601Y-131647419D02*
X136569363Y-131599800D01*
X136569363Y-131599800D02*
X136521744Y-131552180D01*
X136521744Y-131552180D02*
X136474125Y-131456942D01*
X136474125Y-131456942D02*
X136474125Y-131171228D01*
X136474125Y-131171228D02*
X136521744Y-131075990D01*
X136521744Y-131075990D02*
X136569363Y-131028371D01*
X136569363Y-131028371D02*
X136664601Y-130980752D01*
X136664601Y-130980752D02*
X136855077Y-130980752D01*
X136855077Y-130980752D02*
X136950315Y-131028371D01*
X137855077Y-131647419D02*
X137855077Y-131123609D01*
X137855077Y-131123609D02*
X137807458Y-131028371D01*
X137807458Y-131028371D02*
X137712220Y-130980752D01*
X137712220Y-130980752D02*
X137521744Y-130980752D01*
X137521744Y-130980752D02*
X137426506Y-131028371D01*
X137855077Y-131599800D02*
X137759839Y-131647419D01*
X137759839Y-131647419D02*
X137521744Y-131647419D01*
X137521744Y-131647419D02*
X137426506Y-131599800D01*
X137426506Y-131599800D02*
X137378887Y-131504561D01*
X137378887Y-131504561D02*
X137378887Y-131409323D01*
X137378887Y-131409323D02*
X137426506Y-131314085D01*
X137426506Y-131314085D02*
X137521744Y-131266466D01*
X137521744Y-131266466D02*
X137759839Y-131266466D01*
X137759839Y-131266466D02*
X137855077Y-131218847D01*
X138188411Y-130980752D02*
X138569363Y-130980752D01*
X138331268Y-130647419D02*
X138331268Y-131504561D01*
X138331268Y-131504561D02*
X138378887Y-131599800D01*
X138378887Y-131599800D02*
X138474125Y-131647419D01*
X138474125Y-131647419D02*
X138569363Y-131647419D01*
X139331268Y-131647419D02*
X139331268Y-131123609D01*
X139331268Y-131123609D02*
X139283649Y-131028371D01*
X139283649Y-131028371D02*
X139188411Y-130980752D01*
X139188411Y-130980752D02*
X138997935Y-130980752D01*
X138997935Y-130980752D02*
X138902697Y-131028371D01*
X139331268Y-131599800D02*
X139236030Y-131647419D01*
X139236030Y-131647419D02*
X138997935Y-131647419D01*
X138997935Y-131647419D02*
X138902697Y-131599800D01*
X138902697Y-131599800D02*
X138855078Y-131504561D01*
X138855078Y-131504561D02*
X138855078Y-131409323D01*
X138855078Y-131409323D02*
X138902697Y-131314085D01*
X138902697Y-131314085D02*
X138997935Y-131266466D01*
X138997935Y-131266466D02*
X139236030Y-131266466D01*
X139236030Y-131266466D02*
X139331268Y-131218847D01*
X140426507Y-130980752D02*
X140807459Y-130980752D01*
X140569364Y-131647419D02*
X140569364Y-130790276D01*
X140569364Y-130790276D02*
X140616983Y-130695038D01*
X140616983Y-130695038D02*
X140712221Y-130647419D01*
X140712221Y-130647419D02*
X140807459Y-130647419D01*
X141140793Y-131647419D02*
X141140793Y-130980752D01*
X141140793Y-131171228D02*
X141188412Y-131075990D01*
X141188412Y-131075990D02*
X141236031Y-131028371D01*
X141236031Y-131028371D02*
X141331269Y-130980752D01*
X141331269Y-130980752D02*
X141426507Y-130980752D01*
X141902698Y-131647419D02*
X141807460Y-131599800D01*
X141807460Y-131599800D02*
X141759841Y-131552180D01*
X141759841Y-131552180D02*
X141712222Y-131456942D01*
X141712222Y-131456942D02*
X141712222Y-131171228D01*
X141712222Y-131171228D02*
X141759841Y-131075990D01*
X141759841Y-131075990D02*
X141807460Y-131028371D01*
X141807460Y-131028371D02*
X141902698Y-130980752D01*
X141902698Y-130980752D02*
X142045555Y-130980752D01*
X142045555Y-130980752D02*
X142140793Y-131028371D01*
X142140793Y-131028371D02*
X142188412Y-131075990D01*
X142188412Y-131075990D02*
X142236031Y-131171228D01*
X142236031Y-131171228D02*
X142236031Y-131456942D01*
X142236031Y-131456942D02*
X142188412Y-131552180D01*
X142188412Y-131552180D02*
X142140793Y-131599800D01*
X142140793Y-131599800D02*
X142045555Y-131647419D01*
X142045555Y-131647419D02*
X141902698Y-131647419D01*
X142664603Y-131647419D02*
X142664603Y-130980752D01*
X142664603Y-131075990D02*
X142712222Y-131028371D01*
X142712222Y-131028371D02*
X142807460Y-130980752D01*
X142807460Y-130980752D02*
X142950317Y-130980752D01*
X142950317Y-130980752D02*
X143045555Y-131028371D01*
X143045555Y-131028371D02*
X143093174Y-131123609D01*
X143093174Y-131123609D02*
X143093174Y-131647419D01*
X143093174Y-131123609D02*
X143140793Y-131028371D01*
X143140793Y-131028371D02*
X143236031Y-130980752D01*
X143236031Y-130980752D02*
X143378888Y-130980752D01*
X143378888Y-130980752D02*
X143474127Y-131028371D01*
X143474127Y-131028371D02*
X143521746Y-131123609D01*
X143521746Y-131123609D02*
X143521746Y-131647419D01*
X144616984Y-130980752D02*
X144997936Y-130980752D01*
X144759841Y-130647419D02*
X144759841Y-131504561D01*
X144759841Y-131504561D02*
X144807460Y-131599800D01*
X144807460Y-131599800D02*
X144902698Y-131647419D01*
X144902698Y-131647419D02*
X144997936Y-131647419D01*
X145331270Y-131647419D02*
X145331270Y-130647419D01*
X145759841Y-131647419D02*
X145759841Y-131123609D01*
X145759841Y-131123609D02*
X145712222Y-131028371D01*
X145712222Y-131028371D02*
X145616984Y-130980752D01*
X145616984Y-130980752D02*
X145474127Y-130980752D01*
X145474127Y-130980752D02*
X145378889Y-131028371D01*
X145378889Y-131028371D02*
X145331270Y-131075990D01*
X146664603Y-131647419D02*
X146664603Y-131123609D01*
X146664603Y-131123609D02*
X146616984Y-131028371D01*
X146616984Y-131028371D02*
X146521746Y-130980752D01*
X146521746Y-130980752D02*
X146331270Y-130980752D01*
X146331270Y-130980752D02*
X146236032Y-131028371D01*
X146664603Y-131599800D02*
X146569365Y-131647419D01*
X146569365Y-131647419D02*
X146331270Y-131647419D01*
X146331270Y-131647419D02*
X146236032Y-131599800D01*
X146236032Y-131599800D02*
X146188413Y-131504561D01*
X146188413Y-131504561D02*
X146188413Y-131409323D01*
X146188413Y-131409323D02*
X146236032Y-131314085D01*
X146236032Y-131314085D02*
X146331270Y-131266466D01*
X146331270Y-131266466D02*
X146569365Y-131266466D01*
X146569365Y-131266466D02*
X146664603Y-131218847D01*
X146997937Y-130980752D02*
X147378889Y-130980752D01*
X147140794Y-130647419D02*
X147140794Y-131504561D01*
X147140794Y-131504561D02*
X147188413Y-131599800D01*
X147188413Y-131599800D02*
X147283651Y-131647419D01*
X147283651Y-131647419D02*
X147378889Y-131647419D01*
X147712223Y-131552180D02*
X147759842Y-131599800D01*
X147759842Y-131599800D02*
X147712223Y-131647419D01*
X147712223Y-131647419D02*
X147664604Y-131599800D01*
X147664604Y-131599800D02*
X147712223Y-131552180D01*
X147712223Y-131552180D02*
X147712223Y-131647419D01*
X148188413Y-131552180D02*
X148236032Y-131599800D01*
X148236032Y-131599800D02*
X148188413Y-131647419D01*
X148188413Y-131647419D02*
X148140794Y-131599800D01*
X148140794Y-131599800D02*
X148188413Y-131552180D01*
X148188413Y-131552180D02*
X148188413Y-131647419D01*
X131228884Y-87997419D02*
X131228884Y-86997419D01*
X131228884Y-86997419D02*
X131800312Y-87997419D01*
X131800312Y-87997419D02*
X131800312Y-86997419D01*
X132419360Y-87997419D02*
X132324122Y-87949800D01*
X132324122Y-87949800D02*
X132276503Y-87902180D01*
X132276503Y-87902180D02*
X132228884Y-87806942D01*
X132228884Y-87806942D02*
X132228884Y-87521228D01*
X132228884Y-87521228D02*
X132276503Y-87425990D01*
X132276503Y-87425990D02*
X132324122Y-87378371D01*
X132324122Y-87378371D02*
X132419360Y-87330752D01*
X132419360Y-87330752D02*
X132562217Y-87330752D01*
X132562217Y-87330752D02*
X132657455Y-87378371D01*
X132657455Y-87378371D02*
X132705074Y-87425990D01*
X132705074Y-87425990D02*
X132752693Y-87521228D01*
X132752693Y-87521228D02*
X132752693Y-87806942D01*
X132752693Y-87806942D02*
X132705074Y-87902180D01*
X132705074Y-87902180D02*
X132657455Y-87949800D01*
X132657455Y-87949800D02*
X132562217Y-87997419D01*
X132562217Y-87997419D02*
X132419360Y-87997419D01*
X133038408Y-87330752D02*
X133419360Y-87330752D01*
X133181265Y-86997419D02*
X133181265Y-87854561D01*
X133181265Y-87854561D02*
X133228884Y-87949800D01*
X133228884Y-87949800D02*
X133324122Y-87997419D01*
X133324122Y-87997419D02*
X133419360Y-87997419D01*
X134514599Y-87330752D02*
X134514599Y-88330752D01*
X134514599Y-87378371D02*
X134609837Y-87330752D01*
X134609837Y-87330752D02*
X134800313Y-87330752D01*
X134800313Y-87330752D02*
X134895551Y-87378371D01*
X134895551Y-87378371D02*
X134943170Y-87425990D01*
X134943170Y-87425990D02*
X134990789Y-87521228D01*
X134990789Y-87521228D02*
X134990789Y-87806942D01*
X134990789Y-87806942D02*
X134943170Y-87902180D01*
X134943170Y-87902180D02*
X134895551Y-87949800D01*
X134895551Y-87949800D02*
X134800313Y-87997419D01*
X134800313Y-87997419D02*
X134609837Y-87997419D01*
X134609837Y-87997419D02*
X134514599Y-87949800D01*
X135800313Y-87949800D02*
X135705075Y-87997419D01*
X135705075Y-87997419D02*
X135514599Y-87997419D01*
X135514599Y-87997419D02*
X135419361Y-87949800D01*
X135419361Y-87949800D02*
X135371742Y-87854561D01*
X135371742Y-87854561D02*
X135371742Y-87473609D01*
X135371742Y-87473609D02*
X135419361Y-87378371D01*
X135419361Y-87378371D02*
X135514599Y-87330752D01*
X135514599Y-87330752D02*
X135705075Y-87330752D01*
X135705075Y-87330752D02*
X135800313Y-87378371D01*
X135800313Y-87378371D02*
X135847932Y-87473609D01*
X135847932Y-87473609D02*
X135847932Y-87568847D01*
X135847932Y-87568847D02*
X135371742Y-87664085D01*
X136276504Y-87997419D02*
X136276504Y-87330752D01*
X136276504Y-87521228D02*
X136324123Y-87425990D01*
X136324123Y-87425990D02*
X136371742Y-87378371D01*
X136371742Y-87378371D02*
X136466980Y-87330752D01*
X136466980Y-87330752D02*
X136562218Y-87330752D01*
X136752695Y-87330752D02*
X137133647Y-87330752D01*
X136895552Y-87997419D02*
X136895552Y-87140276D01*
X136895552Y-87140276D02*
X136943171Y-87045038D01*
X136943171Y-87045038D02*
X137038409Y-86997419D01*
X137038409Y-86997419D02*
X137133647Y-86997419D01*
X137847933Y-87949800D02*
X137752695Y-87997419D01*
X137752695Y-87997419D02*
X137562219Y-87997419D01*
X137562219Y-87997419D02*
X137466981Y-87949800D01*
X137466981Y-87949800D02*
X137419362Y-87854561D01*
X137419362Y-87854561D02*
X137419362Y-87473609D01*
X137419362Y-87473609D02*
X137466981Y-87378371D01*
X137466981Y-87378371D02*
X137562219Y-87330752D01*
X137562219Y-87330752D02*
X137752695Y-87330752D01*
X137752695Y-87330752D02*
X137847933Y-87378371D01*
X137847933Y-87378371D02*
X137895552Y-87473609D01*
X137895552Y-87473609D02*
X137895552Y-87568847D01*
X137895552Y-87568847D02*
X137419362Y-87664085D01*
X138752695Y-87949800D02*
X138657457Y-87997419D01*
X138657457Y-87997419D02*
X138466981Y-87997419D01*
X138466981Y-87997419D02*
X138371743Y-87949800D01*
X138371743Y-87949800D02*
X138324124Y-87902180D01*
X138324124Y-87902180D02*
X138276505Y-87806942D01*
X138276505Y-87806942D02*
X138276505Y-87521228D01*
X138276505Y-87521228D02*
X138324124Y-87425990D01*
X138324124Y-87425990D02*
X138371743Y-87378371D01*
X138371743Y-87378371D02*
X138466981Y-87330752D01*
X138466981Y-87330752D02*
X138657457Y-87330752D01*
X138657457Y-87330752D02*
X138752695Y-87378371D01*
X139038410Y-87330752D02*
X139419362Y-87330752D01*
X139181267Y-86997419D02*
X139181267Y-87854561D01*
X139181267Y-87854561D02*
X139228886Y-87949800D01*
X139228886Y-87949800D02*
X139324124Y-87997419D01*
X139324124Y-87997419D02*
X139419362Y-87997419D01*
X139800315Y-87949800D02*
X139800315Y-87997419D01*
X139800315Y-87997419D02*
X139752696Y-88092657D01*
X139752696Y-88092657D02*
X139705077Y-88140276D01*
X140990791Y-87997419D02*
X140990791Y-86997419D01*
X140990791Y-87378371D02*
X141086029Y-87330752D01*
X141086029Y-87330752D02*
X141276505Y-87330752D01*
X141276505Y-87330752D02*
X141371743Y-87378371D01*
X141371743Y-87378371D02*
X141419362Y-87425990D01*
X141419362Y-87425990D02*
X141466981Y-87521228D01*
X141466981Y-87521228D02*
X141466981Y-87806942D01*
X141466981Y-87806942D02*
X141419362Y-87902180D01*
X141419362Y-87902180D02*
X141371743Y-87949800D01*
X141371743Y-87949800D02*
X141276505Y-87997419D01*
X141276505Y-87997419D02*
X141086029Y-87997419D01*
X141086029Y-87997419D02*
X140990791Y-87949800D01*
X142324124Y-87330752D02*
X142324124Y-87997419D01*
X141895553Y-87330752D02*
X141895553Y-87854561D01*
X141895553Y-87854561D02*
X141943172Y-87949800D01*
X141943172Y-87949800D02*
X142038410Y-87997419D01*
X142038410Y-87997419D02*
X142181267Y-87997419D01*
X142181267Y-87997419D02*
X142276505Y-87949800D01*
X142276505Y-87949800D02*
X142324124Y-87902180D01*
X142657458Y-87330752D02*
X143038410Y-87330752D01*
X142800315Y-86997419D02*
X142800315Y-87854561D01*
X142800315Y-87854561D02*
X142847934Y-87949800D01*
X142847934Y-87949800D02*
X142943172Y-87997419D01*
X142943172Y-87997419D02*
X143038410Y-87997419D01*
X143990792Y-87330752D02*
X144371744Y-87330752D01*
X144133649Y-87997419D02*
X144133649Y-87140276D01*
X144133649Y-87140276D02*
X144181268Y-87045038D01*
X144181268Y-87045038D02*
X144276506Y-86997419D01*
X144276506Y-86997419D02*
X144371744Y-86997419D01*
X144847935Y-87997419D02*
X144752697Y-87949800D01*
X144752697Y-87949800D02*
X144705078Y-87854561D01*
X144705078Y-87854561D02*
X144705078Y-86997419D01*
X145133650Y-87330752D02*
X145371745Y-87997419D01*
X145609840Y-87330752D02*
X145371745Y-87997419D01*
X145371745Y-87997419D02*
X145276507Y-88235514D01*
X145276507Y-88235514D02*
X145228888Y-88283133D01*
X145228888Y-88283133D02*
X145133650Y-88330752D01*
X145990793Y-87997419D02*
X145990793Y-87330752D01*
X145990793Y-86997419D02*
X145943174Y-87045038D01*
X145943174Y-87045038D02*
X145990793Y-87092657D01*
X145990793Y-87092657D02*
X146038412Y-87045038D01*
X146038412Y-87045038D02*
X145990793Y-86997419D01*
X145990793Y-86997419D02*
X145990793Y-87092657D01*
X146466983Y-87330752D02*
X146466983Y-87997419D01*
X146466983Y-87425990D02*
X146514602Y-87378371D01*
X146514602Y-87378371D02*
X146609840Y-87330752D01*
X146609840Y-87330752D02*
X146752697Y-87330752D01*
X146752697Y-87330752D02*
X146847935Y-87378371D01*
X146847935Y-87378371D02*
X146895554Y-87473609D01*
X146895554Y-87473609D02*
X146895554Y-87997419D01*
X147800316Y-87330752D02*
X147800316Y-88140276D01*
X147800316Y-88140276D02*
X147752697Y-88235514D01*
X147752697Y-88235514D02*
X147705078Y-88283133D01*
X147705078Y-88283133D02*
X147609840Y-88330752D01*
X147609840Y-88330752D02*
X147466983Y-88330752D01*
X147466983Y-88330752D02*
X147371745Y-88283133D01*
X147800316Y-87949800D02*
X147705078Y-87997419D01*
X147705078Y-87997419D02*
X147514602Y-87997419D01*
X147514602Y-87997419D02*
X147419364Y-87949800D01*
X147419364Y-87949800D02*
X147371745Y-87902180D01*
X147371745Y-87902180D02*
X147324126Y-87806942D01*
X147324126Y-87806942D02*
X147324126Y-87521228D01*
X147324126Y-87521228D02*
X147371745Y-87425990D01*
X147371745Y-87425990D02*
X147419364Y-87378371D01*
X147419364Y-87378371D02*
X147514602Y-87330752D01*
X147514602Y-87330752D02*
X147705078Y-87330752D01*
X147705078Y-87330752D02*
X147800316Y-87378371D01*
D12*
X118778006Y-132893409D02*
X118920863Y-132941028D01*
X118920863Y-132941028D02*
X118968482Y-132988647D01*
X118968482Y-132988647D02*
X119016101Y-133083885D01*
X119016101Y-133083885D02*
X119016101Y-133226742D01*
X119016101Y-133226742D02*
X118968482Y-133321980D01*
X118968482Y-133321980D02*
X118920863Y-133369600D01*
X118920863Y-133369600D02*
X118825625Y-133417219D01*
X118825625Y-133417219D02*
X118444673Y-133417219D01*
X118444673Y-133417219D02*
X118444673Y-132417219D01*
X118444673Y-132417219D02*
X118778006Y-132417219D01*
X118778006Y-132417219D02*
X118873244Y-132464838D01*
X118873244Y-132464838D02*
X118920863Y-132512457D01*
X118920863Y-132512457D02*
X118968482Y-132607695D01*
X118968482Y-132607695D02*
X118968482Y-132702933D01*
X118968482Y-132702933D02*
X118920863Y-132798171D01*
X118920863Y-132798171D02*
X118873244Y-132845790D01*
X118873244Y-132845790D02*
X118778006Y-132893409D01*
X118778006Y-132893409D02*
X118444673Y-132893409D01*
X119349435Y-132750552D02*
X119587530Y-133417219D01*
X119825625Y-132750552D02*
X119587530Y-133417219D01*
X119587530Y-133417219D02*
X119492292Y-133655314D01*
X119492292Y-133655314D02*
X119444673Y-133702933D01*
X119444673Y-133702933D02*
X119349435Y-133750552D01*
X120206578Y-133321980D02*
X120254197Y-133369600D01*
X120254197Y-133369600D02*
X120206578Y-133417219D01*
X120206578Y-133417219D02*
X120158959Y-133369600D01*
X120158959Y-133369600D02*
X120206578Y-133321980D01*
X120206578Y-133321980D02*
X120206578Y-133417219D01*
X120206578Y-132798171D02*
X120254197Y-132845790D01*
X120254197Y-132845790D02*
X120206578Y-132893409D01*
X120206578Y-132893409D02*
X120158959Y-132845790D01*
X120158959Y-132845790D02*
X120206578Y-132798171D01*
X120206578Y-132798171D02*
X120206578Y-132893409D01*
X121301816Y-132417219D02*
X121873244Y-132417219D01*
X121587530Y-133417219D02*
X121587530Y-132417219D01*
X122206578Y-133417219D02*
X122206578Y-132417219D01*
X122635149Y-133417219D02*
X122635149Y-132893409D01*
X122635149Y-132893409D02*
X122587530Y-132798171D01*
X122587530Y-132798171D02*
X122492292Y-132750552D01*
X122492292Y-132750552D02*
X122349435Y-132750552D01*
X122349435Y-132750552D02*
X122254197Y-132798171D01*
X122254197Y-132798171D02*
X122206578Y-132845790D01*
X123492292Y-133369600D02*
X123397054Y-133417219D01*
X123397054Y-133417219D02*
X123206578Y-133417219D01*
X123206578Y-133417219D02*
X123111340Y-133369600D01*
X123111340Y-133369600D02*
X123063721Y-133274361D01*
X123063721Y-133274361D02*
X123063721Y-132893409D01*
X123063721Y-132893409D02*
X123111340Y-132798171D01*
X123111340Y-132798171D02*
X123206578Y-132750552D01*
X123206578Y-132750552D02*
X123397054Y-132750552D01*
X123397054Y-132750552D02*
X123492292Y-132798171D01*
X123492292Y-132798171D02*
X123539911Y-132893409D01*
X123539911Y-132893409D02*
X123539911Y-132988647D01*
X123539911Y-132988647D02*
X123063721Y-133083885D01*
X124397054Y-132750552D02*
X124397054Y-133417219D01*
X123968483Y-132750552D02*
X123968483Y-133274361D01*
X123968483Y-133274361D02*
X124016102Y-133369600D01*
X124016102Y-133369600D02*
X124111340Y-133417219D01*
X124111340Y-133417219D02*
X124254197Y-133417219D01*
X124254197Y-133417219D02*
X124349435Y-133369600D01*
X124349435Y-133369600D02*
X124397054Y-133321980D01*
X124825626Y-133369600D02*
X124920864Y-133417219D01*
X124920864Y-133417219D02*
X125111340Y-133417219D01*
X125111340Y-133417219D02*
X125206578Y-133369600D01*
X125206578Y-133369600D02*
X125254197Y-133274361D01*
X125254197Y-133274361D02*
X125254197Y-133226742D01*
X125254197Y-133226742D02*
X125206578Y-133131504D01*
X125206578Y-133131504D02*
X125111340Y-133083885D01*
X125111340Y-133083885D02*
X124968483Y-133083885D01*
X124968483Y-133083885D02*
X124873245Y-133036266D01*
X124873245Y-133036266D02*
X124825626Y-132941028D01*
X124825626Y-132941028D02*
X124825626Y-132893409D01*
X124825626Y-132893409D02*
X124873245Y-132798171D01*
X124873245Y-132798171D02*
X124968483Y-132750552D01*
X124968483Y-132750552D02*
X125111340Y-132750552D01*
X125111340Y-132750552D02*
X125206578Y-132798171D01*
X125682769Y-133417219D02*
X125682769Y-132417219D01*
X125682769Y-132893409D02*
X126254197Y-132893409D01*
X126254197Y-133417219D02*
X126254197Y-132417219D01*
X127111340Y-133369600D02*
X127016102Y-133417219D01*
X127016102Y-133417219D02*
X126825626Y-133417219D01*
X126825626Y-133417219D02*
X126730388Y-133369600D01*
X126730388Y-133369600D02*
X126682769Y-133274361D01*
X126682769Y-133274361D02*
X126682769Y-132893409D01*
X126682769Y-132893409D02*
X126730388Y-132798171D01*
X126730388Y-132798171D02*
X126825626Y-132750552D01*
X126825626Y-132750552D02*
X127016102Y-132750552D01*
X127016102Y-132750552D02*
X127111340Y-132798171D01*
X127111340Y-132798171D02*
X127158959Y-132893409D01*
X127158959Y-132893409D02*
X127158959Y-132988647D01*
X127158959Y-132988647D02*
X126682769Y-133083885D01*
X127587531Y-132750552D02*
X127587531Y-133417219D01*
X127587531Y-132845790D02*
X127635150Y-132798171D01*
X127635150Y-132798171D02*
X127730388Y-132750552D01*
X127730388Y-132750552D02*
X127873245Y-132750552D01*
X127873245Y-132750552D02*
X127968483Y-132798171D01*
X127968483Y-132798171D02*
X128016102Y-132893409D01*
X128016102Y-132893409D02*
X128016102Y-133417219D01*
X128492293Y-133321980D02*
X128539912Y-133369600D01*
X128539912Y-133369600D02*
X128492293Y-133417219D01*
X128492293Y-133417219D02*
X128444674Y-133369600D01*
X128444674Y-133369600D02*
X128492293Y-133321980D01*
X128492293Y-133321980D02*
X128492293Y-133417219D01*
X128968483Y-133417219D02*
X128968483Y-132750552D01*
X128968483Y-132845790D02*
X129016102Y-132798171D01*
X129016102Y-132798171D02*
X129111340Y-132750552D01*
X129111340Y-132750552D02*
X129254197Y-132750552D01*
X129254197Y-132750552D02*
X129349435Y-132798171D01*
X129349435Y-132798171D02*
X129397054Y-132893409D01*
X129397054Y-132893409D02*
X129397054Y-133417219D01*
X129397054Y-132893409D02*
X129444673Y-132798171D01*
X129444673Y-132798171D02*
X129539911Y-132750552D01*
X129539911Y-132750552D02*
X129682768Y-132750552D01*
X129682768Y-132750552D02*
X129778007Y-132798171D01*
X129778007Y-132798171D02*
X129825626Y-132893409D01*
X129825626Y-132893409D02*
X129825626Y-133417219D01*
X130682768Y-133369600D02*
X130587530Y-133417219D01*
X130587530Y-133417219D02*
X130397054Y-133417219D01*
X130397054Y-133417219D02*
X130301816Y-133369600D01*
X130301816Y-133369600D02*
X130254197Y-133274361D01*
X130254197Y-133274361D02*
X130254197Y-132893409D01*
X130254197Y-132893409D02*
X130301816Y-132798171D01*
X130301816Y-132798171D02*
X130397054Y-132750552D01*
X130397054Y-132750552D02*
X130587530Y-132750552D01*
X130587530Y-132750552D02*
X130682768Y-132798171D01*
X130682768Y-132798171D02*
X130730387Y-132893409D01*
X130730387Y-132893409D02*
X130730387Y-132988647D01*
X130730387Y-132988647D02*
X130254197Y-133083885D01*
D10*
X196273866Y-112855951D02*
X196273866Y-112094047D01*
X196654819Y-112474999D02*
X195892914Y-112474999D01*
X181793095Y-91427819D02*
X181793095Y-92237342D01*
X181793095Y-92237342D02*
X181840714Y-92332580D01*
X181840714Y-92332580D02*
X181888333Y-92380200D01*
X181888333Y-92380200D02*
X181983571Y-92427819D01*
X181983571Y-92427819D02*
X182174047Y-92427819D01*
X182174047Y-92427819D02*
X182269285Y-92380200D01*
X182269285Y-92380200D02*
X182316904Y-92332580D01*
X182316904Y-92332580D02*
X182364523Y-92237342D01*
X182364523Y-92237342D02*
X182364523Y-91427819D01*
X182745476Y-91427819D02*
X183412142Y-91427819D01*
X183412142Y-91427819D02*
X182983571Y-92427819D01*
X137357142Y-52779819D02*
X136880952Y-52779819D01*
X136880952Y-52779819D02*
X136880952Y-51779819D01*
X137642857Y-52732200D02*
X137785714Y-52779819D01*
X137785714Y-52779819D02*
X138023809Y-52779819D01*
X138023809Y-52779819D02*
X138119047Y-52732200D01*
X138119047Y-52732200D02*
X138166666Y-52684580D01*
X138166666Y-52684580D02*
X138214285Y-52589342D01*
X138214285Y-52589342D02*
X138214285Y-52494104D01*
X138214285Y-52494104D02*
X138166666Y-52398866D01*
X138166666Y-52398866D02*
X138119047Y-52351247D01*
X138119047Y-52351247D02*
X138023809Y-52303628D01*
X138023809Y-52303628D02*
X137833333Y-52256009D01*
X137833333Y-52256009D02*
X137738095Y-52208390D01*
X137738095Y-52208390D02*
X137690476Y-52160771D01*
X137690476Y-52160771D02*
X137642857Y-52065533D01*
X137642857Y-52065533D02*
X137642857Y-51970295D01*
X137642857Y-51970295D02*
X137690476Y-51875057D01*
X137690476Y-51875057D02*
X137738095Y-51827438D01*
X137738095Y-51827438D02*
X137833333Y-51779819D01*
X137833333Y-51779819D02*
X138071428Y-51779819D01*
X138071428Y-51779819D02*
X138214285Y-51827438D01*
X139166666Y-52779819D02*
X138595238Y-52779819D01*
X138880952Y-52779819D02*
X138880952Y-51779819D01*
X138880952Y-51779819D02*
X138785714Y-51922676D01*
X138785714Y-51922676D02*
X138690476Y-52017914D01*
X138690476Y-52017914D02*
X138595238Y-52065533D01*
X150958333Y-136624819D02*
X150625000Y-136148628D01*
X150386905Y-136624819D02*
X150386905Y-135624819D01*
X150386905Y-135624819D02*
X150767857Y-135624819D01*
X150767857Y-135624819D02*
X150863095Y-135672438D01*
X150863095Y-135672438D02*
X150910714Y-135720057D01*
X150910714Y-135720057D02*
X150958333Y-135815295D01*
X150958333Y-135815295D02*
X150958333Y-135958152D01*
X150958333Y-135958152D02*
X150910714Y-136053390D01*
X150910714Y-136053390D02*
X150863095Y-136101009D01*
X150863095Y-136101009D02*
X150767857Y-136148628D01*
X150767857Y-136148628D02*
X150386905Y-136148628D01*
X151910714Y-136624819D02*
X151339286Y-136624819D01*
X151625000Y-136624819D02*
X151625000Y-135624819D01*
X151625000Y-135624819D02*
X151529762Y-135767676D01*
X151529762Y-135767676D02*
X151434524Y-135862914D01*
X151434524Y-135862914D02*
X151339286Y-135910533D01*
X143308333Y-89524819D02*
X142975000Y-89048628D01*
X142736905Y-89524819D02*
X142736905Y-88524819D01*
X142736905Y-88524819D02*
X143117857Y-88524819D01*
X143117857Y-88524819D02*
X143213095Y-88572438D01*
X143213095Y-88572438D02*
X143260714Y-88620057D01*
X143260714Y-88620057D02*
X143308333Y-88715295D01*
X143308333Y-88715295D02*
X143308333Y-88858152D01*
X143308333Y-88858152D02*
X143260714Y-88953390D01*
X143260714Y-88953390D02*
X143213095Y-89001009D01*
X143213095Y-89001009D02*
X143117857Y-89048628D01*
X143117857Y-89048628D02*
X142736905Y-89048628D01*
X143879762Y-88953390D02*
X143784524Y-88905771D01*
X143784524Y-88905771D02*
X143736905Y-88858152D01*
X143736905Y-88858152D02*
X143689286Y-88762914D01*
X143689286Y-88762914D02*
X143689286Y-88715295D01*
X143689286Y-88715295D02*
X143736905Y-88620057D01*
X143736905Y-88620057D02*
X143784524Y-88572438D01*
X143784524Y-88572438D02*
X143879762Y-88524819D01*
X143879762Y-88524819D02*
X144070238Y-88524819D01*
X144070238Y-88524819D02*
X144165476Y-88572438D01*
X144165476Y-88572438D02*
X144213095Y-88620057D01*
X144213095Y-88620057D02*
X144260714Y-88715295D01*
X144260714Y-88715295D02*
X144260714Y-88762914D01*
X144260714Y-88762914D02*
X144213095Y-88858152D01*
X144213095Y-88858152D02*
X144165476Y-88905771D01*
X144165476Y-88905771D02*
X144070238Y-88953390D01*
X144070238Y-88953390D02*
X143879762Y-88953390D01*
X143879762Y-88953390D02*
X143784524Y-89001009D01*
X143784524Y-89001009D02*
X143736905Y-89048628D01*
X143736905Y-89048628D02*
X143689286Y-89143866D01*
X143689286Y-89143866D02*
X143689286Y-89334342D01*
X143689286Y-89334342D02*
X143736905Y-89429580D01*
X143736905Y-89429580D02*
X143784524Y-89477200D01*
X143784524Y-89477200D02*
X143879762Y-89524819D01*
X143879762Y-89524819D02*
X144070238Y-89524819D01*
X144070238Y-89524819D02*
X144165476Y-89477200D01*
X144165476Y-89477200D02*
X144213095Y-89429580D01*
X144213095Y-89429580D02*
X144260714Y-89334342D01*
X144260714Y-89334342D02*
X144260714Y-89143866D01*
X144260714Y-89143866D02*
X144213095Y-89048628D01*
X144213095Y-89048628D02*
X144165476Y-89001009D01*
X144165476Y-89001009D02*
X144070238Y-88953390D01*
X182582142Y-102329580D02*
X182534523Y-102377200D01*
X182534523Y-102377200D02*
X182391666Y-102424819D01*
X182391666Y-102424819D02*
X182296428Y-102424819D01*
X182296428Y-102424819D02*
X182153571Y-102377200D01*
X182153571Y-102377200D02*
X182058333Y-102281961D01*
X182058333Y-102281961D02*
X182010714Y-102186723D01*
X182010714Y-102186723D02*
X181963095Y-101996247D01*
X181963095Y-101996247D02*
X181963095Y-101853390D01*
X181963095Y-101853390D02*
X182010714Y-101662914D01*
X182010714Y-101662914D02*
X182058333Y-101567676D01*
X182058333Y-101567676D02*
X182153571Y-101472438D01*
X182153571Y-101472438D02*
X182296428Y-101424819D01*
X182296428Y-101424819D02*
X182391666Y-101424819D01*
X182391666Y-101424819D02*
X182534523Y-101472438D01*
X182534523Y-101472438D02*
X182582142Y-101520057D01*
X183534523Y-102424819D02*
X182963095Y-102424819D01*
X183248809Y-102424819D02*
X183248809Y-101424819D01*
X183248809Y-101424819D02*
X183153571Y-101567676D01*
X183153571Y-101567676D02*
X183058333Y-101662914D01*
X183058333Y-101662914D02*
X182963095Y-101710533D01*
X184439285Y-101424819D02*
X183963095Y-101424819D01*
X183963095Y-101424819D02*
X183915476Y-101901009D01*
X183915476Y-101901009D02*
X183963095Y-101853390D01*
X183963095Y-101853390D02*
X184058333Y-101805771D01*
X184058333Y-101805771D02*
X184296428Y-101805771D01*
X184296428Y-101805771D02*
X184391666Y-101853390D01*
X184391666Y-101853390D02*
X184439285Y-101901009D01*
X184439285Y-101901009D02*
X184486904Y-101996247D01*
X184486904Y-101996247D02*
X184486904Y-102234342D01*
X184486904Y-102234342D02*
X184439285Y-102329580D01*
X184439285Y-102329580D02*
X184391666Y-102377200D01*
X184391666Y-102377200D02*
X184296428Y-102424819D01*
X184296428Y-102424819D02*
X184058333Y-102424819D01*
X184058333Y-102424819D02*
X183963095Y-102377200D01*
X183963095Y-102377200D02*
X183915476Y-102329580D01*
X176539580Y-60741666D02*
X176587200Y-60789285D01*
X176587200Y-60789285D02*
X176634819Y-60932142D01*
X176634819Y-60932142D02*
X176634819Y-61027380D01*
X176634819Y-61027380D02*
X176587200Y-61170237D01*
X176587200Y-61170237D02*
X176491961Y-61265475D01*
X176491961Y-61265475D02*
X176396723Y-61313094D01*
X176396723Y-61313094D02*
X176206247Y-61360713D01*
X176206247Y-61360713D02*
X176063390Y-61360713D01*
X176063390Y-61360713D02*
X175872914Y-61313094D01*
X175872914Y-61313094D02*
X175777676Y-61265475D01*
X175777676Y-61265475D02*
X175682438Y-61170237D01*
X175682438Y-61170237D02*
X175634819Y-61027380D01*
X175634819Y-61027380D02*
X175634819Y-60932142D01*
X175634819Y-60932142D02*
X175682438Y-60789285D01*
X175682438Y-60789285D02*
X175730057Y-60741666D01*
X175634819Y-59884523D02*
X175634819Y-60074999D01*
X175634819Y-60074999D02*
X175682438Y-60170237D01*
X175682438Y-60170237D02*
X175730057Y-60217856D01*
X175730057Y-60217856D02*
X175872914Y-60313094D01*
X175872914Y-60313094D02*
X176063390Y-60360713D01*
X176063390Y-60360713D02*
X176444342Y-60360713D01*
X176444342Y-60360713D02*
X176539580Y-60313094D01*
X176539580Y-60313094D02*
X176587200Y-60265475D01*
X176587200Y-60265475D02*
X176634819Y-60170237D01*
X176634819Y-60170237D02*
X176634819Y-59979761D01*
X176634819Y-59979761D02*
X176587200Y-59884523D01*
X176587200Y-59884523D02*
X176539580Y-59836904D01*
X176539580Y-59836904D02*
X176444342Y-59789285D01*
X176444342Y-59789285D02*
X176206247Y-59789285D01*
X176206247Y-59789285D02*
X176111009Y-59836904D01*
X176111009Y-59836904D02*
X176063390Y-59884523D01*
X176063390Y-59884523D02*
X176015771Y-59979761D01*
X176015771Y-59979761D02*
X176015771Y-60170237D01*
X176015771Y-60170237D02*
X176063390Y-60265475D01*
X176063390Y-60265475D02*
X176111009Y-60313094D01*
X176111009Y-60313094D02*
X176206247Y-60360713D01*
X179888905Y-106891876D02*
X180102238Y-107531876D01*
X180102238Y-107531876D02*
X180315572Y-106891876D01*
X180894619Y-107531876D02*
X180681285Y-107227114D01*
X180528904Y-107531876D02*
X180528904Y-106891876D01*
X180528904Y-106891876D02*
X180772714Y-106891876D01*
X180772714Y-106891876D02*
X180833666Y-106922352D01*
X180833666Y-106922352D02*
X180864143Y-106952828D01*
X180864143Y-106952828D02*
X180894619Y-107013780D01*
X180894619Y-107013780D02*
X180894619Y-107105209D01*
X180894619Y-107105209D02*
X180864143Y-107166161D01*
X180864143Y-107166161D02*
X180833666Y-107196638D01*
X180833666Y-107196638D02*
X180772714Y-107227114D01*
X180772714Y-107227114D02*
X180528904Y-107227114D01*
X181504143Y-107531876D02*
X181138428Y-107531876D01*
X181321285Y-107531876D02*
X181321285Y-106891876D01*
X181321285Y-106891876D02*
X181260333Y-106983304D01*
X181260333Y-106983304D02*
X181199381Y-107044257D01*
X181199381Y-107044257D02*
X181138428Y-107074733D01*
X172414580Y-110366666D02*
X172462200Y-110414285D01*
X172462200Y-110414285D02*
X172509819Y-110557142D01*
X172509819Y-110557142D02*
X172509819Y-110652380D01*
X172509819Y-110652380D02*
X172462200Y-110795237D01*
X172462200Y-110795237D02*
X172366961Y-110890475D01*
X172366961Y-110890475D02*
X172271723Y-110938094D01*
X172271723Y-110938094D02*
X172081247Y-110985713D01*
X172081247Y-110985713D02*
X171938390Y-110985713D01*
X171938390Y-110985713D02*
X171747914Y-110938094D01*
X171747914Y-110938094D02*
X171652676Y-110890475D01*
X171652676Y-110890475D02*
X171557438Y-110795237D01*
X171557438Y-110795237D02*
X171509819Y-110652380D01*
X171509819Y-110652380D02*
X171509819Y-110557142D01*
X171509819Y-110557142D02*
X171557438Y-110414285D01*
X171557438Y-110414285D02*
X171605057Y-110366666D01*
X171509819Y-110033332D02*
X171509819Y-109414285D01*
X171509819Y-109414285D02*
X171890771Y-109747618D01*
X171890771Y-109747618D02*
X171890771Y-109604761D01*
X171890771Y-109604761D02*
X171938390Y-109509523D01*
X171938390Y-109509523D02*
X171986009Y-109461904D01*
X171986009Y-109461904D02*
X172081247Y-109414285D01*
X172081247Y-109414285D02*
X172319342Y-109414285D01*
X172319342Y-109414285D02*
X172414580Y-109461904D01*
X172414580Y-109461904D02*
X172462200Y-109509523D01*
X172462200Y-109509523D02*
X172509819Y-109604761D01*
X172509819Y-109604761D02*
X172509819Y-109890475D01*
X172509819Y-109890475D02*
X172462200Y-109985713D01*
X172462200Y-109985713D02*
X172414580Y-110033332D01*
X137696666Y-97729819D02*
X137696666Y-98444104D01*
X137696666Y-98444104D02*
X137649047Y-98586961D01*
X137649047Y-98586961D02*
X137553809Y-98682200D01*
X137553809Y-98682200D02*
X137410952Y-98729819D01*
X137410952Y-98729819D02*
X137315714Y-98729819D01*
X138601428Y-98063152D02*
X138601428Y-98729819D01*
X138363333Y-97682200D02*
X138125238Y-98396485D01*
X138125238Y-98396485D02*
X138744285Y-98396485D01*
X146235560Y-140406028D02*
X146235560Y-141120820D01*
X146235560Y-141120820D02*
X146187908Y-141263779D01*
X146187908Y-141263779D02*
X146092602Y-141359085D01*
X146092602Y-141359085D02*
X145949644Y-141406737D01*
X145949644Y-141406737D02*
X145854338Y-141406737D01*
X146664436Y-140501334D02*
X146712089Y-140453681D01*
X146712089Y-140453681D02*
X146807394Y-140406028D01*
X146807394Y-140406028D02*
X147045658Y-140406028D01*
X147045658Y-140406028D02*
X147140964Y-140453681D01*
X147140964Y-140453681D02*
X147188617Y-140501334D01*
X147188617Y-140501334D02*
X147236269Y-140596640D01*
X147236269Y-140596640D02*
X147236269Y-140691945D01*
X147236269Y-140691945D02*
X147188617Y-140834904D01*
X147188617Y-140834904D02*
X146616783Y-141406737D01*
X146616783Y-141406737D02*
X147236269Y-141406737D01*
D13*
X182316017Y-83516714D02*
X182704588Y-83516714D01*
X182704588Y-83516714D02*
X182750302Y-83493857D01*
X182750302Y-83493857D02*
X182773160Y-83471000D01*
X182773160Y-83471000D02*
X182796017Y-83425285D01*
X182796017Y-83425285D02*
X182796017Y-83333857D01*
X182796017Y-83333857D02*
X182773160Y-83288142D01*
X182773160Y-83288142D02*
X182750302Y-83265285D01*
X182750302Y-83265285D02*
X182704588Y-83242428D01*
X182704588Y-83242428D02*
X182316017Y-83242428D01*
X182316017Y-83059571D02*
X182316017Y-82762428D01*
X182316017Y-82762428D02*
X182498874Y-82922428D01*
X182498874Y-82922428D02*
X182498874Y-82853857D01*
X182498874Y-82853857D02*
X182521731Y-82808143D01*
X182521731Y-82808143D02*
X182544588Y-82785285D01*
X182544588Y-82785285D02*
X182590302Y-82762428D01*
X182590302Y-82762428D02*
X182704588Y-82762428D01*
X182704588Y-82762428D02*
X182750302Y-82785285D01*
X182750302Y-82785285D02*
X182773160Y-82808143D01*
X182773160Y-82808143D02*
X182796017Y-82853857D01*
X182796017Y-82853857D02*
X182796017Y-82991000D01*
X182796017Y-82991000D02*
X182773160Y-83036714D01*
X182773160Y-83036714D02*
X182750302Y-83059571D01*
D10*
X110883333Y-105589580D02*
X110835714Y-105637200D01*
X110835714Y-105637200D02*
X110692857Y-105684819D01*
X110692857Y-105684819D02*
X110597619Y-105684819D01*
X110597619Y-105684819D02*
X110454762Y-105637200D01*
X110454762Y-105637200D02*
X110359524Y-105541961D01*
X110359524Y-105541961D02*
X110311905Y-105446723D01*
X110311905Y-105446723D02*
X110264286Y-105256247D01*
X110264286Y-105256247D02*
X110264286Y-105113390D01*
X110264286Y-105113390D02*
X110311905Y-104922914D01*
X110311905Y-104922914D02*
X110359524Y-104827676D01*
X110359524Y-104827676D02*
X110454762Y-104732438D01*
X110454762Y-104732438D02*
X110597619Y-104684819D01*
X110597619Y-104684819D02*
X110692857Y-104684819D01*
X110692857Y-104684819D02*
X110835714Y-104732438D01*
X110835714Y-104732438D02*
X110883333Y-104780057D01*
X111835714Y-105684819D02*
X111264286Y-105684819D01*
X111550000Y-105684819D02*
X111550000Y-104684819D01*
X111550000Y-104684819D02*
X111454762Y-104827676D01*
X111454762Y-104827676D02*
X111359524Y-104922914D01*
X111359524Y-104922914D02*
X111264286Y-104970533D01*
X110784095Y-106579819D02*
X110784095Y-107389342D01*
X110784095Y-107389342D02*
X110831714Y-107484580D01*
X110831714Y-107484580D02*
X110879333Y-107532200D01*
X110879333Y-107532200D02*
X110974571Y-107579819D01*
X110974571Y-107579819D02*
X111165047Y-107579819D01*
X111165047Y-107579819D02*
X111260285Y-107532200D01*
X111260285Y-107532200D02*
X111307904Y-107484580D01*
X111307904Y-107484580D02*
X111355523Y-107389342D01*
X111355523Y-107389342D02*
X111355523Y-106579819D01*
X112260285Y-106913152D02*
X112260285Y-107579819D01*
X112022190Y-106532200D02*
X111784095Y-107246485D01*
X111784095Y-107246485D02*
X112403142Y-107246485D01*
X129684065Y-95429925D02*
X130321486Y-95429925D01*
X130321486Y-95429925D02*
X130396476Y-95392430D01*
X130396476Y-95392430D02*
X130433972Y-95354934D01*
X130433972Y-95354934D02*
X130471467Y-95279944D01*
X130471467Y-95279944D02*
X130471467Y-95129962D01*
X130471467Y-95129962D02*
X130433972Y-95054972D01*
X130433972Y-95054972D02*
X130396476Y-95017476D01*
X130396476Y-95017476D02*
X130321486Y-94979981D01*
X130321486Y-94979981D02*
X129684065Y-94979981D01*
X130471467Y-94192579D02*
X130471467Y-94642523D01*
X130471467Y-94417551D02*
X129684065Y-94417551D01*
X129684065Y-94417551D02*
X129796551Y-94492542D01*
X129796551Y-94492542D02*
X129871542Y-94567533D01*
X129871542Y-94567533D02*
X129909037Y-94642523D01*
X126712200Y-82685475D02*
X126759819Y-82542618D01*
X126759819Y-82542618D02*
X126759819Y-82304523D01*
X126759819Y-82304523D02*
X126712200Y-82209285D01*
X126712200Y-82209285D02*
X126664580Y-82161666D01*
X126664580Y-82161666D02*
X126569342Y-82114047D01*
X126569342Y-82114047D02*
X126474104Y-82114047D01*
X126474104Y-82114047D02*
X126378866Y-82161666D01*
X126378866Y-82161666D02*
X126331247Y-82209285D01*
X126331247Y-82209285D02*
X126283628Y-82304523D01*
X126283628Y-82304523D02*
X126236009Y-82494999D01*
X126236009Y-82494999D02*
X126188390Y-82590237D01*
X126188390Y-82590237D02*
X126140771Y-82637856D01*
X126140771Y-82637856D02*
X126045533Y-82685475D01*
X126045533Y-82685475D02*
X125950295Y-82685475D01*
X125950295Y-82685475D02*
X125855057Y-82637856D01*
X125855057Y-82637856D02*
X125807438Y-82590237D01*
X125807438Y-82590237D02*
X125759819Y-82494999D01*
X125759819Y-82494999D02*
X125759819Y-82256904D01*
X125759819Y-82256904D02*
X125807438Y-82114047D01*
X126664580Y-81114047D02*
X126712200Y-81161666D01*
X126712200Y-81161666D02*
X126759819Y-81304523D01*
X126759819Y-81304523D02*
X126759819Y-81399761D01*
X126759819Y-81399761D02*
X126712200Y-81542618D01*
X126712200Y-81542618D02*
X126616961Y-81637856D01*
X126616961Y-81637856D02*
X126521723Y-81685475D01*
X126521723Y-81685475D02*
X126331247Y-81733094D01*
X126331247Y-81733094D02*
X126188390Y-81733094D01*
X126188390Y-81733094D02*
X125997914Y-81685475D01*
X125997914Y-81685475D02*
X125902676Y-81637856D01*
X125902676Y-81637856D02*
X125807438Y-81542618D01*
X125807438Y-81542618D02*
X125759819Y-81399761D01*
X125759819Y-81399761D02*
X125759819Y-81304523D01*
X125759819Y-81304523D02*
X125807438Y-81161666D01*
X125807438Y-81161666D02*
X125855057Y-81114047D01*
X126759819Y-80209285D02*
X126759819Y-80685475D01*
X126759819Y-80685475D02*
X125759819Y-80685475D01*
X126664580Y-74041666D02*
X126712200Y-74089285D01*
X126712200Y-74089285D02*
X126759819Y-74232142D01*
X126759819Y-74232142D02*
X126759819Y-74327380D01*
X126759819Y-74327380D02*
X126712200Y-74470237D01*
X126712200Y-74470237D02*
X126616961Y-74565475D01*
X126616961Y-74565475D02*
X126521723Y-74613094D01*
X126521723Y-74613094D02*
X126331247Y-74660713D01*
X126331247Y-74660713D02*
X126188390Y-74660713D01*
X126188390Y-74660713D02*
X125997914Y-74613094D01*
X125997914Y-74613094D02*
X125902676Y-74565475D01*
X125902676Y-74565475D02*
X125807438Y-74470237D01*
X125807438Y-74470237D02*
X125759819Y-74327380D01*
X125759819Y-74327380D02*
X125759819Y-74232142D01*
X125759819Y-74232142D02*
X125807438Y-74089285D01*
X125807438Y-74089285D02*
X125855057Y-74041666D01*
X126712200Y-73660713D02*
X126759819Y-73517856D01*
X126759819Y-73517856D02*
X126759819Y-73279761D01*
X126759819Y-73279761D02*
X126712200Y-73184523D01*
X126712200Y-73184523D02*
X126664580Y-73136904D01*
X126664580Y-73136904D02*
X126569342Y-73089285D01*
X126569342Y-73089285D02*
X126474104Y-73089285D01*
X126474104Y-73089285D02*
X126378866Y-73136904D01*
X126378866Y-73136904D02*
X126331247Y-73184523D01*
X126331247Y-73184523D02*
X126283628Y-73279761D01*
X126283628Y-73279761D02*
X126236009Y-73470237D01*
X126236009Y-73470237D02*
X126188390Y-73565475D01*
X126188390Y-73565475D02*
X126140771Y-73613094D01*
X126140771Y-73613094D02*
X126045533Y-73660713D01*
X126045533Y-73660713D02*
X125950295Y-73660713D01*
X125950295Y-73660713D02*
X125855057Y-73613094D01*
X125855057Y-73613094D02*
X125807438Y-73565475D01*
X125807438Y-73565475D02*
X125759819Y-73470237D01*
X125759819Y-73470237D02*
X125759819Y-73232142D01*
X125759819Y-73232142D02*
X125807438Y-73089285D01*
X126712200Y-80264523D02*
X126759819Y-80121666D01*
X126759819Y-80121666D02*
X126759819Y-79883571D01*
X126759819Y-79883571D02*
X126712200Y-79788333D01*
X126712200Y-79788333D02*
X126664580Y-79740714D01*
X126664580Y-79740714D02*
X126569342Y-79693095D01*
X126569342Y-79693095D02*
X126474104Y-79693095D01*
X126474104Y-79693095D02*
X126378866Y-79740714D01*
X126378866Y-79740714D02*
X126331247Y-79788333D01*
X126331247Y-79788333D02*
X126283628Y-79883571D01*
X126283628Y-79883571D02*
X126236009Y-80074047D01*
X126236009Y-80074047D02*
X126188390Y-80169285D01*
X126188390Y-80169285D02*
X126140771Y-80216904D01*
X126140771Y-80216904D02*
X126045533Y-80264523D01*
X126045533Y-80264523D02*
X125950295Y-80264523D01*
X125950295Y-80264523D02*
X125855057Y-80216904D01*
X125855057Y-80216904D02*
X125807438Y-80169285D01*
X125807438Y-80169285D02*
X125759819Y-80074047D01*
X125759819Y-80074047D02*
X125759819Y-79835952D01*
X125759819Y-79835952D02*
X125807438Y-79693095D01*
X126759819Y-79264523D02*
X125759819Y-79264523D01*
X125759819Y-79264523D02*
X125759819Y-79026428D01*
X125759819Y-79026428D02*
X125807438Y-78883571D01*
X125807438Y-78883571D02*
X125902676Y-78788333D01*
X125902676Y-78788333D02*
X125997914Y-78740714D01*
X125997914Y-78740714D02*
X126188390Y-78693095D01*
X126188390Y-78693095D02*
X126331247Y-78693095D01*
X126331247Y-78693095D02*
X126521723Y-78740714D01*
X126521723Y-78740714D02*
X126616961Y-78788333D01*
X126616961Y-78788333D02*
X126712200Y-78883571D01*
X126712200Y-78883571D02*
X126759819Y-79026428D01*
X126759819Y-79026428D02*
X126759819Y-79264523D01*
X125759819Y-78074047D02*
X125759819Y-77883571D01*
X125759819Y-77883571D02*
X125807438Y-77788333D01*
X125807438Y-77788333D02*
X125902676Y-77693095D01*
X125902676Y-77693095D02*
X126093152Y-77645476D01*
X126093152Y-77645476D02*
X126426485Y-77645476D01*
X126426485Y-77645476D02*
X126616961Y-77693095D01*
X126616961Y-77693095D02*
X126712200Y-77788333D01*
X126712200Y-77788333D02*
X126759819Y-77883571D01*
X126759819Y-77883571D02*
X126759819Y-78074047D01*
X126759819Y-78074047D02*
X126712200Y-78169285D01*
X126712200Y-78169285D02*
X126616961Y-78264523D01*
X126616961Y-78264523D02*
X126426485Y-78312142D01*
X126426485Y-78312142D02*
X126093152Y-78312142D01*
X126093152Y-78312142D02*
X125902676Y-78264523D01*
X125902676Y-78264523D02*
X125807438Y-78169285D01*
X125807438Y-78169285D02*
X125759819Y-78074047D01*
X125759819Y-87813094D02*
X125759819Y-87194047D01*
X125759819Y-87194047D02*
X126140771Y-87527380D01*
X126140771Y-87527380D02*
X126140771Y-87384523D01*
X126140771Y-87384523D02*
X126188390Y-87289285D01*
X126188390Y-87289285D02*
X126236009Y-87241666D01*
X126236009Y-87241666D02*
X126331247Y-87194047D01*
X126331247Y-87194047D02*
X126569342Y-87194047D01*
X126569342Y-87194047D02*
X126664580Y-87241666D01*
X126664580Y-87241666D02*
X126712200Y-87289285D01*
X126712200Y-87289285D02*
X126759819Y-87384523D01*
X126759819Y-87384523D02*
X126759819Y-87670237D01*
X126759819Y-87670237D02*
X126712200Y-87765475D01*
X126712200Y-87765475D02*
X126664580Y-87813094D01*
X125759819Y-86908332D02*
X126759819Y-86574999D01*
X126759819Y-86574999D02*
X125759819Y-86241666D01*
X125759819Y-85717856D02*
X125759819Y-85622618D01*
X125759819Y-85622618D02*
X125807438Y-85527380D01*
X125807438Y-85527380D02*
X125855057Y-85479761D01*
X125855057Y-85479761D02*
X125950295Y-85432142D01*
X125950295Y-85432142D02*
X126140771Y-85384523D01*
X126140771Y-85384523D02*
X126378866Y-85384523D01*
X126378866Y-85384523D02*
X126569342Y-85432142D01*
X126569342Y-85432142D02*
X126664580Y-85479761D01*
X126664580Y-85479761D02*
X126712200Y-85527380D01*
X126712200Y-85527380D02*
X126759819Y-85622618D01*
X126759819Y-85622618D02*
X126759819Y-85717856D01*
X126759819Y-85717856D02*
X126712200Y-85813094D01*
X126712200Y-85813094D02*
X126664580Y-85860713D01*
X126664580Y-85860713D02*
X126569342Y-85908332D01*
X126569342Y-85908332D02*
X126378866Y-85955951D01*
X126378866Y-85955951D02*
X126140771Y-85955951D01*
X126140771Y-85955951D02*
X125950295Y-85908332D01*
X125950295Y-85908332D02*
X125855057Y-85860713D01*
X125855057Y-85860713D02*
X125807438Y-85813094D01*
X125807438Y-85813094D02*
X125759819Y-85717856D01*
X126712200Y-77629285D02*
X126759819Y-77486428D01*
X126759819Y-77486428D02*
X126759819Y-77248333D01*
X126759819Y-77248333D02*
X126712200Y-77153095D01*
X126712200Y-77153095D02*
X126664580Y-77105476D01*
X126664580Y-77105476D02*
X126569342Y-77057857D01*
X126569342Y-77057857D02*
X126474104Y-77057857D01*
X126474104Y-77057857D02*
X126378866Y-77105476D01*
X126378866Y-77105476D02*
X126331247Y-77153095D01*
X126331247Y-77153095D02*
X126283628Y-77248333D01*
X126283628Y-77248333D02*
X126236009Y-77438809D01*
X126236009Y-77438809D02*
X126188390Y-77534047D01*
X126188390Y-77534047D02*
X126140771Y-77581666D01*
X126140771Y-77581666D02*
X126045533Y-77629285D01*
X126045533Y-77629285D02*
X125950295Y-77629285D01*
X125950295Y-77629285D02*
X125855057Y-77581666D01*
X125855057Y-77581666D02*
X125807438Y-77534047D01*
X125807438Y-77534047D02*
X125759819Y-77438809D01*
X125759819Y-77438809D02*
X125759819Y-77200714D01*
X125759819Y-77200714D02*
X125807438Y-77057857D01*
X126759819Y-76629285D02*
X125759819Y-76629285D01*
X125759819Y-76629285D02*
X125759819Y-76391190D01*
X125759819Y-76391190D02*
X125807438Y-76248333D01*
X125807438Y-76248333D02*
X125902676Y-76153095D01*
X125902676Y-76153095D02*
X125997914Y-76105476D01*
X125997914Y-76105476D02*
X126188390Y-76057857D01*
X126188390Y-76057857D02*
X126331247Y-76057857D01*
X126331247Y-76057857D02*
X126521723Y-76105476D01*
X126521723Y-76105476D02*
X126616961Y-76153095D01*
X126616961Y-76153095D02*
X126712200Y-76248333D01*
X126712200Y-76248333D02*
X126759819Y-76391190D01*
X126759819Y-76391190D02*
X126759819Y-76629285D01*
X126474104Y-75676904D02*
X126474104Y-75200714D01*
X126759819Y-75772142D02*
X125759819Y-75438809D01*
X125759819Y-75438809D02*
X126759819Y-75105476D01*
X126759819Y-72239761D02*
X125759819Y-72239761D01*
X126759819Y-71763571D02*
X125759819Y-71763571D01*
X125759819Y-71763571D02*
X126759819Y-71192143D01*
X126759819Y-71192143D02*
X125759819Y-71192143D01*
X125759819Y-70858809D02*
X125759819Y-70287381D01*
X126759819Y-70573095D02*
X125759819Y-70573095D01*
X125807438Y-84796904D02*
X125759819Y-84892142D01*
X125759819Y-84892142D02*
X125759819Y-85034999D01*
X125759819Y-85034999D02*
X125807438Y-85177856D01*
X125807438Y-85177856D02*
X125902676Y-85273094D01*
X125902676Y-85273094D02*
X125997914Y-85320713D01*
X125997914Y-85320713D02*
X126188390Y-85368332D01*
X126188390Y-85368332D02*
X126331247Y-85368332D01*
X126331247Y-85368332D02*
X126521723Y-85320713D01*
X126521723Y-85320713D02*
X126616961Y-85273094D01*
X126616961Y-85273094D02*
X126712200Y-85177856D01*
X126712200Y-85177856D02*
X126759819Y-85034999D01*
X126759819Y-85034999D02*
X126759819Y-84939761D01*
X126759819Y-84939761D02*
X126712200Y-84796904D01*
X126712200Y-84796904D02*
X126664580Y-84749285D01*
X126664580Y-84749285D02*
X126331247Y-84749285D01*
X126331247Y-84749285D02*
X126331247Y-84939761D01*
X126759819Y-84320713D02*
X125759819Y-84320713D01*
X125759819Y-84320713D02*
X126759819Y-83749285D01*
X126759819Y-83749285D02*
X125759819Y-83749285D01*
X126759819Y-83273094D02*
X125759819Y-83273094D01*
X125759819Y-83273094D02*
X125759819Y-83034999D01*
X125759819Y-83034999D02*
X125807438Y-82892142D01*
X125807438Y-82892142D02*
X125902676Y-82796904D01*
X125902676Y-82796904D02*
X125997914Y-82749285D01*
X125997914Y-82749285D02*
X126188390Y-82701666D01*
X126188390Y-82701666D02*
X126331247Y-82701666D01*
X126331247Y-82701666D02*
X126521723Y-82749285D01*
X126521723Y-82749285D02*
X126616961Y-82796904D01*
X126616961Y-82796904D02*
X126712200Y-82892142D01*
X126712200Y-82892142D02*
X126759819Y-83034999D01*
X126759819Y-83034999D02*
X126759819Y-83273094D01*
X125759819Y-90210237D02*
X126759819Y-89876904D01*
X126759819Y-89876904D02*
X125759819Y-89543571D01*
X126759819Y-89210237D02*
X125759819Y-89210237D01*
X126759819Y-88734047D02*
X125759819Y-88734047D01*
X125759819Y-88734047D02*
X126759819Y-88162619D01*
X126759819Y-88162619D02*
X125759819Y-88162619D01*
X116031953Y-90371141D02*
X116113858Y-90125427D01*
X116113858Y-90125427D02*
X116195762Y-90043522D01*
X116195762Y-90043522D02*
X116359572Y-89961618D01*
X116359572Y-89961618D02*
X116605286Y-89961618D01*
X116605286Y-89961618D02*
X116769096Y-90043522D01*
X116769096Y-90043522D02*
X116851001Y-90125427D01*
X116851001Y-90125427D02*
X116932905Y-90289237D01*
X116932905Y-90289237D02*
X116932905Y-90944475D01*
X116932905Y-90944475D02*
X115212905Y-90944475D01*
X115212905Y-90944475D02*
X115212905Y-90371141D01*
X115212905Y-90371141D02*
X115294810Y-90207332D01*
X115294810Y-90207332D02*
X115376715Y-90125427D01*
X115376715Y-90125427D02*
X115540524Y-90043522D01*
X115540524Y-90043522D02*
X115704334Y-90043522D01*
X115704334Y-90043522D02*
X115868143Y-90125427D01*
X115868143Y-90125427D02*
X115950048Y-90207332D01*
X115950048Y-90207332D02*
X116031953Y-90371141D01*
X116031953Y-90371141D02*
X116031953Y-90944475D01*
X116932905Y-89224475D02*
X115212905Y-89224475D01*
X115212905Y-89224475D02*
X116441477Y-88651141D01*
X116441477Y-88651141D02*
X115212905Y-88077808D01*
X115212905Y-88077808D02*
X116932905Y-88077808D01*
X116932905Y-87258761D02*
X115212905Y-87258761D01*
X115212905Y-87258761D02*
X115212905Y-86603523D01*
X115212905Y-86603523D02*
X115294810Y-86439713D01*
X115294810Y-86439713D02*
X115376715Y-86357808D01*
X115376715Y-86357808D02*
X115540524Y-86275904D01*
X115540524Y-86275904D02*
X115786239Y-86275904D01*
X115786239Y-86275904D02*
X115950048Y-86357808D01*
X115950048Y-86357808D02*
X116031953Y-86439713D01*
X116031953Y-86439713D02*
X116113858Y-86603523D01*
X116113858Y-86603523D02*
X116113858Y-87258761D01*
X115212905Y-85702570D02*
X115212905Y-84637808D01*
X115212905Y-84637808D02*
X115868143Y-85211142D01*
X115868143Y-85211142D02*
X115868143Y-84965427D01*
X115868143Y-84965427D02*
X115950048Y-84801618D01*
X115950048Y-84801618D02*
X116031953Y-84719713D01*
X116031953Y-84719713D02*
X116195762Y-84637808D01*
X116195762Y-84637808D02*
X116605286Y-84637808D01*
X116605286Y-84637808D02*
X116769096Y-84719713D01*
X116769096Y-84719713D02*
X116851001Y-84801618D01*
X116851001Y-84801618D02*
X116932905Y-84965427D01*
X116932905Y-84965427D02*
X116932905Y-85456856D01*
X116932905Y-85456856D02*
X116851001Y-85620665D01*
X116851001Y-85620665D02*
X116769096Y-85702570D01*
X116932905Y-83818761D02*
X116932905Y-83491142D01*
X116932905Y-83491142D02*
X116851001Y-83327332D01*
X116851001Y-83327332D02*
X116769096Y-83245428D01*
X116769096Y-83245428D02*
X116523381Y-83081618D01*
X116523381Y-83081618D02*
X116195762Y-82999713D01*
X116195762Y-82999713D02*
X115540524Y-82999713D01*
X115540524Y-82999713D02*
X115376715Y-83081618D01*
X115376715Y-83081618D02*
X115294810Y-83163523D01*
X115294810Y-83163523D02*
X115212905Y-83327332D01*
X115212905Y-83327332D02*
X115212905Y-83654951D01*
X115212905Y-83654951D02*
X115294810Y-83818761D01*
X115294810Y-83818761D02*
X115376715Y-83900666D01*
X115376715Y-83900666D02*
X115540524Y-83982570D01*
X115540524Y-83982570D02*
X115950048Y-83982570D01*
X115950048Y-83982570D02*
X116113858Y-83900666D01*
X116113858Y-83900666D02*
X116195762Y-83818761D01*
X116195762Y-83818761D02*
X116277667Y-83654951D01*
X116277667Y-83654951D02*
X116277667Y-83327332D01*
X116277667Y-83327332D02*
X116195762Y-83163523D01*
X116195762Y-83163523D02*
X116113858Y-83081618D01*
X116113858Y-83081618D02*
X115950048Y-82999713D01*
X115212905Y-81934952D02*
X115212905Y-81771142D01*
X115212905Y-81771142D02*
X115294810Y-81607333D01*
X115294810Y-81607333D02*
X115376715Y-81525428D01*
X115376715Y-81525428D02*
X115540524Y-81443523D01*
X115540524Y-81443523D02*
X115868143Y-81361618D01*
X115868143Y-81361618D02*
X116277667Y-81361618D01*
X116277667Y-81361618D02*
X116605286Y-81443523D01*
X116605286Y-81443523D02*
X116769096Y-81525428D01*
X116769096Y-81525428D02*
X116851001Y-81607333D01*
X116851001Y-81607333D02*
X116932905Y-81771142D01*
X116932905Y-81771142D02*
X116932905Y-81934952D01*
X116932905Y-81934952D02*
X116851001Y-82098761D01*
X116851001Y-82098761D02*
X116769096Y-82180666D01*
X116769096Y-82180666D02*
X116605286Y-82262571D01*
X116605286Y-82262571D02*
X116277667Y-82344475D01*
X116277667Y-82344475D02*
X115868143Y-82344475D01*
X115868143Y-82344475D02*
X115540524Y-82262571D01*
X115540524Y-82262571D02*
X115376715Y-82180666D01*
X115376715Y-82180666D02*
X115294810Y-82098761D01*
X115294810Y-82098761D02*
X115212905Y-81934952D01*
X144243333Y-115872080D02*
X144195714Y-115919700D01*
X144195714Y-115919700D02*
X144052857Y-115967319D01*
X144052857Y-115967319D02*
X143957619Y-115967319D01*
X143957619Y-115967319D02*
X143814762Y-115919700D01*
X143814762Y-115919700D02*
X143719524Y-115824461D01*
X143719524Y-115824461D02*
X143671905Y-115729223D01*
X143671905Y-115729223D02*
X143624286Y-115538747D01*
X143624286Y-115538747D02*
X143624286Y-115395890D01*
X143624286Y-115395890D02*
X143671905Y-115205414D01*
X143671905Y-115205414D02*
X143719524Y-115110176D01*
X143719524Y-115110176D02*
X143814762Y-115014938D01*
X143814762Y-115014938D02*
X143957619Y-114967319D01*
X143957619Y-114967319D02*
X144052857Y-114967319D01*
X144052857Y-114967319D02*
X144195714Y-115014938D01*
X144195714Y-115014938D02*
X144243333Y-115062557D01*
X144624286Y-115062557D02*
X144671905Y-115014938D01*
X144671905Y-115014938D02*
X144767143Y-114967319D01*
X144767143Y-114967319D02*
X145005238Y-114967319D01*
X145005238Y-114967319D02*
X145100476Y-115014938D01*
X145100476Y-115014938D02*
X145148095Y-115062557D01*
X145148095Y-115062557D02*
X145195714Y-115157795D01*
X145195714Y-115157795D02*
X145195714Y-115253033D01*
X145195714Y-115253033D02*
X145148095Y-115395890D01*
X145148095Y-115395890D02*
X144576667Y-115967319D01*
X144576667Y-115967319D02*
X145195714Y-115967319D01*
X137357142Y-88979580D02*
X137309523Y-89027200D01*
X137309523Y-89027200D02*
X137166666Y-89074819D01*
X137166666Y-89074819D02*
X137071428Y-89074819D01*
X137071428Y-89074819D02*
X136928571Y-89027200D01*
X136928571Y-89027200D02*
X136833333Y-88931961D01*
X136833333Y-88931961D02*
X136785714Y-88836723D01*
X136785714Y-88836723D02*
X136738095Y-88646247D01*
X136738095Y-88646247D02*
X136738095Y-88503390D01*
X136738095Y-88503390D02*
X136785714Y-88312914D01*
X136785714Y-88312914D02*
X136833333Y-88217676D01*
X136833333Y-88217676D02*
X136928571Y-88122438D01*
X136928571Y-88122438D02*
X137071428Y-88074819D01*
X137071428Y-88074819D02*
X137166666Y-88074819D01*
X137166666Y-88074819D02*
X137309523Y-88122438D01*
X137309523Y-88122438D02*
X137357142Y-88170057D01*
X138309523Y-89074819D02*
X137738095Y-89074819D01*
X138023809Y-89074819D02*
X138023809Y-88074819D01*
X138023809Y-88074819D02*
X137928571Y-88217676D01*
X137928571Y-88217676D02*
X137833333Y-88312914D01*
X137833333Y-88312914D02*
X137738095Y-88360533D01*
X138642857Y-88074819D02*
X139261904Y-88074819D01*
X139261904Y-88074819D02*
X138928571Y-88455771D01*
X138928571Y-88455771D02*
X139071428Y-88455771D01*
X139071428Y-88455771D02*
X139166666Y-88503390D01*
X139166666Y-88503390D02*
X139214285Y-88551009D01*
X139214285Y-88551009D02*
X139261904Y-88646247D01*
X139261904Y-88646247D02*
X139261904Y-88884342D01*
X139261904Y-88884342D02*
X139214285Y-88979580D01*
X139214285Y-88979580D02*
X139166666Y-89027200D01*
X139166666Y-89027200D02*
X139071428Y-89074819D01*
X139071428Y-89074819D02*
X138785714Y-89074819D01*
X138785714Y-89074819D02*
X138690476Y-89027200D01*
X138690476Y-89027200D02*
X138642857Y-88979580D01*
X153354580Y-141616666D02*
X153402200Y-141664285D01*
X153402200Y-141664285D02*
X153449819Y-141807142D01*
X153449819Y-141807142D02*
X153449819Y-141902380D01*
X153449819Y-141902380D02*
X153402200Y-142045237D01*
X153402200Y-142045237D02*
X153306961Y-142140475D01*
X153306961Y-142140475D02*
X153211723Y-142188094D01*
X153211723Y-142188094D02*
X153021247Y-142235713D01*
X153021247Y-142235713D02*
X152878390Y-142235713D01*
X152878390Y-142235713D02*
X152687914Y-142188094D01*
X152687914Y-142188094D02*
X152592676Y-142140475D01*
X152592676Y-142140475D02*
X152497438Y-142045237D01*
X152497438Y-142045237D02*
X152449819Y-141902380D01*
X152449819Y-141902380D02*
X152449819Y-141807142D01*
X152449819Y-141807142D02*
X152497438Y-141664285D01*
X152497438Y-141664285D02*
X152545057Y-141616666D01*
X152449819Y-140711904D02*
X152449819Y-141188094D01*
X152449819Y-141188094D02*
X152926009Y-141235713D01*
X152926009Y-141235713D02*
X152878390Y-141188094D01*
X152878390Y-141188094D02*
X152830771Y-141092856D01*
X152830771Y-141092856D02*
X152830771Y-140854761D01*
X152830771Y-140854761D02*
X152878390Y-140759523D01*
X152878390Y-140759523D02*
X152926009Y-140711904D01*
X152926009Y-140711904D02*
X153021247Y-140664285D01*
X153021247Y-140664285D02*
X153259342Y-140664285D01*
X153259342Y-140664285D02*
X153354580Y-140711904D01*
X153354580Y-140711904D02*
X153402200Y-140759523D01*
X153402200Y-140759523D02*
X153449819Y-140854761D01*
X153449819Y-140854761D02*
X153449819Y-141092856D01*
X153449819Y-141092856D02*
X153402200Y-141188094D01*
X153402200Y-141188094D02*
X153354580Y-141235713D01*
X149599819Y-102086904D02*
X150409342Y-102086904D01*
X150409342Y-102086904D02*
X150504580Y-102039285D01*
X150504580Y-102039285D02*
X150552200Y-101991666D01*
X150552200Y-101991666D02*
X150599819Y-101896428D01*
X150599819Y-101896428D02*
X150599819Y-101705952D01*
X150599819Y-101705952D02*
X150552200Y-101610714D01*
X150552200Y-101610714D02*
X150504580Y-101563095D01*
X150504580Y-101563095D02*
X150409342Y-101515476D01*
X150409342Y-101515476D02*
X149599819Y-101515476D01*
X149695057Y-101086904D02*
X149647438Y-101039285D01*
X149647438Y-101039285D02*
X149599819Y-100944047D01*
X149599819Y-100944047D02*
X149599819Y-100705952D01*
X149599819Y-100705952D02*
X149647438Y-100610714D01*
X149647438Y-100610714D02*
X149695057Y-100563095D01*
X149695057Y-100563095D02*
X149790295Y-100515476D01*
X149790295Y-100515476D02*
X149885533Y-100515476D01*
X149885533Y-100515476D02*
X150028390Y-100563095D01*
X150028390Y-100563095D02*
X150599819Y-101134523D01*
X150599819Y-101134523D02*
X150599819Y-100515476D01*
X144359380Y-134904376D02*
X144359380Y-135422471D01*
X144359380Y-135422471D02*
X144389857Y-135483423D01*
X144389857Y-135483423D02*
X144420333Y-135513900D01*
X144420333Y-135513900D02*
X144481285Y-135544376D01*
X144481285Y-135544376D02*
X144603190Y-135544376D01*
X144603190Y-135544376D02*
X144664142Y-135513900D01*
X144664142Y-135513900D02*
X144694619Y-135483423D01*
X144694619Y-135483423D02*
X144725095Y-135422471D01*
X144725095Y-135422471D02*
X144725095Y-134904376D01*
X145304142Y-134904376D02*
X145182237Y-134904376D01*
X145182237Y-134904376D02*
X145121285Y-134934852D01*
X145121285Y-134934852D02*
X145090809Y-134965328D01*
X145090809Y-134965328D02*
X145029856Y-135056757D01*
X145029856Y-135056757D02*
X144999380Y-135178661D01*
X144999380Y-135178661D02*
X144999380Y-135422471D01*
X144999380Y-135422471D02*
X145029856Y-135483423D01*
X145029856Y-135483423D02*
X145060333Y-135513900D01*
X145060333Y-135513900D02*
X145121285Y-135544376D01*
X145121285Y-135544376D02*
X145243190Y-135544376D01*
X145243190Y-135544376D02*
X145304142Y-135513900D01*
X145304142Y-135513900D02*
X145334618Y-135483423D01*
X145334618Y-135483423D02*
X145365095Y-135422471D01*
X145365095Y-135422471D02*
X145365095Y-135270090D01*
X145365095Y-135270090D02*
X145334618Y-135209138D01*
X145334618Y-135209138D02*
X145304142Y-135178661D01*
X145304142Y-135178661D02*
X145243190Y-135148185D01*
X145243190Y-135148185D02*
X145121285Y-135148185D01*
X145121285Y-135148185D02*
X145060333Y-135178661D01*
X145060333Y-135178661D02*
X145029856Y-135209138D01*
X145029856Y-135209138D02*
X144999380Y-135270090D01*
X150099819Y-63591666D02*
X149623628Y-63924999D01*
X150099819Y-64163094D02*
X149099819Y-64163094D01*
X149099819Y-64163094D02*
X149099819Y-63782142D01*
X149099819Y-63782142D02*
X149147438Y-63686904D01*
X149147438Y-63686904D02*
X149195057Y-63639285D01*
X149195057Y-63639285D02*
X149290295Y-63591666D01*
X149290295Y-63591666D02*
X149433152Y-63591666D01*
X149433152Y-63591666D02*
X149528390Y-63639285D01*
X149528390Y-63639285D02*
X149576009Y-63686904D01*
X149576009Y-63686904D02*
X149623628Y-63782142D01*
X149623628Y-63782142D02*
X149623628Y-64163094D01*
X149099819Y-62734523D02*
X149099819Y-62924999D01*
X149099819Y-62924999D02*
X149147438Y-63020237D01*
X149147438Y-63020237D02*
X149195057Y-63067856D01*
X149195057Y-63067856D02*
X149337914Y-63163094D01*
X149337914Y-63163094D02*
X149528390Y-63210713D01*
X149528390Y-63210713D02*
X149909342Y-63210713D01*
X149909342Y-63210713D02*
X150004580Y-63163094D01*
X150004580Y-63163094D02*
X150052200Y-63115475D01*
X150052200Y-63115475D02*
X150099819Y-63020237D01*
X150099819Y-63020237D02*
X150099819Y-62829761D01*
X150099819Y-62829761D02*
X150052200Y-62734523D01*
X150052200Y-62734523D02*
X150004580Y-62686904D01*
X150004580Y-62686904D02*
X149909342Y-62639285D01*
X149909342Y-62639285D02*
X149671247Y-62639285D01*
X149671247Y-62639285D02*
X149576009Y-62686904D01*
X149576009Y-62686904D02*
X149528390Y-62734523D01*
X149528390Y-62734523D02*
X149480771Y-62829761D01*
X149480771Y-62829761D02*
X149480771Y-63020237D01*
X149480771Y-63020237D02*
X149528390Y-63115475D01*
X149528390Y-63115475D02*
X149576009Y-63163094D01*
X149576009Y-63163094D02*
X149671247Y-63210713D01*
X192839580Y-83267857D02*
X192887200Y-83315476D01*
X192887200Y-83315476D02*
X192934819Y-83458333D01*
X192934819Y-83458333D02*
X192934819Y-83553571D01*
X192934819Y-83553571D02*
X192887200Y-83696428D01*
X192887200Y-83696428D02*
X192791961Y-83791666D01*
X192791961Y-83791666D02*
X192696723Y-83839285D01*
X192696723Y-83839285D02*
X192506247Y-83886904D01*
X192506247Y-83886904D02*
X192363390Y-83886904D01*
X192363390Y-83886904D02*
X192172914Y-83839285D01*
X192172914Y-83839285D02*
X192077676Y-83791666D01*
X192077676Y-83791666D02*
X191982438Y-83696428D01*
X191982438Y-83696428D02*
X191934819Y-83553571D01*
X191934819Y-83553571D02*
X191934819Y-83458333D01*
X191934819Y-83458333D02*
X191982438Y-83315476D01*
X191982438Y-83315476D02*
X192030057Y-83267857D01*
X192934819Y-82315476D02*
X192934819Y-82886904D01*
X192934819Y-82601190D02*
X191934819Y-82601190D01*
X191934819Y-82601190D02*
X192077676Y-82696428D01*
X192077676Y-82696428D02*
X192172914Y-82791666D01*
X192172914Y-82791666D02*
X192220533Y-82886904D01*
X192268152Y-81458333D02*
X192934819Y-81458333D01*
X191887200Y-81696428D02*
X192601485Y-81934523D01*
X192601485Y-81934523D02*
X192601485Y-81315476D01*
X147342261Y-63850057D02*
X147247023Y-63802438D01*
X147247023Y-63802438D02*
X147151785Y-63707200D01*
X147151785Y-63707200D02*
X147008928Y-63564342D01*
X147008928Y-63564342D02*
X146913690Y-63516723D01*
X146913690Y-63516723D02*
X146818452Y-63516723D01*
X146866071Y-63754819D02*
X146770833Y-63707200D01*
X146770833Y-63707200D02*
X146675595Y-63611961D01*
X146675595Y-63611961D02*
X146627976Y-63421485D01*
X146627976Y-63421485D02*
X146627976Y-63088152D01*
X146627976Y-63088152D02*
X146675595Y-62897676D01*
X146675595Y-62897676D02*
X146770833Y-62802438D01*
X146770833Y-62802438D02*
X146866071Y-62754819D01*
X146866071Y-62754819D02*
X147056547Y-62754819D01*
X147056547Y-62754819D02*
X147151785Y-62802438D01*
X147151785Y-62802438D02*
X147247023Y-62897676D01*
X147247023Y-62897676D02*
X147294642Y-63088152D01*
X147294642Y-63088152D02*
X147294642Y-63421485D01*
X147294642Y-63421485D02*
X147247023Y-63611961D01*
X147247023Y-63611961D02*
X147151785Y-63707200D01*
X147151785Y-63707200D02*
X147056547Y-63754819D01*
X147056547Y-63754819D02*
X146866071Y-63754819D01*
X148247023Y-63754819D02*
X147675595Y-63754819D01*
X147961309Y-63754819D02*
X147961309Y-62754819D01*
X147961309Y-62754819D02*
X147866071Y-62897676D01*
X147866071Y-62897676D02*
X147770833Y-62992914D01*
X147770833Y-62992914D02*
X147675595Y-63040533D01*
X120282142Y-99629580D02*
X120234523Y-99677200D01*
X120234523Y-99677200D02*
X120091666Y-99724819D01*
X120091666Y-99724819D02*
X119996428Y-99724819D01*
X119996428Y-99724819D02*
X119853571Y-99677200D01*
X119853571Y-99677200D02*
X119758333Y-99581961D01*
X119758333Y-99581961D02*
X119710714Y-99486723D01*
X119710714Y-99486723D02*
X119663095Y-99296247D01*
X119663095Y-99296247D02*
X119663095Y-99153390D01*
X119663095Y-99153390D02*
X119710714Y-98962914D01*
X119710714Y-98962914D02*
X119758333Y-98867676D01*
X119758333Y-98867676D02*
X119853571Y-98772438D01*
X119853571Y-98772438D02*
X119996428Y-98724819D01*
X119996428Y-98724819D02*
X120091666Y-98724819D01*
X120091666Y-98724819D02*
X120234523Y-98772438D01*
X120234523Y-98772438D02*
X120282142Y-98820057D01*
X121234523Y-99724819D02*
X120663095Y-99724819D01*
X120948809Y-99724819D02*
X120948809Y-98724819D01*
X120948809Y-98724819D02*
X120853571Y-98867676D01*
X120853571Y-98867676D02*
X120758333Y-98962914D01*
X120758333Y-98962914D02*
X120663095Y-99010533D01*
X121615476Y-98820057D02*
X121663095Y-98772438D01*
X121663095Y-98772438D02*
X121758333Y-98724819D01*
X121758333Y-98724819D02*
X121996428Y-98724819D01*
X121996428Y-98724819D02*
X122091666Y-98772438D01*
X122091666Y-98772438D02*
X122139285Y-98820057D01*
X122139285Y-98820057D02*
X122186904Y-98915295D01*
X122186904Y-98915295D02*
X122186904Y-99010533D01*
X122186904Y-99010533D02*
X122139285Y-99153390D01*
X122139285Y-99153390D02*
X121567857Y-99724819D01*
X121567857Y-99724819D02*
X122186904Y-99724819D01*
X179782142Y-117054580D02*
X179734523Y-117102200D01*
X179734523Y-117102200D02*
X179591666Y-117149819D01*
X179591666Y-117149819D02*
X179496428Y-117149819D01*
X179496428Y-117149819D02*
X179353571Y-117102200D01*
X179353571Y-117102200D02*
X179258333Y-117006961D01*
X179258333Y-117006961D02*
X179210714Y-116911723D01*
X179210714Y-116911723D02*
X179163095Y-116721247D01*
X179163095Y-116721247D02*
X179163095Y-116578390D01*
X179163095Y-116578390D02*
X179210714Y-116387914D01*
X179210714Y-116387914D02*
X179258333Y-116292676D01*
X179258333Y-116292676D02*
X179353571Y-116197438D01*
X179353571Y-116197438D02*
X179496428Y-116149819D01*
X179496428Y-116149819D02*
X179591666Y-116149819D01*
X179591666Y-116149819D02*
X179734523Y-116197438D01*
X179734523Y-116197438D02*
X179782142Y-116245057D01*
X180734523Y-117149819D02*
X180163095Y-117149819D01*
X180448809Y-117149819D02*
X180448809Y-116149819D01*
X180448809Y-116149819D02*
X180353571Y-116292676D01*
X180353571Y-116292676D02*
X180258333Y-116387914D01*
X180258333Y-116387914D02*
X180163095Y-116435533D01*
X181591666Y-116149819D02*
X181401190Y-116149819D01*
X181401190Y-116149819D02*
X181305952Y-116197438D01*
X181305952Y-116197438D02*
X181258333Y-116245057D01*
X181258333Y-116245057D02*
X181163095Y-116387914D01*
X181163095Y-116387914D02*
X181115476Y-116578390D01*
X181115476Y-116578390D02*
X181115476Y-116959342D01*
X181115476Y-116959342D02*
X181163095Y-117054580D01*
X181163095Y-117054580D02*
X181210714Y-117102200D01*
X181210714Y-117102200D02*
X181305952Y-117149819D01*
X181305952Y-117149819D02*
X181496428Y-117149819D01*
X181496428Y-117149819D02*
X181591666Y-117102200D01*
X181591666Y-117102200D02*
X181639285Y-117054580D01*
X181639285Y-117054580D02*
X181686904Y-116959342D01*
X181686904Y-116959342D02*
X181686904Y-116721247D01*
X181686904Y-116721247D02*
X181639285Y-116626009D01*
X181639285Y-116626009D02*
X181591666Y-116578390D01*
X181591666Y-116578390D02*
X181496428Y-116530771D01*
X181496428Y-116530771D02*
X181305952Y-116530771D01*
X181305952Y-116530771D02*
X181210714Y-116578390D01*
X181210714Y-116578390D02*
X181163095Y-116626009D01*
X181163095Y-116626009D02*
X181115476Y-116721247D01*
X111558333Y-115524819D02*
X111225000Y-115048628D01*
X110986905Y-115524819D02*
X110986905Y-114524819D01*
X110986905Y-114524819D02*
X111367857Y-114524819D01*
X111367857Y-114524819D02*
X111463095Y-114572438D01*
X111463095Y-114572438D02*
X111510714Y-114620057D01*
X111510714Y-114620057D02*
X111558333Y-114715295D01*
X111558333Y-114715295D02*
X111558333Y-114858152D01*
X111558333Y-114858152D02*
X111510714Y-114953390D01*
X111510714Y-114953390D02*
X111463095Y-115001009D01*
X111463095Y-115001009D02*
X111367857Y-115048628D01*
X111367857Y-115048628D02*
X110986905Y-115048628D01*
X111891667Y-114524819D02*
X112510714Y-114524819D01*
X112510714Y-114524819D02*
X112177381Y-114905771D01*
X112177381Y-114905771D02*
X112320238Y-114905771D01*
X112320238Y-114905771D02*
X112415476Y-114953390D01*
X112415476Y-114953390D02*
X112463095Y-115001009D01*
X112463095Y-115001009D02*
X112510714Y-115096247D01*
X112510714Y-115096247D02*
X112510714Y-115334342D01*
X112510714Y-115334342D02*
X112463095Y-115429580D01*
X112463095Y-115429580D02*
X112415476Y-115477200D01*
X112415476Y-115477200D02*
X112320238Y-115524819D01*
X112320238Y-115524819D02*
X112034524Y-115524819D01*
X112034524Y-115524819D02*
X111939286Y-115477200D01*
X111939286Y-115477200D02*
X111891667Y-115429580D01*
X169483333Y-70599819D02*
X169150000Y-70123628D01*
X168911905Y-70599819D02*
X168911905Y-69599819D01*
X168911905Y-69599819D02*
X169292857Y-69599819D01*
X169292857Y-69599819D02*
X169388095Y-69647438D01*
X169388095Y-69647438D02*
X169435714Y-69695057D01*
X169435714Y-69695057D02*
X169483333Y-69790295D01*
X169483333Y-69790295D02*
X169483333Y-69933152D01*
X169483333Y-69933152D02*
X169435714Y-70028390D01*
X169435714Y-70028390D02*
X169388095Y-70076009D01*
X169388095Y-70076009D02*
X169292857Y-70123628D01*
X169292857Y-70123628D02*
X168911905Y-70123628D01*
X169864286Y-69695057D02*
X169911905Y-69647438D01*
X169911905Y-69647438D02*
X170007143Y-69599819D01*
X170007143Y-69599819D02*
X170245238Y-69599819D01*
X170245238Y-69599819D02*
X170340476Y-69647438D01*
X170340476Y-69647438D02*
X170388095Y-69695057D01*
X170388095Y-69695057D02*
X170435714Y-69790295D01*
X170435714Y-69790295D02*
X170435714Y-69885533D01*
X170435714Y-69885533D02*
X170388095Y-70028390D01*
X170388095Y-70028390D02*
X169816667Y-70599819D01*
X169816667Y-70599819D02*
X170435714Y-70599819D01*
X140559819Y-74241666D02*
X140083628Y-74574999D01*
X140559819Y-74813094D02*
X139559819Y-74813094D01*
X139559819Y-74813094D02*
X139559819Y-74432142D01*
X139559819Y-74432142D02*
X139607438Y-74336904D01*
X139607438Y-74336904D02*
X139655057Y-74289285D01*
X139655057Y-74289285D02*
X139750295Y-74241666D01*
X139750295Y-74241666D02*
X139893152Y-74241666D01*
X139893152Y-74241666D02*
X139988390Y-74289285D01*
X139988390Y-74289285D02*
X140036009Y-74336904D01*
X140036009Y-74336904D02*
X140083628Y-74432142D01*
X140083628Y-74432142D02*
X140083628Y-74813094D01*
X139893152Y-73384523D02*
X140559819Y-73384523D01*
X139512200Y-73622618D02*
X140226485Y-73860713D01*
X140226485Y-73860713D02*
X140226485Y-73241666D01*
X173179580Y-100666666D02*
X173227200Y-100714285D01*
X173227200Y-100714285D02*
X173274819Y-100857142D01*
X173274819Y-100857142D02*
X173274819Y-100952380D01*
X173274819Y-100952380D02*
X173227200Y-101095237D01*
X173227200Y-101095237D02*
X173131961Y-101190475D01*
X173131961Y-101190475D02*
X173036723Y-101238094D01*
X173036723Y-101238094D02*
X172846247Y-101285713D01*
X172846247Y-101285713D02*
X172703390Y-101285713D01*
X172703390Y-101285713D02*
X172512914Y-101238094D01*
X172512914Y-101238094D02*
X172417676Y-101190475D01*
X172417676Y-101190475D02*
X172322438Y-101095237D01*
X172322438Y-101095237D02*
X172274819Y-100952380D01*
X172274819Y-100952380D02*
X172274819Y-100857142D01*
X172274819Y-100857142D02*
X172322438Y-100714285D01*
X172322438Y-100714285D02*
X172370057Y-100666666D01*
X172608152Y-99809523D02*
X173274819Y-99809523D01*
X172227200Y-100047618D02*
X172941485Y-100285713D01*
X172941485Y-100285713D02*
X172941485Y-99666666D01*
X195504819Y-105333333D02*
X196219104Y-105333333D01*
X196219104Y-105333333D02*
X196361961Y-105380952D01*
X196361961Y-105380952D02*
X196457200Y-105476190D01*
X196457200Y-105476190D02*
X196504819Y-105619047D01*
X196504819Y-105619047D02*
X196504819Y-105714285D01*
X196504819Y-104333333D02*
X196504819Y-104904761D01*
X196504819Y-104619047D02*
X195504819Y-104619047D01*
X195504819Y-104619047D02*
X195647676Y-104714285D01*
X195647676Y-104714285D02*
X195742914Y-104809523D01*
X195742914Y-104809523D02*
X195790533Y-104904761D01*
D14*
%TO.C,U7*%
X181400000Y-93035000D02*
X186680000Y-93035000D01*
X181400000Y-98315000D02*
X186680000Y-98315000D01*
D12*
X178925000Y-93770000D02*
G75*
G02*
X178725000Y-93770000I-100000J0D01*
G01*
X178725000Y-93770000D02*
G75*
G02*
X178925000Y-93770000I100000J0D01*
G01*
D14*
%TO.C,LS1*%
X125560000Y-60225000D02*
X127560000Y-60225000D01*
X126560000Y-59225000D02*
X126560000Y-61225000D01*
X143970000Y-60225000D02*
X145970000Y-60225000D01*
X143000000Y-60225000D02*
G75*
G02*
X129100000Y-60225000I-6950000J0D01*
G01*
X129100000Y-60225000D02*
G75*
G02*
X143000000Y-60225000I6950000J0D01*
G01*
D13*
%TO.C,R1*%
X150887742Y-137077500D02*
X151362258Y-137077500D01*
X150887742Y-138122500D02*
X151362258Y-138122500D01*
%TO.C,R8*%
X143237742Y-89977500D02*
X143712258Y-89977500D01*
X143237742Y-91022500D02*
X143712258Y-91022500D01*
%TO.C,C15*%
X183084420Y-102890000D02*
X183365580Y-102890000D01*
X183084420Y-103910000D02*
X183365580Y-103910000D01*
D15*
%TO.C,G\u002A\u002A\u002A*%
G36*
X165963629Y-80400654D02*
G01*
X166028806Y-80446360D01*
X166187676Y-80665271D01*
X166180685Y-80886264D01*
X166006836Y-81111313D01*
X165665133Y-81342391D01*
X165544382Y-81405862D01*
X165190344Y-81583824D01*
X165084014Y-81108693D01*
X165028553Y-80835063D01*
X165020455Y-80675323D01*
X165064053Y-80579591D01*
X165135262Y-80518340D01*
X165415488Y-80381252D01*
X165712503Y-80340340D01*
X165963629Y-80400654D01*
G37*
G36*
X165316697Y-78929418D02*
G01*
X165440078Y-78968383D01*
X165489387Y-79065853D01*
X165501104Y-79144120D01*
X165480460Y-79328255D01*
X165349225Y-79497825D01*
X165239112Y-79588620D01*
X165041137Y-79724935D01*
X164891964Y-79801929D01*
X164862454Y-79808296D01*
X164780373Y-79736764D01*
X164676595Y-79556282D01*
X164633263Y-79457045D01*
X164552855Y-79195819D01*
X164580024Y-79035602D01*
X164733889Y-78953184D01*
X165033566Y-78925356D01*
X165071760Y-78924689D01*
X165316697Y-78929418D01*
G37*
G36*
X143041947Y-78220625D02*
G01*
X143060992Y-78371232D01*
X143056500Y-78622600D01*
X143033636Y-78928407D01*
X142997566Y-79242331D01*
X142953458Y-79518050D01*
X142906478Y-79709243D01*
X142869087Y-79770537D01*
X142739676Y-79766489D01*
X142514176Y-79734793D01*
X142412894Y-79716276D01*
X142180090Y-79664429D01*
X142027868Y-79618517D01*
X142002425Y-79604856D01*
X142031731Y-79524109D01*
X142141328Y-79335943D01*
X142312752Y-79070497D01*
X142477906Y-78828619D01*
X142731909Y-78479021D01*
X142908064Y-78271160D01*
X143011707Y-78199281D01*
X143041947Y-78220625D01*
G37*
G36*
X138717574Y-73068002D02*
G01*
X139973969Y-73174261D01*
X141274742Y-73381070D01*
X142632693Y-73691724D01*
X144060626Y-74109519D01*
X145571341Y-74637751D01*
X147177640Y-75279715D01*
X148668753Y-75936007D01*
X149229917Y-76184300D01*
X149833273Y-76437456D01*
X150425904Y-76674164D01*
X150954890Y-76873114D01*
X151251087Y-76975906D01*
X152922328Y-77438793D01*
X154652944Y-77748387D01*
X156432656Y-77905741D01*
X158251183Y-77911906D01*
X160098248Y-77767935D01*
X161963570Y-77474878D01*
X163836870Y-77033788D01*
X165707869Y-76445717D01*
X167566288Y-75711716D01*
X168692420Y-75191269D01*
X169152459Y-74964444D01*
X169591223Y-74744196D01*
X169971949Y-74549260D01*
X170257875Y-74398369D01*
X170364505Y-74339157D01*
X170596658Y-74222002D01*
X170769991Y-74165168D01*
X170830172Y-74171062D01*
X170810934Y-74261045D01*
X170722543Y-74479030D01*
X170575051Y-74803353D01*
X170378509Y-75212350D01*
X170142971Y-75684356D01*
X169983587Y-75995613D01*
X169726243Y-76495591D01*
X169497112Y-76944861D01*
X169307035Y-77321823D01*
X169166857Y-77604881D01*
X169087419Y-77772435D01*
X169073420Y-77808654D01*
X169154224Y-77823250D01*
X169381193Y-77836278D01*
X169731161Y-77847139D01*
X170180961Y-77855235D01*
X170707429Y-77859969D01*
X171100423Y-77860963D01*
X171697443Y-77864137D01*
X172221610Y-77873123D01*
X172651652Y-77887114D01*
X172966300Y-77905307D01*
X173144279Y-77926894D01*
X173176001Y-77939559D01*
X173130982Y-78023294D01*
X172961687Y-78206193D01*
X172675745Y-78481240D01*
X172280785Y-78841415D01*
X171784437Y-79279700D01*
X171194331Y-79789077D01*
X170809087Y-80116890D01*
X170181840Y-80628483D01*
X169445204Y-81196706D01*
X168632265Y-81798372D01*
X167776109Y-82410295D01*
X166909820Y-83009291D01*
X166066484Y-83572173D01*
X165279188Y-84075757D01*
X164581016Y-84496856D01*
X164459087Y-84566810D01*
X163043803Y-85320276D01*
X161658375Y-85957690D01*
X160317839Y-86473457D01*
X159037231Y-86861986D01*
X157831587Y-87117681D01*
X157457957Y-87171303D01*
X157000319Y-87210828D01*
X156408049Y-87234159D01*
X155715099Y-87241002D01*
X154955424Y-87231061D01*
X154162976Y-87204041D01*
X154087420Y-87200585D01*
X153506701Y-87163324D01*
X152808160Y-87102502D01*
X152040801Y-87023602D01*
X151253624Y-86932107D01*
X150495634Y-86833502D01*
X149815831Y-86733269D01*
X149609276Y-86699466D01*
X148760413Y-86544269D01*
X147868284Y-86356892D01*
X146911179Y-86131920D01*
X145867387Y-85863936D01*
X144715199Y-85547525D01*
X143432904Y-85177274D01*
X143038420Y-85060490D01*
X141480897Y-84603128D01*
X140070211Y-84202310D01*
X139201153Y-83966291D01*
X147724091Y-83966291D01*
X147738384Y-84214880D01*
X147862365Y-84354054D01*
X148000621Y-84380296D01*
X148312601Y-84303312D01*
X148638299Y-84091969D01*
X148948394Y-83775681D01*
X149213568Y-83383864D01*
X149391736Y-82984666D01*
X149512094Y-82689065D01*
X149625753Y-82542337D01*
X149700673Y-82517629D01*
X149762644Y-82520671D01*
X149811687Y-82545621D01*
X149855588Y-82616217D01*
X149902132Y-82756198D01*
X149959106Y-82989300D01*
X150034294Y-83339263D01*
X150135482Y-83829823D01*
X150142892Y-83865911D01*
X150247584Y-84338659D01*
X150345634Y-84668518D01*
X150453345Y-84880368D01*
X150587023Y-84999092D01*
X150762971Y-85049572D01*
X150923801Y-85057629D01*
X151194613Y-84996245D01*
X151330952Y-84869457D01*
X151415765Y-84663911D01*
X151460629Y-84390491D01*
X151462753Y-84323494D01*
X151433651Y-84063545D01*
X151356276Y-83699352D01*
X151245521Y-83283780D01*
X151116281Y-82869694D01*
X151054689Y-82702890D01*
X154306365Y-82702890D01*
X154357472Y-83352212D01*
X154490550Y-83944269D01*
X154697710Y-84450536D01*
X154971066Y-84842491D01*
X155172499Y-85017062D01*
X155528750Y-85171833D01*
X155961072Y-85230924D01*
X156402962Y-85190020D01*
X156651306Y-85113078D01*
X156952909Y-84938635D01*
X157111939Y-84712186D01*
X157153912Y-84466895D01*
X157134218Y-84224958D01*
X157040428Y-84095795D01*
X156846323Y-84065527D01*
X156525684Y-84120271D01*
X156507399Y-84124622D01*
X156227172Y-84183581D01*
X156047236Y-84190313D01*
X155905966Y-84142151D01*
X155828404Y-84095232D01*
X155588178Y-83849265D01*
X155395478Y-83483088D01*
X155259573Y-83041446D01*
X155189736Y-82569084D01*
X155195238Y-82110749D01*
X155285350Y-81711186D01*
X155318366Y-81633676D01*
X155513369Y-81338503D01*
X155738073Y-81202691D01*
X155983695Y-81230396D01*
X156070639Y-81277952D01*
X156301934Y-81381942D01*
X156497441Y-81416963D01*
X156642730Y-81395200D01*
X156702050Y-81296544D01*
X156712087Y-81121965D01*
X156635721Y-80780756D01*
X156468817Y-80553192D01*
X157527599Y-80553192D01*
X157542485Y-80852894D01*
X157576692Y-81225519D01*
X157609588Y-81497919D01*
X157670502Y-81966572D01*
X157740698Y-82522909D01*
X157810102Y-83086391D01*
X157852886Y-83442545D01*
X157915791Y-83906109D01*
X157980697Y-84262921D01*
X158042924Y-84490447D01*
X158085622Y-84563082D01*
X158299249Y-84623745D01*
X158646986Y-84616208D01*
X159136124Y-84539859D01*
X159607023Y-84435412D01*
X160135081Y-84292625D01*
X160508610Y-84154574D01*
X160741978Y-84013848D01*
X160849553Y-83863034D01*
X160860753Y-83788656D01*
X160814472Y-83616218D01*
X160665344Y-83519380D01*
X160397940Y-83495248D01*
X159996832Y-83540931D01*
X159767574Y-83583702D01*
X159421400Y-83645457D01*
X159129257Y-83682561D01*
X158937342Y-83689739D01*
X158898630Y-83682914D01*
X158835352Y-83620100D01*
X158787263Y-83470117D01*
X158749349Y-83207142D01*
X158716597Y-82805352D01*
X158710808Y-82715407D01*
X158648746Y-81988144D01*
X158560810Y-81344561D01*
X158451190Y-80801844D01*
X158324074Y-80377182D01*
X158183651Y-80087761D01*
X158037271Y-79951943D01*
X157858127Y-79963211D01*
X157680462Y-80093206D01*
X157555600Y-80298823D01*
X157535160Y-80373646D01*
X157527599Y-80553192D01*
X156468817Y-80553192D01*
X156431022Y-80501661D01*
X156134590Y-80308436D01*
X155783023Y-80224836D01*
X155412921Y-80274618D01*
X155408799Y-80276024D01*
X155035120Y-80463893D01*
X154749288Y-80749954D01*
X154540250Y-81152383D01*
X154396948Y-81689356D01*
X154345114Y-82024827D01*
X154306365Y-82702890D01*
X151054689Y-82702890D01*
X150983451Y-82509960D01*
X150899890Y-82325721D01*
X150850253Y-82214208D01*
X150842872Y-82113764D01*
X150893341Y-81992447D01*
X151017251Y-81818314D01*
X151230196Y-81559421D01*
X151333854Y-81436721D01*
X151673560Y-80998230D01*
X151899261Y-80624756D01*
X152008195Y-80326587D01*
X151997597Y-80114016D01*
X151864703Y-79997332D01*
X151725717Y-79977629D01*
X151572392Y-79994892D01*
X151408196Y-80058275D01*
X151205648Y-80185169D01*
X150937260Y-80392967D01*
X150575550Y-80699058D01*
X150548211Y-80722721D01*
X150014669Y-81184965D01*
X150078140Y-80729464D01*
X150138959Y-80108191D01*
X150136940Y-79923778D01*
X160251105Y-79923778D01*
X160270915Y-80216921D01*
X160348082Y-80616038D01*
X160483857Y-81137991D01*
X160679491Y-81799641D01*
X160697431Y-81858028D01*
X160897731Y-82422045D01*
X161110962Y-82838683D01*
X161351493Y-83129892D01*
X161633690Y-83317620D01*
X161660889Y-83329871D01*
X161972063Y-83415568D01*
X162333189Y-83443332D01*
X162677670Y-83414135D01*
X162938904Y-83328954D01*
X162967743Y-83310744D01*
X163215895Y-83037055D01*
X163383544Y-82630487D01*
X163468561Y-82108268D01*
X163468814Y-81487625D01*
X163382174Y-80785785D01*
X163319050Y-80469533D01*
X163183403Y-79930421D01*
X163045464Y-79542709D01*
X162896926Y-79288567D01*
X162729479Y-79150169D01*
X162697820Y-79136599D01*
X162452708Y-79104258D01*
X162286370Y-79211120D01*
X162205574Y-79443126D01*
X162217085Y-79786219D01*
X162268289Y-80028927D01*
X162325146Y-80293260D01*
X162389023Y-80666890D01*
X162450305Y-81090599D01*
X162481805Y-81344022D01*
X162526125Y-81752047D01*
X162545897Y-82030045D01*
X162539749Y-82215730D01*
X162506313Y-82346815D01*
X162444218Y-82461013D01*
X162441058Y-82465855D01*
X162292233Y-82622892D01*
X162141924Y-82686963D01*
X162025706Y-82668787D01*
X161921134Y-82602972D01*
X161821220Y-82472584D01*
X161718978Y-82260691D01*
X161607421Y-81950358D01*
X161479562Y-81524653D01*
X161328414Y-80966643D01*
X161157567Y-80301240D01*
X161019393Y-79873370D01*
X160859991Y-79607757D01*
X160674296Y-79498094D01*
X160523304Y-79511576D01*
X160378551Y-79587967D01*
X160287401Y-79719747D01*
X160251105Y-79923778D01*
X150136940Y-79923778D01*
X150133465Y-79606431D01*
X150062393Y-79238737D01*
X149995906Y-79099364D01*
X149893891Y-78992375D01*
X163739165Y-78992375D01*
X163795558Y-79311003D01*
X163919254Y-79775085D01*
X163965716Y-79930682D01*
X164105212Y-80397038D01*
X164249503Y-80892064D01*
X164377492Y-81342840D01*
X164438601Y-81565129D01*
X164626871Y-82263629D01*
X164934500Y-82263629D01*
X165222886Y-82233513D01*
X165534706Y-82159425D01*
X165583174Y-82143302D01*
X166116138Y-81899568D01*
X166515795Y-81596476D01*
X166771111Y-81245417D01*
X166871052Y-80857778D01*
X166872087Y-80812898D01*
X166824670Y-80516856D01*
X166702274Y-80198244D01*
X166534675Y-79915493D01*
X166351651Y-79727032D01*
X166305288Y-79700722D01*
X166156549Y-79591131D01*
X166149335Y-79438609D01*
X166151185Y-79432299D01*
X166245668Y-78959960D01*
X166213744Y-78572722D01*
X166135687Y-78373266D01*
X165942662Y-78128467D01*
X165676070Y-78005855D01*
X165325116Y-78005475D01*
X164879008Y-78127369D01*
X164326955Y-78371580D01*
X164309147Y-78380542D01*
X164029933Y-78544218D01*
X163826180Y-78707195D01*
X163748685Y-78812041D01*
X163739165Y-78992375D01*
X149893891Y-78992375D01*
X149780442Y-78873394D01*
X149533509Y-78766976D01*
X149296188Y-78785575D01*
X149109564Y-78934656D01*
X149083340Y-78977972D01*
X149042847Y-79120076D01*
X148993392Y-79394563D01*
X148940572Y-79765107D01*
X148889981Y-80195385D01*
X148878130Y-80310099D01*
X148787050Y-81034361D01*
X148663253Y-81645462D01*
X148490292Y-82198788D01*
X148251721Y-82749728D01*
X148023665Y-83187733D01*
X147819260Y-83620003D01*
X147724091Y-83966291D01*
X139201153Y-83966291D01*
X138794386Y-83855821D01*
X137641447Y-83561445D01*
X136599420Y-83316966D01*
X135656330Y-83120168D01*
X134800202Y-82968836D01*
X134019060Y-82860754D01*
X133300931Y-82793705D01*
X132633838Y-82765475D01*
X132005808Y-82773847D01*
X131404865Y-82816606D01*
X131100420Y-82851524D01*
X130829775Y-82884065D01*
X130638460Y-82902504D01*
X130574000Y-82903571D01*
X130581926Y-82816174D01*
X130631006Y-82596372D01*
X130712966Y-82273720D01*
X130819534Y-81877770D01*
X130858374Y-81738817D01*
X140026716Y-81738817D01*
X140080419Y-81906439D01*
X140149129Y-81992958D01*
X140251705Y-82076356D01*
X140358387Y-82082173D01*
X140530643Y-82006877D01*
X140606659Y-81966678D01*
X140844418Y-81788274D01*
X141082837Y-81529699D01*
X141175753Y-81399055D01*
X141429753Y-81000147D01*
X141937753Y-81050443D01*
X142209598Y-81079656D01*
X142402185Y-81104697D01*
X142467139Y-81117959D01*
X142453011Y-81200064D01*
X142394972Y-81397071D01*
X142315906Y-81635904D01*
X142187042Y-82084577D01*
X142133854Y-82451052D01*
X142159682Y-82707009D01*
X142183532Y-82758326D01*
X142330706Y-82852158D01*
X142561345Y-82858566D01*
X142819613Y-82786403D01*
X143049671Y-82644522D01*
X143079849Y-82616225D01*
X143229904Y-82425574D01*
X143362639Y-82161083D01*
X143427946Y-81969008D01*
X144584419Y-81969008D01*
X144694716Y-82621083D01*
X144877462Y-83096813D01*
X145142299Y-83454399D01*
X145493898Y-83707276D01*
X145894248Y-83842738D01*
X146305335Y-83848080D01*
X146689146Y-83710599D01*
X146697981Y-83705272D01*
X146937938Y-83485915D01*
X147037246Y-83224206D01*
X146982908Y-82955049D01*
X146979640Y-82948848D01*
X146862432Y-82824085D01*
X146656622Y-82775023D01*
X146545259Y-82771629D01*
X146198018Y-82699795D01*
X145937246Y-82502414D01*
X145793070Y-82206666D01*
X145775267Y-82076978D01*
X145787673Y-81491053D01*
X145877258Y-80895450D01*
X146031988Y-80327805D01*
X146239824Y-79825754D01*
X146488731Y-79426934D01*
X146687698Y-79223982D01*
X146872479Y-79091921D01*
X147006499Y-79063402D01*
X147155724Y-79142095D01*
X147298646Y-79257963D01*
X147584510Y-79430704D01*
X147826950Y-79449832D01*
X148004189Y-79324802D01*
X148094450Y-79065067D01*
X148100973Y-78909659D01*
X148015332Y-78513940D01*
X147795603Y-78206869D01*
X147460611Y-78004349D01*
X147029180Y-77922284D01*
X146931611Y-77921756D01*
X146428365Y-77998826D01*
X145987288Y-78210318D01*
X145599488Y-78564400D01*
X145256070Y-79069238D01*
X144948142Y-79732999D01*
X144941970Y-79748755D01*
X144708654Y-80501317D01*
X144589268Y-81251910D01*
X144584419Y-81969008D01*
X143427946Y-81969008D01*
X143485178Y-81800681D01*
X143604642Y-81322297D01*
X143728156Y-80703860D01*
X143767433Y-80485629D01*
X143869783Y-79786118D01*
X143931698Y-79097111D01*
X143953065Y-78449748D01*
X143933766Y-77875168D01*
X143873686Y-77404512D01*
X143780083Y-77085037D01*
X143604359Y-76763339D01*
X143415798Y-76594764D01*
X143184842Y-76563930D01*
X142922455Y-76638759D01*
X142757599Y-76718248D01*
X142608212Y-76828891D01*
X142458218Y-76992556D01*
X142291540Y-77231111D01*
X142092104Y-77566424D01*
X141843832Y-78020363D01*
X141681636Y-78326629D01*
X141440609Y-78779782D01*
X141153482Y-79311889D01*
X140857413Y-79854450D01*
X140606184Y-80309148D01*
X140330743Y-80822559D01*
X140146163Y-81217935D01*
X140046726Y-81516335D01*
X140026716Y-81738817D01*
X130858374Y-81738817D01*
X130942435Y-81438078D01*
X131073396Y-80984198D01*
X131204144Y-80545683D01*
X131302986Y-80227479D01*
X134753651Y-80227479D01*
X134824157Y-80458229D01*
X134977224Y-80618636D01*
X135039270Y-80655952D01*
X135181353Y-80700058D01*
X135352853Y-80669579D01*
X135608283Y-80555267D01*
X135816457Y-80433243D01*
X135985528Y-80282141D01*
X136150551Y-80062029D01*
X136346581Y-79732975D01*
X136375511Y-79681296D01*
X136543892Y-79380835D01*
X136679595Y-79141789D01*
X136762827Y-78998874D01*
X136778544Y-78974358D01*
X136871847Y-78979537D01*
X137081033Y-79037290D01*
X137365889Y-79134558D01*
X137686204Y-79258283D01*
X137803194Y-79307102D01*
X138155969Y-79457560D01*
X137993694Y-80200139D01*
X137898940Y-80661074D01*
X137849115Y-80990587D01*
X137843684Y-81220370D01*
X137882115Y-81382117D01*
X137963874Y-81507521D01*
X137971542Y-81516129D01*
X138181104Y-81651186D01*
X138445683Y-81640154D01*
X138669718Y-81548290D01*
X138893233Y-81385148D01*
X139048435Y-81209670D01*
X139134168Y-81032906D01*
X139254790Y-80720655D01*
X139401340Y-80300986D01*
X139564854Y-79801968D01*
X139736373Y-79251673D01*
X139906933Y-78678169D01*
X140067574Y-78109525D01*
X140209333Y-77573813D01*
X140209726Y-77572264D01*
X140318065Y-77130376D01*
X140383365Y-76817447D01*
X140409784Y-76599812D01*
X140401485Y-76443809D01*
X140364474Y-76320195D01*
X140244022Y-76118473D01*
X140111374Y-75995060D01*
X139840964Y-75914998D01*
X139580647Y-75976641D01*
X139322819Y-76186402D01*
X139059873Y-76550695D01*
X138784206Y-77075933D01*
X138755056Y-77138844D01*
X138594998Y-77471583D01*
X138452903Y-77737599D01*
X138346869Y-77904659D01*
X138302037Y-77945629D01*
X138183427Y-77916889D01*
X137961316Y-77842435D01*
X137747343Y-77762701D01*
X137275586Y-77579774D01*
X137275999Y-76810201D01*
X137238554Y-76207456D01*
X137126544Y-75746817D01*
X136941535Y-75432262D01*
X136685095Y-75267769D01*
X136666223Y-75262427D01*
X136343613Y-75227891D01*
X136100604Y-75325154D01*
X135924376Y-75564885D01*
X135802114Y-75957754D01*
X135796181Y-75986598D01*
X135699242Y-76435176D01*
X135575566Y-76958498D01*
X135437166Y-77510144D01*
X135296053Y-78043699D01*
X135164238Y-78512744D01*
X135053735Y-78870862D01*
X135037265Y-78919296D01*
X134860227Y-79477400D01*
X134765681Y-79906999D01*
X134753651Y-80227479D01*
X131302986Y-80227479D01*
X131326404Y-80152087D01*
X131431904Y-79832965D01*
X131440508Y-79808296D01*
X131938986Y-78444062D01*
X132491216Y-77033002D01*
X133068939Y-75645014D01*
X133643896Y-74349998D01*
X133670811Y-74291655D01*
X133931312Y-73728014D01*
X134590199Y-73514486D01*
X135089336Y-73360964D01*
X135530172Y-73248121D01*
X135960416Y-73168470D01*
X136427779Y-73114524D01*
X136979972Y-73078796D01*
X137492753Y-73058998D01*
X138717574Y-73068002D01*
G37*
D13*
%TO.C,C6*%
X174240000Y-60434420D02*
X174240000Y-60715580D01*
X175260000Y-60434420D02*
X175260000Y-60715580D01*
D14*
%TO.C,VR1*%
X180025000Y-108085000D02*
X181625000Y-108085000D01*
X180025000Y-111215000D02*
X181625000Y-111215000D01*
D12*
X178425000Y-108450000D02*
G75*
G02*
X178225000Y-108450000I-100000J0D01*
G01*
X178225000Y-108450000D02*
G75*
G02*
X178425000Y-108450000I100000J0D01*
G01*
D13*
%TO.C,C3*%
X170115000Y-110059420D02*
X170115000Y-110340580D01*
X171135000Y-110059420D02*
X171135000Y-110340580D01*
%TO.C,J4*%
X135380000Y-99275000D02*
X136760000Y-99275000D01*
X135380000Y-100655000D02*
X135380000Y-99275000D01*
X135380000Y-101925000D02*
X135380000Y-109655000D01*
X135380000Y-101925000D02*
X138030000Y-101925000D01*
X135380000Y-109655000D02*
X140680000Y-109655000D01*
X138030000Y-99275000D02*
X140680000Y-99275000D01*
X138030000Y-101925000D02*
X138030000Y-99275000D01*
X140680000Y-99275000D02*
X140680000Y-109655000D01*
D14*
%TO.C,J2*%
X144075000Y-147325000D02*
X144075000Y-146925000D01*
X144075000Y-149325000D02*
X144075000Y-149775000D01*
X145775000Y-145475000D02*
X145975000Y-145475000D01*
X149675000Y-145475000D02*
X149875000Y-145475000D01*
X151575000Y-147325000D02*
X151575000Y-146925000D01*
X151575000Y-149325000D02*
X151575000Y-149775000D01*
D12*
X146630000Y-144425000D02*
G75*
G02*
X146430000Y-144425000I-100000J0D01*
G01*
X146430000Y-144425000D02*
G75*
G02*
X146630000Y-144425000I100000J0D01*
G01*
D14*
%TO.C,U3*%
X183335000Y-81985000D02*
X183335000Y-81475000D01*
X183335000Y-84475000D02*
X183335000Y-83965000D01*
X185835000Y-81475000D02*
X185835000Y-81985000D01*
X185835000Y-84475000D02*
X185835000Y-83965000D01*
D12*
X183885000Y-84975000D02*
G75*
G02*
X183685000Y-84975000I-100000J0D01*
G01*
X183685000Y-84975000D02*
G75*
G02*
X183885000Y-84975000I100000J0D01*
G01*
D13*
%TO.C,C1*%
X111311252Y-102815000D02*
X110788748Y-102815000D01*
X111311252Y-104285000D02*
X110788748Y-104285000D01*
D14*
%TO.C,U4*%
X110100000Y-108445000D02*
X113100000Y-108445000D01*
X110100000Y-110855000D02*
X113100000Y-110855000D01*
D12*
X109225000Y-108900000D02*
G75*
G02*
X109025000Y-108900000I-100000J0D01*
G01*
X109025000Y-108900000D02*
G75*
G02*
X109225000Y-108900000I100000J0D01*
G01*
D14*
%TO.C,U1*%
X112335000Y-66890000D02*
X112335000Y-94830000D01*
X112335000Y-94830000D02*
X130115000Y-94830000D01*
X130115000Y-66890000D02*
X112335000Y-66890000D01*
X130115000Y-94830000D02*
X130115000Y-66890000D01*
D13*
%TO.C,C2*%
X144148748Y-116457500D02*
X144671252Y-116457500D01*
X144148748Y-117927500D02*
X144671252Y-117927500D01*
%TO.C,C13*%
X137859420Y-89540000D02*
X138140580Y-89540000D01*
X137859420Y-90560000D02*
X138140580Y-90560000D01*
%TO.C,C5*%
X153915000Y-141590580D02*
X153915000Y-141309420D01*
X154935000Y-141590580D02*
X154935000Y-141309420D01*
%TO.C,U2*%
X152415000Y-97715000D02*
X152715000Y-97715000D01*
X152415000Y-98015000D02*
X152415000Y-97715000D01*
X152415000Y-104635000D02*
X152415000Y-104935000D01*
X152415000Y-104935000D02*
X152715000Y-104935000D01*
X159635000Y-97715000D02*
X159335000Y-97715000D01*
X159635000Y-98015000D02*
X159635000Y-97715000D01*
X159635000Y-104635000D02*
X159635000Y-104935000D01*
X159635000Y-104935000D02*
X159335000Y-104935000D01*
X152715000Y-105537500D02*
X152245000Y-105877500D01*
X152245000Y-105197500D01*
X152715000Y-105537500D01*
G36*
X152715000Y-105537500D02*
G01*
X152245000Y-105877500D01*
X152245000Y-105197500D01*
X152715000Y-105537500D01*
G37*
D14*
%TO.C,U6*%
X145737500Y-136110000D02*
X144112500Y-136110000D01*
X145737500Y-139240000D02*
X144112500Y-139240000D01*
D12*
X142470000Y-136730000D02*
G75*
G02*
X142270000Y-136730000I-100000J0D01*
G01*
X142270000Y-136730000D02*
G75*
G02*
X142470000Y-136730000I100000J0D01*
G01*
D13*
%TO.C,R6*%
X150552500Y-63662258D02*
X150552500Y-63187742D01*
X151597500Y-63662258D02*
X151597500Y-63187742D01*
%TO.C,C14*%
X190540000Y-82484420D02*
X190540000Y-82765580D01*
X191560000Y-82484420D02*
X191560000Y-82765580D01*
%TO.C,Q1*%
X147437500Y-64140000D02*
X146787500Y-64140000D01*
X147437500Y-64140000D02*
X148087500Y-64140000D01*
X147437500Y-67260000D02*
X146787500Y-67260000D01*
X147437500Y-67260000D02*
X148087500Y-67260000D01*
X146275000Y-64190000D02*
X146035000Y-63860000D01*
X146515000Y-63860000D01*
X146275000Y-64190000D01*
G36*
X146275000Y-64190000D02*
G01*
X146035000Y-63860000D01*
X146515000Y-63860000D01*
X146275000Y-64190000D01*
G37*
%TO.C,C12*%
X120784420Y-100190000D02*
X121065580Y-100190000D01*
X120784420Y-101210000D02*
X121065580Y-101210000D01*
%TO.C,C16*%
X180284420Y-117615000D02*
X180565580Y-117615000D01*
X180284420Y-118635000D02*
X180565580Y-118635000D01*
%TO.C,R3*%
X111487742Y-115977500D02*
X111962258Y-115977500D01*
X111487742Y-117022500D02*
X111962258Y-117022500D01*
%TO.C,R2*%
X169412742Y-71052500D02*
X169887258Y-71052500D01*
X169412742Y-72097500D02*
X169887258Y-72097500D01*
%TO.C,R4*%
X138152500Y-73837742D02*
X138152500Y-74312258D01*
X139197500Y-73837742D02*
X139197500Y-74312258D01*
%TO.C,C4*%
X173740000Y-100640580D02*
X173740000Y-100359420D01*
X174760000Y-100640580D02*
X174760000Y-100359420D01*
D14*
%TO.C,J1*%
X191500000Y-103450000D02*
X197250000Y-103450000D01*
X191500000Y-110850000D02*
X191500000Y-103450000D01*
X197250000Y-103450000D02*
X197250000Y-110850000D01*
X197250000Y-110850000D02*
X191500000Y-110850000D01*
D12*
X193950000Y-111590000D02*
G75*
G02*
X193750000Y-111590000I-100000J0D01*
G01*
X193750000Y-111590000D02*
G75*
G02*
X193950000Y-111590000I100000J0D01*
G01*
%TD*%
M02*
