%TF.GenerationSoftware,KiCad,Pcbnew,9.0.3*%
%TF.CreationDate,2026-02-21T10:46:01-03:00*%
%TF.ProjectId,Boros Rocket,426f726f-7320-4526-9f63-6b65742e6b69,rev?*%
%TF.SameCoordinates,Original*%
%TF.FileFunction,AssemblyDrawing,Top*%
%FSLAX46Y46*%
G04 Gerber Fmt 4.6, Leading zero omitted, Abs format (unit mm)*
G04 Created by KiCad (PCBNEW 9.0.3) date 2026-02-21 10:46:01*
%MOMM*%
%LPD*%
G01*
G04 APERTURE LIST*
%ADD10C,0.150000*%
%ADD11C,0.060000*%
%ADD12C,0.120000*%
%ADD13C,0.080000*%
%ADD14C,0.050000*%
%ADD15C,0.127000*%
%ADD16C,0.200000*%
%ADD17C,0.100000*%
G04 APERTURE END LIST*
D10*
X185429048Y-98831819D02*
X185667143Y-99831819D01*
X185667143Y-99831819D02*
X185857619Y-99117533D01*
X185857619Y-99117533D02*
X186048095Y-99831819D01*
X186048095Y-99831819D02*
X186286191Y-98831819D01*
X186619524Y-98927057D02*
X186667143Y-98879438D01*
X186667143Y-98879438D02*
X186762381Y-98831819D01*
X186762381Y-98831819D02*
X187000476Y-98831819D01*
X187000476Y-98831819D02*
X187095714Y-98879438D01*
X187095714Y-98879438D02*
X187143333Y-98927057D01*
X187143333Y-98927057D02*
X187190952Y-99022295D01*
X187190952Y-99022295D02*
X187190952Y-99117533D01*
X187190952Y-99117533D02*
X187143333Y-99260390D01*
X187143333Y-99260390D02*
X186571905Y-99831819D01*
X186571905Y-99831819D02*
X187190952Y-99831819D01*
X188095714Y-98831819D02*
X187619524Y-98831819D01*
X187619524Y-98831819D02*
X187571905Y-99308009D01*
X187571905Y-99308009D02*
X187619524Y-99260390D01*
X187619524Y-99260390D02*
X187714762Y-99212771D01*
X187714762Y-99212771D02*
X187952857Y-99212771D01*
X187952857Y-99212771D02*
X188048095Y-99260390D01*
X188048095Y-99260390D02*
X188095714Y-99308009D01*
X188095714Y-99308009D02*
X188143333Y-99403247D01*
X188143333Y-99403247D02*
X188143333Y-99641342D01*
X188143333Y-99641342D02*
X188095714Y-99736580D01*
X188095714Y-99736580D02*
X188048095Y-99784200D01*
X188048095Y-99784200D02*
X187952857Y-99831819D01*
X187952857Y-99831819D02*
X187714762Y-99831819D01*
X187714762Y-99831819D02*
X187619524Y-99784200D01*
X187619524Y-99784200D02*
X187571905Y-99736580D01*
X189238571Y-99927057D02*
X189143333Y-99879438D01*
X189143333Y-99879438D02*
X189048095Y-99784200D01*
X189048095Y-99784200D02*
X188905238Y-99641342D01*
X188905238Y-99641342D02*
X188810000Y-99593723D01*
X188810000Y-99593723D02*
X188714762Y-99593723D01*
X188762381Y-99831819D02*
X188667143Y-99784200D01*
X188667143Y-99784200D02*
X188571905Y-99688961D01*
X188571905Y-99688961D02*
X188524286Y-99498485D01*
X188524286Y-99498485D02*
X188524286Y-99165152D01*
X188524286Y-99165152D02*
X188571905Y-98974676D01*
X188571905Y-98974676D02*
X188667143Y-98879438D01*
X188667143Y-98879438D02*
X188762381Y-98831819D01*
X188762381Y-98831819D02*
X188952857Y-98831819D01*
X188952857Y-98831819D02*
X189048095Y-98879438D01*
X189048095Y-98879438D02*
X189143333Y-98974676D01*
X189143333Y-98974676D02*
X189190952Y-99165152D01*
X189190952Y-99165152D02*
X189190952Y-99498485D01*
X189190952Y-99498485D02*
X189143333Y-99688961D01*
X189143333Y-99688961D02*
X189048095Y-99784200D01*
X189048095Y-99784200D02*
X188952857Y-99831819D01*
X188952857Y-99831819D02*
X188762381Y-99831819D01*
X190143333Y-99831819D02*
X189571905Y-99831819D01*
X189857619Y-99831819D02*
X189857619Y-98831819D01*
X189857619Y-98831819D02*
X189762381Y-98974676D01*
X189762381Y-98974676D02*
X189667143Y-99069914D01*
X189667143Y-99069914D02*
X189571905Y-99117533D01*
X190524286Y-98927057D02*
X190571905Y-98879438D01*
X190571905Y-98879438D02*
X190667143Y-98831819D01*
X190667143Y-98831819D02*
X190905238Y-98831819D01*
X190905238Y-98831819D02*
X191000476Y-98879438D01*
X191000476Y-98879438D02*
X191048095Y-98927057D01*
X191048095Y-98927057D02*
X191095714Y-99022295D01*
X191095714Y-99022295D02*
X191095714Y-99117533D01*
X191095714Y-99117533D02*
X191048095Y-99260390D01*
X191048095Y-99260390D02*
X190476667Y-99831819D01*
X190476667Y-99831819D02*
X191095714Y-99831819D01*
X191667143Y-99260390D02*
X191571905Y-99212771D01*
X191571905Y-99212771D02*
X191524286Y-99165152D01*
X191524286Y-99165152D02*
X191476667Y-99069914D01*
X191476667Y-99069914D02*
X191476667Y-99022295D01*
X191476667Y-99022295D02*
X191524286Y-98927057D01*
X191524286Y-98927057D02*
X191571905Y-98879438D01*
X191571905Y-98879438D02*
X191667143Y-98831819D01*
X191667143Y-98831819D02*
X191857619Y-98831819D01*
X191857619Y-98831819D02*
X191952857Y-98879438D01*
X191952857Y-98879438D02*
X192000476Y-98927057D01*
X192000476Y-98927057D02*
X192048095Y-99022295D01*
X192048095Y-99022295D02*
X192048095Y-99069914D01*
X192048095Y-99069914D02*
X192000476Y-99165152D01*
X192000476Y-99165152D02*
X191952857Y-99212771D01*
X191952857Y-99212771D02*
X191857619Y-99260390D01*
X191857619Y-99260390D02*
X191667143Y-99260390D01*
X191667143Y-99260390D02*
X191571905Y-99308009D01*
X191571905Y-99308009D02*
X191524286Y-99355628D01*
X191524286Y-99355628D02*
X191476667Y-99450866D01*
X191476667Y-99450866D02*
X191476667Y-99641342D01*
X191476667Y-99641342D02*
X191524286Y-99736580D01*
X191524286Y-99736580D02*
X191571905Y-99784200D01*
X191571905Y-99784200D02*
X191667143Y-99831819D01*
X191667143Y-99831819D02*
X191857619Y-99831819D01*
X191857619Y-99831819D02*
X191952857Y-99784200D01*
X191952857Y-99784200D02*
X192000476Y-99736580D01*
X192000476Y-99736580D02*
X192048095Y-99641342D01*
X192048095Y-99641342D02*
X192048095Y-99450866D01*
X192048095Y-99450866D02*
X192000476Y-99355628D01*
X192000476Y-99355628D02*
X191952857Y-99308009D01*
X191952857Y-99308009D02*
X191857619Y-99260390D01*
X192762381Y-98831819D02*
X192762381Y-99546104D01*
X192762381Y-99546104D02*
X192714762Y-99688961D01*
X192714762Y-99688961D02*
X192619524Y-99784200D01*
X192619524Y-99784200D02*
X192476667Y-99831819D01*
X192476667Y-99831819D02*
X192381429Y-99831819D01*
X193095715Y-98831819D02*
X193429048Y-99831819D01*
X193429048Y-99831819D02*
X193762381Y-98831819D01*
X194048096Y-99784200D02*
X194190953Y-99831819D01*
X194190953Y-99831819D02*
X194429048Y-99831819D01*
X194429048Y-99831819D02*
X194524286Y-99784200D01*
X194524286Y-99784200D02*
X194571905Y-99736580D01*
X194571905Y-99736580D02*
X194619524Y-99641342D01*
X194619524Y-99641342D02*
X194619524Y-99546104D01*
X194619524Y-99546104D02*
X194571905Y-99450866D01*
X194571905Y-99450866D02*
X194524286Y-99403247D01*
X194524286Y-99403247D02*
X194429048Y-99355628D01*
X194429048Y-99355628D02*
X194238572Y-99308009D01*
X194238572Y-99308009D02*
X194143334Y-99260390D01*
X194143334Y-99260390D02*
X194095715Y-99212771D01*
X194095715Y-99212771D02*
X194048096Y-99117533D01*
X194048096Y-99117533D02*
X194048096Y-99022295D01*
X194048096Y-99022295D02*
X194095715Y-98927057D01*
X194095715Y-98927057D02*
X194143334Y-98879438D01*
X194143334Y-98879438D02*
X194238572Y-98831819D01*
X194238572Y-98831819D02*
X194476667Y-98831819D01*
X194476667Y-98831819D02*
X194619524Y-98879438D01*
X195048096Y-99831819D02*
X195048096Y-98831819D01*
X196190952Y-99927057D02*
X196095714Y-99879438D01*
X196095714Y-99879438D02*
X196000476Y-99784200D01*
X196000476Y-99784200D02*
X195857619Y-99641342D01*
X195857619Y-99641342D02*
X195762381Y-99593723D01*
X195762381Y-99593723D02*
X195667143Y-99593723D01*
X195714762Y-99831819D02*
X195619524Y-99784200D01*
X195619524Y-99784200D02*
X195524286Y-99688961D01*
X195524286Y-99688961D02*
X195476667Y-99498485D01*
X195476667Y-99498485D02*
X195476667Y-99165152D01*
X195476667Y-99165152D02*
X195524286Y-98974676D01*
X195524286Y-98974676D02*
X195619524Y-98879438D01*
X195619524Y-98879438D02*
X195714762Y-98831819D01*
X195714762Y-98831819D02*
X195905238Y-98831819D01*
X195905238Y-98831819D02*
X196000476Y-98879438D01*
X196000476Y-98879438D02*
X196095714Y-98974676D01*
X196095714Y-98974676D02*
X196143333Y-99165152D01*
X196143333Y-99165152D02*
X196143333Y-99498485D01*
X196143333Y-99498485D02*
X196095714Y-99688961D01*
X196095714Y-99688961D02*
X196000476Y-99784200D01*
X196000476Y-99784200D02*
X195905238Y-99831819D01*
X195905238Y-99831819D02*
X195714762Y-99831819D01*
X139808571Y-69619580D02*
X139760952Y-69667200D01*
X139760952Y-69667200D02*
X139618095Y-69714819D01*
X139618095Y-69714819D02*
X139522857Y-69714819D01*
X139522857Y-69714819D02*
X139380000Y-69667200D01*
X139380000Y-69667200D02*
X139284762Y-69571961D01*
X139284762Y-69571961D02*
X139237143Y-69476723D01*
X139237143Y-69476723D02*
X139189524Y-69286247D01*
X139189524Y-69286247D02*
X139189524Y-69143390D01*
X139189524Y-69143390D02*
X139237143Y-68952914D01*
X139237143Y-68952914D02*
X139284762Y-68857676D01*
X139284762Y-68857676D02*
X139380000Y-68762438D01*
X139380000Y-68762438D02*
X139522857Y-68714819D01*
X139522857Y-68714819D02*
X139618095Y-68714819D01*
X139618095Y-68714819D02*
X139760952Y-68762438D01*
X139760952Y-68762438D02*
X139808571Y-68810057D01*
X140237143Y-69714819D02*
X140237143Y-68714819D01*
X140237143Y-68714819D02*
X140618095Y-68714819D01*
X140618095Y-68714819D02*
X140713333Y-68762438D01*
X140713333Y-68762438D02*
X140760952Y-68810057D01*
X140760952Y-68810057D02*
X140808571Y-68905295D01*
X140808571Y-68905295D02*
X140808571Y-69048152D01*
X140808571Y-69048152D02*
X140760952Y-69143390D01*
X140760952Y-69143390D02*
X140713333Y-69191009D01*
X140713333Y-69191009D02*
X140618095Y-69238628D01*
X140618095Y-69238628D02*
X140237143Y-69238628D01*
X141237143Y-69714819D02*
X141237143Y-68714819D01*
X141713333Y-69333866D02*
X142475238Y-69333866D01*
X143475237Y-69714819D02*
X142903809Y-69714819D01*
X143189523Y-69714819D02*
X143189523Y-68714819D01*
X143189523Y-68714819D02*
X143094285Y-68857676D01*
X143094285Y-68857676D02*
X142999047Y-68952914D01*
X142999047Y-68952914D02*
X142903809Y-69000533D01*
X144332380Y-69048152D02*
X144332380Y-69714819D01*
X144094285Y-68667200D02*
X143856190Y-69381485D01*
X143856190Y-69381485D02*
X144475237Y-69381485D01*
X144999047Y-69143390D02*
X144903809Y-69095771D01*
X144903809Y-69095771D02*
X144856190Y-69048152D01*
X144856190Y-69048152D02*
X144808571Y-68952914D01*
X144808571Y-68952914D02*
X144808571Y-68905295D01*
X144808571Y-68905295D02*
X144856190Y-68810057D01*
X144856190Y-68810057D02*
X144903809Y-68762438D01*
X144903809Y-68762438D02*
X144999047Y-68714819D01*
X144999047Y-68714819D02*
X145189523Y-68714819D01*
X145189523Y-68714819D02*
X145284761Y-68762438D01*
X145284761Y-68762438D02*
X145332380Y-68810057D01*
X145332380Y-68810057D02*
X145379999Y-68905295D01*
X145379999Y-68905295D02*
X145379999Y-68952914D01*
X145379999Y-68952914D02*
X145332380Y-69048152D01*
X145332380Y-69048152D02*
X145284761Y-69095771D01*
X145284761Y-69095771D02*
X145189523Y-69143390D01*
X145189523Y-69143390D02*
X144999047Y-69143390D01*
X144999047Y-69143390D02*
X144903809Y-69191009D01*
X144903809Y-69191009D02*
X144856190Y-69238628D01*
X144856190Y-69238628D02*
X144808571Y-69333866D01*
X144808571Y-69333866D02*
X144808571Y-69524342D01*
X144808571Y-69524342D02*
X144856190Y-69619580D01*
X144856190Y-69619580D02*
X144903809Y-69667200D01*
X144903809Y-69667200D02*
X144999047Y-69714819D01*
X144999047Y-69714819D02*
X145189523Y-69714819D01*
X145189523Y-69714819D02*
X145284761Y-69667200D01*
X145284761Y-69667200D02*
X145332380Y-69619580D01*
X145332380Y-69619580D02*
X145379999Y-69524342D01*
X145379999Y-69524342D02*
X145379999Y-69333866D01*
X145379999Y-69333866D02*
X145332380Y-69238628D01*
X145332380Y-69238628D02*
X145284761Y-69191009D01*
X145284761Y-69191009D02*
X145189523Y-69143390D01*
X145808571Y-69333866D02*
X146570476Y-69333866D01*
X146999047Y-68810057D02*
X147046666Y-68762438D01*
X147046666Y-68762438D02*
X147141904Y-68714819D01*
X147141904Y-68714819D02*
X147379999Y-68714819D01*
X147379999Y-68714819D02*
X147475237Y-68762438D01*
X147475237Y-68762438D02*
X147522856Y-68810057D01*
X147522856Y-68810057D02*
X147570475Y-68905295D01*
X147570475Y-68905295D02*
X147570475Y-69000533D01*
X147570475Y-69000533D02*
X147522856Y-69143390D01*
X147522856Y-69143390D02*
X146951428Y-69714819D01*
X146951428Y-69714819D02*
X147570475Y-69714819D01*
X148427618Y-69048152D02*
X148427618Y-69714819D01*
X148189523Y-68667200D02*
X147951428Y-69381485D01*
X147951428Y-69381485D02*
X148570475Y-69381485D01*
X148951428Y-69333866D02*
X149713333Y-69333866D01*
X150237142Y-69714819D02*
X150427618Y-69714819D01*
X150427618Y-69714819D02*
X150522856Y-69667200D01*
X150522856Y-69667200D02*
X150570475Y-69619580D01*
X150570475Y-69619580D02*
X150665713Y-69476723D01*
X150665713Y-69476723D02*
X150713332Y-69286247D01*
X150713332Y-69286247D02*
X150713332Y-68905295D01*
X150713332Y-68905295D02*
X150665713Y-68810057D01*
X150665713Y-68810057D02*
X150618094Y-68762438D01*
X150618094Y-68762438D02*
X150522856Y-68714819D01*
X150522856Y-68714819D02*
X150332380Y-68714819D01*
X150332380Y-68714819D02*
X150237142Y-68762438D01*
X150237142Y-68762438D02*
X150189523Y-68810057D01*
X150189523Y-68810057D02*
X150141904Y-68905295D01*
X150141904Y-68905295D02*
X150141904Y-69143390D01*
X150141904Y-69143390D02*
X150189523Y-69238628D01*
X150189523Y-69238628D02*
X150237142Y-69286247D01*
X150237142Y-69286247D02*
X150332380Y-69333866D01*
X150332380Y-69333866D02*
X150522856Y-69333866D01*
X150522856Y-69333866D02*
X150618094Y-69286247D01*
X150618094Y-69286247D02*
X150665713Y-69238628D01*
X150665713Y-69238628D02*
X150713332Y-69143390D01*
X151332380Y-68714819D02*
X151427618Y-68714819D01*
X151427618Y-68714819D02*
X151522856Y-68762438D01*
X151522856Y-68762438D02*
X151570475Y-68810057D01*
X151570475Y-68810057D02*
X151618094Y-68905295D01*
X151618094Y-68905295D02*
X151665713Y-69095771D01*
X151665713Y-69095771D02*
X151665713Y-69333866D01*
X151665713Y-69333866D02*
X151618094Y-69524342D01*
X151618094Y-69524342D02*
X151570475Y-69619580D01*
X151570475Y-69619580D02*
X151522856Y-69667200D01*
X151522856Y-69667200D02*
X151427618Y-69714819D01*
X151427618Y-69714819D02*
X151332380Y-69714819D01*
X151332380Y-69714819D02*
X151237142Y-69667200D01*
X151237142Y-69667200D02*
X151189523Y-69619580D01*
X151189523Y-69619580D02*
X151141904Y-69524342D01*
X151141904Y-69524342D02*
X151094285Y-69333866D01*
X151094285Y-69333866D02*
X151094285Y-69095771D01*
X151094285Y-69095771D02*
X151141904Y-68905295D01*
X151141904Y-68905295D02*
X151189523Y-68810057D01*
X151189523Y-68810057D02*
X151237142Y-68762438D01*
X151237142Y-68762438D02*
X151332380Y-68714819D01*
X151951428Y-68714819D02*
X152522856Y-68714819D01*
X152237142Y-69714819D02*
X152237142Y-68714819D01*
X152856190Y-69333866D02*
X153618095Y-69333866D01*
X154522856Y-68714819D02*
X154332380Y-68714819D01*
X154332380Y-68714819D02*
X154237142Y-68762438D01*
X154237142Y-68762438D02*
X154189523Y-68810057D01*
X154189523Y-68810057D02*
X154094285Y-68952914D01*
X154094285Y-68952914D02*
X154046666Y-69143390D01*
X154046666Y-69143390D02*
X154046666Y-69524342D01*
X154046666Y-69524342D02*
X154094285Y-69619580D01*
X154094285Y-69619580D02*
X154141904Y-69667200D01*
X154141904Y-69667200D02*
X154237142Y-69714819D01*
X154237142Y-69714819D02*
X154427618Y-69714819D01*
X154427618Y-69714819D02*
X154522856Y-69667200D01*
X154522856Y-69667200D02*
X154570475Y-69619580D01*
X154570475Y-69619580D02*
X154618094Y-69524342D01*
X154618094Y-69524342D02*
X154618094Y-69286247D01*
X154618094Y-69286247D02*
X154570475Y-69191009D01*
X154570475Y-69191009D02*
X154522856Y-69143390D01*
X154522856Y-69143390D02*
X154427618Y-69095771D01*
X154427618Y-69095771D02*
X154237142Y-69095771D01*
X154237142Y-69095771D02*
X154141904Y-69143390D01*
X154141904Y-69143390D02*
X154094285Y-69191009D01*
X154094285Y-69191009D02*
X154046666Y-69286247D01*
X154951428Y-68714819D02*
X155618094Y-68714819D01*
X155618094Y-68714819D02*
X155189523Y-69714819D01*
X150053571Y-139484819D02*
X149482143Y-139484819D01*
X149767857Y-139484819D02*
X149767857Y-138484819D01*
X149767857Y-138484819D02*
X149672619Y-138627676D01*
X149672619Y-138627676D02*
X149577381Y-138722914D01*
X149577381Y-138722914D02*
X149482143Y-138770533D01*
X150672619Y-138484819D02*
X150767857Y-138484819D01*
X150767857Y-138484819D02*
X150863095Y-138532438D01*
X150863095Y-138532438D02*
X150910714Y-138580057D01*
X150910714Y-138580057D02*
X150958333Y-138675295D01*
X150958333Y-138675295D02*
X151005952Y-138865771D01*
X151005952Y-138865771D02*
X151005952Y-139103866D01*
X151005952Y-139103866D02*
X150958333Y-139294342D01*
X150958333Y-139294342D02*
X150910714Y-139389580D01*
X150910714Y-139389580D02*
X150863095Y-139437200D01*
X150863095Y-139437200D02*
X150767857Y-139484819D01*
X150767857Y-139484819D02*
X150672619Y-139484819D01*
X150672619Y-139484819D02*
X150577381Y-139437200D01*
X150577381Y-139437200D02*
X150529762Y-139389580D01*
X150529762Y-139389580D02*
X150482143Y-139294342D01*
X150482143Y-139294342D02*
X150434524Y-139103866D01*
X150434524Y-139103866D02*
X150434524Y-138865771D01*
X150434524Y-138865771D02*
X150482143Y-138675295D01*
X150482143Y-138675295D02*
X150529762Y-138580057D01*
X150529762Y-138580057D02*
X150577381Y-138532438D01*
X150577381Y-138532438D02*
X150672619Y-138484819D01*
X151625000Y-138484819D02*
X151720238Y-138484819D01*
X151720238Y-138484819D02*
X151815476Y-138532438D01*
X151815476Y-138532438D02*
X151863095Y-138580057D01*
X151863095Y-138580057D02*
X151910714Y-138675295D01*
X151910714Y-138675295D02*
X151958333Y-138865771D01*
X151958333Y-138865771D02*
X151958333Y-139103866D01*
X151958333Y-139103866D02*
X151910714Y-139294342D01*
X151910714Y-139294342D02*
X151863095Y-139389580D01*
X151863095Y-139389580D02*
X151815476Y-139437200D01*
X151815476Y-139437200D02*
X151720238Y-139484819D01*
X151720238Y-139484819D02*
X151625000Y-139484819D01*
X151625000Y-139484819D02*
X151529762Y-139437200D01*
X151529762Y-139437200D02*
X151482143Y-139389580D01*
X151482143Y-139389580D02*
X151434524Y-139294342D01*
X151434524Y-139294342D02*
X151386905Y-139103866D01*
X151386905Y-139103866D02*
X151386905Y-138865771D01*
X151386905Y-138865771D02*
X151434524Y-138675295D01*
X151434524Y-138675295D02*
X151482143Y-138580057D01*
X151482143Y-138580057D02*
X151529762Y-138532438D01*
X151529762Y-138532438D02*
X151625000Y-138484819D01*
X152386905Y-139484819D02*
X152386905Y-138484819D01*
X152482143Y-139103866D02*
X152767857Y-139484819D01*
X152767857Y-138818152D02*
X152386905Y-139199104D01*
D11*
X151058333Y-137781927D02*
X150925000Y-137591451D01*
X150829762Y-137781927D02*
X150829762Y-137381927D01*
X150829762Y-137381927D02*
X150982143Y-137381927D01*
X150982143Y-137381927D02*
X151020238Y-137400975D01*
X151020238Y-137400975D02*
X151039285Y-137420022D01*
X151039285Y-137420022D02*
X151058333Y-137458118D01*
X151058333Y-137458118D02*
X151058333Y-137515260D01*
X151058333Y-137515260D02*
X151039285Y-137553356D01*
X151039285Y-137553356D02*
X151020238Y-137572403D01*
X151020238Y-137572403D02*
X150982143Y-137591451D01*
X150982143Y-137591451D02*
X150829762Y-137591451D01*
X151439285Y-137781927D02*
X151210714Y-137781927D01*
X151325000Y-137781927D02*
X151325000Y-137381927D01*
X151325000Y-137381927D02*
X151286904Y-137439070D01*
X151286904Y-137439070D02*
X151248809Y-137477165D01*
X151248809Y-137477165D02*
X151210714Y-137496213D01*
D10*
X142879761Y-92384819D02*
X142308333Y-92384819D01*
X142594047Y-92384819D02*
X142594047Y-91384819D01*
X142594047Y-91384819D02*
X142498809Y-91527676D01*
X142498809Y-91527676D02*
X142403571Y-91622914D01*
X142403571Y-91622914D02*
X142308333Y-91670533D01*
X143498809Y-91384819D02*
X143594047Y-91384819D01*
X143594047Y-91384819D02*
X143689285Y-91432438D01*
X143689285Y-91432438D02*
X143736904Y-91480057D01*
X143736904Y-91480057D02*
X143784523Y-91575295D01*
X143784523Y-91575295D02*
X143832142Y-91765771D01*
X143832142Y-91765771D02*
X143832142Y-92003866D01*
X143832142Y-92003866D02*
X143784523Y-92194342D01*
X143784523Y-92194342D02*
X143736904Y-92289580D01*
X143736904Y-92289580D02*
X143689285Y-92337200D01*
X143689285Y-92337200D02*
X143594047Y-92384819D01*
X143594047Y-92384819D02*
X143498809Y-92384819D01*
X143498809Y-92384819D02*
X143403571Y-92337200D01*
X143403571Y-92337200D02*
X143355952Y-92289580D01*
X143355952Y-92289580D02*
X143308333Y-92194342D01*
X143308333Y-92194342D02*
X143260714Y-92003866D01*
X143260714Y-92003866D02*
X143260714Y-91765771D01*
X143260714Y-91765771D02*
X143308333Y-91575295D01*
X143308333Y-91575295D02*
X143355952Y-91480057D01*
X143355952Y-91480057D02*
X143403571Y-91432438D01*
X143403571Y-91432438D02*
X143498809Y-91384819D01*
X144260714Y-92384819D02*
X144260714Y-91384819D01*
X144355952Y-92003866D02*
X144641666Y-92384819D01*
X144641666Y-91718152D02*
X144260714Y-92099104D01*
D11*
X143408333Y-90681927D02*
X143275000Y-90491451D01*
X143179762Y-90681927D02*
X143179762Y-90281927D01*
X143179762Y-90281927D02*
X143332143Y-90281927D01*
X143332143Y-90281927D02*
X143370238Y-90300975D01*
X143370238Y-90300975D02*
X143389285Y-90320022D01*
X143389285Y-90320022D02*
X143408333Y-90358118D01*
X143408333Y-90358118D02*
X143408333Y-90415260D01*
X143408333Y-90415260D02*
X143389285Y-90453356D01*
X143389285Y-90453356D02*
X143370238Y-90472403D01*
X143370238Y-90472403D02*
X143332143Y-90491451D01*
X143332143Y-90491451D02*
X143179762Y-90491451D01*
X143636904Y-90453356D02*
X143598809Y-90434308D01*
X143598809Y-90434308D02*
X143579762Y-90415260D01*
X143579762Y-90415260D02*
X143560714Y-90377165D01*
X143560714Y-90377165D02*
X143560714Y-90358118D01*
X143560714Y-90358118D02*
X143579762Y-90320022D01*
X143579762Y-90320022D02*
X143598809Y-90300975D01*
X143598809Y-90300975D02*
X143636904Y-90281927D01*
X143636904Y-90281927D02*
X143713095Y-90281927D01*
X143713095Y-90281927D02*
X143751190Y-90300975D01*
X143751190Y-90300975D02*
X143770238Y-90320022D01*
X143770238Y-90320022D02*
X143789285Y-90358118D01*
X143789285Y-90358118D02*
X143789285Y-90377165D01*
X143789285Y-90377165D02*
X143770238Y-90415260D01*
X143770238Y-90415260D02*
X143751190Y-90434308D01*
X143751190Y-90434308D02*
X143713095Y-90453356D01*
X143713095Y-90453356D02*
X143636904Y-90453356D01*
X143636904Y-90453356D02*
X143598809Y-90472403D01*
X143598809Y-90472403D02*
X143579762Y-90491451D01*
X143579762Y-90491451D02*
X143560714Y-90529546D01*
X143560714Y-90529546D02*
X143560714Y-90605737D01*
X143560714Y-90605737D02*
X143579762Y-90643832D01*
X143579762Y-90643832D02*
X143598809Y-90662880D01*
X143598809Y-90662880D02*
X143636904Y-90681927D01*
X143636904Y-90681927D02*
X143713095Y-90681927D01*
X143713095Y-90681927D02*
X143751190Y-90662880D01*
X143751190Y-90662880D02*
X143770238Y-90643832D01*
X143770238Y-90643832D02*
X143789285Y-90605737D01*
X143789285Y-90605737D02*
X143789285Y-90529546D01*
X143789285Y-90529546D02*
X143770238Y-90491451D01*
X143770238Y-90491451D02*
X143751190Y-90472403D01*
X143751190Y-90472403D02*
X143713095Y-90453356D01*
D10*
X181677380Y-105284819D02*
X181105952Y-105284819D01*
X181391666Y-105284819D02*
X181391666Y-104284819D01*
X181391666Y-104284819D02*
X181296428Y-104427676D01*
X181296428Y-104427676D02*
X181201190Y-104522914D01*
X181201190Y-104522914D02*
X181105952Y-104570533D01*
X182296428Y-104284819D02*
X182391666Y-104284819D01*
X182391666Y-104284819D02*
X182486904Y-104332438D01*
X182486904Y-104332438D02*
X182534523Y-104380057D01*
X182534523Y-104380057D02*
X182582142Y-104475295D01*
X182582142Y-104475295D02*
X182629761Y-104665771D01*
X182629761Y-104665771D02*
X182629761Y-104903866D01*
X182629761Y-104903866D02*
X182582142Y-105094342D01*
X182582142Y-105094342D02*
X182534523Y-105189580D01*
X182534523Y-105189580D02*
X182486904Y-105237200D01*
X182486904Y-105237200D02*
X182391666Y-105284819D01*
X182391666Y-105284819D02*
X182296428Y-105284819D01*
X182296428Y-105284819D02*
X182201190Y-105237200D01*
X182201190Y-105237200D02*
X182153571Y-105189580D01*
X182153571Y-105189580D02*
X182105952Y-105094342D01*
X182105952Y-105094342D02*
X182058333Y-104903866D01*
X182058333Y-104903866D02*
X182058333Y-104665771D01*
X182058333Y-104665771D02*
X182105952Y-104475295D01*
X182105952Y-104475295D02*
X182153571Y-104380057D01*
X182153571Y-104380057D02*
X182201190Y-104332438D01*
X182201190Y-104332438D02*
X182296428Y-104284819D01*
X183248809Y-104284819D02*
X183344047Y-104284819D01*
X183344047Y-104284819D02*
X183439285Y-104332438D01*
X183439285Y-104332438D02*
X183486904Y-104380057D01*
X183486904Y-104380057D02*
X183534523Y-104475295D01*
X183534523Y-104475295D02*
X183582142Y-104665771D01*
X183582142Y-104665771D02*
X183582142Y-104903866D01*
X183582142Y-104903866D02*
X183534523Y-105094342D01*
X183534523Y-105094342D02*
X183486904Y-105189580D01*
X183486904Y-105189580D02*
X183439285Y-105237200D01*
X183439285Y-105237200D02*
X183344047Y-105284819D01*
X183344047Y-105284819D02*
X183248809Y-105284819D01*
X183248809Y-105284819D02*
X183153571Y-105237200D01*
X183153571Y-105237200D02*
X183105952Y-105189580D01*
X183105952Y-105189580D02*
X183058333Y-105094342D01*
X183058333Y-105094342D02*
X183010714Y-104903866D01*
X183010714Y-104903866D02*
X183010714Y-104665771D01*
X183010714Y-104665771D02*
X183058333Y-104475295D01*
X183058333Y-104475295D02*
X183105952Y-104380057D01*
X183105952Y-104380057D02*
X183153571Y-104332438D01*
X183153571Y-104332438D02*
X183248809Y-104284819D01*
X184010714Y-104618152D02*
X184010714Y-105284819D01*
X184010714Y-104713390D02*
X184058333Y-104665771D01*
X184058333Y-104665771D02*
X184153571Y-104618152D01*
X184153571Y-104618152D02*
X184296428Y-104618152D01*
X184296428Y-104618152D02*
X184391666Y-104665771D01*
X184391666Y-104665771D02*
X184439285Y-104761009D01*
X184439285Y-104761009D02*
X184439285Y-105284819D01*
X185248809Y-104761009D02*
X184915476Y-104761009D01*
X184915476Y-105284819D02*
X184915476Y-104284819D01*
X184915476Y-104284819D02*
X185391666Y-104284819D01*
D11*
X182967857Y-103543832D02*
X182948809Y-103562880D01*
X182948809Y-103562880D02*
X182891667Y-103581927D01*
X182891667Y-103581927D02*
X182853571Y-103581927D01*
X182853571Y-103581927D02*
X182796428Y-103562880D01*
X182796428Y-103562880D02*
X182758333Y-103524784D01*
X182758333Y-103524784D02*
X182739286Y-103486689D01*
X182739286Y-103486689D02*
X182720238Y-103410499D01*
X182720238Y-103410499D02*
X182720238Y-103353356D01*
X182720238Y-103353356D02*
X182739286Y-103277165D01*
X182739286Y-103277165D02*
X182758333Y-103239070D01*
X182758333Y-103239070D02*
X182796428Y-103200975D01*
X182796428Y-103200975D02*
X182853571Y-103181927D01*
X182853571Y-103181927D02*
X182891667Y-103181927D01*
X182891667Y-103181927D02*
X182948809Y-103200975D01*
X182948809Y-103200975D02*
X182967857Y-103220022D01*
X183348809Y-103581927D02*
X183120238Y-103581927D01*
X183234524Y-103581927D02*
X183234524Y-103181927D01*
X183234524Y-103181927D02*
X183196428Y-103239070D01*
X183196428Y-103239070D02*
X183158333Y-103277165D01*
X183158333Y-103277165D02*
X183120238Y-103296213D01*
X183710714Y-103181927D02*
X183520238Y-103181927D01*
X183520238Y-103181927D02*
X183501190Y-103372403D01*
X183501190Y-103372403D02*
X183520238Y-103353356D01*
X183520238Y-103353356D02*
X183558333Y-103334308D01*
X183558333Y-103334308D02*
X183653571Y-103334308D01*
X183653571Y-103334308D02*
X183691666Y-103353356D01*
X183691666Y-103353356D02*
X183710714Y-103372403D01*
X183710714Y-103372403D02*
X183729761Y-103410499D01*
X183729761Y-103410499D02*
X183729761Y-103505737D01*
X183729761Y-103505737D02*
X183710714Y-103543832D01*
X183710714Y-103543832D02*
X183691666Y-103562880D01*
X183691666Y-103562880D02*
X183653571Y-103581927D01*
X183653571Y-103581927D02*
X183558333Y-103581927D01*
X183558333Y-103581927D02*
X183520238Y-103562880D01*
X183520238Y-103562880D02*
X183501190Y-103543832D01*
D10*
X173774819Y-62122619D02*
X173774819Y-62694047D01*
X173774819Y-62408333D02*
X172774819Y-62408333D01*
X172774819Y-62408333D02*
X172917676Y-62503571D01*
X172917676Y-62503571D02*
X173012914Y-62598809D01*
X173012914Y-62598809D02*
X173060533Y-62694047D01*
X172774819Y-61503571D02*
X172774819Y-61408333D01*
X172774819Y-61408333D02*
X172822438Y-61313095D01*
X172822438Y-61313095D02*
X172870057Y-61265476D01*
X172870057Y-61265476D02*
X172965295Y-61217857D01*
X172965295Y-61217857D02*
X173155771Y-61170238D01*
X173155771Y-61170238D02*
X173393866Y-61170238D01*
X173393866Y-61170238D02*
X173584342Y-61217857D01*
X173584342Y-61217857D02*
X173679580Y-61265476D01*
X173679580Y-61265476D02*
X173727200Y-61313095D01*
X173727200Y-61313095D02*
X173774819Y-61408333D01*
X173774819Y-61408333D02*
X173774819Y-61503571D01*
X173774819Y-61503571D02*
X173727200Y-61598809D01*
X173727200Y-61598809D02*
X173679580Y-61646428D01*
X173679580Y-61646428D02*
X173584342Y-61694047D01*
X173584342Y-61694047D02*
X173393866Y-61741666D01*
X173393866Y-61741666D02*
X173155771Y-61741666D01*
X173155771Y-61741666D02*
X172965295Y-61694047D01*
X172965295Y-61694047D02*
X172870057Y-61646428D01*
X172870057Y-61646428D02*
X172822438Y-61598809D01*
X172822438Y-61598809D02*
X172774819Y-61503571D01*
X172774819Y-60551190D02*
X172774819Y-60455952D01*
X172774819Y-60455952D02*
X172822438Y-60360714D01*
X172822438Y-60360714D02*
X172870057Y-60313095D01*
X172870057Y-60313095D02*
X172965295Y-60265476D01*
X172965295Y-60265476D02*
X173155771Y-60217857D01*
X173155771Y-60217857D02*
X173393866Y-60217857D01*
X173393866Y-60217857D02*
X173584342Y-60265476D01*
X173584342Y-60265476D02*
X173679580Y-60313095D01*
X173679580Y-60313095D02*
X173727200Y-60360714D01*
X173727200Y-60360714D02*
X173774819Y-60455952D01*
X173774819Y-60455952D02*
X173774819Y-60551190D01*
X173774819Y-60551190D02*
X173727200Y-60646428D01*
X173727200Y-60646428D02*
X173679580Y-60694047D01*
X173679580Y-60694047D02*
X173584342Y-60741666D01*
X173584342Y-60741666D02*
X173393866Y-60789285D01*
X173393866Y-60789285D02*
X173155771Y-60789285D01*
X173155771Y-60789285D02*
X172965295Y-60741666D01*
X172965295Y-60741666D02*
X172870057Y-60694047D01*
X172870057Y-60694047D02*
X172822438Y-60646428D01*
X172822438Y-60646428D02*
X172774819Y-60551190D01*
X173108152Y-59789285D02*
X173774819Y-59789285D01*
X173203390Y-59789285D02*
X173155771Y-59741666D01*
X173155771Y-59741666D02*
X173108152Y-59646428D01*
X173108152Y-59646428D02*
X173108152Y-59503571D01*
X173108152Y-59503571D02*
X173155771Y-59408333D01*
X173155771Y-59408333D02*
X173251009Y-59360714D01*
X173251009Y-59360714D02*
X173774819Y-59360714D01*
X173251009Y-58551190D02*
X173251009Y-58884523D01*
X173774819Y-58884523D02*
X172774819Y-58884523D01*
X172774819Y-58884523D02*
X172774819Y-58408333D01*
D11*
X174893832Y-60641666D02*
X174912880Y-60660714D01*
X174912880Y-60660714D02*
X174931927Y-60717856D01*
X174931927Y-60717856D02*
X174931927Y-60755952D01*
X174931927Y-60755952D02*
X174912880Y-60813095D01*
X174912880Y-60813095D02*
X174874784Y-60851190D01*
X174874784Y-60851190D02*
X174836689Y-60870237D01*
X174836689Y-60870237D02*
X174760499Y-60889285D01*
X174760499Y-60889285D02*
X174703356Y-60889285D01*
X174703356Y-60889285D02*
X174627165Y-60870237D01*
X174627165Y-60870237D02*
X174589070Y-60851190D01*
X174589070Y-60851190D02*
X174550975Y-60813095D01*
X174550975Y-60813095D02*
X174531927Y-60755952D01*
X174531927Y-60755952D02*
X174531927Y-60717856D01*
X174531927Y-60717856D02*
X174550975Y-60660714D01*
X174550975Y-60660714D02*
X174570022Y-60641666D01*
X174531927Y-60298809D02*
X174531927Y-60374999D01*
X174531927Y-60374999D02*
X174550975Y-60413095D01*
X174550975Y-60413095D02*
X174570022Y-60432142D01*
X174570022Y-60432142D02*
X174627165Y-60470237D01*
X174627165Y-60470237D02*
X174703356Y-60489285D01*
X174703356Y-60489285D02*
X174855737Y-60489285D01*
X174855737Y-60489285D02*
X174893832Y-60470237D01*
X174893832Y-60470237D02*
X174912880Y-60451190D01*
X174912880Y-60451190D02*
X174931927Y-60413095D01*
X174931927Y-60413095D02*
X174931927Y-60336904D01*
X174931927Y-60336904D02*
X174912880Y-60298809D01*
X174912880Y-60298809D02*
X174893832Y-60279761D01*
X174893832Y-60279761D02*
X174855737Y-60260714D01*
X174855737Y-60260714D02*
X174760499Y-60260714D01*
X174760499Y-60260714D02*
X174722403Y-60279761D01*
X174722403Y-60279761D02*
X174703356Y-60298809D01*
X174703356Y-60298809D02*
X174684308Y-60336904D01*
X174684308Y-60336904D02*
X174684308Y-60413095D01*
X174684308Y-60413095D02*
X174703356Y-60451190D01*
X174703356Y-60451190D02*
X174722403Y-60470237D01*
X174722403Y-60470237D02*
X174760499Y-60489285D01*
D10*
X181677400Y-111704676D02*
X182043114Y-111704676D01*
X181860257Y-112344676D02*
X181860257Y-111704676D01*
X182561209Y-112344676D02*
X182256447Y-112344676D01*
X182256447Y-112344676D02*
X182256447Y-111704676D01*
X182683114Y-111704676D02*
X182896447Y-112344676D01*
X182896447Y-112344676D02*
X183109781Y-111704676D01*
X183262161Y-111704676D02*
X183688828Y-111704676D01*
X183688828Y-111704676D02*
X183414542Y-112344676D01*
X184054542Y-111704676D02*
X184115495Y-111704676D01*
X184115495Y-111704676D02*
X184176447Y-111735152D01*
X184176447Y-111735152D02*
X184206923Y-111765628D01*
X184206923Y-111765628D02*
X184237399Y-111826580D01*
X184237399Y-111826580D02*
X184267876Y-111948485D01*
X184267876Y-111948485D02*
X184267876Y-112100866D01*
X184267876Y-112100866D02*
X184237399Y-112222771D01*
X184237399Y-112222771D02*
X184206923Y-112283723D01*
X184206923Y-112283723D02*
X184176447Y-112314200D01*
X184176447Y-112314200D02*
X184115495Y-112344676D01*
X184115495Y-112344676D02*
X184054542Y-112344676D01*
X184054542Y-112344676D02*
X183993590Y-112314200D01*
X183993590Y-112314200D02*
X183963114Y-112283723D01*
X183963114Y-112283723D02*
X183932637Y-112222771D01*
X183932637Y-112222771D02*
X183902161Y-112100866D01*
X183902161Y-112100866D02*
X183902161Y-111948485D01*
X183902161Y-111948485D02*
X183932637Y-111826580D01*
X183932637Y-111826580D02*
X183963114Y-111765628D01*
X183963114Y-111765628D02*
X183993590Y-111735152D01*
X183993590Y-111735152D02*
X184054542Y-111704676D01*
X184664066Y-111704676D02*
X184725019Y-111704676D01*
X184725019Y-111704676D02*
X184785971Y-111735152D01*
X184785971Y-111735152D02*
X184816447Y-111765628D01*
X184816447Y-111765628D02*
X184846923Y-111826580D01*
X184846923Y-111826580D02*
X184877400Y-111948485D01*
X184877400Y-111948485D02*
X184877400Y-112100866D01*
X184877400Y-112100866D02*
X184846923Y-112222771D01*
X184846923Y-112222771D02*
X184816447Y-112283723D01*
X184816447Y-112283723D02*
X184785971Y-112314200D01*
X184785971Y-112314200D02*
X184725019Y-112344676D01*
X184725019Y-112344676D02*
X184664066Y-112344676D01*
X184664066Y-112344676D02*
X184603114Y-112314200D01*
X184603114Y-112314200D02*
X184572638Y-112283723D01*
X184572638Y-112283723D02*
X184542161Y-112222771D01*
X184542161Y-112222771D02*
X184511685Y-112100866D01*
X184511685Y-112100866D02*
X184511685Y-111948485D01*
X184511685Y-111948485D02*
X184542161Y-111826580D01*
X184542161Y-111826580D02*
X184572638Y-111765628D01*
X184572638Y-111765628D02*
X184603114Y-111735152D01*
X184603114Y-111735152D02*
X184664066Y-111704676D01*
X185090733Y-111704676D02*
X185486924Y-111704676D01*
X185486924Y-111704676D02*
X185273590Y-111948485D01*
X185273590Y-111948485D02*
X185365019Y-111948485D01*
X185365019Y-111948485D02*
X185425971Y-111978961D01*
X185425971Y-111978961D02*
X185456447Y-112009438D01*
X185456447Y-112009438D02*
X185486924Y-112070390D01*
X185486924Y-112070390D02*
X185486924Y-112222771D01*
X185486924Y-112222771D02*
X185456447Y-112283723D01*
X185456447Y-112283723D02*
X185425971Y-112314200D01*
X185425971Y-112314200D02*
X185365019Y-112344676D01*
X185365019Y-112344676D02*
X185182162Y-112344676D01*
X185182162Y-112344676D02*
X185121209Y-112314200D01*
X185121209Y-112314200D02*
X185090733Y-112283723D01*
X185700257Y-111704676D02*
X186096448Y-111704676D01*
X186096448Y-111704676D02*
X185883114Y-111948485D01*
X185883114Y-111948485D02*
X185974543Y-111948485D01*
X185974543Y-111948485D02*
X186035495Y-111978961D01*
X186035495Y-111978961D02*
X186065971Y-112009438D01*
X186065971Y-112009438D02*
X186096448Y-112070390D01*
X186096448Y-112070390D02*
X186096448Y-112222771D01*
X186096448Y-112222771D02*
X186065971Y-112283723D01*
X186065971Y-112283723D02*
X186035495Y-112314200D01*
X186035495Y-112314200D02*
X185974543Y-112344676D01*
X185974543Y-112344676D02*
X185791686Y-112344676D01*
X185791686Y-112344676D02*
X185730733Y-112314200D01*
X185730733Y-112314200D02*
X185700257Y-112283723D01*
X186370733Y-112344676D02*
X186370733Y-111704676D01*
X186370733Y-111704676D02*
X186523114Y-111704676D01*
X186523114Y-111704676D02*
X186614543Y-111735152D01*
X186614543Y-111735152D02*
X186675495Y-111796104D01*
X186675495Y-111796104D02*
X186705972Y-111857057D01*
X186705972Y-111857057D02*
X186736448Y-111978961D01*
X186736448Y-111978961D02*
X186736448Y-112070390D01*
X186736448Y-112070390D02*
X186705972Y-112192295D01*
X186705972Y-112192295D02*
X186675495Y-112253247D01*
X186675495Y-112253247D02*
X186614543Y-112314200D01*
X186614543Y-112314200D02*
X186523114Y-112344676D01*
X186523114Y-112344676D02*
X186370733Y-112344676D01*
X187010733Y-112344676D02*
X187010733Y-111704676D01*
X187010733Y-111704676D02*
X187163114Y-111704676D01*
X187163114Y-111704676D02*
X187254543Y-111735152D01*
X187254543Y-111735152D02*
X187315495Y-111796104D01*
X187315495Y-111796104D02*
X187345972Y-111857057D01*
X187345972Y-111857057D02*
X187376448Y-111978961D01*
X187376448Y-111978961D02*
X187376448Y-112070390D01*
X187376448Y-112070390D02*
X187345972Y-112192295D01*
X187345972Y-112192295D02*
X187315495Y-112253247D01*
X187315495Y-112253247D02*
X187254543Y-112314200D01*
X187254543Y-112314200D02*
X187163114Y-112344676D01*
X187163114Y-112344676D02*
X187010733Y-112344676D01*
X188016448Y-112283723D02*
X187985972Y-112314200D01*
X187985972Y-112314200D02*
X187894543Y-112344676D01*
X187894543Y-112344676D02*
X187833591Y-112344676D01*
X187833591Y-112344676D02*
X187742162Y-112314200D01*
X187742162Y-112314200D02*
X187681210Y-112253247D01*
X187681210Y-112253247D02*
X187650733Y-112192295D01*
X187650733Y-112192295D02*
X187620257Y-112070390D01*
X187620257Y-112070390D02*
X187620257Y-111978961D01*
X187620257Y-111978961D02*
X187650733Y-111857057D01*
X187650733Y-111857057D02*
X187681210Y-111796104D01*
X187681210Y-111796104D02*
X187742162Y-111735152D01*
X187742162Y-111735152D02*
X187833591Y-111704676D01*
X187833591Y-111704676D02*
X187894543Y-111704676D01*
X187894543Y-111704676D02*
X187985972Y-111735152D01*
X187985972Y-111735152D02*
X188016448Y-111765628D01*
X188656448Y-112344676D02*
X188443114Y-112039914D01*
X188290733Y-112344676D02*
X188290733Y-111704676D01*
X188290733Y-111704676D02*
X188534543Y-111704676D01*
X188534543Y-111704676D02*
X188595495Y-111735152D01*
X188595495Y-111735152D02*
X188625972Y-111765628D01*
X188625972Y-111765628D02*
X188656448Y-111826580D01*
X188656448Y-111826580D02*
X188656448Y-111918009D01*
X188656448Y-111918009D02*
X188625972Y-111978961D01*
X188625972Y-111978961D02*
X188595495Y-112009438D01*
X188595495Y-112009438D02*
X188534543Y-112039914D01*
X188534543Y-112039914D02*
X188290733Y-112039914D01*
X169649819Y-111247619D02*
X169649819Y-111819047D01*
X169649819Y-111533333D02*
X168649819Y-111533333D01*
X168649819Y-111533333D02*
X168792676Y-111628571D01*
X168792676Y-111628571D02*
X168887914Y-111723809D01*
X168887914Y-111723809D02*
X168935533Y-111819047D01*
X168983152Y-110057142D02*
X169983152Y-110057142D01*
X169506961Y-109580952D02*
X169602200Y-109533333D01*
X169602200Y-109533333D02*
X169649819Y-109438095D01*
X169506961Y-110057142D02*
X169602200Y-110009523D01*
X169602200Y-110009523D02*
X169649819Y-109914285D01*
X169649819Y-109914285D02*
X169649819Y-109723809D01*
X169649819Y-109723809D02*
X169602200Y-109628571D01*
X169602200Y-109628571D02*
X169506961Y-109580952D01*
X169506961Y-109580952D02*
X168983152Y-109580952D01*
X169126009Y-108676190D02*
X169126009Y-109009523D01*
X169649819Y-109009523D02*
X168649819Y-109009523D01*
X168649819Y-109009523D02*
X168649819Y-108533333D01*
D11*
X170768832Y-110266666D02*
X170787880Y-110285714D01*
X170787880Y-110285714D02*
X170806927Y-110342856D01*
X170806927Y-110342856D02*
X170806927Y-110380952D01*
X170806927Y-110380952D02*
X170787880Y-110438095D01*
X170787880Y-110438095D02*
X170749784Y-110476190D01*
X170749784Y-110476190D02*
X170711689Y-110495237D01*
X170711689Y-110495237D02*
X170635499Y-110514285D01*
X170635499Y-110514285D02*
X170578356Y-110514285D01*
X170578356Y-110514285D02*
X170502165Y-110495237D01*
X170502165Y-110495237D02*
X170464070Y-110476190D01*
X170464070Y-110476190D02*
X170425975Y-110438095D01*
X170425975Y-110438095D02*
X170406927Y-110380952D01*
X170406927Y-110380952D02*
X170406927Y-110342856D01*
X170406927Y-110342856D02*
X170425975Y-110285714D01*
X170425975Y-110285714D02*
X170445022Y-110266666D01*
X170406927Y-110133333D02*
X170406927Y-109885714D01*
X170406927Y-109885714D02*
X170559308Y-110019047D01*
X170559308Y-110019047D02*
X170559308Y-109961904D01*
X170559308Y-109961904D02*
X170578356Y-109923809D01*
X170578356Y-109923809D02*
X170597403Y-109904761D01*
X170597403Y-109904761D02*
X170635499Y-109885714D01*
X170635499Y-109885714D02*
X170730737Y-109885714D01*
X170730737Y-109885714D02*
X170768832Y-109904761D01*
X170768832Y-109904761D02*
X170787880Y-109923809D01*
X170787880Y-109923809D02*
X170806927Y-109961904D01*
X170806927Y-109961904D02*
X170806927Y-110076190D01*
X170806927Y-110076190D02*
X170787880Y-110114285D01*
X170787880Y-110114285D02*
X170768832Y-110133333D01*
D10*
X127006188Y-111014580D02*
X126958569Y-111062200D01*
X126958569Y-111062200D02*
X126815712Y-111109819D01*
X126815712Y-111109819D02*
X126720474Y-111109819D01*
X126720474Y-111109819D02*
X126577617Y-111062200D01*
X126577617Y-111062200D02*
X126482379Y-110966961D01*
X126482379Y-110966961D02*
X126434760Y-110871723D01*
X126434760Y-110871723D02*
X126387141Y-110681247D01*
X126387141Y-110681247D02*
X126387141Y-110538390D01*
X126387141Y-110538390D02*
X126434760Y-110347914D01*
X126434760Y-110347914D02*
X126482379Y-110252676D01*
X126482379Y-110252676D02*
X126577617Y-110157438D01*
X126577617Y-110157438D02*
X126720474Y-110109819D01*
X126720474Y-110109819D02*
X126815712Y-110109819D01*
X126815712Y-110109819D02*
X126958569Y-110157438D01*
X126958569Y-110157438D02*
X127006188Y-110205057D01*
X127577617Y-111109819D02*
X127482379Y-111062200D01*
X127482379Y-111062200D02*
X127434760Y-111014580D01*
X127434760Y-111014580D02*
X127387141Y-110919342D01*
X127387141Y-110919342D02*
X127387141Y-110633628D01*
X127387141Y-110633628D02*
X127434760Y-110538390D01*
X127434760Y-110538390D02*
X127482379Y-110490771D01*
X127482379Y-110490771D02*
X127577617Y-110443152D01*
X127577617Y-110443152D02*
X127720474Y-110443152D01*
X127720474Y-110443152D02*
X127815712Y-110490771D01*
X127815712Y-110490771D02*
X127863331Y-110538390D01*
X127863331Y-110538390D02*
X127910950Y-110633628D01*
X127910950Y-110633628D02*
X127910950Y-110919342D01*
X127910950Y-110919342D02*
X127863331Y-111014580D01*
X127863331Y-111014580D02*
X127815712Y-111062200D01*
X127815712Y-111062200D02*
X127720474Y-111109819D01*
X127720474Y-111109819D02*
X127577617Y-111109819D01*
X128339522Y-110443152D02*
X128339522Y-111109819D01*
X128339522Y-110538390D02*
X128387141Y-110490771D01*
X128387141Y-110490771D02*
X128482379Y-110443152D01*
X128482379Y-110443152D02*
X128625236Y-110443152D01*
X128625236Y-110443152D02*
X128720474Y-110490771D01*
X128720474Y-110490771D02*
X128768093Y-110586009D01*
X128768093Y-110586009D02*
X128768093Y-111109819D01*
X129244284Y-110443152D02*
X129244284Y-111109819D01*
X129244284Y-110538390D02*
X129291903Y-110490771D01*
X129291903Y-110490771D02*
X129387141Y-110443152D01*
X129387141Y-110443152D02*
X129529998Y-110443152D01*
X129529998Y-110443152D02*
X129625236Y-110490771D01*
X129625236Y-110490771D02*
X129672855Y-110586009D01*
X129672855Y-110586009D02*
X129672855Y-111109819D01*
X129910951Y-111205057D02*
X130672855Y-111205057D01*
X131101427Y-110109819D02*
X131196665Y-110109819D01*
X131196665Y-110109819D02*
X131291903Y-110157438D01*
X131291903Y-110157438D02*
X131339522Y-110205057D01*
X131339522Y-110205057D02*
X131387141Y-110300295D01*
X131387141Y-110300295D02*
X131434760Y-110490771D01*
X131434760Y-110490771D02*
X131434760Y-110728866D01*
X131434760Y-110728866D02*
X131387141Y-110919342D01*
X131387141Y-110919342D02*
X131339522Y-111014580D01*
X131339522Y-111014580D02*
X131291903Y-111062200D01*
X131291903Y-111062200D02*
X131196665Y-111109819D01*
X131196665Y-111109819D02*
X131101427Y-111109819D01*
X131101427Y-111109819D02*
X131006189Y-111062200D01*
X131006189Y-111062200D02*
X130958570Y-111014580D01*
X130958570Y-111014580D02*
X130910951Y-110919342D01*
X130910951Y-110919342D02*
X130863332Y-110728866D01*
X130863332Y-110728866D02*
X130863332Y-110490771D01*
X130863332Y-110490771D02*
X130910951Y-110300295D01*
X130910951Y-110300295D02*
X130958570Y-110205057D01*
X130958570Y-110205057D02*
X131006189Y-110157438D01*
X131006189Y-110157438D02*
X131101427Y-110109819D01*
X131815713Y-110205057D02*
X131863332Y-110157438D01*
X131863332Y-110157438D02*
X131958570Y-110109819D01*
X131958570Y-110109819D02*
X132196665Y-110109819D01*
X132196665Y-110109819D02*
X132291903Y-110157438D01*
X132291903Y-110157438D02*
X132339522Y-110205057D01*
X132339522Y-110205057D02*
X132387141Y-110300295D01*
X132387141Y-110300295D02*
X132387141Y-110395533D01*
X132387141Y-110395533D02*
X132339522Y-110538390D01*
X132339522Y-110538390D02*
X131768094Y-111109819D01*
X131768094Y-111109819D02*
X132387141Y-111109819D01*
X132720475Y-111109819D02*
X133244284Y-110443152D01*
X132720475Y-110443152D02*
X133244284Y-111109819D01*
X133815713Y-110109819D02*
X133910951Y-110109819D01*
X133910951Y-110109819D02*
X134006189Y-110157438D01*
X134006189Y-110157438D02*
X134053808Y-110205057D01*
X134053808Y-110205057D02*
X134101427Y-110300295D01*
X134101427Y-110300295D02*
X134149046Y-110490771D01*
X134149046Y-110490771D02*
X134149046Y-110728866D01*
X134149046Y-110728866D02*
X134101427Y-110919342D01*
X134101427Y-110919342D02*
X134053808Y-111014580D01*
X134053808Y-111014580D02*
X134006189Y-111062200D01*
X134006189Y-111062200D02*
X133910951Y-111109819D01*
X133910951Y-111109819D02*
X133815713Y-111109819D01*
X133815713Y-111109819D02*
X133720475Y-111062200D01*
X133720475Y-111062200D02*
X133672856Y-111014580D01*
X133672856Y-111014580D02*
X133625237Y-110919342D01*
X133625237Y-110919342D02*
X133577618Y-110728866D01*
X133577618Y-110728866D02*
X133577618Y-110490771D01*
X133577618Y-110490771D02*
X133625237Y-110300295D01*
X133625237Y-110300295D02*
X133672856Y-110205057D01*
X133672856Y-110205057D02*
X133720475Y-110157438D01*
X133720475Y-110157438D02*
X133815713Y-110109819D01*
X135006189Y-110443152D02*
X135006189Y-111109819D01*
X134768094Y-110062200D02*
X134529999Y-110776485D01*
X134529999Y-110776485D02*
X135149046Y-110776485D01*
X135291904Y-111205057D02*
X136053808Y-111205057D01*
X136863332Y-111014580D02*
X136815713Y-111062200D01*
X136815713Y-111062200D02*
X136672856Y-111109819D01*
X136672856Y-111109819D02*
X136577618Y-111109819D01*
X136577618Y-111109819D02*
X136434761Y-111062200D01*
X136434761Y-111062200D02*
X136339523Y-110966961D01*
X136339523Y-110966961D02*
X136291904Y-110871723D01*
X136291904Y-110871723D02*
X136244285Y-110681247D01*
X136244285Y-110681247D02*
X136244285Y-110538390D01*
X136244285Y-110538390D02*
X136291904Y-110347914D01*
X136291904Y-110347914D02*
X136339523Y-110252676D01*
X136339523Y-110252676D02*
X136434761Y-110157438D01*
X136434761Y-110157438D02*
X136577618Y-110109819D01*
X136577618Y-110109819D02*
X136672856Y-110109819D01*
X136672856Y-110109819D02*
X136815713Y-110157438D01*
X136815713Y-110157438D02*
X136863332Y-110205057D01*
X137434761Y-111109819D02*
X137339523Y-111062200D01*
X137339523Y-111062200D02*
X137291904Y-111014580D01*
X137291904Y-111014580D02*
X137244285Y-110919342D01*
X137244285Y-110919342D02*
X137244285Y-110633628D01*
X137244285Y-110633628D02*
X137291904Y-110538390D01*
X137291904Y-110538390D02*
X137339523Y-110490771D01*
X137339523Y-110490771D02*
X137434761Y-110443152D01*
X137434761Y-110443152D02*
X137577618Y-110443152D01*
X137577618Y-110443152D02*
X137672856Y-110490771D01*
X137672856Y-110490771D02*
X137720475Y-110538390D01*
X137720475Y-110538390D02*
X137768094Y-110633628D01*
X137768094Y-110633628D02*
X137768094Y-110919342D01*
X137768094Y-110919342D02*
X137720475Y-111014580D01*
X137720475Y-111014580D02*
X137672856Y-111062200D01*
X137672856Y-111062200D02*
X137577618Y-111109819D01*
X137577618Y-111109819D02*
X137434761Y-111109819D01*
X138625237Y-110443152D02*
X138625237Y-111109819D01*
X138196666Y-110443152D02*
X138196666Y-110966961D01*
X138196666Y-110966961D02*
X138244285Y-111062200D01*
X138244285Y-111062200D02*
X138339523Y-111109819D01*
X138339523Y-111109819D02*
X138482380Y-111109819D01*
X138482380Y-111109819D02*
X138577618Y-111062200D01*
X138577618Y-111062200D02*
X138625237Y-111014580D01*
X139101428Y-110443152D02*
X139101428Y-111109819D01*
X139101428Y-110538390D02*
X139149047Y-110490771D01*
X139149047Y-110490771D02*
X139244285Y-110443152D01*
X139244285Y-110443152D02*
X139387142Y-110443152D01*
X139387142Y-110443152D02*
X139482380Y-110490771D01*
X139482380Y-110490771D02*
X139529999Y-110586009D01*
X139529999Y-110586009D02*
X139529999Y-111109819D01*
X139863333Y-110443152D02*
X140244285Y-110443152D01*
X140006190Y-110109819D02*
X140006190Y-110966961D01*
X140006190Y-110966961D02*
X140053809Y-111062200D01*
X140053809Y-111062200D02*
X140149047Y-111109819D01*
X140149047Y-111109819D02*
X140244285Y-111109819D01*
X140958571Y-111062200D02*
X140863333Y-111109819D01*
X140863333Y-111109819D02*
X140672857Y-111109819D01*
X140672857Y-111109819D02*
X140577619Y-111062200D01*
X140577619Y-111062200D02*
X140530000Y-110966961D01*
X140530000Y-110966961D02*
X140530000Y-110586009D01*
X140530000Y-110586009D02*
X140577619Y-110490771D01*
X140577619Y-110490771D02*
X140672857Y-110443152D01*
X140672857Y-110443152D02*
X140863333Y-110443152D01*
X140863333Y-110443152D02*
X140958571Y-110490771D01*
X140958571Y-110490771D02*
X141006190Y-110586009D01*
X141006190Y-110586009D02*
X141006190Y-110681247D01*
X141006190Y-110681247D02*
X140530000Y-110776485D01*
X141434762Y-111109819D02*
X141434762Y-110443152D01*
X141434762Y-110633628D02*
X141482381Y-110538390D01*
X141482381Y-110538390D02*
X141530000Y-110490771D01*
X141530000Y-110490771D02*
X141625238Y-110443152D01*
X141625238Y-110443152D02*
X141720476Y-110443152D01*
X141815715Y-111205057D02*
X142577619Y-111205057D01*
X143387143Y-111014580D02*
X143339524Y-111062200D01*
X143339524Y-111062200D02*
X143196667Y-111109819D01*
X143196667Y-111109819D02*
X143101429Y-111109819D01*
X143101429Y-111109819D02*
X142958572Y-111062200D01*
X142958572Y-111062200D02*
X142863334Y-110966961D01*
X142863334Y-110966961D02*
X142815715Y-110871723D01*
X142815715Y-110871723D02*
X142768096Y-110681247D01*
X142768096Y-110681247D02*
X142768096Y-110538390D01*
X142768096Y-110538390D02*
X142815715Y-110347914D01*
X142815715Y-110347914D02*
X142863334Y-110252676D01*
X142863334Y-110252676D02*
X142958572Y-110157438D01*
X142958572Y-110157438D02*
X143101429Y-110109819D01*
X143101429Y-110109819D02*
X143196667Y-110109819D01*
X143196667Y-110109819D02*
X143339524Y-110157438D01*
X143339524Y-110157438D02*
X143387143Y-110205057D01*
X143958572Y-111109819D02*
X143863334Y-111062200D01*
X143863334Y-111062200D02*
X143815715Y-110966961D01*
X143815715Y-110966961D02*
X143815715Y-110109819D01*
X144482382Y-111109819D02*
X144387144Y-111062200D01*
X144387144Y-111062200D02*
X144339525Y-111014580D01*
X144339525Y-111014580D02*
X144291906Y-110919342D01*
X144291906Y-110919342D02*
X144291906Y-110633628D01*
X144291906Y-110633628D02*
X144339525Y-110538390D01*
X144339525Y-110538390D02*
X144387144Y-110490771D01*
X144387144Y-110490771D02*
X144482382Y-110443152D01*
X144482382Y-110443152D02*
X144625239Y-110443152D01*
X144625239Y-110443152D02*
X144720477Y-110490771D01*
X144720477Y-110490771D02*
X144768096Y-110538390D01*
X144768096Y-110538390D02*
X144815715Y-110633628D01*
X144815715Y-110633628D02*
X144815715Y-110919342D01*
X144815715Y-110919342D02*
X144768096Y-111014580D01*
X144768096Y-111014580D02*
X144720477Y-111062200D01*
X144720477Y-111062200D02*
X144625239Y-111109819D01*
X144625239Y-111109819D02*
X144482382Y-111109819D01*
X145672858Y-111062200D02*
X145577620Y-111109819D01*
X145577620Y-111109819D02*
X145387144Y-111109819D01*
X145387144Y-111109819D02*
X145291906Y-111062200D01*
X145291906Y-111062200D02*
X145244287Y-111014580D01*
X145244287Y-111014580D02*
X145196668Y-110919342D01*
X145196668Y-110919342D02*
X145196668Y-110633628D01*
X145196668Y-110633628D02*
X145244287Y-110538390D01*
X145244287Y-110538390D02*
X145291906Y-110490771D01*
X145291906Y-110490771D02*
X145387144Y-110443152D01*
X145387144Y-110443152D02*
X145577620Y-110443152D01*
X145577620Y-110443152D02*
X145672858Y-110490771D01*
X146101430Y-111109819D02*
X146101430Y-110109819D01*
X146196668Y-110728866D02*
X146482382Y-111109819D01*
X146482382Y-110443152D02*
X146101430Y-110824104D01*
X146815716Y-110443152D02*
X147006192Y-111109819D01*
X147006192Y-111109819D02*
X147196668Y-110633628D01*
X147196668Y-110633628D02*
X147387144Y-111109819D01*
X147387144Y-111109819D02*
X147577620Y-110443152D01*
X147958573Y-111109819D02*
X147958573Y-110443152D01*
X147958573Y-110109819D02*
X147910954Y-110157438D01*
X147910954Y-110157438D02*
X147958573Y-110205057D01*
X147958573Y-110205057D02*
X148006192Y-110157438D01*
X148006192Y-110157438D02*
X147958573Y-110109819D01*
X147958573Y-110109819D02*
X147958573Y-110205057D01*
X148387144Y-111062200D02*
X148482382Y-111109819D01*
X148482382Y-111109819D02*
X148672858Y-111109819D01*
X148672858Y-111109819D02*
X148768096Y-111062200D01*
X148768096Y-111062200D02*
X148815715Y-110966961D01*
X148815715Y-110966961D02*
X148815715Y-110919342D01*
X148815715Y-110919342D02*
X148768096Y-110824104D01*
X148768096Y-110824104D02*
X148672858Y-110776485D01*
X148672858Y-110776485D02*
X148530001Y-110776485D01*
X148530001Y-110776485D02*
X148434763Y-110728866D01*
X148434763Y-110728866D02*
X148387144Y-110633628D01*
X148387144Y-110633628D02*
X148387144Y-110586009D01*
X148387144Y-110586009D02*
X148434763Y-110490771D01*
X148434763Y-110490771D02*
X148530001Y-110443152D01*
X148530001Y-110443152D02*
X148672858Y-110443152D01*
X148672858Y-110443152D02*
X148768096Y-110490771D01*
X149625239Y-111062200D02*
X149530001Y-111109819D01*
X149530001Y-111109819D02*
X149339525Y-111109819D01*
X149339525Y-111109819D02*
X149244287Y-111062200D01*
X149244287Y-111062200D02*
X149196668Y-110966961D01*
X149196668Y-110966961D02*
X149196668Y-110586009D01*
X149196668Y-110586009D02*
X149244287Y-110490771D01*
X149244287Y-110490771D02*
X149339525Y-110443152D01*
X149339525Y-110443152D02*
X149530001Y-110443152D01*
X149530001Y-110443152D02*
X149625239Y-110490771D01*
X149625239Y-110490771D02*
X149672858Y-110586009D01*
X149672858Y-110586009D02*
X149672858Y-110681247D01*
X149672858Y-110681247D02*
X149196668Y-110776485D01*
X137484819Y-104798333D02*
X138199104Y-104798333D01*
X138199104Y-104798333D02*
X138341961Y-104845952D01*
X138341961Y-104845952D02*
X138437200Y-104941190D01*
X138437200Y-104941190D02*
X138484819Y-105084047D01*
X138484819Y-105084047D02*
X138484819Y-105179285D01*
X137818152Y-103893571D02*
X138484819Y-103893571D01*
X137437200Y-104131666D02*
X138151485Y-104369761D01*
X138151485Y-104369761D02*
X138151485Y-103750714D01*
X147194312Y-143147621D02*
X146622096Y-143147621D01*
X146908204Y-143147621D02*
X146908204Y-142146243D01*
X146908204Y-142146243D02*
X146812835Y-142289297D01*
X146812835Y-142289297D02*
X146717466Y-142384667D01*
X146717466Y-142384667D02*
X146622096Y-142432351D01*
X147671159Y-143147621D02*
X147861897Y-143147621D01*
X147861897Y-143147621D02*
X147957267Y-143099937D01*
X147957267Y-143099937D02*
X148004951Y-143052252D01*
X148004951Y-143052252D02*
X148100321Y-142909198D01*
X148100321Y-142909198D02*
X148148005Y-142718459D01*
X148148005Y-142718459D02*
X148148005Y-142336982D01*
X148148005Y-142336982D02*
X148100321Y-142241613D01*
X148100321Y-142241613D02*
X148052636Y-142193928D01*
X148052636Y-142193928D02*
X147957267Y-142146243D01*
X147957267Y-142146243D02*
X147766528Y-142146243D01*
X147766528Y-142146243D02*
X147671159Y-142193928D01*
X147671159Y-142193928D02*
X147623474Y-142241613D01*
X147623474Y-142241613D02*
X147575789Y-142336982D01*
X147575789Y-142336982D02*
X147575789Y-142575405D01*
X147575789Y-142575405D02*
X147623474Y-142670775D01*
X147623474Y-142670775D02*
X147671159Y-142718459D01*
X147671159Y-142718459D02*
X147766528Y-142766144D01*
X147766528Y-142766144D02*
X147957267Y-142766144D01*
X147957267Y-142766144D02*
X148052636Y-142718459D01*
X148052636Y-142718459D02*
X148100321Y-142670775D01*
X148100321Y-142670775D02*
X148148005Y-142575405D01*
X148720221Y-142575405D02*
X148624852Y-142527721D01*
X148624852Y-142527721D02*
X148577167Y-142480036D01*
X148577167Y-142480036D02*
X148529482Y-142384667D01*
X148529482Y-142384667D02*
X148529482Y-142336982D01*
X148529482Y-142336982D02*
X148577167Y-142241613D01*
X148577167Y-142241613D02*
X148624852Y-142193928D01*
X148624852Y-142193928D02*
X148720221Y-142146243D01*
X148720221Y-142146243D02*
X148910960Y-142146243D01*
X148910960Y-142146243D02*
X149006329Y-142193928D01*
X149006329Y-142193928D02*
X149054014Y-142241613D01*
X149054014Y-142241613D02*
X149101698Y-142336982D01*
X149101698Y-142336982D02*
X149101698Y-142384667D01*
X149101698Y-142384667D02*
X149054014Y-142480036D01*
X149054014Y-142480036D02*
X149006329Y-142527721D01*
X149006329Y-142527721D02*
X148910960Y-142575405D01*
X148910960Y-142575405D02*
X148720221Y-142575405D01*
X148720221Y-142575405D02*
X148624852Y-142623090D01*
X148624852Y-142623090D02*
X148577167Y-142670775D01*
X148577167Y-142670775D02*
X148529482Y-142766144D01*
X148529482Y-142766144D02*
X148529482Y-142956883D01*
X148529482Y-142956883D02*
X148577167Y-143052252D01*
X148577167Y-143052252D02*
X148624852Y-143099937D01*
X148624852Y-143099937D02*
X148720221Y-143147621D01*
X148720221Y-143147621D02*
X148910960Y-143147621D01*
X148910960Y-143147621D02*
X149006329Y-143099937D01*
X149006329Y-143099937D02*
X149054014Y-143052252D01*
X149054014Y-143052252D02*
X149101698Y-142956883D01*
X149101698Y-142956883D02*
X149101698Y-142766144D01*
X149101698Y-142766144D02*
X149054014Y-142670775D01*
X149054014Y-142670775D02*
X149006329Y-142623090D01*
X149006329Y-142623090D02*
X148910960Y-142575405D01*
X150055391Y-143147621D02*
X149483175Y-143147621D01*
X149769283Y-143147621D02*
X149769283Y-142146243D01*
X149769283Y-142146243D02*
X149673914Y-142289297D01*
X149673914Y-142289297D02*
X149578545Y-142384667D01*
X149578545Y-142384667D02*
X149483175Y-142432351D01*
X150961400Y-142146243D02*
X150484553Y-142146243D01*
X150484553Y-142146243D02*
X150436868Y-142623090D01*
X150436868Y-142623090D02*
X150484553Y-142575405D01*
X150484553Y-142575405D02*
X150579922Y-142527721D01*
X150579922Y-142527721D02*
X150818346Y-142527721D01*
X150818346Y-142527721D02*
X150913715Y-142575405D01*
X150913715Y-142575405D02*
X150961400Y-142623090D01*
X150961400Y-142623090D02*
X151009084Y-142718459D01*
X151009084Y-142718459D02*
X151009084Y-142956883D01*
X151009084Y-142956883D02*
X150961400Y-143052252D01*
X150961400Y-143052252D02*
X150913715Y-143099937D01*
X150913715Y-143099937D02*
X150818346Y-143147621D01*
X150818346Y-143147621D02*
X150579922Y-143147621D01*
X150579922Y-143147621D02*
X150484553Y-143099937D01*
X150484553Y-143099937D02*
X150436868Y-143052252D01*
X151867408Y-142146243D02*
X151676669Y-142146243D01*
X151676669Y-142146243D02*
X151581300Y-142193928D01*
X151581300Y-142193928D02*
X151533615Y-142241613D01*
X151533615Y-142241613D02*
X151438246Y-142384667D01*
X151438246Y-142384667D02*
X151390561Y-142575405D01*
X151390561Y-142575405D02*
X151390561Y-142956883D01*
X151390561Y-142956883D02*
X151438246Y-143052252D01*
X151438246Y-143052252D02*
X151485931Y-143099937D01*
X151485931Y-143099937D02*
X151581300Y-143147621D01*
X151581300Y-143147621D02*
X151772039Y-143147621D01*
X151772039Y-143147621D02*
X151867408Y-143099937D01*
X151867408Y-143099937D02*
X151915093Y-143052252D01*
X151915093Y-143052252D02*
X151962777Y-142956883D01*
X151962777Y-142956883D02*
X151962777Y-142718459D01*
X151962777Y-142718459D02*
X151915093Y-142623090D01*
X151915093Y-142623090D02*
X151867408Y-142575405D01*
X151867408Y-142575405D02*
X151772039Y-142527721D01*
X151772039Y-142527721D02*
X151581300Y-142527721D01*
X151581300Y-142527721D02*
X151485931Y-142575405D01*
X151485931Y-142575405D02*
X151438246Y-142623090D01*
X151438246Y-142623090D02*
X151390561Y-142718459D01*
X152534993Y-142575405D02*
X152439624Y-142527721D01*
X152439624Y-142527721D02*
X152391939Y-142480036D01*
X152391939Y-142480036D02*
X152344254Y-142384667D01*
X152344254Y-142384667D02*
X152344254Y-142336982D01*
X152344254Y-142336982D02*
X152391939Y-142241613D01*
X152391939Y-142241613D02*
X152439624Y-142193928D01*
X152439624Y-142193928D02*
X152534993Y-142146243D01*
X152534993Y-142146243D02*
X152725732Y-142146243D01*
X152725732Y-142146243D02*
X152821101Y-142193928D01*
X152821101Y-142193928D02*
X152868786Y-142241613D01*
X152868786Y-142241613D02*
X152916470Y-142336982D01*
X152916470Y-142336982D02*
X152916470Y-142384667D01*
X152916470Y-142384667D02*
X152868786Y-142480036D01*
X152868786Y-142480036D02*
X152821101Y-142527721D01*
X152821101Y-142527721D02*
X152725732Y-142575405D01*
X152725732Y-142575405D02*
X152534993Y-142575405D01*
X152534993Y-142575405D02*
X152439624Y-142623090D01*
X152439624Y-142623090D02*
X152391939Y-142670775D01*
X152391939Y-142670775D02*
X152344254Y-142766144D01*
X152344254Y-142766144D02*
X152344254Y-142956883D01*
X152344254Y-142956883D02*
X152391939Y-143052252D01*
X152391939Y-143052252D02*
X152439624Y-143099937D01*
X152439624Y-143099937D02*
X152534993Y-143147621D01*
X152534993Y-143147621D02*
X152725732Y-143147621D01*
X152725732Y-143147621D02*
X152821101Y-143099937D01*
X152821101Y-143099937D02*
X152868786Y-143052252D01*
X152868786Y-143052252D02*
X152916470Y-142956883D01*
X152916470Y-142956883D02*
X152916470Y-142766144D01*
X152916470Y-142766144D02*
X152868786Y-142670775D01*
X152868786Y-142670775D02*
X152821101Y-142623090D01*
X152821101Y-142623090D02*
X152725732Y-142575405D01*
X153345632Y-142766144D02*
X154108587Y-142766144D01*
X155109964Y-143147621D02*
X154537748Y-143147621D01*
X154823856Y-143147621D02*
X154823856Y-142146243D01*
X154823856Y-142146243D02*
X154728487Y-142289297D01*
X154728487Y-142289297D02*
X154633118Y-142384667D01*
X154633118Y-142384667D02*
X154537748Y-142432351D01*
X150280533Y-149819026D02*
X150280533Y-149179026D01*
X150280533Y-149179026D02*
X150524343Y-149179026D01*
X150524343Y-149179026D02*
X150585295Y-149209502D01*
X150585295Y-149209502D02*
X150615772Y-149239978D01*
X150615772Y-149239978D02*
X150646248Y-149300930D01*
X150646248Y-149300930D02*
X150646248Y-149392359D01*
X150646248Y-149392359D02*
X150615772Y-149453311D01*
X150615772Y-149453311D02*
X150585295Y-149483788D01*
X150585295Y-149483788D02*
X150524343Y-149514264D01*
X150524343Y-149514264D02*
X150280533Y-149514264D01*
X151286248Y-149758073D02*
X151255772Y-149788550D01*
X151255772Y-149788550D02*
X151164343Y-149819026D01*
X151164343Y-149819026D02*
X151103391Y-149819026D01*
X151103391Y-149819026D02*
X151011962Y-149788550D01*
X151011962Y-149788550D02*
X150951010Y-149727597D01*
X150951010Y-149727597D02*
X150920533Y-149666645D01*
X150920533Y-149666645D02*
X150890057Y-149544740D01*
X150890057Y-149544740D02*
X150890057Y-149453311D01*
X150890057Y-149453311D02*
X150920533Y-149331407D01*
X150920533Y-149331407D02*
X150951010Y-149270454D01*
X150951010Y-149270454D02*
X151011962Y-149209502D01*
X151011962Y-149209502D02*
X151103391Y-149179026D01*
X151103391Y-149179026D02*
X151164343Y-149179026D01*
X151164343Y-149179026D02*
X151255772Y-149209502D01*
X151255772Y-149209502D02*
X151286248Y-149239978D01*
X151773867Y-149483788D02*
X151865295Y-149514264D01*
X151865295Y-149514264D02*
X151895772Y-149544740D01*
X151895772Y-149544740D02*
X151926248Y-149605692D01*
X151926248Y-149605692D02*
X151926248Y-149697121D01*
X151926248Y-149697121D02*
X151895772Y-149758073D01*
X151895772Y-149758073D02*
X151865295Y-149788550D01*
X151865295Y-149788550D02*
X151804343Y-149819026D01*
X151804343Y-149819026D02*
X151560533Y-149819026D01*
X151560533Y-149819026D02*
X151560533Y-149179026D01*
X151560533Y-149179026D02*
X151773867Y-149179026D01*
X151773867Y-149179026D02*
X151834819Y-149209502D01*
X151834819Y-149209502D02*
X151865295Y-149239978D01*
X151865295Y-149239978D02*
X151895772Y-149300930D01*
X151895772Y-149300930D02*
X151895772Y-149361883D01*
X151895772Y-149361883D02*
X151865295Y-149422835D01*
X151865295Y-149422835D02*
X151834819Y-149453311D01*
X151834819Y-149453311D02*
X151773867Y-149483788D01*
X151773867Y-149483788D02*
X151560533Y-149483788D01*
X152688152Y-149483788D02*
X152901486Y-149483788D01*
X152992914Y-149819026D02*
X152688152Y-149819026D01*
X152688152Y-149819026D02*
X152688152Y-149179026D01*
X152688152Y-149179026D02*
X152992914Y-149179026D01*
X153267200Y-149819026D02*
X153267200Y-149179026D01*
X153267200Y-149179026D02*
X153419581Y-149179026D01*
X153419581Y-149179026D02*
X153511010Y-149209502D01*
X153511010Y-149209502D02*
X153571962Y-149270454D01*
X153571962Y-149270454D02*
X153602439Y-149331407D01*
X153602439Y-149331407D02*
X153632915Y-149453311D01*
X153632915Y-149453311D02*
X153632915Y-149544740D01*
X153632915Y-149544740D02*
X153602439Y-149666645D01*
X153602439Y-149666645D02*
X153571962Y-149727597D01*
X153571962Y-149727597D02*
X153511010Y-149788550D01*
X153511010Y-149788550D02*
X153419581Y-149819026D01*
X153419581Y-149819026D02*
X153267200Y-149819026D01*
X154242439Y-149209502D02*
X154181486Y-149179026D01*
X154181486Y-149179026D02*
X154090058Y-149179026D01*
X154090058Y-149179026D02*
X153998629Y-149209502D01*
X153998629Y-149209502D02*
X153937677Y-149270454D01*
X153937677Y-149270454D02*
X153907200Y-149331407D01*
X153907200Y-149331407D02*
X153876724Y-149453311D01*
X153876724Y-149453311D02*
X153876724Y-149544740D01*
X153876724Y-149544740D02*
X153907200Y-149666645D01*
X153907200Y-149666645D02*
X153937677Y-149727597D01*
X153937677Y-149727597D02*
X153998629Y-149788550D01*
X153998629Y-149788550D02*
X154090058Y-149819026D01*
X154090058Y-149819026D02*
X154151010Y-149819026D01*
X154151010Y-149819026D02*
X154242439Y-149788550D01*
X154242439Y-149788550D02*
X154272915Y-149758073D01*
X154272915Y-149758073D02*
X154272915Y-149544740D01*
X154272915Y-149544740D02*
X154151010Y-149544740D01*
X154547200Y-149483788D02*
X154760534Y-149483788D01*
X154851962Y-149819026D02*
X154547200Y-149819026D01*
X154547200Y-149819026D02*
X154547200Y-149179026D01*
X154547200Y-149179026D02*
X154851962Y-149179026D01*
D12*
X186796017Y-80765628D02*
X186316017Y-80765628D01*
X186750302Y-80262771D02*
X186773160Y-80285628D01*
X186773160Y-80285628D02*
X186796017Y-80354200D01*
X186796017Y-80354200D02*
X186796017Y-80399914D01*
X186796017Y-80399914D02*
X186773160Y-80468485D01*
X186773160Y-80468485D02*
X186727445Y-80514200D01*
X186727445Y-80514200D02*
X186681731Y-80537057D01*
X186681731Y-80537057D02*
X186590302Y-80559914D01*
X186590302Y-80559914D02*
X186521731Y-80559914D01*
X186521731Y-80559914D02*
X186430302Y-80537057D01*
X186430302Y-80537057D02*
X186384588Y-80514200D01*
X186384588Y-80514200D02*
X186338874Y-80468485D01*
X186338874Y-80468485D02*
X186316017Y-80399914D01*
X186316017Y-80399914D02*
X186316017Y-80354200D01*
X186316017Y-80354200D02*
X186338874Y-80285628D01*
X186338874Y-80285628D02*
X186361731Y-80262771D01*
X186796017Y-80057057D02*
X186316017Y-80057057D01*
X186316017Y-80057057D02*
X186658874Y-79897057D01*
X186658874Y-79897057D02*
X186316017Y-79737057D01*
X186316017Y-79737057D02*
X186796017Y-79737057D01*
X186613160Y-79508486D02*
X186613160Y-79142772D01*
X186476017Y-78708486D02*
X186796017Y-78708486D01*
X186293160Y-78822771D02*
X186636017Y-78937057D01*
X186636017Y-78937057D02*
X186636017Y-78639914D01*
X186361731Y-78479914D02*
X186338874Y-78457057D01*
X186338874Y-78457057D02*
X186316017Y-78411343D01*
X186316017Y-78411343D02*
X186316017Y-78297057D01*
X186316017Y-78297057D02*
X186338874Y-78251343D01*
X186338874Y-78251343D02*
X186361731Y-78228485D01*
X186361731Y-78228485D02*
X186407445Y-78205628D01*
X186407445Y-78205628D02*
X186453160Y-78205628D01*
X186453160Y-78205628D02*
X186521731Y-78228485D01*
X186521731Y-78228485D02*
X186796017Y-78502771D01*
X186796017Y-78502771D02*
X186796017Y-78205628D01*
X186316017Y-77794200D02*
X186316017Y-77885628D01*
X186316017Y-77885628D02*
X186338874Y-77931342D01*
X186338874Y-77931342D02*
X186361731Y-77954200D01*
X186361731Y-77954200D02*
X186430302Y-77999914D01*
X186430302Y-77999914D02*
X186521731Y-78022771D01*
X186521731Y-78022771D02*
X186704588Y-78022771D01*
X186704588Y-78022771D02*
X186750302Y-77999914D01*
X186750302Y-77999914D02*
X186773160Y-77977057D01*
X186773160Y-77977057D02*
X186796017Y-77931342D01*
X186796017Y-77931342D02*
X186796017Y-77839914D01*
X186796017Y-77839914D02*
X186773160Y-77794200D01*
X186773160Y-77794200D02*
X186750302Y-77771342D01*
X186750302Y-77771342D02*
X186704588Y-77748485D01*
X186704588Y-77748485D02*
X186590302Y-77748485D01*
X186590302Y-77748485D02*
X186544588Y-77771342D01*
X186544588Y-77771342D02*
X186521731Y-77794200D01*
X186521731Y-77794200D02*
X186498874Y-77839914D01*
X186498874Y-77839914D02*
X186498874Y-77931342D01*
X186498874Y-77931342D02*
X186521731Y-77977057D01*
X186521731Y-77977057D02*
X186544588Y-77999914D01*
X186544588Y-77999914D02*
X186590302Y-78022771D01*
X186521731Y-77474199D02*
X186498874Y-77519914D01*
X186498874Y-77519914D02*
X186476017Y-77542771D01*
X186476017Y-77542771D02*
X186430302Y-77565628D01*
X186430302Y-77565628D02*
X186407445Y-77565628D01*
X186407445Y-77565628D02*
X186361731Y-77542771D01*
X186361731Y-77542771D02*
X186338874Y-77519914D01*
X186338874Y-77519914D02*
X186316017Y-77474199D01*
X186316017Y-77474199D02*
X186316017Y-77382771D01*
X186316017Y-77382771D02*
X186338874Y-77337057D01*
X186338874Y-77337057D02*
X186361731Y-77314199D01*
X186361731Y-77314199D02*
X186407445Y-77291342D01*
X186407445Y-77291342D02*
X186430302Y-77291342D01*
X186430302Y-77291342D02*
X186476017Y-77314199D01*
X186476017Y-77314199D02*
X186498874Y-77337057D01*
X186498874Y-77337057D02*
X186521731Y-77382771D01*
X186521731Y-77382771D02*
X186521731Y-77474199D01*
X186521731Y-77474199D02*
X186544588Y-77519914D01*
X186544588Y-77519914D02*
X186567445Y-77542771D01*
X186567445Y-77542771D02*
X186613160Y-77565628D01*
X186613160Y-77565628D02*
X186704588Y-77565628D01*
X186704588Y-77565628D02*
X186750302Y-77542771D01*
X186750302Y-77542771D02*
X186773160Y-77519914D01*
X186773160Y-77519914D02*
X186796017Y-77474199D01*
X186796017Y-77474199D02*
X186796017Y-77382771D01*
X186796017Y-77382771D02*
X186773160Y-77337057D01*
X186773160Y-77337057D02*
X186750302Y-77314199D01*
X186750302Y-77314199D02*
X186704588Y-77291342D01*
X186704588Y-77291342D02*
X186613160Y-77291342D01*
X186613160Y-77291342D02*
X186567445Y-77314199D01*
X186567445Y-77314199D02*
X186544588Y-77337057D01*
X186544588Y-77337057D02*
X186521731Y-77382771D01*
X186521731Y-77017056D02*
X186498874Y-77062771D01*
X186498874Y-77062771D02*
X186476017Y-77085628D01*
X186476017Y-77085628D02*
X186430302Y-77108485D01*
X186430302Y-77108485D02*
X186407445Y-77108485D01*
X186407445Y-77108485D02*
X186361731Y-77085628D01*
X186361731Y-77085628D02*
X186338874Y-77062771D01*
X186338874Y-77062771D02*
X186316017Y-77017056D01*
X186316017Y-77017056D02*
X186316017Y-76925628D01*
X186316017Y-76925628D02*
X186338874Y-76879914D01*
X186338874Y-76879914D02*
X186361731Y-76857056D01*
X186361731Y-76857056D02*
X186407445Y-76834199D01*
X186407445Y-76834199D02*
X186430302Y-76834199D01*
X186430302Y-76834199D02*
X186476017Y-76857056D01*
X186476017Y-76857056D02*
X186498874Y-76879914D01*
X186498874Y-76879914D02*
X186521731Y-76925628D01*
X186521731Y-76925628D02*
X186521731Y-77017056D01*
X186521731Y-77017056D02*
X186544588Y-77062771D01*
X186544588Y-77062771D02*
X186567445Y-77085628D01*
X186567445Y-77085628D02*
X186613160Y-77108485D01*
X186613160Y-77108485D02*
X186704588Y-77108485D01*
X186704588Y-77108485D02*
X186750302Y-77085628D01*
X186750302Y-77085628D02*
X186773160Y-77062771D01*
X186773160Y-77062771D02*
X186796017Y-77017056D01*
X186796017Y-77017056D02*
X186796017Y-76925628D01*
X186796017Y-76925628D02*
X186773160Y-76879914D01*
X186773160Y-76879914D02*
X186750302Y-76857056D01*
X186750302Y-76857056D02*
X186704588Y-76834199D01*
X186704588Y-76834199D02*
X186613160Y-76834199D01*
X186613160Y-76834199D02*
X186567445Y-76857056D01*
X186567445Y-76857056D02*
X186544588Y-76879914D01*
X186544588Y-76879914D02*
X186521731Y-76925628D01*
X186613160Y-76628485D02*
X186613160Y-76262771D01*
X186796017Y-76034199D02*
X186316017Y-76034199D01*
X186316017Y-76034199D02*
X186316017Y-75851342D01*
X186316017Y-75851342D02*
X186338874Y-75805627D01*
X186338874Y-75805627D02*
X186361731Y-75782770D01*
X186361731Y-75782770D02*
X186407445Y-75759913D01*
X186407445Y-75759913D02*
X186476017Y-75759913D01*
X186476017Y-75759913D02*
X186521731Y-75782770D01*
X186521731Y-75782770D02*
X186544588Y-75805627D01*
X186544588Y-75805627D02*
X186567445Y-75851342D01*
X186567445Y-75851342D02*
X186567445Y-76034199D01*
D10*
X109907142Y-102324819D02*
X109335714Y-102324819D01*
X109621428Y-102324819D02*
X109621428Y-101324819D01*
X109621428Y-101324819D02*
X109526190Y-101467676D01*
X109526190Y-101467676D02*
X109430952Y-101562914D01*
X109430952Y-101562914D02*
X109335714Y-101610533D01*
X110526190Y-101324819D02*
X110621428Y-101324819D01*
X110621428Y-101324819D02*
X110716666Y-101372438D01*
X110716666Y-101372438D02*
X110764285Y-101420057D01*
X110764285Y-101420057D02*
X110811904Y-101515295D01*
X110811904Y-101515295D02*
X110859523Y-101705771D01*
X110859523Y-101705771D02*
X110859523Y-101943866D01*
X110859523Y-101943866D02*
X110811904Y-102134342D01*
X110811904Y-102134342D02*
X110764285Y-102229580D01*
X110764285Y-102229580D02*
X110716666Y-102277200D01*
X110716666Y-102277200D02*
X110621428Y-102324819D01*
X110621428Y-102324819D02*
X110526190Y-102324819D01*
X110526190Y-102324819D02*
X110430952Y-102277200D01*
X110430952Y-102277200D02*
X110383333Y-102229580D01*
X110383333Y-102229580D02*
X110335714Y-102134342D01*
X110335714Y-102134342D02*
X110288095Y-101943866D01*
X110288095Y-101943866D02*
X110288095Y-101705771D01*
X110288095Y-101705771D02*
X110335714Y-101515295D01*
X110335714Y-101515295D02*
X110383333Y-101420057D01*
X110383333Y-101420057D02*
X110430952Y-101372438D01*
X110430952Y-101372438D02*
X110526190Y-101324819D01*
X111288095Y-101658152D02*
X111288095Y-102658152D01*
X111764285Y-102181961D02*
X111811904Y-102277200D01*
X111811904Y-102277200D02*
X111907142Y-102324819D01*
X111288095Y-102181961D02*
X111335714Y-102277200D01*
X111335714Y-102277200D02*
X111430952Y-102324819D01*
X111430952Y-102324819D02*
X111621428Y-102324819D01*
X111621428Y-102324819D02*
X111716666Y-102277200D01*
X111716666Y-102277200D02*
X111764285Y-102181961D01*
X111764285Y-102181961D02*
X111764285Y-101658152D01*
X112669047Y-101801009D02*
X112335714Y-101801009D01*
X112335714Y-102324819D02*
X112335714Y-101324819D01*
X112335714Y-101324819D02*
X112811904Y-101324819D01*
D13*
X110966666Y-103729530D02*
X110942857Y-103753340D01*
X110942857Y-103753340D02*
X110871428Y-103777149D01*
X110871428Y-103777149D02*
X110823809Y-103777149D01*
X110823809Y-103777149D02*
X110752381Y-103753340D01*
X110752381Y-103753340D02*
X110704762Y-103705720D01*
X110704762Y-103705720D02*
X110680952Y-103658101D01*
X110680952Y-103658101D02*
X110657143Y-103562863D01*
X110657143Y-103562863D02*
X110657143Y-103491435D01*
X110657143Y-103491435D02*
X110680952Y-103396197D01*
X110680952Y-103396197D02*
X110704762Y-103348578D01*
X110704762Y-103348578D02*
X110752381Y-103300959D01*
X110752381Y-103300959D02*
X110823809Y-103277149D01*
X110823809Y-103277149D02*
X110871428Y-103277149D01*
X110871428Y-103277149D02*
X110942857Y-103300959D01*
X110942857Y-103300959D02*
X110966666Y-103324768D01*
X111442857Y-103777149D02*
X111157143Y-103777149D01*
X111300000Y-103777149D02*
X111300000Y-103277149D01*
X111300000Y-103277149D02*
X111252381Y-103348578D01*
X111252381Y-103348578D02*
X111204762Y-103396197D01*
X111204762Y-103396197D02*
X111157143Y-103420006D01*
D10*
X113190048Y-112502819D02*
X113190048Y-111502819D01*
X113190048Y-111502819D02*
X113523381Y-112217104D01*
X113523381Y-112217104D02*
X113856714Y-111502819D01*
X113856714Y-111502819D02*
X113856714Y-112502819D01*
X114904333Y-112407580D02*
X114856714Y-112455200D01*
X114856714Y-112455200D02*
X114713857Y-112502819D01*
X114713857Y-112502819D02*
X114618619Y-112502819D01*
X114618619Y-112502819D02*
X114475762Y-112455200D01*
X114475762Y-112455200D02*
X114380524Y-112359961D01*
X114380524Y-112359961D02*
X114332905Y-112264723D01*
X114332905Y-112264723D02*
X114285286Y-112074247D01*
X114285286Y-112074247D02*
X114285286Y-111931390D01*
X114285286Y-111931390D02*
X114332905Y-111740914D01*
X114332905Y-111740914D02*
X114380524Y-111645676D01*
X114380524Y-111645676D02*
X114475762Y-111550438D01*
X114475762Y-111550438D02*
X114618619Y-111502819D01*
X114618619Y-111502819D02*
X114713857Y-111502819D01*
X114713857Y-111502819D02*
X114856714Y-111550438D01*
X114856714Y-111550438D02*
X114904333Y-111598057D01*
X115332905Y-112502819D02*
X115332905Y-111502819D01*
X115332905Y-111502819D02*
X115713857Y-111502819D01*
X115713857Y-111502819D02*
X115809095Y-111550438D01*
X115809095Y-111550438D02*
X115856714Y-111598057D01*
X115856714Y-111598057D02*
X115904333Y-111693295D01*
X115904333Y-111693295D02*
X115904333Y-111836152D01*
X115904333Y-111836152D02*
X115856714Y-111931390D01*
X115856714Y-111931390D02*
X115809095Y-111979009D01*
X115809095Y-111979009D02*
X115713857Y-112026628D01*
X115713857Y-112026628D02*
X115332905Y-112026628D01*
X116237667Y-111502819D02*
X116904333Y-111502819D01*
X116904333Y-111502819D02*
X116475762Y-112502819D01*
X117190048Y-111502819D02*
X117809095Y-111502819D01*
X117809095Y-111502819D02*
X117475762Y-111883771D01*
X117475762Y-111883771D02*
X117618619Y-111883771D01*
X117618619Y-111883771D02*
X117713857Y-111931390D01*
X117713857Y-111931390D02*
X117761476Y-111979009D01*
X117761476Y-111979009D02*
X117809095Y-112074247D01*
X117809095Y-112074247D02*
X117809095Y-112312342D01*
X117809095Y-112312342D02*
X117761476Y-112407580D01*
X117761476Y-112407580D02*
X117713857Y-112455200D01*
X117713857Y-112455200D02*
X117618619Y-112502819D01*
X117618619Y-112502819D02*
X117332905Y-112502819D01*
X117332905Y-112502819D02*
X117237667Y-112455200D01*
X117237667Y-112455200D02*
X117190048Y-112407580D01*
X118380524Y-111931390D02*
X118285286Y-111883771D01*
X118285286Y-111883771D02*
X118237667Y-111836152D01*
X118237667Y-111836152D02*
X118190048Y-111740914D01*
X118190048Y-111740914D02*
X118190048Y-111693295D01*
X118190048Y-111693295D02*
X118237667Y-111598057D01*
X118237667Y-111598057D02*
X118285286Y-111550438D01*
X118285286Y-111550438D02*
X118380524Y-111502819D01*
X118380524Y-111502819D02*
X118571000Y-111502819D01*
X118571000Y-111502819D02*
X118666238Y-111550438D01*
X118666238Y-111550438D02*
X118713857Y-111598057D01*
X118713857Y-111598057D02*
X118761476Y-111693295D01*
X118761476Y-111693295D02*
X118761476Y-111740914D01*
X118761476Y-111740914D02*
X118713857Y-111836152D01*
X118713857Y-111836152D02*
X118666238Y-111883771D01*
X118666238Y-111883771D02*
X118571000Y-111931390D01*
X118571000Y-111931390D02*
X118380524Y-111931390D01*
X118380524Y-111931390D02*
X118285286Y-111979009D01*
X118285286Y-111979009D02*
X118237667Y-112026628D01*
X118237667Y-112026628D02*
X118190048Y-112121866D01*
X118190048Y-112121866D02*
X118190048Y-112312342D01*
X118190048Y-112312342D02*
X118237667Y-112407580D01*
X118237667Y-112407580D02*
X118285286Y-112455200D01*
X118285286Y-112455200D02*
X118380524Y-112502819D01*
X118380524Y-112502819D02*
X118571000Y-112502819D01*
X118571000Y-112502819D02*
X118666238Y-112455200D01*
X118666238Y-112455200D02*
X118713857Y-112407580D01*
X118713857Y-112407580D02*
X118761476Y-112312342D01*
X118761476Y-112312342D02*
X118761476Y-112121866D01*
X118761476Y-112121866D02*
X118713857Y-112026628D01*
X118713857Y-112026628D02*
X118666238Y-111979009D01*
X118666238Y-111979009D02*
X118571000Y-111931390D01*
X119094810Y-111502819D02*
X119713857Y-111502819D01*
X119713857Y-111502819D02*
X119380524Y-111883771D01*
X119380524Y-111883771D02*
X119523381Y-111883771D01*
X119523381Y-111883771D02*
X119618619Y-111931390D01*
X119618619Y-111931390D02*
X119666238Y-111979009D01*
X119666238Y-111979009D02*
X119713857Y-112074247D01*
X119713857Y-112074247D02*
X119713857Y-112312342D01*
X119713857Y-112312342D02*
X119666238Y-112407580D01*
X119666238Y-112407580D02*
X119618619Y-112455200D01*
X119618619Y-112455200D02*
X119523381Y-112502819D01*
X119523381Y-112502819D02*
X119237667Y-112502819D01*
X119237667Y-112502819D02*
X119142429Y-112455200D01*
X119142429Y-112455200D02*
X119094810Y-112407580D01*
X120666238Y-112502819D02*
X120094810Y-112502819D01*
X120380524Y-112502819D02*
X120380524Y-111502819D01*
X120380524Y-111502819D02*
X120285286Y-111645676D01*
X120285286Y-111645676D02*
X120190048Y-111740914D01*
X120190048Y-111740914D02*
X120094810Y-111788533D01*
X120951953Y-111502819D02*
X121523381Y-111502819D01*
X121237667Y-112502819D02*
X121237667Y-111502819D01*
X121856715Y-112121866D02*
X122618620Y-112121866D01*
X123047191Y-111598057D02*
X123094810Y-111550438D01*
X123094810Y-111550438D02*
X123190048Y-111502819D01*
X123190048Y-111502819D02*
X123428143Y-111502819D01*
X123428143Y-111502819D02*
X123523381Y-111550438D01*
X123523381Y-111550438D02*
X123571000Y-111598057D01*
X123571000Y-111598057D02*
X123618619Y-111693295D01*
X123618619Y-111693295D02*
X123618619Y-111788533D01*
X123618619Y-111788533D02*
X123571000Y-111931390D01*
X123571000Y-111931390D02*
X122999572Y-112502819D01*
X122999572Y-112502819D02*
X123618619Y-112502819D01*
X124047191Y-112502819D02*
X124047191Y-111502819D01*
X124047191Y-111502819D02*
X124285286Y-111502819D01*
X124285286Y-111502819D02*
X124428143Y-111550438D01*
X124428143Y-111550438D02*
X124523381Y-111645676D01*
X124523381Y-111645676D02*
X124571000Y-111740914D01*
X124571000Y-111740914D02*
X124618619Y-111931390D01*
X124618619Y-111931390D02*
X124618619Y-112074247D01*
X124618619Y-112074247D02*
X124571000Y-112264723D01*
X124571000Y-112264723D02*
X124523381Y-112359961D01*
X124523381Y-112359961D02*
X124428143Y-112455200D01*
X124428143Y-112455200D02*
X124285286Y-112502819D01*
X124285286Y-112502819D02*
X124047191Y-112502819D01*
X125618619Y-112407580D02*
X125571000Y-112455200D01*
X125571000Y-112455200D02*
X125428143Y-112502819D01*
X125428143Y-112502819D02*
X125332905Y-112502819D01*
X125332905Y-112502819D02*
X125190048Y-112455200D01*
X125190048Y-112455200D02*
X125094810Y-112359961D01*
X125094810Y-112359961D02*
X125047191Y-112264723D01*
X125047191Y-112264723D02*
X124999572Y-112074247D01*
X124999572Y-112074247D02*
X124999572Y-111931390D01*
X124999572Y-111931390D02*
X125047191Y-111740914D01*
X125047191Y-111740914D02*
X125094810Y-111645676D01*
X125094810Y-111645676D02*
X125190048Y-111550438D01*
X125190048Y-111550438D02*
X125332905Y-111502819D01*
X125332905Y-111502819D02*
X125428143Y-111502819D01*
X125428143Y-111502819D02*
X125571000Y-111550438D01*
X125571000Y-111550438D02*
X125618619Y-111598057D01*
X126047191Y-112502819D02*
X126047191Y-111502819D01*
X126285286Y-112598057D02*
X127047190Y-112598057D01*
X127285286Y-112502819D02*
X127285286Y-111502819D01*
X127285286Y-111502819D02*
X127618619Y-112217104D01*
X127618619Y-112217104D02*
X127951952Y-111502819D01*
X127951952Y-111502819D02*
X127951952Y-112502819D01*
X128999571Y-112407580D02*
X128951952Y-112455200D01*
X128951952Y-112455200D02*
X128809095Y-112502819D01*
X128809095Y-112502819D02*
X128713857Y-112502819D01*
X128713857Y-112502819D02*
X128571000Y-112455200D01*
X128571000Y-112455200D02*
X128475762Y-112359961D01*
X128475762Y-112359961D02*
X128428143Y-112264723D01*
X128428143Y-112264723D02*
X128380524Y-112074247D01*
X128380524Y-112074247D02*
X128380524Y-111931390D01*
X128380524Y-111931390D02*
X128428143Y-111740914D01*
X128428143Y-111740914D02*
X128475762Y-111645676D01*
X128475762Y-111645676D02*
X128571000Y-111550438D01*
X128571000Y-111550438D02*
X128713857Y-111502819D01*
X128713857Y-111502819D02*
X128809095Y-111502819D01*
X128809095Y-111502819D02*
X128951952Y-111550438D01*
X128951952Y-111550438D02*
X128999571Y-111598057D01*
X130059018Y-96742262D02*
X130096514Y-96629776D01*
X130096514Y-96629776D02*
X130134009Y-96592280D01*
X130134009Y-96592280D02*
X130209000Y-96554785D01*
X130209000Y-96554785D02*
X130321486Y-96554785D01*
X130321486Y-96554785D02*
X130396476Y-96592280D01*
X130396476Y-96592280D02*
X130433972Y-96629776D01*
X130433972Y-96629776D02*
X130471467Y-96704766D01*
X130471467Y-96704766D02*
X130471467Y-97004729D01*
X130471467Y-97004729D02*
X129684065Y-97004729D01*
X129684065Y-97004729D02*
X129684065Y-96742262D01*
X129684065Y-96742262D02*
X129721560Y-96667271D01*
X129721560Y-96667271D02*
X129759056Y-96629776D01*
X129759056Y-96629776D02*
X129834046Y-96592280D01*
X129834046Y-96592280D02*
X129909037Y-96592280D01*
X129909037Y-96592280D02*
X129984028Y-96629776D01*
X129984028Y-96629776D02*
X130021523Y-96667271D01*
X130021523Y-96667271D02*
X130059018Y-96742262D01*
X130059018Y-96742262D02*
X130059018Y-97004729D01*
X130471467Y-96217327D02*
X129684065Y-96217327D01*
X129684065Y-96217327D02*
X130246495Y-95954860D01*
X130246495Y-95954860D02*
X129684065Y-95692392D01*
X129684065Y-95692392D02*
X130471467Y-95692392D01*
X130471467Y-95317439D02*
X129684065Y-95317439D01*
X129684065Y-95317439D02*
X129684065Y-95017476D01*
X129684065Y-95017476D02*
X129721560Y-94942486D01*
X129721560Y-94942486D02*
X129759056Y-94904990D01*
X129759056Y-94904990D02*
X129834046Y-94867495D01*
X129834046Y-94867495D02*
X129946532Y-94867495D01*
X129946532Y-94867495D02*
X130021523Y-94904990D01*
X130021523Y-94904990D02*
X130059018Y-94942486D01*
X130059018Y-94942486D02*
X130096514Y-95017476D01*
X130096514Y-95017476D02*
X130096514Y-95317439D01*
X129684065Y-94605028D02*
X129684065Y-94117588D01*
X129684065Y-94117588D02*
X129984028Y-94380056D01*
X129984028Y-94380056D02*
X129984028Y-94267570D01*
X129984028Y-94267570D02*
X130021523Y-94192579D01*
X130021523Y-94192579D02*
X130059018Y-94155084D01*
X130059018Y-94155084D02*
X130134009Y-94117588D01*
X130134009Y-94117588D02*
X130321486Y-94117588D01*
X130321486Y-94117588D02*
X130396476Y-94155084D01*
X130396476Y-94155084D02*
X130433972Y-94192579D01*
X130433972Y-94192579D02*
X130471467Y-94267570D01*
X130471467Y-94267570D02*
X130471467Y-94492542D01*
X130471467Y-94492542D02*
X130433972Y-94567532D01*
X130433972Y-94567532D02*
X130396476Y-94605028D01*
X130471467Y-93742635D02*
X130471467Y-93592653D01*
X130471467Y-93592653D02*
X130433972Y-93517663D01*
X130433972Y-93517663D02*
X130396476Y-93480167D01*
X130396476Y-93480167D02*
X130283990Y-93405177D01*
X130283990Y-93405177D02*
X130134009Y-93367681D01*
X130134009Y-93367681D02*
X129834046Y-93367681D01*
X129834046Y-93367681D02*
X129759056Y-93405177D01*
X129759056Y-93405177D02*
X129721560Y-93442672D01*
X129721560Y-93442672D02*
X129684065Y-93517663D01*
X129684065Y-93517663D02*
X129684065Y-93667644D01*
X129684065Y-93667644D02*
X129721560Y-93742635D01*
X129721560Y-93742635D02*
X129759056Y-93780130D01*
X129759056Y-93780130D02*
X129834046Y-93817625D01*
X129834046Y-93817625D02*
X130021523Y-93817625D01*
X130021523Y-93817625D02*
X130096514Y-93780130D01*
X130096514Y-93780130D02*
X130134009Y-93742635D01*
X130134009Y-93742635D02*
X130171504Y-93667644D01*
X130171504Y-93667644D02*
X130171504Y-93517663D01*
X130171504Y-93517663D02*
X130134009Y-93442672D01*
X130134009Y-93442672D02*
X130096514Y-93405177D01*
X130096514Y-93405177D02*
X130021523Y-93367681D01*
X129684065Y-92880242D02*
X129684065Y-92805251D01*
X129684065Y-92805251D02*
X129721560Y-92730260D01*
X129721560Y-92730260D02*
X129759056Y-92692765D01*
X129759056Y-92692765D02*
X129834046Y-92655270D01*
X129834046Y-92655270D02*
X129984028Y-92617774D01*
X129984028Y-92617774D02*
X130171504Y-92617774D01*
X130171504Y-92617774D02*
X130321486Y-92655270D01*
X130321486Y-92655270D02*
X130396476Y-92692765D01*
X130396476Y-92692765D02*
X130433972Y-92730260D01*
X130433972Y-92730260D02*
X130471467Y-92805251D01*
X130471467Y-92805251D02*
X130471467Y-92880242D01*
X130471467Y-92880242D02*
X130433972Y-92955232D01*
X130433972Y-92955232D02*
X130396476Y-92992728D01*
X130396476Y-92992728D02*
X130321486Y-93030223D01*
X130321486Y-93030223D02*
X130171504Y-93067718D01*
X130171504Y-93067718D02*
X129984028Y-93067718D01*
X129984028Y-93067718D02*
X129834046Y-93030223D01*
X129834046Y-93030223D02*
X129759056Y-92992728D01*
X129759056Y-92992728D02*
X129721560Y-92955232D01*
X129721560Y-92955232D02*
X129684065Y-92880242D01*
X142933809Y-118660652D02*
X142933809Y-119327319D01*
X142695714Y-118279700D02*
X142457619Y-118993985D01*
X142457619Y-118993985D02*
X143076666Y-118993985D01*
X143457619Y-119232080D02*
X143505238Y-119279700D01*
X143505238Y-119279700D02*
X143457619Y-119327319D01*
X143457619Y-119327319D02*
X143410000Y-119279700D01*
X143410000Y-119279700D02*
X143457619Y-119232080D01*
X143457619Y-119232080D02*
X143457619Y-119327319D01*
X143838571Y-118327319D02*
X144505237Y-118327319D01*
X144505237Y-118327319D02*
X144076666Y-119327319D01*
X144886190Y-118660652D02*
X144886190Y-119660652D01*
X145362380Y-119184461D02*
X145409999Y-119279700D01*
X145409999Y-119279700D02*
X145505237Y-119327319D01*
X144886190Y-119184461D02*
X144933809Y-119279700D01*
X144933809Y-119279700D02*
X145029047Y-119327319D01*
X145029047Y-119327319D02*
X145219523Y-119327319D01*
X145219523Y-119327319D02*
X145314761Y-119279700D01*
X145314761Y-119279700D02*
X145362380Y-119184461D01*
X145362380Y-119184461D02*
X145362380Y-118660652D01*
X146267142Y-118803509D02*
X145933809Y-118803509D01*
X145933809Y-119327319D02*
X145933809Y-118327319D01*
X145933809Y-118327319D02*
X146409999Y-118327319D01*
D13*
X144326666Y-117372030D02*
X144302857Y-117395840D01*
X144302857Y-117395840D02*
X144231428Y-117419649D01*
X144231428Y-117419649D02*
X144183809Y-117419649D01*
X144183809Y-117419649D02*
X144112381Y-117395840D01*
X144112381Y-117395840D02*
X144064762Y-117348220D01*
X144064762Y-117348220D02*
X144040952Y-117300601D01*
X144040952Y-117300601D02*
X144017143Y-117205363D01*
X144017143Y-117205363D02*
X144017143Y-117133935D01*
X144017143Y-117133935D02*
X144040952Y-117038697D01*
X144040952Y-117038697D02*
X144064762Y-116991078D01*
X144064762Y-116991078D02*
X144112381Y-116943459D01*
X144112381Y-116943459D02*
X144183809Y-116919649D01*
X144183809Y-116919649D02*
X144231428Y-116919649D01*
X144231428Y-116919649D02*
X144302857Y-116943459D01*
X144302857Y-116943459D02*
X144326666Y-116967268D01*
X144517143Y-116967268D02*
X144540952Y-116943459D01*
X144540952Y-116943459D02*
X144588571Y-116919649D01*
X144588571Y-116919649D02*
X144707619Y-116919649D01*
X144707619Y-116919649D02*
X144755238Y-116943459D01*
X144755238Y-116943459D02*
X144779047Y-116967268D01*
X144779047Y-116967268D02*
X144802857Y-117014887D01*
X144802857Y-117014887D02*
X144802857Y-117062506D01*
X144802857Y-117062506D02*
X144779047Y-117133935D01*
X144779047Y-117133935D02*
X144493333Y-117419649D01*
X144493333Y-117419649D02*
X144802857Y-117419649D01*
D10*
X136452380Y-91934819D02*
X135880952Y-91934819D01*
X136166666Y-91934819D02*
X136166666Y-90934819D01*
X136166666Y-90934819D02*
X136071428Y-91077676D01*
X136071428Y-91077676D02*
X135976190Y-91172914D01*
X135976190Y-91172914D02*
X135880952Y-91220533D01*
X137071428Y-90934819D02*
X137166666Y-90934819D01*
X137166666Y-90934819D02*
X137261904Y-90982438D01*
X137261904Y-90982438D02*
X137309523Y-91030057D01*
X137309523Y-91030057D02*
X137357142Y-91125295D01*
X137357142Y-91125295D02*
X137404761Y-91315771D01*
X137404761Y-91315771D02*
X137404761Y-91553866D01*
X137404761Y-91553866D02*
X137357142Y-91744342D01*
X137357142Y-91744342D02*
X137309523Y-91839580D01*
X137309523Y-91839580D02*
X137261904Y-91887200D01*
X137261904Y-91887200D02*
X137166666Y-91934819D01*
X137166666Y-91934819D02*
X137071428Y-91934819D01*
X137071428Y-91934819D02*
X136976190Y-91887200D01*
X136976190Y-91887200D02*
X136928571Y-91839580D01*
X136928571Y-91839580D02*
X136880952Y-91744342D01*
X136880952Y-91744342D02*
X136833333Y-91553866D01*
X136833333Y-91553866D02*
X136833333Y-91315771D01*
X136833333Y-91315771D02*
X136880952Y-91125295D01*
X136880952Y-91125295D02*
X136928571Y-91030057D01*
X136928571Y-91030057D02*
X136976190Y-90982438D01*
X136976190Y-90982438D02*
X137071428Y-90934819D01*
X138023809Y-90934819D02*
X138119047Y-90934819D01*
X138119047Y-90934819D02*
X138214285Y-90982438D01*
X138214285Y-90982438D02*
X138261904Y-91030057D01*
X138261904Y-91030057D02*
X138309523Y-91125295D01*
X138309523Y-91125295D02*
X138357142Y-91315771D01*
X138357142Y-91315771D02*
X138357142Y-91553866D01*
X138357142Y-91553866D02*
X138309523Y-91744342D01*
X138309523Y-91744342D02*
X138261904Y-91839580D01*
X138261904Y-91839580D02*
X138214285Y-91887200D01*
X138214285Y-91887200D02*
X138119047Y-91934819D01*
X138119047Y-91934819D02*
X138023809Y-91934819D01*
X138023809Y-91934819D02*
X137928571Y-91887200D01*
X137928571Y-91887200D02*
X137880952Y-91839580D01*
X137880952Y-91839580D02*
X137833333Y-91744342D01*
X137833333Y-91744342D02*
X137785714Y-91553866D01*
X137785714Y-91553866D02*
X137785714Y-91315771D01*
X137785714Y-91315771D02*
X137833333Y-91125295D01*
X137833333Y-91125295D02*
X137880952Y-91030057D01*
X137880952Y-91030057D02*
X137928571Y-90982438D01*
X137928571Y-90982438D02*
X138023809Y-90934819D01*
X138785714Y-91268152D02*
X138785714Y-91934819D01*
X138785714Y-91363390D02*
X138833333Y-91315771D01*
X138833333Y-91315771D02*
X138928571Y-91268152D01*
X138928571Y-91268152D02*
X139071428Y-91268152D01*
X139071428Y-91268152D02*
X139166666Y-91315771D01*
X139166666Y-91315771D02*
X139214285Y-91411009D01*
X139214285Y-91411009D02*
X139214285Y-91934819D01*
X140023809Y-91411009D02*
X139690476Y-91411009D01*
X139690476Y-91934819D02*
X139690476Y-90934819D01*
X139690476Y-90934819D02*
X140166666Y-90934819D01*
D11*
X137742857Y-90193832D02*
X137723809Y-90212880D01*
X137723809Y-90212880D02*
X137666667Y-90231927D01*
X137666667Y-90231927D02*
X137628571Y-90231927D01*
X137628571Y-90231927D02*
X137571428Y-90212880D01*
X137571428Y-90212880D02*
X137533333Y-90174784D01*
X137533333Y-90174784D02*
X137514286Y-90136689D01*
X137514286Y-90136689D02*
X137495238Y-90060499D01*
X137495238Y-90060499D02*
X137495238Y-90003356D01*
X137495238Y-90003356D02*
X137514286Y-89927165D01*
X137514286Y-89927165D02*
X137533333Y-89889070D01*
X137533333Y-89889070D02*
X137571428Y-89850975D01*
X137571428Y-89850975D02*
X137628571Y-89831927D01*
X137628571Y-89831927D02*
X137666667Y-89831927D01*
X137666667Y-89831927D02*
X137723809Y-89850975D01*
X137723809Y-89850975D02*
X137742857Y-89870022D01*
X138123809Y-90231927D02*
X137895238Y-90231927D01*
X138009524Y-90231927D02*
X138009524Y-89831927D01*
X138009524Y-89831927D02*
X137971428Y-89889070D01*
X137971428Y-89889070D02*
X137933333Y-89927165D01*
X137933333Y-89927165D02*
X137895238Y-89946213D01*
X138257142Y-89831927D02*
X138504761Y-89831927D01*
X138504761Y-89831927D02*
X138371428Y-89984308D01*
X138371428Y-89984308D02*
X138428571Y-89984308D01*
X138428571Y-89984308D02*
X138466666Y-90003356D01*
X138466666Y-90003356D02*
X138485714Y-90022403D01*
X138485714Y-90022403D02*
X138504761Y-90060499D01*
X138504761Y-90060499D02*
X138504761Y-90155737D01*
X138504761Y-90155737D02*
X138485714Y-90193832D01*
X138485714Y-90193832D02*
X138466666Y-90212880D01*
X138466666Y-90212880D02*
X138428571Y-90231927D01*
X138428571Y-90231927D02*
X138314285Y-90231927D01*
X138314285Y-90231927D02*
X138276190Y-90212880D01*
X138276190Y-90212880D02*
X138257142Y-90193832D01*
D10*
X156309819Y-142997619D02*
X156309819Y-143569047D01*
X156309819Y-143283333D02*
X155309819Y-143283333D01*
X155309819Y-143283333D02*
X155452676Y-143378571D01*
X155452676Y-143378571D02*
X155547914Y-143473809D01*
X155547914Y-143473809D02*
X155595533Y-143569047D01*
X155309819Y-142378571D02*
X155309819Y-142283333D01*
X155309819Y-142283333D02*
X155357438Y-142188095D01*
X155357438Y-142188095D02*
X155405057Y-142140476D01*
X155405057Y-142140476D02*
X155500295Y-142092857D01*
X155500295Y-142092857D02*
X155690771Y-142045238D01*
X155690771Y-142045238D02*
X155928866Y-142045238D01*
X155928866Y-142045238D02*
X156119342Y-142092857D01*
X156119342Y-142092857D02*
X156214580Y-142140476D01*
X156214580Y-142140476D02*
X156262200Y-142188095D01*
X156262200Y-142188095D02*
X156309819Y-142283333D01*
X156309819Y-142283333D02*
X156309819Y-142378571D01*
X156309819Y-142378571D02*
X156262200Y-142473809D01*
X156262200Y-142473809D02*
X156214580Y-142521428D01*
X156214580Y-142521428D02*
X156119342Y-142569047D01*
X156119342Y-142569047D02*
X155928866Y-142616666D01*
X155928866Y-142616666D02*
X155690771Y-142616666D01*
X155690771Y-142616666D02*
X155500295Y-142569047D01*
X155500295Y-142569047D02*
X155405057Y-142521428D01*
X155405057Y-142521428D02*
X155357438Y-142473809D01*
X155357438Y-142473809D02*
X155309819Y-142378571D01*
X155309819Y-141426190D02*
X155309819Y-141330952D01*
X155309819Y-141330952D02*
X155357438Y-141235714D01*
X155357438Y-141235714D02*
X155405057Y-141188095D01*
X155405057Y-141188095D02*
X155500295Y-141140476D01*
X155500295Y-141140476D02*
X155690771Y-141092857D01*
X155690771Y-141092857D02*
X155928866Y-141092857D01*
X155928866Y-141092857D02*
X156119342Y-141140476D01*
X156119342Y-141140476D02*
X156214580Y-141188095D01*
X156214580Y-141188095D02*
X156262200Y-141235714D01*
X156262200Y-141235714D02*
X156309819Y-141330952D01*
X156309819Y-141330952D02*
X156309819Y-141426190D01*
X156309819Y-141426190D02*
X156262200Y-141521428D01*
X156262200Y-141521428D02*
X156214580Y-141569047D01*
X156214580Y-141569047D02*
X156119342Y-141616666D01*
X156119342Y-141616666D02*
X155928866Y-141664285D01*
X155928866Y-141664285D02*
X155690771Y-141664285D01*
X155690771Y-141664285D02*
X155500295Y-141616666D01*
X155500295Y-141616666D02*
X155405057Y-141569047D01*
X155405057Y-141569047D02*
X155357438Y-141521428D01*
X155357438Y-141521428D02*
X155309819Y-141426190D01*
X155643152Y-140664285D02*
X156309819Y-140664285D01*
X155738390Y-140664285D02*
X155690771Y-140616666D01*
X155690771Y-140616666D02*
X155643152Y-140521428D01*
X155643152Y-140521428D02*
X155643152Y-140378571D01*
X155643152Y-140378571D02*
X155690771Y-140283333D01*
X155690771Y-140283333D02*
X155786009Y-140235714D01*
X155786009Y-140235714D02*
X156309819Y-140235714D01*
X155786009Y-139426190D02*
X155786009Y-139759523D01*
X156309819Y-139759523D02*
X155309819Y-139759523D01*
X155309819Y-139759523D02*
X155309819Y-139283333D01*
D11*
X154618832Y-141416666D02*
X154637880Y-141435714D01*
X154637880Y-141435714D02*
X154656927Y-141492856D01*
X154656927Y-141492856D02*
X154656927Y-141530952D01*
X154656927Y-141530952D02*
X154637880Y-141588095D01*
X154637880Y-141588095D02*
X154599784Y-141626190D01*
X154599784Y-141626190D02*
X154561689Y-141645237D01*
X154561689Y-141645237D02*
X154485499Y-141664285D01*
X154485499Y-141664285D02*
X154428356Y-141664285D01*
X154428356Y-141664285D02*
X154352165Y-141645237D01*
X154352165Y-141645237D02*
X154314070Y-141626190D01*
X154314070Y-141626190D02*
X154275975Y-141588095D01*
X154275975Y-141588095D02*
X154256927Y-141530952D01*
X154256927Y-141530952D02*
X154256927Y-141492856D01*
X154256927Y-141492856D02*
X154275975Y-141435714D01*
X154275975Y-141435714D02*
X154295022Y-141416666D01*
X154256927Y-141054761D02*
X154256927Y-141245237D01*
X154256927Y-141245237D02*
X154447403Y-141264285D01*
X154447403Y-141264285D02*
X154428356Y-141245237D01*
X154428356Y-141245237D02*
X154409308Y-141207142D01*
X154409308Y-141207142D02*
X154409308Y-141111904D01*
X154409308Y-141111904D02*
X154428356Y-141073809D01*
X154428356Y-141073809D02*
X154447403Y-141054761D01*
X154447403Y-141054761D02*
X154485499Y-141035714D01*
X154485499Y-141035714D02*
X154580737Y-141035714D01*
X154580737Y-141035714D02*
X154618832Y-141054761D01*
X154618832Y-141054761D02*
X154637880Y-141073809D01*
X154637880Y-141073809D02*
X154656927Y-141111904D01*
X154656927Y-141111904D02*
X154656927Y-141207142D01*
X154656927Y-141207142D02*
X154637880Y-141245237D01*
X154637880Y-141245237D02*
X154618832Y-141264285D01*
D10*
X162312200Y-107729761D02*
X162359819Y-107586904D01*
X162359819Y-107586904D02*
X162359819Y-107348809D01*
X162359819Y-107348809D02*
X162312200Y-107253571D01*
X162312200Y-107253571D02*
X162264580Y-107205952D01*
X162264580Y-107205952D02*
X162169342Y-107158333D01*
X162169342Y-107158333D02*
X162074104Y-107158333D01*
X162074104Y-107158333D02*
X161978866Y-107205952D01*
X161978866Y-107205952D02*
X161931247Y-107253571D01*
X161931247Y-107253571D02*
X161883628Y-107348809D01*
X161883628Y-107348809D02*
X161836009Y-107539285D01*
X161836009Y-107539285D02*
X161788390Y-107634523D01*
X161788390Y-107634523D02*
X161740771Y-107682142D01*
X161740771Y-107682142D02*
X161645533Y-107729761D01*
X161645533Y-107729761D02*
X161550295Y-107729761D01*
X161550295Y-107729761D02*
X161455057Y-107682142D01*
X161455057Y-107682142D02*
X161407438Y-107634523D01*
X161407438Y-107634523D02*
X161359819Y-107539285D01*
X161359819Y-107539285D02*
X161359819Y-107301190D01*
X161359819Y-107301190D02*
X161407438Y-107158333D01*
X161359819Y-106872618D02*
X161359819Y-106301190D01*
X162359819Y-106586904D02*
X161359819Y-106586904D01*
X162359819Y-105967856D02*
X161359819Y-105967856D01*
X161359819Y-105967856D02*
X162074104Y-105634523D01*
X162074104Y-105634523D02*
X161359819Y-105301190D01*
X161359819Y-105301190D02*
X162359819Y-105301190D01*
X161359819Y-104920237D02*
X161359819Y-104301190D01*
X161359819Y-104301190D02*
X161740771Y-104634523D01*
X161740771Y-104634523D02*
X161740771Y-104491666D01*
X161740771Y-104491666D02*
X161788390Y-104396428D01*
X161788390Y-104396428D02*
X161836009Y-104348809D01*
X161836009Y-104348809D02*
X161931247Y-104301190D01*
X161931247Y-104301190D02*
X162169342Y-104301190D01*
X162169342Y-104301190D02*
X162264580Y-104348809D01*
X162264580Y-104348809D02*
X162312200Y-104396428D01*
X162312200Y-104396428D02*
X162359819Y-104491666D01*
X162359819Y-104491666D02*
X162359819Y-104777380D01*
X162359819Y-104777380D02*
X162312200Y-104872618D01*
X162312200Y-104872618D02*
X162264580Y-104920237D01*
X161455057Y-103920237D02*
X161407438Y-103872618D01*
X161407438Y-103872618D02*
X161359819Y-103777380D01*
X161359819Y-103777380D02*
X161359819Y-103539285D01*
X161359819Y-103539285D02*
X161407438Y-103444047D01*
X161407438Y-103444047D02*
X161455057Y-103396428D01*
X161455057Y-103396428D02*
X161550295Y-103348809D01*
X161550295Y-103348809D02*
X161645533Y-103348809D01*
X161645533Y-103348809D02*
X161788390Y-103396428D01*
X161788390Y-103396428D02*
X162359819Y-103967856D01*
X162359819Y-103967856D02*
X162359819Y-103348809D01*
X161407438Y-102396428D02*
X161359819Y-102491666D01*
X161359819Y-102491666D02*
X161359819Y-102634523D01*
X161359819Y-102634523D02*
X161407438Y-102777380D01*
X161407438Y-102777380D02*
X161502676Y-102872618D01*
X161502676Y-102872618D02*
X161597914Y-102920237D01*
X161597914Y-102920237D02*
X161788390Y-102967856D01*
X161788390Y-102967856D02*
X161931247Y-102967856D01*
X161931247Y-102967856D02*
X162121723Y-102920237D01*
X162121723Y-102920237D02*
X162216961Y-102872618D01*
X162216961Y-102872618D02*
X162312200Y-102777380D01*
X162312200Y-102777380D02*
X162359819Y-102634523D01*
X162359819Y-102634523D02*
X162359819Y-102539285D01*
X162359819Y-102539285D02*
X162312200Y-102396428D01*
X162312200Y-102396428D02*
X162264580Y-102348809D01*
X162264580Y-102348809D02*
X161931247Y-102348809D01*
X161931247Y-102348809D02*
X161931247Y-102539285D01*
X161359819Y-101729761D02*
X161359819Y-101634523D01*
X161359819Y-101634523D02*
X161407438Y-101539285D01*
X161407438Y-101539285D02*
X161455057Y-101491666D01*
X161455057Y-101491666D02*
X161550295Y-101444047D01*
X161550295Y-101444047D02*
X161740771Y-101396428D01*
X161740771Y-101396428D02*
X161978866Y-101396428D01*
X161978866Y-101396428D02*
X162169342Y-101444047D01*
X162169342Y-101444047D02*
X162264580Y-101491666D01*
X162264580Y-101491666D02*
X162312200Y-101539285D01*
X162312200Y-101539285D02*
X162359819Y-101634523D01*
X162359819Y-101634523D02*
X162359819Y-101729761D01*
X162359819Y-101729761D02*
X162312200Y-101824999D01*
X162312200Y-101824999D02*
X162264580Y-101872618D01*
X162264580Y-101872618D02*
X162169342Y-101920237D01*
X162169342Y-101920237D02*
X161978866Y-101967856D01*
X161978866Y-101967856D02*
X161740771Y-101967856D01*
X161740771Y-101967856D02*
X161550295Y-101920237D01*
X161550295Y-101920237D02*
X161455057Y-101872618D01*
X161455057Y-101872618D02*
X161407438Y-101824999D01*
X161407438Y-101824999D02*
X161359819Y-101729761D01*
X161359819Y-101063094D02*
X161359819Y-100396428D01*
X161359819Y-100396428D02*
X162359819Y-100824999D01*
X162359819Y-99491666D02*
X162359819Y-100063094D01*
X162359819Y-99777380D02*
X161359819Y-99777380D01*
X161359819Y-99777380D02*
X161502676Y-99872618D01*
X161502676Y-99872618D02*
X161597914Y-99967856D01*
X161597914Y-99967856D02*
X161645533Y-100063094D01*
X162359819Y-99063094D02*
X161359819Y-99063094D01*
X162359819Y-98491666D02*
X161788390Y-98920237D01*
X161359819Y-98491666D02*
X161931247Y-99063094D01*
X161788390Y-97920237D02*
X161740771Y-98015475D01*
X161740771Y-98015475D02*
X161693152Y-98063094D01*
X161693152Y-98063094D02*
X161597914Y-98110713D01*
X161597914Y-98110713D02*
X161550295Y-98110713D01*
X161550295Y-98110713D02*
X161455057Y-98063094D01*
X161455057Y-98063094D02*
X161407438Y-98015475D01*
X161407438Y-98015475D02*
X161359819Y-97920237D01*
X161359819Y-97920237D02*
X161359819Y-97729761D01*
X161359819Y-97729761D02*
X161407438Y-97634523D01*
X161407438Y-97634523D02*
X161455057Y-97586904D01*
X161455057Y-97586904D02*
X161550295Y-97539285D01*
X161550295Y-97539285D02*
X161597914Y-97539285D01*
X161597914Y-97539285D02*
X161693152Y-97586904D01*
X161693152Y-97586904D02*
X161740771Y-97634523D01*
X161740771Y-97634523D02*
X161788390Y-97729761D01*
X161788390Y-97729761D02*
X161788390Y-97920237D01*
X161788390Y-97920237D02*
X161836009Y-98015475D01*
X161836009Y-98015475D02*
X161883628Y-98063094D01*
X161883628Y-98063094D02*
X161978866Y-98110713D01*
X161978866Y-98110713D02*
X162169342Y-98110713D01*
X162169342Y-98110713D02*
X162264580Y-98063094D01*
X162264580Y-98063094D02*
X162312200Y-98015475D01*
X162312200Y-98015475D02*
X162359819Y-97920237D01*
X162359819Y-97920237D02*
X162359819Y-97729761D01*
X162359819Y-97729761D02*
X162312200Y-97634523D01*
X162312200Y-97634523D02*
X162264580Y-97586904D01*
X162264580Y-97586904D02*
X162169342Y-97539285D01*
X162169342Y-97539285D02*
X161978866Y-97539285D01*
X161978866Y-97539285D02*
X161883628Y-97586904D01*
X161883628Y-97586904D02*
X161836009Y-97634523D01*
X161836009Y-97634523D02*
X161788390Y-97729761D01*
X161359819Y-97253570D02*
X161359819Y-96682142D01*
X162359819Y-96967856D02*
X161359819Y-96967856D01*
X162359819Y-96444046D02*
X161693152Y-95920237D01*
X161693152Y-96444046D02*
X162359819Y-95920237D01*
X162359819Y-95539284D02*
X161359819Y-95539284D01*
X161359819Y-95539284D02*
X162359819Y-94967856D01*
X162359819Y-94967856D02*
X161359819Y-94967856D01*
X155479819Y-102086904D02*
X156289342Y-102086904D01*
X156289342Y-102086904D02*
X156384580Y-102039285D01*
X156384580Y-102039285D02*
X156432200Y-101991666D01*
X156432200Y-101991666D02*
X156479819Y-101896428D01*
X156479819Y-101896428D02*
X156479819Y-101705952D01*
X156479819Y-101705952D02*
X156432200Y-101610714D01*
X156432200Y-101610714D02*
X156384580Y-101563095D01*
X156384580Y-101563095D02*
X156289342Y-101515476D01*
X156289342Y-101515476D02*
X155479819Y-101515476D01*
X155575057Y-101086904D02*
X155527438Y-101039285D01*
X155527438Y-101039285D02*
X155479819Y-100944047D01*
X155479819Y-100944047D02*
X155479819Y-100705952D01*
X155479819Y-100705952D02*
X155527438Y-100610714D01*
X155527438Y-100610714D02*
X155575057Y-100563095D01*
X155575057Y-100563095D02*
X155670295Y-100515476D01*
X155670295Y-100515476D02*
X155765533Y-100515476D01*
X155765533Y-100515476D02*
X155908390Y-100563095D01*
X155908390Y-100563095D02*
X156479819Y-101134523D01*
X156479819Y-101134523D02*
X156479819Y-100515476D01*
X145995494Y-139642176D02*
X145995494Y-140160271D01*
X145995494Y-140160271D02*
X146025971Y-140221223D01*
X146025971Y-140221223D02*
X146056447Y-140251700D01*
X146056447Y-140251700D02*
X146117399Y-140282176D01*
X146117399Y-140282176D02*
X146239304Y-140282176D01*
X146239304Y-140282176D02*
X146300256Y-140251700D01*
X146300256Y-140251700D02*
X146330733Y-140221223D01*
X146330733Y-140221223D02*
X146361209Y-140160271D01*
X146361209Y-140160271D02*
X146361209Y-139642176D01*
X146635494Y-140251700D02*
X146726923Y-140282176D01*
X146726923Y-140282176D02*
X146879304Y-140282176D01*
X146879304Y-140282176D02*
X146940256Y-140251700D01*
X146940256Y-140251700D02*
X146970732Y-140221223D01*
X146970732Y-140221223D02*
X147001209Y-140160271D01*
X147001209Y-140160271D02*
X147001209Y-140099319D01*
X147001209Y-140099319D02*
X146970732Y-140038366D01*
X146970732Y-140038366D02*
X146940256Y-140007890D01*
X146940256Y-140007890D02*
X146879304Y-139977414D01*
X146879304Y-139977414D02*
X146757399Y-139946938D01*
X146757399Y-139946938D02*
X146696447Y-139916461D01*
X146696447Y-139916461D02*
X146665970Y-139885985D01*
X146665970Y-139885985D02*
X146635494Y-139825033D01*
X146635494Y-139825033D02*
X146635494Y-139764080D01*
X146635494Y-139764080D02*
X146665970Y-139703128D01*
X146665970Y-139703128D02*
X146696447Y-139672652D01*
X146696447Y-139672652D02*
X146757399Y-139642176D01*
X146757399Y-139642176D02*
X146909780Y-139642176D01*
X146909780Y-139642176D02*
X147001209Y-139672652D01*
X147488828Y-139946938D02*
X147580256Y-139977414D01*
X147580256Y-139977414D02*
X147610733Y-140007890D01*
X147610733Y-140007890D02*
X147641209Y-140068842D01*
X147641209Y-140068842D02*
X147641209Y-140160271D01*
X147641209Y-140160271D02*
X147610733Y-140221223D01*
X147610733Y-140221223D02*
X147580256Y-140251700D01*
X147580256Y-140251700D02*
X147519304Y-140282176D01*
X147519304Y-140282176D02*
X147275494Y-140282176D01*
X147275494Y-140282176D02*
X147275494Y-139642176D01*
X147275494Y-139642176D02*
X147488828Y-139642176D01*
X147488828Y-139642176D02*
X147549780Y-139672652D01*
X147549780Y-139672652D02*
X147580256Y-139703128D01*
X147580256Y-139703128D02*
X147610733Y-139764080D01*
X147610733Y-139764080D02*
X147610733Y-139825033D01*
X147610733Y-139825033D02*
X147580256Y-139885985D01*
X147580256Y-139885985D02*
X147549780Y-139916461D01*
X147549780Y-139916461D02*
X147488828Y-139946938D01*
X147488828Y-139946938D02*
X147275494Y-139946938D01*
X148220256Y-140282176D02*
X147915494Y-140282176D01*
X147915494Y-140282176D02*
X147915494Y-139642176D01*
X148799304Y-140221223D02*
X148768828Y-140251700D01*
X148768828Y-140251700D02*
X148677399Y-140282176D01*
X148677399Y-140282176D02*
X148616447Y-140282176D01*
X148616447Y-140282176D02*
X148525018Y-140251700D01*
X148525018Y-140251700D02*
X148464066Y-140190747D01*
X148464066Y-140190747D02*
X148433589Y-140129795D01*
X148433589Y-140129795D02*
X148403113Y-140007890D01*
X148403113Y-140007890D02*
X148403113Y-139916461D01*
X148403113Y-139916461D02*
X148433589Y-139794557D01*
X148433589Y-139794557D02*
X148464066Y-139733604D01*
X148464066Y-139733604D02*
X148525018Y-139672652D01*
X148525018Y-139672652D02*
X148616447Y-139642176D01*
X148616447Y-139642176D02*
X148677399Y-139642176D01*
X148677399Y-139642176D02*
X148768828Y-139672652D01*
X148768828Y-139672652D02*
X148799304Y-139703128D01*
X149347875Y-139642176D02*
X149225970Y-139642176D01*
X149225970Y-139642176D02*
X149165018Y-139672652D01*
X149165018Y-139672652D02*
X149134542Y-139703128D01*
X149134542Y-139703128D02*
X149073589Y-139794557D01*
X149073589Y-139794557D02*
X149043113Y-139916461D01*
X149043113Y-139916461D02*
X149043113Y-140160271D01*
X149043113Y-140160271D02*
X149073589Y-140221223D01*
X149073589Y-140221223D02*
X149104066Y-140251700D01*
X149104066Y-140251700D02*
X149165018Y-140282176D01*
X149165018Y-140282176D02*
X149286923Y-140282176D01*
X149286923Y-140282176D02*
X149347875Y-140251700D01*
X149347875Y-140251700D02*
X149378351Y-140221223D01*
X149378351Y-140221223D02*
X149408828Y-140160271D01*
X149408828Y-140160271D02*
X149408828Y-140007890D01*
X149408828Y-140007890D02*
X149378351Y-139946938D01*
X149378351Y-139946938D02*
X149347875Y-139916461D01*
X149347875Y-139916461D02*
X149286923Y-139885985D01*
X149286923Y-139885985D02*
X149165018Y-139885985D01*
X149165018Y-139885985D02*
X149104066Y-139916461D01*
X149104066Y-139916461D02*
X149073589Y-139946938D01*
X149073589Y-139946938D02*
X149043113Y-140007890D01*
X149683113Y-140038366D02*
X150170733Y-140038366D01*
X150445018Y-139703128D02*
X150475494Y-139672652D01*
X150475494Y-139672652D02*
X150536447Y-139642176D01*
X150536447Y-139642176D02*
X150688828Y-139642176D01*
X150688828Y-139642176D02*
X150749780Y-139672652D01*
X150749780Y-139672652D02*
X150780256Y-139703128D01*
X150780256Y-139703128D02*
X150810733Y-139764080D01*
X150810733Y-139764080D02*
X150810733Y-139825033D01*
X150810733Y-139825033D02*
X150780256Y-139916461D01*
X150780256Y-139916461D02*
X150414542Y-140282176D01*
X150414542Y-140282176D02*
X150810733Y-140282176D01*
X151054542Y-140251700D02*
X151145971Y-140282176D01*
X151145971Y-140282176D02*
X151298352Y-140282176D01*
X151298352Y-140282176D02*
X151359304Y-140251700D01*
X151359304Y-140251700D02*
X151389780Y-140221223D01*
X151389780Y-140221223D02*
X151420257Y-140160271D01*
X151420257Y-140160271D02*
X151420257Y-140099319D01*
X151420257Y-140099319D02*
X151389780Y-140038366D01*
X151389780Y-140038366D02*
X151359304Y-140007890D01*
X151359304Y-140007890D02*
X151298352Y-139977414D01*
X151298352Y-139977414D02*
X151176447Y-139946938D01*
X151176447Y-139946938D02*
X151115495Y-139916461D01*
X151115495Y-139916461D02*
X151085018Y-139885985D01*
X151085018Y-139885985D02*
X151054542Y-139825033D01*
X151054542Y-139825033D02*
X151054542Y-139764080D01*
X151054542Y-139764080D02*
X151085018Y-139703128D01*
X151085018Y-139703128D02*
X151115495Y-139672652D01*
X151115495Y-139672652D02*
X151176447Y-139642176D01*
X151176447Y-139642176D02*
X151328828Y-139642176D01*
X151328828Y-139642176D02*
X151420257Y-139672652D01*
X152060257Y-140221223D02*
X152029781Y-140251700D01*
X152029781Y-140251700D02*
X151938352Y-140282176D01*
X151938352Y-140282176D02*
X151877400Y-140282176D01*
X151877400Y-140282176D02*
X151785971Y-140251700D01*
X151785971Y-140251700D02*
X151725019Y-140190747D01*
X151725019Y-140190747D02*
X151694542Y-140129795D01*
X151694542Y-140129795D02*
X151664066Y-140007890D01*
X151664066Y-140007890D02*
X151664066Y-139916461D01*
X151664066Y-139916461D02*
X151694542Y-139794557D01*
X151694542Y-139794557D02*
X151725019Y-139733604D01*
X151725019Y-139733604D02*
X151785971Y-139672652D01*
X151785971Y-139672652D02*
X151877400Y-139642176D01*
X151877400Y-139642176D02*
X151938352Y-139642176D01*
X151938352Y-139642176D02*
X152029781Y-139672652D01*
X152029781Y-139672652D02*
X152060257Y-139703128D01*
X152608828Y-139642176D02*
X152486923Y-139642176D01*
X152486923Y-139642176D02*
X152425971Y-139672652D01*
X152425971Y-139672652D02*
X152395495Y-139703128D01*
X152395495Y-139703128D02*
X152334542Y-139794557D01*
X152334542Y-139794557D02*
X152304066Y-139916461D01*
X152304066Y-139916461D02*
X152304066Y-140160271D01*
X152304066Y-140160271D02*
X152334542Y-140221223D01*
X152334542Y-140221223D02*
X152365019Y-140251700D01*
X152365019Y-140251700D02*
X152425971Y-140282176D01*
X152425971Y-140282176D02*
X152547876Y-140282176D01*
X152547876Y-140282176D02*
X152608828Y-140251700D01*
X152608828Y-140251700D02*
X152639304Y-140221223D01*
X152639304Y-140221223D02*
X152669781Y-140160271D01*
X152669781Y-140160271D02*
X152669781Y-140007890D01*
X152669781Y-140007890D02*
X152639304Y-139946938D01*
X152639304Y-139946938D02*
X152608828Y-139916461D01*
X152608828Y-139916461D02*
X152547876Y-139885985D01*
X152547876Y-139885985D02*
X152425971Y-139885985D01*
X152425971Y-139885985D02*
X152365019Y-139916461D01*
X152365019Y-139916461D02*
X152334542Y-139946938D01*
X152334542Y-139946938D02*
X152304066Y-140007890D01*
X152293152Y-64924999D02*
X152959819Y-64924999D01*
X151912200Y-65163094D02*
X152626485Y-65401189D01*
X152626485Y-65401189D02*
X152626485Y-64782142D01*
X152864580Y-64401189D02*
X152912200Y-64353570D01*
X152912200Y-64353570D02*
X152959819Y-64401189D01*
X152959819Y-64401189D02*
X152912200Y-64448808D01*
X152912200Y-64448808D02*
X152864580Y-64401189D01*
X152864580Y-64401189D02*
X152959819Y-64401189D01*
X151959819Y-64020237D02*
X151959819Y-63353571D01*
X151959819Y-63353571D02*
X152959819Y-63782142D01*
X152959819Y-62972618D02*
X151959819Y-62972618D01*
X152578866Y-62877380D02*
X152959819Y-62591666D01*
X152293152Y-62591666D02*
X152674104Y-62972618D01*
X152959819Y-62210713D02*
X152959819Y-61972618D01*
X152959819Y-61972618D02*
X152769342Y-61972618D01*
X152769342Y-61972618D02*
X152721723Y-62067856D01*
X152721723Y-62067856D02*
X152626485Y-62163094D01*
X152626485Y-62163094D02*
X152483628Y-62210713D01*
X152483628Y-62210713D02*
X152245533Y-62210713D01*
X152245533Y-62210713D02*
X152102676Y-62163094D01*
X152102676Y-62163094D02*
X152007438Y-62067856D01*
X152007438Y-62067856D02*
X151959819Y-61924999D01*
X151959819Y-61924999D02*
X151959819Y-61734523D01*
X151959819Y-61734523D02*
X152007438Y-61591666D01*
X152007438Y-61591666D02*
X152102676Y-61496428D01*
X152102676Y-61496428D02*
X152245533Y-61448809D01*
X152245533Y-61448809D02*
X152483628Y-61448809D01*
X152483628Y-61448809D02*
X152626485Y-61496428D01*
X152626485Y-61496428D02*
X152721723Y-61591666D01*
X152721723Y-61591666D02*
X152769342Y-61686904D01*
X152769342Y-61686904D02*
X152959819Y-61686904D01*
X152959819Y-61686904D02*
X152959819Y-61448809D01*
D11*
X151256927Y-63491666D02*
X151066451Y-63624999D01*
X151256927Y-63720237D02*
X150856927Y-63720237D01*
X150856927Y-63720237D02*
X150856927Y-63567856D01*
X150856927Y-63567856D02*
X150875975Y-63529761D01*
X150875975Y-63529761D02*
X150895022Y-63510714D01*
X150895022Y-63510714D02*
X150933118Y-63491666D01*
X150933118Y-63491666D02*
X150990260Y-63491666D01*
X150990260Y-63491666D02*
X151028356Y-63510714D01*
X151028356Y-63510714D02*
X151047403Y-63529761D01*
X151047403Y-63529761D02*
X151066451Y-63567856D01*
X151066451Y-63567856D02*
X151066451Y-63720237D01*
X150856927Y-63148809D02*
X150856927Y-63224999D01*
X150856927Y-63224999D02*
X150875975Y-63263095D01*
X150875975Y-63263095D02*
X150895022Y-63282142D01*
X150895022Y-63282142D02*
X150952165Y-63320237D01*
X150952165Y-63320237D02*
X151028356Y-63339285D01*
X151028356Y-63339285D02*
X151180737Y-63339285D01*
X151180737Y-63339285D02*
X151218832Y-63320237D01*
X151218832Y-63320237D02*
X151237880Y-63301190D01*
X151237880Y-63301190D02*
X151256927Y-63263095D01*
X151256927Y-63263095D02*
X151256927Y-63186904D01*
X151256927Y-63186904D02*
X151237880Y-63148809D01*
X151237880Y-63148809D02*
X151218832Y-63129761D01*
X151218832Y-63129761D02*
X151180737Y-63110714D01*
X151180737Y-63110714D02*
X151085499Y-63110714D01*
X151085499Y-63110714D02*
X151047403Y-63129761D01*
X151047403Y-63129761D02*
X151028356Y-63148809D01*
X151028356Y-63148809D02*
X151009308Y-63186904D01*
X151009308Y-63186904D02*
X151009308Y-63263095D01*
X151009308Y-63263095D02*
X151028356Y-63301190D01*
X151028356Y-63301190D02*
X151047403Y-63320237D01*
X151047403Y-63320237D02*
X151085499Y-63339285D01*
D10*
X190074819Y-84172619D02*
X190074819Y-84744047D01*
X190074819Y-84458333D02*
X189074819Y-84458333D01*
X189074819Y-84458333D02*
X189217676Y-84553571D01*
X189217676Y-84553571D02*
X189312914Y-84648809D01*
X189312914Y-84648809D02*
X189360533Y-84744047D01*
X189074819Y-83553571D02*
X189074819Y-83458333D01*
X189074819Y-83458333D02*
X189122438Y-83363095D01*
X189122438Y-83363095D02*
X189170057Y-83315476D01*
X189170057Y-83315476D02*
X189265295Y-83267857D01*
X189265295Y-83267857D02*
X189455771Y-83220238D01*
X189455771Y-83220238D02*
X189693866Y-83220238D01*
X189693866Y-83220238D02*
X189884342Y-83267857D01*
X189884342Y-83267857D02*
X189979580Y-83315476D01*
X189979580Y-83315476D02*
X190027200Y-83363095D01*
X190027200Y-83363095D02*
X190074819Y-83458333D01*
X190074819Y-83458333D02*
X190074819Y-83553571D01*
X190074819Y-83553571D02*
X190027200Y-83648809D01*
X190027200Y-83648809D02*
X189979580Y-83696428D01*
X189979580Y-83696428D02*
X189884342Y-83744047D01*
X189884342Y-83744047D02*
X189693866Y-83791666D01*
X189693866Y-83791666D02*
X189455771Y-83791666D01*
X189455771Y-83791666D02*
X189265295Y-83744047D01*
X189265295Y-83744047D02*
X189170057Y-83696428D01*
X189170057Y-83696428D02*
X189122438Y-83648809D01*
X189122438Y-83648809D02*
X189074819Y-83553571D01*
X189074819Y-82601190D02*
X189074819Y-82505952D01*
X189074819Y-82505952D02*
X189122438Y-82410714D01*
X189122438Y-82410714D02*
X189170057Y-82363095D01*
X189170057Y-82363095D02*
X189265295Y-82315476D01*
X189265295Y-82315476D02*
X189455771Y-82267857D01*
X189455771Y-82267857D02*
X189693866Y-82267857D01*
X189693866Y-82267857D02*
X189884342Y-82315476D01*
X189884342Y-82315476D02*
X189979580Y-82363095D01*
X189979580Y-82363095D02*
X190027200Y-82410714D01*
X190027200Y-82410714D02*
X190074819Y-82505952D01*
X190074819Y-82505952D02*
X190074819Y-82601190D01*
X190074819Y-82601190D02*
X190027200Y-82696428D01*
X190027200Y-82696428D02*
X189979580Y-82744047D01*
X189979580Y-82744047D02*
X189884342Y-82791666D01*
X189884342Y-82791666D02*
X189693866Y-82839285D01*
X189693866Y-82839285D02*
X189455771Y-82839285D01*
X189455771Y-82839285D02*
X189265295Y-82791666D01*
X189265295Y-82791666D02*
X189170057Y-82744047D01*
X189170057Y-82744047D02*
X189122438Y-82696428D01*
X189122438Y-82696428D02*
X189074819Y-82601190D01*
X189408152Y-81839285D02*
X190074819Y-81839285D01*
X189503390Y-81839285D02*
X189455771Y-81791666D01*
X189455771Y-81791666D02*
X189408152Y-81696428D01*
X189408152Y-81696428D02*
X189408152Y-81553571D01*
X189408152Y-81553571D02*
X189455771Y-81458333D01*
X189455771Y-81458333D02*
X189551009Y-81410714D01*
X189551009Y-81410714D02*
X190074819Y-81410714D01*
X189551009Y-80601190D02*
X189551009Y-80934523D01*
X190074819Y-80934523D02*
X189074819Y-80934523D01*
X189074819Y-80934523D02*
X189074819Y-80458333D01*
D11*
X191193832Y-82882142D02*
X191212880Y-82901190D01*
X191212880Y-82901190D02*
X191231927Y-82958332D01*
X191231927Y-82958332D02*
X191231927Y-82996428D01*
X191231927Y-82996428D02*
X191212880Y-83053571D01*
X191212880Y-83053571D02*
X191174784Y-83091666D01*
X191174784Y-83091666D02*
X191136689Y-83110713D01*
X191136689Y-83110713D02*
X191060499Y-83129761D01*
X191060499Y-83129761D02*
X191003356Y-83129761D01*
X191003356Y-83129761D02*
X190927165Y-83110713D01*
X190927165Y-83110713D02*
X190889070Y-83091666D01*
X190889070Y-83091666D02*
X190850975Y-83053571D01*
X190850975Y-83053571D02*
X190831927Y-82996428D01*
X190831927Y-82996428D02*
X190831927Y-82958332D01*
X190831927Y-82958332D02*
X190850975Y-82901190D01*
X190850975Y-82901190D02*
X190870022Y-82882142D01*
X191231927Y-82501190D02*
X191231927Y-82729761D01*
X191231927Y-82615475D02*
X190831927Y-82615475D01*
X190831927Y-82615475D02*
X190889070Y-82653571D01*
X190889070Y-82653571D02*
X190927165Y-82691666D01*
X190927165Y-82691666D02*
X190946213Y-82729761D01*
X190965260Y-82158333D02*
X191231927Y-82158333D01*
X190812880Y-82253571D02*
X191098594Y-82348809D01*
X191098594Y-82348809D02*
X191098594Y-82101190D01*
D10*
X143747024Y-68554819D02*
X143747024Y-67554819D01*
X143747024Y-67554819D02*
X144080357Y-68269104D01*
X144080357Y-68269104D02*
X144413690Y-67554819D01*
X144413690Y-67554819D02*
X144413690Y-68554819D01*
X144889881Y-68554819D02*
X144889881Y-67554819D01*
X144889881Y-67554819D02*
X145223214Y-68269104D01*
X145223214Y-68269104D02*
X145556547Y-67554819D01*
X145556547Y-67554819D02*
X145556547Y-68554819D01*
X146366071Y-68031009D02*
X146508928Y-68078628D01*
X146508928Y-68078628D02*
X146556547Y-68126247D01*
X146556547Y-68126247D02*
X146604166Y-68221485D01*
X146604166Y-68221485D02*
X146604166Y-68364342D01*
X146604166Y-68364342D02*
X146556547Y-68459580D01*
X146556547Y-68459580D02*
X146508928Y-68507200D01*
X146508928Y-68507200D02*
X146413690Y-68554819D01*
X146413690Y-68554819D02*
X146032738Y-68554819D01*
X146032738Y-68554819D02*
X146032738Y-67554819D01*
X146032738Y-67554819D02*
X146366071Y-67554819D01*
X146366071Y-67554819D02*
X146461309Y-67602438D01*
X146461309Y-67602438D02*
X146508928Y-67650057D01*
X146508928Y-67650057D02*
X146556547Y-67745295D01*
X146556547Y-67745295D02*
X146556547Y-67840533D01*
X146556547Y-67840533D02*
X146508928Y-67935771D01*
X146508928Y-67935771D02*
X146461309Y-67983390D01*
X146461309Y-67983390D02*
X146366071Y-68031009D01*
X146366071Y-68031009D02*
X146032738Y-68031009D01*
X146889881Y-67554819D02*
X147461309Y-67554819D01*
X147175595Y-68554819D02*
X147175595Y-67554819D01*
X147699405Y-67554819D02*
X148318452Y-67554819D01*
X148318452Y-67554819D02*
X147985119Y-67935771D01*
X147985119Y-67935771D02*
X148127976Y-67935771D01*
X148127976Y-67935771D02*
X148223214Y-67983390D01*
X148223214Y-67983390D02*
X148270833Y-68031009D01*
X148270833Y-68031009D02*
X148318452Y-68126247D01*
X148318452Y-68126247D02*
X148318452Y-68364342D01*
X148318452Y-68364342D02*
X148270833Y-68459580D01*
X148270833Y-68459580D02*
X148223214Y-68507200D01*
X148223214Y-68507200D02*
X148127976Y-68554819D01*
X148127976Y-68554819D02*
X147842262Y-68554819D01*
X147842262Y-68554819D02*
X147747024Y-68507200D01*
X147747024Y-68507200D02*
X147699405Y-68459580D01*
X148794643Y-68554819D02*
X148985119Y-68554819D01*
X148985119Y-68554819D02*
X149080357Y-68507200D01*
X149080357Y-68507200D02*
X149127976Y-68459580D01*
X149127976Y-68459580D02*
X149223214Y-68316723D01*
X149223214Y-68316723D02*
X149270833Y-68126247D01*
X149270833Y-68126247D02*
X149270833Y-67745295D01*
X149270833Y-67745295D02*
X149223214Y-67650057D01*
X149223214Y-67650057D02*
X149175595Y-67602438D01*
X149175595Y-67602438D02*
X149080357Y-67554819D01*
X149080357Y-67554819D02*
X148889881Y-67554819D01*
X148889881Y-67554819D02*
X148794643Y-67602438D01*
X148794643Y-67602438D02*
X148747024Y-67650057D01*
X148747024Y-67650057D02*
X148699405Y-67745295D01*
X148699405Y-67745295D02*
X148699405Y-67983390D01*
X148699405Y-67983390D02*
X148747024Y-68078628D01*
X148747024Y-68078628D02*
X148794643Y-68126247D01*
X148794643Y-68126247D02*
X148889881Y-68173866D01*
X148889881Y-68173866D02*
X149080357Y-68173866D01*
X149080357Y-68173866D02*
X149175595Y-68126247D01*
X149175595Y-68126247D02*
X149223214Y-68078628D01*
X149223214Y-68078628D02*
X149270833Y-67983390D01*
X149889881Y-67554819D02*
X149985119Y-67554819D01*
X149985119Y-67554819D02*
X150080357Y-67602438D01*
X150080357Y-67602438D02*
X150127976Y-67650057D01*
X150127976Y-67650057D02*
X150175595Y-67745295D01*
X150175595Y-67745295D02*
X150223214Y-67935771D01*
X150223214Y-67935771D02*
X150223214Y-68173866D01*
X150223214Y-68173866D02*
X150175595Y-68364342D01*
X150175595Y-68364342D02*
X150127976Y-68459580D01*
X150127976Y-68459580D02*
X150080357Y-68507200D01*
X150080357Y-68507200D02*
X149985119Y-68554819D01*
X149985119Y-68554819D02*
X149889881Y-68554819D01*
X149889881Y-68554819D02*
X149794643Y-68507200D01*
X149794643Y-68507200D02*
X149747024Y-68459580D01*
X149747024Y-68459580D02*
X149699405Y-68364342D01*
X149699405Y-68364342D02*
X149651786Y-68173866D01*
X149651786Y-68173866D02*
X149651786Y-67935771D01*
X149651786Y-67935771D02*
X149699405Y-67745295D01*
X149699405Y-67745295D02*
X149747024Y-67650057D01*
X149747024Y-67650057D02*
X149794643Y-67602438D01*
X149794643Y-67602438D02*
X149889881Y-67554819D01*
X151080357Y-67888152D02*
X151080357Y-68554819D01*
X150842262Y-67507200D02*
X150604167Y-68221485D01*
X150604167Y-68221485D02*
X151223214Y-68221485D01*
D14*
X147407023Y-65875914D02*
X147376547Y-65860676D01*
X147376547Y-65860676D02*
X147346071Y-65830200D01*
X147346071Y-65830200D02*
X147300357Y-65784485D01*
X147300357Y-65784485D02*
X147269880Y-65769247D01*
X147269880Y-65769247D02*
X147239404Y-65769247D01*
X147254642Y-65845438D02*
X147224166Y-65830200D01*
X147224166Y-65830200D02*
X147193690Y-65799723D01*
X147193690Y-65799723D02*
X147178452Y-65738771D01*
X147178452Y-65738771D02*
X147178452Y-65632104D01*
X147178452Y-65632104D02*
X147193690Y-65571152D01*
X147193690Y-65571152D02*
X147224166Y-65540676D01*
X147224166Y-65540676D02*
X147254642Y-65525438D01*
X147254642Y-65525438D02*
X147315595Y-65525438D01*
X147315595Y-65525438D02*
X147346071Y-65540676D01*
X147346071Y-65540676D02*
X147376547Y-65571152D01*
X147376547Y-65571152D02*
X147391785Y-65632104D01*
X147391785Y-65632104D02*
X147391785Y-65738771D01*
X147391785Y-65738771D02*
X147376547Y-65799723D01*
X147376547Y-65799723D02*
X147346071Y-65830200D01*
X147346071Y-65830200D02*
X147315595Y-65845438D01*
X147315595Y-65845438D02*
X147254642Y-65845438D01*
X147696547Y-65845438D02*
X147513690Y-65845438D01*
X147605118Y-65845438D02*
X147605118Y-65525438D01*
X147605118Y-65525438D02*
X147574642Y-65571152D01*
X147574642Y-65571152D02*
X147544166Y-65601628D01*
X147544166Y-65601628D02*
X147513690Y-65616866D01*
D10*
X119377380Y-102584819D02*
X118805952Y-102584819D01*
X119091666Y-102584819D02*
X119091666Y-101584819D01*
X119091666Y-101584819D02*
X118996428Y-101727676D01*
X118996428Y-101727676D02*
X118901190Y-101822914D01*
X118901190Y-101822914D02*
X118805952Y-101870533D01*
X119996428Y-101584819D02*
X120091666Y-101584819D01*
X120091666Y-101584819D02*
X120186904Y-101632438D01*
X120186904Y-101632438D02*
X120234523Y-101680057D01*
X120234523Y-101680057D02*
X120282142Y-101775295D01*
X120282142Y-101775295D02*
X120329761Y-101965771D01*
X120329761Y-101965771D02*
X120329761Y-102203866D01*
X120329761Y-102203866D02*
X120282142Y-102394342D01*
X120282142Y-102394342D02*
X120234523Y-102489580D01*
X120234523Y-102489580D02*
X120186904Y-102537200D01*
X120186904Y-102537200D02*
X120091666Y-102584819D01*
X120091666Y-102584819D02*
X119996428Y-102584819D01*
X119996428Y-102584819D02*
X119901190Y-102537200D01*
X119901190Y-102537200D02*
X119853571Y-102489580D01*
X119853571Y-102489580D02*
X119805952Y-102394342D01*
X119805952Y-102394342D02*
X119758333Y-102203866D01*
X119758333Y-102203866D02*
X119758333Y-101965771D01*
X119758333Y-101965771D02*
X119805952Y-101775295D01*
X119805952Y-101775295D02*
X119853571Y-101680057D01*
X119853571Y-101680057D02*
X119901190Y-101632438D01*
X119901190Y-101632438D02*
X119996428Y-101584819D01*
X120948809Y-101584819D02*
X121044047Y-101584819D01*
X121044047Y-101584819D02*
X121139285Y-101632438D01*
X121139285Y-101632438D02*
X121186904Y-101680057D01*
X121186904Y-101680057D02*
X121234523Y-101775295D01*
X121234523Y-101775295D02*
X121282142Y-101965771D01*
X121282142Y-101965771D02*
X121282142Y-102203866D01*
X121282142Y-102203866D02*
X121234523Y-102394342D01*
X121234523Y-102394342D02*
X121186904Y-102489580D01*
X121186904Y-102489580D02*
X121139285Y-102537200D01*
X121139285Y-102537200D02*
X121044047Y-102584819D01*
X121044047Y-102584819D02*
X120948809Y-102584819D01*
X120948809Y-102584819D02*
X120853571Y-102537200D01*
X120853571Y-102537200D02*
X120805952Y-102489580D01*
X120805952Y-102489580D02*
X120758333Y-102394342D01*
X120758333Y-102394342D02*
X120710714Y-102203866D01*
X120710714Y-102203866D02*
X120710714Y-101965771D01*
X120710714Y-101965771D02*
X120758333Y-101775295D01*
X120758333Y-101775295D02*
X120805952Y-101680057D01*
X120805952Y-101680057D02*
X120853571Y-101632438D01*
X120853571Y-101632438D02*
X120948809Y-101584819D01*
X121710714Y-101918152D02*
X121710714Y-102584819D01*
X121710714Y-102013390D02*
X121758333Y-101965771D01*
X121758333Y-101965771D02*
X121853571Y-101918152D01*
X121853571Y-101918152D02*
X121996428Y-101918152D01*
X121996428Y-101918152D02*
X122091666Y-101965771D01*
X122091666Y-101965771D02*
X122139285Y-102061009D01*
X122139285Y-102061009D02*
X122139285Y-102584819D01*
X122948809Y-102061009D02*
X122615476Y-102061009D01*
X122615476Y-102584819D02*
X122615476Y-101584819D01*
X122615476Y-101584819D02*
X123091666Y-101584819D01*
D11*
X120667857Y-100843832D02*
X120648809Y-100862880D01*
X120648809Y-100862880D02*
X120591667Y-100881927D01*
X120591667Y-100881927D02*
X120553571Y-100881927D01*
X120553571Y-100881927D02*
X120496428Y-100862880D01*
X120496428Y-100862880D02*
X120458333Y-100824784D01*
X120458333Y-100824784D02*
X120439286Y-100786689D01*
X120439286Y-100786689D02*
X120420238Y-100710499D01*
X120420238Y-100710499D02*
X120420238Y-100653356D01*
X120420238Y-100653356D02*
X120439286Y-100577165D01*
X120439286Y-100577165D02*
X120458333Y-100539070D01*
X120458333Y-100539070D02*
X120496428Y-100500975D01*
X120496428Y-100500975D02*
X120553571Y-100481927D01*
X120553571Y-100481927D02*
X120591667Y-100481927D01*
X120591667Y-100481927D02*
X120648809Y-100500975D01*
X120648809Y-100500975D02*
X120667857Y-100520022D01*
X121048809Y-100881927D02*
X120820238Y-100881927D01*
X120934524Y-100881927D02*
X120934524Y-100481927D01*
X120934524Y-100481927D02*
X120896428Y-100539070D01*
X120896428Y-100539070D02*
X120858333Y-100577165D01*
X120858333Y-100577165D02*
X120820238Y-100596213D01*
X121201190Y-100520022D02*
X121220238Y-100500975D01*
X121220238Y-100500975D02*
X121258333Y-100481927D01*
X121258333Y-100481927D02*
X121353571Y-100481927D01*
X121353571Y-100481927D02*
X121391666Y-100500975D01*
X121391666Y-100500975D02*
X121410714Y-100520022D01*
X121410714Y-100520022D02*
X121429761Y-100558118D01*
X121429761Y-100558118D02*
X121429761Y-100596213D01*
X121429761Y-100596213D02*
X121410714Y-100653356D01*
X121410714Y-100653356D02*
X121182142Y-100881927D01*
X121182142Y-100881927D02*
X121429761Y-100881927D01*
D10*
X178496428Y-120009819D02*
X177925000Y-120009819D01*
X178210714Y-120009819D02*
X178210714Y-119009819D01*
X178210714Y-119009819D02*
X178115476Y-119152676D01*
X178115476Y-119152676D02*
X178020238Y-119247914D01*
X178020238Y-119247914D02*
X177925000Y-119295533D01*
X179115476Y-119009819D02*
X179210714Y-119009819D01*
X179210714Y-119009819D02*
X179305952Y-119057438D01*
X179305952Y-119057438D02*
X179353571Y-119105057D01*
X179353571Y-119105057D02*
X179401190Y-119200295D01*
X179401190Y-119200295D02*
X179448809Y-119390771D01*
X179448809Y-119390771D02*
X179448809Y-119628866D01*
X179448809Y-119628866D02*
X179401190Y-119819342D01*
X179401190Y-119819342D02*
X179353571Y-119914580D01*
X179353571Y-119914580D02*
X179305952Y-119962200D01*
X179305952Y-119962200D02*
X179210714Y-120009819D01*
X179210714Y-120009819D02*
X179115476Y-120009819D01*
X179115476Y-120009819D02*
X179020238Y-119962200D01*
X179020238Y-119962200D02*
X178972619Y-119914580D01*
X178972619Y-119914580D02*
X178925000Y-119819342D01*
X178925000Y-119819342D02*
X178877381Y-119628866D01*
X178877381Y-119628866D02*
X178877381Y-119390771D01*
X178877381Y-119390771D02*
X178925000Y-119200295D01*
X178925000Y-119200295D02*
X178972619Y-119105057D01*
X178972619Y-119105057D02*
X179020238Y-119057438D01*
X179020238Y-119057438D02*
X179115476Y-119009819D01*
X180067857Y-119009819D02*
X180163095Y-119009819D01*
X180163095Y-119009819D02*
X180258333Y-119057438D01*
X180258333Y-119057438D02*
X180305952Y-119105057D01*
X180305952Y-119105057D02*
X180353571Y-119200295D01*
X180353571Y-119200295D02*
X180401190Y-119390771D01*
X180401190Y-119390771D02*
X180401190Y-119628866D01*
X180401190Y-119628866D02*
X180353571Y-119819342D01*
X180353571Y-119819342D02*
X180305952Y-119914580D01*
X180305952Y-119914580D02*
X180258333Y-119962200D01*
X180258333Y-119962200D02*
X180163095Y-120009819D01*
X180163095Y-120009819D02*
X180067857Y-120009819D01*
X180067857Y-120009819D02*
X179972619Y-119962200D01*
X179972619Y-119962200D02*
X179925000Y-119914580D01*
X179925000Y-119914580D02*
X179877381Y-119819342D01*
X179877381Y-119819342D02*
X179829762Y-119628866D01*
X179829762Y-119628866D02*
X179829762Y-119390771D01*
X179829762Y-119390771D02*
X179877381Y-119200295D01*
X179877381Y-119200295D02*
X179925000Y-119105057D01*
X179925000Y-119105057D02*
X179972619Y-119057438D01*
X179972619Y-119057438D02*
X180067857Y-119009819D01*
X181591667Y-119343152D02*
X181591667Y-120009819D01*
X181591667Y-119438390D02*
X181639286Y-119390771D01*
X181639286Y-119390771D02*
X181734524Y-119343152D01*
X181734524Y-119343152D02*
X181877381Y-119343152D01*
X181877381Y-119343152D02*
X181972619Y-119390771D01*
X181972619Y-119390771D02*
X182020238Y-119486009D01*
X182020238Y-119486009D02*
X182020238Y-120009819D01*
X182829762Y-119486009D02*
X182496429Y-119486009D01*
X182496429Y-120009819D02*
X182496429Y-119009819D01*
X182496429Y-119009819D02*
X182972619Y-119009819D01*
D11*
X180167857Y-118268832D02*
X180148809Y-118287880D01*
X180148809Y-118287880D02*
X180091667Y-118306927D01*
X180091667Y-118306927D02*
X180053571Y-118306927D01*
X180053571Y-118306927D02*
X179996428Y-118287880D01*
X179996428Y-118287880D02*
X179958333Y-118249784D01*
X179958333Y-118249784D02*
X179939286Y-118211689D01*
X179939286Y-118211689D02*
X179920238Y-118135499D01*
X179920238Y-118135499D02*
X179920238Y-118078356D01*
X179920238Y-118078356D02*
X179939286Y-118002165D01*
X179939286Y-118002165D02*
X179958333Y-117964070D01*
X179958333Y-117964070D02*
X179996428Y-117925975D01*
X179996428Y-117925975D02*
X180053571Y-117906927D01*
X180053571Y-117906927D02*
X180091667Y-117906927D01*
X180091667Y-117906927D02*
X180148809Y-117925975D01*
X180148809Y-117925975D02*
X180167857Y-117945022D01*
X180548809Y-118306927D02*
X180320238Y-118306927D01*
X180434524Y-118306927D02*
X180434524Y-117906927D01*
X180434524Y-117906927D02*
X180396428Y-117964070D01*
X180396428Y-117964070D02*
X180358333Y-118002165D01*
X180358333Y-118002165D02*
X180320238Y-118021213D01*
X180891666Y-117906927D02*
X180815476Y-117906927D01*
X180815476Y-117906927D02*
X180777380Y-117925975D01*
X180777380Y-117925975D02*
X180758333Y-117945022D01*
X180758333Y-117945022D02*
X180720238Y-118002165D01*
X180720238Y-118002165D02*
X180701190Y-118078356D01*
X180701190Y-118078356D02*
X180701190Y-118230737D01*
X180701190Y-118230737D02*
X180720238Y-118268832D01*
X180720238Y-118268832D02*
X180739285Y-118287880D01*
X180739285Y-118287880D02*
X180777380Y-118306927D01*
X180777380Y-118306927D02*
X180853571Y-118306927D01*
X180853571Y-118306927D02*
X180891666Y-118287880D01*
X180891666Y-118287880D02*
X180910714Y-118268832D01*
X180910714Y-118268832D02*
X180929761Y-118230737D01*
X180929761Y-118230737D02*
X180929761Y-118135499D01*
X180929761Y-118135499D02*
X180910714Y-118097403D01*
X180910714Y-118097403D02*
X180891666Y-118078356D01*
X180891666Y-118078356D02*
X180853571Y-118059308D01*
X180853571Y-118059308D02*
X180777380Y-118059308D01*
X180777380Y-118059308D02*
X180739285Y-118078356D01*
X180739285Y-118078356D02*
X180720238Y-118097403D01*
X180720238Y-118097403D02*
X180701190Y-118135499D01*
D10*
X110558333Y-118384819D02*
X109986905Y-118384819D01*
X110272619Y-118384819D02*
X110272619Y-117384819D01*
X110272619Y-117384819D02*
X110177381Y-117527676D01*
X110177381Y-117527676D02*
X110082143Y-117622914D01*
X110082143Y-117622914D02*
X109986905Y-117670533D01*
X111177381Y-117384819D02*
X111272619Y-117384819D01*
X111272619Y-117384819D02*
X111367857Y-117432438D01*
X111367857Y-117432438D02*
X111415476Y-117480057D01*
X111415476Y-117480057D02*
X111463095Y-117575295D01*
X111463095Y-117575295D02*
X111510714Y-117765771D01*
X111510714Y-117765771D02*
X111510714Y-118003866D01*
X111510714Y-118003866D02*
X111463095Y-118194342D01*
X111463095Y-118194342D02*
X111415476Y-118289580D01*
X111415476Y-118289580D02*
X111367857Y-118337200D01*
X111367857Y-118337200D02*
X111272619Y-118384819D01*
X111272619Y-118384819D02*
X111177381Y-118384819D01*
X111177381Y-118384819D02*
X111082143Y-118337200D01*
X111082143Y-118337200D02*
X111034524Y-118289580D01*
X111034524Y-118289580D02*
X110986905Y-118194342D01*
X110986905Y-118194342D02*
X110939286Y-118003866D01*
X110939286Y-118003866D02*
X110939286Y-117765771D01*
X110939286Y-117765771D02*
X110986905Y-117575295D01*
X110986905Y-117575295D02*
X111034524Y-117480057D01*
X111034524Y-117480057D02*
X111082143Y-117432438D01*
X111082143Y-117432438D02*
X111177381Y-117384819D01*
X111939286Y-118384819D02*
X111939286Y-117384819D01*
X112034524Y-118003866D02*
X112320238Y-118384819D01*
X112320238Y-117718152D02*
X111939286Y-118099104D01*
X112701191Y-118384819D02*
X112939286Y-118384819D01*
X112939286Y-118384819D02*
X112939286Y-118194342D01*
X112939286Y-118194342D02*
X112844048Y-118146723D01*
X112844048Y-118146723D02*
X112748810Y-118051485D01*
X112748810Y-118051485D02*
X112701191Y-117908628D01*
X112701191Y-117908628D02*
X112701191Y-117670533D01*
X112701191Y-117670533D02*
X112748810Y-117527676D01*
X112748810Y-117527676D02*
X112844048Y-117432438D01*
X112844048Y-117432438D02*
X112986905Y-117384819D01*
X112986905Y-117384819D02*
X113177381Y-117384819D01*
X113177381Y-117384819D02*
X113320238Y-117432438D01*
X113320238Y-117432438D02*
X113415476Y-117527676D01*
X113415476Y-117527676D02*
X113463095Y-117670533D01*
X113463095Y-117670533D02*
X113463095Y-117908628D01*
X113463095Y-117908628D02*
X113415476Y-118051485D01*
X113415476Y-118051485D02*
X113320238Y-118146723D01*
X113320238Y-118146723D02*
X113225000Y-118194342D01*
X113225000Y-118194342D02*
X113225000Y-118384819D01*
X113225000Y-118384819D02*
X113463095Y-118384819D01*
D11*
X111658333Y-116681927D02*
X111525000Y-116491451D01*
X111429762Y-116681927D02*
X111429762Y-116281927D01*
X111429762Y-116281927D02*
X111582143Y-116281927D01*
X111582143Y-116281927D02*
X111620238Y-116300975D01*
X111620238Y-116300975D02*
X111639285Y-116320022D01*
X111639285Y-116320022D02*
X111658333Y-116358118D01*
X111658333Y-116358118D02*
X111658333Y-116415260D01*
X111658333Y-116415260D02*
X111639285Y-116453356D01*
X111639285Y-116453356D02*
X111620238Y-116472403D01*
X111620238Y-116472403D02*
X111582143Y-116491451D01*
X111582143Y-116491451D02*
X111429762Y-116491451D01*
X111791666Y-116281927D02*
X112039285Y-116281927D01*
X112039285Y-116281927D02*
X111905952Y-116434308D01*
X111905952Y-116434308D02*
X111963095Y-116434308D01*
X111963095Y-116434308D02*
X112001190Y-116453356D01*
X112001190Y-116453356D02*
X112020238Y-116472403D01*
X112020238Y-116472403D02*
X112039285Y-116510499D01*
X112039285Y-116510499D02*
X112039285Y-116605737D01*
X112039285Y-116605737D02*
X112020238Y-116643832D01*
X112020238Y-116643832D02*
X112001190Y-116662880D01*
X112001190Y-116662880D02*
X111963095Y-116681927D01*
X111963095Y-116681927D02*
X111848809Y-116681927D01*
X111848809Y-116681927D02*
X111810714Y-116662880D01*
X111810714Y-116662880D02*
X111791666Y-116643832D01*
D10*
X168578571Y-73459819D02*
X168007143Y-73459819D01*
X168292857Y-73459819D02*
X168292857Y-72459819D01*
X168292857Y-72459819D02*
X168197619Y-72602676D01*
X168197619Y-72602676D02*
X168102381Y-72697914D01*
X168102381Y-72697914D02*
X168007143Y-72745533D01*
X169197619Y-72459819D02*
X169292857Y-72459819D01*
X169292857Y-72459819D02*
X169388095Y-72507438D01*
X169388095Y-72507438D02*
X169435714Y-72555057D01*
X169435714Y-72555057D02*
X169483333Y-72650295D01*
X169483333Y-72650295D02*
X169530952Y-72840771D01*
X169530952Y-72840771D02*
X169530952Y-73078866D01*
X169530952Y-73078866D02*
X169483333Y-73269342D01*
X169483333Y-73269342D02*
X169435714Y-73364580D01*
X169435714Y-73364580D02*
X169388095Y-73412200D01*
X169388095Y-73412200D02*
X169292857Y-73459819D01*
X169292857Y-73459819D02*
X169197619Y-73459819D01*
X169197619Y-73459819D02*
X169102381Y-73412200D01*
X169102381Y-73412200D02*
X169054762Y-73364580D01*
X169054762Y-73364580D02*
X169007143Y-73269342D01*
X169007143Y-73269342D02*
X168959524Y-73078866D01*
X168959524Y-73078866D02*
X168959524Y-72840771D01*
X168959524Y-72840771D02*
X169007143Y-72650295D01*
X169007143Y-72650295D02*
X169054762Y-72555057D01*
X169054762Y-72555057D02*
X169102381Y-72507438D01*
X169102381Y-72507438D02*
X169197619Y-72459819D01*
X170150000Y-72459819D02*
X170245238Y-72459819D01*
X170245238Y-72459819D02*
X170340476Y-72507438D01*
X170340476Y-72507438D02*
X170388095Y-72555057D01*
X170388095Y-72555057D02*
X170435714Y-72650295D01*
X170435714Y-72650295D02*
X170483333Y-72840771D01*
X170483333Y-72840771D02*
X170483333Y-73078866D01*
X170483333Y-73078866D02*
X170435714Y-73269342D01*
X170435714Y-73269342D02*
X170388095Y-73364580D01*
X170388095Y-73364580D02*
X170340476Y-73412200D01*
X170340476Y-73412200D02*
X170245238Y-73459819D01*
X170245238Y-73459819D02*
X170150000Y-73459819D01*
X170150000Y-73459819D02*
X170054762Y-73412200D01*
X170054762Y-73412200D02*
X170007143Y-73364580D01*
X170007143Y-73364580D02*
X169959524Y-73269342D01*
X169959524Y-73269342D02*
X169911905Y-73078866D01*
X169911905Y-73078866D02*
X169911905Y-72840771D01*
X169911905Y-72840771D02*
X169959524Y-72650295D01*
X169959524Y-72650295D02*
X170007143Y-72555057D01*
X170007143Y-72555057D02*
X170054762Y-72507438D01*
X170054762Y-72507438D02*
X170150000Y-72459819D01*
X170911905Y-73459819D02*
X170911905Y-72459819D01*
X171007143Y-73078866D02*
X171292857Y-73459819D01*
X171292857Y-72793152D02*
X170911905Y-73174104D01*
D11*
X169583333Y-71756927D02*
X169450000Y-71566451D01*
X169354762Y-71756927D02*
X169354762Y-71356927D01*
X169354762Y-71356927D02*
X169507143Y-71356927D01*
X169507143Y-71356927D02*
X169545238Y-71375975D01*
X169545238Y-71375975D02*
X169564285Y-71395022D01*
X169564285Y-71395022D02*
X169583333Y-71433118D01*
X169583333Y-71433118D02*
X169583333Y-71490260D01*
X169583333Y-71490260D02*
X169564285Y-71528356D01*
X169564285Y-71528356D02*
X169545238Y-71547403D01*
X169545238Y-71547403D02*
X169507143Y-71566451D01*
X169507143Y-71566451D02*
X169354762Y-71566451D01*
X169735714Y-71395022D02*
X169754762Y-71375975D01*
X169754762Y-71375975D02*
X169792857Y-71356927D01*
X169792857Y-71356927D02*
X169888095Y-71356927D01*
X169888095Y-71356927D02*
X169926190Y-71375975D01*
X169926190Y-71375975D02*
X169945238Y-71395022D01*
X169945238Y-71395022D02*
X169964285Y-71433118D01*
X169964285Y-71433118D02*
X169964285Y-71471213D01*
X169964285Y-71471213D02*
X169945238Y-71528356D01*
X169945238Y-71528356D02*
X169716666Y-71756927D01*
X169716666Y-71756927D02*
X169964285Y-71756927D01*
D10*
X137699819Y-74670238D02*
X137699819Y-75241666D01*
X137699819Y-74955952D02*
X136699819Y-74955952D01*
X136699819Y-74955952D02*
X136842676Y-75051190D01*
X136842676Y-75051190D02*
X136937914Y-75146428D01*
X136937914Y-75146428D02*
X136985533Y-75241666D01*
X136699819Y-74051190D02*
X136699819Y-73955952D01*
X136699819Y-73955952D02*
X136747438Y-73860714D01*
X136747438Y-73860714D02*
X136795057Y-73813095D01*
X136795057Y-73813095D02*
X136890295Y-73765476D01*
X136890295Y-73765476D02*
X137080771Y-73717857D01*
X137080771Y-73717857D02*
X137318866Y-73717857D01*
X137318866Y-73717857D02*
X137509342Y-73765476D01*
X137509342Y-73765476D02*
X137604580Y-73813095D01*
X137604580Y-73813095D02*
X137652200Y-73860714D01*
X137652200Y-73860714D02*
X137699819Y-73955952D01*
X137699819Y-73955952D02*
X137699819Y-74051190D01*
X137699819Y-74051190D02*
X137652200Y-74146428D01*
X137652200Y-74146428D02*
X137604580Y-74194047D01*
X137604580Y-74194047D02*
X137509342Y-74241666D01*
X137509342Y-74241666D02*
X137318866Y-74289285D01*
X137318866Y-74289285D02*
X137080771Y-74289285D01*
X137080771Y-74289285D02*
X136890295Y-74241666D01*
X136890295Y-74241666D02*
X136795057Y-74194047D01*
X136795057Y-74194047D02*
X136747438Y-74146428D01*
X136747438Y-74146428D02*
X136699819Y-74051190D01*
X137699819Y-73289285D02*
X136699819Y-73289285D01*
X137318866Y-73194047D02*
X137699819Y-72908333D01*
X137033152Y-72908333D02*
X137414104Y-73289285D01*
D11*
X138856927Y-74141666D02*
X138666451Y-74274999D01*
X138856927Y-74370237D02*
X138456927Y-74370237D01*
X138456927Y-74370237D02*
X138456927Y-74217856D01*
X138456927Y-74217856D02*
X138475975Y-74179761D01*
X138475975Y-74179761D02*
X138495022Y-74160714D01*
X138495022Y-74160714D02*
X138533118Y-74141666D01*
X138533118Y-74141666D02*
X138590260Y-74141666D01*
X138590260Y-74141666D02*
X138628356Y-74160714D01*
X138628356Y-74160714D02*
X138647403Y-74179761D01*
X138647403Y-74179761D02*
X138666451Y-74217856D01*
X138666451Y-74217856D02*
X138666451Y-74370237D01*
X138590260Y-73798809D02*
X138856927Y-73798809D01*
X138437880Y-73894047D02*
X138723594Y-73989285D01*
X138723594Y-73989285D02*
X138723594Y-73741666D01*
D10*
X176134819Y-101547619D02*
X176134819Y-102119047D01*
X176134819Y-101833333D02*
X175134819Y-101833333D01*
X175134819Y-101833333D02*
X175277676Y-101928571D01*
X175277676Y-101928571D02*
X175372914Y-102023809D01*
X175372914Y-102023809D02*
X175420533Y-102119047D01*
X175468152Y-100357142D02*
X176468152Y-100357142D01*
X175991961Y-99880952D02*
X176087200Y-99833333D01*
X176087200Y-99833333D02*
X176134819Y-99738095D01*
X175991961Y-100357142D02*
X176087200Y-100309523D01*
X176087200Y-100309523D02*
X176134819Y-100214285D01*
X176134819Y-100214285D02*
X176134819Y-100023809D01*
X176134819Y-100023809D02*
X176087200Y-99928571D01*
X176087200Y-99928571D02*
X175991961Y-99880952D01*
X175991961Y-99880952D02*
X175468152Y-99880952D01*
X175611009Y-98976190D02*
X175611009Y-99309523D01*
X176134819Y-99309523D02*
X175134819Y-99309523D01*
X175134819Y-99309523D02*
X175134819Y-98833333D01*
D11*
X174393832Y-100566666D02*
X174412880Y-100585714D01*
X174412880Y-100585714D02*
X174431927Y-100642856D01*
X174431927Y-100642856D02*
X174431927Y-100680952D01*
X174431927Y-100680952D02*
X174412880Y-100738095D01*
X174412880Y-100738095D02*
X174374784Y-100776190D01*
X174374784Y-100776190D02*
X174336689Y-100795237D01*
X174336689Y-100795237D02*
X174260499Y-100814285D01*
X174260499Y-100814285D02*
X174203356Y-100814285D01*
X174203356Y-100814285D02*
X174127165Y-100795237D01*
X174127165Y-100795237D02*
X174089070Y-100776190D01*
X174089070Y-100776190D02*
X174050975Y-100738095D01*
X174050975Y-100738095D02*
X174031927Y-100680952D01*
X174031927Y-100680952D02*
X174031927Y-100642856D01*
X174031927Y-100642856D02*
X174050975Y-100585714D01*
X174050975Y-100585714D02*
X174070022Y-100566666D01*
X174165260Y-100223809D02*
X174431927Y-100223809D01*
X174012880Y-100319047D02*
X174298594Y-100414285D01*
X174298594Y-100414285D02*
X174298594Y-100166666D01*
D10*
X189546009Y-114391428D02*
X189593628Y-114248571D01*
X189593628Y-114248571D02*
X189641247Y-114200952D01*
X189641247Y-114200952D02*
X189736485Y-114153333D01*
X189736485Y-114153333D02*
X189879342Y-114153333D01*
X189879342Y-114153333D02*
X189974580Y-114200952D01*
X189974580Y-114200952D02*
X190022200Y-114248571D01*
X190022200Y-114248571D02*
X190069819Y-114343809D01*
X190069819Y-114343809D02*
X190069819Y-114724761D01*
X190069819Y-114724761D02*
X189069819Y-114724761D01*
X189069819Y-114724761D02*
X189069819Y-114391428D01*
X189069819Y-114391428D02*
X189117438Y-114296190D01*
X189117438Y-114296190D02*
X189165057Y-114248571D01*
X189165057Y-114248571D02*
X189260295Y-114200952D01*
X189260295Y-114200952D02*
X189355533Y-114200952D01*
X189355533Y-114200952D02*
X189450771Y-114248571D01*
X189450771Y-114248571D02*
X189498390Y-114296190D01*
X189498390Y-114296190D02*
X189546009Y-114391428D01*
X189546009Y-114391428D02*
X189546009Y-114724761D01*
X189165057Y-113772380D02*
X189117438Y-113724761D01*
X189117438Y-113724761D02*
X189069819Y-113629523D01*
X189069819Y-113629523D02*
X189069819Y-113391428D01*
X189069819Y-113391428D02*
X189117438Y-113296190D01*
X189117438Y-113296190D02*
X189165057Y-113248571D01*
X189165057Y-113248571D02*
X189260295Y-113200952D01*
X189260295Y-113200952D02*
X189355533Y-113200952D01*
X189355533Y-113200952D02*
X189498390Y-113248571D01*
X189498390Y-113248571D02*
X190069819Y-113819999D01*
X190069819Y-113819999D02*
X190069819Y-113200952D01*
X189546009Y-112439047D02*
X189593628Y-112296190D01*
X189593628Y-112296190D02*
X189641247Y-112248571D01*
X189641247Y-112248571D02*
X189736485Y-112200952D01*
X189736485Y-112200952D02*
X189879342Y-112200952D01*
X189879342Y-112200952D02*
X189974580Y-112248571D01*
X189974580Y-112248571D02*
X190022200Y-112296190D01*
X190022200Y-112296190D02*
X190069819Y-112391428D01*
X190069819Y-112391428D02*
X190069819Y-112772380D01*
X190069819Y-112772380D02*
X189069819Y-112772380D01*
X189069819Y-112772380D02*
X189069819Y-112439047D01*
X189069819Y-112439047D02*
X189117438Y-112343809D01*
X189117438Y-112343809D02*
X189165057Y-112296190D01*
X189165057Y-112296190D02*
X189260295Y-112248571D01*
X189260295Y-112248571D02*
X189355533Y-112248571D01*
X189355533Y-112248571D02*
X189450771Y-112296190D01*
X189450771Y-112296190D02*
X189498390Y-112343809D01*
X189498390Y-112343809D02*
X189546009Y-112439047D01*
X189546009Y-112439047D02*
X189546009Y-112772380D01*
X189688866Y-111772380D02*
X189688866Y-111010476D01*
X189069819Y-110629523D02*
X190069819Y-109962857D01*
X189069819Y-109962857D02*
X190069819Y-110629523D01*
X190069819Y-109581904D02*
X189069819Y-109581904D01*
X189546009Y-109581904D02*
X189546009Y-109010476D01*
X190069819Y-109010476D02*
X189069819Y-109010476D01*
X189688866Y-108534285D02*
X189688866Y-107772381D01*
X189784104Y-107343809D02*
X189784104Y-106867619D01*
X190069819Y-107439047D02*
X189069819Y-107105714D01*
X189069819Y-107105714D02*
X190069819Y-106772381D01*
D15*
%TO.C,U7*%
X181400000Y-93035000D02*
X181400000Y-98315000D01*
X181400000Y-93035000D02*
X186680000Y-93035000D01*
X181400000Y-98315000D02*
X186680000Y-98315000D01*
X186680000Y-93035000D02*
X186680000Y-98315000D01*
D16*
X178925000Y-93770000D02*
G75*
G02*
X178725000Y-93770000I-100000J0D01*
G01*
X178725000Y-93770000D02*
G75*
G02*
X178925000Y-93770000I100000J0D01*
G01*
D15*
%TO.C,LS1*%
X125560000Y-60225000D02*
X127560000Y-60225000D01*
X126560000Y-59225000D02*
X126560000Y-61225000D01*
X143970000Y-60225000D02*
X145970000Y-60225000D01*
X143000000Y-60225000D02*
G75*
G02*
X129100000Y-60225000I-6950000J0D01*
G01*
X129100000Y-60225000D02*
G75*
G02*
X143000000Y-60225000I6950000J0D01*
G01*
D17*
%TO.C,R1*%
X150325000Y-137187500D02*
X151925000Y-137187500D01*
X150325000Y-138012500D02*
X150325000Y-137187500D01*
X151925000Y-137187500D02*
X151925000Y-138012500D01*
X151925000Y-138012500D02*
X150325000Y-138012500D01*
%TO.C,R8*%
X142675000Y-90087500D02*
X144275000Y-90087500D01*
X142675000Y-90912500D02*
X142675000Y-90087500D01*
X144275000Y-90087500D02*
X144275000Y-90912500D01*
X144275000Y-90912500D02*
X142675000Y-90912500D01*
%TO.C,C15*%
X182425000Y-103000000D02*
X184025000Y-103000000D01*
X182425000Y-103800000D02*
X182425000Y-103000000D01*
X184025000Y-103000000D02*
X184025000Y-103800000D01*
X184025000Y-103800000D02*
X182425000Y-103800000D01*
%TO.C,C6*%
X174350000Y-59775000D02*
X175150000Y-59775000D01*
X174350000Y-61375000D02*
X174350000Y-59775000D01*
X175150000Y-59775000D02*
X175150000Y-61375000D01*
X175150000Y-61375000D02*
X174350000Y-61375000D01*
D15*
%TO.C,VR1*%
X180025000Y-108200000D02*
X181625000Y-108200000D01*
X180025000Y-111100000D02*
X180025000Y-108200000D01*
X181625000Y-108200000D02*
X181625000Y-111100000D01*
X181625000Y-111100000D02*
X180025000Y-111100000D01*
D16*
X178425000Y-108450000D02*
G75*
G02*
X178225000Y-108450000I-100000J0D01*
G01*
X178225000Y-108450000D02*
G75*
G02*
X178425000Y-108450000I100000J0D01*
G01*
D17*
%TO.C,C3*%
X170225000Y-109400000D02*
X171025000Y-109400000D01*
X170225000Y-111000000D02*
X170225000Y-109400000D01*
X171025000Y-109400000D02*
X171025000Y-111000000D01*
X171025000Y-111000000D02*
X170225000Y-111000000D01*
%TO.C,J4*%
X135490000Y-100655000D02*
X136760000Y-99385000D01*
X135490000Y-109545000D02*
X135490000Y-100655000D01*
X136760000Y-99385000D02*
X140570000Y-99385000D01*
X140570000Y-99385000D02*
X140570000Y-109545000D01*
X140570000Y-109545000D02*
X135490000Y-109545000D01*
D15*
%TO.C,J2*%
X143825000Y-147875000D02*
X143825000Y-148775000D01*
X143825000Y-148775000D02*
X144045000Y-148775000D01*
X143825000Y-150775000D02*
X144075000Y-151025000D01*
X144065000Y-147875000D02*
X143825000Y-147875000D01*
X144075000Y-145475000D02*
X144075000Y-149775000D01*
X144075000Y-149775000D02*
X144075000Y-150475000D01*
X144075000Y-149775000D02*
X151575000Y-149775000D01*
X144075000Y-150475000D02*
X145025000Y-150475000D01*
X144075000Y-150525000D02*
X143825000Y-150775000D01*
X144075000Y-151025000D02*
X144450000Y-150650000D01*
X144450000Y-150650000D02*
X144450000Y-150525000D01*
X145225000Y-150675000D02*
X145225000Y-150875000D01*
X150225000Y-151075000D02*
X145425000Y-151075000D01*
X150425000Y-150790000D02*
X150425000Y-150875000D01*
X151200000Y-150650000D02*
X151200000Y-150525000D01*
X151575000Y-145475000D02*
X144075000Y-145475000D01*
X151575000Y-149775000D02*
X151575000Y-145475000D01*
X151575000Y-149775000D02*
X158825000Y-149775000D01*
X151575000Y-150475000D02*
X150625000Y-150475000D01*
X151575000Y-150475000D02*
X151575000Y-149775000D01*
X151575000Y-150525000D02*
X151825000Y-150775000D01*
X151575000Y-151025000D02*
X151200000Y-150650000D01*
X151585000Y-147875000D02*
X151825000Y-147875000D01*
X151825000Y-147875000D02*
X151825000Y-148775000D01*
X151825000Y-148775000D02*
X151595000Y-148775000D01*
X151825000Y-150775000D02*
X151575000Y-151025000D01*
X145025000Y-150475000D02*
G75*
G02*
X145225000Y-150675000I-1J-200001D01*
G01*
X145425000Y-151075000D02*
G75*
G02*
X145225000Y-150875000I1J200001D01*
G01*
X150425000Y-150790000D02*
G75*
G02*
X150625000Y-150475000I257500J57500D01*
G01*
X150425000Y-150875000D02*
G75*
G02*
X150225000Y-151075000I-200000J0D01*
G01*
D16*
X146625000Y-144425000D02*
G75*
G02*
X146425000Y-144425000I-100000J0D01*
G01*
X146425000Y-144425000D02*
G75*
G02*
X146625000Y-144425000I100000J0D01*
G01*
D15*
%TO.C,U3*%
X183335000Y-81475000D02*
X185835000Y-81475000D01*
X183335000Y-84475000D02*
X183335000Y-81475000D01*
X185835000Y-81475000D02*
X185835000Y-84475000D01*
X185835000Y-84475000D02*
X183335000Y-84475000D01*
D16*
X183885000Y-84975000D02*
G75*
G02*
X183685000Y-84975000I-100000J0D01*
G01*
X183685000Y-84975000D02*
G75*
G02*
X183885000Y-84975000I100000J0D01*
G01*
D17*
%TO.C,C1*%
X110050000Y-102925000D02*
X112050000Y-102925000D01*
X110050000Y-104175000D02*
X110050000Y-102925000D01*
X112050000Y-102925000D02*
X112050000Y-104175000D01*
X112050000Y-104175000D02*
X110050000Y-104175000D01*
D15*
%TO.C,U4*%
X110100000Y-108650000D02*
X110100000Y-110650000D01*
X110100000Y-108650000D02*
X113100000Y-108650000D01*
X110100000Y-110650000D02*
X113100000Y-110650000D01*
X113100000Y-108650000D02*
X113100000Y-110650000D01*
D16*
X109225000Y-108900000D02*
G75*
G02*
X109025000Y-108900000I-100000J0D01*
G01*
X109025000Y-108900000D02*
G75*
G02*
X109225000Y-108900000I100000J0D01*
G01*
D17*
%TO.C,C2*%
X143410000Y-116567500D02*
X145410000Y-116567500D01*
X143410000Y-117817500D02*
X143410000Y-116567500D01*
X145410000Y-116567500D02*
X145410000Y-117817500D01*
X145410000Y-117817500D02*
X143410000Y-117817500D01*
%TO.C,C13*%
X137200000Y-89650000D02*
X138800000Y-89650000D01*
X137200000Y-90450000D02*
X137200000Y-89650000D01*
X138800000Y-89650000D02*
X138800000Y-90450000D01*
X138800000Y-90450000D02*
X137200000Y-90450000D01*
%TO.C,C5*%
X154025000Y-140650000D02*
X154825000Y-140650000D01*
X154025000Y-142250000D02*
X154025000Y-140650000D01*
X154825000Y-140650000D02*
X154825000Y-142250000D01*
X154825000Y-142250000D02*
X154025000Y-142250000D01*
%TO.C,U2*%
X152525000Y-97825000D02*
X159525000Y-97825000D01*
X152525000Y-103825000D02*
X152525000Y-97825000D01*
X153525000Y-104825000D02*
X152525000Y-103825000D01*
X159525000Y-97825000D02*
X159525000Y-104825000D01*
X159525000Y-104825000D02*
X153525000Y-104825000D01*
D15*
%TO.C,U6*%
X144112500Y-136212500D02*
X145737500Y-136212500D01*
X144112500Y-139137500D02*
X144112500Y-136212500D01*
X145737500Y-136212500D02*
X145737500Y-139137500D01*
X145737500Y-139137500D02*
X144112500Y-139137500D01*
D16*
X142470000Y-136730000D02*
G75*
G02*
X142270000Y-136730000I-100000J0D01*
G01*
X142270000Y-136730000D02*
G75*
G02*
X142470000Y-136730000I100000J0D01*
G01*
D17*
%TO.C,R6*%
X150662500Y-62625000D02*
X151487500Y-62625000D01*
X150662500Y-64225000D02*
X150662500Y-62625000D01*
X151487500Y-62625000D02*
X151487500Y-64225000D01*
X151487500Y-64225000D02*
X150662500Y-64225000D01*
%TO.C,C14*%
X190650000Y-81825000D02*
X191450000Y-81825000D01*
X190650000Y-83425000D02*
X190650000Y-81825000D01*
X191450000Y-81825000D02*
X191450000Y-83425000D01*
X191450000Y-83425000D02*
X190650000Y-83425000D01*
%TO.C,Q1*%
X146787500Y-64575000D02*
X147112500Y-64250000D01*
X146787500Y-67150000D02*
X146787500Y-64575000D01*
X147112500Y-64250000D02*
X148087500Y-64250000D01*
X148087500Y-64250000D02*
X148087500Y-67150000D01*
X148087500Y-67150000D02*
X146787500Y-67150000D01*
%TO.C,C12*%
X120125000Y-100300000D02*
X121725000Y-100300000D01*
X120125000Y-101100000D02*
X120125000Y-100300000D01*
X121725000Y-100300000D02*
X121725000Y-101100000D01*
X121725000Y-101100000D02*
X120125000Y-101100000D01*
%TO.C,C16*%
X179625000Y-117725000D02*
X181225000Y-117725000D01*
X179625000Y-118525000D02*
X179625000Y-117725000D01*
X181225000Y-117725000D02*
X181225000Y-118525000D01*
X181225000Y-118525000D02*
X179625000Y-118525000D01*
%TO.C,R3*%
X110925000Y-116087500D02*
X112525000Y-116087500D01*
X110925000Y-116912500D02*
X110925000Y-116087500D01*
X112525000Y-116087500D02*
X112525000Y-116912500D01*
X112525000Y-116912500D02*
X110925000Y-116912500D01*
%TO.C,R2*%
X168850000Y-71162500D02*
X170450000Y-71162500D01*
X168850000Y-71987500D02*
X168850000Y-71162500D01*
X170450000Y-71162500D02*
X170450000Y-71987500D01*
X170450000Y-71987500D02*
X168850000Y-71987500D01*
%TO.C,R4*%
X138262500Y-73275000D02*
X139087500Y-73275000D01*
X138262500Y-74875000D02*
X138262500Y-73275000D01*
X139087500Y-73275000D02*
X139087500Y-74875000D01*
X139087500Y-74875000D02*
X138262500Y-74875000D01*
%TO.C,C4*%
X173850000Y-99700000D02*
X174650000Y-99700000D01*
X173850000Y-101300000D02*
X173850000Y-99700000D01*
X174650000Y-99700000D02*
X174650000Y-101300000D01*
X174650000Y-101300000D02*
X173850000Y-101300000D01*
D15*
%TO.C,J1*%
X191500000Y-103450000D02*
X197250000Y-103450000D01*
X191500000Y-110850000D02*
X191500000Y-103450000D01*
X197250000Y-103450000D02*
X197250000Y-110850000D01*
X197250000Y-110850000D02*
X191500000Y-110850000D01*
D16*
X193950000Y-111590000D02*
G75*
G02*
X193750000Y-111590000I-100000J0D01*
G01*
X193750000Y-111590000D02*
G75*
G02*
X193950000Y-111590000I100000J0D01*
G01*
%TD*%
M02*
