%TF.GenerationSoftware,KiCad,Pcbnew,9.0.3*%
%TF.CreationDate,2026-02-21T10:46:01-03:00*%
%TF.ProjectId,Boros Rocket,426f726f-7320-4526-9f63-6b65742e6b69,rev?*%
%TF.SameCoordinates,Original*%
%TF.FileFunction,Legend,Bot*%
%TF.FilePolarity,Positive*%
%FSLAX46Y46*%
G04 Gerber Fmt 4.6, Leading zero omitted, Abs format (unit mm)*
G04 Created by KiCad (PCBNEW 9.0.3) date 2026-02-21 10:46:01*
%MOMM*%
%LPD*%
G01*
G04 APERTURE LIST*
%ADD10C,0.625000*%
G04 APERTURE END LIST*
D10*
X152670176Y-139589235D02*
X152670176Y-137208282D01*
X151241604Y-140065425D02*
X156241604Y-138398758D01*
X156241604Y-138398758D02*
X151241604Y-136732092D01*
X151241604Y-132922568D02*
X156241604Y-132922568D01*
X151479700Y-132922568D02*
X151241604Y-133398759D01*
X151241604Y-133398759D02*
X151241604Y-134351140D01*
X151241604Y-134351140D02*
X151479700Y-134827330D01*
X151479700Y-134827330D02*
X151717795Y-135065425D01*
X151717795Y-135065425D02*
X152193985Y-135303521D01*
X152193985Y-135303521D02*
X153622557Y-135303521D01*
X153622557Y-135303521D02*
X154098747Y-135065425D01*
X154098747Y-135065425D02*
X154336842Y-134827330D01*
X154336842Y-134827330D02*
X154574938Y-134351140D01*
X154574938Y-134351140D02*
X154574938Y-133398759D01*
X154574938Y-133398759D02*
X154336842Y-132922568D01*
X152670176Y-126970187D02*
X152670176Y-124589234D01*
X151241604Y-127446377D02*
X156241604Y-125779710D01*
X156241604Y-125779710D02*
X151241604Y-124113044D01*
X151479700Y-122684473D02*
X151241604Y-122208282D01*
X151241604Y-122208282D02*
X151241604Y-121255901D01*
X151241604Y-121255901D02*
X151479700Y-120779711D01*
X151479700Y-120779711D02*
X151955890Y-120541615D01*
X151955890Y-120541615D02*
X152193985Y-120541615D01*
X152193985Y-120541615D02*
X152670176Y-120779711D01*
X152670176Y-120779711D02*
X152908271Y-121255901D01*
X152908271Y-121255901D02*
X152908271Y-121970187D01*
X152908271Y-121970187D02*
X153146366Y-122446377D01*
X153146366Y-122446377D02*
X153622557Y-122684473D01*
X153622557Y-122684473D02*
X153860652Y-122684473D01*
X153860652Y-122684473D02*
X154336842Y-122446377D01*
X154336842Y-122446377D02*
X154574938Y-121970187D01*
X154574938Y-121970187D02*
X154574938Y-121255901D01*
X154574938Y-121255901D02*
X154336842Y-120779711D01*
X154574938Y-119113044D02*
X154574938Y-117208282D01*
X156241604Y-118398758D02*
X151955890Y-118398758D01*
X151955890Y-118398758D02*
X151479700Y-118160663D01*
X151479700Y-118160663D02*
X151241604Y-117684473D01*
X151241604Y-117684473D02*
X151241604Y-117208282D01*
X151241604Y-115541615D02*
X154574938Y-115541615D01*
X153622557Y-115541615D02*
X154098747Y-115303520D01*
X154098747Y-115303520D02*
X154336842Y-115065425D01*
X154336842Y-115065425D02*
X154574938Y-114589234D01*
X154574938Y-114589234D02*
X154574938Y-114113044D01*
X151241604Y-110303520D02*
X153860652Y-110303520D01*
X153860652Y-110303520D02*
X154336842Y-110541615D01*
X154336842Y-110541615D02*
X154574938Y-111017806D01*
X154574938Y-111017806D02*
X154574938Y-111970187D01*
X154574938Y-111970187D02*
X154336842Y-112446377D01*
X151479700Y-110303520D02*
X151241604Y-110779711D01*
X151241604Y-110779711D02*
X151241604Y-111970187D01*
X151241604Y-111970187D02*
X151479700Y-112446377D01*
X151479700Y-112446377D02*
X151955890Y-112684473D01*
X151955890Y-112684473D02*
X152432080Y-112684473D01*
X152432080Y-112684473D02*
X152908271Y-112446377D01*
X152908271Y-112446377D02*
X153146366Y-111970187D01*
X153146366Y-111970187D02*
X153146366Y-110779711D01*
X153146366Y-110779711D02*
X153384461Y-110303520D01*
X151479700Y-107684472D02*
X151241604Y-107684472D01*
X151241604Y-107684472D02*
X150765414Y-107922567D01*
X150765414Y-107922567D02*
X150527319Y-108160663D01*
X151241604Y-101732091D02*
X156241604Y-101732091D01*
X156241604Y-101732091D02*
X151241604Y-98874948D01*
X151241604Y-98874948D02*
X156241604Y-98874948D01*
X151241604Y-95779711D02*
X151479700Y-96255901D01*
X151479700Y-96255901D02*
X151717795Y-96493996D01*
X151717795Y-96493996D02*
X152193985Y-96732092D01*
X152193985Y-96732092D02*
X153622557Y-96732092D01*
X153622557Y-96732092D02*
X154098747Y-96493996D01*
X154098747Y-96493996D02*
X154336842Y-96255901D01*
X154336842Y-96255901D02*
X154574938Y-95779711D01*
X154574938Y-95779711D02*
X154574938Y-95065425D01*
X154574938Y-95065425D02*
X154336842Y-94589234D01*
X154336842Y-94589234D02*
X154098747Y-94351139D01*
X154098747Y-94351139D02*
X153622557Y-94113044D01*
X153622557Y-94113044D02*
X152193985Y-94113044D01*
X152193985Y-94113044D02*
X151717795Y-94351139D01*
X151717795Y-94351139D02*
X151479700Y-94589234D01*
X151479700Y-94589234D02*
X151241604Y-95065425D01*
X151241604Y-95065425D02*
X151241604Y-95779711D01*
X154574938Y-91970186D02*
X151241604Y-91970186D01*
X154098747Y-91970186D02*
X154336842Y-91732091D01*
X154336842Y-91732091D02*
X154574938Y-91255901D01*
X154574938Y-91255901D02*
X154574938Y-90541615D01*
X154574938Y-90541615D02*
X154336842Y-90065424D01*
X154336842Y-90065424D02*
X153860652Y-89827329D01*
X153860652Y-89827329D02*
X151241604Y-89827329D01*
X156241604Y-84351138D02*
X156241604Y-81493995D01*
X151241604Y-82922567D02*
X156241604Y-82922567D01*
X151241604Y-79827328D02*
X154574938Y-79827328D01*
X156241604Y-79827328D02*
X156003509Y-80065424D01*
X156003509Y-80065424D02*
X155765414Y-79827328D01*
X155765414Y-79827328D02*
X156003509Y-79589233D01*
X156003509Y-79589233D02*
X156241604Y-79827328D01*
X156241604Y-79827328D02*
X155765414Y-79827328D01*
X151241604Y-77446376D02*
X154574938Y-77446376D01*
X154098747Y-77446376D02*
X154336842Y-77208281D01*
X154336842Y-77208281D02*
X154574938Y-76732091D01*
X154574938Y-76732091D02*
X154574938Y-76017805D01*
X154574938Y-76017805D02*
X154336842Y-75541614D01*
X154336842Y-75541614D02*
X153860652Y-75303519D01*
X153860652Y-75303519D02*
X151241604Y-75303519D01*
X153860652Y-75303519D02*
X154336842Y-75065424D01*
X154336842Y-75065424D02*
X154574938Y-74589233D01*
X154574938Y-74589233D02*
X154574938Y-73874948D01*
X154574938Y-73874948D02*
X154336842Y-73398757D01*
X154336842Y-73398757D02*
X153860652Y-73160662D01*
X153860652Y-73160662D02*
X151241604Y-73160662D01*
X151241604Y-70779709D02*
X154574938Y-70779709D01*
X156241604Y-70779709D02*
X156003509Y-71017805D01*
X156003509Y-71017805D02*
X155765414Y-70779709D01*
X155765414Y-70779709D02*
X156003509Y-70541614D01*
X156003509Y-70541614D02*
X156241604Y-70779709D01*
X156241604Y-70779709D02*
X155765414Y-70779709D01*
X151241604Y-66255900D02*
X156241604Y-66255900D01*
X151479700Y-66255900D02*
X151241604Y-66732091D01*
X151241604Y-66732091D02*
X151241604Y-67684472D01*
X151241604Y-67684472D02*
X151479700Y-68160662D01*
X151479700Y-68160662D02*
X151717795Y-68398757D01*
X151717795Y-68398757D02*
X152193985Y-68636853D01*
X152193985Y-68636853D02*
X153622557Y-68636853D01*
X153622557Y-68636853D02*
X154098747Y-68398757D01*
X154098747Y-68398757D02*
X154336842Y-68160662D01*
X154336842Y-68160662D02*
X154574938Y-67684472D01*
X154574938Y-67684472D02*
X154574938Y-66732091D01*
X154574938Y-66732091D02*
X154336842Y-66255900D01*
X151479700Y-61970185D02*
X151241604Y-62446376D01*
X151241604Y-62446376D02*
X151241604Y-63398757D01*
X151241604Y-63398757D02*
X151479700Y-63874947D01*
X151479700Y-63874947D02*
X151955890Y-64113043D01*
X151955890Y-64113043D02*
X153860652Y-64113043D01*
X153860652Y-64113043D02*
X154336842Y-63874947D01*
X154336842Y-63874947D02*
X154574938Y-63398757D01*
X154574938Y-63398757D02*
X154574938Y-62446376D01*
X154574938Y-62446376D02*
X154336842Y-61970185D01*
X154336842Y-61970185D02*
X153860652Y-61732090D01*
X153860652Y-61732090D02*
X153384461Y-61732090D01*
X153384461Y-61732090D02*
X152908271Y-64113043D01*
M02*
