%TF.GenerationSoftware,KiCad,Pcbnew,9.0.3*%
%TF.CreationDate,2026-02-21T18:13:17-03:00*%
%TF.ProjectId,Boros Rocket - Plate,426f726f-7320-4526-9f63-6b6574202d20,rev?*%
%TF.SameCoordinates,Original*%
%TF.FileFunction,Legend,Top*%
%TF.FilePolarity,Positive*%
%FSLAX46Y46*%
G04 Gerber Fmt 4.6, Leading zero omitted, Abs format (unit mm)*
G04 Created by KiCad (PCBNEW 9.0.3) date 2026-02-21 18:13:17*
%MOMM*%
%LPD*%
G01*
G04 APERTURE LIST*
%ADD10C,0.100000*%
%ADD11C,0.120000*%
%ADD12C,0.150000*%
%ADD13C,0.127000*%
%ADD14C,0.200000*%
%ADD15C,0.000000*%
G04 APERTURE END LIST*
D10*
X133997865Y-82256524D02*
X134997865Y-82256524D01*
X134997865Y-82256524D02*
X133997865Y-82827952D01*
X133997865Y-82827952D02*
X134997865Y-82827952D01*
X133997865Y-83447000D02*
X134045485Y-83351762D01*
X134045485Y-83351762D02*
X134093104Y-83304143D01*
X134093104Y-83304143D02*
X134188342Y-83256524D01*
X134188342Y-83256524D02*
X134474056Y-83256524D01*
X134474056Y-83256524D02*
X134569294Y-83304143D01*
X134569294Y-83304143D02*
X134616913Y-83351762D01*
X134616913Y-83351762D02*
X134664532Y-83447000D01*
X134664532Y-83447000D02*
X134664532Y-83589857D01*
X134664532Y-83589857D02*
X134616913Y-83685095D01*
X134616913Y-83685095D02*
X134569294Y-83732714D01*
X134569294Y-83732714D02*
X134474056Y-83780333D01*
X134474056Y-83780333D02*
X134188342Y-83780333D01*
X134188342Y-83780333D02*
X134093104Y-83732714D01*
X134093104Y-83732714D02*
X134045485Y-83685095D01*
X134045485Y-83685095D02*
X133997865Y-83589857D01*
X133997865Y-83589857D02*
X133997865Y-83447000D01*
X134664532Y-84066048D02*
X134664532Y-84447000D01*
X134997865Y-84208905D02*
X134140723Y-84208905D01*
X134140723Y-84208905D02*
X134045485Y-84256524D01*
X134045485Y-84256524D02*
X133997865Y-84351762D01*
X133997865Y-84351762D02*
X133997865Y-84447000D01*
X134664532Y-85542239D02*
X133664532Y-85542239D01*
X134616913Y-85542239D02*
X134664532Y-85637477D01*
X134664532Y-85637477D02*
X134664532Y-85827953D01*
X134664532Y-85827953D02*
X134616913Y-85923191D01*
X134616913Y-85923191D02*
X134569294Y-85970810D01*
X134569294Y-85970810D02*
X134474056Y-86018429D01*
X134474056Y-86018429D02*
X134188342Y-86018429D01*
X134188342Y-86018429D02*
X134093104Y-85970810D01*
X134093104Y-85970810D02*
X134045485Y-85923191D01*
X134045485Y-85923191D02*
X133997865Y-85827953D01*
X133997865Y-85827953D02*
X133997865Y-85637477D01*
X133997865Y-85637477D02*
X134045485Y-85542239D01*
X134045485Y-86827953D02*
X133997865Y-86732715D01*
X133997865Y-86732715D02*
X133997865Y-86542239D01*
X133997865Y-86542239D02*
X134045485Y-86447001D01*
X134045485Y-86447001D02*
X134140723Y-86399382D01*
X134140723Y-86399382D02*
X134521675Y-86399382D01*
X134521675Y-86399382D02*
X134616913Y-86447001D01*
X134616913Y-86447001D02*
X134664532Y-86542239D01*
X134664532Y-86542239D02*
X134664532Y-86732715D01*
X134664532Y-86732715D02*
X134616913Y-86827953D01*
X134616913Y-86827953D02*
X134521675Y-86875572D01*
X134521675Y-86875572D02*
X134426437Y-86875572D01*
X134426437Y-86875572D02*
X134331199Y-86399382D01*
X133997865Y-87304144D02*
X134664532Y-87304144D01*
X134474056Y-87304144D02*
X134569294Y-87351763D01*
X134569294Y-87351763D02*
X134616913Y-87399382D01*
X134616913Y-87399382D02*
X134664532Y-87494620D01*
X134664532Y-87494620D02*
X134664532Y-87589858D01*
X134664532Y-87780335D02*
X134664532Y-88161287D01*
X133997865Y-87923192D02*
X134855008Y-87923192D01*
X134855008Y-87923192D02*
X134950246Y-87970811D01*
X134950246Y-87970811D02*
X134997865Y-88066049D01*
X134997865Y-88066049D02*
X134997865Y-88161287D01*
X134045485Y-88875573D02*
X133997865Y-88780335D01*
X133997865Y-88780335D02*
X133997865Y-88589859D01*
X133997865Y-88589859D02*
X134045485Y-88494621D01*
X134045485Y-88494621D02*
X134140723Y-88447002D01*
X134140723Y-88447002D02*
X134521675Y-88447002D01*
X134521675Y-88447002D02*
X134616913Y-88494621D01*
X134616913Y-88494621D02*
X134664532Y-88589859D01*
X134664532Y-88589859D02*
X134664532Y-88780335D01*
X134664532Y-88780335D02*
X134616913Y-88875573D01*
X134616913Y-88875573D02*
X134521675Y-88923192D01*
X134521675Y-88923192D02*
X134426437Y-88923192D01*
X134426437Y-88923192D02*
X134331199Y-88447002D01*
X134045485Y-89780335D02*
X133997865Y-89685097D01*
X133997865Y-89685097D02*
X133997865Y-89494621D01*
X133997865Y-89494621D02*
X134045485Y-89399383D01*
X134045485Y-89399383D02*
X134093104Y-89351764D01*
X134093104Y-89351764D02*
X134188342Y-89304145D01*
X134188342Y-89304145D02*
X134474056Y-89304145D01*
X134474056Y-89304145D02*
X134569294Y-89351764D01*
X134569294Y-89351764D02*
X134616913Y-89399383D01*
X134616913Y-89399383D02*
X134664532Y-89494621D01*
X134664532Y-89494621D02*
X134664532Y-89685097D01*
X134664532Y-89685097D02*
X134616913Y-89780335D01*
X134664532Y-90066050D02*
X134664532Y-90447002D01*
X134997865Y-90208907D02*
X134140723Y-90208907D01*
X134140723Y-90208907D02*
X134045485Y-90256526D01*
X134045485Y-90256526D02*
X133997865Y-90351764D01*
X133997865Y-90351764D02*
X133997865Y-90447002D01*
X134045485Y-90827955D02*
X133997865Y-90827955D01*
X133997865Y-90827955D02*
X133902627Y-90780336D01*
X133902627Y-90780336D02*
X133855008Y-90732717D01*
X133997865Y-92018431D02*
X134997865Y-92018431D01*
X134616913Y-92018431D02*
X134664532Y-92113669D01*
X134664532Y-92113669D02*
X134664532Y-92304145D01*
X134664532Y-92304145D02*
X134616913Y-92399383D01*
X134616913Y-92399383D02*
X134569294Y-92447002D01*
X134569294Y-92447002D02*
X134474056Y-92494621D01*
X134474056Y-92494621D02*
X134188342Y-92494621D01*
X134188342Y-92494621D02*
X134093104Y-92447002D01*
X134093104Y-92447002D02*
X134045485Y-92399383D01*
X134045485Y-92399383D02*
X133997865Y-92304145D01*
X133997865Y-92304145D02*
X133997865Y-92113669D01*
X133997865Y-92113669D02*
X134045485Y-92018431D01*
X134664532Y-93351764D02*
X133997865Y-93351764D01*
X134664532Y-92923193D02*
X134140723Y-92923193D01*
X134140723Y-92923193D02*
X134045485Y-92970812D01*
X134045485Y-92970812D02*
X133997865Y-93066050D01*
X133997865Y-93066050D02*
X133997865Y-93208907D01*
X133997865Y-93208907D02*
X134045485Y-93304145D01*
X134045485Y-93304145D02*
X134093104Y-93351764D01*
X134664532Y-93685098D02*
X134664532Y-94066050D01*
X134997865Y-93827955D02*
X134140723Y-93827955D01*
X134140723Y-93827955D02*
X134045485Y-93875574D01*
X134045485Y-93875574D02*
X133997865Y-93970812D01*
X133997865Y-93970812D02*
X133997865Y-94066050D01*
X134664532Y-95018432D02*
X134664532Y-95399384D01*
X133997865Y-95161289D02*
X134855008Y-95161289D01*
X134855008Y-95161289D02*
X134950246Y-95208908D01*
X134950246Y-95208908D02*
X134997865Y-95304146D01*
X134997865Y-95304146D02*
X134997865Y-95399384D01*
X133997865Y-95875575D02*
X134045485Y-95780337D01*
X134045485Y-95780337D02*
X134140723Y-95732718D01*
X134140723Y-95732718D02*
X134997865Y-95732718D01*
X134664532Y-96161290D02*
X133997865Y-96399385D01*
X134664532Y-96637480D02*
X133997865Y-96399385D01*
X133997865Y-96399385D02*
X133759770Y-96304147D01*
X133759770Y-96304147D02*
X133712151Y-96256528D01*
X133712151Y-96256528D02*
X133664532Y-96161290D01*
X133997865Y-97018433D02*
X134664532Y-97018433D01*
X134997865Y-97018433D02*
X134950246Y-96970814D01*
X134950246Y-96970814D02*
X134902627Y-97018433D01*
X134902627Y-97018433D02*
X134950246Y-97066052D01*
X134950246Y-97066052D02*
X134997865Y-97018433D01*
X134997865Y-97018433D02*
X134902627Y-97018433D01*
X134664532Y-97494623D02*
X133997865Y-97494623D01*
X134569294Y-97494623D02*
X134616913Y-97542242D01*
X134616913Y-97542242D02*
X134664532Y-97637480D01*
X134664532Y-97637480D02*
X134664532Y-97780337D01*
X134664532Y-97780337D02*
X134616913Y-97875575D01*
X134616913Y-97875575D02*
X134521675Y-97923194D01*
X134521675Y-97923194D02*
X133997865Y-97923194D01*
X134664532Y-98827956D02*
X133855008Y-98827956D01*
X133855008Y-98827956D02*
X133759770Y-98780337D01*
X133759770Y-98780337D02*
X133712151Y-98732718D01*
X133712151Y-98732718D02*
X133664532Y-98637480D01*
X133664532Y-98637480D02*
X133664532Y-98494623D01*
X133664532Y-98494623D02*
X133712151Y-98399385D01*
X134045485Y-98827956D02*
X133997865Y-98732718D01*
X133997865Y-98732718D02*
X133997865Y-98542242D01*
X133997865Y-98542242D02*
X134045485Y-98447004D01*
X134045485Y-98447004D02*
X134093104Y-98399385D01*
X134093104Y-98399385D02*
X134188342Y-98351766D01*
X134188342Y-98351766D02*
X134474056Y-98351766D01*
X134474056Y-98351766D02*
X134569294Y-98399385D01*
X134569294Y-98399385D02*
X134616913Y-98447004D01*
X134616913Y-98447004D02*
X134664532Y-98542242D01*
X134664532Y-98542242D02*
X134664532Y-98732718D01*
X134664532Y-98732718D02*
X134616913Y-98827956D01*
D11*
X130818285Y-96356017D02*
X130818285Y-96744588D01*
X130818285Y-96744588D02*
X130841142Y-96790302D01*
X130841142Y-96790302D02*
X130864000Y-96813160D01*
X130864000Y-96813160D02*
X130909714Y-96836017D01*
X130909714Y-96836017D02*
X131001142Y-96836017D01*
X131001142Y-96836017D02*
X131046857Y-96813160D01*
X131046857Y-96813160D02*
X131069714Y-96790302D01*
X131069714Y-96790302D02*
X131092571Y-96744588D01*
X131092571Y-96744588D02*
X131092571Y-96356017D01*
X131275428Y-96356017D02*
X131572571Y-96356017D01*
X131572571Y-96356017D02*
X131412571Y-96538874D01*
X131412571Y-96538874D02*
X131481142Y-96538874D01*
X131481142Y-96538874D02*
X131526857Y-96561731D01*
X131526857Y-96561731D02*
X131549714Y-96584588D01*
X131549714Y-96584588D02*
X131572571Y-96630302D01*
X131572571Y-96630302D02*
X131572571Y-96744588D01*
X131572571Y-96744588D02*
X131549714Y-96790302D01*
X131549714Y-96790302D02*
X131526857Y-96813160D01*
X131526857Y-96813160D02*
X131481142Y-96836017D01*
X131481142Y-96836017D02*
X131343999Y-96836017D01*
X131343999Y-96836017D02*
X131298285Y-96813160D01*
X131298285Y-96813160D02*
X131275428Y-96790302D01*
D12*
X117833333Y-113659819D02*
X117500000Y-113183628D01*
X117261905Y-113659819D02*
X117261905Y-112659819D01*
X117261905Y-112659819D02*
X117642857Y-112659819D01*
X117642857Y-112659819D02*
X117738095Y-112707438D01*
X117738095Y-112707438D02*
X117785714Y-112755057D01*
X117785714Y-112755057D02*
X117833333Y-112850295D01*
X117833333Y-112850295D02*
X117833333Y-112993152D01*
X117833333Y-112993152D02*
X117785714Y-113088390D01*
X117785714Y-113088390D02*
X117738095Y-113136009D01*
X117738095Y-113136009D02*
X117642857Y-113183628D01*
X117642857Y-113183628D02*
X117261905Y-113183628D01*
X118404762Y-113088390D02*
X118309524Y-113040771D01*
X118309524Y-113040771D02*
X118261905Y-112993152D01*
X118261905Y-112993152D02*
X118214286Y-112897914D01*
X118214286Y-112897914D02*
X118214286Y-112850295D01*
X118214286Y-112850295D02*
X118261905Y-112755057D01*
X118261905Y-112755057D02*
X118309524Y-112707438D01*
X118309524Y-112707438D02*
X118404762Y-112659819D01*
X118404762Y-112659819D02*
X118595238Y-112659819D01*
X118595238Y-112659819D02*
X118690476Y-112707438D01*
X118690476Y-112707438D02*
X118738095Y-112755057D01*
X118738095Y-112755057D02*
X118785714Y-112850295D01*
X118785714Y-112850295D02*
X118785714Y-112897914D01*
X118785714Y-112897914D02*
X118738095Y-112993152D01*
X118738095Y-112993152D02*
X118690476Y-113040771D01*
X118690476Y-113040771D02*
X118595238Y-113088390D01*
X118595238Y-113088390D02*
X118404762Y-113088390D01*
X118404762Y-113088390D02*
X118309524Y-113136009D01*
X118309524Y-113136009D02*
X118261905Y-113183628D01*
X118261905Y-113183628D02*
X118214286Y-113278866D01*
X118214286Y-113278866D02*
X118214286Y-113469342D01*
X118214286Y-113469342D02*
X118261905Y-113564580D01*
X118261905Y-113564580D02*
X118309524Y-113612200D01*
X118309524Y-113612200D02*
X118404762Y-113659819D01*
X118404762Y-113659819D02*
X118595238Y-113659819D01*
X118595238Y-113659819D02*
X118690476Y-113612200D01*
X118690476Y-113612200D02*
X118738095Y-113564580D01*
X118738095Y-113564580D02*
X118785714Y-113469342D01*
X118785714Y-113469342D02*
X118785714Y-113278866D01*
X118785714Y-113278866D02*
X118738095Y-113183628D01*
X118738095Y-113183628D02*
X118690476Y-113136009D01*
X118690476Y-113136009D02*
X118595238Y-113088390D01*
X120082142Y-116679580D02*
X120034523Y-116727200D01*
X120034523Y-116727200D02*
X119891666Y-116774819D01*
X119891666Y-116774819D02*
X119796428Y-116774819D01*
X119796428Y-116774819D02*
X119653571Y-116727200D01*
X119653571Y-116727200D02*
X119558333Y-116631961D01*
X119558333Y-116631961D02*
X119510714Y-116536723D01*
X119510714Y-116536723D02*
X119463095Y-116346247D01*
X119463095Y-116346247D02*
X119463095Y-116203390D01*
X119463095Y-116203390D02*
X119510714Y-116012914D01*
X119510714Y-116012914D02*
X119558333Y-115917676D01*
X119558333Y-115917676D02*
X119653571Y-115822438D01*
X119653571Y-115822438D02*
X119796428Y-115774819D01*
X119796428Y-115774819D02*
X119891666Y-115774819D01*
X119891666Y-115774819D02*
X120034523Y-115822438D01*
X120034523Y-115822438D02*
X120082142Y-115870057D01*
X121034523Y-116774819D02*
X120463095Y-116774819D01*
X120748809Y-116774819D02*
X120748809Y-115774819D01*
X120748809Y-115774819D02*
X120653571Y-115917676D01*
X120653571Y-115917676D02*
X120558333Y-116012914D01*
X120558333Y-116012914D02*
X120463095Y-116060533D01*
X121939285Y-115774819D02*
X121463095Y-115774819D01*
X121463095Y-115774819D02*
X121415476Y-116251009D01*
X121415476Y-116251009D02*
X121463095Y-116203390D01*
X121463095Y-116203390D02*
X121558333Y-116155771D01*
X121558333Y-116155771D02*
X121796428Y-116155771D01*
X121796428Y-116155771D02*
X121891666Y-116203390D01*
X121891666Y-116203390D02*
X121939285Y-116251009D01*
X121939285Y-116251009D02*
X121986904Y-116346247D01*
X121986904Y-116346247D02*
X121986904Y-116584342D01*
X121986904Y-116584342D02*
X121939285Y-116679580D01*
X121939285Y-116679580D02*
X121891666Y-116727200D01*
X121891666Y-116727200D02*
X121796428Y-116774819D01*
X121796428Y-116774819D02*
X121558333Y-116774819D01*
X121558333Y-116774819D02*
X121463095Y-116727200D01*
X121463095Y-116727200D02*
X121415476Y-116679580D01*
X123914580Y-121016666D02*
X123962200Y-121064285D01*
X123962200Y-121064285D02*
X124009819Y-121207142D01*
X124009819Y-121207142D02*
X124009819Y-121302380D01*
X124009819Y-121302380D02*
X123962200Y-121445237D01*
X123962200Y-121445237D02*
X123866961Y-121540475D01*
X123866961Y-121540475D02*
X123771723Y-121588094D01*
X123771723Y-121588094D02*
X123581247Y-121635713D01*
X123581247Y-121635713D02*
X123438390Y-121635713D01*
X123438390Y-121635713D02*
X123247914Y-121588094D01*
X123247914Y-121588094D02*
X123152676Y-121540475D01*
X123152676Y-121540475D02*
X123057438Y-121445237D01*
X123057438Y-121445237D02*
X123009819Y-121302380D01*
X123009819Y-121302380D02*
X123009819Y-121207142D01*
X123009819Y-121207142D02*
X123057438Y-121064285D01*
X123057438Y-121064285D02*
X123105057Y-121016666D01*
X123009819Y-120111904D02*
X123009819Y-120588094D01*
X123009819Y-120588094D02*
X123486009Y-120635713D01*
X123486009Y-120635713D02*
X123438390Y-120588094D01*
X123438390Y-120588094D02*
X123390771Y-120492856D01*
X123390771Y-120492856D02*
X123390771Y-120254761D01*
X123390771Y-120254761D02*
X123438390Y-120159523D01*
X123438390Y-120159523D02*
X123486009Y-120111904D01*
X123486009Y-120111904D02*
X123581247Y-120064285D01*
X123581247Y-120064285D02*
X123819342Y-120064285D01*
X123819342Y-120064285D02*
X123914580Y-120111904D01*
X123914580Y-120111904D02*
X123962200Y-120159523D01*
X123962200Y-120159523D02*
X124009819Y-120254761D01*
X124009819Y-120254761D02*
X124009819Y-120492856D01*
X124009819Y-120492856D02*
X123962200Y-120588094D01*
X123962200Y-120588094D02*
X123914580Y-120635713D01*
X129665380Y-122642176D02*
X129665380Y-123160271D01*
X129665380Y-123160271D02*
X129695857Y-123221223D01*
X129695857Y-123221223D02*
X129726333Y-123251700D01*
X129726333Y-123251700D02*
X129787285Y-123282176D01*
X129787285Y-123282176D02*
X129909190Y-123282176D01*
X129909190Y-123282176D02*
X129970142Y-123251700D01*
X129970142Y-123251700D02*
X130000619Y-123221223D01*
X130000619Y-123221223D02*
X130031095Y-123160271D01*
X130031095Y-123160271D02*
X130031095Y-122642176D01*
X130610142Y-122642176D02*
X130488237Y-122642176D01*
X130488237Y-122642176D02*
X130427285Y-122672652D01*
X130427285Y-122672652D02*
X130396809Y-122703128D01*
X130396809Y-122703128D02*
X130335856Y-122794557D01*
X130335856Y-122794557D02*
X130305380Y-122916461D01*
X130305380Y-122916461D02*
X130305380Y-123160271D01*
X130305380Y-123160271D02*
X130335856Y-123221223D01*
X130335856Y-123221223D02*
X130366333Y-123251700D01*
X130366333Y-123251700D02*
X130427285Y-123282176D01*
X130427285Y-123282176D02*
X130549190Y-123282176D01*
X130549190Y-123282176D02*
X130610142Y-123251700D01*
X130610142Y-123251700D02*
X130640618Y-123221223D01*
X130640618Y-123221223D02*
X130671095Y-123160271D01*
X130671095Y-123160271D02*
X130671095Y-123007890D01*
X130671095Y-123007890D02*
X130640618Y-122946938D01*
X130640618Y-122946938D02*
X130610142Y-122916461D01*
X130610142Y-122916461D02*
X130549190Y-122885985D01*
X130549190Y-122885985D02*
X130427285Y-122885985D01*
X130427285Y-122885985D02*
X130366333Y-122916461D01*
X130366333Y-122916461D02*
X130335856Y-122946938D01*
X130335856Y-122946938D02*
X130305380Y-123007890D01*
X124658333Y-123734819D02*
X124325000Y-123258628D01*
X124086905Y-123734819D02*
X124086905Y-122734819D01*
X124086905Y-122734819D02*
X124467857Y-122734819D01*
X124467857Y-122734819D02*
X124563095Y-122782438D01*
X124563095Y-122782438D02*
X124610714Y-122830057D01*
X124610714Y-122830057D02*
X124658333Y-122925295D01*
X124658333Y-122925295D02*
X124658333Y-123068152D01*
X124658333Y-123068152D02*
X124610714Y-123163390D01*
X124610714Y-123163390D02*
X124563095Y-123211009D01*
X124563095Y-123211009D02*
X124467857Y-123258628D01*
X124467857Y-123258628D02*
X124086905Y-123258628D01*
X125610714Y-123734819D02*
X125039286Y-123734819D01*
X125325000Y-123734819D02*
X125325000Y-122734819D01*
X125325000Y-122734819D02*
X125229762Y-122877676D01*
X125229762Y-122877676D02*
X125134524Y-122972914D01*
X125134524Y-122972914D02*
X125039286Y-123020533D01*
X120089580Y-104566666D02*
X120137200Y-104614285D01*
X120137200Y-104614285D02*
X120184819Y-104757142D01*
X120184819Y-104757142D02*
X120184819Y-104852380D01*
X120184819Y-104852380D02*
X120137200Y-104995237D01*
X120137200Y-104995237D02*
X120041961Y-105090475D01*
X120041961Y-105090475D02*
X119946723Y-105138094D01*
X119946723Y-105138094D02*
X119756247Y-105185713D01*
X119756247Y-105185713D02*
X119613390Y-105185713D01*
X119613390Y-105185713D02*
X119422914Y-105138094D01*
X119422914Y-105138094D02*
X119327676Y-105090475D01*
X119327676Y-105090475D02*
X119232438Y-104995237D01*
X119232438Y-104995237D02*
X119184819Y-104852380D01*
X119184819Y-104852380D02*
X119184819Y-104757142D01*
X119184819Y-104757142D02*
X119232438Y-104614285D01*
X119232438Y-104614285D02*
X119280057Y-104566666D01*
X119280057Y-104185713D02*
X119232438Y-104138094D01*
X119232438Y-104138094D02*
X119184819Y-104042856D01*
X119184819Y-104042856D02*
X119184819Y-103804761D01*
X119184819Y-103804761D02*
X119232438Y-103709523D01*
X119232438Y-103709523D02*
X119280057Y-103661904D01*
X119280057Y-103661904D02*
X119375295Y-103614285D01*
X119375295Y-103614285D02*
X119470533Y-103614285D01*
X119470533Y-103614285D02*
X119613390Y-103661904D01*
X119613390Y-103661904D02*
X120184819Y-104233332D01*
X120184819Y-104233332D02*
X120184819Y-103614285D01*
X130829580Y-117016666D02*
X130877200Y-117064285D01*
X130877200Y-117064285D02*
X130924819Y-117207142D01*
X130924819Y-117207142D02*
X130924819Y-117302380D01*
X130924819Y-117302380D02*
X130877200Y-117445237D01*
X130877200Y-117445237D02*
X130781961Y-117540475D01*
X130781961Y-117540475D02*
X130686723Y-117588094D01*
X130686723Y-117588094D02*
X130496247Y-117635713D01*
X130496247Y-117635713D02*
X130353390Y-117635713D01*
X130353390Y-117635713D02*
X130162914Y-117588094D01*
X130162914Y-117588094D02*
X130067676Y-117540475D01*
X130067676Y-117540475D02*
X129972438Y-117445237D01*
X129972438Y-117445237D02*
X129924819Y-117302380D01*
X129924819Y-117302380D02*
X129924819Y-117207142D01*
X129924819Y-117207142D02*
X129972438Y-117064285D01*
X129972438Y-117064285D02*
X130020057Y-117016666D01*
X130258152Y-116159523D02*
X130924819Y-116159523D01*
X129877200Y-116397618D02*
X130591485Y-116635713D01*
X130591485Y-116635713D02*
X130591485Y-116016666D01*
X121827819Y-84171904D02*
X122637342Y-84171904D01*
X122637342Y-84171904D02*
X122732580Y-84124285D01*
X122732580Y-84124285D02*
X122780200Y-84076666D01*
X122780200Y-84076666D02*
X122827819Y-83981428D01*
X122827819Y-83981428D02*
X122827819Y-83790952D01*
X122827819Y-83790952D02*
X122780200Y-83695714D01*
X122780200Y-83695714D02*
X122732580Y-83648095D01*
X122732580Y-83648095D02*
X122637342Y-83600476D01*
X122637342Y-83600476D02*
X121827819Y-83600476D01*
X121827819Y-83219523D02*
X121827819Y-82552857D01*
X121827819Y-82552857D02*
X122827819Y-82981428D01*
X127432142Y-61479819D02*
X126955952Y-61479819D01*
X126955952Y-61479819D02*
X126955952Y-60479819D01*
X127717857Y-61432200D02*
X127860714Y-61479819D01*
X127860714Y-61479819D02*
X128098809Y-61479819D01*
X128098809Y-61479819D02*
X128194047Y-61432200D01*
X128194047Y-61432200D02*
X128241666Y-61384580D01*
X128241666Y-61384580D02*
X128289285Y-61289342D01*
X128289285Y-61289342D02*
X128289285Y-61194104D01*
X128289285Y-61194104D02*
X128241666Y-61098866D01*
X128241666Y-61098866D02*
X128194047Y-61051247D01*
X128194047Y-61051247D02*
X128098809Y-61003628D01*
X128098809Y-61003628D02*
X127908333Y-60956009D01*
X127908333Y-60956009D02*
X127813095Y-60908390D01*
X127813095Y-60908390D02*
X127765476Y-60860771D01*
X127765476Y-60860771D02*
X127717857Y-60765533D01*
X127717857Y-60765533D02*
X127717857Y-60670295D01*
X127717857Y-60670295D02*
X127765476Y-60575057D01*
X127765476Y-60575057D02*
X127813095Y-60527438D01*
X127813095Y-60527438D02*
X127908333Y-60479819D01*
X127908333Y-60479819D02*
X128146428Y-60479819D01*
X128146428Y-60479819D02*
X128289285Y-60527438D01*
X129241666Y-61479819D02*
X128670238Y-61479819D01*
X128955952Y-61479819D02*
X128955952Y-60479819D01*
X128955952Y-60479819D02*
X128860714Y-60622676D01*
X128860714Y-60622676D02*
X128765476Y-60717914D01*
X128765476Y-60717914D02*
X128670238Y-60765533D01*
X129439580Y-92866666D02*
X129487200Y-92914285D01*
X129487200Y-92914285D02*
X129534819Y-93057142D01*
X129534819Y-93057142D02*
X129534819Y-93152380D01*
X129534819Y-93152380D02*
X129487200Y-93295237D01*
X129487200Y-93295237D02*
X129391961Y-93390475D01*
X129391961Y-93390475D02*
X129296723Y-93438094D01*
X129296723Y-93438094D02*
X129106247Y-93485713D01*
X129106247Y-93485713D02*
X128963390Y-93485713D01*
X128963390Y-93485713D02*
X128772914Y-93438094D01*
X128772914Y-93438094D02*
X128677676Y-93390475D01*
X128677676Y-93390475D02*
X128582438Y-93295237D01*
X128582438Y-93295237D02*
X128534819Y-93152380D01*
X128534819Y-93152380D02*
X128534819Y-93057142D01*
X128534819Y-93057142D02*
X128582438Y-92914285D01*
X128582438Y-92914285D02*
X128630057Y-92866666D01*
X128534819Y-92009523D02*
X128534819Y-92199999D01*
X128534819Y-92199999D02*
X128582438Y-92295237D01*
X128582438Y-92295237D02*
X128630057Y-92342856D01*
X128630057Y-92342856D02*
X128772914Y-92438094D01*
X128772914Y-92438094D02*
X128963390Y-92485713D01*
X128963390Y-92485713D02*
X129344342Y-92485713D01*
X129344342Y-92485713D02*
X129439580Y-92438094D01*
X129439580Y-92438094D02*
X129487200Y-92390475D01*
X129487200Y-92390475D02*
X129534819Y-92295237D01*
X129534819Y-92295237D02*
X129534819Y-92104761D01*
X129534819Y-92104761D02*
X129487200Y-92009523D01*
X129487200Y-92009523D02*
X129439580Y-91961904D01*
X129439580Y-91961904D02*
X129344342Y-91914285D01*
X129344342Y-91914285D02*
X129106247Y-91914285D01*
X129106247Y-91914285D02*
X129011009Y-91961904D01*
X129011009Y-91961904D02*
X128963390Y-92009523D01*
X128963390Y-92009523D02*
X128915771Y-92104761D01*
X128915771Y-92104761D02*
X128915771Y-92295237D01*
X128915771Y-92295237D02*
X128963390Y-92390475D01*
X128963390Y-92390475D02*
X129011009Y-92438094D01*
X129011009Y-92438094D02*
X129106247Y-92485713D01*
X111691876Y-113436094D02*
X112331876Y-113222761D01*
X112331876Y-113222761D02*
X111691876Y-113009427D01*
X112331876Y-112430380D02*
X112027114Y-112643714D01*
X112331876Y-112796095D02*
X111691876Y-112796095D01*
X111691876Y-112796095D02*
X111691876Y-112552285D01*
X111691876Y-112552285D02*
X111722352Y-112491333D01*
X111722352Y-112491333D02*
X111752828Y-112460856D01*
X111752828Y-112460856D02*
X111813780Y-112430380D01*
X111813780Y-112430380D02*
X111905209Y-112430380D01*
X111905209Y-112430380D02*
X111966161Y-112460856D01*
X111966161Y-112460856D02*
X111996638Y-112491333D01*
X111996638Y-112491333D02*
X112027114Y-112552285D01*
X112027114Y-112552285D02*
X112027114Y-112796095D01*
X112331876Y-111820856D02*
X112331876Y-112186571D01*
X112331876Y-112003714D02*
X111691876Y-112003714D01*
X111691876Y-112003714D02*
X111783304Y-112064666D01*
X111783304Y-112064666D02*
X111844257Y-112125618D01*
X111844257Y-112125618D02*
X111874733Y-112186571D01*
X123839580Y-104141666D02*
X123887200Y-104189285D01*
X123887200Y-104189285D02*
X123934819Y-104332142D01*
X123934819Y-104332142D02*
X123934819Y-104427380D01*
X123934819Y-104427380D02*
X123887200Y-104570237D01*
X123887200Y-104570237D02*
X123791961Y-104665475D01*
X123791961Y-104665475D02*
X123696723Y-104713094D01*
X123696723Y-104713094D02*
X123506247Y-104760713D01*
X123506247Y-104760713D02*
X123363390Y-104760713D01*
X123363390Y-104760713D02*
X123172914Y-104713094D01*
X123172914Y-104713094D02*
X123077676Y-104665475D01*
X123077676Y-104665475D02*
X122982438Y-104570237D01*
X122982438Y-104570237D02*
X122934819Y-104427380D01*
X122934819Y-104427380D02*
X122934819Y-104332142D01*
X122934819Y-104332142D02*
X122982438Y-104189285D01*
X122982438Y-104189285D02*
X123030057Y-104141666D01*
X122934819Y-103808332D02*
X122934819Y-103189285D01*
X122934819Y-103189285D02*
X123315771Y-103522618D01*
X123315771Y-103522618D02*
X123315771Y-103379761D01*
X123315771Y-103379761D02*
X123363390Y-103284523D01*
X123363390Y-103284523D02*
X123411009Y-103236904D01*
X123411009Y-103236904D02*
X123506247Y-103189285D01*
X123506247Y-103189285D02*
X123744342Y-103189285D01*
X123744342Y-103189285D02*
X123839580Y-103236904D01*
X123839580Y-103236904D02*
X123887200Y-103284523D01*
X123887200Y-103284523D02*
X123934819Y-103379761D01*
X123934819Y-103379761D02*
X123934819Y-103665475D01*
X123934819Y-103665475D02*
X123887200Y-103760713D01*
X123887200Y-103760713D02*
X123839580Y-103808332D01*
X121761666Y-88734819D02*
X121761666Y-89449104D01*
X121761666Y-89449104D02*
X121714047Y-89591961D01*
X121714047Y-89591961D02*
X121618809Y-89687200D01*
X121618809Y-89687200D02*
X121475952Y-89734819D01*
X121475952Y-89734819D02*
X121380714Y-89734819D01*
X122666428Y-89068152D02*
X122666428Y-89734819D01*
X122428333Y-88687200D02*
X122190238Y-89401485D01*
X122190238Y-89401485D02*
X122809285Y-89401485D01*
X124110560Y-119206028D02*
X124110560Y-119920820D01*
X124110560Y-119920820D02*
X124062908Y-120063779D01*
X124062908Y-120063779D02*
X123967602Y-120159085D01*
X123967602Y-120159085D02*
X123824644Y-120206737D01*
X123824644Y-120206737D02*
X123729338Y-120206737D01*
X124539436Y-119301334D02*
X124587089Y-119253681D01*
X124587089Y-119253681D02*
X124682394Y-119206028D01*
X124682394Y-119206028D02*
X124920658Y-119206028D01*
X124920658Y-119206028D02*
X125015964Y-119253681D01*
X125015964Y-119253681D02*
X125063617Y-119301334D01*
X125063617Y-119301334D02*
X125111269Y-119396640D01*
X125111269Y-119396640D02*
X125111269Y-119491945D01*
X125111269Y-119491945D02*
X125063617Y-119634904D01*
X125063617Y-119634904D02*
X124491783Y-120206737D01*
X124491783Y-120206737D02*
X125111269Y-120206737D01*
X113758333Y-100639580D02*
X113710714Y-100687200D01*
X113710714Y-100687200D02*
X113567857Y-100734819D01*
X113567857Y-100734819D02*
X113472619Y-100734819D01*
X113472619Y-100734819D02*
X113329762Y-100687200D01*
X113329762Y-100687200D02*
X113234524Y-100591961D01*
X113234524Y-100591961D02*
X113186905Y-100496723D01*
X113186905Y-100496723D02*
X113139286Y-100306247D01*
X113139286Y-100306247D02*
X113139286Y-100163390D01*
X113139286Y-100163390D02*
X113186905Y-99972914D01*
X113186905Y-99972914D02*
X113234524Y-99877676D01*
X113234524Y-99877676D02*
X113329762Y-99782438D01*
X113329762Y-99782438D02*
X113472619Y-99734819D01*
X113472619Y-99734819D02*
X113567857Y-99734819D01*
X113567857Y-99734819D02*
X113710714Y-99782438D01*
X113710714Y-99782438D02*
X113758333Y-99830057D01*
X114710714Y-100734819D02*
X114139286Y-100734819D01*
X114425000Y-100734819D02*
X114425000Y-99734819D01*
X114425000Y-99734819D02*
X114329762Y-99877676D01*
X114329762Y-99877676D02*
X114234524Y-99972914D01*
X114234524Y-99972914D02*
X114139286Y-100020533D01*
X112744095Y-102954819D02*
X112744095Y-103764342D01*
X112744095Y-103764342D02*
X112791714Y-103859580D01*
X112791714Y-103859580D02*
X112839333Y-103907200D01*
X112839333Y-103907200D02*
X112934571Y-103954819D01*
X112934571Y-103954819D02*
X113125047Y-103954819D01*
X113125047Y-103954819D02*
X113220285Y-103907200D01*
X113220285Y-103907200D02*
X113267904Y-103859580D01*
X113267904Y-103859580D02*
X113315523Y-103764342D01*
X113315523Y-103764342D02*
X113315523Y-102954819D01*
X114220285Y-103288152D02*
X114220285Y-103954819D01*
X113982190Y-102907200D02*
X113744095Y-103621485D01*
X113744095Y-103621485D02*
X114363142Y-103621485D01*
X117309065Y-93719925D02*
X117946486Y-93719925D01*
X117946486Y-93719925D02*
X118021476Y-93682430D01*
X118021476Y-93682430D02*
X118058972Y-93644934D01*
X118058972Y-93644934D02*
X118096467Y-93569944D01*
X118096467Y-93569944D02*
X118096467Y-93419962D01*
X118096467Y-93419962D02*
X118058972Y-93344972D01*
X118058972Y-93344972D02*
X118021476Y-93307476D01*
X118021476Y-93307476D02*
X117946486Y-93269981D01*
X117946486Y-93269981D02*
X117309065Y-93269981D01*
X118096467Y-92482579D02*
X118096467Y-92932523D01*
X118096467Y-92707551D02*
X117309065Y-92707551D01*
X117309065Y-92707551D02*
X117421551Y-92782542D01*
X117421551Y-92782542D02*
X117496542Y-92857533D01*
X117496542Y-92857533D02*
X117534037Y-92932523D01*
X114337200Y-80975475D02*
X114384819Y-80832618D01*
X114384819Y-80832618D02*
X114384819Y-80594523D01*
X114384819Y-80594523D02*
X114337200Y-80499285D01*
X114337200Y-80499285D02*
X114289580Y-80451666D01*
X114289580Y-80451666D02*
X114194342Y-80404047D01*
X114194342Y-80404047D02*
X114099104Y-80404047D01*
X114099104Y-80404047D02*
X114003866Y-80451666D01*
X114003866Y-80451666D02*
X113956247Y-80499285D01*
X113956247Y-80499285D02*
X113908628Y-80594523D01*
X113908628Y-80594523D02*
X113861009Y-80784999D01*
X113861009Y-80784999D02*
X113813390Y-80880237D01*
X113813390Y-80880237D02*
X113765771Y-80927856D01*
X113765771Y-80927856D02*
X113670533Y-80975475D01*
X113670533Y-80975475D02*
X113575295Y-80975475D01*
X113575295Y-80975475D02*
X113480057Y-80927856D01*
X113480057Y-80927856D02*
X113432438Y-80880237D01*
X113432438Y-80880237D02*
X113384819Y-80784999D01*
X113384819Y-80784999D02*
X113384819Y-80546904D01*
X113384819Y-80546904D02*
X113432438Y-80404047D01*
X114289580Y-79404047D02*
X114337200Y-79451666D01*
X114337200Y-79451666D02*
X114384819Y-79594523D01*
X114384819Y-79594523D02*
X114384819Y-79689761D01*
X114384819Y-79689761D02*
X114337200Y-79832618D01*
X114337200Y-79832618D02*
X114241961Y-79927856D01*
X114241961Y-79927856D02*
X114146723Y-79975475D01*
X114146723Y-79975475D02*
X113956247Y-80023094D01*
X113956247Y-80023094D02*
X113813390Y-80023094D01*
X113813390Y-80023094D02*
X113622914Y-79975475D01*
X113622914Y-79975475D02*
X113527676Y-79927856D01*
X113527676Y-79927856D02*
X113432438Y-79832618D01*
X113432438Y-79832618D02*
X113384819Y-79689761D01*
X113384819Y-79689761D02*
X113384819Y-79594523D01*
X113384819Y-79594523D02*
X113432438Y-79451666D01*
X113432438Y-79451666D02*
X113480057Y-79404047D01*
X114384819Y-78499285D02*
X114384819Y-78975475D01*
X114384819Y-78975475D02*
X113384819Y-78975475D01*
X114289580Y-72331666D02*
X114337200Y-72379285D01*
X114337200Y-72379285D02*
X114384819Y-72522142D01*
X114384819Y-72522142D02*
X114384819Y-72617380D01*
X114384819Y-72617380D02*
X114337200Y-72760237D01*
X114337200Y-72760237D02*
X114241961Y-72855475D01*
X114241961Y-72855475D02*
X114146723Y-72903094D01*
X114146723Y-72903094D02*
X113956247Y-72950713D01*
X113956247Y-72950713D02*
X113813390Y-72950713D01*
X113813390Y-72950713D02*
X113622914Y-72903094D01*
X113622914Y-72903094D02*
X113527676Y-72855475D01*
X113527676Y-72855475D02*
X113432438Y-72760237D01*
X113432438Y-72760237D02*
X113384819Y-72617380D01*
X113384819Y-72617380D02*
X113384819Y-72522142D01*
X113384819Y-72522142D02*
X113432438Y-72379285D01*
X113432438Y-72379285D02*
X113480057Y-72331666D01*
X114337200Y-71950713D02*
X114384819Y-71807856D01*
X114384819Y-71807856D02*
X114384819Y-71569761D01*
X114384819Y-71569761D02*
X114337200Y-71474523D01*
X114337200Y-71474523D02*
X114289580Y-71426904D01*
X114289580Y-71426904D02*
X114194342Y-71379285D01*
X114194342Y-71379285D02*
X114099104Y-71379285D01*
X114099104Y-71379285D02*
X114003866Y-71426904D01*
X114003866Y-71426904D02*
X113956247Y-71474523D01*
X113956247Y-71474523D02*
X113908628Y-71569761D01*
X113908628Y-71569761D02*
X113861009Y-71760237D01*
X113861009Y-71760237D02*
X113813390Y-71855475D01*
X113813390Y-71855475D02*
X113765771Y-71903094D01*
X113765771Y-71903094D02*
X113670533Y-71950713D01*
X113670533Y-71950713D02*
X113575295Y-71950713D01*
X113575295Y-71950713D02*
X113480057Y-71903094D01*
X113480057Y-71903094D02*
X113432438Y-71855475D01*
X113432438Y-71855475D02*
X113384819Y-71760237D01*
X113384819Y-71760237D02*
X113384819Y-71522142D01*
X113384819Y-71522142D02*
X113432438Y-71379285D01*
X114337200Y-78554523D02*
X114384819Y-78411666D01*
X114384819Y-78411666D02*
X114384819Y-78173571D01*
X114384819Y-78173571D02*
X114337200Y-78078333D01*
X114337200Y-78078333D02*
X114289580Y-78030714D01*
X114289580Y-78030714D02*
X114194342Y-77983095D01*
X114194342Y-77983095D02*
X114099104Y-77983095D01*
X114099104Y-77983095D02*
X114003866Y-78030714D01*
X114003866Y-78030714D02*
X113956247Y-78078333D01*
X113956247Y-78078333D02*
X113908628Y-78173571D01*
X113908628Y-78173571D02*
X113861009Y-78364047D01*
X113861009Y-78364047D02*
X113813390Y-78459285D01*
X113813390Y-78459285D02*
X113765771Y-78506904D01*
X113765771Y-78506904D02*
X113670533Y-78554523D01*
X113670533Y-78554523D02*
X113575295Y-78554523D01*
X113575295Y-78554523D02*
X113480057Y-78506904D01*
X113480057Y-78506904D02*
X113432438Y-78459285D01*
X113432438Y-78459285D02*
X113384819Y-78364047D01*
X113384819Y-78364047D02*
X113384819Y-78125952D01*
X113384819Y-78125952D02*
X113432438Y-77983095D01*
X114384819Y-77554523D02*
X113384819Y-77554523D01*
X113384819Y-77554523D02*
X113384819Y-77316428D01*
X113384819Y-77316428D02*
X113432438Y-77173571D01*
X113432438Y-77173571D02*
X113527676Y-77078333D01*
X113527676Y-77078333D02*
X113622914Y-77030714D01*
X113622914Y-77030714D02*
X113813390Y-76983095D01*
X113813390Y-76983095D02*
X113956247Y-76983095D01*
X113956247Y-76983095D02*
X114146723Y-77030714D01*
X114146723Y-77030714D02*
X114241961Y-77078333D01*
X114241961Y-77078333D02*
X114337200Y-77173571D01*
X114337200Y-77173571D02*
X114384819Y-77316428D01*
X114384819Y-77316428D02*
X114384819Y-77554523D01*
X113384819Y-76364047D02*
X113384819Y-76173571D01*
X113384819Y-76173571D02*
X113432438Y-76078333D01*
X113432438Y-76078333D02*
X113527676Y-75983095D01*
X113527676Y-75983095D02*
X113718152Y-75935476D01*
X113718152Y-75935476D02*
X114051485Y-75935476D01*
X114051485Y-75935476D02*
X114241961Y-75983095D01*
X114241961Y-75983095D02*
X114337200Y-76078333D01*
X114337200Y-76078333D02*
X114384819Y-76173571D01*
X114384819Y-76173571D02*
X114384819Y-76364047D01*
X114384819Y-76364047D02*
X114337200Y-76459285D01*
X114337200Y-76459285D02*
X114241961Y-76554523D01*
X114241961Y-76554523D02*
X114051485Y-76602142D01*
X114051485Y-76602142D02*
X113718152Y-76602142D01*
X113718152Y-76602142D02*
X113527676Y-76554523D01*
X113527676Y-76554523D02*
X113432438Y-76459285D01*
X113432438Y-76459285D02*
X113384819Y-76364047D01*
X113384819Y-86103094D02*
X113384819Y-85484047D01*
X113384819Y-85484047D02*
X113765771Y-85817380D01*
X113765771Y-85817380D02*
X113765771Y-85674523D01*
X113765771Y-85674523D02*
X113813390Y-85579285D01*
X113813390Y-85579285D02*
X113861009Y-85531666D01*
X113861009Y-85531666D02*
X113956247Y-85484047D01*
X113956247Y-85484047D02*
X114194342Y-85484047D01*
X114194342Y-85484047D02*
X114289580Y-85531666D01*
X114289580Y-85531666D02*
X114337200Y-85579285D01*
X114337200Y-85579285D02*
X114384819Y-85674523D01*
X114384819Y-85674523D02*
X114384819Y-85960237D01*
X114384819Y-85960237D02*
X114337200Y-86055475D01*
X114337200Y-86055475D02*
X114289580Y-86103094D01*
X113384819Y-85198332D02*
X114384819Y-84864999D01*
X114384819Y-84864999D02*
X113384819Y-84531666D01*
X113384819Y-84007856D02*
X113384819Y-83912618D01*
X113384819Y-83912618D02*
X113432438Y-83817380D01*
X113432438Y-83817380D02*
X113480057Y-83769761D01*
X113480057Y-83769761D02*
X113575295Y-83722142D01*
X113575295Y-83722142D02*
X113765771Y-83674523D01*
X113765771Y-83674523D02*
X114003866Y-83674523D01*
X114003866Y-83674523D02*
X114194342Y-83722142D01*
X114194342Y-83722142D02*
X114289580Y-83769761D01*
X114289580Y-83769761D02*
X114337200Y-83817380D01*
X114337200Y-83817380D02*
X114384819Y-83912618D01*
X114384819Y-83912618D02*
X114384819Y-84007856D01*
X114384819Y-84007856D02*
X114337200Y-84103094D01*
X114337200Y-84103094D02*
X114289580Y-84150713D01*
X114289580Y-84150713D02*
X114194342Y-84198332D01*
X114194342Y-84198332D02*
X114003866Y-84245951D01*
X114003866Y-84245951D02*
X113765771Y-84245951D01*
X113765771Y-84245951D02*
X113575295Y-84198332D01*
X113575295Y-84198332D02*
X113480057Y-84150713D01*
X113480057Y-84150713D02*
X113432438Y-84103094D01*
X113432438Y-84103094D02*
X113384819Y-84007856D01*
X114337200Y-75919285D02*
X114384819Y-75776428D01*
X114384819Y-75776428D02*
X114384819Y-75538333D01*
X114384819Y-75538333D02*
X114337200Y-75443095D01*
X114337200Y-75443095D02*
X114289580Y-75395476D01*
X114289580Y-75395476D02*
X114194342Y-75347857D01*
X114194342Y-75347857D02*
X114099104Y-75347857D01*
X114099104Y-75347857D02*
X114003866Y-75395476D01*
X114003866Y-75395476D02*
X113956247Y-75443095D01*
X113956247Y-75443095D02*
X113908628Y-75538333D01*
X113908628Y-75538333D02*
X113861009Y-75728809D01*
X113861009Y-75728809D02*
X113813390Y-75824047D01*
X113813390Y-75824047D02*
X113765771Y-75871666D01*
X113765771Y-75871666D02*
X113670533Y-75919285D01*
X113670533Y-75919285D02*
X113575295Y-75919285D01*
X113575295Y-75919285D02*
X113480057Y-75871666D01*
X113480057Y-75871666D02*
X113432438Y-75824047D01*
X113432438Y-75824047D02*
X113384819Y-75728809D01*
X113384819Y-75728809D02*
X113384819Y-75490714D01*
X113384819Y-75490714D02*
X113432438Y-75347857D01*
X114384819Y-74919285D02*
X113384819Y-74919285D01*
X113384819Y-74919285D02*
X113384819Y-74681190D01*
X113384819Y-74681190D02*
X113432438Y-74538333D01*
X113432438Y-74538333D02*
X113527676Y-74443095D01*
X113527676Y-74443095D02*
X113622914Y-74395476D01*
X113622914Y-74395476D02*
X113813390Y-74347857D01*
X113813390Y-74347857D02*
X113956247Y-74347857D01*
X113956247Y-74347857D02*
X114146723Y-74395476D01*
X114146723Y-74395476D02*
X114241961Y-74443095D01*
X114241961Y-74443095D02*
X114337200Y-74538333D01*
X114337200Y-74538333D02*
X114384819Y-74681190D01*
X114384819Y-74681190D02*
X114384819Y-74919285D01*
X114099104Y-73966904D02*
X114099104Y-73490714D01*
X114384819Y-74062142D02*
X113384819Y-73728809D01*
X113384819Y-73728809D02*
X114384819Y-73395476D01*
X114384819Y-70529761D02*
X113384819Y-70529761D01*
X114384819Y-70053571D02*
X113384819Y-70053571D01*
X113384819Y-70053571D02*
X114384819Y-69482143D01*
X114384819Y-69482143D02*
X113384819Y-69482143D01*
X113384819Y-69148809D02*
X113384819Y-68577381D01*
X114384819Y-68863095D02*
X113384819Y-68863095D01*
X113432438Y-83086904D02*
X113384819Y-83182142D01*
X113384819Y-83182142D02*
X113384819Y-83324999D01*
X113384819Y-83324999D02*
X113432438Y-83467856D01*
X113432438Y-83467856D02*
X113527676Y-83563094D01*
X113527676Y-83563094D02*
X113622914Y-83610713D01*
X113622914Y-83610713D02*
X113813390Y-83658332D01*
X113813390Y-83658332D02*
X113956247Y-83658332D01*
X113956247Y-83658332D02*
X114146723Y-83610713D01*
X114146723Y-83610713D02*
X114241961Y-83563094D01*
X114241961Y-83563094D02*
X114337200Y-83467856D01*
X114337200Y-83467856D02*
X114384819Y-83324999D01*
X114384819Y-83324999D02*
X114384819Y-83229761D01*
X114384819Y-83229761D02*
X114337200Y-83086904D01*
X114337200Y-83086904D02*
X114289580Y-83039285D01*
X114289580Y-83039285D02*
X113956247Y-83039285D01*
X113956247Y-83039285D02*
X113956247Y-83229761D01*
X114384819Y-82610713D02*
X113384819Y-82610713D01*
X113384819Y-82610713D02*
X114384819Y-82039285D01*
X114384819Y-82039285D02*
X113384819Y-82039285D01*
X114384819Y-81563094D02*
X113384819Y-81563094D01*
X113384819Y-81563094D02*
X113384819Y-81324999D01*
X113384819Y-81324999D02*
X113432438Y-81182142D01*
X113432438Y-81182142D02*
X113527676Y-81086904D01*
X113527676Y-81086904D02*
X113622914Y-81039285D01*
X113622914Y-81039285D02*
X113813390Y-80991666D01*
X113813390Y-80991666D02*
X113956247Y-80991666D01*
X113956247Y-80991666D02*
X114146723Y-81039285D01*
X114146723Y-81039285D02*
X114241961Y-81086904D01*
X114241961Y-81086904D02*
X114337200Y-81182142D01*
X114337200Y-81182142D02*
X114384819Y-81324999D01*
X114384819Y-81324999D02*
X114384819Y-81563094D01*
X113384819Y-88500237D02*
X114384819Y-88166904D01*
X114384819Y-88166904D02*
X113384819Y-87833571D01*
X114384819Y-87500237D02*
X113384819Y-87500237D01*
X114384819Y-87024047D02*
X113384819Y-87024047D01*
X113384819Y-87024047D02*
X114384819Y-86452619D01*
X114384819Y-86452619D02*
X113384819Y-86452619D01*
X103656953Y-88661141D02*
X103738858Y-88415427D01*
X103738858Y-88415427D02*
X103820762Y-88333522D01*
X103820762Y-88333522D02*
X103984572Y-88251618D01*
X103984572Y-88251618D02*
X104230286Y-88251618D01*
X104230286Y-88251618D02*
X104394096Y-88333522D01*
X104394096Y-88333522D02*
X104476001Y-88415427D01*
X104476001Y-88415427D02*
X104557905Y-88579237D01*
X104557905Y-88579237D02*
X104557905Y-89234475D01*
X104557905Y-89234475D02*
X102837905Y-89234475D01*
X102837905Y-89234475D02*
X102837905Y-88661141D01*
X102837905Y-88661141D02*
X102919810Y-88497332D01*
X102919810Y-88497332D02*
X103001715Y-88415427D01*
X103001715Y-88415427D02*
X103165524Y-88333522D01*
X103165524Y-88333522D02*
X103329334Y-88333522D01*
X103329334Y-88333522D02*
X103493143Y-88415427D01*
X103493143Y-88415427D02*
X103575048Y-88497332D01*
X103575048Y-88497332D02*
X103656953Y-88661141D01*
X103656953Y-88661141D02*
X103656953Y-89234475D01*
X104557905Y-87514475D02*
X102837905Y-87514475D01*
X102837905Y-87514475D02*
X104066477Y-86941141D01*
X104066477Y-86941141D02*
X102837905Y-86367808D01*
X102837905Y-86367808D02*
X104557905Y-86367808D01*
X104557905Y-85548761D02*
X102837905Y-85548761D01*
X102837905Y-85548761D02*
X102837905Y-84893523D01*
X102837905Y-84893523D02*
X102919810Y-84729713D01*
X102919810Y-84729713D02*
X103001715Y-84647808D01*
X103001715Y-84647808D02*
X103165524Y-84565904D01*
X103165524Y-84565904D02*
X103411239Y-84565904D01*
X103411239Y-84565904D02*
X103575048Y-84647808D01*
X103575048Y-84647808D02*
X103656953Y-84729713D01*
X103656953Y-84729713D02*
X103738858Y-84893523D01*
X103738858Y-84893523D02*
X103738858Y-85548761D01*
X102837905Y-83992570D02*
X102837905Y-82927808D01*
X102837905Y-82927808D02*
X103493143Y-83501142D01*
X103493143Y-83501142D02*
X103493143Y-83255427D01*
X103493143Y-83255427D02*
X103575048Y-83091618D01*
X103575048Y-83091618D02*
X103656953Y-83009713D01*
X103656953Y-83009713D02*
X103820762Y-82927808D01*
X103820762Y-82927808D02*
X104230286Y-82927808D01*
X104230286Y-82927808D02*
X104394096Y-83009713D01*
X104394096Y-83009713D02*
X104476001Y-83091618D01*
X104476001Y-83091618D02*
X104557905Y-83255427D01*
X104557905Y-83255427D02*
X104557905Y-83746856D01*
X104557905Y-83746856D02*
X104476001Y-83910665D01*
X104476001Y-83910665D02*
X104394096Y-83992570D01*
X104557905Y-82108761D02*
X104557905Y-81781142D01*
X104557905Y-81781142D02*
X104476001Y-81617332D01*
X104476001Y-81617332D02*
X104394096Y-81535428D01*
X104394096Y-81535428D02*
X104148381Y-81371618D01*
X104148381Y-81371618D02*
X103820762Y-81289713D01*
X103820762Y-81289713D02*
X103165524Y-81289713D01*
X103165524Y-81289713D02*
X103001715Y-81371618D01*
X103001715Y-81371618D02*
X102919810Y-81453523D01*
X102919810Y-81453523D02*
X102837905Y-81617332D01*
X102837905Y-81617332D02*
X102837905Y-81944951D01*
X102837905Y-81944951D02*
X102919810Y-82108761D01*
X102919810Y-82108761D02*
X103001715Y-82190666D01*
X103001715Y-82190666D02*
X103165524Y-82272570D01*
X103165524Y-82272570D02*
X103575048Y-82272570D01*
X103575048Y-82272570D02*
X103738858Y-82190666D01*
X103738858Y-82190666D02*
X103820762Y-82108761D01*
X103820762Y-82108761D02*
X103902667Y-81944951D01*
X103902667Y-81944951D02*
X103902667Y-81617332D01*
X103902667Y-81617332D02*
X103820762Y-81453523D01*
X103820762Y-81453523D02*
X103738858Y-81371618D01*
X103738858Y-81371618D02*
X103575048Y-81289713D01*
X102837905Y-80224952D02*
X102837905Y-80061142D01*
X102837905Y-80061142D02*
X102919810Y-79897333D01*
X102919810Y-79897333D02*
X103001715Y-79815428D01*
X103001715Y-79815428D02*
X103165524Y-79733523D01*
X103165524Y-79733523D02*
X103493143Y-79651618D01*
X103493143Y-79651618D02*
X103902667Y-79651618D01*
X103902667Y-79651618D02*
X104230286Y-79733523D01*
X104230286Y-79733523D02*
X104394096Y-79815428D01*
X104394096Y-79815428D02*
X104476001Y-79897333D01*
X104476001Y-79897333D02*
X104557905Y-80061142D01*
X104557905Y-80061142D02*
X104557905Y-80224952D01*
X104557905Y-80224952D02*
X104476001Y-80388761D01*
X104476001Y-80388761D02*
X104394096Y-80470666D01*
X104394096Y-80470666D02*
X104230286Y-80552571D01*
X104230286Y-80552571D02*
X103902667Y-80634475D01*
X103902667Y-80634475D02*
X103493143Y-80634475D01*
X103493143Y-80634475D02*
X103165524Y-80552571D01*
X103165524Y-80552571D02*
X103001715Y-80470666D01*
X103001715Y-80470666D02*
X102919810Y-80388761D01*
X102919810Y-80388761D02*
X102837905Y-80224952D01*
X116632142Y-99579580D02*
X116584523Y-99627200D01*
X116584523Y-99627200D02*
X116441666Y-99674819D01*
X116441666Y-99674819D02*
X116346428Y-99674819D01*
X116346428Y-99674819D02*
X116203571Y-99627200D01*
X116203571Y-99627200D02*
X116108333Y-99531961D01*
X116108333Y-99531961D02*
X116060714Y-99436723D01*
X116060714Y-99436723D02*
X116013095Y-99246247D01*
X116013095Y-99246247D02*
X116013095Y-99103390D01*
X116013095Y-99103390D02*
X116060714Y-98912914D01*
X116060714Y-98912914D02*
X116108333Y-98817676D01*
X116108333Y-98817676D02*
X116203571Y-98722438D01*
X116203571Y-98722438D02*
X116346428Y-98674819D01*
X116346428Y-98674819D02*
X116441666Y-98674819D01*
X116441666Y-98674819D02*
X116584523Y-98722438D01*
X116584523Y-98722438D02*
X116632142Y-98770057D01*
X117584523Y-99674819D02*
X117013095Y-99674819D01*
X117298809Y-99674819D02*
X117298809Y-98674819D01*
X117298809Y-98674819D02*
X117203571Y-98817676D01*
X117203571Y-98817676D02*
X117108333Y-98912914D01*
X117108333Y-98912914D02*
X117013095Y-98960533D01*
X117917857Y-98674819D02*
X118536904Y-98674819D01*
X118536904Y-98674819D02*
X118203571Y-99055771D01*
X118203571Y-99055771D02*
X118346428Y-99055771D01*
X118346428Y-99055771D02*
X118441666Y-99103390D01*
X118441666Y-99103390D02*
X118489285Y-99151009D01*
X118489285Y-99151009D02*
X118536904Y-99246247D01*
X118536904Y-99246247D02*
X118536904Y-99484342D01*
X118536904Y-99484342D02*
X118489285Y-99579580D01*
X118489285Y-99579580D02*
X118441666Y-99627200D01*
X118441666Y-99627200D02*
X118346428Y-99674819D01*
X118346428Y-99674819D02*
X118060714Y-99674819D01*
X118060714Y-99674819D02*
X117965476Y-99627200D01*
X117965476Y-99627200D02*
X117917857Y-99579580D01*
X135184819Y-108511904D02*
X135994342Y-108511904D01*
X135994342Y-108511904D02*
X136089580Y-108464285D01*
X136089580Y-108464285D02*
X136137200Y-108416666D01*
X136137200Y-108416666D02*
X136184819Y-108321428D01*
X136184819Y-108321428D02*
X136184819Y-108130952D01*
X136184819Y-108130952D02*
X136137200Y-108035714D01*
X136137200Y-108035714D02*
X136089580Y-107988095D01*
X136089580Y-107988095D02*
X135994342Y-107940476D01*
X135994342Y-107940476D02*
X135184819Y-107940476D01*
X135280057Y-107511904D02*
X135232438Y-107464285D01*
X135232438Y-107464285D02*
X135184819Y-107369047D01*
X135184819Y-107369047D02*
X135184819Y-107130952D01*
X135184819Y-107130952D02*
X135232438Y-107035714D01*
X135232438Y-107035714D02*
X135280057Y-106988095D01*
X135280057Y-106988095D02*
X135375295Y-106940476D01*
X135375295Y-106940476D02*
X135470533Y-106940476D01*
X135470533Y-106940476D02*
X135613390Y-106988095D01*
X135613390Y-106988095D02*
X136184819Y-107559523D01*
X136184819Y-107559523D02*
X136184819Y-106940476D01*
X117924819Y-108616666D02*
X117448628Y-108949999D01*
X117924819Y-109188094D02*
X116924819Y-109188094D01*
X116924819Y-109188094D02*
X116924819Y-108807142D01*
X116924819Y-108807142D02*
X116972438Y-108711904D01*
X116972438Y-108711904D02*
X117020057Y-108664285D01*
X117020057Y-108664285D02*
X117115295Y-108616666D01*
X117115295Y-108616666D02*
X117258152Y-108616666D01*
X117258152Y-108616666D02*
X117353390Y-108664285D01*
X117353390Y-108664285D02*
X117401009Y-108711904D01*
X117401009Y-108711904D02*
X117448628Y-108807142D01*
X117448628Y-108807142D02*
X117448628Y-109188094D01*
X116924819Y-107759523D02*
X116924819Y-107949999D01*
X116924819Y-107949999D02*
X116972438Y-108045237D01*
X116972438Y-108045237D02*
X117020057Y-108092856D01*
X117020057Y-108092856D02*
X117162914Y-108188094D01*
X117162914Y-108188094D02*
X117353390Y-108235713D01*
X117353390Y-108235713D02*
X117734342Y-108235713D01*
X117734342Y-108235713D02*
X117829580Y-108188094D01*
X117829580Y-108188094D02*
X117877200Y-108140475D01*
X117877200Y-108140475D02*
X117924819Y-108045237D01*
X117924819Y-108045237D02*
X117924819Y-107854761D01*
X117924819Y-107854761D02*
X117877200Y-107759523D01*
X117877200Y-107759523D02*
X117829580Y-107711904D01*
X117829580Y-107711904D02*
X117734342Y-107664285D01*
X117734342Y-107664285D02*
X117496247Y-107664285D01*
X117496247Y-107664285D02*
X117401009Y-107711904D01*
X117401009Y-107711904D02*
X117353390Y-107759523D01*
X117353390Y-107759523D02*
X117305771Y-107854761D01*
X117305771Y-107854761D02*
X117305771Y-108045237D01*
X117305771Y-108045237D02*
X117353390Y-108140475D01*
X117353390Y-108140475D02*
X117401009Y-108188094D01*
X117401009Y-108188094D02*
X117496247Y-108235713D01*
X118132142Y-116764580D02*
X118084523Y-116812200D01*
X118084523Y-116812200D02*
X117941666Y-116859819D01*
X117941666Y-116859819D02*
X117846428Y-116859819D01*
X117846428Y-116859819D02*
X117703571Y-116812200D01*
X117703571Y-116812200D02*
X117608333Y-116716961D01*
X117608333Y-116716961D02*
X117560714Y-116621723D01*
X117560714Y-116621723D02*
X117513095Y-116431247D01*
X117513095Y-116431247D02*
X117513095Y-116288390D01*
X117513095Y-116288390D02*
X117560714Y-116097914D01*
X117560714Y-116097914D02*
X117608333Y-116002676D01*
X117608333Y-116002676D02*
X117703571Y-115907438D01*
X117703571Y-115907438D02*
X117846428Y-115859819D01*
X117846428Y-115859819D02*
X117941666Y-115859819D01*
X117941666Y-115859819D02*
X118084523Y-115907438D01*
X118084523Y-115907438D02*
X118132142Y-115955057D01*
X119084523Y-116859819D02*
X118513095Y-116859819D01*
X118798809Y-116859819D02*
X118798809Y-115859819D01*
X118798809Y-115859819D02*
X118703571Y-116002676D01*
X118703571Y-116002676D02*
X118608333Y-116097914D01*
X118608333Y-116097914D02*
X118513095Y-116145533D01*
X119941666Y-116193152D02*
X119941666Y-116859819D01*
X119703571Y-115812200D02*
X119465476Y-116526485D01*
X119465476Y-116526485D02*
X120084523Y-116526485D01*
X134217261Y-79250057D02*
X134122023Y-79202438D01*
X134122023Y-79202438D02*
X134026785Y-79107200D01*
X134026785Y-79107200D02*
X133883928Y-78964342D01*
X133883928Y-78964342D02*
X133788690Y-78916723D01*
X133788690Y-78916723D02*
X133693452Y-78916723D01*
X133741071Y-79154819D02*
X133645833Y-79107200D01*
X133645833Y-79107200D02*
X133550595Y-79011961D01*
X133550595Y-79011961D02*
X133502976Y-78821485D01*
X133502976Y-78821485D02*
X133502976Y-78488152D01*
X133502976Y-78488152D02*
X133550595Y-78297676D01*
X133550595Y-78297676D02*
X133645833Y-78202438D01*
X133645833Y-78202438D02*
X133741071Y-78154819D01*
X133741071Y-78154819D02*
X133931547Y-78154819D01*
X133931547Y-78154819D02*
X134026785Y-78202438D01*
X134026785Y-78202438D02*
X134122023Y-78297676D01*
X134122023Y-78297676D02*
X134169642Y-78488152D01*
X134169642Y-78488152D02*
X134169642Y-78821485D01*
X134169642Y-78821485D02*
X134122023Y-79011961D01*
X134122023Y-79011961D02*
X134026785Y-79107200D01*
X134026785Y-79107200D02*
X133931547Y-79154819D01*
X133931547Y-79154819D02*
X133741071Y-79154819D01*
X135122023Y-79154819D02*
X134550595Y-79154819D01*
X134836309Y-79154819D02*
X134836309Y-78154819D01*
X134836309Y-78154819D02*
X134741071Y-78297676D01*
X134741071Y-78297676D02*
X134645833Y-78392914D01*
X134645833Y-78392914D02*
X134550595Y-78440533D01*
X113782142Y-92179580D02*
X113734523Y-92227200D01*
X113734523Y-92227200D02*
X113591666Y-92274819D01*
X113591666Y-92274819D02*
X113496428Y-92274819D01*
X113496428Y-92274819D02*
X113353571Y-92227200D01*
X113353571Y-92227200D02*
X113258333Y-92131961D01*
X113258333Y-92131961D02*
X113210714Y-92036723D01*
X113210714Y-92036723D02*
X113163095Y-91846247D01*
X113163095Y-91846247D02*
X113163095Y-91703390D01*
X113163095Y-91703390D02*
X113210714Y-91512914D01*
X113210714Y-91512914D02*
X113258333Y-91417676D01*
X113258333Y-91417676D02*
X113353571Y-91322438D01*
X113353571Y-91322438D02*
X113496428Y-91274819D01*
X113496428Y-91274819D02*
X113591666Y-91274819D01*
X113591666Y-91274819D02*
X113734523Y-91322438D01*
X113734523Y-91322438D02*
X113782142Y-91370057D01*
X114734523Y-92274819D02*
X114163095Y-92274819D01*
X114448809Y-92274819D02*
X114448809Y-91274819D01*
X114448809Y-91274819D02*
X114353571Y-91417676D01*
X114353571Y-91417676D02*
X114258333Y-91512914D01*
X114258333Y-91512914D02*
X114163095Y-91560533D01*
X115115476Y-91370057D02*
X115163095Y-91322438D01*
X115163095Y-91322438D02*
X115258333Y-91274819D01*
X115258333Y-91274819D02*
X115496428Y-91274819D01*
X115496428Y-91274819D02*
X115591666Y-91322438D01*
X115591666Y-91322438D02*
X115639285Y-91370057D01*
X115639285Y-91370057D02*
X115686904Y-91465295D01*
X115686904Y-91465295D02*
X115686904Y-91560533D01*
X115686904Y-91560533D02*
X115639285Y-91703390D01*
X115639285Y-91703390D02*
X115067857Y-92274819D01*
X115067857Y-92274819D02*
X115686904Y-92274819D01*
X124382142Y-113829580D02*
X124334523Y-113877200D01*
X124334523Y-113877200D02*
X124191666Y-113924819D01*
X124191666Y-113924819D02*
X124096428Y-113924819D01*
X124096428Y-113924819D02*
X123953571Y-113877200D01*
X123953571Y-113877200D02*
X123858333Y-113781961D01*
X123858333Y-113781961D02*
X123810714Y-113686723D01*
X123810714Y-113686723D02*
X123763095Y-113496247D01*
X123763095Y-113496247D02*
X123763095Y-113353390D01*
X123763095Y-113353390D02*
X123810714Y-113162914D01*
X123810714Y-113162914D02*
X123858333Y-113067676D01*
X123858333Y-113067676D02*
X123953571Y-112972438D01*
X123953571Y-112972438D02*
X124096428Y-112924819D01*
X124096428Y-112924819D02*
X124191666Y-112924819D01*
X124191666Y-112924819D02*
X124334523Y-112972438D01*
X124334523Y-112972438D02*
X124382142Y-113020057D01*
X125334523Y-113924819D02*
X124763095Y-113924819D01*
X125048809Y-113924819D02*
X125048809Y-112924819D01*
X125048809Y-112924819D02*
X124953571Y-113067676D01*
X124953571Y-113067676D02*
X124858333Y-113162914D01*
X124858333Y-113162914D02*
X124763095Y-113210533D01*
X126191666Y-112924819D02*
X126001190Y-112924819D01*
X126001190Y-112924819D02*
X125905952Y-112972438D01*
X125905952Y-112972438D02*
X125858333Y-113020057D01*
X125858333Y-113020057D02*
X125763095Y-113162914D01*
X125763095Y-113162914D02*
X125715476Y-113353390D01*
X125715476Y-113353390D02*
X125715476Y-113734342D01*
X125715476Y-113734342D02*
X125763095Y-113829580D01*
X125763095Y-113829580D02*
X125810714Y-113877200D01*
X125810714Y-113877200D02*
X125905952Y-113924819D01*
X125905952Y-113924819D02*
X126096428Y-113924819D01*
X126096428Y-113924819D02*
X126191666Y-113877200D01*
X126191666Y-113877200D02*
X126239285Y-113829580D01*
X126239285Y-113829580D02*
X126286904Y-113734342D01*
X126286904Y-113734342D02*
X126286904Y-113496247D01*
X126286904Y-113496247D02*
X126239285Y-113401009D01*
X126239285Y-113401009D02*
X126191666Y-113353390D01*
X126191666Y-113353390D02*
X126096428Y-113305771D01*
X126096428Y-113305771D02*
X125905952Y-113305771D01*
X125905952Y-113305771D02*
X125810714Y-113353390D01*
X125810714Y-113353390D02*
X125763095Y-113401009D01*
X125763095Y-113401009D02*
X125715476Y-113496247D01*
X113716666Y-115029819D02*
X113383333Y-114553628D01*
X113145238Y-115029819D02*
X113145238Y-114029819D01*
X113145238Y-114029819D02*
X113526190Y-114029819D01*
X113526190Y-114029819D02*
X113621428Y-114077438D01*
X113621428Y-114077438D02*
X113669047Y-114125057D01*
X113669047Y-114125057D02*
X113716666Y-114220295D01*
X113716666Y-114220295D02*
X113716666Y-114363152D01*
X113716666Y-114363152D02*
X113669047Y-114458390D01*
X113669047Y-114458390D02*
X113621428Y-114506009D01*
X113621428Y-114506009D02*
X113526190Y-114553628D01*
X113526190Y-114553628D02*
X113145238Y-114553628D01*
X114145238Y-114506009D02*
X114478571Y-114506009D01*
X114621428Y-115029819D02*
X114145238Y-115029819D01*
X114145238Y-115029819D02*
X114145238Y-114029819D01*
X114145238Y-114029819D02*
X114621428Y-114029819D01*
X115383333Y-114506009D02*
X115050000Y-114506009D01*
X115050000Y-115029819D02*
X115050000Y-114029819D01*
X115050000Y-114029819D02*
X115526190Y-114029819D01*
X116050000Y-114029819D02*
X116050000Y-114267914D01*
X115811905Y-114172676D02*
X116050000Y-114267914D01*
X116050000Y-114267914D02*
X116288095Y-114172676D01*
X115907143Y-114458390D02*
X116050000Y-114267914D01*
X116050000Y-114267914D02*
X116192857Y-114458390D01*
X116811905Y-114029819D02*
X116811905Y-114267914D01*
X116573810Y-114172676D02*
X116811905Y-114267914D01*
X116811905Y-114267914D02*
X117050000Y-114172676D01*
X116669048Y-114458390D02*
X116811905Y-114267914D01*
X116811905Y-114267914D02*
X116954762Y-114458390D01*
X112483333Y-100424819D02*
X112150000Y-99948628D01*
X111911905Y-100424819D02*
X111911905Y-99424819D01*
X111911905Y-99424819D02*
X112292857Y-99424819D01*
X112292857Y-99424819D02*
X112388095Y-99472438D01*
X112388095Y-99472438D02*
X112435714Y-99520057D01*
X112435714Y-99520057D02*
X112483333Y-99615295D01*
X112483333Y-99615295D02*
X112483333Y-99758152D01*
X112483333Y-99758152D02*
X112435714Y-99853390D01*
X112435714Y-99853390D02*
X112388095Y-99901009D01*
X112388095Y-99901009D02*
X112292857Y-99948628D01*
X112292857Y-99948628D02*
X111911905Y-99948628D01*
X112816667Y-99424819D02*
X113435714Y-99424819D01*
X113435714Y-99424819D02*
X113102381Y-99805771D01*
X113102381Y-99805771D02*
X113245238Y-99805771D01*
X113245238Y-99805771D02*
X113340476Y-99853390D01*
X113340476Y-99853390D02*
X113388095Y-99901009D01*
X113388095Y-99901009D02*
X113435714Y-99996247D01*
X113435714Y-99996247D02*
X113435714Y-100234342D01*
X113435714Y-100234342D02*
X113388095Y-100329580D01*
X113388095Y-100329580D02*
X113340476Y-100377200D01*
X113340476Y-100377200D02*
X113245238Y-100424819D01*
X113245238Y-100424819D02*
X112959524Y-100424819D01*
X112959524Y-100424819D02*
X112864286Y-100377200D01*
X112864286Y-100377200D02*
X112816667Y-100329580D01*
X128933333Y-116024819D02*
X128600000Y-115548628D01*
X128361905Y-116024819D02*
X128361905Y-115024819D01*
X128361905Y-115024819D02*
X128742857Y-115024819D01*
X128742857Y-115024819D02*
X128838095Y-115072438D01*
X128838095Y-115072438D02*
X128885714Y-115120057D01*
X128885714Y-115120057D02*
X128933333Y-115215295D01*
X128933333Y-115215295D02*
X128933333Y-115358152D01*
X128933333Y-115358152D02*
X128885714Y-115453390D01*
X128885714Y-115453390D02*
X128838095Y-115501009D01*
X128838095Y-115501009D02*
X128742857Y-115548628D01*
X128742857Y-115548628D02*
X128361905Y-115548628D01*
X129314286Y-115120057D02*
X129361905Y-115072438D01*
X129361905Y-115072438D02*
X129457143Y-115024819D01*
X129457143Y-115024819D02*
X129695238Y-115024819D01*
X129695238Y-115024819D02*
X129790476Y-115072438D01*
X129790476Y-115072438D02*
X129838095Y-115120057D01*
X129838095Y-115120057D02*
X129885714Y-115215295D01*
X129885714Y-115215295D02*
X129885714Y-115310533D01*
X129885714Y-115310533D02*
X129838095Y-115453390D01*
X129838095Y-115453390D02*
X129266667Y-116024819D01*
X129266667Y-116024819D02*
X129885714Y-116024819D01*
X133409819Y-89016666D02*
X132933628Y-89349999D01*
X133409819Y-89588094D02*
X132409819Y-89588094D01*
X132409819Y-89588094D02*
X132409819Y-89207142D01*
X132409819Y-89207142D02*
X132457438Y-89111904D01*
X132457438Y-89111904D02*
X132505057Y-89064285D01*
X132505057Y-89064285D02*
X132600295Y-89016666D01*
X132600295Y-89016666D02*
X132743152Y-89016666D01*
X132743152Y-89016666D02*
X132838390Y-89064285D01*
X132838390Y-89064285D02*
X132886009Y-89111904D01*
X132886009Y-89111904D02*
X132933628Y-89207142D01*
X132933628Y-89207142D02*
X132933628Y-89588094D01*
X132743152Y-88159523D02*
X133409819Y-88159523D01*
X132362200Y-88397618D02*
X133076485Y-88635713D01*
X133076485Y-88635713D02*
X133076485Y-88016666D01*
X118366666Y-126804819D02*
X118366666Y-127519104D01*
X118366666Y-127519104D02*
X118319047Y-127661961D01*
X118319047Y-127661961D02*
X118223809Y-127757200D01*
X118223809Y-127757200D02*
X118080952Y-127804819D01*
X118080952Y-127804819D02*
X117985714Y-127804819D01*
X119366666Y-127804819D02*
X118795238Y-127804819D01*
X119080952Y-127804819D02*
X119080952Y-126804819D01*
X119080952Y-126804819D02*
X118985714Y-126947676D01*
X118985714Y-126947676D02*
X118890476Y-127042914D01*
X118890476Y-127042914D02*
X118795238Y-127090533D01*
D13*
%TO.C,U3*%
X129860000Y-97375000D02*
X130370000Y-97375000D01*
X129860000Y-99875000D02*
X130370000Y-99875000D01*
X132350000Y-97375000D02*
X132860000Y-97375000D01*
X132860000Y-99875000D02*
X132350000Y-99875000D01*
D14*
X129460000Y-97825000D02*
G75*
G02*
X129260000Y-97825000I-100000J0D01*
G01*
X129260000Y-97825000D02*
G75*
G02*
X129460000Y-97825000I100000J0D01*
G01*
D11*
%TO.C,R8*%
X118237258Y-112297500D02*
X117762742Y-112297500D01*
X118237258Y-111252500D02*
X117762742Y-111252500D01*
%TO.C,C15*%
X120584420Y-118260000D02*
X120865580Y-118260000D01*
X120584420Y-117240000D02*
X120865580Y-117240000D01*
%TO.C,C5*%
X121615000Y-120709420D02*
X121615000Y-120990580D01*
X122635000Y-120709420D02*
X122635000Y-120990580D01*
D13*
%TO.C,U6*%
X129262500Y-119010000D02*
X130887500Y-119010000D01*
X129262500Y-122140000D02*
X130887500Y-122140000D01*
D14*
X132730000Y-121520000D02*
G75*
G02*
X132530000Y-121520000I-100000J0D01*
G01*
X132530000Y-121520000D02*
G75*
G02*
X132730000Y-121520000I100000J0D01*
G01*
D11*
%TO.C,R1*%
X125062258Y-121327500D02*
X124587742Y-121327500D01*
X125062258Y-122372500D02*
X124587742Y-122372500D01*
%TO.C,C2*%
X118785000Y-104138748D02*
X118785000Y-104661252D01*
X117315000Y-104138748D02*
X117315000Y-104661252D01*
%TO.C,C4*%
X131390000Y-116990580D02*
X131390000Y-116709420D01*
X132410000Y-116990580D02*
X132410000Y-116709420D01*
D13*
%TO.C,U7*%
X123435000Y-84565000D02*
X123435000Y-79285000D01*
X128715000Y-84565000D02*
X128715000Y-79285000D01*
D14*
X124270000Y-87140000D02*
G75*
G02*
X124070000Y-87140000I-100000J0D01*
G01*
X124070000Y-87140000D02*
G75*
G02*
X124270000Y-87140000I100000J0D01*
G01*
D13*
%TO.C,LS1*%
X115635000Y-68925000D02*
X117635000Y-68925000D01*
X116635000Y-67925000D02*
X116635000Y-69925000D01*
X134045000Y-68925000D02*
X136045000Y-68925000D01*
X133075000Y-68925000D02*
G75*
G02*
X119175000Y-68925000I-6950000J0D01*
G01*
X119175000Y-68925000D02*
G75*
G02*
X133075000Y-68925000I6950000J0D01*
G01*
D15*
%TO.C,G\u002A\u002A\u002A*%
G36*
X127730409Y-105748473D02*
G01*
X127791660Y-105819682D01*
X127928748Y-106099908D01*
X127969660Y-106396923D01*
X127909346Y-106648049D01*
X127863640Y-106713226D01*
X127644729Y-106872096D01*
X127423736Y-106865105D01*
X127198687Y-106691256D01*
X126967609Y-106349553D01*
X126904138Y-106228802D01*
X126726176Y-105874764D01*
X127201307Y-105768434D01*
X127474937Y-105712973D01*
X127634677Y-105704875D01*
X127730409Y-105748473D01*
G37*
G36*
X129274398Y-105264444D02*
G01*
X129356816Y-105418309D01*
X129384644Y-105717986D01*
X129385311Y-105756180D01*
X129380582Y-106001117D01*
X129341617Y-106124498D01*
X129244147Y-106173807D01*
X129165880Y-106185524D01*
X128981745Y-106164880D01*
X128812175Y-106033645D01*
X128721380Y-105923532D01*
X128585065Y-105725557D01*
X128508071Y-105576384D01*
X128501704Y-105546874D01*
X128573236Y-105464793D01*
X128753718Y-105361015D01*
X128852955Y-105317683D01*
X129114181Y-105237275D01*
X129274398Y-105264444D01*
G37*
G36*
X128785891Y-82716151D02*
G01*
X128974057Y-82825748D01*
X129239503Y-82997172D01*
X129481381Y-83162326D01*
X129830979Y-83416329D01*
X130038840Y-83592484D01*
X130110719Y-83696127D01*
X130089375Y-83726367D01*
X129938768Y-83745412D01*
X129687400Y-83740920D01*
X129381593Y-83718056D01*
X129067669Y-83681986D01*
X128791950Y-83637878D01*
X128600757Y-83590898D01*
X128539463Y-83553507D01*
X128543511Y-83424096D01*
X128575207Y-83198596D01*
X128593724Y-83097314D01*
X128645571Y-82864510D01*
X128691483Y-82712288D01*
X128705144Y-82686845D01*
X128785891Y-82716151D01*
G37*
G36*
X125493826Y-71266346D02*
G01*
X125713628Y-71315426D01*
X126036280Y-71397386D01*
X126432230Y-71503954D01*
X126571183Y-71542794D01*
X126871922Y-71626855D01*
X127325802Y-71757816D01*
X127764317Y-71888564D01*
X128082521Y-71987406D01*
X128157913Y-72010824D01*
X128477035Y-72116324D01*
X128501704Y-72124928D01*
X129865938Y-72623406D01*
X131276998Y-73175636D01*
X132664986Y-73753359D01*
X133960002Y-74328316D01*
X134018345Y-74355231D01*
X134581986Y-74615732D01*
X134795514Y-75274619D01*
X134949036Y-75773756D01*
X135061879Y-76214592D01*
X135141530Y-76644836D01*
X135195476Y-77112199D01*
X135231204Y-77664392D01*
X135251002Y-78177173D01*
X135241998Y-79401994D01*
X135135739Y-80658389D01*
X134928930Y-81959162D01*
X134618276Y-83317113D01*
X134200481Y-84745046D01*
X133672249Y-86255761D01*
X133030285Y-87862060D01*
X132373993Y-89353173D01*
X132125700Y-89914337D01*
X131872544Y-90517693D01*
X131635836Y-91110324D01*
X131436886Y-91639310D01*
X131334094Y-91935507D01*
X130871207Y-93606748D01*
X130561613Y-95337364D01*
X130404259Y-97117076D01*
X130398094Y-98935603D01*
X130542065Y-100782668D01*
X130835122Y-102647990D01*
X131276212Y-104521290D01*
X131864283Y-106392289D01*
X132598284Y-108250708D01*
X133118731Y-109376840D01*
X133345556Y-109836879D01*
X133565804Y-110275643D01*
X133760740Y-110656369D01*
X133911631Y-110942295D01*
X133970843Y-111048925D01*
X134087998Y-111281078D01*
X134144832Y-111454411D01*
X134138938Y-111514592D01*
X134048955Y-111495354D01*
X133830970Y-111406963D01*
X133506647Y-111259471D01*
X133097650Y-111062929D01*
X132625644Y-110827391D01*
X132314387Y-110668007D01*
X131814409Y-110410663D01*
X131365139Y-110181532D01*
X130988177Y-109991455D01*
X130705119Y-109851277D01*
X130537565Y-109771839D01*
X130501346Y-109757840D01*
X130486750Y-109838644D01*
X130473722Y-110065613D01*
X130462861Y-110415581D01*
X130454765Y-110865381D01*
X130450031Y-111391849D01*
X130449037Y-111784843D01*
X130445863Y-112381863D01*
X130436877Y-112906030D01*
X130422886Y-113336072D01*
X130404693Y-113650720D01*
X130383106Y-113828699D01*
X130370441Y-113860421D01*
X130286706Y-113815402D01*
X130103807Y-113646107D01*
X129828760Y-113360165D01*
X129468585Y-112965205D01*
X129030300Y-112468857D01*
X128520923Y-111878751D01*
X128193110Y-111493507D01*
X127681517Y-110866260D01*
X127113294Y-110129624D01*
X126511628Y-109316685D01*
X125899705Y-108460529D01*
X125300709Y-107594240D01*
X124737827Y-106750904D01*
X124234243Y-105963608D01*
X123840801Y-105311291D01*
X126046371Y-105311291D01*
X126046371Y-105618920D01*
X126076487Y-105907306D01*
X126150575Y-106219126D01*
X126166698Y-106267594D01*
X126410432Y-106800558D01*
X126713524Y-107200215D01*
X127064583Y-107455531D01*
X127452222Y-107555472D01*
X127497102Y-107556507D01*
X127793144Y-107509090D01*
X128111756Y-107386694D01*
X128394507Y-107219095D01*
X128582968Y-107036071D01*
X128609278Y-106989708D01*
X128718869Y-106840969D01*
X128871391Y-106833755D01*
X128877701Y-106835605D01*
X129350040Y-106930088D01*
X129737278Y-106898164D01*
X129936734Y-106820107D01*
X130181533Y-106627082D01*
X130304145Y-106360490D01*
X130304525Y-106009536D01*
X130182631Y-105563428D01*
X129938420Y-105011375D01*
X129929458Y-104993567D01*
X129765782Y-104714353D01*
X129602805Y-104510600D01*
X129497959Y-104433105D01*
X129317625Y-104423585D01*
X128998997Y-104479978D01*
X128534915Y-104603674D01*
X128379318Y-104650136D01*
X127912962Y-104789632D01*
X127417936Y-104933923D01*
X126967160Y-105061912D01*
X126744871Y-105123021D01*
X126046371Y-105311291D01*
X123840801Y-105311291D01*
X123813144Y-105265436D01*
X123743190Y-105143507D01*
X122989724Y-103728223D01*
X122662781Y-103017609D01*
X124866668Y-103017609D01*
X124895865Y-103362090D01*
X124981046Y-103623324D01*
X124999256Y-103652163D01*
X125272945Y-103900315D01*
X125679513Y-104067964D01*
X126201732Y-104152981D01*
X126822375Y-104153234D01*
X127524215Y-104066594D01*
X127840467Y-104003470D01*
X128379579Y-103867823D01*
X128767291Y-103729884D01*
X129021433Y-103581346D01*
X129159831Y-103413899D01*
X129173401Y-103382240D01*
X129205742Y-103137128D01*
X129098880Y-102970790D01*
X128866874Y-102889994D01*
X128523781Y-102901505D01*
X128281073Y-102952709D01*
X128016740Y-103009566D01*
X127643110Y-103073443D01*
X127219401Y-103134725D01*
X126965978Y-103166225D01*
X126557953Y-103210545D01*
X126279955Y-103230317D01*
X126094270Y-103224169D01*
X125963185Y-103190733D01*
X125848987Y-103128638D01*
X125844145Y-103125478D01*
X125687108Y-102976653D01*
X125623037Y-102826344D01*
X125641213Y-102710126D01*
X125707028Y-102605554D01*
X125837416Y-102505640D01*
X126049309Y-102403398D01*
X126359642Y-102291841D01*
X126785347Y-102163982D01*
X127343357Y-102012834D01*
X128008760Y-101841987D01*
X128436630Y-101703813D01*
X128702243Y-101544411D01*
X128811906Y-101358716D01*
X128798424Y-101207724D01*
X128722033Y-101062971D01*
X128590253Y-100971821D01*
X128386222Y-100935525D01*
X128093079Y-100955335D01*
X127693962Y-101032502D01*
X127172009Y-101168277D01*
X126510359Y-101363911D01*
X126451972Y-101381851D01*
X125887955Y-101582151D01*
X125471317Y-101795382D01*
X125180108Y-102035913D01*
X124992380Y-102318110D01*
X124980129Y-102345309D01*
X124894432Y-102656483D01*
X124866668Y-103017609D01*
X122662781Y-103017609D01*
X122352310Y-102342795D01*
X121836543Y-101002259D01*
X121448014Y-99721651D01*
X121291502Y-98983669D01*
X123686255Y-98983669D01*
X123693792Y-99331406D01*
X123770141Y-99820544D01*
X123874588Y-100291443D01*
X124017375Y-100819501D01*
X124155426Y-101193030D01*
X124296152Y-101426398D01*
X124446966Y-101533973D01*
X124521344Y-101545173D01*
X124693782Y-101498892D01*
X124790620Y-101349764D01*
X124814752Y-101082360D01*
X124769069Y-100681252D01*
X124726298Y-100451994D01*
X124664543Y-100105820D01*
X124627439Y-99813677D01*
X124620261Y-99621762D01*
X124627086Y-99583050D01*
X124689900Y-99519772D01*
X124839883Y-99471683D01*
X125102858Y-99433769D01*
X125504648Y-99401017D01*
X125594593Y-99395228D01*
X126321856Y-99333166D01*
X126965439Y-99245230D01*
X127508156Y-99135610D01*
X127932818Y-99008494D01*
X128222239Y-98868071D01*
X128358057Y-98721691D01*
X128346789Y-98542547D01*
X128216794Y-98364882D01*
X128011177Y-98240020D01*
X127936354Y-98219580D01*
X127756808Y-98212019D01*
X127457106Y-98226905D01*
X127084481Y-98261112D01*
X126812081Y-98294008D01*
X126343428Y-98354922D01*
X125787091Y-98425118D01*
X125223609Y-98494522D01*
X124867455Y-98537306D01*
X124403891Y-98600211D01*
X124047079Y-98665117D01*
X123819553Y-98727344D01*
X123746918Y-98770042D01*
X123686255Y-98983669D01*
X121291502Y-98983669D01*
X121192319Y-98516007D01*
X121138697Y-98142377D01*
X121099172Y-97684739D01*
X121075841Y-97092469D01*
X121071427Y-96645492D01*
X123079076Y-96645492D01*
X123119980Y-97087382D01*
X123196922Y-97335726D01*
X123371365Y-97637329D01*
X123597814Y-97796359D01*
X123843105Y-97838332D01*
X124085042Y-97818638D01*
X124214205Y-97724848D01*
X124244473Y-97530743D01*
X124189729Y-97210104D01*
X124185378Y-97191819D01*
X124126419Y-96911592D01*
X124119687Y-96731656D01*
X124167849Y-96590386D01*
X124214768Y-96512824D01*
X124460735Y-96272598D01*
X124826912Y-96079898D01*
X125268554Y-95943993D01*
X125740916Y-95874156D01*
X126199251Y-95879658D01*
X126598814Y-95969770D01*
X126676324Y-96002786D01*
X126971497Y-96197789D01*
X127107309Y-96422493D01*
X127079604Y-96668115D01*
X127032048Y-96755059D01*
X126928058Y-96986354D01*
X126893037Y-97181861D01*
X126914800Y-97327150D01*
X127013456Y-97386470D01*
X127188035Y-97396507D01*
X127529244Y-97320141D01*
X127756808Y-97153237D01*
X127808339Y-97115442D01*
X128001564Y-96819010D01*
X128085164Y-96467443D01*
X128035382Y-96097341D01*
X128033976Y-96093219D01*
X127846107Y-95719540D01*
X127560046Y-95433708D01*
X127157617Y-95224670D01*
X126620644Y-95081368D01*
X126285173Y-95029534D01*
X125607110Y-94990785D01*
X124957788Y-95041892D01*
X124365731Y-95174970D01*
X123859464Y-95382130D01*
X123467509Y-95655486D01*
X123292938Y-95856919D01*
X123138167Y-96213170D01*
X123079076Y-96645492D01*
X121071427Y-96645492D01*
X121068998Y-96399519D01*
X121078939Y-95639844D01*
X121105959Y-94847396D01*
X121109415Y-94771840D01*
X121146676Y-94191121D01*
X121207498Y-93492580D01*
X121286398Y-92725221D01*
X121377893Y-91938044D01*
X121420799Y-91608221D01*
X123252371Y-91608221D01*
X123313755Y-91879033D01*
X123440543Y-92015372D01*
X123646089Y-92100185D01*
X123919509Y-92145049D01*
X123986506Y-92147173D01*
X124246455Y-92118071D01*
X124610648Y-92040696D01*
X125026220Y-91929941D01*
X125440306Y-91800701D01*
X125607110Y-91739109D01*
X125800040Y-91667871D01*
X125984279Y-91584310D01*
X126095792Y-91534673D01*
X126196236Y-91527292D01*
X126317553Y-91577761D01*
X126491686Y-91701671D01*
X126750579Y-91914616D01*
X126873279Y-92018274D01*
X127311770Y-92357980D01*
X127685244Y-92583681D01*
X127983413Y-92692615D01*
X128195984Y-92682017D01*
X128312668Y-92549123D01*
X128332371Y-92410137D01*
X128315108Y-92256812D01*
X128251725Y-92092616D01*
X128124831Y-91890068D01*
X127917033Y-91621680D01*
X127610942Y-91259970D01*
X127587279Y-91232631D01*
X127125035Y-90699089D01*
X127580536Y-90762560D01*
X128201809Y-90823379D01*
X128386222Y-90821360D01*
X128703569Y-90817885D01*
X129071263Y-90746813D01*
X129210636Y-90680326D01*
X129317625Y-90578311D01*
X129436606Y-90464862D01*
X129543024Y-90217929D01*
X129524425Y-89980608D01*
X129375344Y-89793984D01*
X129332028Y-89767760D01*
X129189924Y-89727267D01*
X128915437Y-89677812D01*
X128544893Y-89624992D01*
X128114615Y-89574401D01*
X127999901Y-89562550D01*
X127275639Y-89471470D01*
X126664538Y-89347673D01*
X126111212Y-89174712D01*
X125560272Y-88936141D01*
X125122267Y-88708085D01*
X124689997Y-88503680D01*
X124343709Y-88408511D01*
X124095120Y-88422804D01*
X123955946Y-88546785D01*
X123929704Y-88685041D01*
X124006688Y-88997021D01*
X124218031Y-89322719D01*
X124534319Y-89632814D01*
X124926136Y-89897988D01*
X125325334Y-90076156D01*
X125620935Y-90196514D01*
X125767663Y-90310173D01*
X125792371Y-90385093D01*
X125789329Y-90447064D01*
X125764379Y-90496107D01*
X125693783Y-90540008D01*
X125553802Y-90586552D01*
X125320700Y-90643526D01*
X124970737Y-90718714D01*
X124480177Y-90819902D01*
X124444089Y-90827312D01*
X123971341Y-90932004D01*
X123641482Y-91030054D01*
X123429632Y-91137765D01*
X123310908Y-91271443D01*
X123260428Y-91447391D01*
X123252371Y-91608221D01*
X121420799Y-91608221D01*
X121476498Y-91180054D01*
X121576731Y-90500251D01*
X121610534Y-90293696D01*
X121765731Y-89444833D01*
X121953108Y-88552704D01*
X122178080Y-87595599D01*
X122333625Y-86989755D01*
X124461920Y-86989755D01*
X124599401Y-87373566D01*
X124604728Y-87382401D01*
X124824085Y-87622358D01*
X125085794Y-87721666D01*
X125354951Y-87667328D01*
X125361152Y-87664060D01*
X125485915Y-87546852D01*
X125534977Y-87341042D01*
X125538371Y-87229679D01*
X125610205Y-86882438D01*
X125807586Y-86621666D01*
X126103334Y-86477490D01*
X126233022Y-86459687D01*
X126818947Y-86472093D01*
X127414550Y-86561678D01*
X127982195Y-86716408D01*
X128484246Y-86924244D01*
X128883066Y-87173151D01*
X129086018Y-87372118D01*
X129218079Y-87556899D01*
X129246598Y-87690919D01*
X129167905Y-87840144D01*
X129052037Y-87983066D01*
X128879296Y-88268930D01*
X128860168Y-88511370D01*
X128985198Y-88688609D01*
X129244933Y-88778870D01*
X129400341Y-88785393D01*
X129796060Y-88699752D01*
X130103131Y-88480023D01*
X130305651Y-88145031D01*
X130387716Y-87713600D01*
X130388244Y-87616031D01*
X130311174Y-87112785D01*
X130099682Y-86671708D01*
X129745600Y-86283908D01*
X129240762Y-85940490D01*
X128577001Y-85632562D01*
X128561245Y-85626390D01*
X127808683Y-85393074D01*
X127058090Y-85273688D01*
X126340992Y-85268839D01*
X125688917Y-85379136D01*
X125213187Y-85561882D01*
X124855601Y-85826719D01*
X124602724Y-86178318D01*
X124467262Y-86578668D01*
X124461920Y-86989755D01*
X122333625Y-86989755D01*
X122446064Y-86551807D01*
X122762475Y-85399619D01*
X123132726Y-84117324D01*
X123249510Y-83722840D01*
X123389602Y-83245765D01*
X125451434Y-83245765D01*
X125523597Y-83504033D01*
X125665478Y-83734091D01*
X125693775Y-83764269D01*
X125884426Y-83914324D01*
X126148917Y-84047059D01*
X126340992Y-84112366D01*
X126509319Y-84169598D01*
X126987703Y-84289062D01*
X127606140Y-84412576D01*
X127824371Y-84451853D01*
X128523882Y-84554203D01*
X129212889Y-84616118D01*
X129860252Y-84637485D01*
X130434832Y-84618186D01*
X130905488Y-84558106D01*
X131224963Y-84464503D01*
X131546661Y-84288779D01*
X131715236Y-84100218D01*
X131746070Y-83869262D01*
X131671241Y-83606875D01*
X131591752Y-83442019D01*
X131481109Y-83292632D01*
X131317444Y-83142638D01*
X131078889Y-82975960D01*
X130743576Y-82776524D01*
X130289637Y-82528252D01*
X129983371Y-82366056D01*
X129530218Y-82125029D01*
X128998111Y-81837902D01*
X128455550Y-81541833D01*
X128000852Y-81290604D01*
X127487441Y-81015163D01*
X127092065Y-80830583D01*
X126793665Y-80731146D01*
X126571183Y-80711136D01*
X126403561Y-80764839D01*
X126317042Y-80833549D01*
X126233644Y-80936125D01*
X126227827Y-81042807D01*
X126303123Y-81215063D01*
X126343322Y-81291079D01*
X126521726Y-81528838D01*
X126780301Y-81767257D01*
X126910945Y-81860173D01*
X127309853Y-82114173D01*
X127259557Y-82622173D01*
X127230344Y-82894018D01*
X127205303Y-83086605D01*
X127192041Y-83151559D01*
X127109936Y-83137431D01*
X126912929Y-83079392D01*
X126674096Y-83000326D01*
X126225423Y-82871462D01*
X125858948Y-82818274D01*
X125602991Y-82844102D01*
X125551674Y-82867952D01*
X125457842Y-83015126D01*
X125451434Y-83245765D01*
X123389602Y-83245765D01*
X123706872Y-82165317D01*
X124107690Y-80754631D01*
X124343709Y-79885573D01*
X124454179Y-79478806D01*
X124610766Y-78865524D01*
X126658814Y-78865524D01*
X126669846Y-79130103D01*
X126761710Y-79354138D01*
X126924852Y-79577653D01*
X127100330Y-79732855D01*
X127277094Y-79818588D01*
X127589345Y-79939210D01*
X128009014Y-80085760D01*
X128508032Y-80249274D01*
X129058327Y-80420793D01*
X129631831Y-80591353D01*
X130200475Y-80751994D01*
X130736187Y-80893753D01*
X130737736Y-80894146D01*
X131179624Y-81002485D01*
X131492553Y-81067785D01*
X131710188Y-81094204D01*
X131866191Y-81085905D01*
X131989805Y-81048894D01*
X132191527Y-80928442D01*
X132314940Y-80795794D01*
X132395002Y-80525384D01*
X132333359Y-80265067D01*
X132123598Y-80007239D01*
X131759305Y-79744293D01*
X131234067Y-79468626D01*
X131171156Y-79439476D01*
X130838417Y-79279418D01*
X130572401Y-79137323D01*
X130405341Y-79031289D01*
X130364371Y-78986457D01*
X130393111Y-78867847D01*
X130467565Y-78645736D01*
X130547299Y-78431763D01*
X130730226Y-77960006D01*
X131499799Y-77960419D01*
X132102544Y-77922974D01*
X132563183Y-77810964D01*
X132877738Y-77625955D01*
X133042231Y-77369515D01*
X133047573Y-77350643D01*
X133082109Y-77028033D01*
X132984846Y-76785024D01*
X132745115Y-76608796D01*
X132352246Y-76486534D01*
X132323402Y-76480601D01*
X131874824Y-76383662D01*
X131351502Y-76259986D01*
X130799856Y-76121586D01*
X130266301Y-75980473D01*
X129797256Y-75848658D01*
X129439138Y-75738155D01*
X129390704Y-75721685D01*
X128832600Y-75544647D01*
X128403001Y-75450101D01*
X128082521Y-75438071D01*
X127851771Y-75508577D01*
X127691364Y-75661644D01*
X127654048Y-75723690D01*
X127609942Y-75865773D01*
X127640421Y-76037273D01*
X127754733Y-76292703D01*
X127876757Y-76500877D01*
X128027859Y-76669948D01*
X128247971Y-76834971D01*
X128577025Y-77031001D01*
X128628704Y-77059931D01*
X128929165Y-77228312D01*
X129168211Y-77364015D01*
X129311126Y-77447247D01*
X129335642Y-77462964D01*
X129330463Y-77556267D01*
X129272710Y-77765453D01*
X129175442Y-78050309D01*
X129051717Y-78370624D01*
X129002898Y-78487614D01*
X128852440Y-78840389D01*
X128109861Y-78678114D01*
X127648926Y-78583360D01*
X127319413Y-78533535D01*
X127089630Y-78528104D01*
X126927883Y-78566535D01*
X126802479Y-78648294D01*
X126793871Y-78655962D01*
X126658814Y-78865524D01*
X124610766Y-78865524D01*
X124748555Y-78325867D01*
X124993034Y-77283840D01*
X125189832Y-76340750D01*
X125341164Y-75484622D01*
X125449246Y-74703480D01*
X125516295Y-73985351D01*
X125544525Y-73318258D01*
X125536153Y-72690228D01*
X125493394Y-72089285D01*
X125458476Y-71784840D01*
X125425935Y-71514195D01*
X125407496Y-71322880D01*
X125406429Y-71258420D01*
X125493826Y-71266346D01*
G37*
D11*
%TO.C,C6*%
X127140000Y-92559420D02*
X127140000Y-92840580D01*
X128160000Y-92559420D02*
X128160000Y-92840580D01*
D13*
%TO.C,VR1*%
X112885000Y-113300000D02*
X112885000Y-111700000D01*
X116015000Y-113300000D02*
X116015000Y-111700000D01*
D14*
X113350000Y-115000000D02*
G75*
G02*
X113150000Y-115000000I-100000J0D01*
G01*
X113150000Y-115000000D02*
G75*
G02*
X113350000Y-115000000I100000J0D01*
G01*
D11*
%TO.C,C3*%
X121540000Y-103834420D02*
X121540000Y-104115580D01*
X122560000Y-103834420D02*
X122560000Y-104115580D01*
%TO.C,J4*%
X124745000Y-90280000D02*
X124745000Y-100660000D01*
X122095000Y-92930000D02*
X122095000Y-90280000D01*
X122095000Y-90280000D02*
X124745000Y-90280000D01*
X119445000Y-100660000D02*
X124745000Y-100660000D01*
X119445000Y-92930000D02*
X122095000Y-92930000D01*
X119445000Y-92930000D02*
X119445000Y-100660000D01*
X119445000Y-91660000D02*
X119445000Y-90280000D01*
X119445000Y-90280000D02*
X120825000Y-90280000D01*
D13*
%TO.C,J2*%
X121950000Y-126125000D02*
X121950000Y-125725000D01*
X121950000Y-128125000D02*
X121950000Y-128575000D01*
X123650000Y-124275000D02*
X123850000Y-124275000D01*
X127550000Y-124275000D02*
X127750000Y-124275000D01*
X129450000Y-126125000D02*
X129450000Y-125725000D01*
X129450000Y-128125000D02*
X129450000Y-128575000D01*
D14*
X124505000Y-123225000D02*
G75*
G02*
X124305000Y-123225000I-100000J0D01*
G01*
X124305000Y-123225000D02*
G75*
G02*
X124505000Y-123225000I100000J0D01*
G01*
D11*
%TO.C,C1*%
X114186252Y-97865000D02*
X113663748Y-97865000D01*
X114186252Y-99335000D02*
X113663748Y-99335000D01*
D13*
%TO.C,U4*%
X112060000Y-104820000D02*
X115060000Y-104820000D01*
X112060000Y-107230000D02*
X115060000Y-107230000D01*
D14*
X111185000Y-105275000D02*
G75*
G02*
X110985000Y-105275000I-100000J0D01*
G01*
X110985000Y-105275000D02*
G75*
G02*
X111185000Y-105275000I100000J0D01*
G01*
D13*
%TO.C,U1*%
X99960000Y-65180000D02*
X99960000Y-93120000D01*
X99960000Y-93120000D02*
X117740000Y-93120000D01*
X117740000Y-65180000D02*
X99960000Y-65180000D01*
X117740000Y-93120000D02*
X117740000Y-65180000D01*
D11*
%TO.C,C13*%
X117134420Y-100140000D02*
X117415580Y-100140000D01*
X117134420Y-101160000D02*
X117415580Y-101160000D01*
%TO.C,U2*%
X126240000Y-104140000D02*
X126540000Y-104140000D01*
X126240000Y-104440000D02*
X126240000Y-104140000D01*
X126240000Y-111060000D02*
X126240000Y-111360000D01*
X126240000Y-111360000D02*
X126540000Y-111360000D01*
X133460000Y-104140000D02*
X133160000Y-104140000D01*
X133460000Y-104440000D02*
X133460000Y-104140000D01*
X133460000Y-111060000D02*
X133460000Y-111360000D01*
X133460000Y-111360000D02*
X133160000Y-111360000D01*
X133630000Y-103877500D02*
X133160000Y-103537500D01*
X133630000Y-103197500D01*
X133630000Y-103877500D01*
G36*
X133630000Y-103877500D02*
G01*
X133160000Y-103537500D01*
X133630000Y-103197500D01*
X133630000Y-103877500D01*
G37*
%TO.C,R6*%
X118377500Y-108687258D02*
X118377500Y-108212742D01*
X119422500Y-108687258D02*
X119422500Y-108212742D01*
%TO.C,C14*%
X118915580Y-115485000D02*
X118634420Y-115485000D01*
X118915580Y-114465000D02*
X118634420Y-114465000D01*
%TO.C,Q1*%
X134312500Y-74740000D02*
X133662500Y-74740000D01*
X134312500Y-74740000D02*
X134962500Y-74740000D01*
X134312500Y-77860000D02*
X133662500Y-77860000D01*
X134312500Y-77860000D02*
X134962500Y-77860000D01*
X135715000Y-78140000D02*
X135235000Y-78140000D01*
X135475000Y-77810000D01*
X135715000Y-78140000D01*
G36*
X135715000Y-78140000D02*
G01*
X135235000Y-78140000D01*
X135475000Y-77810000D01*
X135715000Y-78140000D01*
G37*
%TO.C,C12*%
X114284420Y-92740000D02*
X114565580Y-92740000D01*
X114284420Y-93760000D02*
X114565580Y-93760000D01*
%TO.C,C16*%
X124884420Y-115410000D02*
X125165580Y-115410000D01*
X124884420Y-114390000D02*
X125165580Y-114390000D01*
%TO.C,R3*%
X112412742Y-100877500D02*
X112887258Y-100877500D01*
X112412742Y-101922500D02*
X112887258Y-101922500D01*
%TO.C,R2*%
X128862742Y-116477500D02*
X129337258Y-116477500D01*
X128862742Y-117522500D02*
X129337258Y-117522500D01*
%TO.C,R4*%
X131002500Y-88612742D02*
X131002500Y-89087258D01*
X132047500Y-88612742D02*
X132047500Y-89087258D01*
D13*
%TO.C,J1*%
X112850000Y-122800000D02*
X120250000Y-122800000D01*
X112850000Y-128550000D02*
X112850000Y-122800000D01*
X120250000Y-122800000D02*
X120250000Y-128550000D01*
X120250000Y-128550000D02*
X112850000Y-128550000D01*
D14*
X112210000Y-125150000D02*
G75*
G02*
X112010000Y-125150000I-100000J0D01*
G01*
X112010000Y-125150000D02*
G75*
G02*
X112210000Y-125150000I100000J0D01*
G01*
%TD*%
M02*
