%TF.GenerationSoftware,KiCad,Pcbnew,9.0.3*%
%TF.CreationDate,2026-02-21T18:13:17-03:00*%
%TF.ProjectId,Boros Rocket - Plate,426f726f-7320-4526-9f63-6b6574202d20,rev?*%
%TF.SameCoordinates,Original*%
%TF.FileFunction,Copper,L1,Top*%
%TF.FilePolarity,Positive*%
%FSLAX46Y46*%
G04 Gerber Fmt 4.6, Leading zero omitted, Abs format (unit mm)*
G04 Created by KiCad (PCBNEW 9.0.3) date 2026-02-21 18:13:17*
%MOMM*%
%LPD*%
G01*
G04 APERTURE LIST*
G04 Aperture macros list*
%AMRoundRect*
0 Rectangle with rounded corners*
0 $1 Rounding radius*
0 $2 $3 $4 $5 $6 $7 $8 $9 X,Y pos of 4 corners*
0 Add a 4 corners polygon primitive as box body*
4,1,4,$2,$3,$4,$5,$6,$7,$8,$9,$2,$3,0*
0 Add four circle primitives for the rounded corners*
1,1,$1+$1,$2,$3*
1,1,$1+$1,$4,$5*
1,1,$1+$1,$6,$7*
1,1,$1+$1,$8,$9*
0 Add four rect primitives between the rounded corners*
20,1,$1+$1,$2,$3,$4,$5,0*
20,1,$1+$1,$4,$5,$6,$7,0*
20,1,$1+$1,$6,$7,$8,$9,0*
20,1,$1+$1,$8,$9,$2,$3,0*%
G04 Aperture macros list end*
%TA.AperFunction,SMDPad,CuDef*%
%ADD10RoundRect,0.087500X-0.207500X-0.087500X0.207500X-0.087500X0.207500X0.087500X-0.207500X0.087500X0*%
%TD*%
%TA.AperFunction,SMDPad,CuDef*%
%ADD11RoundRect,0.087500X-0.087500X-0.207500X0.087500X-0.207500X0.087500X0.207500X-0.087500X0.207500X0*%
%TD*%
%TA.AperFunction,SMDPad,CuDef*%
%ADD12RoundRect,0.200000X0.200000X0.275000X-0.200000X0.275000X-0.200000X-0.275000X0.200000X-0.275000X0*%
%TD*%
%TA.AperFunction,SMDPad,CuDef*%
%ADD13RoundRect,0.225000X-0.225000X-0.250000X0.225000X-0.250000X0.225000X0.250000X-0.225000X0.250000X0*%
%TD*%
%TA.AperFunction,SMDPad,CuDef*%
%ADD14RoundRect,0.225000X-0.250000X0.225000X-0.250000X-0.225000X0.250000X-0.225000X0.250000X0.225000X0*%
%TD*%
%TA.AperFunction,SMDPad,CuDef*%
%ADD15RoundRect,0.073750X0.531250X0.221250X-0.531250X0.221250X-0.531250X-0.221250X0.531250X-0.221250X0*%
%TD*%
%TA.AperFunction,SMDPad,CuDef*%
%ADD16RoundRect,0.250000X-0.475000X0.250000X-0.475000X-0.250000X0.475000X-0.250000X0.475000X0.250000X0*%
%TD*%
%TA.AperFunction,SMDPad,CuDef*%
%ADD17RoundRect,0.225000X0.250000X-0.225000X0.250000X0.225000X-0.250000X0.225000X-0.250000X-0.225000X0*%
%TD*%
%TA.AperFunction,SMDPad,CuDef*%
%ADD18RoundRect,0.072500X0.217500X-0.732500X0.217500X0.732500X-0.217500X0.732500X-0.217500X-0.732500X0*%
%TD*%
%TA.AperFunction,ComponentPad*%
%ADD19C,2.500000*%
%TD*%
%TA.AperFunction,ComponentPad*%
%ADD20R,2.500000X2.500000*%
%TD*%
%TA.AperFunction,SMDPad,CuDef*%
%ADD21RoundRect,0.073750X0.221250X-0.551250X0.221250X0.551250X-0.221250X0.551250X-0.221250X-0.551250X0*%
%TD*%
%TA.AperFunction,ComponentPad*%
%ADD22R,1.700000X1.700000*%
%TD*%
%TA.AperFunction,ComponentPad*%
%ADD23C,1.700000*%
%TD*%
%TA.AperFunction,ComponentPad*%
%ADD24C,1.400000*%
%TD*%
%TA.AperFunction,SMDPad,CuDef*%
%ADD25R,0.400000X1.350000*%
%TD*%
%TA.AperFunction,SMDPad,CuDef*%
%ADD26R,1.600000X1.400000*%
%TD*%
%TA.AperFunction,SMDPad,CuDef*%
%ADD27R,1.450000X1.300000*%
%TD*%
%TA.AperFunction,SMDPad,CuDef*%
%ADD28R,1.900000X1.900000*%
%TD*%
%TA.AperFunction,SMDPad,CuDef*%
%ADD29RoundRect,0.250000X0.250000X0.475000X-0.250000X0.475000X-0.250000X-0.475000X0.250000X-0.475000X0*%
%TD*%
%TA.AperFunction,SMDPad,CuDef*%
%ADD30RoundRect,0.033750X-0.386250X-0.101250X0.386250X-0.101250X0.386250X0.101250X-0.386250X0.101250X0*%
%TD*%
%TA.AperFunction,SMDPad,CuDef*%
%ADD31R,1.630000X1.430000*%
%TD*%
%TA.AperFunction,ComponentPad*%
%ADD32C,1.778000*%
%TD*%
%TA.AperFunction,SMDPad,CuDef*%
%ADD33RoundRect,0.125000X-0.125000X0.625000X-0.125000X-0.625000X0.125000X-0.625000X0.125000X0.625000X0*%
%TD*%
%TA.AperFunction,SMDPad,CuDef*%
%ADD34RoundRect,0.125000X-0.625000X0.125000X-0.625000X-0.125000X0.625000X-0.125000X0.625000X0.125000X0*%
%TD*%
%TA.AperFunction,SMDPad,CuDef*%
%ADD35RoundRect,0.200000X0.275000X-0.200000X0.275000X0.200000X-0.275000X0.200000X-0.275000X-0.200000X0*%
%TD*%
%TA.AperFunction,SMDPad,CuDef*%
%ADD36RoundRect,0.225000X0.225000X0.250000X-0.225000X0.250000X-0.225000X-0.250000X0.225000X-0.250000X0*%
%TD*%
%TA.AperFunction,SMDPad,CuDef*%
%ADD37RoundRect,0.150000X0.587500X0.150000X-0.587500X0.150000X-0.587500X-0.150000X0.587500X-0.150000X0*%
%TD*%
%TA.AperFunction,SMDPad,CuDef*%
%ADD38RoundRect,0.200000X-0.200000X-0.275000X0.200000X-0.275000X0.200000X0.275000X-0.200000X0.275000X0*%
%TD*%
%TA.AperFunction,SMDPad,CuDef*%
%ADD39RoundRect,0.200000X-0.275000X0.200000X-0.275000X-0.200000X0.275000X-0.200000X0.275000X0.200000X0*%
%TD*%
%TA.AperFunction,ComponentPad*%
%ADD40R,1.575000X1.575000*%
%TD*%
%TA.AperFunction,ComponentPad*%
%ADD41C,1.575000*%
%TD*%
%TA.AperFunction,ViaPad*%
%ADD42C,0.600000*%
%TD*%
%TA.AperFunction,Conductor*%
%ADD43C,0.200000*%
%TD*%
G04 APERTURE END LIST*
D10*
%TO.P,U3,1,AP_SDO/AP_AD0*%
%TO.N,SPI_MISO*%
X130195000Y-97875000D03*
%TO.P,U3,2,RESV_2*%
%TO.N,unconnected-(U3-RESV_2-Pad2)*%
X130195000Y-98375000D03*
%TO.P,U3,3,RESV_3*%
%TO.N,unconnected-(U3-RESV_3-Pad3)*%
X130195000Y-98875000D03*
%TO.P,U3,4,INT1/INT*%
%TO.N,IMU_INT1*%
X130195000Y-99375000D03*
D11*
%TO.P,U3,5,VDDIO*%
%TO.N,3V3*%
X130860000Y-99540000D03*
%TO.P,U3,6,GND*%
%TO.N,GND*%
X131360000Y-99540000D03*
%TO.P,U3,7,RESV_7*%
%TO.N,unconnected-(U3-RESV_7-Pad7)*%
X131860000Y-99540000D03*
D10*
%TO.P,U3,8,VDD*%
%TO.N,3V3*%
X132525000Y-99375000D03*
%TO.P,U3,9,INT2/FSYNC/CLKIN*%
%TO.N,IMU_INT2*%
X132525000Y-98875000D03*
%TO.P,U3,10,RESV_10*%
%TO.N,unconnected-(U3-RESV_10-Pad10)*%
X132525000Y-98375000D03*
%TO.P,U3,11,RESV_11*%
%TO.N,unconnected-(U3-RESV_11-Pad11)*%
X132525000Y-97875000D03*
D11*
%TO.P,U3,12,AP_CS*%
%TO.N,IMU_CS*%
X131860000Y-97710000D03*
%TO.P,U3,13,AP_SCL/AP_SCLK*%
%TO.N,SPI_SCK*%
X131360000Y-97710000D03*
%TO.P,U3,14,AP_SDA/AP_SDIO/AP_SDI*%
%TO.N,SPI_MOSI*%
X130860000Y-97710000D03*
%TD*%
D12*
%TO.P,R8,1*%
%TO.N,CHG_STAT*%
X118825000Y-111775000D03*
%TO.P,R8,2*%
%TO.N,3V3*%
X117175000Y-111775000D03*
%TD*%
D13*
%TO.P,C15,2*%
%TO.N,3V3*%
X121500000Y-117750000D03*
%TO.P,C15,1*%
%TO.N,GND*%
X119950000Y-117750000D03*
%TD*%
D14*
%TO.P,C5,1*%
%TO.N,GND*%
X122125000Y-120075000D03*
%TO.P,C5,2*%
%TO.N,USB_VBUS_SENSE*%
X122125000Y-121625000D03*
%TD*%
D15*
%TO.P,U6,1*%
%TO.N,USB_DP*%
X131330000Y-121525000D03*
%TO.P,U6,2*%
%TO.N,USB_DM*%
X131330000Y-120575000D03*
%TO.P,U6,3*%
%TO.N,GND*%
X131330000Y-119625000D03*
%TO.P,U6,4*%
X128820000Y-119625000D03*
%TO.P,U6,5*%
%TO.N,USB_DM*%
X128820000Y-120575000D03*
%TO.P,U6,6*%
%TO.N,USB_DP*%
X128820000Y-121525000D03*
%TD*%
D12*
%TO.P,R1,1*%
%TO.N,USB_VBUS_SENSE*%
X125650000Y-121850000D03*
%TO.P,R1,2*%
%TO.N,USB_VBUS*%
X124000000Y-121850000D03*
%TD*%
D16*
%TO.P,C2,1*%
%TO.N,GND*%
X118050000Y-103450000D03*
%TO.P,C2,2*%
%TO.N,VBAT*%
X118050000Y-105350000D03*
%TD*%
D17*
%TO.P,C4,1*%
%TO.N,GND*%
X131900000Y-117625000D03*
%TO.P,C4,2*%
%TO.N,3V3*%
X131900000Y-116075000D03*
%TD*%
D18*
%TO.P,U7,1,/CS*%
%TO.N,FLASH_CS*%
X124170000Y-85530000D03*
%TO.P,U7,2,DO(IO1)*%
%TO.N,SPI_MISO*%
X125440000Y-85530000D03*
%TO.P,U7,3,/WP(IO2)*%
%TO.N,3V3*%
X126710000Y-85530000D03*
%TO.P,U7,4,GND*%
%TO.N,GND*%
X127980000Y-85530000D03*
%TO.P,U7,5,DI(IO0)*%
%TO.N,SPI_MOSI*%
X127980000Y-78320000D03*
%TO.P,U7,6,CLK*%
%TO.N,SPI_SCK*%
X126710000Y-78320000D03*
%TO.P,U7,7,/HOLD/RESET(IO3)*%
%TO.N,3V3*%
X125440000Y-78320000D03*
%TO.P,U7,8,VCC*%
X124170000Y-78320000D03*
%TD*%
D19*
%TO.P,LS1,N*%
%TO.N,Net-(Q1-C)*%
X129925000Y-68925000D03*
D20*
%TO.P,LS1,P*%
%TO.N,3V3*%
X122325000Y-68925000D03*
%TD*%
D14*
%TO.P,C6,1*%
%TO.N,NRST*%
X127650000Y-91925000D03*
%TO.P,C6,2*%
%TO.N,GND*%
X127650000Y-93475000D03*
%TD*%
D21*
%TO.P,VR1,1,IN*%
%TO.N,VBAT*%
X113500000Y-113755000D03*
%TO.P,VR1,2,GND*%
%TO.N,GND*%
X114450000Y-113755000D03*
%TO.P,VR1,3,EN*%
%TO.N,VBAT*%
X115400000Y-113755000D03*
%TO.P,VR1,4*%
%TO.N,N/C*%
X115400000Y-111245000D03*
%TO.P,VR1,5,OUT*%
%TO.N,3V3*%
X113500000Y-111245000D03*
%TD*%
D14*
%TO.P,C3,1*%
%TO.N,GND*%
X122050000Y-103200000D03*
%TO.P,C3,2*%
%TO.N,VBAT*%
X122050000Y-104750000D03*
%TD*%
D22*
%TO.P,J4,1,Pin_1*%
%TO.N,NRST*%
X120825000Y-91660000D03*
D23*
%TO.P,J4,2,Pin_2*%
%TO.N,SWDIO*%
X123365000Y-91660000D03*
%TO.P,J4,3,Pin_3*%
%TO.N,SWCLK*%
X120825000Y-94200000D03*
%TO.P,J4,4,Pin_4*%
%TO.N,3V3*%
X123365000Y-94200000D03*
%TO.P,J4,5,Pin_5*%
%TO.N,USB_VBUS*%
X120825000Y-96740000D03*
%TO.P,J4,6,Pin_6*%
%TO.N,UART_RX*%
X123365000Y-96740000D03*
%TO.P,J4,7,Pin_7*%
%TO.N,UART_TX*%
X120825000Y-99280000D03*
D24*
%TO.P,J4,8,Pin_8*%
%TO.N,GND*%
X123365000Y-99280000D03*
%TD*%
D25*
%TO.P,J2,1,1*%
%TO.N,USB_VBUS*%
X124400000Y-124450000D03*
%TO.P,J2,2,2*%
%TO.N,USB_DM*%
X125050000Y-124450000D03*
%TO.P,J2,3,3*%
%TO.N,USB_DP*%
X125700000Y-124450000D03*
%TO.P,J2,4,4*%
%TO.N,unconnected-(J2-Pad4)*%
X126350000Y-124450000D03*
%TO.P,J2,5,5*%
%TO.N,GND*%
X127000000Y-124450000D03*
D26*
%TO.P,J2,SH1,SHIELD*%
X122500000Y-124675000D03*
%TO.P,J2,SH2,SHIELD*%
X128900000Y-124675000D03*
D27*
%TO.P,J2,SH3,SHIELD*%
X129125000Y-127125000D03*
D28*
%TO.P,J2,SH4,SHIELD*%
X126900000Y-127125000D03*
%TO.P,J2,SH5,SHIELD*%
X124500000Y-127125000D03*
D27*
%TO.P,J2,SH6,SHIELD*%
X122275000Y-127125000D03*
%TD*%
D29*
%TO.P,C1,1*%
%TO.N,GND*%
X114875000Y-98600000D03*
%TO.P,C1,2*%
%TO.N,VBUS*%
X112975000Y-98600000D03*
%TD*%
D30*
%TO.P,U4,1,VDD*%
%TO.N,VBUS*%
X112125000Y-105275000D03*
%TO.P,U4,2,VDD*%
X112125000Y-105775000D03*
%TO.P,U4,3,VBAT*%
%TO.N,VBAT*%
X112125000Y-106275000D03*
%TO.P,U4,4,VBAT*%
X112125000Y-106775000D03*
%TO.P,U4,5,STAT*%
%TO.N,CHG_STAT*%
X114995000Y-106775000D03*
%TO.P,U4,6,VSS*%
%TO.N,GND*%
X114995000Y-106275000D03*
%TO.P,U4,7,NC*%
%TO.N,unconnected-(U4-NC-Pad7)*%
X114995000Y-105775000D03*
%TO.P,U4,8,PROG*%
%TO.N,Net-(U4-PROG)*%
X114995000Y-105275000D03*
D31*
%TO.P,U4,9,EXP*%
%TO.N,GND*%
X113560000Y-106025000D03*
%TD*%
D32*
%TO.P,U1,3V0,3V0*%
%TO.N,Net-(C12-Pad2)*%
X115200000Y-85500000D03*
%TO.P,U1,CS,CS*%
%TO.N,BARO_CS*%
X115200000Y-72800000D03*
%TO.P,U1,GND,GND*%
%TO.N,GND*%
X115200000Y-82960000D03*
%TO.P,U1,INT,INT*%
%TO.N,unconnected-(U1-PadINT)*%
X115200000Y-70260000D03*
%TO.P,U1,SCL,SCL*%
%TO.N,SPI_SCK*%
X115200000Y-80420000D03*
%TO.P,U1,SDA,SDA*%
%TO.N,SPI_MOSI*%
X115200000Y-75340000D03*
%TO.P,U1,SDO,SDO*%
%TO.N,SPI_MISO*%
X115200000Y-77880000D03*
%TO.P,U1,VIN,VIN*%
%TO.N,Net-(C13-Pad2)*%
X115200000Y-88040000D03*
%TD*%
D13*
%TO.P,C13,1*%
%TO.N,3V3*%
X116500000Y-100650000D03*
%TO.P,C13,2*%
%TO.N,Net-(C13-Pad2)*%
X118050000Y-100650000D03*
%TD*%
D33*
%TO.P,U2,1,PB9*%
%TO.N,BUZZER_EN*%
X132650000Y-103575000D03*
%TO.P,U2,2,PC14*%
%TO.N,unconnected-(U2-PC14-Pad2)*%
X131850000Y-103575000D03*
%TO.P,U2,3,PC15*%
%TO.N,CHG_STAT*%
X131050000Y-103575000D03*
%TO.P,U2,4,VDD*%
%TO.N,3V3*%
X130250000Y-103575000D03*
%TO.P,U2,5,VSS*%
%TO.N,GND*%
X129450000Y-103575000D03*
%TO.P,U2,6,PF2*%
%TO.N,NRST*%
X128650000Y-103575000D03*
%TO.P,U2,7,PA0*%
%TO.N,unconnected-(U2-PA0-Pad7)*%
X127850000Y-103575000D03*
%TO.P,U2,8,PA1*%
%TO.N,unconnected-(U2-PA1-Pad8)*%
X127050000Y-103575000D03*
D34*
%TO.P,U2,9,PA2*%
%TO.N,UART_TX*%
X125675000Y-104950000D03*
%TO.P,U2,10,PA3*%
%TO.N,UART_RX*%
X125675000Y-105750000D03*
%TO.P,U2,11,PA4*%
%TO.N,FLASH_CS*%
X125675000Y-106550000D03*
%TO.P,U2,12,PA5*%
%TO.N,SPI_SCK*%
X125675000Y-107350000D03*
%TO.P,U2,13,PA6*%
%TO.N,SPI_MISO*%
X125675000Y-108150000D03*
%TO.P,U2,14,PA7*%
%TO.N,SPI_MOSI*%
X125675000Y-108950000D03*
%TO.P,U2,15,PB0*%
%TO.N,IMU_CS*%
X125675000Y-109750000D03*
%TO.P,U2,16,PB1*%
%TO.N,BARO_CS*%
X125675000Y-110550000D03*
D33*
%TO.P,U2,17,PB15*%
%TO.N,unconnected-(U2-PB15-Pad17)*%
X127050000Y-111925000D03*
%TO.P,U2,18,PA8*%
%TO.N,USB_VBUS_SENSE*%
X127850000Y-111925000D03*
%TO.P,U2,19,PA9/UCPD1_DBCC1*%
%TO.N,unconnected-(U2-PA9{slash}UCPD1_DBCC1-Pad19)*%
X128650000Y-111925000D03*
%TO.P,U2,20,PC6*%
%TO.N,unconnected-(U2-PC6-Pad20)*%
X129450000Y-111925000D03*
%TO.P,U2,21,PA10/UCPD1_DBCC2*%
%TO.N,unconnected-(U2-PA10{slash}UCPD1_DBCC2-Pad21)*%
X130250000Y-111925000D03*
%TO.P,U2,22,PA9/PA11*%
%TO.N,USB_DM*%
X131050000Y-111925000D03*
%TO.P,U2,23,PA10/PA12*%
%TO.N,USB_DP*%
X131850000Y-111925000D03*
%TO.P,U2,24,PA13*%
%TO.N,SWDIO*%
X132650000Y-111925000D03*
D34*
%TO.P,U2,25,PA14*%
%TO.N,SWCLK*%
X134025000Y-110550000D03*
%TO.P,U2,26,PD0*%
%TO.N,unconnected-(U2-PD0-Pad26)*%
X134025000Y-109750000D03*
%TO.P,U2,27,PD1*%
%TO.N,unconnected-(U2-PD1-Pad27)*%
X134025000Y-108950000D03*
%TO.P,U2,28,PD2*%
%TO.N,unconnected-(U2-PD2-Pad28)*%
X134025000Y-108150000D03*
%TO.P,U2,29,PD3*%
%TO.N,unconnected-(U2-PD3-Pad29)*%
X134025000Y-107350000D03*
%TO.P,U2,30,PB6*%
%TO.N,IMU_INT1*%
X134025000Y-106550000D03*
%TO.P,U2,31,PB7*%
%TO.N,IMU_INT2*%
X134025000Y-105750000D03*
%TO.P,U2,32,PB8*%
%TO.N,unconnected-(U2-PB8-Pad32)*%
X134025000Y-104950000D03*
%TD*%
D35*
%TO.P,R6,1*%
%TO.N,BUZZER_EN*%
X118900000Y-109275000D03*
%TO.P,R6,2*%
%TO.N,Net-(Q1-B)*%
X118900000Y-107625000D03*
%TD*%
D36*
%TO.P,C14,1*%
%TO.N,GND*%
X119550000Y-114975000D03*
%TO.P,C14,2*%
%TO.N,3V3*%
X118000000Y-114975000D03*
%TD*%
D37*
%TO.P,Q1,1,B*%
%TO.N,Net-(Q1-B)*%
X135250000Y-77250000D03*
%TO.P,Q1,2,E*%
%TO.N,GND*%
X135250000Y-75350000D03*
%TO.P,Q1,3,C*%
%TO.N,Net-(Q1-C)*%
X133375000Y-76300000D03*
%TD*%
D13*
%TO.P,C12,1*%
%TO.N,GND*%
X113650000Y-93250000D03*
%TO.P,C12,2*%
%TO.N,Net-(C12-Pad2)*%
X115200000Y-93250000D03*
%TD*%
%TO.P,C16,1*%
%TO.N,GND*%
X124250000Y-114900000D03*
%TO.P,C16,2*%
%TO.N,3V3*%
X125800000Y-114900000D03*
%TD*%
D38*
%TO.P,R3,1*%
%TO.N,GND*%
X111825000Y-101400000D03*
%TO.P,R3,2*%
%TO.N,Net-(U4-PROG)*%
X113475000Y-101400000D03*
%TD*%
%TO.P,R2,1*%
%TO.N,USB_VBUS_SENSE*%
X128275000Y-117000000D03*
%TO.P,R2,2*%
%TO.N,GND*%
X129925000Y-117000000D03*
%TD*%
D39*
%TO.P,R4,1*%
%TO.N,3V3*%
X131525000Y-88025000D03*
%TO.P,R4,2*%
%TO.N,NRST*%
X131525000Y-89675000D03*
%TD*%
D40*
%TO.P,J1,1,1*%
%TO.N,VBAT*%
X115300000Y-125150000D03*
D41*
%TO.P,J1,2,2*%
%TO.N,GND*%
X117800000Y-125150000D03*
%TD*%
D42*
%TO.N,UART_TX*%
X125760200Y-102839600D03*
%TO.N,SWDIO*%
X133413400Y-100980000D03*
%TO.N,SWCLK*%
X135270000Y-111860400D03*
%TO.N,USB_VBUS*%
X124000000Y-123050400D03*
%TO.N,NRST*%
X127624600Y-90710800D03*
X132425000Y-91447500D03*
X128463700Y-102129200D03*
%TO.N,IMU_CS*%
X132955200Y-96695200D03*
X129636300Y-110611600D03*
%TO.N,IMU_INT1*%
X130093600Y-100623500D03*
X135773500Y-106280200D03*
%TO.N,SPI_SCK*%
X126913900Y-80229000D03*
X130434000Y-96231800D03*
X123673000Y-108613000D03*
X128805700Y-108413600D03*
%TO.N,SPI_MISO*%
X124474400Y-79854500D03*
X125871800Y-100737200D03*
%TO.N,BARO_CS*%
X125987300Y-111860400D03*
%TO.N,SPI_MOSI*%
X128151400Y-76552100D03*
X126765300Y-97826800D03*
X127250300Y-109081800D03*
%TO.N,CHG_STAT*%
X118584700Y-110783200D03*
X114514100Y-108368600D03*
X130490300Y-107585000D03*
%TO.N,BUZZER_EN*%
X128705700Y-107594600D03*
X121015200Y-109116000D03*
%TO.N,Net-(Q1-B)*%
X118719400Y-106514100D03*
X120481200Y-79573600D03*
X135473400Y-79897000D03*
%TO.N,USB_DM*%
X124075000Y-125649900D03*
X130075000Y-120575000D03*
X131265600Y-113587500D03*
%TO.N,3V3*%
X131506400Y-98739400D03*
X132959000Y-100065900D03*
X131993600Y-114709200D03*
X127000500Y-115174200D03*
X131615900Y-92217400D03*
X117175000Y-113316000D03*
%TO.N,GND*%
X123280300Y-103387400D03*
X134181700Y-81680300D03*
X127442500Y-82867900D03*
X128548000Y-105977200D03*
%TD*%
D43*
%TO.N,GND*%
X114489868Y-106161000D02*
X114881000Y-106161000D01*
X114353868Y-106025000D02*
X114489868Y-106161000D01*
X114881000Y-106161000D02*
X114995000Y-106275000D01*
X113560000Y-106025000D02*
X114353868Y-106025000D01*
%TO.N,VBAT*%
X111550000Y-116685500D02*
X113500000Y-114735500D01*
X111550000Y-120310800D02*
X111550000Y-116685500D01*
X115300000Y-124060800D02*
X111550000Y-120310800D01*
X115300000Y-125150000D02*
X115300000Y-124060800D01*
%TO.N,UART_TX*%
X125675000Y-102924800D02*
X125760200Y-102839600D01*
X125675000Y-104950000D02*
X125675000Y-102924800D01*
%TO.N,SWDIO*%
X133413400Y-104207500D02*
X133413400Y-100980000D01*
X132650000Y-104970900D02*
X133413400Y-104207500D01*
X132650000Y-111925000D02*
X132650000Y-104970900D01*
%TO.N,UART_RX*%
X124613900Y-97988900D02*
X123365000Y-96740000D01*
X124613900Y-105253800D02*
X124613900Y-97988900D01*
X125110100Y-105750000D02*
X124613900Y-105253800D01*
X125675000Y-105750000D02*
X125110100Y-105750000D01*
%TO.N,SWCLK*%
X134025000Y-110615400D02*
X134025000Y-110550000D01*
X135270000Y-111860400D02*
X134025000Y-110615400D01*
%TO.N,USB_VBUS*%
X124000000Y-123050400D02*
X124000000Y-121850000D01*
X124400000Y-123450400D02*
X124400000Y-124450000D01*
X124000000Y-123050400D02*
X124400000Y-123450400D01*
%TO.N,NRST*%
X127650000Y-90736200D02*
X127650000Y-91925000D01*
X127624600Y-90710800D02*
X127650000Y-90736200D01*
X132425000Y-90575000D02*
X132425000Y-91447500D01*
X131525000Y-89675000D02*
X132425000Y-90575000D01*
X128650000Y-102315500D02*
X128650000Y-103575000D01*
X128463700Y-102129200D02*
X128650000Y-102315500D01*
%TO.N,USB_VBUS_SENSE*%
X127850000Y-116575000D02*
X128275000Y-117000000D01*
X127850000Y-111925000D02*
X127850000Y-116575000D01*
X125650000Y-119625000D02*
X128275000Y-117000000D01*
X125650000Y-121070300D02*
X125650000Y-119625000D01*
X122679700Y-121070300D02*
X125650000Y-121070300D01*
X122125000Y-121625000D02*
X122679700Y-121070300D01*
X125650000Y-121850000D02*
X125650000Y-121070300D01*
%TO.N,FLASH_CS*%
X122182300Y-87517700D02*
X124170000Y-85530000D01*
X122182300Y-100326900D02*
X122182300Y-87517700D01*
X124212200Y-102356800D02*
X122182300Y-100326900D01*
X124212200Y-105647300D02*
X124212200Y-102356800D01*
X125114900Y-106550000D02*
X124212200Y-105647300D01*
X125675000Y-106550000D02*
X125114900Y-106550000D01*
%TO.N,IMU_CS*%
X132791000Y-96695200D02*
X132955200Y-96695200D01*
X131860000Y-97626200D02*
X132791000Y-96695200D01*
X131860000Y-97710000D02*
X131860000Y-97626200D01*
X128774700Y-109750000D02*
X129636300Y-110611600D01*
X125675000Y-109750000D02*
X128774700Y-109750000D01*
X132955200Y-96695200D02*
X132791000Y-96695200D01*
X132791000Y-96695200D02*
X132955200Y-96695200D01*
%TO.N,IMU_INT1*%
X130093600Y-99476400D02*
X130093600Y-100623500D01*
X130195000Y-99375000D02*
X130093600Y-99476400D01*
X135503700Y-106550000D02*
X134025000Y-106550000D01*
X135773500Y-106280200D02*
X135503700Y-106550000D01*
%TO.N,IMU_INT2*%
X132925900Y-98875000D02*
X132525000Y-98875000D01*
X135101600Y-101050700D02*
X132925900Y-98875000D01*
X135101600Y-105235300D02*
X135101600Y-101050700D01*
X134586900Y-105750000D02*
X135101600Y-105235300D01*
X134025000Y-105750000D02*
X134586900Y-105750000D01*
%TO.N,SPI_SCK*%
X126710000Y-80025100D02*
X126913900Y-80229000D01*
X126710000Y-78320000D02*
X126710000Y-80025100D01*
X131360000Y-97157800D02*
X131360000Y-97710000D01*
X130434000Y-96231800D02*
X131360000Y-97157800D01*
X124936000Y-107350000D02*
X123673000Y-108613000D01*
X125675000Y-107350000D02*
X124936000Y-107350000D01*
%TO.N,SPI_MISO*%
X125440000Y-80820100D02*
X125440000Y-85530000D01*
X124474400Y-79854500D02*
X125440000Y-80820100D01*
X126080500Y-100737200D02*
X126495600Y-101152300D01*
X125871800Y-100737200D02*
X126080500Y-100737200D01*
X129772900Y-97875000D02*
X126495600Y-101152300D01*
X130195000Y-97875000D02*
X129772900Y-97875000D01*
X126274200Y-108150000D02*
X125675000Y-108150000D01*
X126774900Y-107649300D02*
X126274200Y-108150000D01*
X126774900Y-104674800D02*
X126774900Y-107649300D01*
X126495600Y-104395500D02*
X126774900Y-104674800D01*
X126495600Y-101152300D02*
X126495600Y-104395500D01*
%TO.N,BARO_CS*%
X125675000Y-111548100D02*
X125675000Y-110550000D01*
X125987300Y-111860400D02*
X125675000Y-111548100D01*
%TO.N,SPI_MOSI*%
X127980000Y-76723500D02*
X127980000Y-78320000D01*
X128151400Y-76552100D02*
X127980000Y-76723500D01*
X127118500Y-108950000D02*
X125675000Y-108950000D01*
X127250300Y-109081800D02*
X127118500Y-108950000D01*
X130860000Y-97667700D02*
X128936600Y-95744300D01*
X130860000Y-97710000D02*
X130860000Y-97667700D01*
X128936600Y-79276600D02*
X127980000Y-78320000D01*
X128936600Y-95744300D02*
X128936600Y-79276600D01*
X128847800Y-95744300D02*
X126765300Y-97826800D01*
X128936600Y-95744300D02*
X128847800Y-95744300D01*
%TO.N,CHG_STAT*%
X118825000Y-111023500D02*
X118584700Y-110783200D01*
X118825000Y-111775000D02*
X118825000Y-111023500D01*
X114514100Y-107255900D02*
X114514100Y-108368600D01*
X114995000Y-106775000D02*
X114514100Y-107255900D01*
X131050000Y-107025300D02*
X131050000Y-103575000D01*
X130490300Y-107585000D02*
X131050000Y-107025300D01*
%TO.N,BUZZER_EN*%
X129602200Y-107594600D02*
X128705700Y-107594600D01*
X130194400Y-108186800D02*
X129602200Y-107594600D01*
X130741200Y-108186800D02*
X130194400Y-108186800D01*
X132084900Y-106843100D02*
X130741200Y-108186800D01*
X132084900Y-104760200D02*
X132084900Y-106843100D01*
X132650000Y-104195100D02*
X132084900Y-104760200D01*
X132650000Y-103575000D02*
X132650000Y-104195100D01*
X120856200Y-109275000D02*
X121015200Y-109116000D01*
X118900000Y-109275000D02*
X120856200Y-109275000D01*
%TO.N,Net-(U4-PROG)*%
X114995000Y-102920000D02*
X113475000Y-101400000D01*
X114995000Y-105275000D02*
X114995000Y-102920000D01*
%TO.N,Net-(Q1-B)*%
X118719400Y-107444400D02*
X118719400Y-106514100D01*
X118900000Y-107625000D02*
X118719400Y-107444400D01*
X135250000Y-79673600D02*
X135250000Y-77250000D01*
X135473400Y-79897000D02*
X135250000Y-79673600D01*
%TO.N,Net-(Q1-C)*%
X129925000Y-72850000D02*
X129925000Y-68925000D01*
X133375000Y-76300000D02*
X129925000Y-72850000D01*
%TO.N,USB_DP*%
X128820000Y-121525000D02*
X131330000Y-121525000D01*
X131867300Y-111942300D02*
X131850000Y-111925000D01*
X131867300Y-113836700D02*
X131867300Y-111942300D01*
X131972000Y-113836700D02*
X131867300Y-113836700D01*
X132677600Y-114542300D02*
X131972000Y-113836700D01*
X132677600Y-120601400D02*
X132677600Y-114542300D01*
X131754000Y-121525000D02*
X132677600Y-120601400D01*
X131330000Y-121525000D02*
X131754000Y-121525000D01*
X129094600Y-116609400D02*
X131867300Y-113836700D01*
X129094600Y-117457200D02*
X129094600Y-116609400D01*
X127500200Y-119051600D02*
X129094600Y-117457200D01*
X127500200Y-121250200D02*
X127500200Y-119051600D01*
X125700000Y-123050400D02*
X127500200Y-121250200D01*
X125700000Y-124450000D02*
X125700000Y-123050400D01*
%TO.N,USB_DM*%
X130075000Y-120575000D02*
X128820000Y-120575000D01*
X131330000Y-120575000D02*
X130075000Y-120575000D01*
X124298200Y-125426700D02*
X124075000Y-125649900D01*
X125050000Y-125426700D02*
X124298200Y-125426700D01*
X125050000Y-124450000D02*
X125050000Y-125426700D01*
X131050000Y-113371900D02*
X131050000Y-111925000D01*
X131265600Y-113587500D02*
X131050000Y-113371900D01*
%TO.N,Net-(C13-Pad2)*%
X118050000Y-90890000D02*
X118050000Y-100650000D01*
X115200000Y-88040000D02*
X118050000Y-90890000D01*
%TO.N,Net-(C12-Pad2)*%
X114005700Y-86694300D02*
X115200000Y-85500000D01*
X114005700Y-92055700D02*
X114005700Y-86694300D01*
X115200000Y-93250000D02*
X114005700Y-92055700D01*
%TO.N,3V3*%
X130860000Y-99129100D02*
X130860000Y-99540000D01*
X131249700Y-98739400D02*
X130860000Y-99129100D01*
X131506400Y-98739400D02*
X131249700Y-98739400D01*
X132525000Y-100065900D02*
X132525000Y-99375000D01*
X123224200Y-117750000D02*
X121500000Y-117750000D01*
X125800000Y-115174200D02*
X123224200Y-117750000D01*
X125800000Y-115174200D02*
X127000500Y-115174200D01*
X125800000Y-114900000D02*
X125800000Y-115174200D01*
X131900000Y-114802800D02*
X131993600Y-114709200D01*
X131900000Y-116075000D02*
X131900000Y-114802800D01*
X130250000Y-102340900D02*
X130250000Y-103575000D01*
X132525000Y-100065900D02*
X130250000Y-102340900D01*
X114107300Y-110637700D02*
X114107300Y-111245000D01*
X116500000Y-108245000D02*
X114107300Y-110637700D01*
X116500000Y-100650000D02*
X116500000Y-108245000D01*
X125440000Y-79831200D02*
X125440000Y-78320000D01*
X126710000Y-81101200D02*
X125440000Y-79831200D01*
X126710000Y-85530000D02*
X126710000Y-81101200D01*
X113500000Y-111245000D02*
X114107300Y-111245000D01*
X116778000Y-112172000D02*
X117175000Y-111775000D01*
X115023100Y-112172000D02*
X116778000Y-112172000D01*
X114107300Y-111256200D02*
X115023100Y-112172000D01*
X114107300Y-111245000D02*
X114107300Y-111256200D01*
X124170000Y-78320000D02*
X125440000Y-78320000D01*
X122325000Y-68925000D02*
X122325000Y-70476700D01*
X124170000Y-72321700D02*
X122325000Y-70476700D01*
X124170000Y-78320000D02*
X124170000Y-72321700D01*
X126710000Y-90855000D02*
X126710000Y-85530000D01*
X123365000Y-94200000D02*
X126710000Y-90855000D01*
X130718200Y-91319700D02*
X131615900Y-92217400D01*
X130718200Y-88831800D02*
X130718200Y-91319700D01*
X131525000Y-88025000D02*
X130718200Y-88831800D01*
X117175000Y-114150000D02*
X117175000Y-113316000D01*
X118000000Y-114975000D02*
X117175000Y-114150000D01*
X117175000Y-113316000D02*
X117175000Y-111775000D01*
X132525000Y-100065900D02*
X132959000Y-100065900D01*
%TO.N,VBAT*%
X112125000Y-112380000D02*
X112125000Y-106775000D01*
X113500000Y-113755000D02*
X112125000Y-112380000D01*
X112125000Y-106275000D02*
X112125000Y-106775000D01*
X113500000Y-114735500D02*
X113500000Y-113755000D01*
X115400000Y-114153500D02*
X115400000Y-113755000D01*
X114818000Y-114735500D02*
X115400000Y-114153500D01*
X113500000Y-114735500D02*
X114818000Y-114735500D01*
X118650000Y-104750000D02*
X118050000Y-105350000D01*
X122050000Y-104750000D02*
X118650000Y-104750000D01*
X117397600Y-115752600D02*
X115400000Y-113755000D01*
X118523900Y-115752600D02*
X117397600Y-115752600D01*
X118773500Y-115503000D02*
X118523900Y-115752600D01*
X118773500Y-114421500D02*
X118773500Y-115503000D01*
X117963700Y-113611700D02*
X118773500Y-114421500D01*
X117963700Y-105436300D02*
X117963700Y-113611700D01*
X118050000Y-105350000D02*
X117963700Y-105436300D01*
%TO.N,VBUS*%
X112125000Y-105275000D02*
X112125000Y-105775000D01*
X111104600Y-104254600D02*
X112125000Y-105275000D01*
X111104600Y-100470400D02*
X111104600Y-104254600D01*
X112975000Y-98600000D02*
X111104600Y-100470400D01*
%TO.N,GND*%
X131900000Y-119055000D02*
X131900000Y-117625000D01*
X131330000Y-119625000D02*
X131900000Y-119055000D01*
X127000000Y-124450000D02*
X127000000Y-125426700D01*
X127000000Y-125773300D02*
X127000000Y-125426700D01*
X126900000Y-125873300D02*
X127000000Y-125773300D01*
X122275000Y-125901700D02*
X122500000Y-125676700D01*
X122275000Y-127125000D02*
X122275000Y-125901700D01*
X129125000Y-127125000D02*
X129125000Y-126173300D01*
X127796800Y-125426700D02*
X127798300Y-125425200D01*
X127000000Y-125426700D02*
X127796800Y-125426700D01*
X127798300Y-124675000D02*
X127798300Y-125425200D01*
X128546400Y-126173300D02*
X129125000Y-126173300D01*
X127798300Y-125425200D02*
X128546400Y-126173300D01*
X112486500Y-102061500D02*
X112486500Y-101400000D01*
X113560000Y-103135000D02*
X112486500Y-102061500D01*
X113560000Y-106025000D02*
X113560000Y-103135000D01*
X111825000Y-101400000D02*
X112486500Y-101400000D01*
X123248300Y-126425000D02*
X122500000Y-125676700D01*
X123248300Y-127125000D02*
X123248300Y-126425000D01*
X124500000Y-127125000D02*
X123248300Y-127125000D01*
X112899300Y-107702400D02*
X113560000Y-107041700D01*
X112899300Y-112019300D02*
X112899300Y-107702400D01*
X113411400Y-112531400D02*
X112899300Y-112019300D01*
X113580300Y-112531400D02*
X113411400Y-112531400D01*
X114450000Y-113401100D02*
X113580300Y-112531400D01*
X114450000Y-113755000D02*
X114450000Y-113401100D01*
X113560000Y-106025000D02*
X113560000Y-107041700D01*
X113587100Y-93187100D02*
X113650000Y-93250000D01*
X113587100Y-84572900D02*
X113587100Y-93187100D01*
X115200000Y-82960000D02*
X113587100Y-84572900D01*
X112486500Y-100705900D02*
X114592400Y-98600000D01*
X112486500Y-101400000D02*
X112486500Y-100705900D01*
X114592400Y-98600000D02*
X114875000Y-98600000D01*
X114592400Y-94192400D02*
X113650000Y-93250000D01*
X114592400Y-98600000D02*
X114592400Y-94192400D01*
X120025000Y-114900000D02*
X119950000Y-114975000D01*
X124250000Y-114900000D02*
X120025000Y-114900000D01*
X119950000Y-114975000D02*
X119550000Y-114975000D01*
X119950000Y-123000000D02*
X119950000Y-120075000D01*
X117800000Y-125150000D02*
X119950000Y-123000000D01*
X119950000Y-120075000D02*
X119950000Y-117750000D01*
X126377600Y-126499100D02*
X125751700Y-127125000D01*
X126900000Y-126499100D02*
X126377600Y-126499100D01*
X126900000Y-127125000D02*
X126900000Y-126499100D01*
X126900000Y-126499100D02*
X126900000Y-125873300D01*
X124500000Y-127125000D02*
X125751700Y-127125000D01*
X129925000Y-117000000D02*
X129925000Y-118849400D01*
X130554400Y-118849400D02*
X131330000Y-119625000D01*
X129925000Y-118849400D02*
X130554400Y-118849400D01*
X118300000Y-103200000D02*
X122050000Y-103200000D01*
X118050000Y-103450000D02*
X118300000Y-103200000D01*
X129595600Y-118849400D02*
X128820000Y-119625000D01*
X129925000Y-118849400D02*
X129595600Y-118849400D01*
X128900000Y-124675000D02*
X127972600Y-124675000D01*
X127972600Y-124675000D02*
X127798300Y-124675000D01*
X117275000Y-102675000D02*
X118050000Y-103450000D01*
X117275000Y-100169300D02*
X117275000Y-102675000D01*
X115705700Y-98600000D02*
X117275000Y-100169300D01*
X114875000Y-98600000D02*
X115705700Y-98600000D01*
X122690100Y-103840100D02*
X122827600Y-103840100D01*
X122050000Y-103200000D02*
X122690100Y-103840100D01*
X123280300Y-103387400D02*
X122827600Y-103840100D01*
X122500000Y-124675000D02*
X122500000Y-125175800D01*
X122500000Y-125175800D02*
X122500000Y-125676700D01*
X121332200Y-124008000D02*
X121332200Y-120075000D01*
X122500000Y-125175800D02*
X121332200Y-124008000D01*
X119950000Y-120075000D02*
X121332200Y-120075000D01*
X121332200Y-120075000D02*
X122125000Y-120075000D01*
X122827600Y-113477600D02*
X122827600Y-103840100D01*
X124250000Y-114900000D02*
X122827600Y-113477600D01*
X135250000Y-75862600D02*
X135250000Y-75350000D01*
X134181700Y-76930900D02*
X135250000Y-75862600D01*
X134181700Y-81680300D02*
X134181700Y-76930900D01*
X119950000Y-117750000D02*
X119950000Y-114975000D01*
X128486100Y-119625000D02*
X128820000Y-119625000D01*
X127901900Y-120209200D02*
X128486100Y-119625000D01*
X127901900Y-124604300D02*
X127901900Y-120209200D01*
X127972600Y-124675000D02*
X127901900Y-124604300D01*
X131360000Y-100208000D02*
X131360000Y-99540000D01*
X129450000Y-102118000D02*
X131360000Y-100208000D01*
X129450000Y-103575000D02*
X129450000Y-102118000D01*
X128448000Y-85998000D02*
X127980000Y-85530000D01*
X128448000Y-92677000D02*
X128448000Y-85998000D01*
X127650000Y-93475000D02*
X128448000Y-92677000D01*
X127442500Y-84992500D02*
X127442500Y-82867900D01*
X127980000Y-85530000D02*
X127442500Y-84992500D01*
X129450000Y-105075200D02*
X129450000Y-103575000D01*
X128548000Y-105977200D02*
X129450000Y-105075200D01*
%TD*%
%TA.AperFunction,Conductor*%
%TO.N,GND*%
G36*
X136152826Y-67322174D02*
G01*
X136174500Y-67374500D01*
X136174500Y-74934083D01*
X136152826Y-74986409D01*
X136100500Y-75008083D01*
X136048174Y-74986409D01*
X136009978Y-74948213D01*
X135907375Y-74902910D01*
X135907376Y-74902910D01*
X135882289Y-74900000D01*
X135350000Y-74900000D01*
X135350000Y-75799999D01*
X135882292Y-75799999D01*
X135907368Y-75797091D01*
X135907374Y-75797089D01*
X136009978Y-75751786D01*
X136048174Y-75713591D01*
X136100500Y-75691917D01*
X136152826Y-75713591D01*
X136174500Y-75765917D01*
X136174500Y-76762667D01*
X136152826Y-76814993D01*
X136100500Y-76836667D01*
X136048174Y-76814993D01*
X136043982Y-76810801D01*
X135938894Y-76759427D01*
X135870764Y-76749500D01*
X135870760Y-76749500D01*
X134629240Y-76749500D01*
X134629235Y-76749500D01*
X134561106Y-76759427D01*
X134561105Y-76759427D01*
X134456017Y-76810801D01*
X134373301Y-76893517D01*
X134321927Y-76998605D01*
X134321927Y-76998606D01*
X134312000Y-77066735D01*
X134312000Y-77433264D01*
X134321927Y-77501393D01*
X134321927Y-77501394D01*
X134373301Y-77606482D01*
X134373302Y-77606483D01*
X134456017Y-77689198D01*
X134561107Y-77740573D01*
X134629240Y-77750500D01*
X134875500Y-77750500D01*
X134927826Y-77772174D01*
X134949500Y-77824500D01*
X134949500Y-79713164D01*
X134971234Y-79794274D01*
X134969403Y-79794764D01*
X134971457Y-79826027D01*
X134973533Y-79826301D01*
X134972900Y-79831109D01*
X134972900Y-79962894D01*
X135007006Y-80090181D01*
X135007010Y-80090190D01*
X135049108Y-80163105D01*
X135072900Y-80204314D01*
X135166086Y-80297500D01*
X135280214Y-80363392D01*
X135407505Y-80397499D01*
X135407506Y-80397500D01*
X135407508Y-80397500D01*
X135539294Y-80397500D01*
X135539294Y-80397499D01*
X135666586Y-80363392D01*
X135780714Y-80297500D01*
X135873900Y-80204314D01*
X135939792Y-80090186D01*
X135973899Y-79962894D01*
X135973900Y-79962894D01*
X135973900Y-79831106D01*
X135973899Y-79831105D01*
X135972538Y-79826027D01*
X135939792Y-79703814D01*
X135873900Y-79589686D01*
X135780714Y-79496500D01*
X135666587Y-79430608D01*
X135666582Y-79430606D01*
X135605347Y-79414198D01*
X135560414Y-79379719D01*
X135550500Y-79342720D01*
X135550500Y-77824500D01*
X135572174Y-77772174D01*
X135624500Y-77750500D01*
X135870754Y-77750500D01*
X135870760Y-77750500D01*
X135938893Y-77740573D01*
X136043983Y-77689198D01*
X136048174Y-77685007D01*
X136100500Y-77663333D01*
X136152826Y-77685007D01*
X136174500Y-77737333D01*
X136174500Y-105805617D01*
X136152826Y-105857943D01*
X136100500Y-105879617D01*
X136063500Y-105869703D01*
X135966690Y-105813810D01*
X135966681Y-105813806D01*
X135839394Y-105779700D01*
X135839392Y-105779700D01*
X135707608Y-105779700D01*
X135707606Y-105779700D01*
X135580318Y-105813806D01*
X135580309Y-105813810D01*
X135466185Y-105879700D01*
X135373000Y-105972885D01*
X135307110Y-106087009D01*
X135307106Y-106087018D01*
X135278266Y-106194653D01*
X135243788Y-106239586D01*
X135206788Y-106249500D01*
X134965478Y-106249500D01*
X134913152Y-106227826D01*
X134887652Y-106202326D01*
X134865978Y-106150000D01*
X134887652Y-106097674D01*
X134902978Y-106082348D01*
X134920747Y-106064579D01*
X134969259Y-105960545D01*
X134975500Y-105913139D01*
X134975499Y-105817022D01*
X134997173Y-105764697D01*
X135342060Y-105419811D01*
X135381622Y-105351288D01*
X135402100Y-105274862D01*
X135402100Y-105195738D01*
X135402100Y-101011138D01*
X135402100Y-101011136D01*
X135402099Y-101011135D01*
X135399034Y-100999698D01*
X135381621Y-100934711D01*
X135342060Y-100866189D01*
X135286111Y-100810240D01*
X133110411Y-98634540D01*
X133099220Y-98628079D01*
X133068836Y-98610537D01*
X133054225Y-98602101D01*
X133051284Y-98598269D01*
X133019746Y-98557167D01*
X133017718Y-98529489D01*
X133019033Y-98518151D01*
X133020500Y-98505505D01*
X133020499Y-98244496D01*
X133017707Y-98220420D01*
X132988771Y-98154889D01*
X132987463Y-98098269D01*
X132988758Y-98095141D01*
X133017707Y-98029580D01*
X133020500Y-98005505D01*
X133020499Y-97744496D01*
X133017707Y-97720420D01*
X132974215Y-97621921D01*
X132898079Y-97545785D01*
X132799580Y-97502293D01*
X132799579Y-97502292D01*
X132799577Y-97502292D01*
X132775505Y-97499500D01*
X132590322Y-97499500D01*
X132537996Y-97477826D01*
X132516322Y-97425500D01*
X132537996Y-97373174D01*
X132617988Y-97293182D01*
X132721996Y-97189173D01*
X132774321Y-97167500D01*
X132793469Y-97170020D01*
X132889308Y-97195700D01*
X132889309Y-97195700D01*
X133021094Y-97195700D01*
X133021094Y-97195699D01*
X133148386Y-97161592D01*
X133262514Y-97095700D01*
X133355700Y-97002514D01*
X133421592Y-96888386D01*
X133455699Y-96761094D01*
X133455700Y-96761094D01*
X133455700Y-96629306D01*
X133455699Y-96629305D01*
X133451118Y-96612210D01*
X133421592Y-96502014D01*
X133355700Y-96387886D01*
X133262514Y-96294700D01*
X133203827Y-96260817D01*
X133148390Y-96228810D01*
X133148381Y-96228806D01*
X133021094Y-96194700D01*
X133021092Y-96194700D01*
X132889308Y-96194700D01*
X132889306Y-96194700D01*
X132762018Y-96228806D01*
X132762009Y-96228810D01*
X132647885Y-96294700D01*
X132554700Y-96387885D01*
X132488808Y-96502012D01*
X132488806Y-96502017D01*
X132468169Y-96579037D01*
X132449017Y-96612210D01*
X131868401Y-97192826D01*
X131816075Y-97214500D01*
X131734500Y-97214500D01*
X131682174Y-97192826D01*
X131660500Y-97140500D01*
X131660500Y-97118239D01*
X131647148Y-97068407D01*
X131647148Y-97068406D01*
X131645366Y-97061758D01*
X131640022Y-97041812D01*
X131600460Y-96973289D01*
X130956174Y-96329003D01*
X130934500Y-96276677D01*
X130934500Y-96165906D01*
X130934499Y-96165905D01*
X130900393Y-96038618D01*
X130900392Y-96038614D01*
X130834500Y-95924486D01*
X130741314Y-95831300D01*
X130702792Y-95809059D01*
X130627190Y-95765410D01*
X130627181Y-95765406D01*
X130499894Y-95731300D01*
X130499892Y-95731300D01*
X130368108Y-95731300D01*
X130368106Y-95731300D01*
X130240818Y-95765406D01*
X130240809Y-95765410D01*
X130126685Y-95831300D01*
X130033500Y-95924485D01*
X129967610Y-96038609D01*
X129967606Y-96038618D01*
X129934906Y-96160658D01*
X129900428Y-96205591D01*
X129844275Y-96212983D01*
X129811102Y-96193831D01*
X129258774Y-95641503D01*
X129237100Y-95589177D01*
X129237100Y-88792235D01*
X130417700Y-88792235D01*
X130417700Y-91359264D01*
X130438177Y-91435685D01*
X130438179Y-91435690D01*
X130467839Y-91487062D01*
X130477740Y-91504211D01*
X131093726Y-92120197D01*
X131115400Y-92172523D01*
X131115400Y-92283294D01*
X131149506Y-92410581D01*
X131149510Y-92410590D01*
X131200281Y-92498528D01*
X131215400Y-92524714D01*
X131308586Y-92617900D01*
X131422714Y-92683792D01*
X131550005Y-92717899D01*
X131550006Y-92717900D01*
X131550008Y-92717900D01*
X131681794Y-92717900D01*
X131681794Y-92717899D01*
X131809086Y-92683792D01*
X131923214Y-92617900D01*
X132016400Y-92524714D01*
X132082292Y-92410586D01*
X132116399Y-92283294D01*
X132116400Y-92283294D01*
X132116400Y-92151506D01*
X132116399Y-92151505D01*
X132101329Y-92095264D01*
X132082292Y-92024214D01*
X132050075Y-91968412D01*
X132042683Y-91912259D01*
X132077161Y-91867326D01*
X132133314Y-91859934D01*
X132151153Y-91867322D01*
X132231814Y-91913892D01*
X132359105Y-91947999D01*
X132359106Y-91948000D01*
X132359108Y-91948000D01*
X132490894Y-91948000D01*
X132490894Y-91947999D01*
X132618186Y-91913892D01*
X132732314Y-91848000D01*
X132825500Y-91754814D01*
X132891392Y-91640686D01*
X132925499Y-91513394D01*
X132925500Y-91513394D01*
X132925500Y-91381606D01*
X132925499Y-91381605D01*
X132917991Y-91353586D01*
X132891392Y-91254314D01*
X132825500Y-91140186D01*
X132747174Y-91061860D01*
X132725500Y-91009534D01*
X132725500Y-90535436D01*
X132725499Y-90535435D01*
X132705022Y-90459014D01*
X132705020Y-90459009D01*
X132694420Y-90440649D01*
X132665460Y-90390489D01*
X132609511Y-90334540D01*
X132222173Y-89947202D01*
X132200499Y-89894878D01*
X132200499Y-89443482D01*
X132185646Y-89349696D01*
X132185646Y-89349695D01*
X132185645Y-89349693D01*
X132128049Y-89236657D01*
X132038343Y-89146951D01*
X132038342Y-89146950D01*
X131925304Y-89089354D01*
X131925302Y-89089353D01*
X131925301Y-89089353D01*
X131831519Y-89074500D01*
X131218480Y-89074500D01*
X131124695Y-89089353D01*
X131119155Y-89091154D01*
X131118504Y-89089152D01*
X131108857Y-89089911D01*
X131092700Y-89096604D01*
X131081699Y-89092047D01*
X131069830Y-89092981D01*
X131056532Y-89081623D01*
X131040374Y-89074930D01*
X131035817Y-89063928D01*
X131026764Y-89056196D01*
X131018700Y-89022604D01*
X131018700Y-88986922D01*
X131040373Y-88934597D01*
X131327797Y-88647172D01*
X131380123Y-88625499D01*
X131831519Y-88625499D01*
X131925304Y-88610646D01*
X131925306Y-88610645D01*
X131933384Y-88606529D01*
X132038342Y-88553050D01*
X132128050Y-88463342D01*
X132185646Y-88350304D01*
X132200500Y-88256519D01*
X132200499Y-87793482D01*
X132199136Y-87784877D01*
X132185646Y-87699695D01*
X132185645Y-87699693D01*
X132155770Y-87641061D01*
X132128050Y-87586658D01*
X132038342Y-87496950D01*
X131925304Y-87439354D01*
X131925302Y-87439353D01*
X131925301Y-87439353D01*
X131831519Y-87424500D01*
X131218480Y-87424500D01*
X131124695Y-87439353D01*
X131124693Y-87439354D01*
X131011657Y-87496950D01*
X130921951Y-87586656D01*
X130864353Y-87699698D01*
X130849500Y-87793480D01*
X130849500Y-88244875D01*
X130827826Y-88297201D01*
X130533689Y-88591340D01*
X130477740Y-88647288D01*
X130438179Y-88715809D01*
X130438177Y-88715814D01*
X130417700Y-88792235D01*
X129237100Y-88792235D01*
X129237100Y-79237038D01*
X129227281Y-79200392D01*
X129227281Y-79200391D01*
X129219968Y-79173100D01*
X129216622Y-79160612D01*
X129177060Y-79092089D01*
X128492174Y-78407203D01*
X128470500Y-78354877D01*
X128470500Y-77560615D01*
X128470500Y-77560614D01*
X128454660Y-77480981D01*
X128394322Y-77390678D01*
X128313388Y-77336600D01*
X128281922Y-77289508D01*
X128280500Y-77275071D01*
X128280500Y-77092445D01*
X128302174Y-77040119D01*
X128335349Y-77020966D01*
X128344586Y-77018492D01*
X128458714Y-76952600D01*
X128551900Y-76859414D01*
X128617792Y-76745286D01*
X128651899Y-76617994D01*
X128651900Y-76617994D01*
X128651900Y-76486206D01*
X128651899Y-76486205D01*
X128617793Y-76358918D01*
X128617792Y-76358914D01*
X128551900Y-76244786D01*
X128458714Y-76151600D01*
X128344590Y-76085710D01*
X128344581Y-76085706D01*
X128217294Y-76051600D01*
X128217292Y-76051600D01*
X128085508Y-76051600D01*
X128085506Y-76051600D01*
X127958218Y-76085706D01*
X127958209Y-76085710D01*
X127844085Y-76151600D01*
X127750900Y-76244785D01*
X127685010Y-76358909D01*
X127685006Y-76358918D01*
X127650900Y-76486205D01*
X127650900Y-76617991D01*
X127676979Y-76715321D01*
X127679500Y-76734473D01*
X127679500Y-77275071D01*
X127657826Y-77327397D01*
X127646612Y-77336600D01*
X127565678Y-77390677D01*
X127565677Y-77390678D01*
X127505340Y-77480980D01*
X127505340Y-77480981D01*
X127489500Y-77560614D01*
X127489500Y-79079386D01*
X127495034Y-79107206D01*
X127505340Y-79159019D01*
X127556744Y-79235952D01*
X127565678Y-79249322D01*
X127655981Y-79309660D01*
X127735614Y-79325500D01*
X127735616Y-79325500D01*
X128224384Y-79325500D01*
X128224386Y-79325500D01*
X128304019Y-79309660D01*
X128394322Y-79249322D01*
X128394322Y-79249321D01*
X128397795Y-79247001D01*
X128453344Y-79235952D01*
X128491233Y-79256204D01*
X128614426Y-79379397D01*
X128636100Y-79431723D01*
X128636100Y-95500376D01*
X128614426Y-95552702D01*
X126862502Y-97304626D01*
X126810176Y-97326300D01*
X126699406Y-97326300D01*
X126572118Y-97360406D01*
X126572109Y-97360410D01*
X126457985Y-97426300D01*
X126364800Y-97519485D01*
X126298910Y-97633609D01*
X126298906Y-97633618D01*
X126264800Y-97760905D01*
X126264800Y-97892694D01*
X126298906Y-98019981D01*
X126298907Y-98019984D01*
X126298908Y-98019986D01*
X126364800Y-98134114D01*
X126457986Y-98227300D01*
X126572114Y-98293192D01*
X126699405Y-98327299D01*
X126699406Y-98327300D01*
X126699408Y-98327300D01*
X126831194Y-98327300D01*
X126831194Y-98327299D01*
X126958486Y-98293192D01*
X127072614Y-98227300D01*
X127165800Y-98134114D01*
X127231692Y-98019986D01*
X127265799Y-97892694D01*
X127265800Y-97892694D01*
X127265800Y-97781922D01*
X127287474Y-97729596D01*
X128043781Y-96973289D01*
X128839876Y-96177194D01*
X128892199Y-96155522D01*
X128944525Y-96177196D01*
X130140503Y-97373174D01*
X130162177Y-97425500D01*
X130140503Y-97477826D01*
X130088178Y-97499500D01*
X129944496Y-97499500D01*
X129920424Y-97502292D01*
X129920419Y-97502293D01*
X129821920Y-97545785D01*
X129814880Y-97552826D01*
X129762554Y-97574500D01*
X129733336Y-97574500D01*
X129656914Y-97594977D01*
X129656909Y-97594979D01*
X129610246Y-97621921D01*
X129588388Y-97634540D01*
X126547926Y-100675003D01*
X126495600Y-100696677D01*
X126443274Y-100675003D01*
X126361694Y-100593423D01*
X126342542Y-100560250D01*
X126338192Y-100544014D01*
X126272300Y-100429886D01*
X126179114Y-100336700D01*
X126143581Y-100316185D01*
X126064990Y-100270810D01*
X126064981Y-100270806D01*
X125937694Y-100236700D01*
X125937692Y-100236700D01*
X125805908Y-100236700D01*
X125805906Y-100236700D01*
X125678618Y-100270806D01*
X125678609Y-100270810D01*
X125564485Y-100336700D01*
X125471300Y-100429885D01*
X125405410Y-100544009D01*
X125405406Y-100544018D01*
X125371300Y-100671305D01*
X125371300Y-100803094D01*
X125405406Y-100930381D01*
X125405410Y-100930390D01*
X125452029Y-101011136D01*
X125471300Y-101044514D01*
X125564486Y-101137700D01*
X125678614Y-101203592D01*
X125805905Y-101237699D01*
X125805906Y-101237700D01*
X125805908Y-101237700D01*
X125937694Y-101237700D01*
X125937694Y-101237699D01*
X126064986Y-101203592D01*
X126064986Y-101203591D01*
X126068620Y-101202618D01*
X126078533Y-101203923D01*
X126087773Y-101200096D01*
X126105620Y-101207488D01*
X126124773Y-101210010D01*
X126140099Y-101221770D01*
X126173426Y-101255097D01*
X126195100Y-101307423D01*
X126195100Y-102388034D01*
X126173426Y-102440360D01*
X126121100Y-102462034D01*
X126071724Y-102441582D01*
X126071363Y-102442053D01*
X126069605Y-102440704D01*
X126068774Y-102440360D01*
X126067514Y-102439100D01*
X125953390Y-102373210D01*
X125953381Y-102373206D01*
X125826094Y-102339100D01*
X125826092Y-102339100D01*
X125694308Y-102339100D01*
X125694306Y-102339100D01*
X125567018Y-102373206D01*
X125567009Y-102373210D01*
X125452885Y-102439100D01*
X125359700Y-102532285D01*
X125293810Y-102646409D01*
X125293806Y-102646418D01*
X125259700Y-102773705D01*
X125259700Y-102905494D01*
X125293806Y-103032781D01*
X125293810Y-103032790D01*
X125362125Y-103151114D01*
X125361059Y-103151728D01*
X125374500Y-103191321D01*
X125374500Y-104425500D01*
X125352826Y-104477826D01*
X125300500Y-104499500D01*
X125011861Y-104499500D01*
X124998056Y-104501318D01*
X124943350Y-104486658D01*
X124915033Y-104437607D01*
X124914400Y-104427951D01*
X124914400Y-97949336D01*
X124914399Y-97949335D01*
X124893922Y-97872914D01*
X124893920Y-97872909D01*
X124854359Y-97804388D01*
X124328452Y-97278481D01*
X124306778Y-97226155D01*
X124312411Y-97197836D01*
X124323932Y-97170021D01*
X124375130Y-97046420D01*
X124415500Y-96843465D01*
X124415500Y-96636535D01*
X124375130Y-96433580D01*
X124295941Y-96242402D01*
X124180977Y-96070345D01*
X124034655Y-95924023D01*
X123862598Y-95809059D01*
X123671420Y-95729870D01*
X123671413Y-95729868D01*
X123518516Y-95699455D01*
X123468465Y-95689500D01*
X123261535Y-95689500D01*
X123221385Y-95697486D01*
X123058586Y-95729868D01*
X123058579Y-95729870D01*
X122867401Y-95809059D01*
X122695345Y-95924022D01*
X122695344Y-95924024D01*
X122609126Y-96010242D01*
X122556800Y-96031916D01*
X122504474Y-96010242D01*
X122482800Y-95957916D01*
X122482800Y-94982084D01*
X122504474Y-94929758D01*
X122556800Y-94908084D01*
X122609126Y-94929758D01*
X122695345Y-95015977D01*
X122867402Y-95130941D01*
X123058580Y-95210130D01*
X123261535Y-95250500D01*
X123261536Y-95250500D01*
X123468464Y-95250500D01*
X123468465Y-95250500D01*
X123671420Y-95210130D01*
X123862598Y-95130941D01*
X124034655Y-95015977D01*
X124180977Y-94869655D01*
X124295941Y-94697598D01*
X124375130Y-94506420D01*
X124415500Y-94303465D01*
X124415500Y-94096535D01*
X124375130Y-93893580D01*
X124312410Y-93742161D01*
X124312410Y-93735592D01*
X127025000Y-93735592D01*
X127035620Y-93808482D01*
X127090587Y-93920917D01*
X127179082Y-94009412D01*
X127291517Y-94064379D01*
X127364407Y-94074999D01*
X127364418Y-94075000D01*
X127550000Y-94075000D01*
X127750000Y-94075000D01*
X127935582Y-94075000D01*
X127935592Y-94074999D01*
X128008482Y-94064379D01*
X128120917Y-94009412D01*
X128209412Y-93920917D01*
X128264379Y-93808482D01*
X128274999Y-93735592D01*
X128275000Y-93735581D01*
X128275000Y-93575000D01*
X127750000Y-93575000D01*
X127750000Y-94075000D01*
X127550000Y-94075000D01*
X127550000Y-93575000D01*
X127025000Y-93575000D01*
X127025000Y-93735592D01*
X124312410Y-93735592D01*
X124312410Y-93685526D01*
X124328448Y-93661521D01*
X124775562Y-93214407D01*
X127025000Y-93214407D01*
X127025000Y-93375000D01*
X127550000Y-93375000D01*
X127750000Y-93375000D01*
X128275000Y-93375000D01*
X128275000Y-93214418D01*
X128274999Y-93214407D01*
X128264379Y-93141517D01*
X128209412Y-93029082D01*
X128120917Y-92940587D01*
X128008482Y-92885620D01*
X127935592Y-92875000D01*
X127750000Y-92875000D01*
X127750000Y-93375000D01*
X127550000Y-93375000D01*
X127550000Y-92875000D01*
X127364407Y-92875000D01*
X127291517Y-92885620D01*
X127179082Y-92940587D01*
X127090587Y-93029082D01*
X127035620Y-93141517D01*
X127025000Y-93214407D01*
X124775562Y-93214407D01*
X126950460Y-91039511D01*
X126955210Y-91031282D01*
X126955213Y-91031280D01*
X126955212Y-91031280D01*
X126990021Y-90970989D01*
X127010500Y-90894562D01*
X127010500Y-90894557D01*
X127011612Y-90890408D01*
X127046091Y-90845475D01*
X127102244Y-90838082D01*
X127147177Y-90872561D01*
X127154569Y-90890406D01*
X127158207Y-90903984D01*
X127158210Y-90903990D01*
X127209483Y-90992797D01*
X127224100Y-91018114D01*
X127317286Y-91111300D01*
X127317288Y-91111301D01*
X127320545Y-91113800D01*
X127323101Y-91118228D01*
X127327826Y-91120185D01*
X127336948Y-91142207D01*
X127348866Y-91162848D01*
X127349500Y-91172511D01*
X127349500Y-91213992D01*
X127327826Y-91266318D01*
X127287077Y-91287081D01*
X127266877Y-91290280D01*
X127266871Y-91290282D01*
X127146780Y-91351471D01*
X127051471Y-91446780D01*
X126990281Y-91566873D01*
X126990280Y-91566874D01*
X126974500Y-91666511D01*
X126974500Y-92183488D01*
X126990280Y-92283125D01*
X126990281Y-92283126D01*
X127044612Y-92389758D01*
X127051472Y-92403220D01*
X127146780Y-92498528D01*
X127266874Y-92559719D01*
X127366511Y-92575500D01*
X127366512Y-92575500D01*
X127933489Y-92575500D01*
X127983307Y-92567609D01*
X128033126Y-92559719D01*
X128153220Y-92498528D01*
X128248528Y-92403220D01*
X128309719Y-92283126D01*
X128325500Y-92183488D01*
X128325500Y-91666512D01*
X128309719Y-91566874D01*
X128248528Y-91446780D01*
X128153220Y-91351472D01*
X128153219Y-91351471D01*
X128033128Y-91290282D01*
X128033127Y-91290281D01*
X128033126Y-91290281D01*
X128033124Y-91290280D01*
X128033122Y-91290280D01*
X128012923Y-91287081D01*
X127993365Y-91275095D01*
X127972174Y-91266318D01*
X127969837Y-91260677D01*
X127964633Y-91257488D01*
X127950500Y-91213992D01*
X127950500Y-91123366D01*
X127972174Y-91071040D01*
X127998091Y-91045123D01*
X128025100Y-91018114D01*
X128090992Y-90903986D01*
X128125099Y-90776694D01*
X128125100Y-90776694D01*
X128125100Y-90644906D01*
X128125099Y-90644905D01*
X128121138Y-90630124D01*
X128090992Y-90517614D01*
X128025100Y-90403486D01*
X127931914Y-90310300D01*
X127817790Y-90244410D01*
X127817781Y-90244406D01*
X127690494Y-90210300D01*
X127690492Y-90210300D01*
X127558708Y-90210300D01*
X127558706Y-90210300D01*
X127431418Y-90244406D01*
X127431409Y-90244410D01*
X127317285Y-90310300D01*
X127224100Y-90403485D01*
X127158210Y-90517609D01*
X127158206Y-90517618D01*
X127155978Y-90525936D01*
X127121500Y-90570869D01*
X127065347Y-90578261D01*
X127020414Y-90543783D01*
X127010500Y-90506783D01*
X127010500Y-86574928D01*
X127032174Y-86522602D01*
X127043389Y-86513399D01*
X127048794Y-86509788D01*
X127124322Y-86459322D01*
X127184660Y-86369019D01*
X127200500Y-86289386D01*
X127200500Y-86284412D01*
X127540000Y-86284412D01*
X127552910Y-86349316D01*
X127602083Y-86422911D01*
X127602088Y-86422916D01*
X127675683Y-86472089D01*
X127740588Y-86485000D01*
X127880000Y-86485000D01*
X128080000Y-86485000D01*
X128219412Y-86485000D01*
X128284316Y-86472089D01*
X128357911Y-86422916D01*
X128357916Y-86422911D01*
X128407089Y-86349316D01*
X128420000Y-86284412D01*
X128420000Y-85630000D01*
X128080000Y-85630000D01*
X128080000Y-86485000D01*
X127880000Y-86485000D01*
X127880000Y-85630000D01*
X127540000Y-85630000D01*
X127540000Y-86284412D01*
X127200500Y-86284412D01*
X127200500Y-84775587D01*
X127540000Y-84775587D01*
X127540000Y-85430000D01*
X127880000Y-85430000D01*
X128080000Y-85430000D01*
X128420000Y-85430000D01*
X128420000Y-84775587D01*
X128407089Y-84710683D01*
X128357916Y-84637088D01*
X128357911Y-84637083D01*
X128284316Y-84587910D01*
X128219412Y-84575000D01*
X128080000Y-84575000D01*
X128080000Y-85430000D01*
X127880000Y-85430000D01*
X127880000Y-84575000D01*
X127740588Y-84575000D01*
X127675683Y-84587910D01*
X127602088Y-84637083D01*
X127602083Y-84637088D01*
X127552910Y-84710683D01*
X127540000Y-84775587D01*
X127200500Y-84775587D01*
X127200500Y-84770614D01*
X127184660Y-84690981D01*
X127124322Y-84600678D01*
X127105213Y-84587910D01*
X127043388Y-84546600D01*
X127011922Y-84499508D01*
X127010500Y-84485071D01*
X127010500Y-81061636D01*
X127010499Y-81061635D01*
X126990022Y-80985214D01*
X126990020Y-80985209D01*
X126979420Y-80966849D01*
X126950460Y-80916689D01*
X126894511Y-80860740D01*
X126889597Y-80855826D01*
X126867923Y-80803500D01*
X126889597Y-80751174D01*
X126941923Y-80729500D01*
X126979794Y-80729500D01*
X126979794Y-80729499D01*
X127107086Y-80695392D01*
X127221214Y-80629500D01*
X127314400Y-80536314D01*
X127380292Y-80422186D01*
X127414399Y-80294894D01*
X127414400Y-80294894D01*
X127414400Y-80163106D01*
X127414399Y-80163105D01*
X127390550Y-80074100D01*
X127380292Y-80035814D01*
X127314400Y-79921686D01*
X127221214Y-79828500D01*
X127162782Y-79794764D01*
X127107087Y-79762608D01*
X127107083Y-79762607D01*
X127065346Y-79751423D01*
X127020414Y-79716944D01*
X127010500Y-79679945D01*
X127010500Y-79364928D01*
X127032174Y-79312602D01*
X127043389Y-79303399D01*
X127115232Y-79255396D01*
X127124322Y-79249322D01*
X127184660Y-79159019D01*
X127200500Y-79079386D01*
X127200500Y-77560614D01*
X127184660Y-77480981D01*
X127124322Y-77390678D01*
X127034019Y-77330340D01*
X126954386Y-77314500D01*
X126465614Y-77314500D01*
X126412525Y-77325060D01*
X126385980Y-77330340D01*
X126295678Y-77390677D01*
X126295677Y-77390678D01*
X126235340Y-77480980D01*
X126235340Y-77480981D01*
X126219500Y-77560614D01*
X126219500Y-79079386D01*
X126225034Y-79107206D01*
X126235340Y-79159019D01*
X126295677Y-79249321D01*
X126295680Y-79249324D01*
X126376611Y-79303399D01*
X126408078Y-79350490D01*
X126409500Y-79364928D01*
X126409500Y-80064664D01*
X126419506Y-80102007D01*
X126421599Y-80129113D01*
X126420983Y-80134802D01*
X126413400Y-80163108D01*
X126413400Y-80204961D01*
X126412971Y-80208930D01*
X126401154Y-80230540D01*
X126391726Y-80253303D01*
X126387824Y-80254919D01*
X126385799Y-80258623D01*
X126362163Y-80265548D01*
X126339400Y-80274977D01*
X126335498Y-80273360D01*
X126331447Y-80274548D01*
X126309836Y-80262731D01*
X126287074Y-80253303D01*
X125762174Y-79728403D01*
X125740500Y-79676077D01*
X125740500Y-79364928D01*
X125762174Y-79312602D01*
X125773389Y-79303399D01*
X125845232Y-79255396D01*
X125854322Y-79249322D01*
X125914660Y-79159019D01*
X125930500Y-79079386D01*
X125930500Y-77560614D01*
X125914660Y-77480981D01*
X125854322Y-77390678D01*
X125764019Y-77330340D01*
X125684386Y-77314500D01*
X125195614Y-77314500D01*
X125142525Y-77325060D01*
X125115980Y-77330340D01*
X125025678Y-77390677D01*
X125025677Y-77390678D01*
X124965340Y-77480980D01*
X124949500Y-77560615D01*
X124949500Y-77945500D01*
X124927826Y-77997826D01*
X124875500Y-78019500D01*
X124734500Y-78019500D01*
X124682174Y-77997826D01*
X124660500Y-77945500D01*
X124660500Y-77560615D01*
X124660500Y-77560614D01*
X124644660Y-77480981D01*
X124584322Y-77390678D01*
X124503388Y-77336600D01*
X124471922Y-77289508D01*
X124470500Y-77275071D01*
X124470500Y-72282136D01*
X124470499Y-72282135D01*
X124450022Y-72205714D01*
X124450020Y-72205709D01*
X124410459Y-72137188D01*
X122775097Y-70501826D01*
X122753423Y-70449500D01*
X122775097Y-70397174D01*
X122827423Y-70375500D01*
X123594746Y-70375500D01*
X123594748Y-70375500D01*
X123653231Y-70363867D01*
X123719552Y-70319552D01*
X123763867Y-70253231D01*
X123775500Y-70194748D01*
X123775500Y-68810842D01*
X128474500Y-68810842D01*
X128474500Y-69039157D01*
X128510215Y-69264657D01*
X128510218Y-69264670D01*
X128580766Y-69481793D01*
X128684420Y-69685227D01*
X128687145Y-69688978D01*
X128818621Y-69869937D01*
X128980063Y-70031379D01*
X129164772Y-70165579D01*
X129368201Y-70269231D01*
X129368203Y-70269231D01*
X129368206Y-70269233D01*
X129573367Y-70335894D01*
X129616435Y-70372677D01*
X129624500Y-70406272D01*
X129624500Y-72889564D01*
X129644977Y-72965985D01*
X129644979Y-72965990D01*
X129675535Y-73018913D01*
X129675536Y-73018915D01*
X129684537Y-73034507D01*
X129684541Y-73034512D01*
X132493659Y-75843630D01*
X132515333Y-75895956D01*
X132501561Y-75938952D01*
X132498301Y-75943518D01*
X132446927Y-76048605D01*
X132446927Y-76048606D01*
X132437000Y-76116735D01*
X132437000Y-76483264D01*
X132446927Y-76551393D01*
X132446927Y-76551394D01*
X132498301Y-76656482D01*
X132498302Y-76656483D01*
X132581017Y-76739198D01*
X132686107Y-76790573D01*
X132754240Y-76800500D01*
X132754246Y-76800500D01*
X133995754Y-76800500D01*
X133995760Y-76800500D01*
X134063893Y-76790573D01*
X134168983Y-76739198D01*
X134251698Y-76656483D01*
X134303073Y-76551393D01*
X134313000Y-76483260D01*
X134313000Y-76116740D01*
X134303073Y-76048607D01*
X134251698Y-75943517D01*
X134168983Y-75860802D01*
X134168982Y-75860801D01*
X134063894Y-75809427D01*
X133995764Y-75799500D01*
X133995760Y-75799500D01*
X133330123Y-75799500D01*
X133277797Y-75777826D01*
X133044763Y-75544792D01*
X134362501Y-75544792D01*
X134365408Y-75569868D01*
X134365410Y-75569874D01*
X134410713Y-75672478D01*
X134490021Y-75751786D01*
X134592624Y-75797089D01*
X134592623Y-75797089D01*
X134617710Y-75799999D01*
X135150000Y-75799999D01*
X135150000Y-75450000D01*
X134362501Y-75450000D01*
X134362501Y-75544792D01*
X133044763Y-75544792D01*
X132655181Y-75155210D01*
X134362500Y-75155210D01*
X134362500Y-75250000D01*
X135150000Y-75250000D01*
X135150000Y-74900000D01*
X134617707Y-74900000D01*
X134592631Y-74902908D01*
X134592625Y-74902910D01*
X134490021Y-74948213D01*
X134410713Y-75027521D01*
X134365410Y-75130124D01*
X134362500Y-75155210D01*
X132655181Y-75155210D01*
X130247174Y-72747203D01*
X130225500Y-72694877D01*
X130225500Y-70406272D01*
X130247174Y-70353946D01*
X130276633Y-70335894D01*
X130481793Y-70269233D01*
X130481793Y-70269232D01*
X130481799Y-70269231D01*
X130685228Y-70165579D01*
X130869937Y-70031379D01*
X131031379Y-69869937D01*
X131165579Y-69685228D01*
X131269231Y-69481799D01*
X131286395Y-69428973D01*
X131339781Y-69264670D01*
X131339781Y-69264667D01*
X131339784Y-69264660D01*
X131375500Y-69039157D01*
X131375500Y-68810843D01*
X131339784Y-68585340D01*
X131339782Y-68585335D01*
X131339781Y-68585329D01*
X131269233Y-68368206D01*
X131269231Y-68368203D01*
X131269231Y-68368201D01*
X131165579Y-68164772D01*
X131031379Y-67980063D01*
X130869937Y-67818621D01*
X130869934Y-67818618D01*
X130869932Y-67818617D01*
X130685227Y-67684420D01*
X130481793Y-67580766D01*
X130264670Y-67510218D01*
X130264657Y-67510215D01*
X130039158Y-67474500D01*
X130039157Y-67474500D01*
X129810843Y-67474500D01*
X129810842Y-67474500D01*
X129585342Y-67510215D01*
X129585329Y-67510218D01*
X129368206Y-67580766D01*
X129164772Y-67684420D01*
X128980067Y-67818617D01*
X128818617Y-67980067D01*
X128684420Y-68164772D01*
X128580766Y-68368206D01*
X128510218Y-68585329D01*
X128510215Y-68585342D01*
X128474500Y-68810842D01*
X123775500Y-68810842D01*
X123775500Y-67655252D01*
X123763867Y-67596769D01*
X123719552Y-67530448D01*
X123689272Y-67510215D01*
X123653232Y-67486133D01*
X123653233Y-67486133D01*
X123623989Y-67480316D01*
X123594748Y-67474500D01*
X121055252Y-67474500D01*
X121026010Y-67480316D01*
X120996767Y-67486133D01*
X120930449Y-67530447D01*
X120930447Y-67530449D01*
X120886133Y-67596767D01*
X120874500Y-67655253D01*
X120874500Y-70194746D01*
X120886133Y-70253232D01*
X120896824Y-70269231D01*
X120930448Y-70319552D01*
X120970009Y-70345986D01*
X120996767Y-70363866D01*
X120996768Y-70363866D01*
X120996769Y-70363867D01*
X121055252Y-70375500D01*
X121950500Y-70375500D01*
X122002826Y-70397174D01*
X122024500Y-70449500D01*
X122024500Y-70516264D01*
X122044977Y-70592685D01*
X122044979Y-70592690D01*
X122058146Y-70615495D01*
X122084540Y-70661211D01*
X123847826Y-72424497D01*
X123869500Y-72476823D01*
X123869500Y-77275071D01*
X123847826Y-77327397D01*
X123836612Y-77336600D01*
X123755678Y-77390677D01*
X123755677Y-77390678D01*
X123695340Y-77480980D01*
X123695340Y-77480981D01*
X123679500Y-77560614D01*
X123679500Y-79079386D01*
X123685034Y-79107206D01*
X123695340Y-79159019D01*
X123746744Y-79235952D01*
X123755678Y-79249322D01*
X123845981Y-79309660D01*
X123925614Y-79325500D01*
X123925616Y-79325500D01*
X124116934Y-79325500D01*
X124169260Y-79347174D01*
X124190934Y-79399500D01*
X124169260Y-79451826D01*
X124073900Y-79547185D01*
X124008010Y-79661309D01*
X124008006Y-79661318D01*
X123973900Y-79788605D01*
X123973900Y-79920394D01*
X124008006Y-80047681D01*
X124008010Y-80047690D01*
X124032545Y-80090186D01*
X124073900Y-80161814D01*
X124167086Y-80255000D01*
X124281214Y-80320892D01*
X124408505Y-80354999D01*
X124408506Y-80355000D01*
X124519277Y-80355000D01*
X124571603Y-80376674D01*
X125117826Y-80922897D01*
X125139500Y-80975223D01*
X125139500Y-84485071D01*
X125117826Y-84537397D01*
X125106612Y-84546600D01*
X125025678Y-84600677D01*
X125025677Y-84600678D01*
X124965340Y-84690980D01*
X124965340Y-84690981D01*
X124949500Y-84770614D01*
X124949500Y-86289386D01*
X124957783Y-86331026D01*
X124965340Y-86369019D01*
X125024126Y-86457000D01*
X125025678Y-86459322D01*
X125115981Y-86519660D01*
X125195614Y-86535500D01*
X125195616Y-86535500D01*
X125684384Y-86535500D01*
X125684386Y-86535500D01*
X125764019Y-86519660D01*
X125854322Y-86459322D01*
X125914660Y-86369019D01*
X125930500Y-86289386D01*
X125930500Y-84770614D01*
X125914660Y-84690981D01*
X125854322Y-84600678D01*
X125835213Y-84587910D01*
X125773388Y-84546600D01*
X125741922Y-84499508D01*
X125740500Y-84485071D01*
X125740500Y-80780540D01*
X125740499Y-80780536D01*
X125739148Y-80775491D01*
X125739148Y-80775490D01*
X125730038Y-80741492D01*
X125737430Y-80685340D01*
X125782363Y-80650861D01*
X125838515Y-80658253D01*
X125853842Y-80670013D01*
X126387826Y-81203997D01*
X126409500Y-81256323D01*
X126409500Y-84485071D01*
X126387826Y-84537397D01*
X126376612Y-84546600D01*
X126295678Y-84600677D01*
X126295677Y-84600678D01*
X126235340Y-84690980D01*
X126235340Y-84690981D01*
X126219500Y-84770614D01*
X126219500Y-86289386D01*
X126227783Y-86331026D01*
X126235340Y-86369019D01*
X126295677Y-86459321D01*
X126295680Y-86459324D01*
X126334108Y-86485000D01*
X126371206Y-86509788D01*
X126376611Y-86513399D01*
X126408078Y-86560490D01*
X126409500Y-86574928D01*
X126409500Y-90699876D01*
X126387826Y-90752202D01*
X123903480Y-93236547D01*
X123851154Y-93258221D01*
X123822836Y-93252588D01*
X123671424Y-93189871D01*
X123671413Y-93189868D01*
X123518276Y-93159408D01*
X123468465Y-93149500D01*
X123261535Y-93149500D01*
X123221385Y-93157486D01*
X123058586Y-93189868D01*
X123058579Y-93189870D01*
X122867401Y-93269059D01*
X122695345Y-93384022D01*
X122695344Y-93384024D01*
X122609126Y-93470242D01*
X122556800Y-93491916D01*
X122504474Y-93470242D01*
X122482800Y-93417916D01*
X122482800Y-92442084D01*
X122504474Y-92389758D01*
X122556800Y-92368084D01*
X122609126Y-92389758D01*
X122695345Y-92475977D01*
X122867402Y-92590941D01*
X123058580Y-92670130D01*
X123261535Y-92710500D01*
X123261536Y-92710500D01*
X123468464Y-92710500D01*
X123468465Y-92710500D01*
X123671420Y-92670130D01*
X123862598Y-92590941D01*
X124034655Y-92475977D01*
X124180977Y-92329655D01*
X124295941Y-92157598D01*
X124375130Y-91966420D01*
X124415500Y-91763465D01*
X124415500Y-91556535D01*
X124375130Y-91353580D01*
X124295941Y-91162402D01*
X124180977Y-90990345D01*
X124034655Y-90844023D01*
X124008859Y-90826787D01*
X123862598Y-90729059D01*
X123671420Y-90649870D01*
X123671413Y-90649868D01*
X123518516Y-90619455D01*
X123468465Y-90609500D01*
X123261535Y-90609500D01*
X123221385Y-90617486D01*
X123058586Y-90649868D01*
X123058579Y-90649870D01*
X122867401Y-90729059D01*
X122695345Y-90844022D01*
X122695344Y-90844024D01*
X122609126Y-90930242D01*
X122556800Y-90951916D01*
X122504474Y-90930242D01*
X122482800Y-90877916D01*
X122482800Y-87672822D01*
X122504473Y-87620497D01*
X123658767Y-86466202D01*
X123711092Y-86444529D01*
X123752204Y-86457000D01*
X123755677Y-86459320D01*
X123755678Y-86459322D01*
X123845981Y-86519660D01*
X123925614Y-86535500D01*
X123925616Y-86535500D01*
X124414384Y-86535500D01*
X124414386Y-86535500D01*
X124494019Y-86519660D01*
X124584322Y-86459322D01*
X124644660Y-86369019D01*
X124660500Y-86289386D01*
X124660500Y-84770614D01*
X124644660Y-84690981D01*
X124584322Y-84600678D01*
X124565213Y-84587910D01*
X124494019Y-84540340D01*
X124414386Y-84524500D01*
X123925614Y-84524500D01*
X123872525Y-84535060D01*
X123845980Y-84540340D01*
X123755678Y-84600677D01*
X123755677Y-84600678D01*
X123695340Y-84690980D01*
X123679500Y-84770615D01*
X123679500Y-85564877D01*
X123657826Y-85617203D01*
X121941840Y-87333188D01*
X121902279Y-87401709D01*
X121902277Y-87401714D01*
X121881800Y-87478135D01*
X121881800Y-90568595D01*
X121860126Y-90620921D01*
X121807800Y-90642595D01*
X121766688Y-90630124D01*
X121753232Y-90621133D01*
X121753233Y-90621133D01*
X121723989Y-90615316D01*
X121694748Y-90609500D01*
X119955252Y-90609500D01*
X119926010Y-90615316D01*
X119896767Y-90621133D01*
X119830449Y-90665447D01*
X119830447Y-90665449D01*
X119786133Y-90731767D01*
X119774500Y-90790253D01*
X119774500Y-92529746D01*
X119786133Y-92588232D01*
X119810702Y-92625000D01*
X119830448Y-92654552D01*
X119866775Y-92678825D01*
X119896767Y-92698866D01*
X119896768Y-92698866D01*
X119896769Y-92698867D01*
X119955252Y-92710500D01*
X119955254Y-92710500D01*
X121694746Y-92710500D01*
X121694748Y-92710500D01*
X121753231Y-92698867D01*
X121766687Y-92689875D01*
X121822235Y-92678825D01*
X121869328Y-92710290D01*
X121881800Y-92751404D01*
X121881800Y-93646817D01*
X121860126Y-93699143D01*
X121807800Y-93720817D01*
X121755474Y-93699143D01*
X121746271Y-93687929D01*
X121640977Y-93530345D01*
X121494654Y-93384022D01*
X121322598Y-93269059D01*
X121131420Y-93189870D01*
X121131413Y-93189868D01*
X120978276Y-93159408D01*
X120928465Y-93149500D01*
X120721535Y-93149500D01*
X120681385Y-93157486D01*
X120518586Y-93189868D01*
X120518579Y-93189870D01*
X120327401Y-93269059D01*
X120155345Y-93384022D01*
X120155344Y-93384024D01*
X120009024Y-93530344D01*
X120009022Y-93530345D01*
X119894059Y-93702401D01*
X119814870Y-93893579D01*
X119814868Y-93893586D01*
X119774500Y-94096535D01*
X119774500Y-94303464D01*
X119814868Y-94506413D01*
X119814870Y-94506420D01*
X119894059Y-94697598D01*
X119942799Y-94770544D01*
X120009023Y-94869655D01*
X120155345Y-95015977D01*
X120327402Y-95130941D01*
X120518580Y-95210130D01*
X120721535Y-95250500D01*
X120721536Y-95250500D01*
X120928464Y-95250500D01*
X120928465Y-95250500D01*
X121131420Y-95210130D01*
X121322598Y-95130941D01*
X121494655Y-95015977D01*
X121640977Y-94869655D01*
X121746271Y-94712069D01*
X121793363Y-94680604D01*
X121848912Y-94691653D01*
X121880378Y-94738745D01*
X121881800Y-94753182D01*
X121881800Y-96186817D01*
X121860126Y-96239143D01*
X121807800Y-96260817D01*
X121755474Y-96239143D01*
X121746271Y-96227929D01*
X121640977Y-96070345D01*
X121494654Y-95924022D01*
X121322598Y-95809059D01*
X121131420Y-95729870D01*
X121131413Y-95729868D01*
X120978516Y-95699455D01*
X120928465Y-95689500D01*
X120721535Y-95689500D01*
X120681385Y-95697486D01*
X120518586Y-95729868D01*
X120518579Y-95729870D01*
X120327401Y-95809059D01*
X120155345Y-95924022D01*
X120155344Y-95924024D01*
X120009024Y-96070344D01*
X120009022Y-96070345D01*
X119894059Y-96242401D01*
X119814870Y-96433579D01*
X119814868Y-96433586D01*
X119774500Y-96636535D01*
X119774500Y-96843464D01*
X119814868Y-97046413D01*
X119814870Y-97046420D01*
X119894059Y-97237598D01*
X119942799Y-97310544D01*
X120009023Y-97409655D01*
X120155345Y-97555977D01*
X120327402Y-97670941D01*
X120518580Y-97750130D01*
X120721535Y-97790500D01*
X120721536Y-97790500D01*
X120928464Y-97790500D01*
X120928465Y-97790500D01*
X121131420Y-97750130D01*
X121322598Y-97670941D01*
X121494655Y-97555977D01*
X121640977Y-97409655D01*
X121746271Y-97252069D01*
X121793363Y-97220604D01*
X121848912Y-97231653D01*
X121880378Y-97278745D01*
X121881800Y-97293182D01*
X121881800Y-98726817D01*
X121860126Y-98779143D01*
X121807800Y-98800817D01*
X121755474Y-98779143D01*
X121746271Y-98767929D01*
X121640977Y-98610345D01*
X121494654Y-98464022D01*
X121322598Y-98349059D01*
X121131420Y-98269870D01*
X121131413Y-98269868D01*
X120975722Y-98238900D01*
X120928465Y-98229500D01*
X120721535Y-98229500D01*
X120681385Y-98237486D01*
X120518586Y-98269868D01*
X120518579Y-98269870D01*
X120327401Y-98349059D01*
X120155345Y-98464022D01*
X120155344Y-98464024D01*
X120009024Y-98610344D01*
X120009022Y-98610345D01*
X119894059Y-98782401D01*
X119814870Y-98973579D01*
X119814868Y-98973586D01*
X119774500Y-99176535D01*
X119774500Y-99383464D01*
X119814868Y-99586413D01*
X119814870Y-99586420D01*
X119894059Y-99777598D01*
X120008892Y-99949460D01*
X120009023Y-99949655D01*
X120155345Y-100095977D01*
X120327402Y-100210941D01*
X120518580Y-100290130D01*
X120721535Y-100330500D01*
X120721536Y-100330500D01*
X120928464Y-100330500D01*
X120928465Y-100330500D01*
X121131420Y-100290130D01*
X121322598Y-100210941D01*
X121494655Y-100095977D01*
X121640977Y-99949655D01*
X121746271Y-99792069D01*
X121793363Y-99760604D01*
X121848912Y-99771653D01*
X121880378Y-99818745D01*
X121881800Y-99833182D01*
X121881800Y-100366464D01*
X121902277Y-100442885D01*
X121902279Y-100442890D01*
X121933369Y-100496738D01*
X121933371Y-100496741D01*
X121941840Y-100511411D01*
X123890026Y-102459597D01*
X123911700Y-102511923D01*
X123911700Y-105686864D01*
X123932177Y-105763285D01*
X123932179Y-105763290D01*
X123961346Y-105813808D01*
X123971740Y-105831811D01*
X124702826Y-106562897D01*
X124724500Y-106615222D01*
X124724500Y-106713137D01*
X124730740Y-106760543D01*
X124730741Y-106760545D01*
X124779253Y-106864579D01*
X124812348Y-106897674D01*
X124834022Y-106950000D01*
X124812348Y-107002326D01*
X124779253Y-107035420D01*
X124744263Y-107110453D01*
X124729523Y-107131504D01*
X123770202Y-108090826D01*
X123717876Y-108112500D01*
X123607106Y-108112500D01*
X123479818Y-108146606D01*
X123479809Y-108146610D01*
X123365685Y-108212500D01*
X123272500Y-108305685D01*
X123206610Y-108419809D01*
X123206606Y-108419818D01*
X123172500Y-108547105D01*
X123172500Y-108678894D01*
X123206606Y-108806181D01*
X123206610Y-108806190D01*
X123254195Y-108888609D01*
X123272500Y-108920314D01*
X123365686Y-109013500D01*
X123479814Y-109079392D01*
X123607105Y-109113499D01*
X123607106Y-109113500D01*
X123607108Y-109113500D01*
X123738894Y-109113500D01*
X123738894Y-109113499D01*
X123866186Y-109079392D01*
X123980314Y-109013500D01*
X124073500Y-108920314D01*
X124139392Y-108806186D01*
X124173499Y-108678894D01*
X124173500Y-108678894D01*
X124173500Y-108568122D01*
X124195174Y-108515796D01*
X124369935Y-108341035D01*
X124598175Y-108112794D01*
X124650500Y-108091121D01*
X124702826Y-108112795D01*
X124724500Y-108165121D01*
X124724500Y-108313137D01*
X124730740Y-108360543D01*
X124730741Y-108360545D01*
X124779253Y-108464579D01*
X124812348Y-108497674D01*
X124834022Y-108550000D01*
X124812348Y-108602326D01*
X124779253Y-108635420D01*
X124730740Y-108739456D01*
X124724500Y-108786862D01*
X124724500Y-109113137D01*
X124730740Y-109160543D01*
X124730741Y-109160545D01*
X124779253Y-109264579D01*
X124812348Y-109297674D01*
X124834022Y-109350000D01*
X124812348Y-109402326D01*
X124779253Y-109435420D01*
X124730740Y-109539456D01*
X124724500Y-109586862D01*
X124724500Y-109913137D01*
X124730740Y-109960543D01*
X124730741Y-109960545D01*
X124779253Y-110064579D01*
X124812348Y-110097674D01*
X124834022Y-110150000D01*
X124812348Y-110202326D01*
X124779253Y-110235420D01*
X124730740Y-110339456D01*
X124724500Y-110386862D01*
X124724500Y-110713137D01*
X124730740Y-110760543D01*
X124730741Y-110760545D01*
X124779253Y-110864579D01*
X124860421Y-110945747D01*
X124964455Y-110994259D01*
X125011861Y-111000500D01*
X125300500Y-111000499D01*
X125352826Y-111022173D01*
X125374500Y-111074499D01*
X125374500Y-111587664D01*
X125394978Y-111664088D01*
X125419067Y-111705813D01*
X125419068Y-111705813D01*
X125434537Y-111732607D01*
X125434538Y-111732608D01*
X125434540Y-111732611D01*
X125465126Y-111763197D01*
X125486800Y-111815522D01*
X125486800Y-111926294D01*
X125520906Y-112053581D01*
X125520910Y-112053590D01*
X125537035Y-112081519D01*
X125586800Y-112167714D01*
X125679986Y-112260900D01*
X125794114Y-112326792D01*
X125921405Y-112360899D01*
X125921406Y-112360900D01*
X125921408Y-112360900D01*
X126053194Y-112360900D01*
X126053194Y-112360899D01*
X126180486Y-112326792D01*
X126294614Y-112260900D01*
X126387800Y-112167714D01*
X126453692Y-112053586D01*
X126454020Y-112052358D01*
X126454409Y-112051851D01*
X126455546Y-112049108D01*
X126456281Y-112049412D01*
X126488493Y-112007423D01*
X126544644Y-112000024D01*
X126589582Y-112034498D01*
X126599500Y-112071505D01*
X126599500Y-112588137D01*
X126605740Y-112635543D01*
X126605741Y-112635545D01*
X126654253Y-112739579D01*
X126735421Y-112820747D01*
X126839455Y-112869259D01*
X126886861Y-112875500D01*
X127213138Y-112875499D01*
X127260545Y-112869259D01*
X127364579Y-112820747D01*
X127397674Y-112787652D01*
X127450000Y-112765978D01*
X127502326Y-112787652D01*
X127527826Y-112813152D01*
X127549500Y-112865478D01*
X127549500Y-114847923D01*
X127527826Y-114900249D01*
X127475500Y-114921923D01*
X127423174Y-114900249D01*
X127411415Y-114884924D01*
X127401000Y-114866886D01*
X127307814Y-114773700D01*
X127193690Y-114707810D01*
X127193681Y-114707806D01*
X127066394Y-114673700D01*
X127066392Y-114673700D01*
X126934608Y-114673700D01*
X126934606Y-114673700D01*
X126807318Y-114707806D01*
X126807309Y-114707810D01*
X126693185Y-114773700D01*
X126614860Y-114852026D01*
X126562534Y-114873700D01*
X126524500Y-114873700D01*
X126472174Y-114852026D01*
X126450500Y-114799700D01*
X126450500Y-114616511D01*
X126434719Y-114516874D01*
X126434718Y-114516873D01*
X126428145Y-114503973D01*
X126373528Y-114396780D01*
X126278220Y-114301472D01*
X126278219Y-114301471D01*
X126158126Y-114240281D01*
X126158125Y-114240280D01*
X126058489Y-114224500D01*
X126058488Y-114224500D01*
X125541512Y-114224500D01*
X125541511Y-114224500D01*
X125441874Y-114240280D01*
X125441873Y-114240281D01*
X125321780Y-114301471D01*
X125226471Y-114396780D01*
X125165281Y-114516873D01*
X125165280Y-114516874D01*
X125149500Y-114616511D01*
X125149500Y-115183488D01*
X125165281Y-115283126D01*
X125165281Y-115283129D01*
X125174903Y-115302013D01*
X125179346Y-115358476D01*
X125161294Y-115387933D01*
X123121403Y-117427826D01*
X123069077Y-117449500D01*
X122211008Y-117449500D01*
X122158682Y-117427826D01*
X122137919Y-117387077D01*
X122134719Y-117366877D01*
X122134719Y-117366874D01*
X122073528Y-117246780D01*
X121978220Y-117151472D01*
X121978219Y-117151471D01*
X121858126Y-117090281D01*
X121858125Y-117090280D01*
X121758489Y-117074500D01*
X121758488Y-117074500D01*
X121241512Y-117074500D01*
X121241511Y-117074500D01*
X121141874Y-117090280D01*
X121141873Y-117090281D01*
X121021780Y-117151471D01*
X120926471Y-117246780D01*
X120865281Y-117366873D01*
X120865280Y-117366874D01*
X120849500Y-117466511D01*
X120849500Y-118033488D01*
X120865280Y-118133125D01*
X120865281Y-118133126D01*
X120920975Y-118242433D01*
X120926472Y-118253220D01*
X121021780Y-118348528D01*
X121141874Y-118409719D01*
X121241511Y-118425500D01*
X121241512Y-118425500D01*
X121758489Y-118425500D01*
X121808307Y-118417609D01*
X121858126Y-118409719D01*
X121978220Y-118348528D01*
X122073528Y-118253220D01*
X122134719Y-118133126D01*
X122137919Y-118112923D01*
X122167512Y-118064633D01*
X122211008Y-118050500D01*
X123263764Y-118050500D01*
X123263764Y-118050499D01*
X123340189Y-118030021D01*
X123408711Y-117990460D01*
X123464660Y-117934511D01*
X125801997Y-115597174D01*
X125854323Y-115575500D01*
X126058489Y-115575500D01*
X126108307Y-115567609D01*
X126158126Y-115559719D01*
X126278220Y-115498528D01*
X126280374Y-115496374D01*
X126282260Y-115495592D01*
X126282936Y-115495102D01*
X126283053Y-115495264D01*
X126332700Y-115474700D01*
X126562534Y-115474700D01*
X126614860Y-115496374D01*
X126693186Y-115574700D01*
X126807314Y-115640592D01*
X126934605Y-115674699D01*
X126934606Y-115674700D01*
X126934608Y-115674700D01*
X127066394Y-115674700D01*
X127066394Y-115674699D01*
X127193686Y-115640592D01*
X127307814Y-115574700D01*
X127401000Y-115481514D01*
X127411414Y-115463475D01*
X127456347Y-115428998D01*
X127512500Y-115436390D01*
X127546978Y-115481323D01*
X127549500Y-115500476D01*
X127549500Y-116614564D01*
X127569977Y-116690985D01*
X127569979Y-116690990D01*
X127572597Y-116695524D01*
X127574893Y-116699500D01*
X127609540Y-116759511D01*
X127656441Y-116806412D01*
X127659526Y-116810492D01*
X127665471Y-116833325D01*
X127674500Y-116855123D01*
X127674500Y-117144876D01*
X127652826Y-117197202D01*
X125465489Y-119384540D01*
X125409540Y-119440488D01*
X125369979Y-119509009D01*
X125369977Y-119509014D01*
X125349500Y-119585435D01*
X125349500Y-120695800D01*
X125327826Y-120748126D01*
X125275500Y-120769800D01*
X122640136Y-120769800D01*
X122563714Y-120790277D01*
X122563709Y-120790279D01*
X122495188Y-120829840D01*
X122372203Y-120952826D01*
X122319877Y-120974500D01*
X121841511Y-120974500D01*
X121741874Y-120990280D01*
X121741873Y-120990281D01*
X121621780Y-121051471D01*
X121526471Y-121146780D01*
X121465281Y-121266873D01*
X121465280Y-121266874D01*
X121449500Y-121366511D01*
X121449500Y-121883488D01*
X121465280Y-121983125D01*
X121465281Y-121983126D01*
X121526472Y-122103220D01*
X121621780Y-122198528D01*
X121741874Y-122259719D01*
X121841511Y-122275500D01*
X121841512Y-122275500D01*
X122408489Y-122275500D01*
X122458307Y-122267609D01*
X122508126Y-122259719D01*
X122628220Y-122198528D01*
X122723528Y-122103220D01*
X122784719Y-121983126D01*
X122800500Y-121883488D01*
X122800500Y-121444800D01*
X122822174Y-121392474D01*
X122874500Y-121370800D01*
X123340207Y-121370800D01*
X123392533Y-121392474D01*
X123414207Y-121444800D01*
X123413296Y-121456376D01*
X123399500Y-121543480D01*
X123399500Y-122156519D01*
X123414353Y-122250304D01*
X123414354Y-122250306D01*
X123471950Y-122363342D01*
X123561658Y-122453050D01*
X123659096Y-122502697D01*
X123666826Y-122511749D01*
X123677826Y-122516305D01*
X123684519Y-122532464D01*
X123695878Y-122545764D01*
X123699500Y-122568631D01*
X123699500Y-122612434D01*
X123677826Y-122664760D01*
X123599500Y-122743085D01*
X123533610Y-122857209D01*
X123533606Y-122857218D01*
X123499500Y-122984505D01*
X123499500Y-123116294D01*
X123533606Y-123243581D01*
X123533610Y-123243590D01*
X123586045Y-123334409D01*
X123599500Y-123357714D01*
X123692686Y-123450900D01*
X123806814Y-123516792D01*
X123934105Y-123550899D01*
X123934106Y-123550900D01*
X123970155Y-123550900D01*
X124022481Y-123572574D01*
X124044155Y-123624900D01*
X124031683Y-123666013D01*
X124011133Y-123696766D01*
X123999500Y-123755253D01*
X123999500Y-125095191D01*
X123977826Y-125147517D01*
X123944654Y-125166669D01*
X123881816Y-125183507D01*
X123881812Y-125183508D01*
X123767685Y-125249400D01*
X123674500Y-125342585D01*
X123608610Y-125456709D01*
X123608606Y-125456718D01*
X123574500Y-125584005D01*
X123574500Y-125715794D01*
X123608606Y-125843081D01*
X123608610Y-125843090D01*
X123649550Y-125914000D01*
X123656942Y-125970153D01*
X123622464Y-126015086D01*
X123585465Y-126025000D01*
X123535230Y-126025000D01*
X123491473Y-126033703D01*
X123441856Y-126066855D01*
X123441855Y-126066856D01*
X123408703Y-126116472D01*
X123400000Y-126160226D01*
X123400000Y-127025000D01*
X124400000Y-127025000D01*
X124600000Y-127025000D01*
X125599999Y-127025000D01*
X125599999Y-126160226D01*
X125800000Y-126160226D01*
X125800000Y-127025000D01*
X126800000Y-127025000D01*
X127000000Y-127025000D01*
X127999999Y-127025000D01*
X127999999Y-126460226D01*
X128250000Y-126460226D01*
X128250000Y-127025000D01*
X129025000Y-127025000D01*
X129225000Y-127025000D01*
X129999999Y-127025000D01*
X129999999Y-126460221D01*
X129991298Y-126416475D01*
X129958144Y-126366856D01*
X129958143Y-126366855D01*
X129908527Y-126333703D01*
X129864773Y-126325000D01*
X129225000Y-126325000D01*
X129225000Y-127025000D01*
X129025000Y-127025000D01*
X129025000Y-126325000D01*
X128385229Y-126325000D01*
X128341473Y-126333703D01*
X128291856Y-126366855D01*
X128291855Y-126366856D01*
X128258703Y-126416472D01*
X128250000Y-126460226D01*
X127999999Y-126460226D01*
X127999999Y-126160221D01*
X127991298Y-126116475D01*
X127958144Y-126066856D01*
X127958143Y-126066855D01*
X127908527Y-126033703D01*
X127864773Y-126025000D01*
X127000000Y-126025000D01*
X127000000Y-127025000D01*
X126800000Y-127025000D01*
X126800000Y-126025000D01*
X125935229Y-126025000D01*
X125891473Y-126033703D01*
X125841856Y-126066855D01*
X125841855Y-126066856D01*
X125808703Y-126116472D01*
X125800000Y-126160226D01*
X125599999Y-126160226D01*
X125599999Y-126160221D01*
X125591298Y-126116475D01*
X125558144Y-126066856D01*
X125558143Y-126066855D01*
X125508527Y-126033703D01*
X125464773Y-126025000D01*
X124600000Y-126025000D01*
X124600000Y-127025000D01*
X124400000Y-127025000D01*
X124400000Y-126063366D01*
X124421674Y-126011040D01*
X124473674Y-125959040D01*
X124486253Y-125953829D01*
X124493875Y-125925386D01*
X124541392Y-125843086D01*
X124557747Y-125782046D01*
X124592225Y-125737114D01*
X124629225Y-125727200D01*
X125089564Y-125727200D01*
X125089564Y-125727199D01*
X125165989Y-125706721D01*
X125234511Y-125667160D01*
X125290460Y-125611211D01*
X125330021Y-125542689D01*
X125350499Y-125466264D01*
X125350500Y-125466264D01*
X125350500Y-125389859D01*
X125350534Y-125389778D01*
X127950001Y-125389778D01*
X127958701Y-125433524D01*
X127991855Y-125483143D01*
X127991856Y-125483144D01*
X128041472Y-125516296D01*
X128085226Y-125524999D01*
X128800000Y-125524999D01*
X129000000Y-125524999D01*
X129714779Y-125524999D01*
X129758524Y-125516298D01*
X129808143Y-125483144D01*
X129808144Y-125483143D01*
X129841296Y-125433527D01*
X129850000Y-125389773D01*
X129850000Y-124775000D01*
X129000000Y-124775000D01*
X129000000Y-125524999D01*
X128800000Y-125524999D01*
X128800000Y-124775000D01*
X127950001Y-124775000D01*
X127950001Y-125389778D01*
X125350534Y-125389778D01*
X125372174Y-125337533D01*
X125424500Y-125315859D01*
X125438926Y-125317279D01*
X125480252Y-125325500D01*
X125480255Y-125325500D01*
X125919746Y-125325500D01*
X125919748Y-125325500D01*
X125978231Y-125313867D01*
X125978232Y-125313866D01*
X125978233Y-125313866D01*
X125983886Y-125310089D01*
X126039434Y-125299037D01*
X126066114Y-125310089D01*
X126071766Y-125313866D01*
X126071768Y-125313866D01*
X126071769Y-125313867D01*
X126130252Y-125325500D01*
X126130254Y-125325500D01*
X126569746Y-125325500D01*
X126569748Y-125325500D01*
X126628231Y-125313867D01*
X126683583Y-125276880D01*
X126739131Y-125265831D01*
X126739133Y-125265831D01*
X126785226Y-125274999D01*
X126900000Y-125274999D01*
X127100000Y-125274999D01*
X127214779Y-125274999D01*
X127258524Y-125266298D01*
X127308143Y-125233144D01*
X127308144Y-125233143D01*
X127341296Y-125183527D01*
X127350000Y-125139773D01*
X127350000Y-124550000D01*
X127100000Y-124550000D01*
X127100000Y-125274999D01*
X126900000Y-125274999D01*
X126900000Y-124350000D01*
X127100000Y-124350000D01*
X127349999Y-124350000D01*
X127349999Y-123960226D01*
X127950000Y-123960226D01*
X127950000Y-124575000D01*
X128800000Y-124575000D01*
X129000000Y-124575000D01*
X129849999Y-124575000D01*
X129849999Y-123960221D01*
X129841298Y-123916475D01*
X129808144Y-123866856D01*
X129808143Y-123866855D01*
X129758527Y-123833703D01*
X129714773Y-123825000D01*
X129000000Y-123825000D01*
X129000000Y-124575000D01*
X128800000Y-124575000D01*
X128800000Y-123825000D01*
X128085229Y-123825000D01*
X128041473Y-123833703D01*
X127991856Y-123866855D01*
X127991855Y-123866856D01*
X127958703Y-123916472D01*
X127950000Y-123960226D01*
X127349999Y-123960226D01*
X127349999Y-123760221D01*
X127341298Y-123716475D01*
X127308144Y-123666856D01*
X127308143Y-123666855D01*
X127258527Y-123633703D01*
X127214773Y-123625000D01*
X127100000Y-123625000D01*
X127100000Y-124350000D01*
X126900000Y-124350000D01*
X126900000Y-123625000D01*
X126785229Y-123625000D01*
X126739129Y-123634169D01*
X126683582Y-123623118D01*
X126628232Y-123586133D01*
X126628233Y-123586133D01*
X126598989Y-123580316D01*
X126569748Y-123574500D01*
X126130252Y-123574500D01*
X126088936Y-123582718D01*
X126033387Y-123571668D01*
X126001922Y-123524576D01*
X126000500Y-123510140D01*
X126000500Y-123205522D01*
X126022173Y-123153197D01*
X127740660Y-121434711D01*
X127747274Y-121423255D01*
X127755498Y-121409012D01*
X127775439Y-121374471D01*
X127780221Y-121366189D01*
X127800699Y-121289764D01*
X127800700Y-121289764D01*
X127800700Y-119381712D01*
X128065000Y-119381712D01*
X128065000Y-119525000D01*
X128720000Y-119525000D01*
X128920000Y-119525000D01*
X129574999Y-119525000D01*
X129574999Y-119381713D01*
X129574999Y-119381712D01*
X130575000Y-119381712D01*
X130575000Y-119525000D01*
X131230000Y-119525000D01*
X131430000Y-119525000D01*
X132084999Y-119525000D01*
X132084999Y-119381713D01*
X132072017Y-119316446D01*
X132022565Y-119242435D01*
X132022564Y-119242434D01*
X131948553Y-119192982D01*
X131883287Y-119180000D01*
X131430000Y-119180000D01*
X131430000Y-119525000D01*
X131230000Y-119525000D01*
X131230000Y-119180000D01*
X130776713Y-119180000D01*
X130711446Y-119192982D01*
X130637435Y-119242434D01*
X130637434Y-119242435D01*
X130587982Y-119316446D01*
X130575000Y-119381712D01*
X129574999Y-119381712D01*
X129562017Y-119316446D01*
X129512565Y-119242435D01*
X129512564Y-119242434D01*
X129438553Y-119192982D01*
X129373287Y-119180000D01*
X128920000Y-119180000D01*
X128920000Y-119525000D01*
X128720000Y-119525000D01*
X128720000Y-119180000D01*
X128266713Y-119180000D01*
X128201446Y-119192982D01*
X128127435Y-119242434D01*
X128127434Y-119242435D01*
X128077982Y-119316446D01*
X128065000Y-119381712D01*
X127800700Y-119381712D01*
X127800700Y-119206723D01*
X127822374Y-119154397D01*
X128567053Y-118409718D01*
X129091179Y-117885592D01*
X131275000Y-117885592D01*
X131285620Y-117958482D01*
X131340587Y-118070917D01*
X131429082Y-118159412D01*
X131541517Y-118214379D01*
X131614407Y-118224999D01*
X131614418Y-118225000D01*
X131800000Y-118225000D01*
X131800000Y-117725000D01*
X131275000Y-117725000D01*
X131275000Y-117885592D01*
X129091179Y-117885592D01*
X129335060Y-117641711D01*
X129357381Y-117603050D01*
X129374621Y-117573189D01*
X129374621Y-117573186D01*
X129376478Y-117568707D01*
X129378691Y-117569624D01*
X129408378Y-117530928D01*
X129464530Y-117523531D01*
X129497710Y-117542685D01*
X129518810Y-117563785D01*
X129623750Y-117615087D01*
X129691781Y-117624999D01*
X129825000Y-117624999D01*
X130025000Y-117624999D01*
X130158211Y-117624999D01*
X130158224Y-117624998D01*
X130184836Y-117621121D01*
X130226250Y-117615087D01*
X130331188Y-117563786D01*
X130413785Y-117481189D01*
X130465087Y-117376249D01*
X130466813Y-117364407D01*
X131275000Y-117364407D01*
X131275000Y-117525000D01*
X131800000Y-117525000D01*
X131800000Y-117025000D01*
X131614407Y-117025000D01*
X131541517Y-117035620D01*
X131429082Y-117090587D01*
X131340587Y-117179082D01*
X131285620Y-117291517D01*
X131275000Y-117364407D01*
X130466813Y-117364407D01*
X130468757Y-117351065D01*
X130468757Y-117351064D01*
X130474999Y-117308221D01*
X130475000Y-117308212D01*
X130475000Y-117100000D01*
X130025000Y-117100000D01*
X130025000Y-117624999D01*
X129825000Y-117624999D01*
X129825000Y-116900000D01*
X130025000Y-116900000D01*
X130474999Y-116900000D01*
X130474999Y-116691789D01*
X130474998Y-116691775D01*
X130465087Y-116623749D01*
X130413786Y-116518811D01*
X130331189Y-116436214D01*
X130226249Y-116384912D01*
X130158223Y-116375000D01*
X130025000Y-116375000D01*
X130025000Y-116900000D01*
X129825000Y-116900000D01*
X129825000Y-116351226D01*
X129820136Y-116339484D01*
X129841808Y-116287162D01*
X131373048Y-114755921D01*
X131425373Y-114734248D01*
X131477699Y-114755922D01*
X131496851Y-114789095D01*
X131527206Y-114902381D01*
X131527207Y-114902384D01*
X131527208Y-114902386D01*
X131569685Y-114975959D01*
X131589586Y-115010427D01*
X131599500Y-115047427D01*
X131599500Y-115363992D01*
X131577826Y-115416318D01*
X131537077Y-115437081D01*
X131516877Y-115440280D01*
X131516871Y-115440282D01*
X131396780Y-115501471D01*
X131301471Y-115596780D01*
X131240281Y-115716873D01*
X131240280Y-115716874D01*
X131224500Y-115816511D01*
X131224500Y-116333488D01*
X131240280Y-116433125D01*
X131240281Y-116433126D01*
X131283939Y-116518811D01*
X131301472Y-116553220D01*
X131396780Y-116648528D01*
X131516874Y-116709719D01*
X131616511Y-116725500D01*
X131616512Y-116725500D01*
X132183489Y-116725500D01*
X132288878Y-116708808D01*
X132289284Y-116711373D01*
X132336689Y-116715100D01*
X132373476Y-116758163D01*
X132377100Y-116781037D01*
X132377100Y-116975063D01*
X132355426Y-117027389D01*
X132303100Y-117049063D01*
X132270600Y-117041544D01*
X132258483Y-117035620D01*
X132185592Y-117025000D01*
X132000000Y-117025000D01*
X132000000Y-118225000D01*
X132185582Y-118225000D01*
X132185592Y-118224999D01*
X132258481Y-118214379D01*
X132270597Y-118208456D01*
X132327125Y-118204945D01*
X132369580Y-118242433D01*
X132377100Y-118274936D01*
X132377100Y-120446277D01*
X132355426Y-120498603D01*
X132261826Y-120592203D01*
X132209500Y-120613877D01*
X132157174Y-120592203D01*
X132135500Y-120539877D01*
X132135500Y-120326739D01*
X132125109Y-120274500D01*
X132119588Y-120246743D01*
X132058973Y-120156027D01*
X132021756Y-120131159D01*
X131990292Y-120084068D01*
X132001342Y-120028519D01*
X132021766Y-120008098D01*
X132022566Y-120007563D01*
X132072017Y-119933553D01*
X132085000Y-119868287D01*
X132085000Y-119725000D01*
X130575001Y-119725000D01*
X130575001Y-119868286D01*
X130587982Y-119933553D01*
X130637433Y-120007563D01*
X130638237Y-120008100D01*
X130638774Y-120008904D01*
X130642589Y-120012719D01*
X130641830Y-120013477D01*
X130669706Y-120055190D01*
X130658661Y-120110740D01*
X130638242Y-120131160D01*
X130601029Y-120156025D01*
X130601026Y-120156028D01*
X130556118Y-120223237D01*
X130509026Y-120254702D01*
X130453477Y-120243652D01*
X130442264Y-120234450D01*
X130382314Y-120174500D01*
X130268190Y-120108610D01*
X130268181Y-120108606D01*
X130140894Y-120074500D01*
X130140892Y-120074500D01*
X130009108Y-120074500D01*
X130009106Y-120074500D01*
X129881818Y-120108606D01*
X129881809Y-120108610D01*
X129767683Y-120174501D01*
X129707734Y-120234450D01*
X129655408Y-120256124D01*
X129603083Y-120234449D01*
X129593885Y-120223242D01*
X129548973Y-120156027D01*
X129511756Y-120131159D01*
X129480292Y-120084068D01*
X129491342Y-120028519D01*
X129511766Y-120008098D01*
X129512566Y-120007563D01*
X129562017Y-119933553D01*
X129575000Y-119868287D01*
X129575000Y-119725000D01*
X128065001Y-119725000D01*
X128065001Y-119868286D01*
X128077982Y-119933553D01*
X128127433Y-120007563D01*
X128128237Y-120008100D01*
X128128774Y-120008904D01*
X128132589Y-120012719D01*
X128131830Y-120013477D01*
X128159706Y-120055190D01*
X128148661Y-120110740D01*
X128128242Y-120131160D01*
X128091029Y-120156025D01*
X128091026Y-120156028D01*
X128030412Y-120246742D01*
X128030412Y-120246743D01*
X128014500Y-120326738D01*
X128014500Y-120823262D01*
X128030412Y-120903257D01*
X128091027Y-120993973D01*
X128091030Y-120993975D01*
X128094729Y-120997674D01*
X128116403Y-121050000D01*
X128094729Y-121102326D01*
X128091026Y-121106028D01*
X128030412Y-121196742D01*
X128030412Y-121196743D01*
X128014500Y-121276738D01*
X128014500Y-121773262D01*
X128030412Y-121853257D01*
X128091027Y-121943973D01*
X128181743Y-122004588D01*
X128261738Y-122020500D01*
X128261740Y-122020500D01*
X129378260Y-122020500D01*
X129378262Y-122020500D01*
X129458257Y-122004588D01*
X129548973Y-121943973D01*
X129606161Y-121858385D01*
X129653252Y-121826922D01*
X129667688Y-121825500D01*
X130482312Y-121825500D01*
X130534638Y-121847174D01*
X130543834Y-121858379D01*
X130601027Y-121943973D01*
X130691743Y-122004588D01*
X130771738Y-122020500D01*
X130771740Y-122020500D01*
X131888260Y-122020500D01*
X131888262Y-122020500D01*
X131968257Y-122004588D01*
X132058973Y-121943973D01*
X132119588Y-121853257D01*
X132135500Y-121773262D01*
X132135500Y-121599122D01*
X132157173Y-121546797D01*
X132918060Y-120785911D01*
X132957622Y-120717388D01*
X132978100Y-120640962D01*
X132978100Y-120561838D01*
X132978100Y-114502738D01*
X132978100Y-114502736D01*
X132978099Y-114502735D01*
X132957622Y-114426314D01*
X132957620Y-114426309D01*
X132918059Y-114357788D01*
X132189474Y-113629203D01*
X132167800Y-113576877D01*
X132167800Y-112848178D01*
X132189474Y-112795852D01*
X132197674Y-112787652D01*
X132250000Y-112765978D01*
X132302326Y-112787652D01*
X132335421Y-112820747D01*
X132439455Y-112869259D01*
X132486861Y-112875500D01*
X132813138Y-112875499D01*
X132860545Y-112869259D01*
X132964579Y-112820747D01*
X133045747Y-112739579D01*
X133094259Y-112635545D01*
X133100500Y-112588139D01*
X133100499Y-111261862D01*
X133094259Y-111214455D01*
X133045747Y-111110421D01*
X132972174Y-111036848D01*
X132950500Y-110984522D01*
X132950500Y-110815035D01*
X132972174Y-110762709D01*
X133024500Y-110741035D01*
X133076826Y-110762709D01*
X133091566Y-110783760D01*
X133129253Y-110864579D01*
X133210421Y-110945747D01*
X133314455Y-110994259D01*
X133361861Y-111000500D01*
X133954476Y-111000499D01*
X134006802Y-111022173D01*
X134747826Y-111763197D01*
X134769500Y-111815523D01*
X134769500Y-111926294D01*
X134803606Y-112053581D01*
X134803610Y-112053590D01*
X134819735Y-112081519D01*
X134869500Y-112167714D01*
X134962686Y-112260900D01*
X135076814Y-112326792D01*
X135204105Y-112360899D01*
X135204106Y-112360900D01*
X135204108Y-112360900D01*
X135335894Y-112360900D01*
X135335894Y-112360899D01*
X135463186Y-112326792D01*
X135577314Y-112260900D01*
X135670500Y-112167714D01*
X135736392Y-112053586D01*
X135770499Y-111926294D01*
X135770500Y-111926294D01*
X135770500Y-111794506D01*
X135770499Y-111794505D01*
X135736393Y-111667218D01*
X135736392Y-111667215D01*
X135736392Y-111667214D01*
X135670500Y-111553086D01*
X135577314Y-111459900D01*
X135463190Y-111394010D01*
X135463181Y-111394006D01*
X135335894Y-111359900D01*
X135335892Y-111359900D01*
X135225123Y-111359900D01*
X135172797Y-111338226D01*
X134862274Y-111027703D01*
X134840600Y-110975377D01*
X134862273Y-110923052D01*
X134920747Y-110864579D01*
X134969259Y-110760545D01*
X134975500Y-110713139D01*
X134975499Y-110386862D01*
X134969259Y-110339455D01*
X134920747Y-110235421D01*
X134887652Y-110202326D01*
X134865978Y-110150000D01*
X134887652Y-110097674D01*
X134895900Y-110089426D01*
X134920747Y-110064579D01*
X134969259Y-109960545D01*
X134975500Y-109913139D01*
X134975499Y-109586862D01*
X134969259Y-109539455D01*
X134920747Y-109435421D01*
X134887652Y-109402326D01*
X134865978Y-109350000D01*
X134887652Y-109297674D01*
X134897826Y-109287500D01*
X134920747Y-109264579D01*
X134969259Y-109160545D01*
X134975500Y-109113139D01*
X134975499Y-108786862D01*
X134969259Y-108739455D01*
X134920747Y-108635421D01*
X134887652Y-108602326D01*
X134865978Y-108550000D01*
X134887652Y-108497674D01*
X134898027Y-108487299D01*
X134920747Y-108464579D01*
X134969259Y-108360545D01*
X134975500Y-108313139D01*
X134975499Y-107986862D01*
X134969259Y-107939455D01*
X134920747Y-107835421D01*
X134887652Y-107802326D01*
X134865978Y-107750000D01*
X134887652Y-107697674D01*
X134896467Y-107688859D01*
X134920747Y-107664579D01*
X134969259Y-107560545D01*
X134975500Y-107513139D01*
X134975499Y-107186862D01*
X134969259Y-107139455D01*
X134920747Y-107035421D01*
X134887652Y-107002326D01*
X134865978Y-106950000D01*
X134887652Y-106897674D01*
X134913152Y-106872174D01*
X134965478Y-106850500D01*
X135543264Y-106850500D01*
X135543264Y-106850499D01*
X135619689Y-106830021D01*
X135687945Y-106790613D01*
X135724943Y-106780700D01*
X135839394Y-106780700D01*
X135839394Y-106780699D01*
X135966686Y-106746592D01*
X136063500Y-106690695D01*
X136119652Y-106683303D01*
X136164586Y-106717782D01*
X136174500Y-106754782D01*
X136174500Y-129725500D01*
X136152826Y-129777826D01*
X136100500Y-129799500D01*
X110999500Y-129799500D01*
X110947174Y-129777826D01*
X110925500Y-129725500D01*
X110925500Y-128089778D01*
X123400001Y-128089778D01*
X123408701Y-128133524D01*
X123441855Y-128183143D01*
X123441856Y-128183144D01*
X123491472Y-128216296D01*
X123535226Y-128224999D01*
X124400000Y-128224999D01*
X124600000Y-128224999D01*
X125464779Y-128224999D01*
X125508524Y-128216298D01*
X125558143Y-128183144D01*
X125558144Y-128183143D01*
X125591296Y-128133527D01*
X125599999Y-128089778D01*
X125800001Y-128089778D01*
X125808701Y-128133524D01*
X125841855Y-128183143D01*
X125841856Y-128183144D01*
X125891472Y-128216296D01*
X125935226Y-128224999D01*
X126800000Y-128224999D01*
X127000000Y-128224999D01*
X127864779Y-128224999D01*
X127908524Y-128216298D01*
X127958143Y-128183144D01*
X127958144Y-128183143D01*
X127991296Y-128133527D01*
X128000000Y-128089773D01*
X128000000Y-127789778D01*
X128250001Y-127789778D01*
X128258701Y-127833524D01*
X128291855Y-127883143D01*
X128291856Y-127883144D01*
X128341472Y-127916296D01*
X128385226Y-127924999D01*
X129025000Y-127924999D01*
X129225000Y-127924999D01*
X129864779Y-127924999D01*
X129908524Y-127916298D01*
X129958143Y-127883144D01*
X129958144Y-127883143D01*
X129991296Y-127833527D01*
X130000000Y-127789773D01*
X130000000Y-127225000D01*
X129225000Y-127225000D01*
X129225000Y-127924999D01*
X129025000Y-127924999D01*
X129025000Y-127225000D01*
X128250001Y-127225000D01*
X128250001Y-127789778D01*
X128000000Y-127789778D01*
X128000000Y-127225000D01*
X127000000Y-127225000D01*
X127000000Y-128224999D01*
X126800000Y-128224999D01*
X126800000Y-127225000D01*
X125800001Y-127225000D01*
X125800001Y-128089778D01*
X125599999Y-128089778D01*
X125600000Y-128089773D01*
X125600000Y-127225000D01*
X124600000Y-127225000D01*
X124600000Y-128224999D01*
X124400000Y-128224999D01*
X124400000Y-127225000D01*
X123400001Y-127225000D01*
X123400001Y-128089778D01*
X110925500Y-128089778D01*
X110925500Y-127789778D01*
X121400001Y-127789778D01*
X121408701Y-127833524D01*
X121441855Y-127883143D01*
X121441856Y-127883144D01*
X121491472Y-127916296D01*
X121535226Y-127924999D01*
X122175000Y-127924999D01*
X122375000Y-127924999D01*
X123014779Y-127924999D01*
X123058524Y-127916298D01*
X123108143Y-127883144D01*
X123108144Y-127883143D01*
X123141296Y-127833527D01*
X123150000Y-127789773D01*
X123150000Y-127225000D01*
X122375000Y-127225000D01*
X122375000Y-127924999D01*
X122175000Y-127924999D01*
X122175000Y-127225000D01*
X121400001Y-127225000D01*
X121400001Y-127789778D01*
X110925500Y-127789778D01*
X110925500Y-126460226D01*
X121400000Y-126460226D01*
X121400000Y-127025000D01*
X122175000Y-127025000D01*
X122375000Y-127025000D01*
X123149999Y-127025000D01*
X123149999Y-126460221D01*
X123141298Y-126416475D01*
X123108144Y-126366856D01*
X123108143Y-126366855D01*
X123058527Y-126333703D01*
X123014773Y-126325000D01*
X122375000Y-126325000D01*
X122375000Y-127025000D01*
X122175000Y-127025000D01*
X122175000Y-126325000D01*
X121535229Y-126325000D01*
X121491473Y-126333703D01*
X121441856Y-126366855D01*
X121441855Y-126366856D01*
X121408703Y-126416472D01*
X121400000Y-126460226D01*
X110925500Y-126460226D01*
X110925500Y-104679123D01*
X110947174Y-104626797D01*
X110999500Y-104605123D01*
X111051826Y-104626797D01*
X111488345Y-105063316D01*
X111510019Y-105115642D01*
X111508598Y-105130075D01*
X111504500Y-105150681D01*
X111504500Y-105399318D01*
X111518092Y-105467651D01*
X111528942Y-105483890D01*
X111539990Y-105539439D01*
X111528942Y-105566110D01*
X111518092Y-105582348D01*
X111509030Y-105627903D01*
X111504500Y-105650680D01*
X111504500Y-105899320D01*
X111509041Y-105922150D01*
X111518092Y-105967651D01*
X111528942Y-105983890D01*
X111539990Y-106039439D01*
X111528942Y-106066110D01*
X111518092Y-106082348D01*
X111515196Y-106096908D01*
X111504500Y-106150680D01*
X111504500Y-106399320D01*
X111513561Y-106444873D01*
X111518092Y-106467651D01*
X111528942Y-106483890D01*
X111539990Y-106539439D01*
X111528942Y-106566110D01*
X111518092Y-106582348D01*
X111511553Y-106615222D01*
X111504500Y-106650680D01*
X111504500Y-106899320D01*
X111517366Y-106963999D01*
X111518092Y-106967650D01*
X111566001Y-107039353D01*
X111569865Y-107045135D01*
X111647350Y-107096908D01*
X111715680Y-107110500D01*
X111750500Y-107110500D01*
X111802826Y-107132174D01*
X111824500Y-107184500D01*
X111824500Y-112419564D01*
X111844977Y-112495985D01*
X111844979Y-112495990D01*
X111884540Y-112564511D01*
X112982826Y-113662797D01*
X113004500Y-113715123D01*
X113004500Y-114333262D01*
X113020412Y-114413257D01*
X113081027Y-114503973D01*
X113141248Y-114544212D01*
X113172714Y-114591304D01*
X113161665Y-114646852D01*
X113152462Y-114658066D01*
X111365489Y-116445040D01*
X111309540Y-116500988D01*
X111269979Y-116569509D01*
X111269977Y-116569514D01*
X111249500Y-116645935D01*
X111249500Y-120350364D01*
X111269977Y-120426785D01*
X111269979Y-120426790D01*
X111303824Y-120485410D01*
X111303826Y-120485413D01*
X111309540Y-120495311D01*
X114849903Y-124035674D01*
X114871577Y-124088000D01*
X114849903Y-124140326D01*
X114797577Y-124162000D01*
X114492752Y-124162000D01*
X114463510Y-124167816D01*
X114434267Y-124173633D01*
X114367949Y-124217947D01*
X114367947Y-124217949D01*
X114323633Y-124284267D01*
X114323633Y-124284269D01*
X114312000Y-124342752D01*
X114312000Y-125957248D01*
X114316686Y-125980804D01*
X114323633Y-126015732D01*
X114346798Y-126050400D01*
X114367948Y-126082052D01*
X114412060Y-126111527D01*
X114434267Y-126126366D01*
X114434268Y-126126366D01*
X114434269Y-126126367D01*
X114492752Y-126138000D01*
X114492754Y-126138000D01*
X116107246Y-126138000D01*
X116107248Y-126138000D01*
X116165731Y-126126367D01*
X116232052Y-126082052D01*
X116276367Y-126015731D01*
X116288000Y-125957248D01*
X116288000Y-125057665D01*
X116862500Y-125057665D01*
X116862500Y-125242334D01*
X116898526Y-125423453D01*
X116898529Y-125423463D01*
X116969196Y-125594070D01*
X117067454Y-125741122D01*
X117363909Y-125444666D01*
X117379896Y-125472357D01*
X117477643Y-125570104D01*
X117505331Y-125586089D01*
X117208876Y-125882544D01*
X117208876Y-125882545D01*
X117355929Y-125980803D01*
X117526536Y-126051470D01*
X117526546Y-126051473D01*
X117707666Y-126087500D01*
X117892334Y-126087500D01*
X118073453Y-126051473D01*
X118073463Y-126051470D01*
X118244068Y-125980804D01*
X118391122Y-125882544D01*
X118094668Y-125586090D01*
X118122357Y-125570104D01*
X118220104Y-125472357D01*
X118236090Y-125444668D01*
X118532544Y-125741122D01*
X118630804Y-125594068D01*
X118701470Y-125423463D01*
X118701473Y-125423453D01*
X118708171Y-125389778D01*
X121550001Y-125389778D01*
X121558701Y-125433524D01*
X121591855Y-125483143D01*
X121591856Y-125483144D01*
X121641472Y-125516296D01*
X121685226Y-125524999D01*
X122400000Y-125524999D01*
X122600000Y-125524999D01*
X123314779Y-125524999D01*
X123358524Y-125516298D01*
X123408143Y-125483144D01*
X123408144Y-125483143D01*
X123441296Y-125433527D01*
X123450000Y-125389773D01*
X123450000Y-124775000D01*
X122600000Y-124775000D01*
X122600000Y-125524999D01*
X122400000Y-125524999D01*
X122400000Y-124775000D01*
X121550001Y-124775000D01*
X121550001Y-125389778D01*
X118708171Y-125389778D01*
X118737500Y-125242334D01*
X118737500Y-125057665D01*
X118701473Y-124876546D01*
X118701470Y-124876536D01*
X118658446Y-124772666D01*
X118630803Y-124705929D01*
X118532544Y-124558876D01*
X118236089Y-124855330D01*
X118220104Y-124827643D01*
X118122357Y-124729896D01*
X118094666Y-124713909D01*
X118391122Y-124417454D01*
X118391122Y-124417453D01*
X118244070Y-124319196D01*
X118073463Y-124248529D01*
X118073453Y-124248526D01*
X117892334Y-124212500D01*
X117707666Y-124212500D01*
X117526546Y-124248526D01*
X117526536Y-124248529D01*
X117355927Y-124319197D01*
X117208876Y-124417453D01*
X117208876Y-124417454D01*
X117505331Y-124713909D01*
X117477643Y-124729896D01*
X117379896Y-124827643D01*
X117363909Y-124855331D01*
X117067454Y-124558876D01*
X117067453Y-124558876D01*
X116969197Y-124705927D01*
X116898529Y-124876536D01*
X116898526Y-124876546D01*
X116862500Y-125057665D01*
X116288000Y-125057665D01*
X116288000Y-124342752D01*
X116276367Y-124284269D01*
X116232052Y-124217948D01*
X116209843Y-124203108D01*
X116165732Y-124173633D01*
X116165733Y-124173633D01*
X116136489Y-124167816D01*
X116107248Y-124162000D01*
X116107246Y-124162000D01*
X115674500Y-124162000D01*
X115651863Y-124152623D01*
X115628321Y-124145823D01*
X115626547Y-124142137D01*
X115622174Y-124140326D01*
X115600959Y-124096233D01*
X115600500Y-124092133D01*
X115600500Y-124021238D01*
X115584152Y-123960226D01*
X121550000Y-123960226D01*
X121550000Y-124575000D01*
X122400000Y-124575000D01*
X122600000Y-124575000D01*
X123449999Y-124575000D01*
X123449999Y-123960221D01*
X123441298Y-123916475D01*
X123408144Y-123866856D01*
X123408143Y-123866855D01*
X123358527Y-123833703D01*
X123314773Y-123825000D01*
X122600000Y-123825000D01*
X122600000Y-124575000D01*
X122400000Y-124575000D01*
X122400000Y-123825000D01*
X121685229Y-123825000D01*
X121641473Y-123833703D01*
X121591856Y-123866855D01*
X121591855Y-123866856D01*
X121558703Y-123916472D01*
X121550000Y-123960226D01*
X115584152Y-123960226D01*
X115580021Y-123944811D01*
X115540460Y-123876289D01*
X115484511Y-123820340D01*
X111999763Y-120335592D01*
X121500000Y-120335592D01*
X121510620Y-120408482D01*
X121565587Y-120520917D01*
X121654082Y-120609412D01*
X121766517Y-120664379D01*
X121839407Y-120674999D01*
X121839418Y-120675000D01*
X122025000Y-120675000D01*
X122225000Y-120675000D01*
X122410582Y-120675000D01*
X122410592Y-120674999D01*
X122483482Y-120664379D01*
X122595917Y-120609412D01*
X122684412Y-120520917D01*
X122739379Y-120408482D01*
X122749999Y-120335592D01*
X122750000Y-120335581D01*
X122750000Y-120175000D01*
X122225000Y-120175000D01*
X122225000Y-120675000D01*
X122025000Y-120675000D01*
X122025000Y-120175000D01*
X121500000Y-120175000D01*
X121500000Y-120335592D01*
X111999763Y-120335592D01*
X111872174Y-120208003D01*
X111850500Y-120155677D01*
X111850500Y-119814407D01*
X121500000Y-119814407D01*
X121500000Y-119975000D01*
X122025000Y-119975000D01*
X122225000Y-119975000D01*
X122750000Y-119975000D01*
X122750000Y-119814418D01*
X122749999Y-119814407D01*
X122739379Y-119741517D01*
X122684412Y-119629082D01*
X122595917Y-119540587D01*
X122483482Y-119485620D01*
X122410592Y-119475000D01*
X122225000Y-119475000D01*
X122225000Y-119975000D01*
X122025000Y-119975000D01*
X122025000Y-119475000D01*
X121839407Y-119475000D01*
X121766517Y-119485620D01*
X121654082Y-119540587D01*
X121565587Y-119629082D01*
X121510620Y-119741517D01*
X121500000Y-119814407D01*
X111850500Y-119814407D01*
X111850500Y-117906907D01*
X113549500Y-117906907D01*
X113549500Y-118143092D01*
X113586446Y-118376365D01*
X113586449Y-118376378D01*
X113659429Y-118600986D01*
X113766656Y-118811432D01*
X113807093Y-118867089D01*
X113905483Y-119002510D01*
X114072490Y-119169517D01*
X114072493Y-119169519D01*
X114072494Y-119169520D01*
X114172851Y-119242434D01*
X114263567Y-119308343D01*
X114474008Y-119415568D01*
X114474010Y-119415568D01*
X114474013Y-119415570D01*
X114698621Y-119488550D01*
X114698627Y-119488551D01*
X114698632Y-119488553D01*
X114827787Y-119509009D01*
X114931907Y-119525500D01*
X114931908Y-119525500D01*
X115168093Y-119525500D01*
X115272181Y-119509014D01*
X115401368Y-119488553D01*
X115401375Y-119488550D01*
X115401378Y-119488550D01*
X115625986Y-119415570D01*
X115625986Y-119415569D01*
X115625992Y-119415568D01*
X115836433Y-119308343D01*
X116027510Y-119169517D01*
X116194517Y-119002510D01*
X116333343Y-118811433D01*
X116440568Y-118600992D01*
X116513553Y-118376368D01*
X116550500Y-118143092D01*
X116550500Y-118035592D01*
X119350000Y-118035592D01*
X119360620Y-118108482D01*
X119415587Y-118220917D01*
X119504082Y-118309412D01*
X119616517Y-118364379D01*
X119689407Y-118374999D01*
X119689418Y-118375000D01*
X119850000Y-118375000D01*
X120050000Y-118375000D01*
X120210582Y-118375000D01*
X120210592Y-118374999D01*
X120283482Y-118364379D01*
X120395917Y-118309412D01*
X120484412Y-118220917D01*
X120539379Y-118108482D01*
X120549999Y-118035592D01*
X120550000Y-118035581D01*
X120550000Y-117850000D01*
X120050000Y-117850000D01*
X120050000Y-118375000D01*
X119850000Y-118375000D01*
X119850000Y-117850000D01*
X119350000Y-117850000D01*
X119350000Y-118035592D01*
X116550500Y-118035592D01*
X116550500Y-117906908D01*
X116513553Y-117673632D01*
X116513551Y-117673627D01*
X116513550Y-117673621D01*
X116452133Y-117484601D01*
X116445572Y-117464407D01*
X119350000Y-117464407D01*
X119350000Y-117650000D01*
X119850000Y-117650000D01*
X120050000Y-117650000D01*
X120550000Y-117650000D01*
X120550000Y-117464418D01*
X120549999Y-117464407D01*
X120539379Y-117391517D01*
X120484412Y-117279082D01*
X120395917Y-117190587D01*
X120283482Y-117135620D01*
X120210592Y-117125000D01*
X120050000Y-117125000D01*
X120050000Y-117650000D01*
X119850000Y-117650000D01*
X119850000Y-117125000D01*
X119689407Y-117125000D01*
X119616517Y-117135620D01*
X119504082Y-117190587D01*
X119415587Y-117279082D01*
X119360620Y-117391517D01*
X119350000Y-117464407D01*
X116445572Y-117464407D01*
X116440570Y-117449013D01*
X116440568Y-117449010D01*
X116440568Y-117449008D01*
X116333343Y-117238567D01*
X116298483Y-117190587D01*
X116194520Y-117047494D01*
X116194519Y-117047493D01*
X116194517Y-117047490D01*
X116027510Y-116880483D01*
X116027507Y-116880480D01*
X116027505Y-116880479D01*
X115836432Y-116741656D01*
X115625986Y-116634429D01*
X115401378Y-116561449D01*
X115401365Y-116561446D01*
X115168093Y-116524500D01*
X115168092Y-116524500D01*
X114931908Y-116524500D01*
X114931907Y-116524500D01*
X114698634Y-116561446D01*
X114698621Y-116561449D01*
X114474013Y-116634429D01*
X114263567Y-116741656D01*
X114072494Y-116880479D01*
X113905479Y-117047494D01*
X113766656Y-117238567D01*
X113659429Y-117449013D01*
X113586449Y-117673621D01*
X113586446Y-117673634D01*
X113549500Y-117906907D01*
X111850500Y-117906907D01*
X111850500Y-116840623D01*
X111872174Y-116788297D01*
X113602797Y-115057674D01*
X113655123Y-115036000D01*
X114857564Y-115036000D01*
X114857564Y-115035999D01*
X114933989Y-115015521D01*
X115002511Y-114975960D01*
X115058460Y-114920011D01*
X115376297Y-114602174D01*
X115428623Y-114580500D01*
X115648260Y-114580500D01*
X115648262Y-114580500D01*
X115728257Y-114564588D01*
X115728257Y-114564587D01*
X115735405Y-114563166D01*
X115736169Y-114567009D01*
X115779029Y-114566987D01*
X115803072Y-114583043D01*
X117157140Y-115937111D01*
X117213089Y-115993060D01*
X117281611Y-116032621D01*
X117281612Y-116032621D01*
X117281614Y-116032622D01*
X117319824Y-116042860D01*
X117358035Y-116053099D01*
X117358036Y-116053100D01*
X117358038Y-116053100D01*
X118563464Y-116053100D01*
X118563464Y-116053099D01*
X118639889Y-116032621D01*
X118708411Y-115993060D01*
X118764360Y-115937111D01*
X119013960Y-115687511D01*
X119053522Y-115618988D01*
X119056158Y-115609146D01*
X119090634Y-115564213D01*
X119146786Y-115556818D01*
X119160138Y-115561816D01*
X119216518Y-115589379D01*
X119289407Y-115599999D01*
X119289418Y-115600000D01*
X119450000Y-115600000D01*
X119650000Y-115600000D01*
X119810582Y-115600000D01*
X119810592Y-115599999D01*
X119883482Y-115589379D01*
X119995917Y-115534412D01*
X120084412Y-115445917D01*
X120139379Y-115333482D01*
X120149999Y-115260592D01*
X120150000Y-115260581D01*
X120150000Y-115185592D01*
X123650000Y-115185592D01*
X123660620Y-115258482D01*
X123715587Y-115370917D01*
X123804082Y-115459412D01*
X123916517Y-115514379D01*
X123989407Y-115524999D01*
X123989418Y-115525000D01*
X124150000Y-115525000D01*
X124350000Y-115525000D01*
X124510582Y-115525000D01*
X124510592Y-115524999D01*
X124583482Y-115514379D01*
X124695917Y-115459412D01*
X124784412Y-115370917D01*
X124839379Y-115258482D01*
X124849999Y-115185592D01*
X124850000Y-115185581D01*
X124850000Y-115000000D01*
X124350000Y-115000000D01*
X124350000Y-115525000D01*
X124150000Y-115525000D01*
X124150000Y-115000000D01*
X123650000Y-115000000D01*
X123650000Y-115185592D01*
X120150000Y-115185592D01*
X120150000Y-115075000D01*
X119650000Y-115075000D01*
X119650000Y-115600000D01*
X119450000Y-115600000D01*
X119450000Y-114875000D01*
X119650000Y-114875000D01*
X120150000Y-114875000D01*
X120150000Y-114689418D01*
X120149999Y-114689406D01*
X120140237Y-114622403D01*
X120139379Y-114616517D01*
X120138347Y-114614407D01*
X123650000Y-114614407D01*
X123650000Y-114800000D01*
X124150000Y-114800000D01*
X124350000Y-114800000D01*
X124850000Y-114800000D01*
X124850000Y-114614418D01*
X124849999Y-114614407D01*
X124839379Y-114541517D01*
X124784412Y-114429082D01*
X124695917Y-114340587D01*
X124583482Y-114285620D01*
X124510592Y-114275000D01*
X124350000Y-114275000D01*
X124350000Y-114800000D01*
X124150000Y-114800000D01*
X124150000Y-114275000D01*
X123989407Y-114275000D01*
X123916517Y-114285620D01*
X123804082Y-114340587D01*
X123715587Y-114429082D01*
X123660620Y-114541517D01*
X123650000Y-114614407D01*
X120138347Y-114614407D01*
X120084412Y-114504082D01*
X119995917Y-114415587D01*
X119883482Y-114360620D01*
X119810592Y-114350000D01*
X119650000Y-114350000D01*
X119650000Y-114875000D01*
X119450000Y-114875000D01*
X119450000Y-114350000D01*
X119289407Y-114350000D01*
X119216516Y-114360620D01*
X119166178Y-114385229D01*
X119109649Y-114388738D01*
X119067197Y-114351248D01*
X119062201Y-114337907D01*
X119053521Y-114305511D01*
X119013960Y-114236989D01*
X118958011Y-114181040D01*
X118285874Y-113508903D01*
X118264200Y-113456577D01*
X118264200Y-112434244D01*
X118285874Y-112381918D01*
X118338200Y-112360244D01*
X118379857Y-112377499D01*
X118381945Y-112374626D01*
X118386654Y-112378047D01*
X118386656Y-112378048D01*
X118386658Y-112378050D01*
X118499696Y-112435646D01*
X118593481Y-112450500D01*
X119056518Y-112450499D01*
X119056519Y-112450499D01*
X119150304Y-112435646D01*
X119150306Y-112435645D01*
X119153056Y-112434244D01*
X119263342Y-112378050D01*
X119353050Y-112288342D01*
X119410646Y-112175304D01*
X119425500Y-112081519D01*
X119425499Y-111468482D01*
X119413704Y-111394008D01*
X119410646Y-111374695D01*
X119410645Y-111374693D01*
X119365402Y-111285900D01*
X119353050Y-111261658D01*
X119263342Y-111171950D01*
X119221435Y-111150597D01*
X119165904Y-111122302D01*
X119129122Y-111079235D01*
X119125500Y-111056368D01*
X119125500Y-110983938D01*
X119120420Y-110964979D01*
X119120420Y-110964978D01*
X119105023Y-110907515D01*
X119105021Y-110907510D01*
X119095114Y-110890351D01*
X119085200Y-110853351D01*
X119085200Y-110717306D01*
X119085199Y-110717305D01*
X119084082Y-110713138D01*
X119051092Y-110590014D01*
X118985200Y-110475886D01*
X118892014Y-110382700D01*
X118838896Y-110352032D01*
X118777890Y-110316810D01*
X118777881Y-110316806D01*
X118650594Y-110282700D01*
X118650592Y-110282700D01*
X118518808Y-110282700D01*
X118518806Y-110282700D01*
X118391518Y-110316806D01*
X118391507Y-110316811D01*
X118375198Y-110326227D01*
X118319045Y-110333618D01*
X118274113Y-110299138D01*
X118264200Y-110262140D01*
X118264200Y-109859244D01*
X118285874Y-109806918D01*
X118338200Y-109785244D01*
X118379857Y-109802499D01*
X118381945Y-109799626D01*
X118386654Y-109803047D01*
X118386656Y-109803048D01*
X118386658Y-109803050D01*
X118499696Y-109860646D01*
X118593481Y-109875500D01*
X119206518Y-109875499D01*
X119206519Y-109875499D01*
X119300304Y-109860646D01*
X119300306Y-109860645D01*
X119303056Y-109859244D01*
X119413342Y-109803050D01*
X119503050Y-109713342D01*
X119552697Y-109615903D01*
X119595764Y-109579122D01*
X119618631Y-109575500D01*
X120790655Y-109575500D01*
X120818971Y-109581132D01*
X120822007Y-109582389D01*
X120822010Y-109582389D01*
X120822014Y-109582392D01*
X120949308Y-109616500D01*
X120949309Y-109616500D01*
X121081094Y-109616500D01*
X121081094Y-109616499D01*
X121208386Y-109582392D01*
X121322514Y-109516500D01*
X121415700Y-109423314D01*
X121481592Y-109309186D01*
X121515699Y-109181894D01*
X121515700Y-109181894D01*
X121515700Y-109050106D01*
X121515699Y-109050105D01*
X121482525Y-108926298D01*
X121481592Y-108922814D01*
X121415700Y-108808686D01*
X121322514Y-108715500D01*
X121259111Y-108678894D01*
X121208390Y-108649610D01*
X121208381Y-108649606D01*
X121081094Y-108615500D01*
X121081092Y-108615500D01*
X120949308Y-108615500D01*
X120949306Y-108615500D01*
X120822018Y-108649606D01*
X120822009Y-108649610D01*
X120707885Y-108715500D01*
X120614700Y-108808685D01*
X120548810Y-108922809D01*
X120546954Y-108927292D01*
X120544555Y-108926298D01*
X120515180Y-108964584D01*
X120478177Y-108974500D01*
X119618632Y-108974500D01*
X119566306Y-108952826D01*
X119552698Y-108934096D01*
X119519580Y-108869100D01*
X119503050Y-108836658D01*
X119413342Y-108746950D01*
X119300304Y-108689354D01*
X119300302Y-108689353D01*
X119300301Y-108689353D01*
X119206519Y-108674500D01*
X118593480Y-108674500D01*
X118499695Y-108689353D01*
X118499693Y-108689354D01*
X118386657Y-108746950D01*
X118381945Y-108750374D01*
X118379857Y-108747500D01*
X118338200Y-108764756D01*
X118285874Y-108743082D01*
X118264200Y-108690756D01*
X118264200Y-108209244D01*
X118285874Y-108156918D01*
X118338200Y-108135244D01*
X118379857Y-108152499D01*
X118381945Y-108149626D01*
X118386654Y-108153047D01*
X118386656Y-108153048D01*
X118386658Y-108153050D01*
X118499696Y-108210646D01*
X118593481Y-108225500D01*
X119206518Y-108225499D01*
X119206519Y-108225499D01*
X119300304Y-108210646D01*
X119300306Y-108210645D01*
X119310525Y-108205438D01*
X119413342Y-108153050D01*
X119503050Y-108063342D01*
X119560646Y-107950304D01*
X119575500Y-107856519D01*
X119575499Y-107393482D01*
X119569268Y-107354140D01*
X119560646Y-107299695D01*
X119560645Y-107299693D01*
X119514847Y-107209811D01*
X119503050Y-107186658D01*
X119413342Y-107096950D01*
X119300304Y-107039354D01*
X119300302Y-107039353D01*
X119300301Y-107039353D01*
X119206520Y-107024500D01*
X119206519Y-107024500D01*
X119095466Y-107024500D01*
X119043140Y-107002826D01*
X119021466Y-106950500D01*
X119043140Y-106898174D01*
X119076735Y-106864579D01*
X119119900Y-106821414D01*
X119185792Y-106707286D01*
X119219899Y-106579994D01*
X119219900Y-106579994D01*
X119219900Y-106448206D01*
X119219899Y-106448205D01*
X119206800Y-106399320D01*
X119185792Y-106320914D01*
X119119900Y-106206786D01*
X119026714Y-106113600D01*
X119002426Y-106099577D01*
X118912590Y-106047710D01*
X118912587Y-106047709D01*
X118912586Y-106047708D01*
X118912584Y-106047707D01*
X118912583Y-106047707D01*
X118885425Y-106040430D01*
X118840493Y-106005951D01*
X118833101Y-105949798D01*
X118845039Y-105925009D01*
X118847147Y-105922151D01*
X118847150Y-105922150D01*
X118927793Y-105812882D01*
X118972646Y-105684699D01*
X118975500Y-105654266D01*
X118975500Y-105124500D01*
X118997174Y-105072174D01*
X119049500Y-105050500D01*
X121317952Y-105050500D01*
X121370278Y-105072174D01*
X121386155Y-105103339D01*
X121388480Y-105102584D01*
X121390281Y-105108126D01*
X121444753Y-105215035D01*
X121451472Y-105228220D01*
X121546780Y-105323528D01*
X121666874Y-105384719D01*
X121766511Y-105400500D01*
X121766512Y-105400500D01*
X122333489Y-105400500D01*
X122383307Y-105392609D01*
X122433126Y-105384719D01*
X122553220Y-105323528D01*
X122648528Y-105228220D01*
X122709719Y-105108126D01*
X122725500Y-105008488D01*
X122725500Y-104491512D01*
X122723332Y-104477826D01*
X122709719Y-104391874D01*
X122709718Y-104391873D01*
X122708549Y-104389579D01*
X122648528Y-104271780D01*
X122553220Y-104176472D01*
X122553219Y-104176471D01*
X122433126Y-104115281D01*
X122433125Y-104115280D01*
X122333489Y-104099500D01*
X122333488Y-104099500D01*
X121766512Y-104099500D01*
X121766511Y-104099500D01*
X121666874Y-104115280D01*
X121666873Y-104115281D01*
X121546780Y-104176471D01*
X121451471Y-104271780D01*
X121390281Y-104391873D01*
X121388480Y-104397416D01*
X121385329Y-104396392D01*
X121361454Y-104435363D01*
X121317952Y-104449500D01*
X118610436Y-104449500D01*
X118534014Y-104469977D01*
X118534009Y-104469979D01*
X118489634Y-104495600D01*
X118465488Y-104509540D01*
X118347203Y-104627826D01*
X118294877Y-104649500D01*
X117520734Y-104649500D01*
X117490301Y-104652354D01*
X117490299Y-104652354D01*
X117490295Y-104652355D01*
X117362118Y-104697206D01*
X117362116Y-104697207D01*
X117252853Y-104777846D01*
X117252846Y-104777853D01*
X117172207Y-104887116D01*
X117172206Y-104887118D01*
X117127355Y-105015295D01*
X117127354Y-105015299D01*
X117127354Y-105015301D01*
X117124500Y-105045734D01*
X117124500Y-105654266D01*
X117127354Y-105684699D01*
X117127354Y-105684701D01*
X117127355Y-105684704D01*
X117172206Y-105812881D01*
X117172207Y-105812883D01*
X117252846Y-105922146D01*
X117252853Y-105922153D01*
X117362116Y-106002792D01*
X117362118Y-106002793D01*
X117490295Y-106047644D01*
X117490301Y-106047646D01*
X117520734Y-106050500D01*
X117589200Y-106050500D01*
X117641526Y-106072174D01*
X117663200Y-106124500D01*
X117663200Y-111076597D01*
X117641526Y-111128923D01*
X117589200Y-111150597D01*
X117555607Y-111142532D01*
X117500304Y-111114354D01*
X117500302Y-111114353D01*
X117500301Y-111114353D01*
X117406519Y-111099500D01*
X116943480Y-111099500D01*
X116849695Y-111114353D01*
X116849693Y-111114354D01*
X116736657Y-111171950D01*
X116646951Y-111261656D01*
X116589353Y-111374698D01*
X116577462Y-111449777D01*
X116574500Y-111468481D01*
X116574500Y-111669542D01*
X116574501Y-111797500D01*
X116552827Y-111849826D01*
X116500501Y-111871500D01*
X115969500Y-111871500D01*
X115917174Y-111849826D01*
X115895500Y-111797500D01*
X115895500Y-110666739D01*
X115880239Y-110590018D01*
X115879588Y-110586743D01*
X115818973Y-110496027D01*
X115728257Y-110435412D01*
X115648262Y-110419500D01*
X115151738Y-110419500D01*
X115098408Y-110430108D01*
X115071742Y-110435412D01*
X114981028Y-110496026D01*
X114981026Y-110496028D01*
X114920412Y-110586742D01*
X114904500Y-110666739D01*
X114904500Y-111449777D01*
X114882826Y-111502103D01*
X114830500Y-111523777D01*
X114778174Y-111502103D01*
X114429474Y-111153403D01*
X114407800Y-111101077D01*
X114407800Y-110792822D01*
X114429473Y-110740497D01*
X116740460Y-108429511D01*
X116780022Y-108360988D01*
X116800500Y-108284562D01*
X116800500Y-108205438D01*
X116800500Y-103731482D01*
X117175001Y-103731482D01*
X117189834Y-103825148D01*
X117189835Y-103825149D01*
X117247360Y-103938046D01*
X117336953Y-104027639D01*
X117449850Y-104085164D01*
X117543518Y-104099999D01*
X117950000Y-104099999D01*
X118150000Y-104099999D01*
X118556481Y-104099999D01*
X118650148Y-104085165D01*
X118650149Y-104085164D01*
X118763046Y-104027639D01*
X118852639Y-103938046D01*
X118910164Y-103825149D01*
X118910164Y-103825148D01*
X118925000Y-103731481D01*
X118925000Y-103550000D01*
X118150000Y-103550000D01*
X118150000Y-104099999D01*
X117950000Y-104099999D01*
X117950000Y-103550000D01*
X117175001Y-103550000D01*
X117175001Y-103731482D01*
X116800500Y-103731482D01*
X116800500Y-103460592D01*
X121425000Y-103460592D01*
X121435620Y-103533482D01*
X121490587Y-103645917D01*
X121579082Y-103734412D01*
X121691517Y-103789379D01*
X121764407Y-103799999D01*
X121764418Y-103800000D01*
X121950000Y-103800000D01*
X122150000Y-103800000D01*
X122335582Y-103800000D01*
X122335592Y-103799999D01*
X122408482Y-103789379D01*
X122520917Y-103734412D01*
X122609412Y-103645917D01*
X122664379Y-103533482D01*
X122674999Y-103460592D01*
X122675000Y-103460581D01*
X122675000Y-103300000D01*
X122150000Y-103300000D01*
X122150000Y-103800000D01*
X121950000Y-103800000D01*
X121950000Y-103300000D01*
X121425000Y-103300000D01*
X121425000Y-103460592D01*
X116800500Y-103460592D01*
X116800500Y-103168518D01*
X117175000Y-103168518D01*
X117175000Y-103350000D01*
X117950000Y-103350000D01*
X118150000Y-103350000D01*
X118924999Y-103350000D01*
X118924999Y-103168517D01*
X118910165Y-103074851D01*
X118910164Y-103074850D01*
X118856908Y-102970330D01*
X118852640Y-102961954D01*
X118830093Y-102939407D01*
X121425000Y-102939407D01*
X121425000Y-103100000D01*
X121950000Y-103100000D01*
X122150000Y-103100000D01*
X122675000Y-103100000D01*
X122675000Y-102939418D01*
X122674999Y-102939407D01*
X122664379Y-102866517D01*
X122609412Y-102754082D01*
X122520917Y-102665587D01*
X122408482Y-102610620D01*
X122335592Y-102600000D01*
X122150000Y-102600000D01*
X122150000Y-103100000D01*
X121950000Y-103100000D01*
X121950000Y-102600000D01*
X121764407Y-102600000D01*
X121691517Y-102610620D01*
X121579082Y-102665587D01*
X121490587Y-102754082D01*
X121435620Y-102866517D01*
X121425000Y-102939407D01*
X118830093Y-102939407D01*
X118763046Y-102872360D01*
X118650149Y-102814835D01*
X118556482Y-102800000D01*
X118150000Y-102800000D01*
X118150000Y-103350000D01*
X117950000Y-103350000D01*
X117950000Y-102800000D01*
X117543518Y-102800000D01*
X117449851Y-102814834D01*
X117449850Y-102814835D01*
X117336953Y-102872360D01*
X117247360Y-102961953D01*
X117189835Y-103074850D01*
X117189835Y-103074851D01*
X117175000Y-103168518D01*
X116800500Y-103168518D01*
X116800500Y-101382047D01*
X116822174Y-101329721D01*
X116853349Y-101313855D01*
X116852590Y-101311517D01*
X116858121Y-101309719D01*
X116858126Y-101309719D01*
X116978220Y-101248528D01*
X117073528Y-101153220D01*
X117134719Y-101033126D01*
X117150500Y-100933488D01*
X117150500Y-100366512D01*
X117150492Y-100366464D01*
X117134719Y-100266874D01*
X117134718Y-100266873D01*
X117130752Y-100259090D01*
X117073528Y-100146780D01*
X116978220Y-100051472D01*
X116978219Y-100051471D01*
X116858126Y-99990281D01*
X116858125Y-99990280D01*
X116758489Y-99974500D01*
X116758488Y-99974500D01*
X116241512Y-99974500D01*
X116241511Y-99974500D01*
X116141874Y-99990280D01*
X116141873Y-99990281D01*
X116021780Y-100051471D01*
X115926471Y-100146780D01*
X115865281Y-100266873D01*
X115865280Y-100266874D01*
X115849500Y-100366511D01*
X115849500Y-100933488D01*
X115865280Y-101033125D01*
X115865281Y-101033126D01*
X115918563Y-101137699D01*
X115926472Y-101153220D01*
X116021780Y-101248528D01*
X116097902Y-101287314D01*
X116141869Y-101309717D01*
X116141871Y-101309717D01*
X116141874Y-101309719D01*
X116141876Y-101309719D01*
X116147410Y-101311517D01*
X116146382Y-101314680D01*
X116185325Y-101338493D01*
X116199500Y-101382047D01*
X116199500Y-108089877D01*
X116177826Y-108142203D01*
X113922788Y-110397241D01*
X113903071Y-110416957D01*
X113850744Y-110438630D01*
X113835644Y-110435629D01*
X113835405Y-110436834D01*
X113828257Y-110435412D01*
X113748262Y-110419500D01*
X113251738Y-110419500D01*
X113198408Y-110430108D01*
X113171742Y-110435412D01*
X113081028Y-110496026D01*
X113081026Y-110496028D01*
X113020412Y-110586742D01*
X113012456Y-110626740D01*
X113004500Y-110666738D01*
X113004500Y-111823262D01*
X113020412Y-111903257D01*
X113081027Y-111993973D01*
X113171743Y-112054588D01*
X113251738Y-112070500D01*
X113251740Y-112070500D01*
X113748260Y-112070500D01*
X113748262Y-112070500D01*
X113828257Y-112054588D01*
X113918973Y-111993973D01*
X113979588Y-111903257D01*
X113995500Y-111823262D01*
X113995500Y-111748022D01*
X114017174Y-111695696D01*
X114069500Y-111674022D01*
X114121824Y-111695695D01*
X114838589Y-112412460D01*
X114907112Y-112452022D01*
X114983538Y-112472500D01*
X114983540Y-112472500D01*
X116800500Y-112472500D01*
X116852826Y-112494174D01*
X116874500Y-112546500D01*
X116874500Y-112878034D01*
X116852826Y-112930360D01*
X116774500Y-113008685D01*
X116708610Y-113122809D01*
X116708606Y-113122818D01*
X116674500Y-113250105D01*
X116674500Y-113381894D01*
X116708606Y-113509181D01*
X116708610Y-113509190D01*
X116774500Y-113623314D01*
X116852826Y-113701640D01*
X116874500Y-113753966D01*
X116874500Y-114189564D01*
X116894977Y-114265985D01*
X116894979Y-114265990D01*
X116917797Y-114305511D01*
X116934540Y-114334511D01*
X117327826Y-114727797D01*
X117349500Y-114780123D01*
X117349500Y-115100877D01*
X117327826Y-115153203D01*
X117275500Y-115174877D01*
X117223174Y-115153203D01*
X115917174Y-113847203D01*
X115895500Y-113794877D01*
X115895500Y-113176739D01*
X115886063Y-113129297D01*
X115879588Y-113096743D01*
X115818973Y-113006027D01*
X115728257Y-112945412D01*
X115648262Y-112929500D01*
X115151738Y-112929500D01*
X115098408Y-112940108D01*
X115071742Y-112945412D01*
X114981028Y-113006026D01*
X114981025Y-113006029D01*
X114956160Y-113043242D01*
X114909067Y-113074707D01*
X114853519Y-113063657D01*
X114833100Y-113043237D01*
X114832563Y-113042433D01*
X114758553Y-112992982D01*
X114693287Y-112980000D01*
X114550000Y-112980000D01*
X114550000Y-113681000D01*
X114528326Y-113733326D01*
X114476000Y-113755000D01*
X114424000Y-113755000D01*
X114371674Y-113733326D01*
X114350000Y-113681000D01*
X114350000Y-112980000D01*
X114206713Y-112980000D01*
X114141446Y-112992982D01*
X114067435Y-113042434D01*
X114067434Y-113042435D01*
X114066895Y-113043243D01*
X114066087Y-113043782D01*
X114062281Y-113047589D01*
X114061523Y-113046831D01*
X114019802Y-113074708D01*
X113964253Y-113063657D01*
X113943839Y-113043242D01*
X113918973Y-113006027D01*
X113828257Y-112945412D01*
X113748262Y-112929500D01*
X113251738Y-112929500D01*
X113171743Y-112945412D01*
X113171742Y-112945412D01*
X113164595Y-112946834D01*
X113163834Y-112943008D01*
X113120879Y-112942974D01*
X113096927Y-112926956D01*
X112447174Y-112277203D01*
X112425500Y-112224877D01*
X112425500Y-107184500D01*
X112447174Y-107132174D01*
X112499500Y-107110500D01*
X112534318Y-107110500D01*
X112534320Y-107110500D01*
X112602650Y-107096908D01*
X112680135Y-107045135D01*
X112731908Y-106967650D01*
X112735506Y-106949561D01*
X112766972Y-106902470D01*
X112808084Y-106889999D01*
X113460000Y-106889999D01*
X113460000Y-105160000D01*
X112808084Y-105160000D01*
X112755758Y-105138326D01*
X112735506Y-105100438D01*
X112733685Y-105091285D01*
X112731908Y-105082350D01*
X112680135Y-105004865D01*
X112630005Y-104971370D01*
X112602650Y-104953092D01*
X112534320Y-104939500D01*
X112534318Y-104939500D01*
X112245123Y-104939500D01*
X112192797Y-104917826D01*
X111426774Y-104151803D01*
X111405100Y-104099477D01*
X111405100Y-102075629D01*
X111426774Y-102023303D01*
X111479100Y-102001629D01*
X111511601Y-102009148D01*
X111523750Y-102015087D01*
X111591781Y-102024999D01*
X111725000Y-102024999D01*
X111925000Y-102024999D01*
X112058211Y-102024999D01*
X112058224Y-102024998D01*
X112126250Y-102015087D01*
X112231188Y-101963786D01*
X112313785Y-101881189D01*
X112365087Y-101776249D01*
X112374999Y-101708223D01*
X112375000Y-101708212D01*
X112375000Y-101500000D01*
X111925000Y-101500000D01*
X111925000Y-102024999D01*
X111725000Y-102024999D01*
X111725000Y-101300000D01*
X111925000Y-101300000D01*
X112374999Y-101300000D01*
X112374999Y-101093480D01*
X112874500Y-101093480D01*
X112874500Y-101706519D01*
X112889353Y-101800304D01*
X112889354Y-101800306D01*
X112930567Y-101881189D01*
X112946950Y-101913342D01*
X113036658Y-102003050D01*
X113149696Y-102060646D01*
X113243481Y-102075500D01*
X113694876Y-102075499D01*
X113747202Y-102097173D01*
X114672826Y-103022797D01*
X114694500Y-103075123D01*
X114694500Y-104865500D01*
X114672826Y-104917826D01*
X114620500Y-104939500D01*
X114585680Y-104939500D01*
X114540126Y-104948561D01*
X114517349Y-104953092D01*
X114439865Y-105004864D01*
X114439864Y-105004865D01*
X114388092Y-105082349D01*
X114384494Y-105100438D01*
X114353027Y-105147529D01*
X114311916Y-105160000D01*
X113660000Y-105160000D01*
X113660000Y-106889999D01*
X114276378Y-106889999D01*
X114328704Y-106911673D01*
X114350378Y-106963999D01*
X114328704Y-107016325D01*
X114273640Y-107071388D01*
X114234079Y-107139909D01*
X114234077Y-107139914D01*
X114213600Y-107216335D01*
X114213600Y-107930634D01*
X114191926Y-107982960D01*
X114113600Y-108061285D01*
X114047710Y-108175409D01*
X114047706Y-108175418D01*
X114013600Y-108302705D01*
X114013600Y-108434494D01*
X114047706Y-108561781D01*
X114047710Y-108561790D01*
X114078667Y-108615408D01*
X114113600Y-108675914D01*
X114206786Y-108769100D01*
X114320914Y-108834992D01*
X114448205Y-108869099D01*
X114448206Y-108869100D01*
X114448208Y-108869100D01*
X114579994Y-108869100D01*
X114579994Y-108869099D01*
X114707286Y-108834992D01*
X114821414Y-108769100D01*
X114914600Y-108675914D01*
X114980492Y-108561786D01*
X115014599Y-108434494D01*
X115014600Y-108434494D01*
X115014600Y-108302706D01*
X115014599Y-108302705D01*
X114992549Y-108220414D01*
X114980492Y-108175414D01*
X114914600Y-108061286D01*
X114836274Y-107982960D01*
X114814600Y-107930634D01*
X114814600Y-107411023D01*
X114836274Y-107358697D01*
X115062797Y-107132174D01*
X115115123Y-107110500D01*
X115404318Y-107110500D01*
X115404320Y-107110500D01*
X115472650Y-107096908D01*
X115550135Y-107045135D01*
X115601908Y-106967650D01*
X115615500Y-106899320D01*
X115615500Y-106650680D01*
X115601908Y-106582350D01*
X115560149Y-106519853D01*
X115549101Y-106464305D01*
X115553314Y-106450419D01*
X115554339Y-106447943D01*
X115565000Y-106394348D01*
X115565000Y-106375000D01*
X115069000Y-106375000D01*
X115016674Y-106353326D01*
X114995000Y-106301000D01*
X114995000Y-106249000D01*
X115016674Y-106196674D01*
X115069000Y-106175000D01*
X115564999Y-106175000D01*
X115564999Y-106155647D01*
X115554340Y-106102057D01*
X115553313Y-106099577D01*
X115553312Y-106096890D01*
X115552918Y-106094905D01*
X115553312Y-106094826D01*
X115553311Y-106042940D01*
X115560146Y-106030151D01*
X115601908Y-105967650D01*
X115615500Y-105899320D01*
X115615500Y-105650680D01*
X115601908Y-105582350D01*
X115591057Y-105566111D01*
X115580009Y-105510563D01*
X115591058Y-105483888D01*
X115601908Y-105467650D01*
X115615500Y-105399320D01*
X115615500Y-105150680D01*
X115601908Y-105082350D01*
X115550135Y-105004865D01*
X115500005Y-104971370D01*
X115472650Y-104953092D01*
X115404320Y-104939500D01*
X115404318Y-104939500D01*
X115369500Y-104939500D01*
X115317174Y-104917826D01*
X115295500Y-104865500D01*
X115295500Y-102880438D01*
X115293335Y-102872360D01*
X115291217Y-102864455D01*
X115275022Y-102804012D01*
X115255120Y-102769541D01*
X115235462Y-102735492D01*
X115235461Y-102735491D01*
X115235460Y-102735489D01*
X114097173Y-101597202D01*
X114075499Y-101544876D01*
X114075499Y-101093480D01*
X114060646Y-100999695D01*
X114060645Y-100999693D01*
X114019433Y-100918811D01*
X114003050Y-100886658D01*
X113913342Y-100796950D01*
X113800304Y-100739354D01*
X113800302Y-100739353D01*
X113800301Y-100739353D01*
X113706519Y-100724500D01*
X113243480Y-100724500D01*
X113149695Y-100739353D01*
X113149693Y-100739354D01*
X113036657Y-100796950D01*
X112946951Y-100886656D01*
X112889353Y-100999698D01*
X112874500Y-101093480D01*
X112374999Y-101093480D01*
X112374999Y-101091789D01*
X112374998Y-101091775D01*
X112365087Y-101023749D01*
X112313786Y-100918811D01*
X112231189Y-100836214D01*
X112126249Y-100784912D01*
X112058223Y-100775000D01*
X111925000Y-100775000D01*
X111925000Y-101300000D01*
X111725000Y-101300000D01*
X111725000Y-100775000D01*
X111591788Y-100775000D01*
X111591776Y-100775001D01*
X111523749Y-100784912D01*
X111511600Y-100790852D01*
X111494723Y-100791899D01*
X111479100Y-100798371D01*
X111467548Y-100793586D01*
X111455071Y-100794361D01*
X111442396Y-100783168D01*
X111426774Y-100776697D01*
X111421989Y-100765146D01*
X111412619Y-100756871D01*
X111405100Y-100724371D01*
X111405100Y-100625522D01*
X111426773Y-100573197D01*
X112486692Y-99513277D01*
X112539017Y-99491604D01*
X112563456Y-99495756D01*
X112640301Y-99522646D01*
X112670734Y-99525500D01*
X112670740Y-99525500D01*
X113279258Y-99525500D01*
X113279266Y-99525500D01*
X113309699Y-99522646D01*
X113437882Y-99477793D01*
X113547150Y-99397150D01*
X113627793Y-99287882D01*
X113672646Y-99159699D01*
X113675500Y-99129266D01*
X113675500Y-99106482D01*
X114225001Y-99106482D01*
X114239834Y-99200148D01*
X114239835Y-99200149D01*
X114297360Y-99313046D01*
X114386953Y-99402639D01*
X114499850Y-99460164D01*
X114593518Y-99474999D01*
X114775000Y-99474999D01*
X114975000Y-99474999D01*
X115156481Y-99474999D01*
X115250148Y-99460165D01*
X115250149Y-99460164D01*
X115363046Y-99402639D01*
X115452639Y-99313046D01*
X115510164Y-99200149D01*
X115510164Y-99200148D01*
X115525000Y-99106481D01*
X115525000Y-98700000D01*
X114975000Y-98700000D01*
X114975000Y-99474999D01*
X114775000Y-99474999D01*
X114775000Y-98700000D01*
X114225001Y-98700000D01*
X114225001Y-99106482D01*
X113675500Y-99106482D01*
X113675500Y-98093518D01*
X114225000Y-98093518D01*
X114225000Y-98500000D01*
X114775000Y-98500000D01*
X114975000Y-98500000D01*
X115524999Y-98500000D01*
X115524999Y-98093517D01*
X115510165Y-97999851D01*
X115510164Y-97999850D01*
X115452639Y-97886953D01*
X115363046Y-97797360D01*
X115250149Y-97739835D01*
X115156482Y-97725000D01*
X114975000Y-97725000D01*
X114975000Y-98500000D01*
X114775000Y-98500000D01*
X114775000Y-97725000D01*
X114593518Y-97725000D01*
X114499851Y-97739834D01*
X114499850Y-97739835D01*
X114386953Y-97797360D01*
X114297360Y-97886953D01*
X114239835Y-97999850D01*
X114239835Y-97999851D01*
X114225000Y-98093518D01*
X113675500Y-98093518D01*
X113675500Y-98070734D01*
X113672646Y-98040301D01*
X113627793Y-97912118D01*
X113613458Y-97892694D01*
X113547153Y-97802853D01*
X113547146Y-97802846D01*
X113437883Y-97722207D01*
X113437881Y-97722206D01*
X113309704Y-97677355D01*
X113309705Y-97677355D01*
X113309700Y-97677354D01*
X113309699Y-97677354D01*
X113279266Y-97674500D01*
X112670734Y-97674500D01*
X112640301Y-97677354D01*
X112640299Y-97677354D01*
X112640295Y-97677355D01*
X112512118Y-97722206D01*
X112512116Y-97722207D01*
X112402853Y-97802846D01*
X112402846Y-97802853D01*
X112322207Y-97912116D01*
X112322206Y-97912118D01*
X112277355Y-98040295D01*
X112277354Y-98040299D01*
X112277354Y-98040301D01*
X112274500Y-98070734D01*
X112274500Y-98070740D01*
X112274500Y-98844877D01*
X112252826Y-98897203D01*
X111051826Y-100098203D01*
X110999500Y-100119877D01*
X110947174Y-100098203D01*
X110925500Y-100045877D01*
X110925500Y-93535592D01*
X113050000Y-93535592D01*
X113060620Y-93608482D01*
X113115587Y-93720917D01*
X113204082Y-93809412D01*
X113316517Y-93864379D01*
X113389407Y-93874999D01*
X113389418Y-93875000D01*
X113550000Y-93875000D01*
X113750000Y-93875000D01*
X113910582Y-93875000D01*
X113910592Y-93874999D01*
X113983482Y-93864379D01*
X114095917Y-93809412D01*
X114184412Y-93720917D01*
X114239379Y-93608482D01*
X114249999Y-93535592D01*
X114250000Y-93535581D01*
X114250000Y-93350000D01*
X113750000Y-93350000D01*
X113750000Y-93875000D01*
X113550000Y-93875000D01*
X113550000Y-93350000D01*
X113050000Y-93350000D01*
X113050000Y-93535592D01*
X110925500Y-93535592D01*
X110925500Y-92964407D01*
X113050000Y-92964407D01*
X113050000Y-93150000D01*
X113550000Y-93150000D01*
X113550000Y-92625000D01*
X113389407Y-92625000D01*
X113316517Y-92635620D01*
X113204082Y-92690587D01*
X113115587Y-92779082D01*
X113060620Y-92891517D01*
X113050000Y-92964407D01*
X110925500Y-92964407D01*
X110925500Y-86654735D01*
X113705200Y-86654735D01*
X113705200Y-92095264D01*
X113725678Y-92171688D01*
X113744922Y-92205021D01*
X113744923Y-92205021D01*
X113765240Y-92240211D01*
X114033155Y-92508126D01*
X114054829Y-92560452D01*
X114033155Y-92612778D01*
X113980829Y-92634452D01*
X113970161Y-92633679D01*
X113910595Y-92625000D01*
X113750000Y-92625000D01*
X113750000Y-93150000D01*
X114250000Y-93150000D01*
X114250000Y-92964418D01*
X114249999Y-92964407D01*
X114241320Y-92904839D01*
X114255224Y-92849935D01*
X114303878Y-92820943D01*
X114358782Y-92834847D01*
X114366873Y-92841844D01*
X114527826Y-93002797D01*
X114549500Y-93055123D01*
X114549500Y-93533488D01*
X114565280Y-93633125D01*
X114565281Y-93633126D01*
X114610012Y-93720917D01*
X114626472Y-93753220D01*
X114721780Y-93848528D01*
X114841874Y-93909719D01*
X114941511Y-93925500D01*
X114941512Y-93925500D01*
X115458489Y-93925500D01*
X115508307Y-93917609D01*
X115558126Y-93909719D01*
X115678220Y-93848528D01*
X115773528Y-93753220D01*
X115834719Y-93633126D01*
X115850500Y-93533488D01*
X115850500Y-92966512D01*
X115850168Y-92964418D01*
X115834719Y-92866874D01*
X115834718Y-92866873D01*
X115821965Y-92841844D01*
X115773528Y-92746780D01*
X115678220Y-92651472D01*
X115678219Y-92651471D01*
X115558126Y-92590281D01*
X115558125Y-92590280D01*
X115458489Y-92574500D01*
X115458488Y-92574500D01*
X114980123Y-92574500D01*
X114927797Y-92552826D01*
X114327874Y-91952903D01*
X114306200Y-91900577D01*
X114306200Y-88865638D01*
X114327874Y-88813312D01*
X114380200Y-88791638D01*
X114432526Y-88813312D01*
X114490238Y-88871024D01*
X114567240Y-88926969D01*
X114628977Y-88971824D01*
X114658609Y-88986922D01*
X114781777Y-89049679D01*
X114781779Y-89049679D01*
X114781782Y-89049681D01*
X114944864Y-89102670D01*
X114944870Y-89102671D01*
X114944875Y-89102673D01*
X115057794Y-89120557D01*
X115114253Y-89129500D01*
X115114254Y-89129500D01*
X115285747Y-89129500D01*
X115328090Y-89122793D01*
X115455125Y-89102673D01*
X115455132Y-89102670D01*
X115455135Y-89102670D01*
X115618217Y-89049681D01*
X115618218Y-89049681D01*
X115618220Y-89049679D01*
X115618223Y-89049679D01*
X115680607Y-89017891D01*
X115737070Y-89013448D01*
X115766529Y-89031500D01*
X117727826Y-90992797D01*
X117749500Y-91045123D01*
X117749500Y-99917951D01*
X117727826Y-99970277D01*
X117696665Y-99986171D01*
X117697416Y-99988480D01*
X117691873Y-99990281D01*
X117571780Y-100051471D01*
X117476471Y-100146780D01*
X117415281Y-100266873D01*
X117415280Y-100266874D01*
X117399500Y-100366511D01*
X117399500Y-100933488D01*
X117415280Y-101033125D01*
X117415281Y-101033126D01*
X117468563Y-101137699D01*
X117476472Y-101153220D01*
X117571780Y-101248528D01*
X117691874Y-101309719D01*
X117791511Y-101325500D01*
X117791512Y-101325500D01*
X118308489Y-101325500D01*
X118382012Y-101313855D01*
X118408126Y-101309719D01*
X118528220Y-101248528D01*
X118623528Y-101153220D01*
X118684719Y-101033126D01*
X118700500Y-100933488D01*
X118700500Y-100366512D01*
X118700492Y-100366464D01*
X118684719Y-100266874D01*
X118684718Y-100266873D01*
X118680752Y-100259090D01*
X118623528Y-100146780D01*
X118528220Y-100051472D01*
X118528219Y-100051471D01*
X118408126Y-99990281D01*
X118402584Y-99988480D01*
X118403602Y-99985346D01*
X118364593Y-99961392D01*
X118350500Y-99917951D01*
X118350500Y-90850438D01*
X118344163Y-90826787D01*
X118344163Y-90826786D01*
X118330023Y-90774016D01*
X118330022Y-90774012D01*
X118290460Y-90705489D01*
X116191500Y-88606529D01*
X116169826Y-88554203D01*
X116177892Y-88520607D01*
X116207070Y-88463343D01*
X116209679Y-88458223D01*
X116244745Y-88350301D01*
X116262670Y-88295135D01*
X116262670Y-88295132D01*
X116262673Y-88295125D01*
X116289500Y-88125746D01*
X116289500Y-87954254D01*
X116262673Y-87784875D01*
X116262671Y-87784870D01*
X116262670Y-87784864D01*
X116209681Y-87621782D01*
X116209679Y-87621779D01*
X116209679Y-87621777D01*
X116146077Y-87496951D01*
X116131824Y-87468977D01*
X116082950Y-87401709D01*
X116031024Y-87330238D01*
X115909762Y-87208976D01*
X115855995Y-87169912D01*
X115771022Y-87108175D01*
X115618217Y-87030318D01*
X115455135Y-86977329D01*
X115455122Y-86977326D01*
X115285747Y-86950500D01*
X115285746Y-86950500D01*
X115114254Y-86950500D01*
X115114253Y-86950500D01*
X114944877Y-86977326D01*
X114944864Y-86977329D01*
X114781782Y-87030318D01*
X114628977Y-87108175D01*
X114490242Y-87208973D01*
X114490238Y-87208976D01*
X114490233Y-87208981D01*
X114432526Y-87266688D01*
X114380200Y-87288362D01*
X114327874Y-87266688D01*
X114306200Y-87214362D01*
X114306200Y-86849422D01*
X114327873Y-86797097D01*
X114633471Y-86491498D01*
X114685796Y-86469825D01*
X114719388Y-86477890D01*
X114781777Y-86509679D01*
X114781779Y-86509679D01*
X114781782Y-86509681D01*
X114944864Y-86562670D01*
X114944870Y-86562671D01*
X114944875Y-86562673D01*
X115057794Y-86580557D01*
X115114253Y-86589500D01*
X115114254Y-86589500D01*
X115285747Y-86589500D01*
X115328090Y-86582793D01*
X115455125Y-86562673D01*
X115455132Y-86562670D01*
X115455135Y-86562670D01*
X115618217Y-86509681D01*
X115618217Y-86509680D01*
X115618223Y-86509679D01*
X115771022Y-86431824D01*
X115909762Y-86331024D01*
X116031024Y-86209762D01*
X116131824Y-86071022D01*
X116209679Y-85918223D01*
X116262673Y-85755125D01*
X116289500Y-85585746D01*
X116289500Y-85414254D01*
X116262673Y-85244875D01*
X116262671Y-85244870D01*
X116262670Y-85244864D01*
X116209681Y-85081782D01*
X116209679Y-85081779D01*
X116209679Y-85081777D01*
X116169349Y-85002625D01*
X116131824Y-84928977D01*
X116086969Y-84867240D01*
X116031024Y-84790238D01*
X115909762Y-84668976D01*
X115855995Y-84629912D01*
X115771022Y-84568175D01*
X115618217Y-84490318D01*
X115455135Y-84437329D01*
X115455122Y-84437326D01*
X115285747Y-84410500D01*
X115285746Y-84410500D01*
X115114254Y-84410500D01*
X115114253Y-84410500D01*
X114944877Y-84437326D01*
X114944864Y-84437329D01*
X114781782Y-84490318D01*
X114628977Y-84568175D01*
X114490242Y-84668973D01*
X114490238Y-84668976D01*
X114368976Y-84790238D01*
X114368973Y-84790241D01*
X114368973Y-84790242D01*
X114268175Y-84928977D01*
X114190318Y-85081782D01*
X114137329Y-85244864D01*
X114137326Y-85244877D01*
X114110500Y-85414253D01*
X114110500Y-85585746D01*
X114137326Y-85755122D01*
X114137329Y-85755135D01*
X114190319Y-85918219D01*
X114190321Y-85918224D01*
X114222107Y-85980607D01*
X114226551Y-86037069D01*
X114208499Y-86066528D01*
X113821189Y-86453840D01*
X113765240Y-86509788D01*
X113725679Y-86578309D01*
X113725677Y-86578314D01*
X113705200Y-86654735D01*
X110925500Y-86654735D01*
X110925500Y-82857668D01*
X114161000Y-82857668D01*
X114161000Y-83062331D01*
X114200926Y-83263059D01*
X114200929Y-83263069D01*
X114279247Y-83452146D01*
X114392955Y-83622323D01*
X114394605Y-83623973D01*
X114782210Y-83236367D01*
X114799901Y-83267007D01*
X114892993Y-83360099D01*
X114923632Y-83377788D01*
X114536026Y-83765394D01*
X114537676Y-83767044D01*
X114707854Y-83880752D01*
X114707853Y-83880752D01*
X114896930Y-83959070D01*
X114896940Y-83959073D01*
X115097669Y-83999000D01*
X115302331Y-83999000D01*
X115503059Y-83959073D01*
X115503069Y-83959070D01*
X115692146Y-83880752D01*
X115862318Y-83767047D01*
X115862324Y-83767042D01*
X115863972Y-83765394D01*
X115476367Y-83377788D01*
X115507007Y-83360099D01*
X115600099Y-83267007D01*
X115617789Y-83236367D01*
X116005393Y-83623971D01*
X116007042Y-83622324D01*
X116007047Y-83622318D01*
X116120752Y-83452146D01*
X116199070Y-83263069D01*
X116199073Y-83263059D01*
X116239000Y-83062331D01*
X116239000Y-82857668D01*
X116199073Y-82656940D01*
X116199070Y-82656930D01*
X116120752Y-82467853D01*
X116007044Y-82297676D01*
X116005394Y-82296026D01*
X115617788Y-82683631D01*
X115600099Y-82652993D01*
X115507007Y-82559901D01*
X115476366Y-82542210D01*
X115863973Y-82154605D01*
X115862323Y-82152955D01*
X115692145Y-82039247D01*
X115692146Y-82039247D01*
X115503069Y-81960929D01*
X115503059Y-81960926D01*
X115302331Y-81921000D01*
X115097669Y-81921000D01*
X114896940Y-81960926D01*
X114896930Y-81960929D01*
X114707853Y-82039247D01*
X114537673Y-82152958D01*
X114536026Y-82154604D01*
X114923632Y-82542211D01*
X114892993Y-82559901D01*
X114799901Y-82652993D01*
X114782211Y-82683632D01*
X114394604Y-82296026D01*
X114392958Y-82297673D01*
X114279247Y-82467853D01*
X114200929Y-82656930D01*
X114200926Y-82656940D01*
X114161000Y-82857668D01*
X110925500Y-82857668D01*
X110925500Y-80334253D01*
X114110500Y-80334253D01*
X114110500Y-80505746D01*
X114137326Y-80675122D01*
X114137329Y-80675135D01*
X114190318Y-80838217D01*
X114268175Y-80991022D01*
X114319479Y-81061635D01*
X114368976Y-81129762D01*
X114490238Y-81251024D01*
X114567240Y-81306969D01*
X114628977Y-81351824D01*
X114702625Y-81389349D01*
X114781777Y-81429679D01*
X114781779Y-81429679D01*
X114781782Y-81429681D01*
X114944864Y-81482670D01*
X114944870Y-81482671D01*
X114944875Y-81482673D01*
X115057794Y-81500557D01*
X115114253Y-81509500D01*
X115114254Y-81509500D01*
X115285747Y-81509500D01*
X115328090Y-81502793D01*
X115455125Y-81482673D01*
X115455132Y-81482670D01*
X115455135Y-81482670D01*
X115618217Y-81429681D01*
X115618217Y-81429680D01*
X115618223Y-81429679D01*
X115771022Y-81351824D01*
X115909762Y-81251024D01*
X116031024Y-81129762D01*
X116131824Y-80991022D01*
X116209679Y-80838223D01*
X116220961Y-80803500D01*
X116262670Y-80675135D01*
X116262670Y-80675132D01*
X116262673Y-80675125D01*
X116289500Y-80505746D01*
X116289500Y-80334254D01*
X116262673Y-80164875D01*
X116262671Y-80164870D01*
X116262670Y-80164864D01*
X116209681Y-80001782D01*
X116209679Y-80001779D01*
X116209679Y-80001777D01*
X116168211Y-79920392D01*
X116131824Y-79848977D01*
X116072108Y-79766786D01*
X116031024Y-79710238D01*
X115909762Y-79588976D01*
X115849847Y-79545445D01*
X115797903Y-79507705D01*
X119980700Y-79507705D01*
X119980700Y-79639494D01*
X120014806Y-79766781D01*
X120014810Y-79766790D01*
X120049011Y-79826027D01*
X120080700Y-79880914D01*
X120173886Y-79974100D01*
X120288014Y-80039992D01*
X120415305Y-80074099D01*
X120415306Y-80074100D01*
X120415308Y-80074100D01*
X120547094Y-80074100D01*
X120547094Y-80074099D01*
X120674386Y-80039992D01*
X120788514Y-79974100D01*
X120881700Y-79880914D01*
X120947592Y-79766786D01*
X120981699Y-79639494D01*
X120981700Y-79639494D01*
X120981700Y-79507706D01*
X120981699Y-79507705D01*
X120966726Y-79451826D01*
X120947592Y-79380414D01*
X120881700Y-79266286D01*
X120788514Y-79173100D01*
X120764125Y-79159019D01*
X120674390Y-79107210D01*
X120674381Y-79107206D01*
X120547094Y-79073100D01*
X120547092Y-79073100D01*
X120415308Y-79073100D01*
X120415306Y-79073100D01*
X120288018Y-79107206D01*
X120288009Y-79107210D01*
X120173885Y-79173100D01*
X120080700Y-79266285D01*
X120014810Y-79380409D01*
X120014806Y-79380418D01*
X119980700Y-79507705D01*
X115797903Y-79507705D01*
X115771022Y-79488175D01*
X115618217Y-79410318D01*
X115455135Y-79357329D01*
X115455122Y-79357326D01*
X115285747Y-79330500D01*
X115285746Y-79330500D01*
X115114254Y-79330500D01*
X115114253Y-79330500D01*
X114944877Y-79357326D01*
X114944864Y-79357329D01*
X114781782Y-79410318D01*
X114628977Y-79488175D01*
X114490242Y-79588973D01*
X114490238Y-79588976D01*
X114368976Y-79710238D01*
X114368973Y-79710241D01*
X114368973Y-79710242D01*
X114268175Y-79848977D01*
X114190318Y-80001782D01*
X114137329Y-80164864D01*
X114137326Y-80164877D01*
X114110500Y-80334253D01*
X110925500Y-80334253D01*
X110925500Y-77794253D01*
X114110500Y-77794253D01*
X114110500Y-77965746D01*
X114137326Y-78135122D01*
X114137329Y-78135135D01*
X114190318Y-78298217D01*
X114268175Y-78451022D01*
X114329912Y-78535995D01*
X114368976Y-78589762D01*
X114490238Y-78711024D01*
X114567240Y-78766969D01*
X114628977Y-78811824D01*
X114702625Y-78849349D01*
X114781777Y-78889679D01*
X114781779Y-78889679D01*
X114781782Y-78889681D01*
X114944864Y-78942670D01*
X114944870Y-78942671D01*
X114944875Y-78942673D01*
X115057794Y-78960557D01*
X115114253Y-78969500D01*
X115114254Y-78969500D01*
X115285747Y-78969500D01*
X115328090Y-78962793D01*
X115455125Y-78942673D01*
X115455132Y-78942670D01*
X115455135Y-78942670D01*
X115618217Y-78889681D01*
X115618217Y-78889680D01*
X115618223Y-78889679D01*
X115771022Y-78811824D01*
X115909762Y-78711024D01*
X116031024Y-78589762D01*
X116131824Y-78451022D01*
X116209679Y-78298223D01*
X116262673Y-78135125D01*
X116289500Y-77965746D01*
X116289500Y-77794254D01*
X116262673Y-77624875D01*
X116262671Y-77624870D01*
X116262670Y-77624864D01*
X116209681Y-77461782D01*
X116209679Y-77461779D01*
X116209679Y-77461777D01*
X116145898Y-77336600D01*
X116131824Y-77308977D01*
X116086969Y-77247240D01*
X116031024Y-77170238D01*
X115909762Y-77048976D01*
X115840435Y-76998607D01*
X115771022Y-76948175D01*
X115618217Y-76870318D01*
X115455135Y-76817329D01*
X115455122Y-76817326D01*
X115285747Y-76790500D01*
X115285746Y-76790500D01*
X115114254Y-76790500D01*
X115114253Y-76790500D01*
X114944877Y-76817326D01*
X114944864Y-76817329D01*
X114781782Y-76870318D01*
X114628977Y-76948175D01*
X114490242Y-77048973D01*
X114490238Y-77048976D01*
X114368976Y-77170238D01*
X114368973Y-77170241D01*
X114368973Y-77170242D01*
X114268175Y-77308977D01*
X114190318Y-77461782D01*
X114137329Y-77624864D01*
X114137326Y-77624877D01*
X114110500Y-77794253D01*
X110925500Y-77794253D01*
X110925500Y-75254253D01*
X114110500Y-75254253D01*
X114110500Y-75425746D01*
X114137326Y-75595122D01*
X114137329Y-75595135D01*
X114190318Y-75758217D01*
X114268175Y-75911022D01*
X114329912Y-75995995D01*
X114368976Y-76049762D01*
X114490238Y-76171024D01*
X114567240Y-76226969D01*
X114628977Y-76271824D01*
X114702625Y-76309349D01*
X114781777Y-76349679D01*
X114781779Y-76349679D01*
X114781782Y-76349681D01*
X114944864Y-76402670D01*
X114944870Y-76402671D01*
X114944875Y-76402673D01*
X115057794Y-76420557D01*
X115114253Y-76429500D01*
X115114254Y-76429500D01*
X115285747Y-76429500D01*
X115328090Y-76422793D01*
X115455125Y-76402673D01*
X115455132Y-76402670D01*
X115455135Y-76402670D01*
X115618217Y-76349681D01*
X115618217Y-76349680D01*
X115618223Y-76349679D01*
X115771022Y-76271824D01*
X115909762Y-76171024D01*
X116031024Y-76049762D01*
X116131824Y-75911022D01*
X116209679Y-75758223D01*
X116231223Y-75691917D01*
X116262670Y-75595135D01*
X116262670Y-75595132D01*
X116262673Y-75595125D01*
X116289500Y-75425746D01*
X116289500Y-75254254D01*
X116262673Y-75084875D01*
X116262671Y-75084870D01*
X116262670Y-75084864D01*
X116209681Y-74921782D01*
X116209679Y-74921779D01*
X116209679Y-74921777D01*
X116169349Y-74842625D01*
X116131824Y-74768977D01*
X116086969Y-74707240D01*
X116031024Y-74630238D01*
X115909762Y-74508976D01*
X115855995Y-74469912D01*
X115771022Y-74408175D01*
X115618217Y-74330318D01*
X115455135Y-74277329D01*
X115455122Y-74277326D01*
X115285747Y-74250500D01*
X115285746Y-74250500D01*
X115114254Y-74250500D01*
X115114253Y-74250500D01*
X114944877Y-74277326D01*
X114944864Y-74277329D01*
X114781782Y-74330318D01*
X114628977Y-74408175D01*
X114490242Y-74508973D01*
X114490238Y-74508976D01*
X114368976Y-74630238D01*
X114368973Y-74630241D01*
X114368973Y-74630242D01*
X114268175Y-74768977D01*
X114190318Y-74921782D01*
X114137329Y-75084864D01*
X114137326Y-75084877D01*
X114110500Y-75254253D01*
X110925500Y-75254253D01*
X110925500Y-72714253D01*
X114110500Y-72714253D01*
X114110500Y-72885746D01*
X114137326Y-73055122D01*
X114137329Y-73055135D01*
X114190318Y-73218217D01*
X114268175Y-73371022D01*
X114329912Y-73455995D01*
X114368976Y-73509762D01*
X114490238Y-73631024D01*
X114567240Y-73686969D01*
X114628977Y-73731824D01*
X114702625Y-73769349D01*
X114781777Y-73809679D01*
X114781779Y-73809679D01*
X114781782Y-73809681D01*
X114944864Y-73862670D01*
X114944870Y-73862671D01*
X114944875Y-73862673D01*
X115057794Y-73880557D01*
X115114253Y-73889500D01*
X115114254Y-73889500D01*
X115285747Y-73889500D01*
X115328090Y-73882793D01*
X115455125Y-73862673D01*
X115455132Y-73862670D01*
X115455135Y-73862670D01*
X115618217Y-73809681D01*
X115618217Y-73809680D01*
X115618223Y-73809679D01*
X115771022Y-73731824D01*
X115909762Y-73631024D01*
X116031024Y-73509762D01*
X116131824Y-73371022D01*
X116209679Y-73218223D01*
X116262673Y-73055125D01*
X116289500Y-72885746D01*
X116289500Y-72714254D01*
X116262673Y-72544875D01*
X116262671Y-72544870D01*
X116262670Y-72544864D01*
X116209681Y-72381782D01*
X116209679Y-72381779D01*
X116209679Y-72381777D01*
X116169349Y-72302625D01*
X116131824Y-72228977D01*
X116086969Y-72167240D01*
X116031024Y-72090238D01*
X115909762Y-71968976D01*
X115855995Y-71929912D01*
X115771022Y-71868175D01*
X115618217Y-71790318D01*
X115455135Y-71737329D01*
X115455122Y-71737326D01*
X115285747Y-71710500D01*
X115285746Y-71710500D01*
X115114254Y-71710500D01*
X115114253Y-71710500D01*
X114944877Y-71737326D01*
X114944864Y-71737329D01*
X114781782Y-71790318D01*
X114628977Y-71868175D01*
X114490242Y-71968973D01*
X114490238Y-71968976D01*
X114368976Y-72090238D01*
X114368973Y-72090241D01*
X114368973Y-72090242D01*
X114268175Y-72228977D01*
X114190318Y-72381782D01*
X114137329Y-72544864D01*
X114137326Y-72544877D01*
X114110500Y-72714253D01*
X110925500Y-72714253D01*
X110925500Y-70174253D01*
X114110500Y-70174253D01*
X114110500Y-70345746D01*
X114137326Y-70515122D01*
X114137329Y-70515135D01*
X114190318Y-70678217D01*
X114268175Y-70831022D01*
X114329912Y-70915995D01*
X114368976Y-70969762D01*
X114490238Y-71091024D01*
X114567240Y-71146969D01*
X114628977Y-71191824D01*
X114702625Y-71229349D01*
X114781777Y-71269679D01*
X114781779Y-71269679D01*
X114781782Y-71269681D01*
X114944864Y-71322670D01*
X114944870Y-71322671D01*
X114944875Y-71322673D01*
X115057794Y-71340557D01*
X115114253Y-71349500D01*
X115114254Y-71349500D01*
X115285747Y-71349500D01*
X115328090Y-71342793D01*
X115455125Y-71322673D01*
X115455132Y-71322670D01*
X115455135Y-71322670D01*
X115618217Y-71269681D01*
X115618217Y-71269680D01*
X115618223Y-71269679D01*
X115771022Y-71191824D01*
X115909762Y-71091024D01*
X116031024Y-70969762D01*
X116131824Y-70831022D01*
X116209679Y-70678223D01*
X116230061Y-70615495D01*
X116262670Y-70515135D01*
X116262670Y-70515132D01*
X116262673Y-70515125D01*
X116289500Y-70345746D01*
X116289500Y-70174254D01*
X116262673Y-70004875D01*
X116262671Y-70004870D01*
X116262670Y-70004864D01*
X116209681Y-69841782D01*
X116209679Y-69841779D01*
X116209679Y-69841777D01*
X116169349Y-69762625D01*
X116131824Y-69688977D01*
X116086969Y-69627240D01*
X116031024Y-69550238D01*
X115909762Y-69428976D01*
X115855995Y-69389912D01*
X115771022Y-69328175D01*
X115618217Y-69250318D01*
X115455135Y-69197329D01*
X115455122Y-69197326D01*
X115285747Y-69170500D01*
X115285746Y-69170500D01*
X115114254Y-69170500D01*
X115114253Y-69170500D01*
X114944877Y-69197326D01*
X114944864Y-69197329D01*
X114781782Y-69250318D01*
X114628977Y-69328175D01*
X114490242Y-69428973D01*
X114490238Y-69428976D01*
X114368976Y-69550238D01*
X114368973Y-69550241D01*
X114368973Y-69550242D01*
X114268175Y-69688977D01*
X114190318Y-69841782D01*
X114137329Y-70004864D01*
X114137326Y-70004877D01*
X114110500Y-70174253D01*
X110925500Y-70174253D01*
X110925500Y-67374500D01*
X110947174Y-67322174D01*
X110999500Y-67300500D01*
X136100500Y-67300500D01*
X136152826Y-67322174D01*
G37*
%TD.AperFunction*%
%TA.AperFunction,Conductor*%
G36*
X129643657Y-98478639D02*
G01*
X129658026Y-98478498D01*
X129668784Y-98489047D01*
X129682707Y-98494814D01*
X129693305Y-98513091D01*
X129698466Y-98518151D01*
X129701904Y-98526225D01*
X129702293Y-98529580D01*
X129731397Y-98595495D01*
X129731617Y-98596011D01*
X129731890Y-98623841D01*
X129732535Y-98651732D01*
X129732168Y-98652115D01*
X129732174Y-98652645D01*
X129731227Y-98654890D01*
X129702292Y-98720422D01*
X129699500Y-98744495D01*
X129699500Y-99005503D01*
X129702292Y-99029575D01*
X129702293Y-99029581D01*
X129731227Y-99095110D01*
X129732535Y-99151732D01*
X129731227Y-99154890D01*
X129702292Y-99220422D01*
X129699500Y-99244495D01*
X129699500Y-99505503D01*
X129702292Y-99529575D01*
X129702293Y-99529580D01*
X129745785Y-99628079D01*
X129771426Y-99653720D01*
X129793100Y-99706046D01*
X129793100Y-100185534D01*
X129771426Y-100237860D01*
X129693100Y-100316185D01*
X129627210Y-100430309D01*
X129627206Y-100430318D01*
X129593100Y-100557605D01*
X129593100Y-100689394D01*
X129627206Y-100816681D01*
X129627210Y-100816690D01*
X129667605Y-100886656D01*
X129693100Y-100930814D01*
X129786286Y-101024000D01*
X129900414Y-101089892D01*
X130027705Y-101123999D01*
X130027706Y-101124000D01*
X130027708Y-101124000D01*
X130159494Y-101124000D01*
X130159494Y-101123999D01*
X130286786Y-101089892D01*
X130400914Y-101024000D01*
X130494100Y-100930814D01*
X130559992Y-100816686D01*
X130594099Y-100689394D01*
X130594100Y-100689394D01*
X130594100Y-100557606D01*
X130594099Y-100557605D01*
X130590458Y-100544018D01*
X130559992Y-100430314D01*
X130494100Y-100316186D01*
X130415774Y-100237860D01*
X130394100Y-100185534D01*
X130394100Y-99952512D01*
X130415774Y-99900186D01*
X130468100Y-99878512D01*
X130520426Y-99900186D01*
X130529151Y-99910693D01*
X130530784Y-99913077D01*
X130530785Y-99913079D01*
X130606921Y-99989215D01*
X130705420Y-100032707D01*
X130729495Y-100035500D01*
X130990504Y-100035499D01*
X131014580Y-100032707D01*
X131113079Y-99989215D01*
X131113082Y-99989211D01*
X131118737Y-99985339D01*
X131120145Y-99987394D01*
X131163508Y-99969425D01*
X131177957Y-99970847D01*
X131249110Y-99985000D01*
X131260000Y-99985000D01*
X131260000Y-99614000D01*
X131281674Y-99561674D01*
X131334000Y-99540000D01*
X131386000Y-99540000D01*
X131438326Y-99561674D01*
X131460000Y-99614000D01*
X131460000Y-99985000D01*
X131470890Y-99985000D01*
X131542042Y-99970847D01*
X131597591Y-99981896D01*
X131604435Y-99987513D01*
X131606915Y-99989212D01*
X131606920Y-99989214D01*
X131606921Y-99989215D01*
X131705420Y-100032707D01*
X131729495Y-100035500D01*
X131951777Y-100035499D01*
X132004103Y-100057173D01*
X132025777Y-100109499D01*
X132004103Y-100161825D01*
X130065489Y-102100440D01*
X130009540Y-102156388D01*
X129969979Y-102224909D01*
X129969977Y-102224914D01*
X129949500Y-102301335D01*
X129949500Y-102634523D01*
X129946432Y-102641929D01*
X129927826Y-102686848D01*
X129927825Y-102686848D01*
X129869960Y-102744712D01*
X129817634Y-102766386D01*
X129776522Y-102753914D01*
X129682300Y-102690955D01*
X129602087Y-102675000D01*
X129550000Y-102675000D01*
X129550000Y-104475000D01*
X129602087Y-104475000D01*
X129682300Y-104459044D01*
X129776523Y-104396086D01*
X129832072Y-104385036D01*
X129869962Y-104405288D01*
X129935421Y-104470747D01*
X130039455Y-104519259D01*
X130086861Y-104525500D01*
X130413138Y-104525499D01*
X130460545Y-104519259D01*
X130564579Y-104470747D01*
X130597674Y-104437652D01*
X130650000Y-104415978D01*
X130702326Y-104437652D01*
X130727826Y-104463152D01*
X130749500Y-104515478D01*
X130749500Y-106870176D01*
X130727826Y-106922502D01*
X130587502Y-107062826D01*
X130535176Y-107084500D01*
X130424406Y-107084500D01*
X130297118Y-107118606D01*
X130297109Y-107118610D01*
X130182985Y-107184500D01*
X130089800Y-107277685D01*
X130023910Y-107391809D01*
X130023907Y-107391815D01*
X130014916Y-107425370D01*
X129980436Y-107470302D01*
X129924283Y-107477693D01*
X129891112Y-107458541D01*
X129786711Y-107354140D01*
X129760638Y-107339087D01*
X129718190Y-107314579D01*
X129718185Y-107314577D01*
X129641764Y-107294100D01*
X129641762Y-107294100D01*
X129143666Y-107294100D01*
X129091340Y-107272426D01*
X129013014Y-107194100D01*
X128898890Y-107128210D01*
X128898881Y-107128206D01*
X128771594Y-107094100D01*
X128771592Y-107094100D01*
X128639808Y-107094100D01*
X128639806Y-107094100D01*
X128512518Y-107128206D01*
X128512509Y-107128210D01*
X128398385Y-107194100D01*
X128305200Y-107287285D01*
X128239310Y-107401409D01*
X128239306Y-107401418D01*
X128205200Y-107528705D01*
X128205200Y-107660494D01*
X128239306Y-107787781D01*
X128239310Y-107787790D01*
X128266810Y-107835421D01*
X128305200Y-107901914D01*
X128398386Y-107995100D01*
X128398388Y-107995101D01*
X128401816Y-107998529D01*
X128400834Y-107999510D01*
X128426528Y-108044015D01*
X128411868Y-108098722D01*
X128405494Y-108105991D01*
X128405201Y-108106283D01*
X128339310Y-108220409D01*
X128339306Y-108220418D01*
X128305200Y-108347705D01*
X128305200Y-108479494D01*
X128339306Y-108606781D01*
X128339310Y-108606790D01*
X128380940Y-108678894D01*
X128405200Y-108720914D01*
X128498386Y-108814100D01*
X128612514Y-108879992D01*
X128739805Y-108914099D01*
X128739806Y-108914100D01*
X128739808Y-108914100D01*
X128871594Y-108914100D01*
X128871594Y-108914099D01*
X128998886Y-108879992D01*
X129113014Y-108814100D01*
X129206200Y-108720914D01*
X129272092Y-108606786D01*
X129306199Y-108479494D01*
X129306200Y-108479494D01*
X129306200Y-108347706D01*
X129306199Y-108347705D01*
X129294141Y-108302705D01*
X129272092Y-108220414D01*
X129206200Y-108106286D01*
X129121338Y-108021424D01*
X129099665Y-107969100D01*
X129121339Y-107916774D01*
X129173665Y-107895100D01*
X129447077Y-107895100D01*
X129499403Y-107916774D01*
X129953940Y-108371311D01*
X130009889Y-108427260D01*
X130078411Y-108466821D01*
X130078412Y-108466821D01*
X130078414Y-108466822D01*
X130116624Y-108477060D01*
X130154835Y-108487299D01*
X130154836Y-108487300D01*
X130154838Y-108487300D01*
X130780764Y-108487300D01*
X130780764Y-108487299D01*
X130857189Y-108466821D01*
X130925711Y-108427260D01*
X130981660Y-108371311D01*
X132223174Y-107129797D01*
X132275500Y-107108123D01*
X132327826Y-107129797D01*
X132349500Y-107182123D01*
X132349500Y-110984523D01*
X132344476Y-110996651D01*
X132327826Y-111036848D01*
X132327825Y-111036849D01*
X132302324Y-111062349D01*
X132249998Y-111084022D01*
X132197673Y-111062347D01*
X132164579Y-111029253D01*
X132060545Y-110980741D01*
X132060543Y-110980740D01*
X132025619Y-110976142D01*
X132013139Y-110974500D01*
X132013137Y-110974500D01*
X131686862Y-110974500D01*
X131639456Y-110980740D01*
X131639454Y-110980741D01*
X131535420Y-111029253D01*
X131502326Y-111062348D01*
X131450000Y-111084022D01*
X131397674Y-111062348D01*
X131364579Y-111029253D01*
X131302916Y-111000499D01*
X131260545Y-110980741D01*
X131260543Y-110980740D01*
X131225619Y-110976142D01*
X131213139Y-110974500D01*
X131213137Y-110974500D01*
X130886862Y-110974500D01*
X130839456Y-110980740D01*
X130839454Y-110980741D01*
X130735420Y-111029253D01*
X130702326Y-111062348D01*
X130650000Y-111084022D01*
X130597674Y-111062348D01*
X130564579Y-111029253D01*
X130502916Y-111000499D01*
X130460545Y-110980741D01*
X130460543Y-110980740D01*
X130425619Y-110976142D01*
X130413139Y-110974500D01*
X130413137Y-110974500D01*
X130132878Y-110974500D01*
X130080552Y-110952826D01*
X130058878Y-110900500D01*
X130068792Y-110863502D01*
X130102692Y-110804786D01*
X130136799Y-110677494D01*
X130136800Y-110677494D01*
X130136800Y-110545706D01*
X130136799Y-110545705D01*
X130107627Y-110436834D01*
X130102692Y-110418414D01*
X130036800Y-110304286D01*
X129943614Y-110211100D01*
X129928417Y-110202326D01*
X129829490Y-110145210D01*
X129829481Y-110145206D01*
X129702194Y-110111100D01*
X129702192Y-110111100D01*
X129591423Y-110111100D01*
X129539097Y-110089426D01*
X128959211Y-109509540D01*
X128923993Y-109489207D01*
X128890690Y-109469979D01*
X128890685Y-109469977D01*
X128814264Y-109449500D01*
X128814262Y-109449500D01*
X127744108Y-109449500D01*
X127691782Y-109427826D01*
X127670108Y-109375500D01*
X127680022Y-109338500D01*
X127696944Y-109309190D01*
X127716692Y-109274986D01*
X127750799Y-109147694D01*
X127750800Y-109147694D01*
X127750800Y-109015906D01*
X127750799Y-109015905D01*
X127750154Y-109013499D01*
X127716692Y-108888614D01*
X127650800Y-108774486D01*
X127557614Y-108681300D01*
X127545836Y-108674500D01*
X127443490Y-108615410D01*
X127443481Y-108615406D01*
X127316194Y-108581300D01*
X127316192Y-108581300D01*
X127184408Y-108581300D01*
X127184406Y-108581300D01*
X127057118Y-108615406D01*
X127057109Y-108615410D01*
X127015236Y-108639586D01*
X126978236Y-108649500D01*
X126615478Y-108649500D01*
X126563152Y-108627826D01*
X126537652Y-108602326D01*
X126515978Y-108550000D01*
X126537652Y-108497674D01*
X126548027Y-108487299D01*
X126570747Y-108464579D01*
X126619259Y-108360545D01*
X126625500Y-108313139D01*
X126625499Y-108254322D01*
X126647171Y-108201998D01*
X127015360Y-107833811D01*
X127054922Y-107765288D01*
X127075400Y-107688862D01*
X127075400Y-107609738D01*
X127075400Y-104635238D01*
X127075400Y-104635236D01*
X127070956Y-104618653D01*
X127078347Y-104562500D01*
X127123280Y-104528021D01*
X127142434Y-104525499D01*
X127213138Y-104525499D01*
X127260545Y-104519259D01*
X127364579Y-104470747D01*
X127397674Y-104437652D01*
X127450000Y-104415978D01*
X127502326Y-104437652D01*
X127535421Y-104470747D01*
X127639455Y-104519259D01*
X127686861Y-104525500D01*
X128013138Y-104525499D01*
X128060545Y-104519259D01*
X128164579Y-104470747D01*
X128197674Y-104437652D01*
X128250000Y-104415978D01*
X128302326Y-104437652D01*
X128335421Y-104470747D01*
X128439455Y-104519259D01*
X128486861Y-104525500D01*
X128813138Y-104525499D01*
X128860545Y-104519259D01*
X128964579Y-104470747D01*
X129030039Y-104405286D01*
X129082363Y-104383613D01*
X129123477Y-104396085D01*
X129217699Y-104459044D01*
X129297913Y-104475000D01*
X129350000Y-104475000D01*
X129350000Y-102675000D01*
X129297913Y-102675000D01*
X129217699Y-102690955D01*
X129123477Y-102753914D01*
X129102307Y-102758125D01*
X129082364Y-102766386D01*
X129075361Y-102763485D01*
X129067928Y-102764964D01*
X129030038Y-102744712D01*
X128972174Y-102686848D01*
X128950500Y-102634522D01*
X128950500Y-102275937D01*
X128949867Y-102271132D01*
X128951666Y-102270894D01*
X128951650Y-102241927D01*
X128964200Y-102195092D01*
X128964200Y-102063308D01*
X128964200Y-102063306D01*
X128964199Y-102063305D01*
X128948053Y-102003048D01*
X128930092Y-101936014D01*
X128864200Y-101821886D01*
X128771014Y-101728700D01*
X128735528Y-101708212D01*
X128656890Y-101662810D01*
X128656881Y-101662806D01*
X128529594Y-101628700D01*
X128529592Y-101628700D01*
X128397808Y-101628700D01*
X128397806Y-101628700D01*
X128270518Y-101662806D01*
X128270509Y-101662810D01*
X128156385Y-101728700D01*
X128063200Y-101821885D01*
X127997310Y-101936009D01*
X127997306Y-101936018D01*
X127963200Y-102063305D01*
X127963200Y-102195094D01*
X127997306Y-102322381D01*
X127997310Y-102322390D01*
X128063200Y-102436514D01*
X128134254Y-102507568D01*
X128155928Y-102559894D01*
X128134254Y-102612220D01*
X128081928Y-102633894D01*
X128061223Y-102630938D01*
X128060549Y-102630741D01*
X128028941Y-102626580D01*
X128013139Y-102624500D01*
X128013137Y-102624500D01*
X127686862Y-102624500D01*
X127639456Y-102630740D01*
X127639454Y-102630741D01*
X127535420Y-102679253D01*
X127502326Y-102712348D01*
X127450000Y-102734022D01*
X127397674Y-102712348D01*
X127364579Y-102679253D01*
X127294164Y-102646418D01*
X127260545Y-102630741D01*
X127260543Y-102630740D01*
X127225619Y-102626142D01*
X127213139Y-102624500D01*
X127213137Y-102624500D01*
X126886859Y-102624500D01*
X126879755Y-102625436D01*
X126825049Y-102610775D01*
X126796733Y-102561724D01*
X126796100Y-102552069D01*
X126796100Y-101307422D01*
X126817773Y-101255097D01*
X129578056Y-98494813D01*
X129591332Y-98489314D01*
X129601392Y-98479055D01*
X129616458Y-98478906D01*
X129630381Y-98473140D01*
X129643657Y-98478639D01*
G37*
%TD.AperFunction*%
%TA.AperFunction,Conductor*%
G36*
X124307767Y-99555220D02*
G01*
X124313400Y-99583539D01*
X124313400Y-101854377D01*
X124291726Y-101906703D01*
X124239400Y-101928377D01*
X124187074Y-101906703D01*
X122504474Y-100224103D01*
X122482800Y-100171777D01*
X122482800Y-99733599D01*
X122504474Y-99681273D01*
X122556800Y-99659599D01*
X122609126Y-99681273D01*
X122618329Y-99692487D01*
X122695538Y-99808039D01*
X122947210Y-99556366D01*
X122964901Y-99587007D01*
X123057993Y-99680099D01*
X123088631Y-99697788D01*
X122836959Y-99949460D01*
X122962373Y-100033259D01*
X123117063Y-100097334D01*
X123117069Y-100097336D01*
X123281284Y-100130000D01*
X123448716Y-100130000D01*
X123612930Y-100097336D01*
X123612936Y-100097334D01*
X123767625Y-100033260D01*
X123893039Y-99949461D01*
X123893039Y-99949460D01*
X123641367Y-99697788D01*
X123672007Y-99680099D01*
X123765099Y-99587007D01*
X123782788Y-99556367D01*
X124034460Y-99808039D01*
X124034461Y-99808039D01*
X124118261Y-99682623D01*
X124171033Y-99555221D01*
X124211081Y-99515172D01*
X124267718Y-99515172D01*
X124307767Y-99555220D01*
G37*
%TD.AperFunction*%
%TA.AperFunction,Conductor*%
G36*
X122609126Y-97469758D02*
G01*
X122695345Y-97555977D01*
X122867402Y-97670941D01*
X123058580Y-97750130D01*
X123261535Y-97790500D01*
X123261536Y-97790500D01*
X123468464Y-97790500D01*
X123468465Y-97790500D01*
X123671420Y-97750130D01*
X123822836Y-97687411D01*
X123879474Y-97687411D01*
X123903481Y-97703452D01*
X124291726Y-98091697D01*
X124313400Y-98144023D01*
X124313400Y-98976460D01*
X124291726Y-99028786D01*
X124239400Y-99050460D01*
X124187074Y-99028786D01*
X124171033Y-99004779D01*
X124118259Y-98877373D01*
X124034460Y-98751959D01*
X123782788Y-99003631D01*
X123765099Y-98972993D01*
X123672007Y-98879901D01*
X123641366Y-98862210D01*
X123893039Y-98610538D01*
X123767626Y-98526740D01*
X123612936Y-98462665D01*
X123612930Y-98462663D01*
X123448716Y-98430000D01*
X123281284Y-98430000D01*
X123117069Y-98462663D01*
X123117063Y-98462665D01*
X122962373Y-98526740D01*
X122836959Y-98610537D01*
X122836959Y-98610538D01*
X123088632Y-98862211D01*
X123057993Y-98879901D01*
X122964901Y-98972993D01*
X122947211Y-99003632D01*
X122695538Y-98751959D01*
X122695537Y-98751959D01*
X122618329Y-98867512D01*
X122571237Y-98898978D01*
X122515688Y-98887929D01*
X122484222Y-98840837D01*
X122482800Y-98826400D01*
X122482800Y-97522084D01*
X122504474Y-97469758D01*
X122556800Y-97448084D01*
X122609126Y-97469758D01*
G37*
%TD.AperFunction*%
%TD*%
M02*
