%TF.GenerationSoftware,KiCad,Pcbnew,9.0.3*%
%TF.CreationDate,2026-02-21T19:03:40-03:00*%
%TF.ProjectId,Boros_Rocket_Plate_V4,426f726f-7320-4526-9f63-6b6574202d20,rev?*%
%TF.SameCoordinates,Original*%
%TF.FileFunction,AssemblyDrawing,Top*%
%FSLAX46Y46*%
G04 Gerber Fmt 4.6, Leading zero omitted, Abs format (unit mm)*
G04 Created by KiCad (PCBNEW 9.0.3) date 2026-02-21 19:03:40*
%MOMM*%
%LPD*%
G01*
G04 APERTURE LIST*
%ADD10C,0.150000*%
%ADD11C,0.060000*%
%ADD12C,0.120000*%
%ADD13C,0.080000*%
%ADD14C,0.050000*%
%ADD15C,0.200000*%
%ADD16C,0.127000*%
%ADD17C,0.100000*%
G04 APERTURE END LIST*
D10*
X131803282Y-127042956D02*
X131231066Y-127042956D01*
X131517174Y-127042956D02*
X131517174Y-126041578D01*
X131517174Y-126041578D02*
X131421805Y-126184632D01*
X131421805Y-126184632D02*
X131326436Y-126280002D01*
X131326436Y-126280002D02*
X131231066Y-126327686D01*
X132280129Y-127042956D02*
X132470867Y-127042956D01*
X132470867Y-127042956D02*
X132566237Y-126995272D01*
X132566237Y-126995272D02*
X132613921Y-126947587D01*
X132613921Y-126947587D02*
X132709291Y-126804533D01*
X132709291Y-126804533D02*
X132756975Y-126613794D01*
X132756975Y-126613794D02*
X132756975Y-126232317D01*
X132756975Y-126232317D02*
X132709291Y-126136948D01*
X132709291Y-126136948D02*
X132661606Y-126089263D01*
X132661606Y-126089263D02*
X132566237Y-126041578D01*
X132566237Y-126041578D02*
X132375498Y-126041578D01*
X132375498Y-126041578D02*
X132280129Y-126089263D01*
X132280129Y-126089263D02*
X132232444Y-126136948D01*
X132232444Y-126136948D02*
X132184759Y-126232317D01*
X132184759Y-126232317D02*
X132184759Y-126470740D01*
X132184759Y-126470740D02*
X132232444Y-126566110D01*
X132232444Y-126566110D02*
X132280129Y-126613794D01*
X132280129Y-126613794D02*
X132375498Y-126661479D01*
X132375498Y-126661479D02*
X132566237Y-126661479D01*
X132566237Y-126661479D02*
X132661606Y-126613794D01*
X132661606Y-126613794D02*
X132709291Y-126566110D01*
X132709291Y-126566110D02*
X132756975Y-126470740D01*
X133329191Y-126470740D02*
X133233822Y-126423056D01*
X133233822Y-126423056D02*
X133186137Y-126375371D01*
X133186137Y-126375371D02*
X133138452Y-126280002D01*
X133138452Y-126280002D02*
X133138452Y-126232317D01*
X133138452Y-126232317D02*
X133186137Y-126136948D01*
X133186137Y-126136948D02*
X133233822Y-126089263D01*
X133233822Y-126089263D02*
X133329191Y-126041578D01*
X133329191Y-126041578D02*
X133519930Y-126041578D01*
X133519930Y-126041578D02*
X133615299Y-126089263D01*
X133615299Y-126089263D02*
X133662984Y-126136948D01*
X133662984Y-126136948D02*
X133710668Y-126232317D01*
X133710668Y-126232317D02*
X133710668Y-126280002D01*
X133710668Y-126280002D02*
X133662984Y-126375371D01*
X133662984Y-126375371D02*
X133615299Y-126423056D01*
X133615299Y-126423056D02*
X133519930Y-126470740D01*
X133519930Y-126470740D02*
X133329191Y-126470740D01*
X133329191Y-126470740D02*
X133233822Y-126518425D01*
X133233822Y-126518425D02*
X133186137Y-126566110D01*
X133186137Y-126566110D02*
X133138452Y-126661479D01*
X133138452Y-126661479D02*
X133138452Y-126852218D01*
X133138452Y-126852218D02*
X133186137Y-126947587D01*
X133186137Y-126947587D02*
X133233822Y-126995272D01*
X133233822Y-126995272D02*
X133329191Y-127042956D01*
X133329191Y-127042956D02*
X133519930Y-127042956D01*
X133519930Y-127042956D02*
X133615299Y-126995272D01*
X133615299Y-126995272D02*
X133662984Y-126947587D01*
X133662984Y-126947587D02*
X133710668Y-126852218D01*
X133710668Y-126852218D02*
X133710668Y-126661479D01*
X133710668Y-126661479D02*
X133662984Y-126566110D01*
X133662984Y-126566110D02*
X133615299Y-126518425D01*
X133615299Y-126518425D02*
X133519930Y-126470740D01*
X134664361Y-127042956D02*
X134092145Y-127042956D01*
X134378253Y-127042956D02*
X134378253Y-126041578D01*
X134378253Y-126041578D02*
X134282884Y-126184632D01*
X134282884Y-126184632D02*
X134187515Y-126280002D01*
X134187515Y-126280002D02*
X134092145Y-126327686D01*
X135570370Y-126041578D02*
X135093523Y-126041578D01*
X135093523Y-126041578D02*
X135045838Y-126518425D01*
X135045838Y-126518425D02*
X135093523Y-126470740D01*
X135093523Y-126470740D02*
X135188892Y-126423056D01*
X135188892Y-126423056D02*
X135427316Y-126423056D01*
X135427316Y-126423056D02*
X135522685Y-126470740D01*
X135522685Y-126470740D02*
X135570370Y-126518425D01*
X135570370Y-126518425D02*
X135618054Y-126613794D01*
X135618054Y-126613794D02*
X135618054Y-126852218D01*
X135618054Y-126852218D02*
X135570370Y-126947587D01*
X135570370Y-126947587D02*
X135522685Y-126995272D01*
X135522685Y-126995272D02*
X135427316Y-127042956D01*
X135427316Y-127042956D02*
X135188892Y-127042956D01*
X135188892Y-127042956D02*
X135093523Y-126995272D01*
X135093523Y-126995272D02*
X135045838Y-126947587D01*
X136476378Y-126041578D02*
X136285639Y-126041578D01*
X136285639Y-126041578D02*
X136190270Y-126089263D01*
X136190270Y-126089263D02*
X136142585Y-126136948D01*
X136142585Y-126136948D02*
X136047216Y-126280002D01*
X136047216Y-126280002D02*
X135999531Y-126470740D01*
X135999531Y-126470740D02*
X135999531Y-126852218D01*
X135999531Y-126852218D02*
X136047216Y-126947587D01*
X136047216Y-126947587D02*
X136094901Y-126995272D01*
X136094901Y-126995272D02*
X136190270Y-127042956D01*
X136190270Y-127042956D02*
X136381009Y-127042956D01*
X136381009Y-127042956D02*
X136476378Y-126995272D01*
X136476378Y-126995272D02*
X136524063Y-126947587D01*
X136524063Y-126947587D02*
X136571747Y-126852218D01*
X136571747Y-126852218D02*
X136571747Y-126613794D01*
X136571747Y-126613794D02*
X136524063Y-126518425D01*
X136524063Y-126518425D02*
X136476378Y-126470740D01*
X136476378Y-126470740D02*
X136381009Y-126423056D01*
X136381009Y-126423056D02*
X136190270Y-126423056D01*
X136190270Y-126423056D02*
X136094901Y-126470740D01*
X136094901Y-126470740D02*
X136047216Y-126518425D01*
X136047216Y-126518425D02*
X135999531Y-126613794D01*
X137143963Y-126470740D02*
X137048594Y-126423056D01*
X137048594Y-126423056D02*
X137000909Y-126375371D01*
X137000909Y-126375371D02*
X136953224Y-126280002D01*
X136953224Y-126280002D02*
X136953224Y-126232317D01*
X136953224Y-126232317D02*
X137000909Y-126136948D01*
X137000909Y-126136948D02*
X137048594Y-126089263D01*
X137048594Y-126089263D02*
X137143963Y-126041578D01*
X137143963Y-126041578D02*
X137334702Y-126041578D01*
X137334702Y-126041578D02*
X137430071Y-126089263D01*
X137430071Y-126089263D02*
X137477756Y-126136948D01*
X137477756Y-126136948D02*
X137525440Y-126232317D01*
X137525440Y-126232317D02*
X137525440Y-126280002D01*
X137525440Y-126280002D02*
X137477756Y-126375371D01*
X137477756Y-126375371D02*
X137430071Y-126423056D01*
X137430071Y-126423056D02*
X137334702Y-126470740D01*
X137334702Y-126470740D02*
X137143963Y-126470740D01*
X137143963Y-126470740D02*
X137048594Y-126518425D01*
X137048594Y-126518425D02*
X137000909Y-126566110D01*
X137000909Y-126566110D02*
X136953224Y-126661479D01*
X136953224Y-126661479D02*
X136953224Y-126852218D01*
X136953224Y-126852218D02*
X137000909Y-126947587D01*
X137000909Y-126947587D02*
X137048594Y-126995272D01*
X137048594Y-126995272D02*
X137143963Y-127042956D01*
X137143963Y-127042956D02*
X137334702Y-127042956D01*
X137334702Y-127042956D02*
X137430071Y-126995272D01*
X137430071Y-126995272D02*
X137477756Y-126947587D01*
X137477756Y-126947587D02*
X137525440Y-126852218D01*
X137525440Y-126852218D02*
X137525440Y-126661479D01*
X137525440Y-126661479D02*
X137477756Y-126566110D01*
X137477756Y-126566110D02*
X137430071Y-126518425D01*
X137430071Y-126518425D02*
X137334702Y-126470740D01*
X137954602Y-126661479D02*
X138717557Y-126661479D01*
X139718934Y-127042956D02*
X139146718Y-127042956D01*
X139432826Y-127042956D02*
X139432826Y-126041578D01*
X139432826Y-126041578D02*
X139337457Y-126184632D01*
X139337457Y-126184632D02*
X139242088Y-126280002D01*
X139242088Y-126280002D02*
X139146718Y-126327686D01*
X128155533Y-128619026D02*
X128155533Y-127979026D01*
X128155533Y-127979026D02*
X128399343Y-127979026D01*
X128399343Y-127979026D02*
X128460295Y-128009502D01*
X128460295Y-128009502D02*
X128490772Y-128039978D01*
X128490772Y-128039978D02*
X128521248Y-128100930D01*
X128521248Y-128100930D02*
X128521248Y-128192359D01*
X128521248Y-128192359D02*
X128490772Y-128253311D01*
X128490772Y-128253311D02*
X128460295Y-128283788D01*
X128460295Y-128283788D02*
X128399343Y-128314264D01*
X128399343Y-128314264D02*
X128155533Y-128314264D01*
X129161248Y-128558073D02*
X129130772Y-128588550D01*
X129130772Y-128588550D02*
X129039343Y-128619026D01*
X129039343Y-128619026D02*
X128978391Y-128619026D01*
X128978391Y-128619026D02*
X128886962Y-128588550D01*
X128886962Y-128588550D02*
X128826010Y-128527597D01*
X128826010Y-128527597D02*
X128795533Y-128466645D01*
X128795533Y-128466645D02*
X128765057Y-128344740D01*
X128765057Y-128344740D02*
X128765057Y-128253311D01*
X128765057Y-128253311D02*
X128795533Y-128131407D01*
X128795533Y-128131407D02*
X128826010Y-128070454D01*
X128826010Y-128070454D02*
X128886962Y-128009502D01*
X128886962Y-128009502D02*
X128978391Y-127979026D01*
X128978391Y-127979026D02*
X129039343Y-127979026D01*
X129039343Y-127979026D02*
X129130772Y-128009502D01*
X129130772Y-128009502D02*
X129161248Y-128039978D01*
X129648867Y-128283788D02*
X129740295Y-128314264D01*
X129740295Y-128314264D02*
X129770772Y-128344740D01*
X129770772Y-128344740D02*
X129801248Y-128405692D01*
X129801248Y-128405692D02*
X129801248Y-128497121D01*
X129801248Y-128497121D02*
X129770772Y-128558073D01*
X129770772Y-128558073D02*
X129740295Y-128588550D01*
X129740295Y-128588550D02*
X129679343Y-128619026D01*
X129679343Y-128619026D02*
X129435533Y-128619026D01*
X129435533Y-128619026D02*
X129435533Y-127979026D01*
X129435533Y-127979026D02*
X129648867Y-127979026D01*
X129648867Y-127979026D02*
X129709819Y-128009502D01*
X129709819Y-128009502D02*
X129740295Y-128039978D01*
X129740295Y-128039978D02*
X129770772Y-128100930D01*
X129770772Y-128100930D02*
X129770772Y-128161883D01*
X129770772Y-128161883D02*
X129740295Y-128222835D01*
X129740295Y-128222835D02*
X129709819Y-128253311D01*
X129709819Y-128253311D02*
X129648867Y-128283788D01*
X129648867Y-128283788D02*
X129435533Y-128283788D01*
X130563152Y-128283788D02*
X130776486Y-128283788D01*
X130867914Y-128619026D02*
X130563152Y-128619026D01*
X130563152Y-128619026D02*
X130563152Y-127979026D01*
X130563152Y-127979026D02*
X130867914Y-127979026D01*
X131142200Y-128619026D02*
X131142200Y-127979026D01*
X131142200Y-127979026D02*
X131294581Y-127979026D01*
X131294581Y-127979026D02*
X131386010Y-128009502D01*
X131386010Y-128009502D02*
X131446962Y-128070454D01*
X131446962Y-128070454D02*
X131477439Y-128131407D01*
X131477439Y-128131407D02*
X131507915Y-128253311D01*
X131507915Y-128253311D02*
X131507915Y-128344740D01*
X131507915Y-128344740D02*
X131477439Y-128466645D01*
X131477439Y-128466645D02*
X131446962Y-128527597D01*
X131446962Y-128527597D02*
X131386010Y-128588550D01*
X131386010Y-128588550D02*
X131294581Y-128619026D01*
X131294581Y-128619026D02*
X131142200Y-128619026D01*
X132117439Y-128009502D02*
X132056486Y-127979026D01*
X132056486Y-127979026D02*
X131965058Y-127979026D01*
X131965058Y-127979026D02*
X131873629Y-128009502D01*
X131873629Y-128009502D02*
X131812677Y-128070454D01*
X131812677Y-128070454D02*
X131782200Y-128131407D01*
X131782200Y-128131407D02*
X131751724Y-128253311D01*
X131751724Y-128253311D02*
X131751724Y-128344740D01*
X131751724Y-128344740D02*
X131782200Y-128466645D01*
X131782200Y-128466645D02*
X131812677Y-128527597D01*
X131812677Y-128527597D02*
X131873629Y-128588550D01*
X131873629Y-128588550D02*
X131965058Y-128619026D01*
X131965058Y-128619026D02*
X132026010Y-128619026D01*
X132026010Y-128619026D02*
X132117439Y-128588550D01*
X132117439Y-128588550D02*
X132147915Y-128558073D01*
X132147915Y-128558073D02*
X132147915Y-128344740D01*
X132147915Y-128344740D02*
X132026010Y-128344740D01*
X132422200Y-128283788D02*
X132635534Y-128283788D01*
X132726962Y-128619026D02*
X132422200Y-128619026D01*
X132422200Y-128619026D02*
X132422200Y-127979026D01*
X132422200Y-127979026D02*
X132726962Y-127979026D01*
X129231819Y-80535951D02*
X130231819Y-80297856D01*
X130231819Y-80297856D02*
X129517533Y-80107380D01*
X129517533Y-80107380D02*
X130231819Y-79916904D01*
X130231819Y-79916904D02*
X129231819Y-79678809D01*
X129327057Y-79345475D02*
X129279438Y-79297856D01*
X129279438Y-79297856D02*
X129231819Y-79202618D01*
X129231819Y-79202618D02*
X129231819Y-78964523D01*
X129231819Y-78964523D02*
X129279438Y-78869285D01*
X129279438Y-78869285D02*
X129327057Y-78821666D01*
X129327057Y-78821666D02*
X129422295Y-78774047D01*
X129422295Y-78774047D02*
X129517533Y-78774047D01*
X129517533Y-78774047D02*
X129660390Y-78821666D01*
X129660390Y-78821666D02*
X130231819Y-79393094D01*
X130231819Y-79393094D02*
X130231819Y-78774047D01*
X129231819Y-77869285D02*
X129231819Y-78345475D01*
X129231819Y-78345475D02*
X129708009Y-78393094D01*
X129708009Y-78393094D02*
X129660390Y-78345475D01*
X129660390Y-78345475D02*
X129612771Y-78250237D01*
X129612771Y-78250237D02*
X129612771Y-78012142D01*
X129612771Y-78012142D02*
X129660390Y-77916904D01*
X129660390Y-77916904D02*
X129708009Y-77869285D01*
X129708009Y-77869285D02*
X129803247Y-77821666D01*
X129803247Y-77821666D02*
X130041342Y-77821666D01*
X130041342Y-77821666D02*
X130136580Y-77869285D01*
X130136580Y-77869285D02*
X130184200Y-77916904D01*
X130184200Y-77916904D02*
X130231819Y-78012142D01*
X130231819Y-78012142D02*
X130231819Y-78250237D01*
X130231819Y-78250237D02*
X130184200Y-78345475D01*
X130184200Y-78345475D02*
X130136580Y-78393094D01*
X130327057Y-76726428D02*
X130279438Y-76821666D01*
X130279438Y-76821666D02*
X130184200Y-76916904D01*
X130184200Y-76916904D02*
X130041342Y-77059761D01*
X130041342Y-77059761D02*
X129993723Y-77154999D01*
X129993723Y-77154999D02*
X129993723Y-77250237D01*
X130231819Y-77202618D02*
X130184200Y-77297856D01*
X130184200Y-77297856D02*
X130088961Y-77393094D01*
X130088961Y-77393094D02*
X129898485Y-77440713D01*
X129898485Y-77440713D02*
X129565152Y-77440713D01*
X129565152Y-77440713D02*
X129374676Y-77393094D01*
X129374676Y-77393094D02*
X129279438Y-77297856D01*
X129279438Y-77297856D02*
X129231819Y-77202618D01*
X129231819Y-77202618D02*
X129231819Y-77012142D01*
X129231819Y-77012142D02*
X129279438Y-76916904D01*
X129279438Y-76916904D02*
X129374676Y-76821666D01*
X129374676Y-76821666D02*
X129565152Y-76774047D01*
X129565152Y-76774047D02*
X129898485Y-76774047D01*
X129898485Y-76774047D02*
X130088961Y-76821666D01*
X130088961Y-76821666D02*
X130184200Y-76916904D01*
X130184200Y-76916904D02*
X130231819Y-77012142D01*
X130231819Y-77012142D02*
X130231819Y-77202618D01*
X130231819Y-75821666D02*
X130231819Y-76393094D01*
X130231819Y-76107380D02*
X129231819Y-76107380D01*
X129231819Y-76107380D02*
X129374676Y-76202618D01*
X129374676Y-76202618D02*
X129469914Y-76297856D01*
X129469914Y-76297856D02*
X129517533Y-76393094D01*
X129327057Y-75440713D02*
X129279438Y-75393094D01*
X129279438Y-75393094D02*
X129231819Y-75297856D01*
X129231819Y-75297856D02*
X129231819Y-75059761D01*
X129231819Y-75059761D02*
X129279438Y-74964523D01*
X129279438Y-74964523D02*
X129327057Y-74916904D01*
X129327057Y-74916904D02*
X129422295Y-74869285D01*
X129422295Y-74869285D02*
X129517533Y-74869285D01*
X129517533Y-74869285D02*
X129660390Y-74916904D01*
X129660390Y-74916904D02*
X130231819Y-75488332D01*
X130231819Y-75488332D02*
X130231819Y-74869285D01*
X129660390Y-74297856D02*
X129612771Y-74393094D01*
X129612771Y-74393094D02*
X129565152Y-74440713D01*
X129565152Y-74440713D02*
X129469914Y-74488332D01*
X129469914Y-74488332D02*
X129422295Y-74488332D01*
X129422295Y-74488332D02*
X129327057Y-74440713D01*
X129327057Y-74440713D02*
X129279438Y-74393094D01*
X129279438Y-74393094D02*
X129231819Y-74297856D01*
X129231819Y-74297856D02*
X129231819Y-74107380D01*
X129231819Y-74107380D02*
X129279438Y-74012142D01*
X129279438Y-74012142D02*
X129327057Y-73964523D01*
X129327057Y-73964523D02*
X129422295Y-73916904D01*
X129422295Y-73916904D02*
X129469914Y-73916904D01*
X129469914Y-73916904D02*
X129565152Y-73964523D01*
X129565152Y-73964523D02*
X129612771Y-74012142D01*
X129612771Y-74012142D02*
X129660390Y-74107380D01*
X129660390Y-74107380D02*
X129660390Y-74297856D01*
X129660390Y-74297856D02*
X129708009Y-74393094D01*
X129708009Y-74393094D02*
X129755628Y-74440713D01*
X129755628Y-74440713D02*
X129850866Y-74488332D01*
X129850866Y-74488332D02*
X130041342Y-74488332D01*
X130041342Y-74488332D02*
X130136580Y-74440713D01*
X130136580Y-74440713D02*
X130184200Y-74393094D01*
X130184200Y-74393094D02*
X130231819Y-74297856D01*
X130231819Y-74297856D02*
X130231819Y-74107380D01*
X130231819Y-74107380D02*
X130184200Y-74012142D01*
X130184200Y-74012142D02*
X130136580Y-73964523D01*
X130136580Y-73964523D02*
X130041342Y-73916904D01*
X130041342Y-73916904D02*
X129850866Y-73916904D01*
X129850866Y-73916904D02*
X129755628Y-73964523D01*
X129755628Y-73964523D02*
X129708009Y-74012142D01*
X129708009Y-74012142D02*
X129660390Y-74107380D01*
X129231819Y-73202618D02*
X129946104Y-73202618D01*
X129946104Y-73202618D02*
X130088961Y-73250237D01*
X130088961Y-73250237D02*
X130184200Y-73345475D01*
X130184200Y-73345475D02*
X130231819Y-73488332D01*
X130231819Y-73488332D02*
X130231819Y-73583570D01*
X129231819Y-72869284D02*
X130231819Y-72535951D01*
X130231819Y-72535951D02*
X129231819Y-72202618D01*
X130184200Y-71916903D02*
X130231819Y-71774046D01*
X130231819Y-71774046D02*
X130231819Y-71535951D01*
X130231819Y-71535951D02*
X130184200Y-71440713D01*
X130184200Y-71440713D02*
X130136580Y-71393094D01*
X130136580Y-71393094D02*
X130041342Y-71345475D01*
X130041342Y-71345475D02*
X129946104Y-71345475D01*
X129946104Y-71345475D02*
X129850866Y-71393094D01*
X129850866Y-71393094D02*
X129803247Y-71440713D01*
X129803247Y-71440713D02*
X129755628Y-71535951D01*
X129755628Y-71535951D02*
X129708009Y-71726427D01*
X129708009Y-71726427D02*
X129660390Y-71821665D01*
X129660390Y-71821665D02*
X129612771Y-71869284D01*
X129612771Y-71869284D02*
X129517533Y-71916903D01*
X129517533Y-71916903D02*
X129422295Y-71916903D01*
X129422295Y-71916903D02*
X129327057Y-71869284D01*
X129327057Y-71869284D02*
X129279438Y-71821665D01*
X129279438Y-71821665D02*
X129231819Y-71726427D01*
X129231819Y-71726427D02*
X129231819Y-71488332D01*
X129231819Y-71488332D02*
X129279438Y-71345475D01*
X130231819Y-70916903D02*
X129231819Y-70916903D01*
X130327057Y-69774047D02*
X130279438Y-69869285D01*
X130279438Y-69869285D02*
X130184200Y-69964523D01*
X130184200Y-69964523D02*
X130041342Y-70107380D01*
X130041342Y-70107380D02*
X129993723Y-70202618D01*
X129993723Y-70202618D02*
X129993723Y-70297856D01*
X130231819Y-70250237D02*
X130184200Y-70345475D01*
X130184200Y-70345475D02*
X130088961Y-70440713D01*
X130088961Y-70440713D02*
X129898485Y-70488332D01*
X129898485Y-70488332D02*
X129565152Y-70488332D01*
X129565152Y-70488332D02*
X129374676Y-70440713D01*
X129374676Y-70440713D02*
X129279438Y-70345475D01*
X129279438Y-70345475D02*
X129231819Y-70250237D01*
X129231819Y-70250237D02*
X129231819Y-70059761D01*
X129231819Y-70059761D02*
X129279438Y-69964523D01*
X129279438Y-69964523D02*
X129374676Y-69869285D01*
X129374676Y-69869285D02*
X129565152Y-69821666D01*
X129565152Y-69821666D02*
X129898485Y-69821666D01*
X129898485Y-69821666D02*
X130088961Y-69869285D01*
X130088961Y-69869285D02*
X130184200Y-69964523D01*
X130184200Y-69964523D02*
X130231819Y-70059761D01*
X130231819Y-70059761D02*
X130231819Y-70250237D01*
X129883571Y-78319580D02*
X129835952Y-78367200D01*
X129835952Y-78367200D02*
X129693095Y-78414819D01*
X129693095Y-78414819D02*
X129597857Y-78414819D01*
X129597857Y-78414819D02*
X129455000Y-78367200D01*
X129455000Y-78367200D02*
X129359762Y-78271961D01*
X129359762Y-78271961D02*
X129312143Y-78176723D01*
X129312143Y-78176723D02*
X129264524Y-77986247D01*
X129264524Y-77986247D02*
X129264524Y-77843390D01*
X129264524Y-77843390D02*
X129312143Y-77652914D01*
X129312143Y-77652914D02*
X129359762Y-77557676D01*
X129359762Y-77557676D02*
X129455000Y-77462438D01*
X129455000Y-77462438D02*
X129597857Y-77414819D01*
X129597857Y-77414819D02*
X129693095Y-77414819D01*
X129693095Y-77414819D02*
X129835952Y-77462438D01*
X129835952Y-77462438D02*
X129883571Y-77510057D01*
X130312143Y-78414819D02*
X130312143Y-77414819D01*
X130312143Y-77414819D02*
X130693095Y-77414819D01*
X130693095Y-77414819D02*
X130788333Y-77462438D01*
X130788333Y-77462438D02*
X130835952Y-77510057D01*
X130835952Y-77510057D02*
X130883571Y-77605295D01*
X130883571Y-77605295D02*
X130883571Y-77748152D01*
X130883571Y-77748152D02*
X130835952Y-77843390D01*
X130835952Y-77843390D02*
X130788333Y-77891009D01*
X130788333Y-77891009D02*
X130693095Y-77938628D01*
X130693095Y-77938628D02*
X130312143Y-77938628D01*
X131312143Y-78414819D02*
X131312143Y-77414819D01*
X131788333Y-78033866D02*
X132550238Y-78033866D01*
X133550237Y-78414819D02*
X132978809Y-78414819D01*
X133264523Y-78414819D02*
X133264523Y-77414819D01*
X133264523Y-77414819D02*
X133169285Y-77557676D01*
X133169285Y-77557676D02*
X133074047Y-77652914D01*
X133074047Y-77652914D02*
X132978809Y-77700533D01*
X134407380Y-77748152D02*
X134407380Y-78414819D01*
X134169285Y-77367200D02*
X133931190Y-78081485D01*
X133931190Y-78081485D02*
X134550237Y-78081485D01*
X135074047Y-77843390D02*
X134978809Y-77795771D01*
X134978809Y-77795771D02*
X134931190Y-77748152D01*
X134931190Y-77748152D02*
X134883571Y-77652914D01*
X134883571Y-77652914D02*
X134883571Y-77605295D01*
X134883571Y-77605295D02*
X134931190Y-77510057D01*
X134931190Y-77510057D02*
X134978809Y-77462438D01*
X134978809Y-77462438D02*
X135074047Y-77414819D01*
X135074047Y-77414819D02*
X135264523Y-77414819D01*
X135264523Y-77414819D02*
X135359761Y-77462438D01*
X135359761Y-77462438D02*
X135407380Y-77510057D01*
X135407380Y-77510057D02*
X135454999Y-77605295D01*
X135454999Y-77605295D02*
X135454999Y-77652914D01*
X135454999Y-77652914D02*
X135407380Y-77748152D01*
X135407380Y-77748152D02*
X135359761Y-77795771D01*
X135359761Y-77795771D02*
X135264523Y-77843390D01*
X135264523Y-77843390D02*
X135074047Y-77843390D01*
X135074047Y-77843390D02*
X134978809Y-77891009D01*
X134978809Y-77891009D02*
X134931190Y-77938628D01*
X134931190Y-77938628D02*
X134883571Y-78033866D01*
X134883571Y-78033866D02*
X134883571Y-78224342D01*
X134883571Y-78224342D02*
X134931190Y-78319580D01*
X134931190Y-78319580D02*
X134978809Y-78367200D01*
X134978809Y-78367200D02*
X135074047Y-78414819D01*
X135074047Y-78414819D02*
X135264523Y-78414819D01*
X135264523Y-78414819D02*
X135359761Y-78367200D01*
X135359761Y-78367200D02*
X135407380Y-78319580D01*
X135407380Y-78319580D02*
X135454999Y-78224342D01*
X135454999Y-78224342D02*
X135454999Y-78033866D01*
X135454999Y-78033866D02*
X135407380Y-77938628D01*
X135407380Y-77938628D02*
X135359761Y-77891009D01*
X135359761Y-77891009D02*
X135264523Y-77843390D01*
X135883571Y-78033866D02*
X136645476Y-78033866D01*
X137074047Y-77510057D02*
X137121666Y-77462438D01*
X137121666Y-77462438D02*
X137216904Y-77414819D01*
X137216904Y-77414819D02*
X137454999Y-77414819D01*
X137454999Y-77414819D02*
X137550237Y-77462438D01*
X137550237Y-77462438D02*
X137597856Y-77510057D01*
X137597856Y-77510057D02*
X137645475Y-77605295D01*
X137645475Y-77605295D02*
X137645475Y-77700533D01*
X137645475Y-77700533D02*
X137597856Y-77843390D01*
X137597856Y-77843390D02*
X137026428Y-78414819D01*
X137026428Y-78414819D02*
X137645475Y-78414819D01*
X138502618Y-77748152D02*
X138502618Y-78414819D01*
X138264523Y-77367200D02*
X138026428Y-78081485D01*
X138026428Y-78081485D02*
X138645475Y-78081485D01*
X139026428Y-78033866D02*
X139788333Y-78033866D01*
X140312142Y-78414819D02*
X140502618Y-78414819D01*
X140502618Y-78414819D02*
X140597856Y-78367200D01*
X140597856Y-78367200D02*
X140645475Y-78319580D01*
X140645475Y-78319580D02*
X140740713Y-78176723D01*
X140740713Y-78176723D02*
X140788332Y-77986247D01*
X140788332Y-77986247D02*
X140788332Y-77605295D01*
X140788332Y-77605295D02*
X140740713Y-77510057D01*
X140740713Y-77510057D02*
X140693094Y-77462438D01*
X140693094Y-77462438D02*
X140597856Y-77414819D01*
X140597856Y-77414819D02*
X140407380Y-77414819D01*
X140407380Y-77414819D02*
X140312142Y-77462438D01*
X140312142Y-77462438D02*
X140264523Y-77510057D01*
X140264523Y-77510057D02*
X140216904Y-77605295D01*
X140216904Y-77605295D02*
X140216904Y-77843390D01*
X140216904Y-77843390D02*
X140264523Y-77938628D01*
X140264523Y-77938628D02*
X140312142Y-77986247D01*
X140312142Y-77986247D02*
X140407380Y-78033866D01*
X140407380Y-78033866D02*
X140597856Y-78033866D01*
X140597856Y-78033866D02*
X140693094Y-77986247D01*
X140693094Y-77986247D02*
X140740713Y-77938628D01*
X140740713Y-77938628D02*
X140788332Y-77843390D01*
X141407380Y-77414819D02*
X141502618Y-77414819D01*
X141502618Y-77414819D02*
X141597856Y-77462438D01*
X141597856Y-77462438D02*
X141645475Y-77510057D01*
X141645475Y-77510057D02*
X141693094Y-77605295D01*
X141693094Y-77605295D02*
X141740713Y-77795771D01*
X141740713Y-77795771D02*
X141740713Y-78033866D01*
X141740713Y-78033866D02*
X141693094Y-78224342D01*
X141693094Y-78224342D02*
X141645475Y-78319580D01*
X141645475Y-78319580D02*
X141597856Y-78367200D01*
X141597856Y-78367200D02*
X141502618Y-78414819D01*
X141502618Y-78414819D02*
X141407380Y-78414819D01*
X141407380Y-78414819D02*
X141312142Y-78367200D01*
X141312142Y-78367200D02*
X141264523Y-78319580D01*
X141264523Y-78319580D02*
X141216904Y-78224342D01*
X141216904Y-78224342D02*
X141169285Y-78033866D01*
X141169285Y-78033866D02*
X141169285Y-77795771D01*
X141169285Y-77795771D02*
X141216904Y-77605295D01*
X141216904Y-77605295D02*
X141264523Y-77510057D01*
X141264523Y-77510057D02*
X141312142Y-77462438D01*
X141312142Y-77462438D02*
X141407380Y-77414819D01*
X142026428Y-77414819D02*
X142597856Y-77414819D01*
X142312142Y-78414819D02*
X142312142Y-77414819D01*
X142931190Y-78033866D02*
X143693095Y-78033866D01*
X144597856Y-77414819D02*
X144407380Y-77414819D01*
X144407380Y-77414819D02*
X144312142Y-77462438D01*
X144312142Y-77462438D02*
X144264523Y-77510057D01*
X144264523Y-77510057D02*
X144169285Y-77652914D01*
X144169285Y-77652914D02*
X144121666Y-77843390D01*
X144121666Y-77843390D02*
X144121666Y-78224342D01*
X144121666Y-78224342D02*
X144169285Y-78319580D01*
X144169285Y-78319580D02*
X144216904Y-78367200D01*
X144216904Y-78367200D02*
X144312142Y-78414819D01*
X144312142Y-78414819D02*
X144502618Y-78414819D01*
X144502618Y-78414819D02*
X144597856Y-78367200D01*
X144597856Y-78367200D02*
X144645475Y-78319580D01*
X144645475Y-78319580D02*
X144693094Y-78224342D01*
X144693094Y-78224342D02*
X144693094Y-77986247D01*
X144693094Y-77986247D02*
X144645475Y-77891009D01*
X144645475Y-77891009D02*
X144597856Y-77843390D01*
X144597856Y-77843390D02*
X144502618Y-77795771D01*
X144502618Y-77795771D02*
X144312142Y-77795771D01*
X144312142Y-77795771D02*
X144216904Y-77843390D01*
X144216904Y-77843390D02*
X144169285Y-77891009D01*
X144169285Y-77891009D02*
X144121666Y-77986247D01*
X145026428Y-77414819D02*
X145693094Y-77414819D01*
X145693094Y-77414819D02*
X145264523Y-78414819D01*
X123753571Y-120874819D02*
X123182143Y-120874819D01*
X123467857Y-120874819D02*
X123467857Y-119874819D01*
X123467857Y-119874819D02*
X123372619Y-120017676D01*
X123372619Y-120017676D02*
X123277381Y-120112914D01*
X123277381Y-120112914D02*
X123182143Y-120160533D01*
X124372619Y-119874819D02*
X124467857Y-119874819D01*
X124467857Y-119874819D02*
X124563095Y-119922438D01*
X124563095Y-119922438D02*
X124610714Y-119970057D01*
X124610714Y-119970057D02*
X124658333Y-120065295D01*
X124658333Y-120065295D02*
X124705952Y-120255771D01*
X124705952Y-120255771D02*
X124705952Y-120493866D01*
X124705952Y-120493866D02*
X124658333Y-120684342D01*
X124658333Y-120684342D02*
X124610714Y-120779580D01*
X124610714Y-120779580D02*
X124563095Y-120827200D01*
X124563095Y-120827200D02*
X124467857Y-120874819D01*
X124467857Y-120874819D02*
X124372619Y-120874819D01*
X124372619Y-120874819D02*
X124277381Y-120827200D01*
X124277381Y-120827200D02*
X124229762Y-120779580D01*
X124229762Y-120779580D02*
X124182143Y-120684342D01*
X124182143Y-120684342D02*
X124134524Y-120493866D01*
X124134524Y-120493866D02*
X124134524Y-120255771D01*
X124134524Y-120255771D02*
X124182143Y-120065295D01*
X124182143Y-120065295D02*
X124229762Y-119970057D01*
X124229762Y-119970057D02*
X124277381Y-119922438D01*
X124277381Y-119922438D02*
X124372619Y-119874819D01*
X125325000Y-119874819D02*
X125420238Y-119874819D01*
X125420238Y-119874819D02*
X125515476Y-119922438D01*
X125515476Y-119922438D02*
X125563095Y-119970057D01*
X125563095Y-119970057D02*
X125610714Y-120065295D01*
X125610714Y-120065295D02*
X125658333Y-120255771D01*
X125658333Y-120255771D02*
X125658333Y-120493866D01*
X125658333Y-120493866D02*
X125610714Y-120684342D01*
X125610714Y-120684342D02*
X125563095Y-120779580D01*
X125563095Y-120779580D02*
X125515476Y-120827200D01*
X125515476Y-120827200D02*
X125420238Y-120874819D01*
X125420238Y-120874819D02*
X125325000Y-120874819D01*
X125325000Y-120874819D02*
X125229762Y-120827200D01*
X125229762Y-120827200D02*
X125182143Y-120779580D01*
X125182143Y-120779580D02*
X125134524Y-120684342D01*
X125134524Y-120684342D02*
X125086905Y-120493866D01*
X125086905Y-120493866D02*
X125086905Y-120255771D01*
X125086905Y-120255771D02*
X125134524Y-120065295D01*
X125134524Y-120065295D02*
X125182143Y-119970057D01*
X125182143Y-119970057D02*
X125229762Y-119922438D01*
X125229762Y-119922438D02*
X125325000Y-119874819D01*
X126086905Y-120874819D02*
X126086905Y-119874819D01*
X126182143Y-120493866D02*
X126467857Y-120874819D01*
X126467857Y-120208152D02*
X126086905Y-120589104D01*
D11*
X124758333Y-122031927D02*
X124625000Y-121841451D01*
X124529762Y-122031927D02*
X124529762Y-121631927D01*
X124529762Y-121631927D02*
X124682143Y-121631927D01*
X124682143Y-121631927D02*
X124720238Y-121650975D01*
X124720238Y-121650975D02*
X124739285Y-121670022D01*
X124739285Y-121670022D02*
X124758333Y-121708118D01*
X124758333Y-121708118D02*
X124758333Y-121765260D01*
X124758333Y-121765260D02*
X124739285Y-121803356D01*
X124739285Y-121803356D02*
X124720238Y-121822403D01*
X124720238Y-121822403D02*
X124682143Y-121841451D01*
X124682143Y-121841451D02*
X124529762Y-121841451D01*
X125139285Y-122031927D02*
X124910714Y-122031927D01*
X125025000Y-122031927D02*
X125025000Y-121631927D01*
X125025000Y-121631927D02*
X124986904Y-121689070D01*
X124986904Y-121689070D02*
X124948809Y-121727165D01*
X124948809Y-121727165D02*
X124910714Y-121746213D01*
D10*
X117404761Y-110799819D02*
X116833333Y-110799819D01*
X117119047Y-110799819D02*
X117119047Y-109799819D01*
X117119047Y-109799819D02*
X117023809Y-109942676D01*
X117023809Y-109942676D02*
X116928571Y-110037914D01*
X116928571Y-110037914D02*
X116833333Y-110085533D01*
X118023809Y-109799819D02*
X118119047Y-109799819D01*
X118119047Y-109799819D02*
X118214285Y-109847438D01*
X118214285Y-109847438D02*
X118261904Y-109895057D01*
X118261904Y-109895057D02*
X118309523Y-109990295D01*
X118309523Y-109990295D02*
X118357142Y-110180771D01*
X118357142Y-110180771D02*
X118357142Y-110418866D01*
X118357142Y-110418866D02*
X118309523Y-110609342D01*
X118309523Y-110609342D02*
X118261904Y-110704580D01*
X118261904Y-110704580D02*
X118214285Y-110752200D01*
X118214285Y-110752200D02*
X118119047Y-110799819D01*
X118119047Y-110799819D02*
X118023809Y-110799819D01*
X118023809Y-110799819D02*
X117928571Y-110752200D01*
X117928571Y-110752200D02*
X117880952Y-110704580D01*
X117880952Y-110704580D02*
X117833333Y-110609342D01*
X117833333Y-110609342D02*
X117785714Y-110418866D01*
X117785714Y-110418866D02*
X117785714Y-110180771D01*
X117785714Y-110180771D02*
X117833333Y-109990295D01*
X117833333Y-109990295D02*
X117880952Y-109895057D01*
X117880952Y-109895057D02*
X117928571Y-109847438D01*
X117928571Y-109847438D02*
X118023809Y-109799819D01*
X118785714Y-110799819D02*
X118785714Y-109799819D01*
X118880952Y-110418866D02*
X119166666Y-110799819D01*
X119166666Y-110133152D02*
X118785714Y-110514104D01*
D11*
X117933333Y-111956927D02*
X117800000Y-111766451D01*
X117704762Y-111956927D02*
X117704762Y-111556927D01*
X117704762Y-111556927D02*
X117857143Y-111556927D01*
X117857143Y-111556927D02*
X117895238Y-111575975D01*
X117895238Y-111575975D02*
X117914285Y-111595022D01*
X117914285Y-111595022D02*
X117933333Y-111633118D01*
X117933333Y-111633118D02*
X117933333Y-111690260D01*
X117933333Y-111690260D02*
X117914285Y-111728356D01*
X117914285Y-111728356D02*
X117895238Y-111747403D01*
X117895238Y-111747403D02*
X117857143Y-111766451D01*
X117857143Y-111766451D02*
X117704762Y-111766451D01*
X118161904Y-111728356D02*
X118123809Y-111709308D01*
X118123809Y-111709308D02*
X118104762Y-111690260D01*
X118104762Y-111690260D02*
X118085714Y-111652165D01*
X118085714Y-111652165D02*
X118085714Y-111633118D01*
X118085714Y-111633118D02*
X118104762Y-111595022D01*
X118104762Y-111595022D02*
X118123809Y-111575975D01*
X118123809Y-111575975D02*
X118161904Y-111556927D01*
X118161904Y-111556927D02*
X118238095Y-111556927D01*
X118238095Y-111556927D02*
X118276190Y-111575975D01*
X118276190Y-111575975D02*
X118295238Y-111595022D01*
X118295238Y-111595022D02*
X118314285Y-111633118D01*
X118314285Y-111633118D02*
X118314285Y-111652165D01*
X118314285Y-111652165D02*
X118295238Y-111690260D01*
X118295238Y-111690260D02*
X118276190Y-111709308D01*
X118276190Y-111709308D02*
X118238095Y-111728356D01*
X118238095Y-111728356D02*
X118161904Y-111728356D01*
X118161904Y-111728356D02*
X118123809Y-111747403D01*
X118123809Y-111747403D02*
X118104762Y-111766451D01*
X118104762Y-111766451D02*
X118085714Y-111804546D01*
X118085714Y-111804546D02*
X118085714Y-111880737D01*
X118085714Y-111880737D02*
X118104762Y-111918832D01*
X118104762Y-111918832D02*
X118123809Y-111937880D01*
X118123809Y-111937880D02*
X118161904Y-111956927D01*
X118161904Y-111956927D02*
X118238095Y-111956927D01*
X118238095Y-111956927D02*
X118276190Y-111937880D01*
X118276190Y-111937880D02*
X118295238Y-111918832D01*
X118295238Y-111918832D02*
X118314285Y-111880737D01*
X118314285Y-111880737D02*
X118314285Y-111804546D01*
X118314285Y-111804546D02*
X118295238Y-111766451D01*
X118295238Y-111766451D02*
X118276190Y-111747403D01*
X118276190Y-111747403D02*
X118238095Y-111728356D01*
D10*
X119177380Y-119634819D02*
X118605952Y-119634819D01*
X118891666Y-119634819D02*
X118891666Y-118634819D01*
X118891666Y-118634819D02*
X118796428Y-118777676D01*
X118796428Y-118777676D02*
X118701190Y-118872914D01*
X118701190Y-118872914D02*
X118605952Y-118920533D01*
X119796428Y-118634819D02*
X119891666Y-118634819D01*
X119891666Y-118634819D02*
X119986904Y-118682438D01*
X119986904Y-118682438D02*
X120034523Y-118730057D01*
X120034523Y-118730057D02*
X120082142Y-118825295D01*
X120082142Y-118825295D02*
X120129761Y-119015771D01*
X120129761Y-119015771D02*
X120129761Y-119253866D01*
X120129761Y-119253866D02*
X120082142Y-119444342D01*
X120082142Y-119444342D02*
X120034523Y-119539580D01*
X120034523Y-119539580D02*
X119986904Y-119587200D01*
X119986904Y-119587200D02*
X119891666Y-119634819D01*
X119891666Y-119634819D02*
X119796428Y-119634819D01*
X119796428Y-119634819D02*
X119701190Y-119587200D01*
X119701190Y-119587200D02*
X119653571Y-119539580D01*
X119653571Y-119539580D02*
X119605952Y-119444342D01*
X119605952Y-119444342D02*
X119558333Y-119253866D01*
X119558333Y-119253866D02*
X119558333Y-119015771D01*
X119558333Y-119015771D02*
X119605952Y-118825295D01*
X119605952Y-118825295D02*
X119653571Y-118730057D01*
X119653571Y-118730057D02*
X119701190Y-118682438D01*
X119701190Y-118682438D02*
X119796428Y-118634819D01*
X120748809Y-118634819D02*
X120844047Y-118634819D01*
X120844047Y-118634819D02*
X120939285Y-118682438D01*
X120939285Y-118682438D02*
X120986904Y-118730057D01*
X120986904Y-118730057D02*
X121034523Y-118825295D01*
X121034523Y-118825295D02*
X121082142Y-119015771D01*
X121082142Y-119015771D02*
X121082142Y-119253866D01*
X121082142Y-119253866D02*
X121034523Y-119444342D01*
X121034523Y-119444342D02*
X120986904Y-119539580D01*
X120986904Y-119539580D02*
X120939285Y-119587200D01*
X120939285Y-119587200D02*
X120844047Y-119634819D01*
X120844047Y-119634819D02*
X120748809Y-119634819D01*
X120748809Y-119634819D02*
X120653571Y-119587200D01*
X120653571Y-119587200D02*
X120605952Y-119539580D01*
X120605952Y-119539580D02*
X120558333Y-119444342D01*
X120558333Y-119444342D02*
X120510714Y-119253866D01*
X120510714Y-119253866D02*
X120510714Y-119015771D01*
X120510714Y-119015771D02*
X120558333Y-118825295D01*
X120558333Y-118825295D02*
X120605952Y-118730057D01*
X120605952Y-118730057D02*
X120653571Y-118682438D01*
X120653571Y-118682438D02*
X120748809Y-118634819D01*
X121510714Y-118968152D02*
X121510714Y-119634819D01*
X121510714Y-119063390D02*
X121558333Y-119015771D01*
X121558333Y-119015771D02*
X121653571Y-118968152D01*
X121653571Y-118968152D02*
X121796428Y-118968152D01*
X121796428Y-118968152D02*
X121891666Y-119015771D01*
X121891666Y-119015771D02*
X121939285Y-119111009D01*
X121939285Y-119111009D02*
X121939285Y-119634819D01*
X122748809Y-119111009D02*
X122415476Y-119111009D01*
X122415476Y-119634819D02*
X122415476Y-118634819D01*
X122415476Y-118634819D02*
X122891666Y-118634819D01*
D11*
X120467857Y-117893832D02*
X120448809Y-117912880D01*
X120448809Y-117912880D02*
X120391667Y-117931927D01*
X120391667Y-117931927D02*
X120353571Y-117931927D01*
X120353571Y-117931927D02*
X120296428Y-117912880D01*
X120296428Y-117912880D02*
X120258333Y-117874784D01*
X120258333Y-117874784D02*
X120239286Y-117836689D01*
X120239286Y-117836689D02*
X120220238Y-117760499D01*
X120220238Y-117760499D02*
X120220238Y-117703356D01*
X120220238Y-117703356D02*
X120239286Y-117627165D01*
X120239286Y-117627165D02*
X120258333Y-117589070D01*
X120258333Y-117589070D02*
X120296428Y-117550975D01*
X120296428Y-117550975D02*
X120353571Y-117531927D01*
X120353571Y-117531927D02*
X120391667Y-117531927D01*
X120391667Y-117531927D02*
X120448809Y-117550975D01*
X120448809Y-117550975D02*
X120467857Y-117570022D01*
X120848809Y-117931927D02*
X120620238Y-117931927D01*
X120734524Y-117931927D02*
X120734524Y-117531927D01*
X120734524Y-117531927D02*
X120696428Y-117589070D01*
X120696428Y-117589070D02*
X120658333Y-117627165D01*
X120658333Y-117627165D02*
X120620238Y-117646213D01*
X121210714Y-117531927D02*
X121020238Y-117531927D01*
X121020238Y-117531927D02*
X121001190Y-117722403D01*
X121001190Y-117722403D02*
X121020238Y-117703356D01*
X121020238Y-117703356D02*
X121058333Y-117684308D01*
X121058333Y-117684308D02*
X121153571Y-117684308D01*
X121153571Y-117684308D02*
X121191666Y-117703356D01*
X121191666Y-117703356D02*
X121210714Y-117722403D01*
X121210714Y-117722403D02*
X121229761Y-117760499D01*
X121229761Y-117760499D02*
X121229761Y-117855737D01*
X121229761Y-117855737D02*
X121210714Y-117893832D01*
X121210714Y-117893832D02*
X121191666Y-117912880D01*
X121191666Y-117912880D02*
X121153571Y-117931927D01*
X121153571Y-117931927D02*
X121058333Y-117931927D01*
X121058333Y-117931927D02*
X121020238Y-117912880D01*
X121020238Y-117912880D02*
X121001190Y-117893832D01*
D10*
X126674819Y-94247619D02*
X126674819Y-94819047D01*
X126674819Y-94533333D02*
X125674819Y-94533333D01*
X125674819Y-94533333D02*
X125817676Y-94628571D01*
X125817676Y-94628571D02*
X125912914Y-94723809D01*
X125912914Y-94723809D02*
X125960533Y-94819047D01*
X125674819Y-93628571D02*
X125674819Y-93533333D01*
X125674819Y-93533333D02*
X125722438Y-93438095D01*
X125722438Y-93438095D02*
X125770057Y-93390476D01*
X125770057Y-93390476D02*
X125865295Y-93342857D01*
X125865295Y-93342857D02*
X126055771Y-93295238D01*
X126055771Y-93295238D02*
X126293866Y-93295238D01*
X126293866Y-93295238D02*
X126484342Y-93342857D01*
X126484342Y-93342857D02*
X126579580Y-93390476D01*
X126579580Y-93390476D02*
X126627200Y-93438095D01*
X126627200Y-93438095D02*
X126674819Y-93533333D01*
X126674819Y-93533333D02*
X126674819Y-93628571D01*
X126674819Y-93628571D02*
X126627200Y-93723809D01*
X126627200Y-93723809D02*
X126579580Y-93771428D01*
X126579580Y-93771428D02*
X126484342Y-93819047D01*
X126484342Y-93819047D02*
X126293866Y-93866666D01*
X126293866Y-93866666D02*
X126055771Y-93866666D01*
X126055771Y-93866666D02*
X125865295Y-93819047D01*
X125865295Y-93819047D02*
X125770057Y-93771428D01*
X125770057Y-93771428D02*
X125722438Y-93723809D01*
X125722438Y-93723809D02*
X125674819Y-93628571D01*
X125674819Y-92676190D02*
X125674819Y-92580952D01*
X125674819Y-92580952D02*
X125722438Y-92485714D01*
X125722438Y-92485714D02*
X125770057Y-92438095D01*
X125770057Y-92438095D02*
X125865295Y-92390476D01*
X125865295Y-92390476D02*
X126055771Y-92342857D01*
X126055771Y-92342857D02*
X126293866Y-92342857D01*
X126293866Y-92342857D02*
X126484342Y-92390476D01*
X126484342Y-92390476D02*
X126579580Y-92438095D01*
X126579580Y-92438095D02*
X126627200Y-92485714D01*
X126627200Y-92485714D02*
X126674819Y-92580952D01*
X126674819Y-92580952D02*
X126674819Y-92676190D01*
X126674819Y-92676190D02*
X126627200Y-92771428D01*
X126627200Y-92771428D02*
X126579580Y-92819047D01*
X126579580Y-92819047D02*
X126484342Y-92866666D01*
X126484342Y-92866666D02*
X126293866Y-92914285D01*
X126293866Y-92914285D02*
X126055771Y-92914285D01*
X126055771Y-92914285D02*
X125865295Y-92866666D01*
X125865295Y-92866666D02*
X125770057Y-92819047D01*
X125770057Y-92819047D02*
X125722438Y-92771428D01*
X125722438Y-92771428D02*
X125674819Y-92676190D01*
X126008152Y-91914285D02*
X126674819Y-91914285D01*
X126103390Y-91914285D02*
X126055771Y-91866666D01*
X126055771Y-91866666D02*
X126008152Y-91771428D01*
X126008152Y-91771428D02*
X126008152Y-91628571D01*
X126008152Y-91628571D02*
X126055771Y-91533333D01*
X126055771Y-91533333D02*
X126151009Y-91485714D01*
X126151009Y-91485714D02*
X126674819Y-91485714D01*
X126151009Y-90676190D02*
X126151009Y-91009523D01*
X126674819Y-91009523D02*
X125674819Y-91009523D01*
X125674819Y-91009523D02*
X125674819Y-90533333D01*
D11*
X127793832Y-92766666D02*
X127812880Y-92785714D01*
X127812880Y-92785714D02*
X127831927Y-92842856D01*
X127831927Y-92842856D02*
X127831927Y-92880952D01*
X127831927Y-92880952D02*
X127812880Y-92938095D01*
X127812880Y-92938095D02*
X127774784Y-92976190D01*
X127774784Y-92976190D02*
X127736689Y-92995237D01*
X127736689Y-92995237D02*
X127660499Y-93014285D01*
X127660499Y-93014285D02*
X127603356Y-93014285D01*
X127603356Y-93014285D02*
X127527165Y-92995237D01*
X127527165Y-92995237D02*
X127489070Y-92976190D01*
X127489070Y-92976190D02*
X127450975Y-92938095D01*
X127450975Y-92938095D02*
X127431927Y-92880952D01*
X127431927Y-92880952D02*
X127431927Y-92842856D01*
X127431927Y-92842856D02*
X127450975Y-92785714D01*
X127450975Y-92785714D02*
X127470022Y-92766666D01*
X127431927Y-92423809D02*
X127431927Y-92499999D01*
X127431927Y-92499999D02*
X127450975Y-92538095D01*
X127450975Y-92538095D02*
X127470022Y-92557142D01*
X127470022Y-92557142D02*
X127527165Y-92595237D01*
X127527165Y-92595237D02*
X127603356Y-92614285D01*
X127603356Y-92614285D02*
X127755737Y-92614285D01*
X127755737Y-92614285D02*
X127793832Y-92595237D01*
X127793832Y-92595237D02*
X127812880Y-92576190D01*
X127812880Y-92576190D02*
X127831927Y-92538095D01*
X127831927Y-92538095D02*
X127831927Y-92461904D01*
X127831927Y-92461904D02*
X127812880Y-92423809D01*
X127812880Y-92423809D02*
X127793832Y-92404761D01*
X127793832Y-92404761D02*
X127755737Y-92385714D01*
X127755737Y-92385714D02*
X127660499Y-92385714D01*
X127660499Y-92385714D02*
X127622403Y-92404761D01*
X127622403Y-92404761D02*
X127603356Y-92423809D01*
X127603356Y-92423809D02*
X127584308Y-92461904D01*
X127584308Y-92461904D02*
X127584308Y-92538095D01*
X127584308Y-92538095D02*
X127603356Y-92576190D01*
X127603356Y-92576190D02*
X127622403Y-92595237D01*
X127622403Y-92595237D02*
X127660499Y-92614285D01*
D10*
X116504676Y-111647599D02*
X116504676Y-111281885D01*
X117144676Y-111464742D02*
X116504676Y-111464742D01*
X117144676Y-110763790D02*
X117144676Y-111068552D01*
X117144676Y-111068552D02*
X116504676Y-111068552D01*
X116504676Y-110641885D02*
X117144676Y-110428552D01*
X117144676Y-110428552D02*
X116504676Y-110215218D01*
X116504676Y-110062838D02*
X116504676Y-109636171D01*
X116504676Y-109636171D02*
X117144676Y-109910457D01*
X116504676Y-109270457D02*
X116504676Y-109209504D01*
X116504676Y-109209504D02*
X116535152Y-109148552D01*
X116535152Y-109148552D02*
X116565628Y-109118076D01*
X116565628Y-109118076D02*
X116626580Y-109087600D01*
X116626580Y-109087600D02*
X116748485Y-109057123D01*
X116748485Y-109057123D02*
X116900866Y-109057123D01*
X116900866Y-109057123D02*
X117022771Y-109087600D01*
X117022771Y-109087600D02*
X117083723Y-109118076D01*
X117083723Y-109118076D02*
X117114200Y-109148552D01*
X117114200Y-109148552D02*
X117144676Y-109209504D01*
X117144676Y-109209504D02*
X117144676Y-109270457D01*
X117144676Y-109270457D02*
X117114200Y-109331409D01*
X117114200Y-109331409D02*
X117083723Y-109361885D01*
X117083723Y-109361885D02*
X117022771Y-109392362D01*
X117022771Y-109392362D02*
X116900866Y-109422838D01*
X116900866Y-109422838D02*
X116748485Y-109422838D01*
X116748485Y-109422838D02*
X116626580Y-109392362D01*
X116626580Y-109392362D02*
X116565628Y-109361885D01*
X116565628Y-109361885D02*
X116535152Y-109331409D01*
X116535152Y-109331409D02*
X116504676Y-109270457D01*
X116504676Y-108660933D02*
X116504676Y-108599980D01*
X116504676Y-108599980D02*
X116535152Y-108539028D01*
X116535152Y-108539028D02*
X116565628Y-108508552D01*
X116565628Y-108508552D02*
X116626580Y-108478076D01*
X116626580Y-108478076D02*
X116748485Y-108447599D01*
X116748485Y-108447599D02*
X116900866Y-108447599D01*
X116900866Y-108447599D02*
X117022771Y-108478076D01*
X117022771Y-108478076D02*
X117083723Y-108508552D01*
X117083723Y-108508552D02*
X117114200Y-108539028D01*
X117114200Y-108539028D02*
X117144676Y-108599980D01*
X117144676Y-108599980D02*
X117144676Y-108660933D01*
X117144676Y-108660933D02*
X117114200Y-108721885D01*
X117114200Y-108721885D02*
X117083723Y-108752361D01*
X117083723Y-108752361D02*
X117022771Y-108782838D01*
X117022771Y-108782838D02*
X116900866Y-108813314D01*
X116900866Y-108813314D02*
X116748485Y-108813314D01*
X116748485Y-108813314D02*
X116626580Y-108782838D01*
X116626580Y-108782838D02*
X116565628Y-108752361D01*
X116565628Y-108752361D02*
X116535152Y-108721885D01*
X116535152Y-108721885D02*
X116504676Y-108660933D01*
X116504676Y-108234266D02*
X116504676Y-107838075D01*
X116504676Y-107838075D02*
X116748485Y-108051409D01*
X116748485Y-108051409D02*
X116748485Y-107959980D01*
X116748485Y-107959980D02*
X116778961Y-107899028D01*
X116778961Y-107899028D02*
X116809438Y-107868552D01*
X116809438Y-107868552D02*
X116870390Y-107838075D01*
X116870390Y-107838075D02*
X117022771Y-107838075D01*
X117022771Y-107838075D02*
X117083723Y-107868552D01*
X117083723Y-107868552D02*
X117114200Y-107899028D01*
X117114200Y-107899028D02*
X117144676Y-107959980D01*
X117144676Y-107959980D02*
X117144676Y-108142837D01*
X117144676Y-108142837D02*
X117114200Y-108203790D01*
X117114200Y-108203790D02*
X117083723Y-108234266D01*
X116504676Y-107624742D02*
X116504676Y-107228551D01*
X116504676Y-107228551D02*
X116748485Y-107441885D01*
X116748485Y-107441885D02*
X116748485Y-107350456D01*
X116748485Y-107350456D02*
X116778961Y-107289504D01*
X116778961Y-107289504D02*
X116809438Y-107259028D01*
X116809438Y-107259028D02*
X116870390Y-107228551D01*
X116870390Y-107228551D02*
X117022771Y-107228551D01*
X117022771Y-107228551D02*
X117083723Y-107259028D01*
X117083723Y-107259028D02*
X117114200Y-107289504D01*
X117114200Y-107289504D02*
X117144676Y-107350456D01*
X117144676Y-107350456D02*
X117144676Y-107533313D01*
X117144676Y-107533313D02*
X117114200Y-107594266D01*
X117114200Y-107594266D02*
X117083723Y-107624742D01*
X117144676Y-106954266D02*
X116504676Y-106954266D01*
X116504676Y-106954266D02*
X116504676Y-106801885D01*
X116504676Y-106801885D02*
X116535152Y-106710456D01*
X116535152Y-106710456D02*
X116596104Y-106649504D01*
X116596104Y-106649504D02*
X116657057Y-106619027D01*
X116657057Y-106619027D02*
X116778961Y-106588551D01*
X116778961Y-106588551D02*
X116870390Y-106588551D01*
X116870390Y-106588551D02*
X116992295Y-106619027D01*
X116992295Y-106619027D02*
X117053247Y-106649504D01*
X117053247Y-106649504D02*
X117114200Y-106710456D01*
X117114200Y-106710456D02*
X117144676Y-106801885D01*
X117144676Y-106801885D02*
X117144676Y-106954266D01*
X117144676Y-106314266D02*
X116504676Y-106314266D01*
X116504676Y-106314266D02*
X116504676Y-106161885D01*
X116504676Y-106161885D02*
X116535152Y-106070456D01*
X116535152Y-106070456D02*
X116596104Y-106009504D01*
X116596104Y-106009504D02*
X116657057Y-105979027D01*
X116657057Y-105979027D02*
X116778961Y-105948551D01*
X116778961Y-105948551D02*
X116870390Y-105948551D01*
X116870390Y-105948551D02*
X116992295Y-105979027D01*
X116992295Y-105979027D02*
X117053247Y-106009504D01*
X117053247Y-106009504D02*
X117114200Y-106070456D01*
X117114200Y-106070456D02*
X117144676Y-106161885D01*
X117144676Y-106161885D02*
X117144676Y-106314266D01*
X117083723Y-105308551D02*
X117114200Y-105339027D01*
X117114200Y-105339027D02*
X117144676Y-105430456D01*
X117144676Y-105430456D02*
X117144676Y-105491408D01*
X117144676Y-105491408D02*
X117114200Y-105582837D01*
X117114200Y-105582837D02*
X117053247Y-105643789D01*
X117053247Y-105643789D02*
X116992295Y-105674266D01*
X116992295Y-105674266D02*
X116870390Y-105704742D01*
X116870390Y-105704742D02*
X116778961Y-105704742D01*
X116778961Y-105704742D02*
X116657057Y-105674266D01*
X116657057Y-105674266D02*
X116596104Y-105643789D01*
X116596104Y-105643789D02*
X116535152Y-105582837D01*
X116535152Y-105582837D02*
X116504676Y-105491408D01*
X116504676Y-105491408D02*
X116504676Y-105430456D01*
X116504676Y-105430456D02*
X116535152Y-105339027D01*
X116535152Y-105339027D02*
X116565628Y-105308551D01*
X117144676Y-104668551D02*
X116839914Y-104881885D01*
X117144676Y-105034266D02*
X116504676Y-105034266D01*
X116504676Y-105034266D02*
X116504676Y-104790456D01*
X116504676Y-104790456D02*
X116535152Y-104729504D01*
X116535152Y-104729504D02*
X116565628Y-104699027D01*
X116565628Y-104699027D02*
X116626580Y-104668551D01*
X116626580Y-104668551D02*
X116718009Y-104668551D01*
X116718009Y-104668551D02*
X116778961Y-104699027D01*
X116778961Y-104699027D02*
X116809438Y-104729504D01*
X116809438Y-104729504D02*
X116839914Y-104790456D01*
X116839914Y-104790456D02*
X116839914Y-105034266D01*
X121074819Y-105022619D02*
X121074819Y-105594047D01*
X121074819Y-105308333D02*
X120074819Y-105308333D01*
X120074819Y-105308333D02*
X120217676Y-105403571D01*
X120217676Y-105403571D02*
X120312914Y-105498809D01*
X120312914Y-105498809D02*
X120360533Y-105594047D01*
X120408152Y-103832142D02*
X121408152Y-103832142D01*
X120931961Y-103355952D02*
X121027200Y-103308333D01*
X121027200Y-103308333D02*
X121074819Y-103213095D01*
X120931961Y-103832142D02*
X121027200Y-103784523D01*
X121027200Y-103784523D02*
X121074819Y-103689285D01*
X121074819Y-103689285D02*
X121074819Y-103498809D01*
X121074819Y-103498809D02*
X121027200Y-103403571D01*
X121027200Y-103403571D02*
X120931961Y-103355952D01*
X120931961Y-103355952D02*
X120408152Y-103355952D01*
X120551009Y-102451190D02*
X120551009Y-102784523D01*
X121074819Y-102784523D02*
X120074819Y-102784523D01*
X120074819Y-102784523D02*
X120074819Y-102308333D01*
D11*
X122193832Y-104041666D02*
X122212880Y-104060714D01*
X122212880Y-104060714D02*
X122231927Y-104117856D01*
X122231927Y-104117856D02*
X122231927Y-104155952D01*
X122231927Y-104155952D02*
X122212880Y-104213095D01*
X122212880Y-104213095D02*
X122174784Y-104251190D01*
X122174784Y-104251190D02*
X122136689Y-104270237D01*
X122136689Y-104270237D02*
X122060499Y-104289285D01*
X122060499Y-104289285D02*
X122003356Y-104289285D01*
X122003356Y-104289285D02*
X121927165Y-104270237D01*
X121927165Y-104270237D02*
X121889070Y-104251190D01*
X121889070Y-104251190D02*
X121850975Y-104213095D01*
X121850975Y-104213095D02*
X121831927Y-104155952D01*
X121831927Y-104155952D02*
X121831927Y-104117856D01*
X121831927Y-104117856D02*
X121850975Y-104060714D01*
X121850975Y-104060714D02*
X121870022Y-104041666D01*
X121831927Y-103908333D02*
X121831927Y-103660714D01*
X121831927Y-103660714D02*
X121984308Y-103794047D01*
X121984308Y-103794047D02*
X121984308Y-103736904D01*
X121984308Y-103736904D02*
X122003356Y-103698809D01*
X122003356Y-103698809D02*
X122022403Y-103679761D01*
X122022403Y-103679761D02*
X122060499Y-103660714D01*
X122060499Y-103660714D02*
X122155737Y-103660714D01*
X122155737Y-103660714D02*
X122193832Y-103679761D01*
X122193832Y-103679761D02*
X122212880Y-103698809D01*
X122212880Y-103698809D02*
X122231927Y-103736904D01*
X122231927Y-103736904D02*
X122231927Y-103851190D01*
X122231927Y-103851190D02*
X122212880Y-103889285D01*
X122212880Y-103889285D02*
X122193832Y-103908333D01*
D10*
X111071188Y-102019580D02*
X111023569Y-102067200D01*
X111023569Y-102067200D02*
X110880712Y-102114819D01*
X110880712Y-102114819D02*
X110785474Y-102114819D01*
X110785474Y-102114819D02*
X110642617Y-102067200D01*
X110642617Y-102067200D02*
X110547379Y-101971961D01*
X110547379Y-101971961D02*
X110499760Y-101876723D01*
X110499760Y-101876723D02*
X110452141Y-101686247D01*
X110452141Y-101686247D02*
X110452141Y-101543390D01*
X110452141Y-101543390D02*
X110499760Y-101352914D01*
X110499760Y-101352914D02*
X110547379Y-101257676D01*
X110547379Y-101257676D02*
X110642617Y-101162438D01*
X110642617Y-101162438D02*
X110785474Y-101114819D01*
X110785474Y-101114819D02*
X110880712Y-101114819D01*
X110880712Y-101114819D02*
X111023569Y-101162438D01*
X111023569Y-101162438D02*
X111071188Y-101210057D01*
X111642617Y-102114819D02*
X111547379Y-102067200D01*
X111547379Y-102067200D02*
X111499760Y-102019580D01*
X111499760Y-102019580D02*
X111452141Y-101924342D01*
X111452141Y-101924342D02*
X111452141Y-101638628D01*
X111452141Y-101638628D02*
X111499760Y-101543390D01*
X111499760Y-101543390D02*
X111547379Y-101495771D01*
X111547379Y-101495771D02*
X111642617Y-101448152D01*
X111642617Y-101448152D02*
X111785474Y-101448152D01*
X111785474Y-101448152D02*
X111880712Y-101495771D01*
X111880712Y-101495771D02*
X111928331Y-101543390D01*
X111928331Y-101543390D02*
X111975950Y-101638628D01*
X111975950Y-101638628D02*
X111975950Y-101924342D01*
X111975950Y-101924342D02*
X111928331Y-102019580D01*
X111928331Y-102019580D02*
X111880712Y-102067200D01*
X111880712Y-102067200D02*
X111785474Y-102114819D01*
X111785474Y-102114819D02*
X111642617Y-102114819D01*
X112404522Y-101448152D02*
X112404522Y-102114819D01*
X112404522Y-101543390D02*
X112452141Y-101495771D01*
X112452141Y-101495771D02*
X112547379Y-101448152D01*
X112547379Y-101448152D02*
X112690236Y-101448152D01*
X112690236Y-101448152D02*
X112785474Y-101495771D01*
X112785474Y-101495771D02*
X112833093Y-101591009D01*
X112833093Y-101591009D02*
X112833093Y-102114819D01*
X113309284Y-101448152D02*
X113309284Y-102114819D01*
X113309284Y-101543390D02*
X113356903Y-101495771D01*
X113356903Y-101495771D02*
X113452141Y-101448152D01*
X113452141Y-101448152D02*
X113594998Y-101448152D01*
X113594998Y-101448152D02*
X113690236Y-101495771D01*
X113690236Y-101495771D02*
X113737855Y-101591009D01*
X113737855Y-101591009D02*
X113737855Y-102114819D01*
X113975951Y-102210057D02*
X114737855Y-102210057D01*
X115166427Y-101114819D02*
X115261665Y-101114819D01*
X115261665Y-101114819D02*
X115356903Y-101162438D01*
X115356903Y-101162438D02*
X115404522Y-101210057D01*
X115404522Y-101210057D02*
X115452141Y-101305295D01*
X115452141Y-101305295D02*
X115499760Y-101495771D01*
X115499760Y-101495771D02*
X115499760Y-101733866D01*
X115499760Y-101733866D02*
X115452141Y-101924342D01*
X115452141Y-101924342D02*
X115404522Y-102019580D01*
X115404522Y-102019580D02*
X115356903Y-102067200D01*
X115356903Y-102067200D02*
X115261665Y-102114819D01*
X115261665Y-102114819D02*
X115166427Y-102114819D01*
X115166427Y-102114819D02*
X115071189Y-102067200D01*
X115071189Y-102067200D02*
X115023570Y-102019580D01*
X115023570Y-102019580D02*
X114975951Y-101924342D01*
X114975951Y-101924342D02*
X114928332Y-101733866D01*
X114928332Y-101733866D02*
X114928332Y-101495771D01*
X114928332Y-101495771D02*
X114975951Y-101305295D01*
X114975951Y-101305295D02*
X115023570Y-101210057D01*
X115023570Y-101210057D02*
X115071189Y-101162438D01*
X115071189Y-101162438D02*
X115166427Y-101114819D01*
X115880713Y-101210057D02*
X115928332Y-101162438D01*
X115928332Y-101162438D02*
X116023570Y-101114819D01*
X116023570Y-101114819D02*
X116261665Y-101114819D01*
X116261665Y-101114819D02*
X116356903Y-101162438D01*
X116356903Y-101162438D02*
X116404522Y-101210057D01*
X116404522Y-101210057D02*
X116452141Y-101305295D01*
X116452141Y-101305295D02*
X116452141Y-101400533D01*
X116452141Y-101400533D02*
X116404522Y-101543390D01*
X116404522Y-101543390D02*
X115833094Y-102114819D01*
X115833094Y-102114819D02*
X116452141Y-102114819D01*
X116785475Y-102114819D02*
X117309284Y-101448152D01*
X116785475Y-101448152D02*
X117309284Y-102114819D01*
X117880713Y-101114819D02*
X117975951Y-101114819D01*
X117975951Y-101114819D02*
X118071189Y-101162438D01*
X118071189Y-101162438D02*
X118118808Y-101210057D01*
X118118808Y-101210057D02*
X118166427Y-101305295D01*
X118166427Y-101305295D02*
X118214046Y-101495771D01*
X118214046Y-101495771D02*
X118214046Y-101733866D01*
X118214046Y-101733866D02*
X118166427Y-101924342D01*
X118166427Y-101924342D02*
X118118808Y-102019580D01*
X118118808Y-102019580D02*
X118071189Y-102067200D01*
X118071189Y-102067200D02*
X117975951Y-102114819D01*
X117975951Y-102114819D02*
X117880713Y-102114819D01*
X117880713Y-102114819D02*
X117785475Y-102067200D01*
X117785475Y-102067200D02*
X117737856Y-102019580D01*
X117737856Y-102019580D02*
X117690237Y-101924342D01*
X117690237Y-101924342D02*
X117642618Y-101733866D01*
X117642618Y-101733866D02*
X117642618Y-101495771D01*
X117642618Y-101495771D02*
X117690237Y-101305295D01*
X117690237Y-101305295D02*
X117737856Y-101210057D01*
X117737856Y-101210057D02*
X117785475Y-101162438D01*
X117785475Y-101162438D02*
X117880713Y-101114819D01*
X119071189Y-101448152D02*
X119071189Y-102114819D01*
X118833094Y-101067200D02*
X118594999Y-101781485D01*
X118594999Y-101781485D02*
X119214046Y-101781485D01*
X119356904Y-102210057D02*
X120118808Y-102210057D01*
X120928332Y-102019580D02*
X120880713Y-102067200D01*
X120880713Y-102067200D02*
X120737856Y-102114819D01*
X120737856Y-102114819D02*
X120642618Y-102114819D01*
X120642618Y-102114819D02*
X120499761Y-102067200D01*
X120499761Y-102067200D02*
X120404523Y-101971961D01*
X120404523Y-101971961D02*
X120356904Y-101876723D01*
X120356904Y-101876723D02*
X120309285Y-101686247D01*
X120309285Y-101686247D02*
X120309285Y-101543390D01*
X120309285Y-101543390D02*
X120356904Y-101352914D01*
X120356904Y-101352914D02*
X120404523Y-101257676D01*
X120404523Y-101257676D02*
X120499761Y-101162438D01*
X120499761Y-101162438D02*
X120642618Y-101114819D01*
X120642618Y-101114819D02*
X120737856Y-101114819D01*
X120737856Y-101114819D02*
X120880713Y-101162438D01*
X120880713Y-101162438D02*
X120928332Y-101210057D01*
X121499761Y-102114819D02*
X121404523Y-102067200D01*
X121404523Y-102067200D02*
X121356904Y-102019580D01*
X121356904Y-102019580D02*
X121309285Y-101924342D01*
X121309285Y-101924342D02*
X121309285Y-101638628D01*
X121309285Y-101638628D02*
X121356904Y-101543390D01*
X121356904Y-101543390D02*
X121404523Y-101495771D01*
X121404523Y-101495771D02*
X121499761Y-101448152D01*
X121499761Y-101448152D02*
X121642618Y-101448152D01*
X121642618Y-101448152D02*
X121737856Y-101495771D01*
X121737856Y-101495771D02*
X121785475Y-101543390D01*
X121785475Y-101543390D02*
X121833094Y-101638628D01*
X121833094Y-101638628D02*
X121833094Y-101924342D01*
X121833094Y-101924342D02*
X121785475Y-102019580D01*
X121785475Y-102019580D02*
X121737856Y-102067200D01*
X121737856Y-102067200D02*
X121642618Y-102114819D01*
X121642618Y-102114819D02*
X121499761Y-102114819D01*
X122690237Y-101448152D02*
X122690237Y-102114819D01*
X122261666Y-101448152D02*
X122261666Y-101971961D01*
X122261666Y-101971961D02*
X122309285Y-102067200D01*
X122309285Y-102067200D02*
X122404523Y-102114819D01*
X122404523Y-102114819D02*
X122547380Y-102114819D01*
X122547380Y-102114819D02*
X122642618Y-102067200D01*
X122642618Y-102067200D02*
X122690237Y-102019580D01*
X123166428Y-101448152D02*
X123166428Y-102114819D01*
X123166428Y-101543390D02*
X123214047Y-101495771D01*
X123214047Y-101495771D02*
X123309285Y-101448152D01*
X123309285Y-101448152D02*
X123452142Y-101448152D01*
X123452142Y-101448152D02*
X123547380Y-101495771D01*
X123547380Y-101495771D02*
X123594999Y-101591009D01*
X123594999Y-101591009D02*
X123594999Y-102114819D01*
X123928333Y-101448152D02*
X124309285Y-101448152D01*
X124071190Y-101114819D02*
X124071190Y-101971961D01*
X124071190Y-101971961D02*
X124118809Y-102067200D01*
X124118809Y-102067200D02*
X124214047Y-102114819D01*
X124214047Y-102114819D02*
X124309285Y-102114819D01*
X125023571Y-102067200D02*
X124928333Y-102114819D01*
X124928333Y-102114819D02*
X124737857Y-102114819D01*
X124737857Y-102114819D02*
X124642619Y-102067200D01*
X124642619Y-102067200D02*
X124595000Y-101971961D01*
X124595000Y-101971961D02*
X124595000Y-101591009D01*
X124595000Y-101591009D02*
X124642619Y-101495771D01*
X124642619Y-101495771D02*
X124737857Y-101448152D01*
X124737857Y-101448152D02*
X124928333Y-101448152D01*
X124928333Y-101448152D02*
X125023571Y-101495771D01*
X125023571Y-101495771D02*
X125071190Y-101591009D01*
X125071190Y-101591009D02*
X125071190Y-101686247D01*
X125071190Y-101686247D02*
X124595000Y-101781485D01*
X125499762Y-102114819D02*
X125499762Y-101448152D01*
X125499762Y-101638628D02*
X125547381Y-101543390D01*
X125547381Y-101543390D02*
X125595000Y-101495771D01*
X125595000Y-101495771D02*
X125690238Y-101448152D01*
X125690238Y-101448152D02*
X125785476Y-101448152D01*
X125880715Y-102210057D02*
X126642619Y-102210057D01*
X127452143Y-102019580D02*
X127404524Y-102067200D01*
X127404524Y-102067200D02*
X127261667Y-102114819D01*
X127261667Y-102114819D02*
X127166429Y-102114819D01*
X127166429Y-102114819D02*
X127023572Y-102067200D01*
X127023572Y-102067200D02*
X126928334Y-101971961D01*
X126928334Y-101971961D02*
X126880715Y-101876723D01*
X126880715Y-101876723D02*
X126833096Y-101686247D01*
X126833096Y-101686247D02*
X126833096Y-101543390D01*
X126833096Y-101543390D02*
X126880715Y-101352914D01*
X126880715Y-101352914D02*
X126928334Y-101257676D01*
X126928334Y-101257676D02*
X127023572Y-101162438D01*
X127023572Y-101162438D02*
X127166429Y-101114819D01*
X127166429Y-101114819D02*
X127261667Y-101114819D01*
X127261667Y-101114819D02*
X127404524Y-101162438D01*
X127404524Y-101162438D02*
X127452143Y-101210057D01*
X128023572Y-102114819D02*
X127928334Y-102067200D01*
X127928334Y-102067200D02*
X127880715Y-101971961D01*
X127880715Y-101971961D02*
X127880715Y-101114819D01*
X128547382Y-102114819D02*
X128452144Y-102067200D01*
X128452144Y-102067200D02*
X128404525Y-102019580D01*
X128404525Y-102019580D02*
X128356906Y-101924342D01*
X128356906Y-101924342D02*
X128356906Y-101638628D01*
X128356906Y-101638628D02*
X128404525Y-101543390D01*
X128404525Y-101543390D02*
X128452144Y-101495771D01*
X128452144Y-101495771D02*
X128547382Y-101448152D01*
X128547382Y-101448152D02*
X128690239Y-101448152D01*
X128690239Y-101448152D02*
X128785477Y-101495771D01*
X128785477Y-101495771D02*
X128833096Y-101543390D01*
X128833096Y-101543390D02*
X128880715Y-101638628D01*
X128880715Y-101638628D02*
X128880715Y-101924342D01*
X128880715Y-101924342D02*
X128833096Y-102019580D01*
X128833096Y-102019580D02*
X128785477Y-102067200D01*
X128785477Y-102067200D02*
X128690239Y-102114819D01*
X128690239Y-102114819D02*
X128547382Y-102114819D01*
X129737858Y-102067200D02*
X129642620Y-102114819D01*
X129642620Y-102114819D02*
X129452144Y-102114819D01*
X129452144Y-102114819D02*
X129356906Y-102067200D01*
X129356906Y-102067200D02*
X129309287Y-102019580D01*
X129309287Y-102019580D02*
X129261668Y-101924342D01*
X129261668Y-101924342D02*
X129261668Y-101638628D01*
X129261668Y-101638628D02*
X129309287Y-101543390D01*
X129309287Y-101543390D02*
X129356906Y-101495771D01*
X129356906Y-101495771D02*
X129452144Y-101448152D01*
X129452144Y-101448152D02*
X129642620Y-101448152D01*
X129642620Y-101448152D02*
X129737858Y-101495771D01*
X130166430Y-102114819D02*
X130166430Y-101114819D01*
X130261668Y-101733866D02*
X130547382Y-102114819D01*
X130547382Y-101448152D02*
X130166430Y-101829104D01*
X130880716Y-101448152D02*
X131071192Y-102114819D01*
X131071192Y-102114819D02*
X131261668Y-101638628D01*
X131261668Y-101638628D02*
X131452144Y-102114819D01*
X131452144Y-102114819D02*
X131642620Y-101448152D01*
X132023573Y-102114819D02*
X132023573Y-101448152D01*
X132023573Y-101114819D02*
X131975954Y-101162438D01*
X131975954Y-101162438D02*
X132023573Y-101210057D01*
X132023573Y-101210057D02*
X132071192Y-101162438D01*
X132071192Y-101162438D02*
X132023573Y-101114819D01*
X132023573Y-101114819D02*
X132023573Y-101210057D01*
X132452144Y-102067200D02*
X132547382Y-102114819D01*
X132547382Y-102114819D02*
X132737858Y-102114819D01*
X132737858Y-102114819D02*
X132833096Y-102067200D01*
X132833096Y-102067200D02*
X132880715Y-101971961D01*
X132880715Y-101971961D02*
X132880715Y-101924342D01*
X132880715Y-101924342D02*
X132833096Y-101829104D01*
X132833096Y-101829104D02*
X132737858Y-101781485D01*
X132737858Y-101781485D02*
X132595001Y-101781485D01*
X132595001Y-101781485D02*
X132499763Y-101733866D01*
X132499763Y-101733866D02*
X132452144Y-101638628D01*
X132452144Y-101638628D02*
X132452144Y-101591009D01*
X132452144Y-101591009D02*
X132499763Y-101495771D01*
X132499763Y-101495771D02*
X132595001Y-101448152D01*
X132595001Y-101448152D02*
X132737858Y-101448152D01*
X132737858Y-101448152D02*
X132833096Y-101495771D01*
X133690239Y-102067200D02*
X133595001Y-102114819D01*
X133595001Y-102114819D02*
X133404525Y-102114819D01*
X133404525Y-102114819D02*
X133309287Y-102067200D01*
X133309287Y-102067200D02*
X133261668Y-101971961D01*
X133261668Y-101971961D02*
X133261668Y-101591009D01*
X133261668Y-101591009D02*
X133309287Y-101495771D01*
X133309287Y-101495771D02*
X133404525Y-101448152D01*
X133404525Y-101448152D02*
X133595001Y-101448152D01*
X133595001Y-101448152D02*
X133690239Y-101495771D01*
X133690239Y-101495771D02*
X133737858Y-101591009D01*
X133737858Y-101591009D02*
X133737858Y-101686247D01*
X133737858Y-101686247D02*
X133261668Y-101781485D01*
X121549819Y-95803333D02*
X122264104Y-95803333D01*
X122264104Y-95803333D02*
X122406961Y-95850952D01*
X122406961Y-95850952D02*
X122502200Y-95946190D01*
X122502200Y-95946190D02*
X122549819Y-96089047D01*
X122549819Y-96089047D02*
X122549819Y-96184285D01*
X121883152Y-94898571D02*
X122549819Y-94898571D01*
X121502200Y-95136666D02*
X122216485Y-95374761D01*
X122216485Y-95374761D02*
X122216485Y-94755714D01*
D12*
X119119371Y-105561017D02*
X119119371Y-105081017D01*
X119622228Y-105515302D02*
X119599371Y-105538160D01*
X119599371Y-105538160D02*
X119530799Y-105561017D01*
X119530799Y-105561017D02*
X119485085Y-105561017D01*
X119485085Y-105561017D02*
X119416514Y-105538160D01*
X119416514Y-105538160D02*
X119370799Y-105492445D01*
X119370799Y-105492445D02*
X119347942Y-105446731D01*
X119347942Y-105446731D02*
X119325085Y-105355302D01*
X119325085Y-105355302D02*
X119325085Y-105286731D01*
X119325085Y-105286731D02*
X119347942Y-105195302D01*
X119347942Y-105195302D02*
X119370799Y-105149588D01*
X119370799Y-105149588D02*
X119416514Y-105103874D01*
X119416514Y-105103874D02*
X119485085Y-105081017D01*
X119485085Y-105081017D02*
X119530799Y-105081017D01*
X119530799Y-105081017D02*
X119599371Y-105103874D01*
X119599371Y-105103874D02*
X119622228Y-105126731D01*
X119827942Y-105561017D02*
X119827942Y-105081017D01*
X119827942Y-105081017D02*
X119987942Y-105423874D01*
X119987942Y-105423874D02*
X120147942Y-105081017D01*
X120147942Y-105081017D02*
X120147942Y-105561017D01*
X120376513Y-105378160D02*
X120742228Y-105378160D01*
X121176514Y-105241017D02*
X121176514Y-105561017D01*
X121062228Y-105058160D02*
X120947942Y-105401017D01*
X120947942Y-105401017D02*
X121245085Y-105401017D01*
X121405085Y-105126731D02*
X121427942Y-105103874D01*
X121427942Y-105103874D02*
X121473657Y-105081017D01*
X121473657Y-105081017D02*
X121587942Y-105081017D01*
X121587942Y-105081017D02*
X121633657Y-105103874D01*
X121633657Y-105103874D02*
X121656514Y-105126731D01*
X121656514Y-105126731D02*
X121679371Y-105172445D01*
X121679371Y-105172445D02*
X121679371Y-105218160D01*
X121679371Y-105218160D02*
X121656514Y-105286731D01*
X121656514Y-105286731D02*
X121382228Y-105561017D01*
X121382228Y-105561017D02*
X121679371Y-105561017D01*
X122090800Y-105081017D02*
X121999371Y-105081017D01*
X121999371Y-105081017D02*
X121953657Y-105103874D01*
X121953657Y-105103874D02*
X121930800Y-105126731D01*
X121930800Y-105126731D02*
X121885085Y-105195302D01*
X121885085Y-105195302D02*
X121862228Y-105286731D01*
X121862228Y-105286731D02*
X121862228Y-105469588D01*
X121862228Y-105469588D02*
X121885085Y-105515302D01*
X121885085Y-105515302D02*
X121907942Y-105538160D01*
X121907942Y-105538160D02*
X121953657Y-105561017D01*
X121953657Y-105561017D02*
X122045085Y-105561017D01*
X122045085Y-105561017D02*
X122090800Y-105538160D01*
X122090800Y-105538160D02*
X122113657Y-105515302D01*
X122113657Y-105515302D02*
X122136514Y-105469588D01*
X122136514Y-105469588D02*
X122136514Y-105355302D01*
X122136514Y-105355302D02*
X122113657Y-105309588D01*
X122113657Y-105309588D02*
X122090800Y-105286731D01*
X122090800Y-105286731D02*
X122045085Y-105263874D01*
X122045085Y-105263874D02*
X121953657Y-105263874D01*
X121953657Y-105263874D02*
X121907942Y-105286731D01*
X121907942Y-105286731D02*
X121885085Y-105309588D01*
X121885085Y-105309588D02*
X121862228Y-105355302D01*
X122410800Y-105286731D02*
X122365085Y-105263874D01*
X122365085Y-105263874D02*
X122342228Y-105241017D01*
X122342228Y-105241017D02*
X122319371Y-105195302D01*
X122319371Y-105195302D02*
X122319371Y-105172445D01*
X122319371Y-105172445D02*
X122342228Y-105126731D01*
X122342228Y-105126731D02*
X122365085Y-105103874D01*
X122365085Y-105103874D02*
X122410800Y-105081017D01*
X122410800Y-105081017D02*
X122502228Y-105081017D01*
X122502228Y-105081017D02*
X122547943Y-105103874D01*
X122547943Y-105103874D02*
X122570800Y-105126731D01*
X122570800Y-105126731D02*
X122593657Y-105172445D01*
X122593657Y-105172445D02*
X122593657Y-105195302D01*
X122593657Y-105195302D02*
X122570800Y-105241017D01*
X122570800Y-105241017D02*
X122547943Y-105263874D01*
X122547943Y-105263874D02*
X122502228Y-105286731D01*
X122502228Y-105286731D02*
X122410800Y-105286731D01*
X122410800Y-105286731D02*
X122365085Y-105309588D01*
X122365085Y-105309588D02*
X122342228Y-105332445D01*
X122342228Y-105332445D02*
X122319371Y-105378160D01*
X122319371Y-105378160D02*
X122319371Y-105469588D01*
X122319371Y-105469588D02*
X122342228Y-105515302D01*
X122342228Y-105515302D02*
X122365085Y-105538160D01*
X122365085Y-105538160D02*
X122410800Y-105561017D01*
X122410800Y-105561017D02*
X122502228Y-105561017D01*
X122502228Y-105561017D02*
X122547943Y-105538160D01*
X122547943Y-105538160D02*
X122570800Y-105515302D01*
X122570800Y-105515302D02*
X122593657Y-105469588D01*
X122593657Y-105469588D02*
X122593657Y-105378160D01*
X122593657Y-105378160D02*
X122570800Y-105332445D01*
X122570800Y-105332445D02*
X122547943Y-105309588D01*
X122547943Y-105309588D02*
X122502228Y-105286731D01*
X122867943Y-105286731D02*
X122822228Y-105263874D01*
X122822228Y-105263874D02*
X122799371Y-105241017D01*
X122799371Y-105241017D02*
X122776514Y-105195302D01*
X122776514Y-105195302D02*
X122776514Y-105172445D01*
X122776514Y-105172445D02*
X122799371Y-105126731D01*
X122799371Y-105126731D02*
X122822228Y-105103874D01*
X122822228Y-105103874D02*
X122867943Y-105081017D01*
X122867943Y-105081017D02*
X122959371Y-105081017D01*
X122959371Y-105081017D02*
X123005086Y-105103874D01*
X123005086Y-105103874D02*
X123027943Y-105126731D01*
X123027943Y-105126731D02*
X123050800Y-105172445D01*
X123050800Y-105172445D02*
X123050800Y-105195302D01*
X123050800Y-105195302D02*
X123027943Y-105241017D01*
X123027943Y-105241017D02*
X123005086Y-105263874D01*
X123005086Y-105263874D02*
X122959371Y-105286731D01*
X122959371Y-105286731D02*
X122867943Y-105286731D01*
X122867943Y-105286731D02*
X122822228Y-105309588D01*
X122822228Y-105309588D02*
X122799371Y-105332445D01*
X122799371Y-105332445D02*
X122776514Y-105378160D01*
X122776514Y-105378160D02*
X122776514Y-105469588D01*
X122776514Y-105469588D02*
X122799371Y-105515302D01*
X122799371Y-105515302D02*
X122822228Y-105538160D01*
X122822228Y-105538160D02*
X122867943Y-105561017D01*
X122867943Y-105561017D02*
X122959371Y-105561017D01*
X122959371Y-105561017D02*
X123005086Y-105538160D01*
X123005086Y-105538160D02*
X123027943Y-105515302D01*
X123027943Y-105515302D02*
X123050800Y-105469588D01*
X123050800Y-105469588D02*
X123050800Y-105378160D01*
X123050800Y-105378160D02*
X123027943Y-105332445D01*
X123027943Y-105332445D02*
X123005086Y-105309588D01*
X123005086Y-105309588D02*
X122959371Y-105286731D01*
X123256514Y-105378160D02*
X123622229Y-105378160D01*
X123850800Y-105561017D02*
X123850800Y-105081017D01*
X123850800Y-105081017D02*
X124033657Y-105081017D01*
X124033657Y-105081017D02*
X124079372Y-105103874D01*
X124079372Y-105103874D02*
X124102229Y-105126731D01*
X124102229Y-105126731D02*
X124125086Y-105172445D01*
X124125086Y-105172445D02*
X124125086Y-105241017D01*
X124125086Y-105241017D02*
X124102229Y-105286731D01*
X124102229Y-105286731D02*
X124079372Y-105309588D01*
X124079372Y-105309588D02*
X124033657Y-105332445D01*
X124033657Y-105332445D02*
X123850800Y-105332445D01*
D10*
X112782142Y-97374819D02*
X112210714Y-97374819D01*
X112496428Y-97374819D02*
X112496428Y-96374819D01*
X112496428Y-96374819D02*
X112401190Y-96517676D01*
X112401190Y-96517676D02*
X112305952Y-96612914D01*
X112305952Y-96612914D02*
X112210714Y-96660533D01*
X113401190Y-96374819D02*
X113496428Y-96374819D01*
X113496428Y-96374819D02*
X113591666Y-96422438D01*
X113591666Y-96422438D02*
X113639285Y-96470057D01*
X113639285Y-96470057D02*
X113686904Y-96565295D01*
X113686904Y-96565295D02*
X113734523Y-96755771D01*
X113734523Y-96755771D02*
X113734523Y-96993866D01*
X113734523Y-96993866D02*
X113686904Y-97184342D01*
X113686904Y-97184342D02*
X113639285Y-97279580D01*
X113639285Y-97279580D02*
X113591666Y-97327200D01*
X113591666Y-97327200D02*
X113496428Y-97374819D01*
X113496428Y-97374819D02*
X113401190Y-97374819D01*
X113401190Y-97374819D02*
X113305952Y-97327200D01*
X113305952Y-97327200D02*
X113258333Y-97279580D01*
X113258333Y-97279580D02*
X113210714Y-97184342D01*
X113210714Y-97184342D02*
X113163095Y-96993866D01*
X113163095Y-96993866D02*
X113163095Y-96755771D01*
X113163095Y-96755771D02*
X113210714Y-96565295D01*
X113210714Y-96565295D02*
X113258333Y-96470057D01*
X113258333Y-96470057D02*
X113305952Y-96422438D01*
X113305952Y-96422438D02*
X113401190Y-96374819D01*
X114163095Y-96708152D02*
X114163095Y-97708152D01*
X114639285Y-97231961D02*
X114686904Y-97327200D01*
X114686904Y-97327200D02*
X114782142Y-97374819D01*
X114163095Y-97231961D02*
X114210714Y-97327200D01*
X114210714Y-97327200D02*
X114305952Y-97374819D01*
X114305952Y-97374819D02*
X114496428Y-97374819D01*
X114496428Y-97374819D02*
X114591666Y-97327200D01*
X114591666Y-97327200D02*
X114639285Y-97231961D01*
X114639285Y-97231961D02*
X114639285Y-96708152D01*
X115544047Y-96851009D02*
X115210714Y-96851009D01*
X115210714Y-97374819D02*
X115210714Y-96374819D01*
X115210714Y-96374819D02*
X115686904Y-96374819D01*
D13*
X113841666Y-98779530D02*
X113817857Y-98803340D01*
X113817857Y-98803340D02*
X113746428Y-98827149D01*
X113746428Y-98827149D02*
X113698809Y-98827149D01*
X113698809Y-98827149D02*
X113627381Y-98803340D01*
X113627381Y-98803340D02*
X113579762Y-98755720D01*
X113579762Y-98755720D02*
X113555952Y-98708101D01*
X113555952Y-98708101D02*
X113532143Y-98612863D01*
X113532143Y-98612863D02*
X113532143Y-98541435D01*
X113532143Y-98541435D02*
X113555952Y-98446197D01*
X113555952Y-98446197D02*
X113579762Y-98398578D01*
X113579762Y-98398578D02*
X113627381Y-98350959D01*
X113627381Y-98350959D02*
X113698809Y-98327149D01*
X113698809Y-98327149D02*
X113746428Y-98327149D01*
X113746428Y-98327149D02*
X113817857Y-98350959D01*
X113817857Y-98350959D02*
X113841666Y-98374768D01*
X114317857Y-98827149D02*
X114032143Y-98827149D01*
X114175000Y-98827149D02*
X114175000Y-98327149D01*
X114175000Y-98327149D02*
X114127381Y-98398578D01*
X114127381Y-98398578D02*
X114079762Y-98446197D01*
X114079762Y-98446197D02*
X114032143Y-98470006D01*
D10*
X115150048Y-108877819D02*
X115150048Y-107877819D01*
X115150048Y-107877819D02*
X115483381Y-108592104D01*
X115483381Y-108592104D02*
X115816714Y-107877819D01*
X115816714Y-107877819D02*
X115816714Y-108877819D01*
X116864333Y-108782580D02*
X116816714Y-108830200D01*
X116816714Y-108830200D02*
X116673857Y-108877819D01*
X116673857Y-108877819D02*
X116578619Y-108877819D01*
X116578619Y-108877819D02*
X116435762Y-108830200D01*
X116435762Y-108830200D02*
X116340524Y-108734961D01*
X116340524Y-108734961D02*
X116292905Y-108639723D01*
X116292905Y-108639723D02*
X116245286Y-108449247D01*
X116245286Y-108449247D02*
X116245286Y-108306390D01*
X116245286Y-108306390D02*
X116292905Y-108115914D01*
X116292905Y-108115914D02*
X116340524Y-108020676D01*
X116340524Y-108020676D02*
X116435762Y-107925438D01*
X116435762Y-107925438D02*
X116578619Y-107877819D01*
X116578619Y-107877819D02*
X116673857Y-107877819D01*
X116673857Y-107877819D02*
X116816714Y-107925438D01*
X116816714Y-107925438D02*
X116864333Y-107973057D01*
X117292905Y-108877819D02*
X117292905Y-107877819D01*
X117292905Y-107877819D02*
X117673857Y-107877819D01*
X117673857Y-107877819D02*
X117769095Y-107925438D01*
X117769095Y-107925438D02*
X117816714Y-107973057D01*
X117816714Y-107973057D02*
X117864333Y-108068295D01*
X117864333Y-108068295D02*
X117864333Y-108211152D01*
X117864333Y-108211152D02*
X117816714Y-108306390D01*
X117816714Y-108306390D02*
X117769095Y-108354009D01*
X117769095Y-108354009D02*
X117673857Y-108401628D01*
X117673857Y-108401628D02*
X117292905Y-108401628D01*
X118197667Y-107877819D02*
X118864333Y-107877819D01*
X118864333Y-107877819D02*
X118435762Y-108877819D01*
X119150048Y-107877819D02*
X119769095Y-107877819D01*
X119769095Y-107877819D02*
X119435762Y-108258771D01*
X119435762Y-108258771D02*
X119578619Y-108258771D01*
X119578619Y-108258771D02*
X119673857Y-108306390D01*
X119673857Y-108306390D02*
X119721476Y-108354009D01*
X119721476Y-108354009D02*
X119769095Y-108449247D01*
X119769095Y-108449247D02*
X119769095Y-108687342D01*
X119769095Y-108687342D02*
X119721476Y-108782580D01*
X119721476Y-108782580D02*
X119673857Y-108830200D01*
X119673857Y-108830200D02*
X119578619Y-108877819D01*
X119578619Y-108877819D02*
X119292905Y-108877819D01*
X119292905Y-108877819D02*
X119197667Y-108830200D01*
X119197667Y-108830200D02*
X119150048Y-108782580D01*
X120340524Y-108306390D02*
X120245286Y-108258771D01*
X120245286Y-108258771D02*
X120197667Y-108211152D01*
X120197667Y-108211152D02*
X120150048Y-108115914D01*
X120150048Y-108115914D02*
X120150048Y-108068295D01*
X120150048Y-108068295D02*
X120197667Y-107973057D01*
X120197667Y-107973057D02*
X120245286Y-107925438D01*
X120245286Y-107925438D02*
X120340524Y-107877819D01*
X120340524Y-107877819D02*
X120531000Y-107877819D01*
X120531000Y-107877819D02*
X120626238Y-107925438D01*
X120626238Y-107925438D02*
X120673857Y-107973057D01*
X120673857Y-107973057D02*
X120721476Y-108068295D01*
X120721476Y-108068295D02*
X120721476Y-108115914D01*
X120721476Y-108115914D02*
X120673857Y-108211152D01*
X120673857Y-108211152D02*
X120626238Y-108258771D01*
X120626238Y-108258771D02*
X120531000Y-108306390D01*
X120531000Y-108306390D02*
X120340524Y-108306390D01*
X120340524Y-108306390D02*
X120245286Y-108354009D01*
X120245286Y-108354009D02*
X120197667Y-108401628D01*
X120197667Y-108401628D02*
X120150048Y-108496866D01*
X120150048Y-108496866D02*
X120150048Y-108687342D01*
X120150048Y-108687342D02*
X120197667Y-108782580D01*
X120197667Y-108782580D02*
X120245286Y-108830200D01*
X120245286Y-108830200D02*
X120340524Y-108877819D01*
X120340524Y-108877819D02*
X120531000Y-108877819D01*
X120531000Y-108877819D02*
X120626238Y-108830200D01*
X120626238Y-108830200D02*
X120673857Y-108782580D01*
X120673857Y-108782580D02*
X120721476Y-108687342D01*
X120721476Y-108687342D02*
X120721476Y-108496866D01*
X120721476Y-108496866D02*
X120673857Y-108401628D01*
X120673857Y-108401628D02*
X120626238Y-108354009D01*
X120626238Y-108354009D02*
X120531000Y-108306390D01*
X121054810Y-107877819D02*
X121673857Y-107877819D01*
X121673857Y-107877819D02*
X121340524Y-108258771D01*
X121340524Y-108258771D02*
X121483381Y-108258771D01*
X121483381Y-108258771D02*
X121578619Y-108306390D01*
X121578619Y-108306390D02*
X121626238Y-108354009D01*
X121626238Y-108354009D02*
X121673857Y-108449247D01*
X121673857Y-108449247D02*
X121673857Y-108687342D01*
X121673857Y-108687342D02*
X121626238Y-108782580D01*
X121626238Y-108782580D02*
X121578619Y-108830200D01*
X121578619Y-108830200D02*
X121483381Y-108877819D01*
X121483381Y-108877819D02*
X121197667Y-108877819D01*
X121197667Y-108877819D02*
X121102429Y-108830200D01*
X121102429Y-108830200D02*
X121054810Y-108782580D01*
X122626238Y-108877819D02*
X122054810Y-108877819D01*
X122340524Y-108877819D02*
X122340524Y-107877819D01*
X122340524Y-107877819D02*
X122245286Y-108020676D01*
X122245286Y-108020676D02*
X122150048Y-108115914D01*
X122150048Y-108115914D02*
X122054810Y-108163533D01*
X122911953Y-107877819D02*
X123483381Y-107877819D01*
X123197667Y-108877819D02*
X123197667Y-107877819D01*
X123816715Y-108496866D02*
X124578620Y-108496866D01*
X125007191Y-107973057D02*
X125054810Y-107925438D01*
X125054810Y-107925438D02*
X125150048Y-107877819D01*
X125150048Y-107877819D02*
X125388143Y-107877819D01*
X125388143Y-107877819D02*
X125483381Y-107925438D01*
X125483381Y-107925438D02*
X125531000Y-107973057D01*
X125531000Y-107973057D02*
X125578619Y-108068295D01*
X125578619Y-108068295D02*
X125578619Y-108163533D01*
X125578619Y-108163533D02*
X125531000Y-108306390D01*
X125531000Y-108306390D02*
X124959572Y-108877819D01*
X124959572Y-108877819D02*
X125578619Y-108877819D01*
X126007191Y-108877819D02*
X126007191Y-107877819D01*
X126007191Y-107877819D02*
X126245286Y-107877819D01*
X126245286Y-107877819D02*
X126388143Y-107925438D01*
X126388143Y-107925438D02*
X126483381Y-108020676D01*
X126483381Y-108020676D02*
X126531000Y-108115914D01*
X126531000Y-108115914D02*
X126578619Y-108306390D01*
X126578619Y-108306390D02*
X126578619Y-108449247D01*
X126578619Y-108449247D02*
X126531000Y-108639723D01*
X126531000Y-108639723D02*
X126483381Y-108734961D01*
X126483381Y-108734961D02*
X126388143Y-108830200D01*
X126388143Y-108830200D02*
X126245286Y-108877819D01*
X126245286Y-108877819D02*
X126007191Y-108877819D01*
X127578619Y-108782580D02*
X127531000Y-108830200D01*
X127531000Y-108830200D02*
X127388143Y-108877819D01*
X127388143Y-108877819D02*
X127292905Y-108877819D01*
X127292905Y-108877819D02*
X127150048Y-108830200D01*
X127150048Y-108830200D02*
X127054810Y-108734961D01*
X127054810Y-108734961D02*
X127007191Y-108639723D01*
X127007191Y-108639723D02*
X126959572Y-108449247D01*
X126959572Y-108449247D02*
X126959572Y-108306390D01*
X126959572Y-108306390D02*
X127007191Y-108115914D01*
X127007191Y-108115914D02*
X127054810Y-108020676D01*
X127054810Y-108020676D02*
X127150048Y-107925438D01*
X127150048Y-107925438D02*
X127292905Y-107877819D01*
X127292905Y-107877819D02*
X127388143Y-107877819D01*
X127388143Y-107877819D02*
X127531000Y-107925438D01*
X127531000Y-107925438D02*
X127578619Y-107973057D01*
X128007191Y-108877819D02*
X128007191Y-107877819D01*
X128245286Y-108973057D02*
X129007190Y-108973057D01*
X129245286Y-108877819D02*
X129245286Y-107877819D01*
X129245286Y-107877819D02*
X129578619Y-108592104D01*
X129578619Y-108592104D02*
X129911952Y-107877819D01*
X129911952Y-107877819D02*
X129911952Y-108877819D01*
X130959571Y-108782580D02*
X130911952Y-108830200D01*
X130911952Y-108830200D02*
X130769095Y-108877819D01*
X130769095Y-108877819D02*
X130673857Y-108877819D01*
X130673857Y-108877819D02*
X130531000Y-108830200D01*
X130531000Y-108830200D02*
X130435762Y-108734961D01*
X130435762Y-108734961D02*
X130388143Y-108639723D01*
X130388143Y-108639723D02*
X130340524Y-108449247D01*
X130340524Y-108449247D02*
X130340524Y-108306390D01*
X130340524Y-108306390D02*
X130388143Y-108115914D01*
X130388143Y-108115914D02*
X130435762Y-108020676D01*
X130435762Y-108020676D02*
X130531000Y-107925438D01*
X130531000Y-107925438D02*
X130673857Y-107877819D01*
X130673857Y-107877819D02*
X130769095Y-107877819D01*
X130769095Y-107877819D02*
X130911952Y-107925438D01*
X130911952Y-107925438D02*
X130959571Y-107973057D01*
X117684018Y-95032262D02*
X117721514Y-94919776D01*
X117721514Y-94919776D02*
X117759009Y-94882280D01*
X117759009Y-94882280D02*
X117834000Y-94844785D01*
X117834000Y-94844785D02*
X117946486Y-94844785D01*
X117946486Y-94844785D02*
X118021476Y-94882280D01*
X118021476Y-94882280D02*
X118058972Y-94919776D01*
X118058972Y-94919776D02*
X118096467Y-94994766D01*
X118096467Y-94994766D02*
X118096467Y-95294729D01*
X118096467Y-95294729D02*
X117309065Y-95294729D01*
X117309065Y-95294729D02*
X117309065Y-95032262D01*
X117309065Y-95032262D02*
X117346560Y-94957271D01*
X117346560Y-94957271D02*
X117384056Y-94919776D01*
X117384056Y-94919776D02*
X117459046Y-94882280D01*
X117459046Y-94882280D02*
X117534037Y-94882280D01*
X117534037Y-94882280D02*
X117609028Y-94919776D01*
X117609028Y-94919776D02*
X117646523Y-94957271D01*
X117646523Y-94957271D02*
X117684018Y-95032262D01*
X117684018Y-95032262D02*
X117684018Y-95294729D01*
X118096467Y-94507327D02*
X117309065Y-94507327D01*
X117309065Y-94507327D02*
X117871495Y-94244860D01*
X117871495Y-94244860D02*
X117309065Y-93982392D01*
X117309065Y-93982392D02*
X118096467Y-93982392D01*
X118096467Y-93607439D02*
X117309065Y-93607439D01*
X117309065Y-93607439D02*
X117309065Y-93307476D01*
X117309065Y-93307476D02*
X117346560Y-93232486D01*
X117346560Y-93232486D02*
X117384056Y-93194990D01*
X117384056Y-93194990D02*
X117459046Y-93157495D01*
X117459046Y-93157495D02*
X117571532Y-93157495D01*
X117571532Y-93157495D02*
X117646523Y-93194990D01*
X117646523Y-93194990D02*
X117684018Y-93232486D01*
X117684018Y-93232486D02*
X117721514Y-93307476D01*
X117721514Y-93307476D02*
X117721514Y-93607439D01*
X117309065Y-92895028D02*
X117309065Y-92407588D01*
X117309065Y-92407588D02*
X117609028Y-92670056D01*
X117609028Y-92670056D02*
X117609028Y-92557570D01*
X117609028Y-92557570D02*
X117646523Y-92482579D01*
X117646523Y-92482579D02*
X117684018Y-92445084D01*
X117684018Y-92445084D02*
X117759009Y-92407588D01*
X117759009Y-92407588D02*
X117946486Y-92407588D01*
X117946486Y-92407588D02*
X118021476Y-92445084D01*
X118021476Y-92445084D02*
X118058972Y-92482579D01*
X118058972Y-92482579D02*
X118096467Y-92557570D01*
X118096467Y-92557570D02*
X118096467Y-92782542D01*
X118096467Y-92782542D02*
X118058972Y-92857532D01*
X118058972Y-92857532D02*
X118021476Y-92895028D01*
X118096467Y-92032635D02*
X118096467Y-91882653D01*
X118096467Y-91882653D02*
X118058972Y-91807663D01*
X118058972Y-91807663D02*
X118021476Y-91770167D01*
X118021476Y-91770167D02*
X117908990Y-91695177D01*
X117908990Y-91695177D02*
X117759009Y-91657681D01*
X117759009Y-91657681D02*
X117459046Y-91657681D01*
X117459046Y-91657681D02*
X117384056Y-91695177D01*
X117384056Y-91695177D02*
X117346560Y-91732672D01*
X117346560Y-91732672D02*
X117309065Y-91807663D01*
X117309065Y-91807663D02*
X117309065Y-91957644D01*
X117309065Y-91957644D02*
X117346560Y-92032635D01*
X117346560Y-92032635D02*
X117384056Y-92070130D01*
X117384056Y-92070130D02*
X117459046Y-92107625D01*
X117459046Y-92107625D02*
X117646523Y-92107625D01*
X117646523Y-92107625D02*
X117721514Y-92070130D01*
X117721514Y-92070130D02*
X117759009Y-92032635D01*
X117759009Y-92032635D02*
X117796504Y-91957644D01*
X117796504Y-91957644D02*
X117796504Y-91807663D01*
X117796504Y-91807663D02*
X117759009Y-91732672D01*
X117759009Y-91732672D02*
X117721514Y-91695177D01*
X117721514Y-91695177D02*
X117646523Y-91657681D01*
X117309065Y-91170242D02*
X117309065Y-91095251D01*
X117309065Y-91095251D02*
X117346560Y-91020260D01*
X117346560Y-91020260D02*
X117384056Y-90982765D01*
X117384056Y-90982765D02*
X117459046Y-90945270D01*
X117459046Y-90945270D02*
X117609028Y-90907774D01*
X117609028Y-90907774D02*
X117796504Y-90907774D01*
X117796504Y-90907774D02*
X117946486Y-90945270D01*
X117946486Y-90945270D02*
X118021476Y-90982765D01*
X118021476Y-90982765D02*
X118058972Y-91020260D01*
X118058972Y-91020260D02*
X118096467Y-91095251D01*
X118096467Y-91095251D02*
X118096467Y-91170242D01*
X118096467Y-91170242D02*
X118058972Y-91245232D01*
X118058972Y-91245232D02*
X118021476Y-91282728D01*
X118021476Y-91282728D02*
X117946486Y-91320223D01*
X117946486Y-91320223D02*
X117796504Y-91357718D01*
X117796504Y-91357718D02*
X117609028Y-91357718D01*
X117609028Y-91357718D02*
X117459046Y-91320223D01*
X117459046Y-91320223D02*
X117384056Y-91282728D01*
X117384056Y-91282728D02*
X117346560Y-91245232D01*
X117346560Y-91245232D02*
X117309065Y-91170242D01*
X116158152Y-105876190D02*
X116824819Y-105876190D01*
X115777200Y-106114285D02*
X116491485Y-106352380D01*
X116491485Y-106352380D02*
X116491485Y-105733333D01*
X116729580Y-105352380D02*
X116777200Y-105304761D01*
X116777200Y-105304761D02*
X116824819Y-105352380D01*
X116824819Y-105352380D02*
X116777200Y-105399999D01*
X116777200Y-105399999D02*
X116729580Y-105352380D01*
X116729580Y-105352380D02*
X116824819Y-105352380D01*
X115824819Y-104971428D02*
X115824819Y-104304762D01*
X115824819Y-104304762D02*
X116824819Y-104733333D01*
X116158152Y-103923809D02*
X117158152Y-103923809D01*
X116681961Y-103447619D02*
X116777200Y-103400000D01*
X116777200Y-103400000D02*
X116824819Y-103304762D01*
X116681961Y-103923809D02*
X116777200Y-103876190D01*
X116777200Y-103876190D02*
X116824819Y-103780952D01*
X116824819Y-103780952D02*
X116824819Y-103590476D01*
X116824819Y-103590476D02*
X116777200Y-103495238D01*
X116777200Y-103495238D02*
X116681961Y-103447619D01*
X116681961Y-103447619D02*
X116158152Y-103447619D01*
X116301009Y-102542857D02*
X116301009Y-102876190D01*
X116824819Y-102876190D02*
X115824819Y-102876190D01*
X115824819Y-102876190D02*
X115824819Y-102400000D01*
D13*
X118229530Y-104483333D02*
X118253340Y-104507142D01*
X118253340Y-104507142D02*
X118277149Y-104578571D01*
X118277149Y-104578571D02*
X118277149Y-104626190D01*
X118277149Y-104626190D02*
X118253340Y-104697618D01*
X118253340Y-104697618D02*
X118205720Y-104745237D01*
X118205720Y-104745237D02*
X118158101Y-104769047D01*
X118158101Y-104769047D02*
X118062863Y-104792856D01*
X118062863Y-104792856D02*
X117991435Y-104792856D01*
X117991435Y-104792856D02*
X117896197Y-104769047D01*
X117896197Y-104769047D02*
X117848578Y-104745237D01*
X117848578Y-104745237D02*
X117800959Y-104697618D01*
X117800959Y-104697618D02*
X117777149Y-104626190D01*
X117777149Y-104626190D02*
X117777149Y-104578571D01*
X117777149Y-104578571D02*
X117800959Y-104507142D01*
X117800959Y-104507142D02*
X117824768Y-104483333D01*
X117824768Y-104292856D02*
X117800959Y-104269047D01*
X117800959Y-104269047D02*
X117777149Y-104221428D01*
X117777149Y-104221428D02*
X117777149Y-104102380D01*
X117777149Y-104102380D02*
X117800959Y-104054761D01*
X117800959Y-104054761D02*
X117824768Y-104030952D01*
X117824768Y-104030952D02*
X117872387Y-104007142D01*
X117872387Y-104007142D02*
X117920006Y-104007142D01*
X117920006Y-104007142D02*
X117991435Y-104030952D01*
X117991435Y-104030952D02*
X118277149Y-104316666D01*
X118277149Y-104316666D02*
X118277149Y-104007142D01*
D10*
X115727380Y-102534819D02*
X115155952Y-102534819D01*
X115441666Y-102534819D02*
X115441666Y-101534819D01*
X115441666Y-101534819D02*
X115346428Y-101677676D01*
X115346428Y-101677676D02*
X115251190Y-101772914D01*
X115251190Y-101772914D02*
X115155952Y-101820533D01*
X116346428Y-101534819D02*
X116441666Y-101534819D01*
X116441666Y-101534819D02*
X116536904Y-101582438D01*
X116536904Y-101582438D02*
X116584523Y-101630057D01*
X116584523Y-101630057D02*
X116632142Y-101725295D01*
X116632142Y-101725295D02*
X116679761Y-101915771D01*
X116679761Y-101915771D02*
X116679761Y-102153866D01*
X116679761Y-102153866D02*
X116632142Y-102344342D01*
X116632142Y-102344342D02*
X116584523Y-102439580D01*
X116584523Y-102439580D02*
X116536904Y-102487200D01*
X116536904Y-102487200D02*
X116441666Y-102534819D01*
X116441666Y-102534819D02*
X116346428Y-102534819D01*
X116346428Y-102534819D02*
X116251190Y-102487200D01*
X116251190Y-102487200D02*
X116203571Y-102439580D01*
X116203571Y-102439580D02*
X116155952Y-102344342D01*
X116155952Y-102344342D02*
X116108333Y-102153866D01*
X116108333Y-102153866D02*
X116108333Y-101915771D01*
X116108333Y-101915771D02*
X116155952Y-101725295D01*
X116155952Y-101725295D02*
X116203571Y-101630057D01*
X116203571Y-101630057D02*
X116251190Y-101582438D01*
X116251190Y-101582438D02*
X116346428Y-101534819D01*
X117298809Y-101534819D02*
X117394047Y-101534819D01*
X117394047Y-101534819D02*
X117489285Y-101582438D01*
X117489285Y-101582438D02*
X117536904Y-101630057D01*
X117536904Y-101630057D02*
X117584523Y-101725295D01*
X117584523Y-101725295D02*
X117632142Y-101915771D01*
X117632142Y-101915771D02*
X117632142Y-102153866D01*
X117632142Y-102153866D02*
X117584523Y-102344342D01*
X117584523Y-102344342D02*
X117536904Y-102439580D01*
X117536904Y-102439580D02*
X117489285Y-102487200D01*
X117489285Y-102487200D02*
X117394047Y-102534819D01*
X117394047Y-102534819D02*
X117298809Y-102534819D01*
X117298809Y-102534819D02*
X117203571Y-102487200D01*
X117203571Y-102487200D02*
X117155952Y-102439580D01*
X117155952Y-102439580D02*
X117108333Y-102344342D01*
X117108333Y-102344342D02*
X117060714Y-102153866D01*
X117060714Y-102153866D02*
X117060714Y-101915771D01*
X117060714Y-101915771D02*
X117108333Y-101725295D01*
X117108333Y-101725295D02*
X117155952Y-101630057D01*
X117155952Y-101630057D02*
X117203571Y-101582438D01*
X117203571Y-101582438D02*
X117298809Y-101534819D01*
X118060714Y-101868152D02*
X118060714Y-102534819D01*
X118060714Y-101963390D02*
X118108333Y-101915771D01*
X118108333Y-101915771D02*
X118203571Y-101868152D01*
X118203571Y-101868152D02*
X118346428Y-101868152D01*
X118346428Y-101868152D02*
X118441666Y-101915771D01*
X118441666Y-101915771D02*
X118489285Y-102011009D01*
X118489285Y-102011009D02*
X118489285Y-102534819D01*
X119298809Y-102011009D02*
X118965476Y-102011009D01*
X118965476Y-102534819D02*
X118965476Y-101534819D01*
X118965476Y-101534819D02*
X119441666Y-101534819D01*
D11*
X117017857Y-100793832D02*
X116998809Y-100812880D01*
X116998809Y-100812880D02*
X116941667Y-100831927D01*
X116941667Y-100831927D02*
X116903571Y-100831927D01*
X116903571Y-100831927D02*
X116846428Y-100812880D01*
X116846428Y-100812880D02*
X116808333Y-100774784D01*
X116808333Y-100774784D02*
X116789286Y-100736689D01*
X116789286Y-100736689D02*
X116770238Y-100660499D01*
X116770238Y-100660499D02*
X116770238Y-100603356D01*
X116770238Y-100603356D02*
X116789286Y-100527165D01*
X116789286Y-100527165D02*
X116808333Y-100489070D01*
X116808333Y-100489070D02*
X116846428Y-100450975D01*
X116846428Y-100450975D02*
X116903571Y-100431927D01*
X116903571Y-100431927D02*
X116941667Y-100431927D01*
X116941667Y-100431927D02*
X116998809Y-100450975D01*
X116998809Y-100450975D02*
X117017857Y-100470022D01*
X117398809Y-100831927D02*
X117170238Y-100831927D01*
X117284524Y-100831927D02*
X117284524Y-100431927D01*
X117284524Y-100431927D02*
X117246428Y-100489070D01*
X117246428Y-100489070D02*
X117208333Y-100527165D01*
X117208333Y-100527165D02*
X117170238Y-100546213D01*
X117532142Y-100431927D02*
X117779761Y-100431927D01*
X117779761Y-100431927D02*
X117646428Y-100584308D01*
X117646428Y-100584308D02*
X117703571Y-100584308D01*
X117703571Y-100584308D02*
X117741666Y-100603356D01*
X117741666Y-100603356D02*
X117760714Y-100622403D01*
X117760714Y-100622403D02*
X117779761Y-100660499D01*
X117779761Y-100660499D02*
X117779761Y-100755737D01*
X117779761Y-100755737D02*
X117760714Y-100793832D01*
X117760714Y-100793832D02*
X117741666Y-100812880D01*
X117741666Y-100812880D02*
X117703571Y-100831927D01*
X117703571Y-100831927D02*
X117589285Y-100831927D01*
X117589285Y-100831927D02*
X117551190Y-100812880D01*
X117551190Y-100812880D02*
X117532142Y-100793832D01*
D10*
X121149819Y-122397619D02*
X121149819Y-122969047D01*
X121149819Y-122683333D02*
X120149819Y-122683333D01*
X120149819Y-122683333D02*
X120292676Y-122778571D01*
X120292676Y-122778571D02*
X120387914Y-122873809D01*
X120387914Y-122873809D02*
X120435533Y-122969047D01*
X120149819Y-121778571D02*
X120149819Y-121683333D01*
X120149819Y-121683333D02*
X120197438Y-121588095D01*
X120197438Y-121588095D02*
X120245057Y-121540476D01*
X120245057Y-121540476D02*
X120340295Y-121492857D01*
X120340295Y-121492857D02*
X120530771Y-121445238D01*
X120530771Y-121445238D02*
X120768866Y-121445238D01*
X120768866Y-121445238D02*
X120959342Y-121492857D01*
X120959342Y-121492857D02*
X121054580Y-121540476D01*
X121054580Y-121540476D02*
X121102200Y-121588095D01*
X121102200Y-121588095D02*
X121149819Y-121683333D01*
X121149819Y-121683333D02*
X121149819Y-121778571D01*
X121149819Y-121778571D02*
X121102200Y-121873809D01*
X121102200Y-121873809D02*
X121054580Y-121921428D01*
X121054580Y-121921428D02*
X120959342Y-121969047D01*
X120959342Y-121969047D02*
X120768866Y-122016666D01*
X120768866Y-122016666D02*
X120530771Y-122016666D01*
X120530771Y-122016666D02*
X120340295Y-121969047D01*
X120340295Y-121969047D02*
X120245057Y-121921428D01*
X120245057Y-121921428D02*
X120197438Y-121873809D01*
X120197438Y-121873809D02*
X120149819Y-121778571D01*
X120149819Y-120826190D02*
X120149819Y-120730952D01*
X120149819Y-120730952D02*
X120197438Y-120635714D01*
X120197438Y-120635714D02*
X120245057Y-120588095D01*
X120245057Y-120588095D02*
X120340295Y-120540476D01*
X120340295Y-120540476D02*
X120530771Y-120492857D01*
X120530771Y-120492857D02*
X120768866Y-120492857D01*
X120768866Y-120492857D02*
X120959342Y-120540476D01*
X120959342Y-120540476D02*
X121054580Y-120588095D01*
X121054580Y-120588095D02*
X121102200Y-120635714D01*
X121102200Y-120635714D02*
X121149819Y-120730952D01*
X121149819Y-120730952D02*
X121149819Y-120826190D01*
X121149819Y-120826190D02*
X121102200Y-120921428D01*
X121102200Y-120921428D02*
X121054580Y-120969047D01*
X121054580Y-120969047D02*
X120959342Y-121016666D01*
X120959342Y-121016666D02*
X120768866Y-121064285D01*
X120768866Y-121064285D02*
X120530771Y-121064285D01*
X120530771Y-121064285D02*
X120340295Y-121016666D01*
X120340295Y-121016666D02*
X120245057Y-120969047D01*
X120245057Y-120969047D02*
X120197438Y-120921428D01*
X120197438Y-120921428D02*
X120149819Y-120826190D01*
X120483152Y-120064285D02*
X121149819Y-120064285D01*
X120578390Y-120064285D02*
X120530771Y-120016666D01*
X120530771Y-120016666D02*
X120483152Y-119921428D01*
X120483152Y-119921428D02*
X120483152Y-119778571D01*
X120483152Y-119778571D02*
X120530771Y-119683333D01*
X120530771Y-119683333D02*
X120626009Y-119635714D01*
X120626009Y-119635714D02*
X121149819Y-119635714D01*
X120626009Y-118826190D02*
X120626009Y-119159523D01*
X121149819Y-119159523D02*
X120149819Y-119159523D01*
X120149819Y-119159523D02*
X120149819Y-118683333D01*
D11*
X122218832Y-121016666D02*
X122237880Y-121035714D01*
X122237880Y-121035714D02*
X122256927Y-121092856D01*
X122256927Y-121092856D02*
X122256927Y-121130952D01*
X122256927Y-121130952D02*
X122237880Y-121188095D01*
X122237880Y-121188095D02*
X122199784Y-121226190D01*
X122199784Y-121226190D02*
X122161689Y-121245237D01*
X122161689Y-121245237D02*
X122085499Y-121264285D01*
X122085499Y-121264285D02*
X122028356Y-121264285D01*
X122028356Y-121264285D02*
X121952165Y-121245237D01*
X121952165Y-121245237D02*
X121914070Y-121226190D01*
X121914070Y-121226190D02*
X121875975Y-121188095D01*
X121875975Y-121188095D02*
X121856927Y-121130952D01*
X121856927Y-121130952D02*
X121856927Y-121092856D01*
X121856927Y-121092856D02*
X121875975Y-121035714D01*
X121875975Y-121035714D02*
X121895022Y-121016666D01*
X121856927Y-120654761D02*
X121856927Y-120845237D01*
X121856927Y-120845237D02*
X122047403Y-120864285D01*
X122047403Y-120864285D02*
X122028356Y-120845237D01*
X122028356Y-120845237D02*
X122009308Y-120807142D01*
X122009308Y-120807142D02*
X122009308Y-120711904D01*
X122009308Y-120711904D02*
X122028356Y-120673809D01*
X122028356Y-120673809D02*
X122047403Y-120654761D01*
X122047403Y-120654761D02*
X122085499Y-120635714D01*
X122085499Y-120635714D02*
X122180737Y-120635714D01*
X122180737Y-120635714D02*
X122218832Y-120654761D01*
X122218832Y-120654761D02*
X122237880Y-120673809D01*
X122237880Y-120673809D02*
X122256927Y-120711904D01*
X122256927Y-120711904D02*
X122256927Y-120807142D01*
X122256927Y-120807142D02*
X122237880Y-120845237D01*
X122237880Y-120845237D02*
X122218832Y-120864285D01*
D10*
X124377200Y-114154761D02*
X124424819Y-114011904D01*
X124424819Y-114011904D02*
X124424819Y-113773809D01*
X124424819Y-113773809D02*
X124377200Y-113678571D01*
X124377200Y-113678571D02*
X124329580Y-113630952D01*
X124329580Y-113630952D02*
X124234342Y-113583333D01*
X124234342Y-113583333D02*
X124139104Y-113583333D01*
X124139104Y-113583333D02*
X124043866Y-113630952D01*
X124043866Y-113630952D02*
X123996247Y-113678571D01*
X123996247Y-113678571D02*
X123948628Y-113773809D01*
X123948628Y-113773809D02*
X123901009Y-113964285D01*
X123901009Y-113964285D02*
X123853390Y-114059523D01*
X123853390Y-114059523D02*
X123805771Y-114107142D01*
X123805771Y-114107142D02*
X123710533Y-114154761D01*
X123710533Y-114154761D02*
X123615295Y-114154761D01*
X123615295Y-114154761D02*
X123520057Y-114107142D01*
X123520057Y-114107142D02*
X123472438Y-114059523D01*
X123472438Y-114059523D02*
X123424819Y-113964285D01*
X123424819Y-113964285D02*
X123424819Y-113726190D01*
X123424819Y-113726190D02*
X123472438Y-113583333D01*
X123424819Y-113297618D02*
X123424819Y-112726190D01*
X124424819Y-113011904D02*
X123424819Y-113011904D01*
X124424819Y-112392856D02*
X123424819Y-112392856D01*
X123424819Y-112392856D02*
X124139104Y-112059523D01*
X124139104Y-112059523D02*
X123424819Y-111726190D01*
X123424819Y-111726190D02*
X124424819Y-111726190D01*
X123424819Y-111345237D02*
X123424819Y-110726190D01*
X123424819Y-110726190D02*
X123805771Y-111059523D01*
X123805771Y-111059523D02*
X123805771Y-110916666D01*
X123805771Y-110916666D02*
X123853390Y-110821428D01*
X123853390Y-110821428D02*
X123901009Y-110773809D01*
X123901009Y-110773809D02*
X123996247Y-110726190D01*
X123996247Y-110726190D02*
X124234342Y-110726190D01*
X124234342Y-110726190D02*
X124329580Y-110773809D01*
X124329580Y-110773809D02*
X124377200Y-110821428D01*
X124377200Y-110821428D02*
X124424819Y-110916666D01*
X124424819Y-110916666D02*
X124424819Y-111202380D01*
X124424819Y-111202380D02*
X124377200Y-111297618D01*
X124377200Y-111297618D02*
X124329580Y-111345237D01*
X123520057Y-110345237D02*
X123472438Y-110297618D01*
X123472438Y-110297618D02*
X123424819Y-110202380D01*
X123424819Y-110202380D02*
X123424819Y-109964285D01*
X123424819Y-109964285D02*
X123472438Y-109869047D01*
X123472438Y-109869047D02*
X123520057Y-109821428D01*
X123520057Y-109821428D02*
X123615295Y-109773809D01*
X123615295Y-109773809D02*
X123710533Y-109773809D01*
X123710533Y-109773809D02*
X123853390Y-109821428D01*
X123853390Y-109821428D02*
X124424819Y-110392856D01*
X124424819Y-110392856D02*
X124424819Y-109773809D01*
X123472438Y-108821428D02*
X123424819Y-108916666D01*
X123424819Y-108916666D02*
X123424819Y-109059523D01*
X123424819Y-109059523D02*
X123472438Y-109202380D01*
X123472438Y-109202380D02*
X123567676Y-109297618D01*
X123567676Y-109297618D02*
X123662914Y-109345237D01*
X123662914Y-109345237D02*
X123853390Y-109392856D01*
X123853390Y-109392856D02*
X123996247Y-109392856D01*
X123996247Y-109392856D02*
X124186723Y-109345237D01*
X124186723Y-109345237D02*
X124281961Y-109297618D01*
X124281961Y-109297618D02*
X124377200Y-109202380D01*
X124377200Y-109202380D02*
X124424819Y-109059523D01*
X124424819Y-109059523D02*
X124424819Y-108964285D01*
X124424819Y-108964285D02*
X124377200Y-108821428D01*
X124377200Y-108821428D02*
X124329580Y-108773809D01*
X124329580Y-108773809D02*
X123996247Y-108773809D01*
X123996247Y-108773809D02*
X123996247Y-108964285D01*
X123424819Y-108154761D02*
X123424819Y-108059523D01*
X123424819Y-108059523D02*
X123472438Y-107964285D01*
X123472438Y-107964285D02*
X123520057Y-107916666D01*
X123520057Y-107916666D02*
X123615295Y-107869047D01*
X123615295Y-107869047D02*
X123805771Y-107821428D01*
X123805771Y-107821428D02*
X124043866Y-107821428D01*
X124043866Y-107821428D02*
X124234342Y-107869047D01*
X124234342Y-107869047D02*
X124329580Y-107916666D01*
X124329580Y-107916666D02*
X124377200Y-107964285D01*
X124377200Y-107964285D02*
X124424819Y-108059523D01*
X124424819Y-108059523D02*
X124424819Y-108154761D01*
X124424819Y-108154761D02*
X124377200Y-108249999D01*
X124377200Y-108249999D02*
X124329580Y-108297618D01*
X124329580Y-108297618D02*
X124234342Y-108345237D01*
X124234342Y-108345237D02*
X124043866Y-108392856D01*
X124043866Y-108392856D02*
X123805771Y-108392856D01*
X123805771Y-108392856D02*
X123615295Y-108345237D01*
X123615295Y-108345237D02*
X123520057Y-108297618D01*
X123520057Y-108297618D02*
X123472438Y-108249999D01*
X123472438Y-108249999D02*
X123424819Y-108154761D01*
X123424819Y-107488094D02*
X123424819Y-106821428D01*
X123424819Y-106821428D02*
X124424819Y-107249999D01*
X124424819Y-105916666D02*
X124424819Y-106488094D01*
X124424819Y-106202380D02*
X123424819Y-106202380D01*
X123424819Y-106202380D02*
X123567676Y-106297618D01*
X123567676Y-106297618D02*
X123662914Y-106392856D01*
X123662914Y-106392856D02*
X123710533Y-106488094D01*
X124424819Y-105488094D02*
X123424819Y-105488094D01*
X124424819Y-104916666D02*
X123853390Y-105345237D01*
X123424819Y-104916666D02*
X123996247Y-105488094D01*
X123853390Y-104345237D02*
X123805771Y-104440475D01*
X123805771Y-104440475D02*
X123758152Y-104488094D01*
X123758152Y-104488094D02*
X123662914Y-104535713D01*
X123662914Y-104535713D02*
X123615295Y-104535713D01*
X123615295Y-104535713D02*
X123520057Y-104488094D01*
X123520057Y-104488094D02*
X123472438Y-104440475D01*
X123472438Y-104440475D02*
X123424819Y-104345237D01*
X123424819Y-104345237D02*
X123424819Y-104154761D01*
X123424819Y-104154761D02*
X123472438Y-104059523D01*
X123472438Y-104059523D02*
X123520057Y-104011904D01*
X123520057Y-104011904D02*
X123615295Y-103964285D01*
X123615295Y-103964285D02*
X123662914Y-103964285D01*
X123662914Y-103964285D02*
X123758152Y-104011904D01*
X123758152Y-104011904D02*
X123805771Y-104059523D01*
X123805771Y-104059523D02*
X123853390Y-104154761D01*
X123853390Y-104154761D02*
X123853390Y-104345237D01*
X123853390Y-104345237D02*
X123901009Y-104440475D01*
X123901009Y-104440475D02*
X123948628Y-104488094D01*
X123948628Y-104488094D02*
X124043866Y-104535713D01*
X124043866Y-104535713D02*
X124234342Y-104535713D01*
X124234342Y-104535713D02*
X124329580Y-104488094D01*
X124329580Y-104488094D02*
X124377200Y-104440475D01*
X124377200Y-104440475D02*
X124424819Y-104345237D01*
X124424819Y-104345237D02*
X124424819Y-104154761D01*
X124424819Y-104154761D02*
X124377200Y-104059523D01*
X124377200Y-104059523D02*
X124329580Y-104011904D01*
X124329580Y-104011904D02*
X124234342Y-103964285D01*
X124234342Y-103964285D02*
X124043866Y-103964285D01*
X124043866Y-103964285D02*
X123948628Y-104011904D01*
X123948628Y-104011904D02*
X123901009Y-104059523D01*
X123901009Y-104059523D02*
X123853390Y-104154761D01*
X123424819Y-103678570D02*
X123424819Y-103107142D01*
X124424819Y-103392856D02*
X123424819Y-103392856D01*
X124424819Y-102869046D02*
X123758152Y-102345237D01*
X123758152Y-102869046D02*
X124424819Y-102345237D01*
X124424819Y-101964284D02*
X123424819Y-101964284D01*
X123424819Y-101964284D02*
X124424819Y-101392856D01*
X124424819Y-101392856D02*
X123424819Y-101392856D01*
X129304819Y-108511904D02*
X130114342Y-108511904D01*
X130114342Y-108511904D02*
X130209580Y-108464285D01*
X130209580Y-108464285D02*
X130257200Y-108416666D01*
X130257200Y-108416666D02*
X130304819Y-108321428D01*
X130304819Y-108321428D02*
X130304819Y-108130952D01*
X130304819Y-108130952D02*
X130257200Y-108035714D01*
X130257200Y-108035714D02*
X130209580Y-107988095D01*
X130209580Y-107988095D02*
X130114342Y-107940476D01*
X130114342Y-107940476D02*
X129304819Y-107940476D01*
X129400057Y-107511904D02*
X129352438Y-107464285D01*
X129352438Y-107464285D02*
X129304819Y-107369047D01*
X129304819Y-107369047D02*
X129304819Y-107130952D01*
X129304819Y-107130952D02*
X129352438Y-107035714D01*
X129352438Y-107035714D02*
X129400057Y-106988095D01*
X129400057Y-106988095D02*
X129495295Y-106940476D01*
X129495295Y-106940476D02*
X129590533Y-106940476D01*
X129590533Y-106940476D02*
X129733390Y-106988095D01*
X129733390Y-106988095D02*
X130304819Y-107559523D01*
X130304819Y-107559523D02*
X130304819Y-106940476D01*
X122360694Y-117904376D02*
X122360694Y-118422471D01*
X122360694Y-118422471D02*
X122391171Y-118483423D01*
X122391171Y-118483423D02*
X122421647Y-118513900D01*
X122421647Y-118513900D02*
X122482599Y-118544376D01*
X122482599Y-118544376D02*
X122604504Y-118544376D01*
X122604504Y-118544376D02*
X122665456Y-118513900D01*
X122665456Y-118513900D02*
X122695933Y-118483423D01*
X122695933Y-118483423D02*
X122726409Y-118422471D01*
X122726409Y-118422471D02*
X122726409Y-117904376D01*
X123000694Y-118513900D02*
X123092123Y-118544376D01*
X123092123Y-118544376D02*
X123244504Y-118544376D01*
X123244504Y-118544376D02*
X123305456Y-118513900D01*
X123305456Y-118513900D02*
X123335932Y-118483423D01*
X123335932Y-118483423D02*
X123366409Y-118422471D01*
X123366409Y-118422471D02*
X123366409Y-118361519D01*
X123366409Y-118361519D02*
X123335932Y-118300566D01*
X123335932Y-118300566D02*
X123305456Y-118270090D01*
X123305456Y-118270090D02*
X123244504Y-118239614D01*
X123244504Y-118239614D02*
X123122599Y-118209138D01*
X123122599Y-118209138D02*
X123061647Y-118178661D01*
X123061647Y-118178661D02*
X123031170Y-118148185D01*
X123031170Y-118148185D02*
X123000694Y-118087233D01*
X123000694Y-118087233D02*
X123000694Y-118026280D01*
X123000694Y-118026280D02*
X123031170Y-117965328D01*
X123031170Y-117965328D02*
X123061647Y-117934852D01*
X123061647Y-117934852D02*
X123122599Y-117904376D01*
X123122599Y-117904376D02*
X123274980Y-117904376D01*
X123274980Y-117904376D02*
X123366409Y-117934852D01*
X123854028Y-118209138D02*
X123945456Y-118239614D01*
X123945456Y-118239614D02*
X123975933Y-118270090D01*
X123975933Y-118270090D02*
X124006409Y-118331042D01*
X124006409Y-118331042D02*
X124006409Y-118422471D01*
X124006409Y-118422471D02*
X123975933Y-118483423D01*
X123975933Y-118483423D02*
X123945456Y-118513900D01*
X123945456Y-118513900D02*
X123884504Y-118544376D01*
X123884504Y-118544376D02*
X123640694Y-118544376D01*
X123640694Y-118544376D02*
X123640694Y-117904376D01*
X123640694Y-117904376D02*
X123854028Y-117904376D01*
X123854028Y-117904376D02*
X123914980Y-117934852D01*
X123914980Y-117934852D02*
X123945456Y-117965328D01*
X123945456Y-117965328D02*
X123975933Y-118026280D01*
X123975933Y-118026280D02*
X123975933Y-118087233D01*
X123975933Y-118087233D02*
X123945456Y-118148185D01*
X123945456Y-118148185D02*
X123914980Y-118178661D01*
X123914980Y-118178661D02*
X123854028Y-118209138D01*
X123854028Y-118209138D02*
X123640694Y-118209138D01*
X124585456Y-118544376D02*
X124280694Y-118544376D01*
X124280694Y-118544376D02*
X124280694Y-117904376D01*
X125164504Y-118483423D02*
X125134028Y-118513900D01*
X125134028Y-118513900D02*
X125042599Y-118544376D01*
X125042599Y-118544376D02*
X124981647Y-118544376D01*
X124981647Y-118544376D02*
X124890218Y-118513900D01*
X124890218Y-118513900D02*
X124829266Y-118452947D01*
X124829266Y-118452947D02*
X124798789Y-118391995D01*
X124798789Y-118391995D02*
X124768313Y-118270090D01*
X124768313Y-118270090D02*
X124768313Y-118178661D01*
X124768313Y-118178661D02*
X124798789Y-118056757D01*
X124798789Y-118056757D02*
X124829266Y-117995804D01*
X124829266Y-117995804D02*
X124890218Y-117934852D01*
X124890218Y-117934852D02*
X124981647Y-117904376D01*
X124981647Y-117904376D02*
X125042599Y-117904376D01*
X125042599Y-117904376D02*
X125134028Y-117934852D01*
X125134028Y-117934852D02*
X125164504Y-117965328D01*
X125713075Y-117904376D02*
X125591170Y-117904376D01*
X125591170Y-117904376D02*
X125530218Y-117934852D01*
X125530218Y-117934852D02*
X125499742Y-117965328D01*
X125499742Y-117965328D02*
X125438789Y-118056757D01*
X125438789Y-118056757D02*
X125408313Y-118178661D01*
X125408313Y-118178661D02*
X125408313Y-118422471D01*
X125408313Y-118422471D02*
X125438789Y-118483423D01*
X125438789Y-118483423D02*
X125469266Y-118513900D01*
X125469266Y-118513900D02*
X125530218Y-118544376D01*
X125530218Y-118544376D02*
X125652123Y-118544376D01*
X125652123Y-118544376D02*
X125713075Y-118513900D01*
X125713075Y-118513900D02*
X125743551Y-118483423D01*
X125743551Y-118483423D02*
X125774028Y-118422471D01*
X125774028Y-118422471D02*
X125774028Y-118270090D01*
X125774028Y-118270090D02*
X125743551Y-118209138D01*
X125743551Y-118209138D02*
X125713075Y-118178661D01*
X125713075Y-118178661D02*
X125652123Y-118148185D01*
X125652123Y-118148185D02*
X125530218Y-118148185D01*
X125530218Y-118148185D02*
X125469266Y-118178661D01*
X125469266Y-118178661D02*
X125438789Y-118209138D01*
X125438789Y-118209138D02*
X125408313Y-118270090D01*
X126048313Y-118300566D02*
X126535933Y-118300566D01*
X126810218Y-117965328D02*
X126840694Y-117934852D01*
X126840694Y-117934852D02*
X126901647Y-117904376D01*
X126901647Y-117904376D02*
X127054028Y-117904376D01*
X127054028Y-117904376D02*
X127114980Y-117934852D01*
X127114980Y-117934852D02*
X127145456Y-117965328D01*
X127145456Y-117965328D02*
X127175933Y-118026280D01*
X127175933Y-118026280D02*
X127175933Y-118087233D01*
X127175933Y-118087233D02*
X127145456Y-118178661D01*
X127145456Y-118178661D02*
X126779742Y-118544376D01*
X126779742Y-118544376D02*
X127175933Y-118544376D01*
X127419742Y-118513900D02*
X127511171Y-118544376D01*
X127511171Y-118544376D02*
X127663552Y-118544376D01*
X127663552Y-118544376D02*
X127724504Y-118513900D01*
X127724504Y-118513900D02*
X127754980Y-118483423D01*
X127754980Y-118483423D02*
X127785457Y-118422471D01*
X127785457Y-118422471D02*
X127785457Y-118361519D01*
X127785457Y-118361519D02*
X127754980Y-118300566D01*
X127754980Y-118300566D02*
X127724504Y-118270090D01*
X127724504Y-118270090D02*
X127663552Y-118239614D01*
X127663552Y-118239614D02*
X127541647Y-118209138D01*
X127541647Y-118209138D02*
X127480695Y-118178661D01*
X127480695Y-118178661D02*
X127450218Y-118148185D01*
X127450218Y-118148185D02*
X127419742Y-118087233D01*
X127419742Y-118087233D02*
X127419742Y-118026280D01*
X127419742Y-118026280D02*
X127450218Y-117965328D01*
X127450218Y-117965328D02*
X127480695Y-117934852D01*
X127480695Y-117934852D02*
X127541647Y-117904376D01*
X127541647Y-117904376D02*
X127694028Y-117904376D01*
X127694028Y-117904376D02*
X127785457Y-117934852D01*
X128425457Y-118483423D02*
X128394981Y-118513900D01*
X128394981Y-118513900D02*
X128303552Y-118544376D01*
X128303552Y-118544376D02*
X128242600Y-118544376D01*
X128242600Y-118544376D02*
X128151171Y-118513900D01*
X128151171Y-118513900D02*
X128090219Y-118452947D01*
X128090219Y-118452947D02*
X128059742Y-118391995D01*
X128059742Y-118391995D02*
X128029266Y-118270090D01*
X128029266Y-118270090D02*
X128029266Y-118178661D01*
X128029266Y-118178661D02*
X128059742Y-118056757D01*
X128059742Y-118056757D02*
X128090219Y-117995804D01*
X128090219Y-117995804D02*
X128151171Y-117934852D01*
X128151171Y-117934852D02*
X128242600Y-117904376D01*
X128242600Y-117904376D02*
X128303552Y-117904376D01*
X128303552Y-117904376D02*
X128394981Y-117934852D01*
X128394981Y-117934852D02*
X128425457Y-117965328D01*
X128974028Y-117904376D02*
X128852123Y-117904376D01*
X128852123Y-117904376D02*
X128791171Y-117934852D01*
X128791171Y-117934852D02*
X128760695Y-117965328D01*
X128760695Y-117965328D02*
X128699742Y-118056757D01*
X128699742Y-118056757D02*
X128669266Y-118178661D01*
X128669266Y-118178661D02*
X128669266Y-118422471D01*
X128669266Y-118422471D02*
X128699742Y-118483423D01*
X128699742Y-118483423D02*
X128730219Y-118513900D01*
X128730219Y-118513900D02*
X128791171Y-118544376D01*
X128791171Y-118544376D02*
X128913076Y-118544376D01*
X128913076Y-118544376D02*
X128974028Y-118513900D01*
X128974028Y-118513900D02*
X129004504Y-118483423D01*
X129004504Y-118483423D02*
X129034981Y-118422471D01*
X129034981Y-118422471D02*
X129034981Y-118270090D01*
X129034981Y-118270090D02*
X129004504Y-118209138D01*
X129004504Y-118209138D02*
X128974028Y-118178661D01*
X128974028Y-118178661D02*
X128913076Y-118148185D01*
X128913076Y-118148185D02*
X128791171Y-118148185D01*
X128791171Y-118148185D02*
X128730219Y-118178661D01*
X128730219Y-118178661D02*
X128699742Y-118209138D01*
X128699742Y-118209138D02*
X128669266Y-118270090D01*
X120118152Y-109949999D02*
X120784819Y-109949999D01*
X119737200Y-110188094D02*
X120451485Y-110426189D01*
X120451485Y-110426189D02*
X120451485Y-109807142D01*
X120689580Y-109426189D02*
X120737200Y-109378570D01*
X120737200Y-109378570D02*
X120784819Y-109426189D01*
X120784819Y-109426189D02*
X120737200Y-109473808D01*
X120737200Y-109473808D02*
X120689580Y-109426189D01*
X120689580Y-109426189D02*
X120784819Y-109426189D01*
X119784819Y-109045237D02*
X119784819Y-108378571D01*
X119784819Y-108378571D02*
X120784819Y-108807142D01*
X120784819Y-107997618D02*
X119784819Y-107997618D01*
X120403866Y-107902380D02*
X120784819Y-107616666D01*
X120118152Y-107616666D02*
X120499104Y-107997618D01*
X120784819Y-107235713D02*
X120784819Y-106997618D01*
X120784819Y-106997618D02*
X120594342Y-106997618D01*
X120594342Y-106997618D02*
X120546723Y-107092856D01*
X120546723Y-107092856D02*
X120451485Y-107188094D01*
X120451485Y-107188094D02*
X120308628Y-107235713D01*
X120308628Y-107235713D02*
X120070533Y-107235713D01*
X120070533Y-107235713D02*
X119927676Y-107188094D01*
X119927676Y-107188094D02*
X119832438Y-107092856D01*
X119832438Y-107092856D02*
X119784819Y-106949999D01*
X119784819Y-106949999D02*
X119784819Y-106759523D01*
X119784819Y-106759523D02*
X119832438Y-106616666D01*
X119832438Y-106616666D02*
X119927676Y-106521428D01*
X119927676Y-106521428D02*
X120070533Y-106473809D01*
X120070533Y-106473809D02*
X120308628Y-106473809D01*
X120308628Y-106473809D02*
X120451485Y-106521428D01*
X120451485Y-106521428D02*
X120546723Y-106616666D01*
X120546723Y-106616666D02*
X120594342Y-106711904D01*
X120594342Y-106711904D02*
X120784819Y-106711904D01*
X120784819Y-106711904D02*
X120784819Y-106473809D01*
D11*
X119081927Y-108516666D02*
X118891451Y-108649999D01*
X119081927Y-108745237D02*
X118681927Y-108745237D01*
X118681927Y-108745237D02*
X118681927Y-108592856D01*
X118681927Y-108592856D02*
X118700975Y-108554761D01*
X118700975Y-108554761D02*
X118720022Y-108535714D01*
X118720022Y-108535714D02*
X118758118Y-108516666D01*
X118758118Y-108516666D02*
X118815260Y-108516666D01*
X118815260Y-108516666D02*
X118853356Y-108535714D01*
X118853356Y-108535714D02*
X118872403Y-108554761D01*
X118872403Y-108554761D02*
X118891451Y-108592856D01*
X118891451Y-108592856D02*
X118891451Y-108745237D01*
X118681927Y-108173809D02*
X118681927Y-108249999D01*
X118681927Y-108249999D02*
X118700975Y-108288095D01*
X118700975Y-108288095D02*
X118720022Y-108307142D01*
X118720022Y-108307142D02*
X118777165Y-108345237D01*
X118777165Y-108345237D02*
X118853356Y-108364285D01*
X118853356Y-108364285D02*
X119005737Y-108364285D01*
X119005737Y-108364285D02*
X119043832Y-108345237D01*
X119043832Y-108345237D02*
X119062880Y-108326190D01*
X119062880Y-108326190D02*
X119081927Y-108288095D01*
X119081927Y-108288095D02*
X119081927Y-108211904D01*
X119081927Y-108211904D02*
X119062880Y-108173809D01*
X119062880Y-108173809D02*
X119043832Y-108154761D01*
X119043832Y-108154761D02*
X119005737Y-108135714D01*
X119005737Y-108135714D02*
X118910499Y-108135714D01*
X118910499Y-108135714D02*
X118872403Y-108154761D01*
X118872403Y-108154761D02*
X118853356Y-108173809D01*
X118853356Y-108173809D02*
X118834308Y-108211904D01*
X118834308Y-108211904D02*
X118834308Y-108288095D01*
X118834308Y-108288095D02*
X118853356Y-108326190D01*
X118853356Y-108326190D02*
X118872403Y-108345237D01*
X118872403Y-108345237D02*
X118910499Y-108364285D01*
D10*
X117227380Y-113999819D02*
X116655952Y-113999819D01*
X116941666Y-113999819D02*
X116941666Y-112999819D01*
X116941666Y-112999819D02*
X116846428Y-113142676D01*
X116846428Y-113142676D02*
X116751190Y-113237914D01*
X116751190Y-113237914D02*
X116655952Y-113285533D01*
X117846428Y-112999819D02*
X117941666Y-112999819D01*
X117941666Y-112999819D02*
X118036904Y-113047438D01*
X118036904Y-113047438D02*
X118084523Y-113095057D01*
X118084523Y-113095057D02*
X118132142Y-113190295D01*
X118132142Y-113190295D02*
X118179761Y-113380771D01*
X118179761Y-113380771D02*
X118179761Y-113618866D01*
X118179761Y-113618866D02*
X118132142Y-113809342D01*
X118132142Y-113809342D02*
X118084523Y-113904580D01*
X118084523Y-113904580D02*
X118036904Y-113952200D01*
X118036904Y-113952200D02*
X117941666Y-113999819D01*
X117941666Y-113999819D02*
X117846428Y-113999819D01*
X117846428Y-113999819D02*
X117751190Y-113952200D01*
X117751190Y-113952200D02*
X117703571Y-113904580D01*
X117703571Y-113904580D02*
X117655952Y-113809342D01*
X117655952Y-113809342D02*
X117608333Y-113618866D01*
X117608333Y-113618866D02*
X117608333Y-113380771D01*
X117608333Y-113380771D02*
X117655952Y-113190295D01*
X117655952Y-113190295D02*
X117703571Y-113095057D01*
X117703571Y-113095057D02*
X117751190Y-113047438D01*
X117751190Y-113047438D02*
X117846428Y-112999819D01*
X118798809Y-112999819D02*
X118894047Y-112999819D01*
X118894047Y-112999819D02*
X118989285Y-113047438D01*
X118989285Y-113047438D02*
X119036904Y-113095057D01*
X119036904Y-113095057D02*
X119084523Y-113190295D01*
X119084523Y-113190295D02*
X119132142Y-113380771D01*
X119132142Y-113380771D02*
X119132142Y-113618866D01*
X119132142Y-113618866D02*
X119084523Y-113809342D01*
X119084523Y-113809342D02*
X119036904Y-113904580D01*
X119036904Y-113904580D02*
X118989285Y-113952200D01*
X118989285Y-113952200D02*
X118894047Y-113999819D01*
X118894047Y-113999819D02*
X118798809Y-113999819D01*
X118798809Y-113999819D02*
X118703571Y-113952200D01*
X118703571Y-113952200D02*
X118655952Y-113904580D01*
X118655952Y-113904580D02*
X118608333Y-113809342D01*
X118608333Y-113809342D02*
X118560714Y-113618866D01*
X118560714Y-113618866D02*
X118560714Y-113380771D01*
X118560714Y-113380771D02*
X118608333Y-113190295D01*
X118608333Y-113190295D02*
X118655952Y-113095057D01*
X118655952Y-113095057D02*
X118703571Y-113047438D01*
X118703571Y-113047438D02*
X118798809Y-112999819D01*
X119560714Y-113333152D02*
X119560714Y-113999819D01*
X119560714Y-113428390D02*
X119608333Y-113380771D01*
X119608333Y-113380771D02*
X119703571Y-113333152D01*
X119703571Y-113333152D02*
X119846428Y-113333152D01*
X119846428Y-113333152D02*
X119941666Y-113380771D01*
X119941666Y-113380771D02*
X119989285Y-113476009D01*
X119989285Y-113476009D02*
X119989285Y-113999819D01*
X120798809Y-113476009D02*
X120465476Y-113476009D01*
X120465476Y-113999819D02*
X120465476Y-112999819D01*
X120465476Y-112999819D02*
X120941666Y-112999819D01*
D11*
X118517857Y-115118832D02*
X118498809Y-115137880D01*
X118498809Y-115137880D02*
X118441667Y-115156927D01*
X118441667Y-115156927D02*
X118403571Y-115156927D01*
X118403571Y-115156927D02*
X118346428Y-115137880D01*
X118346428Y-115137880D02*
X118308333Y-115099784D01*
X118308333Y-115099784D02*
X118289286Y-115061689D01*
X118289286Y-115061689D02*
X118270238Y-114985499D01*
X118270238Y-114985499D02*
X118270238Y-114928356D01*
X118270238Y-114928356D02*
X118289286Y-114852165D01*
X118289286Y-114852165D02*
X118308333Y-114814070D01*
X118308333Y-114814070D02*
X118346428Y-114775975D01*
X118346428Y-114775975D02*
X118403571Y-114756927D01*
X118403571Y-114756927D02*
X118441667Y-114756927D01*
X118441667Y-114756927D02*
X118498809Y-114775975D01*
X118498809Y-114775975D02*
X118517857Y-114795022D01*
X118898809Y-115156927D02*
X118670238Y-115156927D01*
X118784524Y-115156927D02*
X118784524Y-114756927D01*
X118784524Y-114756927D02*
X118746428Y-114814070D01*
X118746428Y-114814070D02*
X118708333Y-114852165D01*
X118708333Y-114852165D02*
X118670238Y-114871213D01*
X119241666Y-114890260D02*
X119241666Y-115156927D01*
X119146428Y-114737880D02*
X119051190Y-115023594D01*
X119051190Y-115023594D02*
X119298809Y-115023594D01*
D10*
X130622024Y-74354819D02*
X130622024Y-73354819D01*
X130622024Y-73354819D02*
X130955357Y-74069104D01*
X130955357Y-74069104D02*
X131288690Y-73354819D01*
X131288690Y-73354819D02*
X131288690Y-74354819D01*
X131764881Y-74354819D02*
X131764881Y-73354819D01*
X131764881Y-73354819D02*
X132098214Y-74069104D01*
X132098214Y-74069104D02*
X132431547Y-73354819D01*
X132431547Y-73354819D02*
X132431547Y-74354819D01*
X133241071Y-73831009D02*
X133383928Y-73878628D01*
X133383928Y-73878628D02*
X133431547Y-73926247D01*
X133431547Y-73926247D02*
X133479166Y-74021485D01*
X133479166Y-74021485D02*
X133479166Y-74164342D01*
X133479166Y-74164342D02*
X133431547Y-74259580D01*
X133431547Y-74259580D02*
X133383928Y-74307200D01*
X133383928Y-74307200D02*
X133288690Y-74354819D01*
X133288690Y-74354819D02*
X132907738Y-74354819D01*
X132907738Y-74354819D02*
X132907738Y-73354819D01*
X132907738Y-73354819D02*
X133241071Y-73354819D01*
X133241071Y-73354819D02*
X133336309Y-73402438D01*
X133336309Y-73402438D02*
X133383928Y-73450057D01*
X133383928Y-73450057D02*
X133431547Y-73545295D01*
X133431547Y-73545295D02*
X133431547Y-73640533D01*
X133431547Y-73640533D02*
X133383928Y-73735771D01*
X133383928Y-73735771D02*
X133336309Y-73783390D01*
X133336309Y-73783390D02*
X133241071Y-73831009D01*
X133241071Y-73831009D02*
X132907738Y-73831009D01*
X133764881Y-73354819D02*
X134336309Y-73354819D01*
X134050595Y-74354819D02*
X134050595Y-73354819D01*
X134574405Y-73354819D02*
X135193452Y-73354819D01*
X135193452Y-73354819D02*
X134860119Y-73735771D01*
X134860119Y-73735771D02*
X135002976Y-73735771D01*
X135002976Y-73735771D02*
X135098214Y-73783390D01*
X135098214Y-73783390D02*
X135145833Y-73831009D01*
X135145833Y-73831009D02*
X135193452Y-73926247D01*
X135193452Y-73926247D02*
X135193452Y-74164342D01*
X135193452Y-74164342D02*
X135145833Y-74259580D01*
X135145833Y-74259580D02*
X135098214Y-74307200D01*
X135098214Y-74307200D02*
X135002976Y-74354819D01*
X135002976Y-74354819D02*
X134717262Y-74354819D01*
X134717262Y-74354819D02*
X134622024Y-74307200D01*
X134622024Y-74307200D02*
X134574405Y-74259580D01*
X135669643Y-74354819D02*
X135860119Y-74354819D01*
X135860119Y-74354819D02*
X135955357Y-74307200D01*
X135955357Y-74307200D02*
X136002976Y-74259580D01*
X136002976Y-74259580D02*
X136098214Y-74116723D01*
X136098214Y-74116723D02*
X136145833Y-73926247D01*
X136145833Y-73926247D02*
X136145833Y-73545295D01*
X136145833Y-73545295D02*
X136098214Y-73450057D01*
X136098214Y-73450057D02*
X136050595Y-73402438D01*
X136050595Y-73402438D02*
X135955357Y-73354819D01*
X135955357Y-73354819D02*
X135764881Y-73354819D01*
X135764881Y-73354819D02*
X135669643Y-73402438D01*
X135669643Y-73402438D02*
X135622024Y-73450057D01*
X135622024Y-73450057D02*
X135574405Y-73545295D01*
X135574405Y-73545295D02*
X135574405Y-73783390D01*
X135574405Y-73783390D02*
X135622024Y-73878628D01*
X135622024Y-73878628D02*
X135669643Y-73926247D01*
X135669643Y-73926247D02*
X135764881Y-73973866D01*
X135764881Y-73973866D02*
X135955357Y-73973866D01*
X135955357Y-73973866D02*
X136050595Y-73926247D01*
X136050595Y-73926247D02*
X136098214Y-73878628D01*
X136098214Y-73878628D02*
X136145833Y-73783390D01*
X136764881Y-73354819D02*
X136860119Y-73354819D01*
X136860119Y-73354819D02*
X136955357Y-73402438D01*
X136955357Y-73402438D02*
X137002976Y-73450057D01*
X137002976Y-73450057D02*
X137050595Y-73545295D01*
X137050595Y-73545295D02*
X137098214Y-73735771D01*
X137098214Y-73735771D02*
X137098214Y-73973866D01*
X137098214Y-73973866D02*
X137050595Y-74164342D01*
X137050595Y-74164342D02*
X137002976Y-74259580D01*
X137002976Y-74259580D02*
X136955357Y-74307200D01*
X136955357Y-74307200D02*
X136860119Y-74354819D01*
X136860119Y-74354819D02*
X136764881Y-74354819D01*
X136764881Y-74354819D02*
X136669643Y-74307200D01*
X136669643Y-74307200D02*
X136622024Y-74259580D01*
X136622024Y-74259580D02*
X136574405Y-74164342D01*
X136574405Y-74164342D02*
X136526786Y-73973866D01*
X136526786Y-73973866D02*
X136526786Y-73735771D01*
X136526786Y-73735771D02*
X136574405Y-73545295D01*
X136574405Y-73545295D02*
X136622024Y-73450057D01*
X136622024Y-73450057D02*
X136669643Y-73402438D01*
X136669643Y-73402438D02*
X136764881Y-73354819D01*
X137955357Y-73688152D02*
X137955357Y-74354819D01*
X137717262Y-73307200D02*
X137479167Y-74021485D01*
X137479167Y-74021485D02*
X138098214Y-74021485D01*
D14*
X134282023Y-76475914D02*
X134251547Y-76460676D01*
X134251547Y-76460676D02*
X134221071Y-76430200D01*
X134221071Y-76430200D02*
X134175357Y-76384485D01*
X134175357Y-76384485D02*
X134144880Y-76369247D01*
X134144880Y-76369247D02*
X134114404Y-76369247D01*
X134129642Y-76445438D02*
X134099166Y-76430200D01*
X134099166Y-76430200D02*
X134068690Y-76399723D01*
X134068690Y-76399723D02*
X134053452Y-76338771D01*
X134053452Y-76338771D02*
X134053452Y-76232104D01*
X134053452Y-76232104D02*
X134068690Y-76171152D01*
X134068690Y-76171152D02*
X134099166Y-76140676D01*
X134099166Y-76140676D02*
X134129642Y-76125438D01*
X134129642Y-76125438D02*
X134190595Y-76125438D01*
X134190595Y-76125438D02*
X134221071Y-76140676D01*
X134221071Y-76140676D02*
X134251547Y-76171152D01*
X134251547Y-76171152D02*
X134266785Y-76232104D01*
X134266785Y-76232104D02*
X134266785Y-76338771D01*
X134266785Y-76338771D02*
X134251547Y-76399723D01*
X134251547Y-76399723D02*
X134221071Y-76430200D01*
X134221071Y-76430200D02*
X134190595Y-76445438D01*
X134190595Y-76445438D02*
X134129642Y-76445438D01*
X134571547Y-76445438D02*
X134388690Y-76445438D01*
X134480118Y-76445438D02*
X134480118Y-76125438D01*
X134480118Y-76125438D02*
X134449642Y-76171152D01*
X134449642Y-76171152D02*
X134419166Y-76201628D01*
X134419166Y-76201628D02*
X134388690Y-76216866D01*
D10*
X112877380Y-95134819D02*
X112305952Y-95134819D01*
X112591666Y-95134819D02*
X112591666Y-94134819D01*
X112591666Y-94134819D02*
X112496428Y-94277676D01*
X112496428Y-94277676D02*
X112401190Y-94372914D01*
X112401190Y-94372914D02*
X112305952Y-94420533D01*
X113496428Y-94134819D02*
X113591666Y-94134819D01*
X113591666Y-94134819D02*
X113686904Y-94182438D01*
X113686904Y-94182438D02*
X113734523Y-94230057D01*
X113734523Y-94230057D02*
X113782142Y-94325295D01*
X113782142Y-94325295D02*
X113829761Y-94515771D01*
X113829761Y-94515771D02*
X113829761Y-94753866D01*
X113829761Y-94753866D02*
X113782142Y-94944342D01*
X113782142Y-94944342D02*
X113734523Y-95039580D01*
X113734523Y-95039580D02*
X113686904Y-95087200D01*
X113686904Y-95087200D02*
X113591666Y-95134819D01*
X113591666Y-95134819D02*
X113496428Y-95134819D01*
X113496428Y-95134819D02*
X113401190Y-95087200D01*
X113401190Y-95087200D02*
X113353571Y-95039580D01*
X113353571Y-95039580D02*
X113305952Y-94944342D01*
X113305952Y-94944342D02*
X113258333Y-94753866D01*
X113258333Y-94753866D02*
X113258333Y-94515771D01*
X113258333Y-94515771D02*
X113305952Y-94325295D01*
X113305952Y-94325295D02*
X113353571Y-94230057D01*
X113353571Y-94230057D02*
X113401190Y-94182438D01*
X113401190Y-94182438D02*
X113496428Y-94134819D01*
X114448809Y-94134819D02*
X114544047Y-94134819D01*
X114544047Y-94134819D02*
X114639285Y-94182438D01*
X114639285Y-94182438D02*
X114686904Y-94230057D01*
X114686904Y-94230057D02*
X114734523Y-94325295D01*
X114734523Y-94325295D02*
X114782142Y-94515771D01*
X114782142Y-94515771D02*
X114782142Y-94753866D01*
X114782142Y-94753866D02*
X114734523Y-94944342D01*
X114734523Y-94944342D02*
X114686904Y-95039580D01*
X114686904Y-95039580D02*
X114639285Y-95087200D01*
X114639285Y-95087200D02*
X114544047Y-95134819D01*
X114544047Y-95134819D02*
X114448809Y-95134819D01*
X114448809Y-95134819D02*
X114353571Y-95087200D01*
X114353571Y-95087200D02*
X114305952Y-95039580D01*
X114305952Y-95039580D02*
X114258333Y-94944342D01*
X114258333Y-94944342D02*
X114210714Y-94753866D01*
X114210714Y-94753866D02*
X114210714Y-94515771D01*
X114210714Y-94515771D02*
X114258333Y-94325295D01*
X114258333Y-94325295D02*
X114305952Y-94230057D01*
X114305952Y-94230057D02*
X114353571Y-94182438D01*
X114353571Y-94182438D02*
X114448809Y-94134819D01*
X115210714Y-94468152D02*
X115210714Y-95134819D01*
X115210714Y-94563390D02*
X115258333Y-94515771D01*
X115258333Y-94515771D02*
X115353571Y-94468152D01*
X115353571Y-94468152D02*
X115496428Y-94468152D01*
X115496428Y-94468152D02*
X115591666Y-94515771D01*
X115591666Y-94515771D02*
X115639285Y-94611009D01*
X115639285Y-94611009D02*
X115639285Y-95134819D01*
X116448809Y-94611009D02*
X116115476Y-94611009D01*
X116115476Y-95134819D02*
X116115476Y-94134819D01*
X116115476Y-94134819D02*
X116591666Y-94134819D01*
D11*
X114167857Y-93393832D02*
X114148809Y-93412880D01*
X114148809Y-93412880D02*
X114091667Y-93431927D01*
X114091667Y-93431927D02*
X114053571Y-93431927D01*
X114053571Y-93431927D02*
X113996428Y-93412880D01*
X113996428Y-93412880D02*
X113958333Y-93374784D01*
X113958333Y-93374784D02*
X113939286Y-93336689D01*
X113939286Y-93336689D02*
X113920238Y-93260499D01*
X113920238Y-93260499D02*
X113920238Y-93203356D01*
X113920238Y-93203356D02*
X113939286Y-93127165D01*
X113939286Y-93127165D02*
X113958333Y-93089070D01*
X113958333Y-93089070D02*
X113996428Y-93050975D01*
X113996428Y-93050975D02*
X114053571Y-93031927D01*
X114053571Y-93031927D02*
X114091667Y-93031927D01*
X114091667Y-93031927D02*
X114148809Y-93050975D01*
X114148809Y-93050975D02*
X114167857Y-93070022D01*
X114548809Y-93431927D02*
X114320238Y-93431927D01*
X114434524Y-93431927D02*
X114434524Y-93031927D01*
X114434524Y-93031927D02*
X114396428Y-93089070D01*
X114396428Y-93089070D02*
X114358333Y-93127165D01*
X114358333Y-93127165D02*
X114320238Y-93146213D01*
X114701190Y-93070022D02*
X114720238Y-93050975D01*
X114720238Y-93050975D02*
X114758333Y-93031927D01*
X114758333Y-93031927D02*
X114853571Y-93031927D01*
X114853571Y-93031927D02*
X114891666Y-93050975D01*
X114891666Y-93050975D02*
X114910714Y-93070022D01*
X114910714Y-93070022D02*
X114929761Y-93108118D01*
X114929761Y-93108118D02*
X114929761Y-93146213D01*
X114929761Y-93146213D02*
X114910714Y-93203356D01*
X114910714Y-93203356D02*
X114682142Y-93431927D01*
X114682142Y-93431927D02*
X114929761Y-93431927D01*
D10*
X123096428Y-116784819D02*
X122525000Y-116784819D01*
X122810714Y-116784819D02*
X122810714Y-115784819D01*
X122810714Y-115784819D02*
X122715476Y-115927676D01*
X122715476Y-115927676D02*
X122620238Y-116022914D01*
X122620238Y-116022914D02*
X122525000Y-116070533D01*
X123715476Y-115784819D02*
X123810714Y-115784819D01*
X123810714Y-115784819D02*
X123905952Y-115832438D01*
X123905952Y-115832438D02*
X123953571Y-115880057D01*
X123953571Y-115880057D02*
X124001190Y-115975295D01*
X124001190Y-115975295D02*
X124048809Y-116165771D01*
X124048809Y-116165771D02*
X124048809Y-116403866D01*
X124048809Y-116403866D02*
X124001190Y-116594342D01*
X124001190Y-116594342D02*
X123953571Y-116689580D01*
X123953571Y-116689580D02*
X123905952Y-116737200D01*
X123905952Y-116737200D02*
X123810714Y-116784819D01*
X123810714Y-116784819D02*
X123715476Y-116784819D01*
X123715476Y-116784819D02*
X123620238Y-116737200D01*
X123620238Y-116737200D02*
X123572619Y-116689580D01*
X123572619Y-116689580D02*
X123525000Y-116594342D01*
X123525000Y-116594342D02*
X123477381Y-116403866D01*
X123477381Y-116403866D02*
X123477381Y-116165771D01*
X123477381Y-116165771D02*
X123525000Y-115975295D01*
X123525000Y-115975295D02*
X123572619Y-115880057D01*
X123572619Y-115880057D02*
X123620238Y-115832438D01*
X123620238Y-115832438D02*
X123715476Y-115784819D01*
X124667857Y-115784819D02*
X124763095Y-115784819D01*
X124763095Y-115784819D02*
X124858333Y-115832438D01*
X124858333Y-115832438D02*
X124905952Y-115880057D01*
X124905952Y-115880057D02*
X124953571Y-115975295D01*
X124953571Y-115975295D02*
X125001190Y-116165771D01*
X125001190Y-116165771D02*
X125001190Y-116403866D01*
X125001190Y-116403866D02*
X124953571Y-116594342D01*
X124953571Y-116594342D02*
X124905952Y-116689580D01*
X124905952Y-116689580D02*
X124858333Y-116737200D01*
X124858333Y-116737200D02*
X124763095Y-116784819D01*
X124763095Y-116784819D02*
X124667857Y-116784819D01*
X124667857Y-116784819D02*
X124572619Y-116737200D01*
X124572619Y-116737200D02*
X124525000Y-116689580D01*
X124525000Y-116689580D02*
X124477381Y-116594342D01*
X124477381Y-116594342D02*
X124429762Y-116403866D01*
X124429762Y-116403866D02*
X124429762Y-116165771D01*
X124429762Y-116165771D02*
X124477381Y-115975295D01*
X124477381Y-115975295D02*
X124525000Y-115880057D01*
X124525000Y-115880057D02*
X124572619Y-115832438D01*
X124572619Y-115832438D02*
X124667857Y-115784819D01*
X126191667Y-116118152D02*
X126191667Y-116784819D01*
X126191667Y-116213390D02*
X126239286Y-116165771D01*
X126239286Y-116165771D02*
X126334524Y-116118152D01*
X126334524Y-116118152D02*
X126477381Y-116118152D01*
X126477381Y-116118152D02*
X126572619Y-116165771D01*
X126572619Y-116165771D02*
X126620238Y-116261009D01*
X126620238Y-116261009D02*
X126620238Y-116784819D01*
X127429762Y-116261009D02*
X127096429Y-116261009D01*
X127096429Y-116784819D02*
X127096429Y-115784819D01*
X127096429Y-115784819D02*
X127572619Y-115784819D01*
D11*
X124767857Y-115043832D02*
X124748809Y-115062880D01*
X124748809Y-115062880D02*
X124691667Y-115081927D01*
X124691667Y-115081927D02*
X124653571Y-115081927D01*
X124653571Y-115081927D02*
X124596428Y-115062880D01*
X124596428Y-115062880D02*
X124558333Y-115024784D01*
X124558333Y-115024784D02*
X124539286Y-114986689D01*
X124539286Y-114986689D02*
X124520238Y-114910499D01*
X124520238Y-114910499D02*
X124520238Y-114853356D01*
X124520238Y-114853356D02*
X124539286Y-114777165D01*
X124539286Y-114777165D02*
X124558333Y-114739070D01*
X124558333Y-114739070D02*
X124596428Y-114700975D01*
X124596428Y-114700975D02*
X124653571Y-114681927D01*
X124653571Y-114681927D02*
X124691667Y-114681927D01*
X124691667Y-114681927D02*
X124748809Y-114700975D01*
X124748809Y-114700975D02*
X124767857Y-114720022D01*
X125148809Y-115081927D02*
X124920238Y-115081927D01*
X125034524Y-115081927D02*
X125034524Y-114681927D01*
X125034524Y-114681927D02*
X124996428Y-114739070D01*
X124996428Y-114739070D02*
X124958333Y-114777165D01*
X124958333Y-114777165D02*
X124920238Y-114796213D01*
X125491666Y-114681927D02*
X125415476Y-114681927D01*
X125415476Y-114681927D02*
X125377380Y-114700975D01*
X125377380Y-114700975D02*
X125358333Y-114720022D01*
X125358333Y-114720022D02*
X125320238Y-114777165D01*
X125320238Y-114777165D02*
X125301190Y-114853356D01*
X125301190Y-114853356D02*
X125301190Y-115005737D01*
X125301190Y-115005737D02*
X125320238Y-115043832D01*
X125320238Y-115043832D02*
X125339285Y-115062880D01*
X125339285Y-115062880D02*
X125377380Y-115081927D01*
X125377380Y-115081927D02*
X125453571Y-115081927D01*
X125453571Y-115081927D02*
X125491666Y-115062880D01*
X125491666Y-115062880D02*
X125510714Y-115043832D01*
X125510714Y-115043832D02*
X125529761Y-115005737D01*
X125529761Y-115005737D02*
X125529761Y-114910499D01*
X125529761Y-114910499D02*
X125510714Y-114872403D01*
X125510714Y-114872403D02*
X125491666Y-114853356D01*
X125491666Y-114853356D02*
X125453571Y-114834308D01*
X125453571Y-114834308D02*
X125377380Y-114834308D01*
X125377380Y-114834308D02*
X125339285Y-114853356D01*
X125339285Y-114853356D02*
X125320238Y-114872403D01*
X125320238Y-114872403D02*
X125301190Y-114910499D01*
D10*
X107359524Y-121929819D02*
X107359524Y-120929819D01*
X107359524Y-120929819D02*
X107692857Y-121644104D01*
X107692857Y-121644104D02*
X108026190Y-120929819D01*
X108026190Y-120929819D02*
X108026190Y-121929819D01*
X108645238Y-121929819D02*
X108550000Y-121882200D01*
X108550000Y-121882200D02*
X108502381Y-121834580D01*
X108502381Y-121834580D02*
X108454762Y-121739342D01*
X108454762Y-121739342D02*
X108454762Y-121453628D01*
X108454762Y-121453628D02*
X108502381Y-121358390D01*
X108502381Y-121358390D02*
X108550000Y-121310771D01*
X108550000Y-121310771D02*
X108645238Y-121263152D01*
X108645238Y-121263152D02*
X108788095Y-121263152D01*
X108788095Y-121263152D02*
X108883333Y-121310771D01*
X108883333Y-121310771D02*
X108930952Y-121358390D01*
X108930952Y-121358390D02*
X108978571Y-121453628D01*
X108978571Y-121453628D02*
X108978571Y-121739342D01*
X108978571Y-121739342D02*
X108930952Y-121834580D01*
X108930952Y-121834580D02*
X108883333Y-121882200D01*
X108883333Y-121882200D02*
X108788095Y-121929819D01*
X108788095Y-121929819D02*
X108645238Y-121929819D01*
X109835714Y-121263152D02*
X109835714Y-121929819D01*
X109407143Y-121263152D02*
X109407143Y-121786961D01*
X109407143Y-121786961D02*
X109454762Y-121882200D01*
X109454762Y-121882200D02*
X109550000Y-121929819D01*
X109550000Y-121929819D02*
X109692857Y-121929819D01*
X109692857Y-121929819D02*
X109788095Y-121882200D01*
X109788095Y-121882200D02*
X109835714Y-121834580D01*
X110311905Y-121263152D02*
X110311905Y-121929819D01*
X110311905Y-121358390D02*
X110359524Y-121310771D01*
X110359524Y-121310771D02*
X110454762Y-121263152D01*
X110454762Y-121263152D02*
X110597619Y-121263152D01*
X110597619Y-121263152D02*
X110692857Y-121310771D01*
X110692857Y-121310771D02*
X110740476Y-121406009D01*
X110740476Y-121406009D02*
X110740476Y-121929819D01*
X111073810Y-121263152D02*
X111454762Y-121263152D01*
X111216667Y-120929819D02*
X111216667Y-121786961D01*
X111216667Y-121786961D02*
X111264286Y-121882200D01*
X111264286Y-121882200D02*
X111359524Y-121929819D01*
X111359524Y-121929819D02*
X111454762Y-121929819D01*
X111788096Y-121929819D02*
X111788096Y-121263152D01*
X111788096Y-120929819D02*
X111740477Y-120977438D01*
X111740477Y-120977438D02*
X111788096Y-121025057D01*
X111788096Y-121025057D02*
X111835715Y-120977438D01*
X111835715Y-120977438D02*
X111788096Y-120929819D01*
X111788096Y-120929819D02*
X111788096Y-121025057D01*
X112264286Y-121263152D02*
X112264286Y-121929819D01*
X112264286Y-121358390D02*
X112311905Y-121310771D01*
X112311905Y-121310771D02*
X112407143Y-121263152D01*
X112407143Y-121263152D02*
X112550000Y-121263152D01*
X112550000Y-121263152D02*
X112645238Y-121310771D01*
X112645238Y-121310771D02*
X112692857Y-121406009D01*
X112692857Y-121406009D02*
X112692857Y-121929819D01*
X113597619Y-121263152D02*
X113597619Y-122072676D01*
X113597619Y-122072676D02*
X113550000Y-122167914D01*
X113550000Y-122167914D02*
X113502381Y-122215533D01*
X113502381Y-122215533D02*
X113407143Y-122263152D01*
X113407143Y-122263152D02*
X113264286Y-122263152D01*
X113264286Y-122263152D02*
X113169048Y-122215533D01*
X113597619Y-121882200D02*
X113502381Y-121929819D01*
X113502381Y-121929819D02*
X113311905Y-121929819D01*
X113311905Y-121929819D02*
X113216667Y-121882200D01*
X113216667Y-121882200D02*
X113169048Y-121834580D01*
X113169048Y-121834580D02*
X113121429Y-121739342D01*
X113121429Y-121739342D02*
X113121429Y-121453628D01*
X113121429Y-121453628D02*
X113169048Y-121358390D01*
X113169048Y-121358390D02*
X113216667Y-121310771D01*
X113216667Y-121310771D02*
X113311905Y-121263152D01*
X113311905Y-121263152D02*
X113502381Y-121263152D01*
X113502381Y-121263152D02*
X113597619Y-121310771D01*
X114073810Y-121929819D02*
X114073810Y-120929819D01*
X114073810Y-121406009D02*
X114645238Y-121406009D01*
X114645238Y-121929819D02*
X114645238Y-120929819D01*
X115264286Y-121929819D02*
X115169048Y-121882200D01*
X115169048Y-121882200D02*
X115121429Y-121834580D01*
X115121429Y-121834580D02*
X115073810Y-121739342D01*
X115073810Y-121739342D02*
X115073810Y-121453628D01*
X115073810Y-121453628D02*
X115121429Y-121358390D01*
X115121429Y-121358390D02*
X115169048Y-121310771D01*
X115169048Y-121310771D02*
X115264286Y-121263152D01*
X115264286Y-121263152D02*
X115407143Y-121263152D01*
X115407143Y-121263152D02*
X115502381Y-121310771D01*
X115502381Y-121310771D02*
X115550000Y-121358390D01*
X115550000Y-121358390D02*
X115597619Y-121453628D01*
X115597619Y-121453628D02*
X115597619Y-121739342D01*
X115597619Y-121739342D02*
X115550000Y-121834580D01*
X115550000Y-121834580D02*
X115502381Y-121882200D01*
X115502381Y-121882200D02*
X115407143Y-121929819D01*
X115407143Y-121929819D02*
X115264286Y-121929819D01*
X116169048Y-121929819D02*
X116073810Y-121882200D01*
X116073810Y-121882200D02*
X116026191Y-121786961D01*
X116026191Y-121786961D02*
X116026191Y-120929819D01*
X116930953Y-121882200D02*
X116835715Y-121929819D01*
X116835715Y-121929819D02*
X116645239Y-121929819D01*
X116645239Y-121929819D02*
X116550001Y-121882200D01*
X116550001Y-121882200D02*
X116502382Y-121786961D01*
X116502382Y-121786961D02*
X116502382Y-121406009D01*
X116502382Y-121406009D02*
X116550001Y-121310771D01*
X116550001Y-121310771D02*
X116645239Y-121263152D01*
X116645239Y-121263152D02*
X116835715Y-121263152D01*
X116835715Y-121263152D02*
X116930953Y-121310771D01*
X116930953Y-121310771D02*
X116978572Y-121406009D01*
X116978572Y-121406009D02*
X116978572Y-121501247D01*
X116978572Y-121501247D02*
X116502382Y-121596485D01*
X117169049Y-122025057D02*
X117930953Y-122025057D01*
X118121430Y-121025057D02*
X118169049Y-120977438D01*
X118169049Y-120977438D02*
X118264287Y-120929819D01*
X118264287Y-120929819D02*
X118502382Y-120929819D01*
X118502382Y-120929819D02*
X118597620Y-120977438D01*
X118597620Y-120977438D02*
X118645239Y-121025057D01*
X118645239Y-121025057D02*
X118692858Y-121120295D01*
X118692858Y-121120295D02*
X118692858Y-121215533D01*
X118692858Y-121215533D02*
X118645239Y-121358390D01*
X118645239Y-121358390D02*
X118073811Y-121929819D01*
X118073811Y-121929819D02*
X118692858Y-121929819D01*
X119121430Y-121834580D02*
X119169049Y-121882200D01*
X119169049Y-121882200D02*
X119121430Y-121929819D01*
X119121430Y-121929819D02*
X119073811Y-121882200D01*
X119073811Y-121882200D02*
X119121430Y-121834580D01*
X119121430Y-121834580D02*
X119121430Y-121929819D01*
X120073810Y-120929819D02*
X119597620Y-120929819D01*
X119597620Y-120929819D02*
X119550001Y-121406009D01*
X119550001Y-121406009D02*
X119597620Y-121358390D01*
X119597620Y-121358390D02*
X119692858Y-121310771D01*
X119692858Y-121310771D02*
X119930953Y-121310771D01*
X119930953Y-121310771D02*
X120026191Y-121358390D01*
X120026191Y-121358390D02*
X120073810Y-121406009D01*
X120073810Y-121406009D02*
X120121429Y-121501247D01*
X120121429Y-121501247D02*
X120121429Y-121739342D01*
X120121429Y-121739342D02*
X120073810Y-121834580D01*
X120073810Y-121834580D02*
X120026191Y-121882200D01*
X120026191Y-121882200D02*
X119930953Y-121929819D01*
X119930953Y-121929819D02*
X119692858Y-121929819D01*
X119692858Y-121929819D02*
X119597620Y-121882200D01*
X119597620Y-121882200D02*
X119550001Y-121834580D01*
X120550001Y-121929819D02*
X120550001Y-121263152D01*
X120550001Y-121358390D02*
X120597620Y-121310771D01*
X120597620Y-121310771D02*
X120692858Y-121263152D01*
X120692858Y-121263152D02*
X120835715Y-121263152D01*
X120835715Y-121263152D02*
X120930953Y-121310771D01*
X120930953Y-121310771D02*
X120978572Y-121406009D01*
X120978572Y-121406009D02*
X120978572Y-121929819D01*
X120978572Y-121406009D02*
X121026191Y-121310771D01*
X121026191Y-121310771D02*
X121121429Y-121263152D01*
X121121429Y-121263152D02*
X121264286Y-121263152D01*
X121264286Y-121263152D02*
X121359525Y-121310771D01*
X121359525Y-121310771D02*
X121407144Y-121406009D01*
X121407144Y-121406009D02*
X121407144Y-121929819D01*
X121883334Y-121929819D02*
X121883334Y-121263152D01*
X121883334Y-121358390D02*
X121930953Y-121310771D01*
X121930953Y-121310771D02*
X122026191Y-121263152D01*
X122026191Y-121263152D02*
X122169048Y-121263152D01*
X122169048Y-121263152D02*
X122264286Y-121310771D01*
X122264286Y-121310771D02*
X122311905Y-121406009D01*
X122311905Y-121406009D02*
X122311905Y-121929819D01*
X122311905Y-121406009D02*
X122359524Y-121310771D01*
X122359524Y-121310771D02*
X122454762Y-121263152D01*
X122454762Y-121263152D02*
X122597619Y-121263152D01*
X122597619Y-121263152D02*
X122692858Y-121310771D01*
X122692858Y-121310771D02*
X122740477Y-121406009D01*
X122740477Y-121406009D02*
X122740477Y-121929819D01*
X113716666Y-118479819D02*
X113383333Y-118003628D01*
X113145238Y-118479819D02*
X113145238Y-117479819D01*
X113145238Y-117479819D02*
X113526190Y-117479819D01*
X113526190Y-117479819D02*
X113621428Y-117527438D01*
X113621428Y-117527438D02*
X113669047Y-117575057D01*
X113669047Y-117575057D02*
X113716666Y-117670295D01*
X113716666Y-117670295D02*
X113716666Y-117813152D01*
X113716666Y-117813152D02*
X113669047Y-117908390D01*
X113669047Y-117908390D02*
X113621428Y-117956009D01*
X113621428Y-117956009D02*
X113526190Y-118003628D01*
X113526190Y-118003628D02*
X113145238Y-118003628D01*
X114145238Y-117956009D02*
X114478571Y-117956009D01*
X114621428Y-118479819D02*
X114145238Y-118479819D01*
X114145238Y-118479819D02*
X114145238Y-117479819D01*
X114145238Y-117479819D02*
X114621428Y-117479819D01*
X115383333Y-117956009D02*
X115050000Y-117956009D01*
X115050000Y-118479819D02*
X115050000Y-117479819D01*
X115050000Y-117479819D02*
X115526190Y-117479819D01*
X116050000Y-117479819D02*
X116050000Y-117717914D01*
X115811905Y-117622676D02*
X116050000Y-117717914D01*
X116050000Y-117717914D02*
X116288095Y-117622676D01*
X115907143Y-117908390D02*
X116050000Y-117717914D01*
X116050000Y-117717914D02*
X116192857Y-117908390D01*
X116811905Y-117479819D02*
X116811905Y-117717914D01*
X116573810Y-117622676D02*
X116811905Y-117717914D01*
X116811905Y-117717914D02*
X117050000Y-117622676D01*
X116669048Y-117908390D02*
X116811905Y-117717914D01*
X116811905Y-117717914D02*
X116954762Y-117908390D01*
X111483333Y-103284819D02*
X110911905Y-103284819D01*
X111197619Y-103284819D02*
X111197619Y-102284819D01*
X111197619Y-102284819D02*
X111102381Y-102427676D01*
X111102381Y-102427676D02*
X111007143Y-102522914D01*
X111007143Y-102522914D02*
X110911905Y-102570533D01*
X112102381Y-102284819D02*
X112197619Y-102284819D01*
X112197619Y-102284819D02*
X112292857Y-102332438D01*
X112292857Y-102332438D02*
X112340476Y-102380057D01*
X112340476Y-102380057D02*
X112388095Y-102475295D01*
X112388095Y-102475295D02*
X112435714Y-102665771D01*
X112435714Y-102665771D02*
X112435714Y-102903866D01*
X112435714Y-102903866D02*
X112388095Y-103094342D01*
X112388095Y-103094342D02*
X112340476Y-103189580D01*
X112340476Y-103189580D02*
X112292857Y-103237200D01*
X112292857Y-103237200D02*
X112197619Y-103284819D01*
X112197619Y-103284819D02*
X112102381Y-103284819D01*
X112102381Y-103284819D02*
X112007143Y-103237200D01*
X112007143Y-103237200D02*
X111959524Y-103189580D01*
X111959524Y-103189580D02*
X111911905Y-103094342D01*
X111911905Y-103094342D02*
X111864286Y-102903866D01*
X111864286Y-102903866D02*
X111864286Y-102665771D01*
X111864286Y-102665771D02*
X111911905Y-102475295D01*
X111911905Y-102475295D02*
X111959524Y-102380057D01*
X111959524Y-102380057D02*
X112007143Y-102332438D01*
X112007143Y-102332438D02*
X112102381Y-102284819D01*
X112864286Y-103284819D02*
X112864286Y-102284819D01*
X112959524Y-102903866D02*
X113245238Y-103284819D01*
X113245238Y-102618152D02*
X112864286Y-102999104D01*
X113626191Y-103284819D02*
X113864286Y-103284819D01*
X113864286Y-103284819D02*
X113864286Y-103094342D01*
X113864286Y-103094342D02*
X113769048Y-103046723D01*
X113769048Y-103046723D02*
X113673810Y-102951485D01*
X113673810Y-102951485D02*
X113626191Y-102808628D01*
X113626191Y-102808628D02*
X113626191Y-102570533D01*
X113626191Y-102570533D02*
X113673810Y-102427676D01*
X113673810Y-102427676D02*
X113769048Y-102332438D01*
X113769048Y-102332438D02*
X113911905Y-102284819D01*
X113911905Y-102284819D02*
X114102381Y-102284819D01*
X114102381Y-102284819D02*
X114245238Y-102332438D01*
X114245238Y-102332438D02*
X114340476Y-102427676D01*
X114340476Y-102427676D02*
X114388095Y-102570533D01*
X114388095Y-102570533D02*
X114388095Y-102808628D01*
X114388095Y-102808628D02*
X114340476Y-102951485D01*
X114340476Y-102951485D02*
X114245238Y-103046723D01*
X114245238Y-103046723D02*
X114150000Y-103094342D01*
X114150000Y-103094342D02*
X114150000Y-103284819D01*
X114150000Y-103284819D02*
X114388095Y-103284819D01*
D11*
X112583333Y-101581927D02*
X112450000Y-101391451D01*
X112354762Y-101581927D02*
X112354762Y-101181927D01*
X112354762Y-101181927D02*
X112507143Y-101181927D01*
X112507143Y-101181927D02*
X112545238Y-101200975D01*
X112545238Y-101200975D02*
X112564285Y-101220022D01*
X112564285Y-101220022D02*
X112583333Y-101258118D01*
X112583333Y-101258118D02*
X112583333Y-101315260D01*
X112583333Y-101315260D02*
X112564285Y-101353356D01*
X112564285Y-101353356D02*
X112545238Y-101372403D01*
X112545238Y-101372403D02*
X112507143Y-101391451D01*
X112507143Y-101391451D02*
X112354762Y-101391451D01*
X112716666Y-101181927D02*
X112964285Y-101181927D01*
X112964285Y-101181927D02*
X112830952Y-101334308D01*
X112830952Y-101334308D02*
X112888095Y-101334308D01*
X112888095Y-101334308D02*
X112926190Y-101353356D01*
X112926190Y-101353356D02*
X112945238Y-101372403D01*
X112945238Y-101372403D02*
X112964285Y-101410499D01*
X112964285Y-101410499D02*
X112964285Y-101505737D01*
X112964285Y-101505737D02*
X112945238Y-101543832D01*
X112945238Y-101543832D02*
X112926190Y-101562880D01*
X112926190Y-101562880D02*
X112888095Y-101581927D01*
X112888095Y-101581927D02*
X112773809Y-101581927D01*
X112773809Y-101581927D02*
X112735714Y-101562880D01*
X112735714Y-101562880D02*
X112716666Y-101543832D01*
D10*
X128028571Y-118884819D02*
X127457143Y-118884819D01*
X127742857Y-118884819D02*
X127742857Y-117884819D01*
X127742857Y-117884819D02*
X127647619Y-118027676D01*
X127647619Y-118027676D02*
X127552381Y-118122914D01*
X127552381Y-118122914D02*
X127457143Y-118170533D01*
X128647619Y-117884819D02*
X128742857Y-117884819D01*
X128742857Y-117884819D02*
X128838095Y-117932438D01*
X128838095Y-117932438D02*
X128885714Y-117980057D01*
X128885714Y-117980057D02*
X128933333Y-118075295D01*
X128933333Y-118075295D02*
X128980952Y-118265771D01*
X128980952Y-118265771D02*
X128980952Y-118503866D01*
X128980952Y-118503866D02*
X128933333Y-118694342D01*
X128933333Y-118694342D02*
X128885714Y-118789580D01*
X128885714Y-118789580D02*
X128838095Y-118837200D01*
X128838095Y-118837200D02*
X128742857Y-118884819D01*
X128742857Y-118884819D02*
X128647619Y-118884819D01*
X128647619Y-118884819D02*
X128552381Y-118837200D01*
X128552381Y-118837200D02*
X128504762Y-118789580D01*
X128504762Y-118789580D02*
X128457143Y-118694342D01*
X128457143Y-118694342D02*
X128409524Y-118503866D01*
X128409524Y-118503866D02*
X128409524Y-118265771D01*
X128409524Y-118265771D02*
X128457143Y-118075295D01*
X128457143Y-118075295D02*
X128504762Y-117980057D01*
X128504762Y-117980057D02*
X128552381Y-117932438D01*
X128552381Y-117932438D02*
X128647619Y-117884819D01*
X129600000Y-117884819D02*
X129695238Y-117884819D01*
X129695238Y-117884819D02*
X129790476Y-117932438D01*
X129790476Y-117932438D02*
X129838095Y-117980057D01*
X129838095Y-117980057D02*
X129885714Y-118075295D01*
X129885714Y-118075295D02*
X129933333Y-118265771D01*
X129933333Y-118265771D02*
X129933333Y-118503866D01*
X129933333Y-118503866D02*
X129885714Y-118694342D01*
X129885714Y-118694342D02*
X129838095Y-118789580D01*
X129838095Y-118789580D02*
X129790476Y-118837200D01*
X129790476Y-118837200D02*
X129695238Y-118884819D01*
X129695238Y-118884819D02*
X129600000Y-118884819D01*
X129600000Y-118884819D02*
X129504762Y-118837200D01*
X129504762Y-118837200D02*
X129457143Y-118789580D01*
X129457143Y-118789580D02*
X129409524Y-118694342D01*
X129409524Y-118694342D02*
X129361905Y-118503866D01*
X129361905Y-118503866D02*
X129361905Y-118265771D01*
X129361905Y-118265771D02*
X129409524Y-118075295D01*
X129409524Y-118075295D02*
X129457143Y-117980057D01*
X129457143Y-117980057D02*
X129504762Y-117932438D01*
X129504762Y-117932438D02*
X129600000Y-117884819D01*
X130361905Y-118884819D02*
X130361905Y-117884819D01*
X130457143Y-118503866D02*
X130742857Y-118884819D01*
X130742857Y-118218152D02*
X130361905Y-118599104D01*
D11*
X129033333Y-117181927D02*
X128900000Y-116991451D01*
X128804762Y-117181927D02*
X128804762Y-116781927D01*
X128804762Y-116781927D02*
X128957143Y-116781927D01*
X128957143Y-116781927D02*
X128995238Y-116800975D01*
X128995238Y-116800975D02*
X129014285Y-116820022D01*
X129014285Y-116820022D02*
X129033333Y-116858118D01*
X129033333Y-116858118D02*
X129033333Y-116915260D01*
X129033333Y-116915260D02*
X129014285Y-116953356D01*
X129014285Y-116953356D02*
X128995238Y-116972403D01*
X128995238Y-116972403D02*
X128957143Y-116991451D01*
X128957143Y-116991451D02*
X128804762Y-116991451D01*
X129185714Y-116820022D02*
X129204762Y-116800975D01*
X129204762Y-116800975D02*
X129242857Y-116781927D01*
X129242857Y-116781927D02*
X129338095Y-116781927D01*
X129338095Y-116781927D02*
X129376190Y-116800975D01*
X129376190Y-116800975D02*
X129395238Y-116820022D01*
X129395238Y-116820022D02*
X129414285Y-116858118D01*
X129414285Y-116858118D02*
X129414285Y-116896213D01*
X129414285Y-116896213D02*
X129395238Y-116953356D01*
X129395238Y-116953356D02*
X129166666Y-117181927D01*
X129166666Y-117181927D02*
X129414285Y-117181927D01*
D10*
X130549819Y-89445238D02*
X130549819Y-90016666D01*
X130549819Y-89730952D02*
X129549819Y-89730952D01*
X129549819Y-89730952D02*
X129692676Y-89826190D01*
X129692676Y-89826190D02*
X129787914Y-89921428D01*
X129787914Y-89921428D02*
X129835533Y-90016666D01*
X129549819Y-88826190D02*
X129549819Y-88730952D01*
X129549819Y-88730952D02*
X129597438Y-88635714D01*
X129597438Y-88635714D02*
X129645057Y-88588095D01*
X129645057Y-88588095D02*
X129740295Y-88540476D01*
X129740295Y-88540476D02*
X129930771Y-88492857D01*
X129930771Y-88492857D02*
X130168866Y-88492857D01*
X130168866Y-88492857D02*
X130359342Y-88540476D01*
X130359342Y-88540476D02*
X130454580Y-88588095D01*
X130454580Y-88588095D02*
X130502200Y-88635714D01*
X130502200Y-88635714D02*
X130549819Y-88730952D01*
X130549819Y-88730952D02*
X130549819Y-88826190D01*
X130549819Y-88826190D02*
X130502200Y-88921428D01*
X130502200Y-88921428D02*
X130454580Y-88969047D01*
X130454580Y-88969047D02*
X130359342Y-89016666D01*
X130359342Y-89016666D02*
X130168866Y-89064285D01*
X130168866Y-89064285D02*
X129930771Y-89064285D01*
X129930771Y-89064285D02*
X129740295Y-89016666D01*
X129740295Y-89016666D02*
X129645057Y-88969047D01*
X129645057Y-88969047D02*
X129597438Y-88921428D01*
X129597438Y-88921428D02*
X129549819Y-88826190D01*
X130549819Y-88064285D02*
X129549819Y-88064285D01*
X130168866Y-87969047D02*
X130549819Y-87683333D01*
X129883152Y-87683333D02*
X130264104Y-88064285D01*
D11*
X131706927Y-88916666D02*
X131516451Y-89049999D01*
X131706927Y-89145237D02*
X131306927Y-89145237D01*
X131306927Y-89145237D02*
X131306927Y-88992856D01*
X131306927Y-88992856D02*
X131325975Y-88954761D01*
X131325975Y-88954761D02*
X131345022Y-88935714D01*
X131345022Y-88935714D02*
X131383118Y-88916666D01*
X131383118Y-88916666D02*
X131440260Y-88916666D01*
X131440260Y-88916666D02*
X131478356Y-88935714D01*
X131478356Y-88935714D02*
X131497403Y-88954761D01*
X131497403Y-88954761D02*
X131516451Y-88992856D01*
X131516451Y-88992856D02*
X131516451Y-89145237D01*
X131440260Y-88573809D02*
X131706927Y-88573809D01*
X131287880Y-88669047D02*
X131573594Y-88764285D01*
X131573594Y-88764285D02*
X131573594Y-88516666D01*
D10*
X133784819Y-117897619D02*
X133784819Y-118469047D01*
X133784819Y-118183333D02*
X132784819Y-118183333D01*
X132784819Y-118183333D02*
X132927676Y-118278571D01*
X132927676Y-118278571D02*
X133022914Y-118373809D01*
X133022914Y-118373809D02*
X133070533Y-118469047D01*
X133118152Y-116707142D02*
X134118152Y-116707142D01*
X133641961Y-116230952D02*
X133737200Y-116183333D01*
X133737200Y-116183333D02*
X133784819Y-116088095D01*
X133641961Y-116707142D02*
X133737200Y-116659523D01*
X133737200Y-116659523D02*
X133784819Y-116564285D01*
X133784819Y-116564285D02*
X133784819Y-116373809D01*
X133784819Y-116373809D02*
X133737200Y-116278571D01*
X133737200Y-116278571D02*
X133641961Y-116230952D01*
X133641961Y-116230952D02*
X133118152Y-116230952D01*
X133261009Y-115326190D02*
X133261009Y-115659523D01*
X133784819Y-115659523D02*
X132784819Y-115659523D01*
X132784819Y-115659523D02*
X132784819Y-115183333D01*
D11*
X132043832Y-116916666D02*
X132062880Y-116935714D01*
X132062880Y-116935714D02*
X132081927Y-116992856D01*
X132081927Y-116992856D02*
X132081927Y-117030952D01*
X132081927Y-117030952D02*
X132062880Y-117088095D01*
X132062880Y-117088095D02*
X132024784Y-117126190D01*
X132024784Y-117126190D02*
X131986689Y-117145237D01*
X131986689Y-117145237D02*
X131910499Y-117164285D01*
X131910499Y-117164285D02*
X131853356Y-117164285D01*
X131853356Y-117164285D02*
X131777165Y-117145237D01*
X131777165Y-117145237D02*
X131739070Y-117126190D01*
X131739070Y-117126190D02*
X131700975Y-117088095D01*
X131700975Y-117088095D02*
X131681927Y-117030952D01*
X131681927Y-117030952D02*
X131681927Y-116992856D01*
X131681927Y-116992856D02*
X131700975Y-116935714D01*
X131700975Y-116935714D02*
X131720022Y-116916666D01*
X131815260Y-116573809D02*
X132081927Y-116573809D01*
X131662880Y-116669047D02*
X131948594Y-116764285D01*
X131948594Y-116764285D02*
X131948594Y-116516666D01*
D10*
X109308571Y-120546009D02*
X109451428Y-120593628D01*
X109451428Y-120593628D02*
X109499047Y-120641247D01*
X109499047Y-120641247D02*
X109546666Y-120736485D01*
X109546666Y-120736485D02*
X109546666Y-120879342D01*
X109546666Y-120879342D02*
X109499047Y-120974580D01*
X109499047Y-120974580D02*
X109451428Y-121022200D01*
X109451428Y-121022200D02*
X109356190Y-121069819D01*
X109356190Y-121069819D02*
X108975238Y-121069819D01*
X108975238Y-121069819D02*
X108975238Y-120069819D01*
X108975238Y-120069819D02*
X109308571Y-120069819D01*
X109308571Y-120069819D02*
X109403809Y-120117438D01*
X109403809Y-120117438D02*
X109451428Y-120165057D01*
X109451428Y-120165057D02*
X109499047Y-120260295D01*
X109499047Y-120260295D02*
X109499047Y-120355533D01*
X109499047Y-120355533D02*
X109451428Y-120450771D01*
X109451428Y-120450771D02*
X109403809Y-120498390D01*
X109403809Y-120498390D02*
X109308571Y-120546009D01*
X109308571Y-120546009D02*
X108975238Y-120546009D01*
X109927619Y-120165057D02*
X109975238Y-120117438D01*
X109975238Y-120117438D02*
X110070476Y-120069819D01*
X110070476Y-120069819D02*
X110308571Y-120069819D01*
X110308571Y-120069819D02*
X110403809Y-120117438D01*
X110403809Y-120117438D02*
X110451428Y-120165057D01*
X110451428Y-120165057D02*
X110499047Y-120260295D01*
X110499047Y-120260295D02*
X110499047Y-120355533D01*
X110499047Y-120355533D02*
X110451428Y-120498390D01*
X110451428Y-120498390D02*
X109880000Y-121069819D01*
X109880000Y-121069819D02*
X110499047Y-121069819D01*
X111260952Y-120546009D02*
X111403809Y-120593628D01*
X111403809Y-120593628D02*
X111451428Y-120641247D01*
X111451428Y-120641247D02*
X111499047Y-120736485D01*
X111499047Y-120736485D02*
X111499047Y-120879342D01*
X111499047Y-120879342D02*
X111451428Y-120974580D01*
X111451428Y-120974580D02*
X111403809Y-121022200D01*
X111403809Y-121022200D02*
X111308571Y-121069819D01*
X111308571Y-121069819D02*
X110927619Y-121069819D01*
X110927619Y-121069819D02*
X110927619Y-120069819D01*
X110927619Y-120069819D02*
X111260952Y-120069819D01*
X111260952Y-120069819D02*
X111356190Y-120117438D01*
X111356190Y-120117438D02*
X111403809Y-120165057D01*
X111403809Y-120165057D02*
X111451428Y-120260295D01*
X111451428Y-120260295D02*
X111451428Y-120355533D01*
X111451428Y-120355533D02*
X111403809Y-120450771D01*
X111403809Y-120450771D02*
X111356190Y-120498390D01*
X111356190Y-120498390D02*
X111260952Y-120546009D01*
X111260952Y-120546009D02*
X110927619Y-120546009D01*
X111927619Y-120688866D02*
X112689524Y-120688866D01*
X113070476Y-120069819D02*
X113737142Y-121069819D01*
X113737142Y-120069819D02*
X113070476Y-121069819D01*
X114118095Y-121069819D02*
X114118095Y-120069819D01*
X114118095Y-120546009D02*
X114689523Y-120546009D01*
X114689523Y-121069819D02*
X114689523Y-120069819D01*
X115165714Y-120688866D02*
X115927619Y-120688866D01*
X116356190Y-120784104D02*
X116832380Y-120784104D01*
X116260952Y-121069819D02*
X116594285Y-120069819D01*
X116594285Y-120069819D02*
X116927618Y-121069819D01*
D15*
%TO.C,J2*%
X124500000Y-123225000D02*
G75*
G02*
X124300000Y-123225000I-100000J0D01*
G01*
X124300000Y-123225000D02*
G75*
G02*
X124500000Y-123225000I100000J0D01*
G01*
D16*
X128300000Y-129675000D02*
G75*
G02*
X128100000Y-129875000I-200000J0D01*
G01*
X128300000Y-129590000D02*
G75*
G02*
X128500000Y-129275000I257500J57500D01*
G01*
X123300000Y-129875000D02*
G75*
G02*
X123100000Y-129675000I1J200001D01*
G01*
X122900000Y-129275000D02*
G75*
G02*
X123100000Y-129475000I-1J-200001D01*
G01*
X129700000Y-129575000D02*
X129450000Y-129825000D01*
X129700000Y-127575000D02*
X129470000Y-127575000D01*
X129700000Y-126675000D02*
X129700000Y-127575000D01*
X129460000Y-126675000D02*
X129700000Y-126675000D01*
X129450000Y-129825000D02*
X129075000Y-129450000D01*
X129450000Y-129325000D02*
X129700000Y-129575000D01*
X129450000Y-129275000D02*
X129450000Y-128575000D01*
X129450000Y-129275000D02*
X128500000Y-129275000D01*
X129450000Y-128575000D02*
X136700000Y-128575000D01*
X129450000Y-128575000D02*
X129450000Y-124275000D01*
X129450000Y-124275000D02*
X121950000Y-124275000D01*
X129075000Y-129450000D02*
X129075000Y-129325000D01*
X128300000Y-129590000D02*
X128300000Y-129675000D01*
X128100000Y-129875000D02*
X123300000Y-129875000D01*
X123100000Y-129475000D02*
X123100000Y-129675000D01*
X122325000Y-129450000D02*
X122325000Y-129325000D01*
X121950000Y-129825000D02*
X122325000Y-129450000D01*
X121950000Y-129325000D02*
X121700000Y-129575000D01*
X121950000Y-129275000D02*
X122900000Y-129275000D01*
X121950000Y-128575000D02*
X129450000Y-128575000D01*
X121950000Y-128575000D02*
X121950000Y-129275000D01*
X121950000Y-124275000D02*
X121950000Y-128575000D01*
X121940000Y-126675000D02*
X121700000Y-126675000D01*
X121700000Y-129575000D02*
X121950000Y-129825000D01*
X121700000Y-127575000D02*
X121920000Y-127575000D01*
X121700000Y-126675000D02*
X121700000Y-127575000D01*
%TO.C,U7*%
X123435000Y-79285000D02*
X128715000Y-79285000D01*
X123435000Y-84565000D02*
X123435000Y-79285000D01*
X123435000Y-84565000D02*
X128715000Y-84565000D01*
X128715000Y-84565000D02*
X128715000Y-79285000D01*
D15*
X124270000Y-87140000D02*
G75*
G02*
X124070000Y-87140000I-100000J0D01*
G01*
X124070000Y-87140000D02*
G75*
G02*
X124270000Y-87140000I100000J0D01*
G01*
D16*
%TO.C,LS1*%
X115635000Y-68925000D02*
X117635000Y-68925000D01*
X116635000Y-67925000D02*
X116635000Y-69925000D01*
X134045000Y-68925000D02*
X136045000Y-68925000D01*
X133075000Y-68925000D02*
G75*
G02*
X119175000Y-68925000I-6950000J0D01*
G01*
X119175000Y-68925000D02*
G75*
G02*
X133075000Y-68925000I6950000J0D01*
G01*
D17*
%TO.C,R1*%
X124025000Y-121437500D02*
X125625000Y-121437500D01*
X124025000Y-122262500D02*
X124025000Y-121437500D01*
X125625000Y-121437500D02*
X125625000Y-122262500D01*
X125625000Y-122262500D02*
X124025000Y-122262500D01*
%TO.C,R8*%
X117200000Y-111362500D02*
X118800000Y-111362500D01*
X117200000Y-112187500D02*
X117200000Y-111362500D01*
X118800000Y-111362500D02*
X118800000Y-112187500D01*
X118800000Y-112187500D02*
X117200000Y-112187500D01*
%TO.C,C15*%
X119925000Y-117350000D02*
X121525000Y-117350000D01*
X119925000Y-118150000D02*
X119925000Y-117350000D01*
X121525000Y-117350000D02*
X121525000Y-118150000D01*
X121525000Y-118150000D02*
X119925000Y-118150000D01*
%TO.C,C6*%
X127250000Y-91900000D02*
X128050000Y-91900000D01*
X127250000Y-93500000D02*
X127250000Y-91900000D01*
X128050000Y-91900000D02*
X128050000Y-93500000D01*
X128050000Y-93500000D02*
X127250000Y-93500000D01*
D16*
%TO.C,VR1*%
X113000000Y-111700000D02*
X115900000Y-111700000D01*
X113000000Y-113300000D02*
X113000000Y-111700000D01*
X115900000Y-111700000D02*
X115900000Y-113300000D01*
X115900000Y-113300000D02*
X113000000Y-113300000D01*
D15*
X113350000Y-115000000D02*
G75*
G02*
X113150000Y-115000000I-100000J0D01*
G01*
X113150000Y-115000000D02*
G75*
G02*
X113350000Y-115000000I100000J0D01*
G01*
D17*
%TO.C,C3*%
X121650000Y-103175000D02*
X122450000Y-103175000D01*
X121650000Y-104775000D02*
X121650000Y-103175000D01*
X122450000Y-103175000D02*
X122450000Y-104775000D01*
X122450000Y-104775000D02*
X121650000Y-104775000D01*
%TO.C,J4*%
X119555000Y-91660000D02*
X120825000Y-90390000D01*
X119555000Y-100550000D02*
X119555000Y-91660000D01*
X120825000Y-90390000D02*
X124635000Y-90390000D01*
X124635000Y-90390000D02*
X124635000Y-100550000D01*
X124635000Y-100550000D02*
X119555000Y-100550000D01*
D16*
%TO.C,U3*%
X129860000Y-97375000D02*
X132860000Y-97375000D01*
X129860000Y-99875000D02*
X129860000Y-97375000D01*
X132860000Y-97375000D02*
X132860000Y-99875000D01*
X132860000Y-99875000D02*
X129860000Y-99875000D01*
D15*
X129460000Y-97825000D02*
G75*
G02*
X129260000Y-97825000I-100000J0D01*
G01*
X129260000Y-97825000D02*
G75*
G02*
X129460000Y-97825000I100000J0D01*
G01*
D17*
%TO.C,C1*%
X112925000Y-97975000D02*
X114925000Y-97975000D01*
X112925000Y-99225000D02*
X112925000Y-97975000D01*
X114925000Y-97975000D02*
X114925000Y-99225000D01*
X114925000Y-99225000D02*
X112925000Y-99225000D01*
D16*
%TO.C,U4*%
X112060000Y-105025000D02*
X112060000Y-107025000D01*
X112060000Y-105025000D02*
X115060000Y-105025000D01*
X112060000Y-107025000D02*
X115060000Y-107025000D01*
X115060000Y-105025000D02*
X115060000Y-107025000D01*
D15*
X111185000Y-105275000D02*
G75*
G02*
X110985000Y-105275000I-100000J0D01*
G01*
X110985000Y-105275000D02*
G75*
G02*
X111185000Y-105275000I100000J0D01*
G01*
D17*
%TO.C,C2*%
X117425000Y-103400000D02*
X118675000Y-103400000D01*
X117425000Y-105400000D02*
X117425000Y-103400000D01*
X118675000Y-103400000D02*
X118675000Y-105400000D01*
X118675000Y-105400000D02*
X117425000Y-105400000D01*
%TO.C,C13*%
X116475000Y-100250000D02*
X118075000Y-100250000D01*
X116475000Y-101050000D02*
X116475000Y-100250000D01*
X118075000Y-100250000D02*
X118075000Y-101050000D01*
X118075000Y-101050000D02*
X116475000Y-101050000D01*
%TO.C,C5*%
X121725000Y-120050000D02*
X122525000Y-120050000D01*
X121725000Y-121650000D02*
X121725000Y-120050000D01*
X122525000Y-120050000D02*
X122525000Y-121650000D01*
X122525000Y-121650000D02*
X121725000Y-121650000D01*
%TO.C,U2*%
X126350000Y-104250000D02*
X132350000Y-104250000D01*
X126350000Y-111250000D02*
X126350000Y-104250000D01*
X132350000Y-104250000D02*
X133350000Y-105250000D01*
X133350000Y-105250000D02*
X133350000Y-111250000D01*
X133350000Y-111250000D02*
X126350000Y-111250000D01*
D16*
%TO.C,U6*%
X129262500Y-119112500D02*
X130887500Y-119112500D01*
X129262500Y-122037500D02*
X129262500Y-119112500D01*
X130887500Y-119112500D02*
X130887500Y-122037500D01*
X130887500Y-122037500D02*
X129262500Y-122037500D01*
D15*
X132730000Y-121520000D02*
G75*
G02*
X132530000Y-121520000I-100000J0D01*
G01*
X132530000Y-121520000D02*
G75*
G02*
X132730000Y-121520000I100000J0D01*
G01*
D17*
%TO.C,R6*%
X118487500Y-107650000D02*
X119312500Y-107650000D01*
X118487500Y-109250000D02*
X118487500Y-107650000D01*
X119312500Y-107650000D02*
X119312500Y-109250000D01*
X119312500Y-109250000D02*
X118487500Y-109250000D01*
%TO.C,C14*%
X117975000Y-114575000D02*
X119575000Y-114575000D01*
X117975000Y-115375000D02*
X117975000Y-114575000D01*
X119575000Y-114575000D02*
X119575000Y-115375000D01*
X119575000Y-115375000D02*
X117975000Y-115375000D01*
%TO.C,Q1*%
X133662500Y-74850000D02*
X134962500Y-74850000D01*
X133662500Y-77750000D02*
X133662500Y-74850000D01*
X134637500Y-77750000D02*
X133662500Y-77750000D01*
X134962500Y-74850000D02*
X134962500Y-77425000D01*
X134962500Y-77425000D02*
X134637500Y-77750000D01*
%TO.C,C12*%
X113625000Y-92850000D02*
X115225000Y-92850000D01*
X113625000Y-93650000D02*
X113625000Y-92850000D01*
X115225000Y-92850000D02*
X115225000Y-93650000D01*
X115225000Y-93650000D02*
X113625000Y-93650000D01*
%TO.C,C16*%
X124225000Y-114500000D02*
X125825000Y-114500000D01*
X124225000Y-115300000D02*
X124225000Y-114500000D01*
X125825000Y-114500000D02*
X125825000Y-115300000D01*
X125825000Y-115300000D02*
X124225000Y-115300000D01*
%TO.C,R3*%
X111850000Y-100987500D02*
X113450000Y-100987500D01*
X111850000Y-101812500D02*
X111850000Y-100987500D01*
X113450000Y-100987500D02*
X113450000Y-101812500D01*
X113450000Y-101812500D02*
X111850000Y-101812500D01*
%TO.C,R2*%
X128300000Y-116587500D02*
X129900000Y-116587500D01*
X128300000Y-117412500D02*
X128300000Y-116587500D01*
X129900000Y-116587500D02*
X129900000Y-117412500D01*
X129900000Y-117412500D02*
X128300000Y-117412500D01*
%TO.C,R4*%
X131112500Y-88050000D02*
X131937500Y-88050000D01*
X131112500Y-89650000D02*
X131112500Y-88050000D01*
X131937500Y-88050000D02*
X131937500Y-89650000D01*
X131937500Y-89650000D02*
X131112500Y-89650000D01*
%TO.C,C4*%
X131500000Y-116050000D02*
X132300000Y-116050000D01*
X131500000Y-117650000D02*
X131500000Y-116050000D01*
X132300000Y-116050000D02*
X132300000Y-117650000D01*
X132300000Y-117650000D02*
X131500000Y-117650000D01*
D16*
%TO.C,J1*%
X112850000Y-122500000D02*
X120250000Y-122500000D01*
X112850000Y-128250000D02*
X112850000Y-122500000D01*
X120250000Y-122500000D02*
X120250000Y-128250000D01*
X120250000Y-128250000D02*
X112850000Y-128250000D01*
D15*
X112210000Y-124850000D02*
G75*
G02*
X112010000Y-124850000I-100000J0D01*
G01*
X112010000Y-124850000D02*
G75*
G02*
X112210000Y-124850000I100000J0D01*
G01*
%TD*%
M02*
