%TF.GenerationSoftware,KiCad,Pcbnew,9.0.3*%
%TF.CreationDate,2026-02-21T19:03:40-03:00*%
%TF.ProjectId,Boros_Rocket_Plate_V4,426f726f-7320-4526-9f63-6b6574202d20,rev?*%
%TF.SameCoordinates,Original*%
%TF.FileFunction,Legend,Bot*%
%TF.FilePolarity,Positive*%
%FSLAX46Y46*%
G04 Gerber Fmt 4.6, Leading zero omitted, Abs format (unit mm)*
G04 Created by KiCad (PCBNEW 9.0.3) date 2026-02-21 19:03:40*
%MOMM*%
%LPD*%
G01*
G04 APERTURE LIST*
%ADD10C,0.100000*%
%ADD11C,0.200000*%
%ADD12C,0.625000*%
G04 APERTURE END LIST*
D10*
X127393458Y-95901417D02*
X127441078Y-95853798D01*
X127441078Y-95853798D02*
X127488697Y-95710941D01*
X127488697Y-95710941D02*
X127488697Y-95615703D01*
X127488697Y-95615703D02*
X127441078Y-95472846D01*
X127441078Y-95472846D02*
X127345839Y-95377608D01*
X127345839Y-95377608D02*
X127250601Y-95329989D01*
X127250601Y-95329989D02*
X127060125Y-95282370D01*
X127060125Y-95282370D02*
X126917268Y-95282370D01*
X126917268Y-95282370D02*
X126726792Y-95329989D01*
X126726792Y-95329989D02*
X126631554Y-95377608D01*
X126631554Y-95377608D02*
X126536316Y-95472846D01*
X126536316Y-95472846D02*
X126488697Y-95615703D01*
X126488697Y-95615703D02*
X126488697Y-95710941D01*
X126488697Y-95710941D02*
X126536316Y-95853798D01*
X126536316Y-95853798D02*
X126583935Y-95901417D01*
X127488697Y-96329989D02*
X126822030Y-96329989D01*
X127012506Y-96329989D02*
X126917268Y-96377608D01*
X126917268Y-96377608D02*
X126869649Y-96425227D01*
X126869649Y-96425227D02*
X126822030Y-96520465D01*
X126822030Y-96520465D02*
X126822030Y-96615703D01*
X127488697Y-97091894D02*
X127441078Y-96996656D01*
X127441078Y-96996656D02*
X127393458Y-96949037D01*
X127393458Y-96949037D02*
X127298220Y-96901418D01*
X127298220Y-96901418D02*
X127012506Y-96901418D01*
X127012506Y-96901418D02*
X126917268Y-96949037D01*
X126917268Y-96949037D02*
X126869649Y-96996656D01*
X126869649Y-96996656D02*
X126822030Y-97091894D01*
X126822030Y-97091894D02*
X126822030Y-97234751D01*
X126822030Y-97234751D02*
X126869649Y-97329989D01*
X126869649Y-97329989D02*
X126917268Y-97377608D01*
X126917268Y-97377608D02*
X127012506Y-97425227D01*
X127012506Y-97425227D02*
X127298220Y-97425227D01*
X127298220Y-97425227D02*
X127393458Y-97377608D01*
X127393458Y-97377608D02*
X127441078Y-97329989D01*
X127441078Y-97329989D02*
X127488697Y-97234751D01*
X127488697Y-97234751D02*
X127488697Y-97091894D01*
X127441078Y-97806180D02*
X127488697Y-97901418D01*
X127488697Y-97901418D02*
X127488697Y-98091894D01*
X127488697Y-98091894D02*
X127441078Y-98187132D01*
X127441078Y-98187132D02*
X127345839Y-98234751D01*
X127345839Y-98234751D02*
X127298220Y-98234751D01*
X127298220Y-98234751D02*
X127202982Y-98187132D01*
X127202982Y-98187132D02*
X127155363Y-98091894D01*
X127155363Y-98091894D02*
X127155363Y-97949037D01*
X127155363Y-97949037D02*
X127107744Y-97853799D01*
X127107744Y-97853799D02*
X127012506Y-97806180D01*
X127012506Y-97806180D02*
X126964887Y-97806180D01*
X126964887Y-97806180D02*
X126869649Y-97853799D01*
X126869649Y-97853799D02*
X126822030Y-97949037D01*
X126822030Y-97949037D02*
X126822030Y-98091894D01*
X126822030Y-98091894D02*
X126869649Y-98187132D01*
X127441078Y-98615704D02*
X127488697Y-98710942D01*
X127488697Y-98710942D02*
X127488697Y-98901418D01*
X127488697Y-98901418D02*
X127441078Y-98996656D01*
X127441078Y-98996656D02*
X127345839Y-99044275D01*
X127345839Y-99044275D02*
X127298220Y-99044275D01*
X127298220Y-99044275D02*
X127202982Y-98996656D01*
X127202982Y-98996656D02*
X127155363Y-98901418D01*
X127155363Y-98901418D02*
X127155363Y-98758561D01*
X127155363Y-98758561D02*
X127107744Y-98663323D01*
X127107744Y-98663323D02*
X127012506Y-98615704D01*
X127012506Y-98615704D02*
X126964887Y-98615704D01*
X126964887Y-98615704D02*
X126869649Y-98663323D01*
X126869649Y-98663323D02*
X126822030Y-98758561D01*
X126822030Y-98758561D02*
X126822030Y-98901418D01*
X126822030Y-98901418D02*
X126869649Y-98996656D01*
X126822030Y-100139514D02*
X127488697Y-100377609D01*
X126822030Y-100615704D02*
X127488697Y-100377609D01*
X127488697Y-100377609D02*
X127726792Y-100282371D01*
X127726792Y-100282371D02*
X127774411Y-100234752D01*
X127774411Y-100234752D02*
X127822030Y-100139514D01*
X127488697Y-101139514D02*
X127441078Y-101044276D01*
X127441078Y-101044276D02*
X127393458Y-100996657D01*
X127393458Y-100996657D02*
X127298220Y-100949038D01*
X127298220Y-100949038D02*
X127012506Y-100949038D01*
X127012506Y-100949038D02*
X126917268Y-100996657D01*
X126917268Y-100996657D02*
X126869649Y-101044276D01*
X126869649Y-101044276D02*
X126822030Y-101139514D01*
X126822030Y-101139514D02*
X126822030Y-101282371D01*
X126822030Y-101282371D02*
X126869649Y-101377609D01*
X126869649Y-101377609D02*
X126917268Y-101425228D01*
X126917268Y-101425228D02*
X127012506Y-101472847D01*
X127012506Y-101472847D02*
X127298220Y-101472847D01*
X127298220Y-101472847D02*
X127393458Y-101425228D01*
X127393458Y-101425228D02*
X127441078Y-101377609D01*
X127441078Y-101377609D02*
X127488697Y-101282371D01*
X127488697Y-101282371D02*
X127488697Y-101139514D01*
X126822030Y-102329990D02*
X127488697Y-102329990D01*
X126822030Y-101901419D02*
X127345839Y-101901419D01*
X127345839Y-101901419D02*
X127441078Y-101949038D01*
X127441078Y-101949038D02*
X127488697Y-102044276D01*
X127488697Y-102044276D02*
X127488697Y-102187133D01*
X127488697Y-102187133D02*
X127441078Y-102282371D01*
X127441078Y-102282371D02*
X127393458Y-102329990D01*
X127488697Y-102806181D02*
X126822030Y-102806181D01*
X127012506Y-102806181D02*
X126917268Y-102853800D01*
X126917268Y-102853800D02*
X126869649Y-102901419D01*
X126869649Y-102901419D02*
X126822030Y-102996657D01*
X126822030Y-102996657D02*
X126822030Y-103091895D01*
X126822030Y-104044277D02*
X126822030Y-104425229D01*
X127488697Y-104187134D02*
X126631554Y-104187134D01*
X126631554Y-104187134D02*
X126536316Y-104234753D01*
X126536316Y-104234753D02*
X126488697Y-104329991D01*
X126488697Y-104329991D02*
X126488697Y-104425229D01*
X127488697Y-104758563D02*
X126822030Y-104758563D01*
X126488697Y-104758563D02*
X126536316Y-104710944D01*
X126536316Y-104710944D02*
X126583935Y-104758563D01*
X126583935Y-104758563D02*
X126536316Y-104806182D01*
X126536316Y-104806182D02*
X126488697Y-104758563D01*
X126488697Y-104758563D02*
X126583935Y-104758563D01*
X126822030Y-105234753D02*
X127488697Y-105234753D01*
X126917268Y-105234753D02*
X126869649Y-105282372D01*
X126869649Y-105282372D02*
X126822030Y-105377610D01*
X126822030Y-105377610D02*
X126822030Y-105520467D01*
X126822030Y-105520467D02*
X126869649Y-105615705D01*
X126869649Y-105615705D02*
X126964887Y-105663324D01*
X126964887Y-105663324D02*
X127488697Y-105663324D01*
X126822030Y-106568086D02*
X127631554Y-106568086D01*
X127631554Y-106568086D02*
X127726792Y-106520467D01*
X127726792Y-106520467D02*
X127774411Y-106472848D01*
X127774411Y-106472848D02*
X127822030Y-106377610D01*
X127822030Y-106377610D02*
X127822030Y-106234753D01*
X127822030Y-106234753D02*
X127774411Y-106139515D01*
X127441078Y-106568086D02*
X127488697Y-106472848D01*
X127488697Y-106472848D02*
X127488697Y-106282372D01*
X127488697Y-106282372D02*
X127441078Y-106187134D01*
X127441078Y-106187134D02*
X127393458Y-106139515D01*
X127393458Y-106139515D02*
X127298220Y-106091896D01*
X127298220Y-106091896D02*
X127012506Y-106091896D01*
X127012506Y-106091896D02*
X126917268Y-106139515D01*
X126917268Y-106139515D02*
X126869649Y-106187134D01*
X126869649Y-106187134D02*
X126822030Y-106282372D01*
X126822030Y-106282372D02*
X126822030Y-106472848D01*
X126822030Y-106472848D02*
X126869649Y-106568086D01*
X127441078Y-107425229D02*
X127488697Y-107329991D01*
X127488697Y-107329991D02*
X127488697Y-107139515D01*
X127488697Y-107139515D02*
X127441078Y-107044277D01*
X127441078Y-107044277D02*
X127345839Y-106996658D01*
X127345839Y-106996658D02*
X126964887Y-106996658D01*
X126964887Y-106996658D02*
X126869649Y-107044277D01*
X126869649Y-107044277D02*
X126822030Y-107139515D01*
X126822030Y-107139515D02*
X126822030Y-107329991D01*
X126822030Y-107329991D02*
X126869649Y-107425229D01*
X126869649Y-107425229D02*
X126964887Y-107472848D01*
X126964887Y-107472848D02*
X127060125Y-107472848D01*
X127060125Y-107472848D02*
X127155363Y-106996658D01*
X127488697Y-107901420D02*
X126822030Y-107901420D01*
X127012506Y-107901420D02*
X126917268Y-107949039D01*
X126917268Y-107949039D02*
X126869649Y-107996658D01*
X126869649Y-107996658D02*
X126822030Y-108091896D01*
X126822030Y-108091896D02*
X126822030Y-108187134D01*
X127441078Y-108472849D02*
X127488697Y-108568087D01*
X127488697Y-108568087D02*
X127488697Y-108758563D01*
X127488697Y-108758563D02*
X127441078Y-108853801D01*
X127441078Y-108853801D02*
X127345839Y-108901420D01*
X127345839Y-108901420D02*
X127298220Y-108901420D01*
X127298220Y-108901420D02*
X127202982Y-108853801D01*
X127202982Y-108853801D02*
X127155363Y-108758563D01*
X127155363Y-108758563D02*
X127155363Y-108615706D01*
X127155363Y-108615706D02*
X127107744Y-108520468D01*
X127107744Y-108520468D02*
X127012506Y-108472849D01*
X127012506Y-108472849D02*
X126964887Y-108472849D01*
X126964887Y-108472849D02*
X126869649Y-108520468D01*
X126869649Y-108520468D02*
X126822030Y-108615706D01*
X126822030Y-108615706D02*
X126822030Y-108758563D01*
X126822030Y-108758563D02*
X126869649Y-108853801D01*
X127441078Y-109377611D02*
X127488697Y-109377611D01*
X127488697Y-109377611D02*
X127583935Y-109329992D01*
X127583935Y-109329992D02*
X127631554Y-109282373D01*
X129098641Y-95758560D02*
X128574831Y-95758560D01*
X128574831Y-95758560D02*
X128479593Y-95710941D01*
X128479593Y-95710941D02*
X128431974Y-95615703D01*
X128431974Y-95615703D02*
X128431974Y-95425227D01*
X128431974Y-95425227D02*
X128479593Y-95329989D01*
X129051022Y-95758560D02*
X129098641Y-95663322D01*
X129098641Y-95663322D02*
X129098641Y-95425227D01*
X129098641Y-95425227D02*
X129051022Y-95329989D01*
X129051022Y-95329989D02*
X128955783Y-95282370D01*
X128955783Y-95282370D02*
X128860545Y-95282370D01*
X128860545Y-95282370D02*
X128765307Y-95329989D01*
X128765307Y-95329989D02*
X128717688Y-95425227D01*
X128717688Y-95425227D02*
X128717688Y-95663322D01*
X128717688Y-95663322D02*
X128670069Y-95758560D01*
X128431974Y-96234751D02*
X129098641Y-96234751D01*
X128527212Y-96234751D02*
X128479593Y-96282370D01*
X128479593Y-96282370D02*
X128431974Y-96377608D01*
X128431974Y-96377608D02*
X128431974Y-96520465D01*
X128431974Y-96520465D02*
X128479593Y-96615703D01*
X128479593Y-96615703D02*
X128574831Y-96663322D01*
X128574831Y-96663322D02*
X129098641Y-96663322D01*
X129098641Y-97568084D02*
X128098641Y-97568084D01*
X129051022Y-97568084D02*
X129098641Y-97472846D01*
X129098641Y-97472846D02*
X129098641Y-97282370D01*
X129098641Y-97282370D02*
X129051022Y-97187132D01*
X129051022Y-97187132D02*
X129003402Y-97139513D01*
X129003402Y-97139513D02*
X128908164Y-97091894D01*
X128908164Y-97091894D02*
X128622450Y-97091894D01*
X128622450Y-97091894D02*
X128527212Y-97139513D01*
X128527212Y-97139513D02*
X128479593Y-97187132D01*
X128479593Y-97187132D02*
X128431974Y-97282370D01*
X128431974Y-97282370D02*
X128431974Y-97472846D01*
X128431974Y-97472846D02*
X128479593Y-97568084D01*
X129051022Y-99187132D02*
X129098641Y-99091894D01*
X129098641Y-99091894D02*
X129098641Y-98901418D01*
X129098641Y-98901418D02*
X129051022Y-98806180D01*
X129051022Y-98806180D02*
X128955783Y-98758561D01*
X128955783Y-98758561D02*
X128574831Y-98758561D01*
X128574831Y-98758561D02*
X128479593Y-98806180D01*
X128479593Y-98806180D02*
X128431974Y-98901418D01*
X128431974Y-98901418D02*
X128431974Y-99091894D01*
X128431974Y-99091894D02*
X128479593Y-99187132D01*
X128479593Y-99187132D02*
X128574831Y-99234751D01*
X128574831Y-99234751D02*
X128670069Y-99234751D01*
X128670069Y-99234751D02*
X128765307Y-98758561D01*
X129098641Y-99568085D02*
X128431974Y-100091894D01*
X128431974Y-99568085D02*
X129098641Y-100091894D01*
X128431974Y-100472847D02*
X129431974Y-100472847D01*
X128479593Y-100472847D02*
X128431974Y-100568085D01*
X128431974Y-100568085D02*
X128431974Y-100758561D01*
X128431974Y-100758561D02*
X128479593Y-100853799D01*
X128479593Y-100853799D02*
X128527212Y-100901418D01*
X128527212Y-100901418D02*
X128622450Y-100949037D01*
X128622450Y-100949037D02*
X128908164Y-100949037D01*
X128908164Y-100949037D02*
X129003402Y-100901418D01*
X129003402Y-100901418D02*
X129051022Y-100853799D01*
X129051022Y-100853799D02*
X129098641Y-100758561D01*
X129098641Y-100758561D02*
X129098641Y-100568085D01*
X129098641Y-100568085D02*
X129051022Y-100472847D01*
X129051022Y-101758561D02*
X129098641Y-101663323D01*
X129098641Y-101663323D02*
X129098641Y-101472847D01*
X129098641Y-101472847D02*
X129051022Y-101377609D01*
X129051022Y-101377609D02*
X128955783Y-101329990D01*
X128955783Y-101329990D02*
X128574831Y-101329990D01*
X128574831Y-101329990D02*
X128479593Y-101377609D01*
X128479593Y-101377609D02*
X128431974Y-101472847D01*
X128431974Y-101472847D02*
X128431974Y-101663323D01*
X128431974Y-101663323D02*
X128479593Y-101758561D01*
X128479593Y-101758561D02*
X128574831Y-101806180D01*
X128574831Y-101806180D02*
X128670069Y-101806180D01*
X128670069Y-101806180D02*
X128765307Y-101329990D01*
X129051022Y-102663323D02*
X129098641Y-102568085D01*
X129098641Y-102568085D02*
X129098641Y-102377609D01*
X129098641Y-102377609D02*
X129051022Y-102282371D01*
X129051022Y-102282371D02*
X129003402Y-102234752D01*
X129003402Y-102234752D02*
X128908164Y-102187133D01*
X128908164Y-102187133D02*
X128622450Y-102187133D01*
X128622450Y-102187133D02*
X128527212Y-102234752D01*
X128527212Y-102234752D02*
X128479593Y-102282371D01*
X128479593Y-102282371D02*
X128431974Y-102377609D01*
X128431974Y-102377609D02*
X128431974Y-102568085D01*
X128431974Y-102568085D02*
X128479593Y-102663323D01*
X128431974Y-102949038D02*
X128431974Y-103329990D01*
X128098641Y-103091895D02*
X128955783Y-103091895D01*
X128955783Y-103091895D02*
X129051022Y-103139514D01*
X129051022Y-103139514D02*
X129098641Y-103234752D01*
X129098641Y-103234752D02*
X129098641Y-103329990D01*
X129051022Y-104377610D02*
X129098641Y-104472848D01*
X129098641Y-104472848D02*
X129098641Y-104663324D01*
X129098641Y-104663324D02*
X129051022Y-104758562D01*
X129051022Y-104758562D02*
X128955783Y-104806181D01*
X128955783Y-104806181D02*
X128908164Y-104806181D01*
X128908164Y-104806181D02*
X128812926Y-104758562D01*
X128812926Y-104758562D02*
X128765307Y-104663324D01*
X128765307Y-104663324D02*
X128765307Y-104520467D01*
X128765307Y-104520467D02*
X128717688Y-104425229D01*
X128717688Y-104425229D02*
X128622450Y-104377610D01*
X128622450Y-104377610D02*
X128574831Y-104377610D01*
X128574831Y-104377610D02*
X128479593Y-104425229D01*
X128479593Y-104425229D02*
X128431974Y-104520467D01*
X128431974Y-104520467D02*
X128431974Y-104663324D01*
X128431974Y-104663324D02*
X128479593Y-104758562D01*
X129098641Y-105377610D02*
X129051022Y-105282372D01*
X129051022Y-105282372D02*
X129003402Y-105234753D01*
X129003402Y-105234753D02*
X128908164Y-105187134D01*
X128908164Y-105187134D02*
X128622450Y-105187134D01*
X128622450Y-105187134D02*
X128527212Y-105234753D01*
X128527212Y-105234753D02*
X128479593Y-105282372D01*
X128479593Y-105282372D02*
X128431974Y-105377610D01*
X128431974Y-105377610D02*
X128431974Y-105520467D01*
X128431974Y-105520467D02*
X128479593Y-105615705D01*
X128479593Y-105615705D02*
X128527212Y-105663324D01*
X128527212Y-105663324D02*
X128622450Y-105710943D01*
X128622450Y-105710943D02*
X128908164Y-105710943D01*
X128908164Y-105710943D02*
X129003402Y-105663324D01*
X129003402Y-105663324D02*
X129051022Y-105615705D01*
X129051022Y-105615705D02*
X129098641Y-105520467D01*
X129098641Y-105520467D02*
X129098641Y-105377610D01*
X129098641Y-106139515D02*
X128431974Y-106139515D01*
X128527212Y-106139515D02*
X128479593Y-106187134D01*
X128479593Y-106187134D02*
X128431974Y-106282372D01*
X128431974Y-106282372D02*
X128431974Y-106425229D01*
X128431974Y-106425229D02*
X128479593Y-106520467D01*
X128479593Y-106520467D02*
X128574831Y-106568086D01*
X128574831Y-106568086D02*
X129098641Y-106568086D01*
X128574831Y-106568086D02*
X128479593Y-106615705D01*
X128479593Y-106615705D02*
X128431974Y-106710943D01*
X128431974Y-106710943D02*
X128431974Y-106853800D01*
X128431974Y-106853800D02*
X128479593Y-106949039D01*
X128479593Y-106949039D02*
X128574831Y-106996658D01*
X128574831Y-106996658D02*
X129098641Y-106996658D01*
X129051022Y-107853800D02*
X129098641Y-107758562D01*
X129098641Y-107758562D02*
X129098641Y-107568086D01*
X129098641Y-107568086D02*
X129051022Y-107472848D01*
X129051022Y-107472848D02*
X128955783Y-107425229D01*
X128955783Y-107425229D02*
X128574831Y-107425229D01*
X128574831Y-107425229D02*
X128479593Y-107472848D01*
X128479593Y-107472848D02*
X128431974Y-107568086D01*
X128431974Y-107568086D02*
X128431974Y-107758562D01*
X128431974Y-107758562D02*
X128479593Y-107853800D01*
X128479593Y-107853800D02*
X128574831Y-107901419D01*
X128574831Y-107901419D02*
X128670069Y-107901419D01*
X128670069Y-107901419D02*
X128765307Y-107425229D01*
X128431974Y-109520467D02*
X129241498Y-109520467D01*
X129241498Y-109520467D02*
X129336736Y-109472848D01*
X129336736Y-109472848D02*
X129384355Y-109425229D01*
X129384355Y-109425229D02*
X129431974Y-109329991D01*
X129431974Y-109329991D02*
X129431974Y-109187134D01*
X129431974Y-109187134D02*
X129384355Y-109091896D01*
X129051022Y-109520467D02*
X129098641Y-109425229D01*
X129098641Y-109425229D02*
X129098641Y-109234753D01*
X129098641Y-109234753D02*
X129051022Y-109139515D01*
X129051022Y-109139515D02*
X129003402Y-109091896D01*
X129003402Y-109091896D02*
X128908164Y-109044277D01*
X128908164Y-109044277D02*
X128622450Y-109044277D01*
X128622450Y-109044277D02*
X128527212Y-109091896D01*
X128527212Y-109091896D02*
X128479593Y-109139515D01*
X128479593Y-109139515D02*
X128431974Y-109234753D01*
X128431974Y-109234753D02*
X128431974Y-109425229D01*
X128431974Y-109425229D02*
X128479593Y-109520467D01*
X129098641Y-110139515D02*
X129051022Y-110044277D01*
X129051022Y-110044277D02*
X129003402Y-109996658D01*
X129003402Y-109996658D02*
X128908164Y-109949039D01*
X128908164Y-109949039D02*
X128622450Y-109949039D01*
X128622450Y-109949039D02*
X128527212Y-109996658D01*
X128527212Y-109996658D02*
X128479593Y-110044277D01*
X128479593Y-110044277D02*
X128431974Y-110139515D01*
X128431974Y-110139515D02*
X128431974Y-110282372D01*
X128431974Y-110282372D02*
X128479593Y-110377610D01*
X128479593Y-110377610D02*
X128527212Y-110425229D01*
X128527212Y-110425229D02*
X128622450Y-110472848D01*
X128622450Y-110472848D02*
X128908164Y-110472848D01*
X128908164Y-110472848D02*
X129003402Y-110425229D01*
X129003402Y-110425229D02*
X129051022Y-110377610D01*
X129051022Y-110377610D02*
X129098641Y-110282372D01*
X129098641Y-110282372D02*
X129098641Y-110139515D01*
X129098641Y-111044277D02*
X129051022Y-110949039D01*
X129051022Y-110949039D02*
X129003402Y-110901420D01*
X129003402Y-110901420D02*
X128908164Y-110853801D01*
X128908164Y-110853801D02*
X128622450Y-110853801D01*
X128622450Y-110853801D02*
X128527212Y-110901420D01*
X128527212Y-110901420D02*
X128479593Y-110949039D01*
X128479593Y-110949039D02*
X128431974Y-111044277D01*
X128431974Y-111044277D02*
X128431974Y-111187134D01*
X128431974Y-111187134D02*
X128479593Y-111282372D01*
X128479593Y-111282372D02*
X128527212Y-111329991D01*
X128527212Y-111329991D02*
X128622450Y-111377610D01*
X128622450Y-111377610D02*
X128908164Y-111377610D01*
X128908164Y-111377610D02*
X129003402Y-111329991D01*
X129003402Y-111329991D02*
X129051022Y-111282372D01*
X129051022Y-111282372D02*
X129098641Y-111187134D01*
X129098641Y-111187134D02*
X129098641Y-111044277D01*
X129098641Y-112234753D02*
X128098641Y-112234753D01*
X129051022Y-112234753D02*
X129098641Y-112139515D01*
X129098641Y-112139515D02*
X129098641Y-111949039D01*
X129098641Y-111949039D02*
X129051022Y-111853801D01*
X129051022Y-111853801D02*
X129003402Y-111806182D01*
X129003402Y-111806182D02*
X128908164Y-111758563D01*
X128908164Y-111758563D02*
X128622450Y-111758563D01*
X128622450Y-111758563D02*
X128527212Y-111806182D01*
X128527212Y-111806182D02*
X128479593Y-111853801D01*
X128479593Y-111853801D02*
X128431974Y-111949039D01*
X128431974Y-111949039D02*
X128431974Y-112139515D01*
X128431974Y-112139515D02*
X128479593Y-112234753D01*
X129098641Y-113901420D02*
X128098641Y-113901420D01*
X129051022Y-113901420D02*
X129098641Y-113806182D01*
X129098641Y-113806182D02*
X129098641Y-113615706D01*
X129098641Y-113615706D02*
X129051022Y-113520468D01*
X129051022Y-113520468D02*
X129003402Y-113472849D01*
X129003402Y-113472849D02*
X128908164Y-113425230D01*
X128908164Y-113425230D02*
X128622450Y-113425230D01*
X128622450Y-113425230D02*
X128527212Y-113472849D01*
X128527212Y-113472849D02*
X128479593Y-113520468D01*
X128479593Y-113520468D02*
X128431974Y-113615706D01*
X128431974Y-113615706D02*
X128431974Y-113806182D01*
X128431974Y-113806182D02*
X128479593Y-113901420D01*
X129098641Y-114806182D02*
X128574831Y-114806182D01*
X128574831Y-114806182D02*
X128479593Y-114758563D01*
X128479593Y-114758563D02*
X128431974Y-114663325D01*
X128431974Y-114663325D02*
X128431974Y-114472849D01*
X128431974Y-114472849D02*
X128479593Y-114377611D01*
X129051022Y-114806182D02*
X129098641Y-114710944D01*
X129098641Y-114710944D02*
X129098641Y-114472849D01*
X129098641Y-114472849D02*
X129051022Y-114377611D01*
X129051022Y-114377611D02*
X128955783Y-114329992D01*
X128955783Y-114329992D02*
X128860545Y-114329992D01*
X128860545Y-114329992D02*
X128765307Y-114377611D01*
X128765307Y-114377611D02*
X128717688Y-114472849D01*
X128717688Y-114472849D02*
X128717688Y-114710944D01*
X128717688Y-114710944D02*
X128670069Y-114806182D01*
X128431974Y-115139516D02*
X128431974Y-115520468D01*
X128098641Y-115282373D02*
X128955783Y-115282373D01*
X128955783Y-115282373D02*
X129051022Y-115329992D01*
X129051022Y-115329992D02*
X129098641Y-115425230D01*
X129098641Y-115425230D02*
X129098641Y-115520468D01*
X129098641Y-116282373D02*
X128574831Y-116282373D01*
X128574831Y-116282373D02*
X128479593Y-116234754D01*
X128479593Y-116234754D02*
X128431974Y-116139516D01*
X128431974Y-116139516D02*
X128431974Y-115949040D01*
X128431974Y-115949040D02*
X128479593Y-115853802D01*
X129051022Y-116282373D02*
X129098641Y-116187135D01*
X129098641Y-116187135D02*
X129098641Y-115949040D01*
X129098641Y-115949040D02*
X129051022Y-115853802D01*
X129051022Y-115853802D02*
X128955783Y-115806183D01*
X128955783Y-115806183D02*
X128860545Y-115806183D01*
X128860545Y-115806183D02*
X128765307Y-115853802D01*
X128765307Y-115853802D02*
X128717688Y-115949040D01*
X128717688Y-115949040D02*
X128717688Y-116187135D01*
X128717688Y-116187135D02*
X128670069Y-116282373D01*
X128431974Y-117377612D02*
X128431974Y-117758564D01*
X129098641Y-117520469D02*
X128241498Y-117520469D01*
X128241498Y-117520469D02*
X128146260Y-117568088D01*
X128146260Y-117568088D02*
X128098641Y-117663326D01*
X128098641Y-117663326D02*
X128098641Y-117758564D01*
X129098641Y-118091898D02*
X128431974Y-118091898D01*
X128622450Y-118091898D02*
X128527212Y-118139517D01*
X128527212Y-118139517D02*
X128479593Y-118187136D01*
X128479593Y-118187136D02*
X128431974Y-118282374D01*
X128431974Y-118282374D02*
X128431974Y-118377612D01*
X129098641Y-118853803D02*
X129051022Y-118758565D01*
X129051022Y-118758565D02*
X129003402Y-118710946D01*
X129003402Y-118710946D02*
X128908164Y-118663327D01*
X128908164Y-118663327D02*
X128622450Y-118663327D01*
X128622450Y-118663327D02*
X128527212Y-118710946D01*
X128527212Y-118710946D02*
X128479593Y-118758565D01*
X128479593Y-118758565D02*
X128431974Y-118853803D01*
X128431974Y-118853803D02*
X128431974Y-118996660D01*
X128431974Y-118996660D02*
X128479593Y-119091898D01*
X128479593Y-119091898D02*
X128527212Y-119139517D01*
X128527212Y-119139517D02*
X128622450Y-119187136D01*
X128622450Y-119187136D02*
X128908164Y-119187136D01*
X128908164Y-119187136D02*
X129003402Y-119139517D01*
X129003402Y-119139517D02*
X129051022Y-119091898D01*
X129051022Y-119091898D02*
X129098641Y-118996660D01*
X129098641Y-118996660D02*
X129098641Y-118853803D01*
X129098641Y-119615708D02*
X128431974Y-119615708D01*
X128527212Y-119615708D02*
X128479593Y-119663327D01*
X128479593Y-119663327D02*
X128431974Y-119758565D01*
X128431974Y-119758565D02*
X128431974Y-119901422D01*
X128431974Y-119901422D02*
X128479593Y-119996660D01*
X128479593Y-119996660D02*
X128574831Y-120044279D01*
X128574831Y-120044279D02*
X129098641Y-120044279D01*
X128574831Y-120044279D02*
X128479593Y-120091898D01*
X128479593Y-120091898D02*
X128431974Y-120187136D01*
X128431974Y-120187136D02*
X128431974Y-120329993D01*
X128431974Y-120329993D02*
X128479593Y-120425232D01*
X128479593Y-120425232D02*
X128574831Y-120472851D01*
X128574831Y-120472851D02*
X129098641Y-120472851D01*
X128431974Y-121568089D02*
X128431974Y-121949041D01*
X128098641Y-121710946D02*
X128955783Y-121710946D01*
X128955783Y-121710946D02*
X129051022Y-121758565D01*
X129051022Y-121758565D02*
X129098641Y-121853803D01*
X129098641Y-121853803D02*
X129098641Y-121949041D01*
X129098641Y-122282375D02*
X128098641Y-122282375D01*
X129098641Y-122710946D02*
X128574831Y-122710946D01*
X128574831Y-122710946D02*
X128479593Y-122663327D01*
X128479593Y-122663327D02*
X128431974Y-122568089D01*
X128431974Y-122568089D02*
X128431974Y-122425232D01*
X128431974Y-122425232D02*
X128479593Y-122329994D01*
X128479593Y-122329994D02*
X128527212Y-122282375D01*
X129098641Y-123615708D02*
X128574831Y-123615708D01*
X128574831Y-123615708D02*
X128479593Y-123568089D01*
X128479593Y-123568089D02*
X128431974Y-123472851D01*
X128431974Y-123472851D02*
X128431974Y-123282375D01*
X128431974Y-123282375D02*
X128479593Y-123187137D01*
X129051022Y-123615708D02*
X129098641Y-123520470D01*
X129098641Y-123520470D02*
X129098641Y-123282375D01*
X129098641Y-123282375D02*
X129051022Y-123187137D01*
X129051022Y-123187137D02*
X128955783Y-123139518D01*
X128955783Y-123139518D02*
X128860545Y-123139518D01*
X128860545Y-123139518D02*
X128765307Y-123187137D01*
X128765307Y-123187137D02*
X128717688Y-123282375D01*
X128717688Y-123282375D02*
X128717688Y-123520470D01*
X128717688Y-123520470D02*
X128670069Y-123615708D01*
X128431974Y-123949042D02*
X128431974Y-124329994D01*
X128098641Y-124091899D02*
X128955783Y-124091899D01*
X128955783Y-124091899D02*
X129051022Y-124139518D01*
X129051022Y-124139518D02*
X129098641Y-124234756D01*
X129098641Y-124234756D02*
X129098641Y-124329994D01*
X129003402Y-124663328D02*
X129051022Y-124710947D01*
X129051022Y-124710947D02*
X129098641Y-124663328D01*
X129098641Y-124663328D02*
X129051022Y-124615709D01*
X129051022Y-124615709D02*
X129003402Y-124663328D01*
X129003402Y-124663328D02*
X129098641Y-124663328D01*
X129003402Y-125139518D02*
X129051022Y-125187137D01*
X129051022Y-125187137D02*
X129098641Y-125139518D01*
X129098641Y-125139518D02*
X129051022Y-125091899D01*
X129051022Y-125091899D02*
X129003402Y-125139518D01*
X129003402Y-125139518D02*
X129098641Y-125139518D01*
D11*
X135443409Y-117553006D02*
X135491028Y-117695863D01*
X135491028Y-117695863D02*
X135538647Y-117743482D01*
X135538647Y-117743482D02*
X135633885Y-117791101D01*
X135633885Y-117791101D02*
X135776742Y-117791101D01*
X135776742Y-117791101D02*
X135871980Y-117743482D01*
X135871980Y-117743482D02*
X135919600Y-117695863D01*
X135919600Y-117695863D02*
X135967219Y-117600625D01*
X135967219Y-117600625D02*
X135967219Y-117219673D01*
X135967219Y-117219673D02*
X134967219Y-117219673D01*
X134967219Y-117219673D02*
X134967219Y-117553006D01*
X134967219Y-117553006D02*
X135014838Y-117648244D01*
X135014838Y-117648244D02*
X135062457Y-117695863D01*
X135062457Y-117695863D02*
X135157695Y-117743482D01*
X135157695Y-117743482D02*
X135252933Y-117743482D01*
X135252933Y-117743482D02*
X135348171Y-117695863D01*
X135348171Y-117695863D02*
X135395790Y-117648244D01*
X135395790Y-117648244D02*
X135443409Y-117553006D01*
X135443409Y-117553006D02*
X135443409Y-117219673D01*
X135300552Y-118124435D02*
X135967219Y-118362530D01*
X135300552Y-118600625D02*
X135967219Y-118362530D01*
X135967219Y-118362530D02*
X136205314Y-118267292D01*
X136205314Y-118267292D02*
X136252933Y-118219673D01*
X136252933Y-118219673D02*
X136300552Y-118124435D01*
X135871980Y-118981578D02*
X135919600Y-119029197D01*
X135919600Y-119029197D02*
X135967219Y-118981578D01*
X135967219Y-118981578D02*
X135919600Y-118933959D01*
X135919600Y-118933959D02*
X135871980Y-118981578D01*
X135871980Y-118981578D02*
X135967219Y-118981578D01*
X135348171Y-118981578D02*
X135395790Y-119029197D01*
X135395790Y-119029197D02*
X135443409Y-118981578D01*
X135443409Y-118981578D02*
X135395790Y-118933959D01*
X135395790Y-118933959D02*
X135348171Y-118981578D01*
X135348171Y-118981578D02*
X135443409Y-118981578D01*
X134967219Y-120076816D02*
X134967219Y-120648244D01*
X135967219Y-120362530D02*
X134967219Y-120362530D01*
X135967219Y-120981578D02*
X134967219Y-120981578D01*
X135967219Y-121410149D02*
X135443409Y-121410149D01*
X135443409Y-121410149D02*
X135348171Y-121362530D01*
X135348171Y-121362530D02*
X135300552Y-121267292D01*
X135300552Y-121267292D02*
X135300552Y-121124435D01*
X135300552Y-121124435D02*
X135348171Y-121029197D01*
X135348171Y-121029197D02*
X135395790Y-120981578D01*
X135919600Y-122267292D02*
X135967219Y-122172054D01*
X135967219Y-122172054D02*
X135967219Y-121981578D01*
X135967219Y-121981578D02*
X135919600Y-121886340D01*
X135919600Y-121886340D02*
X135824361Y-121838721D01*
X135824361Y-121838721D02*
X135443409Y-121838721D01*
X135443409Y-121838721D02*
X135348171Y-121886340D01*
X135348171Y-121886340D02*
X135300552Y-121981578D01*
X135300552Y-121981578D02*
X135300552Y-122172054D01*
X135300552Y-122172054D02*
X135348171Y-122267292D01*
X135348171Y-122267292D02*
X135443409Y-122314911D01*
X135443409Y-122314911D02*
X135538647Y-122314911D01*
X135538647Y-122314911D02*
X135633885Y-121838721D01*
X135300552Y-123172054D02*
X135967219Y-123172054D01*
X135300552Y-122743483D02*
X135824361Y-122743483D01*
X135824361Y-122743483D02*
X135919600Y-122791102D01*
X135919600Y-122791102D02*
X135967219Y-122886340D01*
X135967219Y-122886340D02*
X135967219Y-123029197D01*
X135967219Y-123029197D02*
X135919600Y-123124435D01*
X135919600Y-123124435D02*
X135871980Y-123172054D01*
X135919600Y-123600626D02*
X135967219Y-123695864D01*
X135967219Y-123695864D02*
X135967219Y-123886340D01*
X135967219Y-123886340D02*
X135919600Y-123981578D01*
X135919600Y-123981578D02*
X135824361Y-124029197D01*
X135824361Y-124029197D02*
X135776742Y-124029197D01*
X135776742Y-124029197D02*
X135681504Y-123981578D01*
X135681504Y-123981578D02*
X135633885Y-123886340D01*
X135633885Y-123886340D02*
X135633885Y-123743483D01*
X135633885Y-123743483D02*
X135586266Y-123648245D01*
X135586266Y-123648245D02*
X135491028Y-123600626D01*
X135491028Y-123600626D02*
X135443409Y-123600626D01*
X135443409Y-123600626D02*
X135348171Y-123648245D01*
X135348171Y-123648245D02*
X135300552Y-123743483D01*
X135300552Y-123743483D02*
X135300552Y-123886340D01*
X135300552Y-123886340D02*
X135348171Y-123981578D01*
X135967219Y-124457769D02*
X134967219Y-124457769D01*
X135443409Y-124457769D02*
X135443409Y-125029197D01*
X135967219Y-125029197D02*
X134967219Y-125029197D01*
X135919600Y-125886340D02*
X135967219Y-125791102D01*
X135967219Y-125791102D02*
X135967219Y-125600626D01*
X135967219Y-125600626D02*
X135919600Y-125505388D01*
X135919600Y-125505388D02*
X135824361Y-125457769D01*
X135824361Y-125457769D02*
X135443409Y-125457769D01*
X135443409Y-125457769D02*
X135348171Y-125505388D01*
X135348171Y-125505388D02*
X135300552Y-125600626D01*
X135300552Y-125600626D02*
X135300552Y-125791102D01*
X135300552Y-125791102D02*
X135348171Y-125886340D01*
X135348171Y-125886340D02*
X135443409Y-125933959D01*
X135443409Y-125933959D02*
X135538647Y-125933959D01*
X135538647Y-125933959D02*
X135633885Y-125457769D01*
X135300552Y-126362531D02*
X135967219Y-126362531D01*
X135395790Y-126362531D02*
X135348171Y-126410150D01*
X135348171Y-126410150D02*
X135300552Y-126505388D01*
X135300552Y-126505388D02*
X135300552Y-126648245D01*
X135300552Y-126648245D02*
X135348171Y-126743483D01*
X135348171Y-126743483D02*
X135443409Y-126791102D01*
X135443409Y-126791102D02*
X135967219Y-126791102D01*
X135871980Y-127267293D02*
X135919600Y-127314912D01*
X135919600Y-127314912D02*
X135967219Y-127267293D01*
X135967219Y-127267293D02*
X135919600Y-127219674D01*
X135919600Y-127219674D02*
X135871980Y-127267293D01*
X135871980Y-127267293D02*
X135967219Y-127267293D01*
X135967219Y-127743483D02*
X135300552Y-127743483D01*
X135395790Y-127743483D02*
X135348171Y-127791102D01*
X135348171Y-127791102D02*
X135300552Y-127886340D01*
X135300552Y-127886340D02*
X135300552Y-128029197D01*
X135300552Y-128029197D02*
X135348171Y-128124435D01*
X135348171Y-128124435D02*
X135443409Y-128172054D01*
X135443409Y-128172054D02*
X135967219Y-128172054D01*
X135443409Y-128172054D02*
X135348171Y-128219673D01*
X135348171Y-128219673D02*
X135300552Y-128314911D01*
X135300552Y-128314911D02*
X135300552Y-128457768D01*
X135300552Y-128457768D02*
X135348171Y-128553007D01*
X135348171Y-128553007D02*
X135443409Y-128600626D01*
X135443409Y-128600626D02*
X135967219Y-128600626D01*
X135919600Y-129457768D02*
X135967219Y-129362530D01*
X135967219Y-129362530D02*
X135967219Y-129172054D01*
X135967219Y-129172054D02*
X135919600Y-129076816D01*
X135919600Y-129076816D02*
X135824361Y-129029197D01*
X135824361Y-129029197D02*
X135443409Y-129029197D01*
X135443409Y-129029197D02*
X135348171Y-129076816D01*
X135348171Y-129076816D02*
X135300552Y-129172054D01*
X135300552Y-129172054D02*
X135300552Y-129362530D01*
X135300552Y-129362530D02*
X135348171Y-129457768D01*
X135348171Y-129457768D02*
X135443409Y-129505387D01*
X135443409Y-129505387D02*
X135538647Y-129505387D01*
X135538647Y-129505387D02*
X135633885Y-129029197D01*
D12*
X131693727Y-94008172D02*
X131693727Y-92579601D01*
X130836584Y-94293886D02*
X133836584Y-93293886D01*
X133836584Y-93293886D02*
X130836584Y-92293886D01*
X130836584Y-90008172D02*
X133836584Y-90008172D01*
X130979442Y-90008172D02*
X130836584Y-90293886D01*
X130836584Y-90293886D02*
X130836584Y-90865314D01*
X130836584Y-90865314D02*
X130979442Y-91151029D01*
X130979442Y-91151029D02*
X131122299Y-91293886D01*
X131122299Y-91293886D02*
X131408013Y-91436743D01*
X131408013Y-91436743D02*
X132265156Y-91436743D01*
X132265156Y-91436743D02*
X132550870Y-91293886D01*
X132550870Y-91293886D02*
X132693727Y-91151029D01*
X132693727Y-91151029D02*
X132836584Y-90865314D01*
X132836584Y-90865314D02*
X132836584Y-90293886D01*
X132836584Y-90293886D02*
X132693727Y-90008172D01*
X131693727Y-86436743D02*
X131693727Y-85008172D01*
X130836584Y-86722457D02*
X133836584Y-85722457D01*
X133836584Y-85722457D02*
X130836584Y-84722457D01*
X130979442Y-83865314D02*
X130836584Y-83579600D01*
X130836584Y-83579600D02*
X130836584Y-83008171D01*
X130836584Y-83008171D02*
X130979442Y-82722457D01*
X130979442Y-82722457D02*
X131265156Y-82579600D01*
X131265156Y-82579600D02*
X131408013Y-82579600D01*
X131408013Y-82579600D02*
X131693727Y-82722457D01*
X131693727Y-82722457D02*
X131836584Y-83008171D01*
X131836584Y-83008171D02*
X131836584Y-83436743D01*
X131836584Y-83436743D02*
X131979442Y-83722457D01*
X131979442Y-83722457D02*
X132265156Y-83865314D01*
X132265156Y-83865314D02*
X132408013Y-83865314D01*
X132408013Y-83865314D02*
X132693727Y-83722457D01*
X132693727Y-83722457D02*
X132836584Y-83436743D01*
X132836584Y-83436743D02*
X132836584Y-83008171D01*
X132836584Y-83008171D02*
X132693727Y-82722457D01*
X132836584Y-81722457D02*
X132836584Y-80579600D01*
X133836584Y-81293886D02*
X131265156Y-81293886D01*
X131265156Y-81293886D02*
X130979442Y-81151029D01*
X130979442Y-81151029D02*
X130836584Y-80865314D01*
X130836584Y-80865314D02*
X130836584Y-80579600D01*
X130836584Y-79579600D02*
X132836584Y-79579600D01*
X132265156Y-79579600D02*
X132550870Y-79436743D01*
X132550870Y-79436743D02*
X132693727Y-79293886D01*
X132693727Y-79293886D02*
X132836584Y-79008171D01*
X132836584Y-79008171D02*
X132836584Y-78722457D01*
X130836584Y-76436743D02*
X132408013Y-76436743D01*
X132408013Y-76436743D02*
X132693727Y-76579600D01*
X132693727Y-76579600D02*
X132836584Y-76865314D01*
X132836584Y-76865314D02*
X132836584Y-77436743D01*
X132836584Y-77436743D02*
X132693727Y-77722457D01*
X130979442Y-76436743D02*
X130836584Y-76722457D01*
X130836584Y-76722457D02*
X130836584Y-77436743D01*
X130836584Y-77436743D02*
X130979442Y-77722457D01*
X130979442Y-77722457D02*
X131265156Y-77865314D01*
X131265156Y-77865314D02*
X131550870Y-77865314D01*
X131550870Y-77865314D02*
X131836584Y-77722457D01*
X131836584Y-77722457D02*
X131979442Y-77436743D01*
X131979442Y-77436743D02*
X131979442Y-76722457D01*
X131979442Y-76722457D02*
X132122299Y-76436743D01*
X130979442Y-74865314D02*
X130836584Y-74865314D01*
X130836584Y-74865314D02*
X130550870Y-75008171D01*
X130550870Y-75008171D02*
X130408013Y-75151028D01*
X126006752Y-93865315D02*
X129006752Y-93865315D01*
X129006752Y-93865315D02*
X126006752Y-92151029D01*
X126006752Y-92151029D02*
X129006752Y-92151029D01*
X126006752Y-90293886D02*
X126149610Y-90579601D01*
X126149610Y-90579601D02*
X126292467Y-90722458D01*
X126292467Y-90722458D02*
X126578181Y-90865315D01*
X126578181Y-90865315D02*
X127435324Y-90865315D01*
X127435324Y-90865315D02*
X127721038Y-90722458D01*
X127721038Y-90722458D02*
X127863895Y-90579601D01*
X127863895Y-90579601D02*
X128006752Y-90293886D01*
X128006752Y-90293886D02*
X128006752Y-89865315D01*
X128006752Y-89865315D02*
X127863895Y-89579601D01*
X127863895Y-89579601D02*
X127721038Y-89436744D01*
X127721038Y-89436744D02*
X127435324Y-89293886D01*
X127435324Y-89293886D02*
X126578181Y-89293886D01*
X126578181Y-89293886D02*
X126292467Y-89436744D01*
X126292467Y-89436744D02*
X126149610Y-89579601D01*
X126149610Y-89579601D02*
X126006752Y-89865315D01*
X126006752Y-89865315D02*
X126006752Y-90293886D01*
X128006752Y-88008172D02*
X126006752Y-88008172D01*
X127721038Y-88008172D02*
X127863895Y-87865315D01*
X127863895Y-87865315D02*
X128006752Y-87579600D01*
X128006752Y-87579600D02*
X128006752Y-87151029D01*
X128006752Y-87151029D02*
X127863895Y-86865315D01*
X127863895Y-86865315D02*
X127578181Y-86722458D01*
X127578181Y-86722458D02*
X126006752Y-86722458D01*
X129006752Y-83436743D02*
X129006752Y-81722458D01*
X126006752Y-82579600D02*
X129006752Y-82579600D01*
X126006752Y-80722458D02*
X128006752Y-80722458D01*
X129006752Y-80722458D02*
X128863895Y-80865315D01*
X128863895Y-80865315D02*
X128721038Y-80722458D01*
X128721038Y-80722458D02*
X128863895Y-80579601D01*
X128863895Y-80579601D02*
X129006752Y-80722458D01*
X129006752Y-80722458D02*
X128721038Y-80722458D01*
X126006752Y-79293887D02*
X128006752Y-79293887D01*
X127721038Y-79293887D02*
X127863895Y-79151030D01*
X127863895Y-79151030D02*
X128006752Y-78865315D01*
X128006752Y-78865315D02*
X128006752Y-78436744D01*
X128006752Y-78436744D02*
X127863895Y-78151030D01*
X127863895Y-78151030D02*
X127578181Y-78008173D01*
X127578181Y-78008173D02*
X126006752Y-78008173D01*
X127578181Y-78008173D02*
X127863895Y-77865315D01*
X127863895Y-77865315D02*
X128006752Y-77579601D01*
X128006752Y-77579601D02*
X128006752Y-77151030D01*
X128006752Y-77151030D02*
X127863895Y-76865315D01*
X127863895Y-76865315D02*
X127578181Y-76722458D01*
X127578181Y-76722458D02*
X126006752Y-76722458D01*
X126006752Y-75293887D02*
X128006752Y-75293887D01*
X129006752Y-75293887D02*
X128863895Y-75436744D01*
X128863895Y-75436744D02*
X128721038Y-75293887D01*
X128721038Y-75293887D02*
X128863895Y-75151030D01*
X128863895Y-75151030D02*
X129006752Y-75293887D01*
X129006752Y-75293887D02*
X128721038Y-75293887D01*
X126006752Y-72579602D02*
X129006752Y-72579602D01*
X126149610Y-72579602D02*
X126006752Y-72865316D01*
X126006752Y-72865316D02*
X126006752Y-73436744D01*
X126006752Y-73436744D02*
X126149610Y-73722459D01*
X126149610Y-73722459D02*
X126292467Y-73865316D01*
X126292467Y-73865316D02*
X126578181Y-74008173D01*
X126578181Y-74008173D02*
X127435324Y-74008173D01*
X127435324Y-74008173D02*
X127721038Y-73865316D01*
X127721038Y-73865316D02*
X127863895Y-73722459D01*
X127863895Y-73722459D02*
X128006752Y-73436744D01*
X128006752Y-73436744D02*
X128006752Y-72865316D01*
X128006752Y-72865316D02*
X127863895Y-72579602D01*
X126149610Y-70008173D02*
X126006752Y-70293887D01*
X126006752Y-70293887D02*
X126006752Y-70865316D01*
X126006752Y-70865316D02*
X126149610Y-71151030D01*
X126149610Y-71151030D02*
X126435324Y-71293887D01*
X126435324Y-71293887D02*
X127578181Y-71293887D01*
X127578181Y-71293887D02*
X127863895Y-71151030D01*
X127863895Y-71151030D02*
X128006752Y-70865316D01*
X128006752Y-70865316D02*
X128006752Y-70293887D01*
X128006752Y-70293887D02*
X127863895Y-70008173D01*
X127863895Y-70008173D02*
X127578181Y-69865316D01*
X127578181Y-69865316D02*
X127292467Y-69865316D01*
X127292467Y-69865316D02*
X127006752Y-71293887D01*
M02*
