%TF.GenerationSoftware,KiCad,Pcbnew,9.0.3*%
%TF.CreationDate,2026-02-21T19:03:40-03:00*%
%TF.ProjectId,Boros_Rocket_Plate_V4,426f726f-7320-4526-9f63-6b6574202d20,rev?*%
%TF.SameCoordinates,Original*%
%TF.FileFunction,Paste,Top*%
%TF.FilePolarity,Positive*%
%FSLAX46Y46*%
G04 Gerber Fmt 4.6, Leading zero omitted, Abs format (unit mm)*
G04 Created by KiCad (PCBNEW 9.0.3) date 2026-02-21 19:03:40*
%MOMM*%
%LPD*%
G01*
G04 APERTURE LIST*
G04 Aperture macros list*
%AMRoundRect*
0 Rectangle with rounded corners*
0 $1 Rounding radius*
0 $2 $3 $4 $5 $6 $7 $8 $9 X,Y pos of 4 corners*
0 Add a 4 corners polygon primitive as box body*
4,1,4,$2,$3,$4,$5,$6,$7,$8,$9,$2,$3,0*
0 Add four circle primitives for the rounded corners*
1,1,$1+$1,$2,$3*
1,1,$1+$1,$4,$5*
1,1,$1+$1,$6,$7*
1,1,$1+$1,$8,$9*
0 Add four rect primitives between the rounded corners*
20,1,$1+$1,$2,$3,$4,$5,0*
20,1,$1+$1,$4,$5,$6,$7,0*
20,1,$1+$1,$6,$7,$8,$9,0*
20,1,$1+$1,$8,$9,$2,$3,0*%
G04 Aperture macros list end*
%ADD10C,0.010000*%
%ADD11R,1.450000X1.300000*%
%ADD12R,1.900000X1.900000*%
%ADD13R,1.600000X1.400000*%
%ADD14R,0.400000X1.350000*%
%ADD15RoundRect,0.072500X0.217500X-0.732500X0.217500X0.732500X-0.217500X0.732500X-0.217500X-0.732500X0*%
%ADD16RoundRect,0.200000X0.200000X0.275000X-0.200000X0.275000X-0.200000X-0.275000X0.200000X-0.275000X0*%
%ADD17RoundRect,0.225000X-0.225000X-0.250000X0.225000X-0.250000X0.225000X0.250000X-0.225000X0.250000X0*%
%ADD18RoundRect,0.225000X-0.250000X0.225000X-0.250000X-0.225000X0.250000X-0.225000X0.250000X0.225000X0*%
%ADD19RoundRect,0.073750X0.221250X-0.551250X0.221250X0.551250X-0.221250X0.551250X-0.221250X-0.551250X0*%
%ADD20RoundRect,0.087500X-0.207500X-0.087500X0.207500X-0.087500X0.207500X0.087500X-0.207500X0.087500X0*%
%ADD21RoundRect,0.087500X-0.087500X-0.207500X0.087500X-0.207500X0.087500X0.207500X-0.087500X0.207500X0*%
%ADD22RoundRect,0.250000X0.250000X0.475000X-0.250000X0.475000X-0.250000X-0.475000X0.250000X-0.475000X0*%
%ADD23RoundRect,0.033750X-0.386250X-0.101250X0.386250X-0.101250X0.386250X0.101250X-0.386250X0.101250X0*%
%ADD24RoundRect,0.250000X-0.475000X0.250000X-0.475000X-0.250000X0.475000X-0.250000X0.475000X0.250000X0*%
%ADD25RoundRect,0.125000X-0.125000X0.625000X-0.125000X-0.625000X0.125000X-0.625000X0.125000X0.625000X0*%
%ADD26RoundRect,0.125000X-0.625000X0.125000X-0.625000X-0.125000X0.625000X-0.125000X0.625000X0.125000X0*%
%ADD27RoundRect,0.073750X0.531250X0.221250X-0.531250X0.221250X-0.531250X-0.221250X0.531250X-0.221250X0*%
%ADD28RoundRect,0.200000X0.275000X-0.200000X0.275000X0.200000X-0.275000X0.200000X-0.275000X-0.200000X0*%
%ADD29RoundRect,0.225000X0.225000X0.250000X-0.225000X0.250000X-0.225000X-0.250000X0.225000X-0.250000X0*%
%ADD30RoundRect,0.150000X0.587500X0.150000X-0.587500X0.150000X-0.587500X-0.150000X0.587500X-0.150000X0*%
%ADD31RoundRect,0.200000X-0.200000X-0.275000X0.200000X-0.275000X0.200000X0.275000X-0.200000X0.275000X0*%
%ADD32RoundRect,0.200000X-0.275000X0.200000X-0.275000X-0.200000X0.275000X-0.200000X0.275000X0.200000X0*%
%ADD33RoundRect,0.225000X0.250000X-0.225000X0.250000X0.225000X-0.250000X0.225000X-0.250000X-0.225000X0*%
G04 APERTURE END LIST*
D10*
%TO.C,U4*%
X114070000Y-106475000D02*
X113050000Y-106475000D01*
X113050000Y-105575000D01*
X114070000Y-105575000D01*
X114070000Y-106475000D01*
G36*
X114070000Y-106475000D02*
G01*
X113050000Y-106475000D01*
X113050000Y-105575000D01*
X114070000Y-105575000D01*
X114070000Y-106475000D01*
G37*
%TD*%
D11*
%TO.C,J2*%
X122275000Y-127125000D03*
D12*
X124500000Y-127125000D03*
X126900000Y-127125000D03*
D11*
X129125000Y-127125000D03*
D13*
X128900000Y-124675000D03*
X122500000Y-124675000D03*
D14*
X127000000Y-124450000D03*
X126350000Y-124450000D03*
X125700000Y-124450000D03*
X125050000Y-124450000D03*
X124400000Y-124450000D03*
%TD*%
D15*
%TO.C,U7*%
X124170000Y-85530000D03*
X125440000Y-85530000D03*
X126710000Y-85530000D03*
X127980000Y-85530000D03*
X127980000Y-78320000D03*
X126710000Y-78320000D03*
X125440000Y-78320000D03*
X124170000Y-78320000D03*
%TD*%
D16*
%TO.C,R1*%
X125650000Y-121850000D03*
X124000000Y-121850000D03*
%TD*%
%TO.C,R8*%
X118825000Y-111775000D03*
X117175000Y-111775000D03*
%TD*%
D17*
%TO.C,C15*%
X119950000Y-117750000D03*
X121500000Y-117750000D03*
%TD*%
D18*
%TO.C,C6*%
X127650000Y-91925000D03*
X127650000Y-93475000D03*
%TD*%
D19*
%TO.C,VR1*%
X113500000Y-113755000D03*
X114450000Y-113755000D03*
X115400000Y-113755000D03*
X115400000Y-111245000D03*
X113500000Y-111245000D03*
%TD*%
D18*
%TO.C,C3*%
X122050000Y-103200000D03*
X122050000Y-104750000D03*
%TD*%
D20*
%TO.C,U3*%
X130195000Y-97875000D03*
X130195000Y-98375000D03*
X130195000Y-98875000D03*
X130195000Y-99375000D03*
D21*
X130860000Y-99540000D03*
X131360000Y-99540000D03*
X131860000Y-99540000D03*
D20*
X132525000Y-99375000D03*
X132525000Y-98875000D03*
X132525000Y-98375000D03*
X132525000Y-97875000D03*
D21*
X131860000Y-97710000D03*
X131360000Y-97710000D03*
X130860000Y-97710000D03*
%TD*%
D22*
%TO.C,C1*%
X114875000Y-98600000D03*
X112975000Y-98600000D03*
%TD*%
D23*
%TO.C,U4*%
X112125000Y-105275000D03*
X112125000Y-105775000D03*
X112125000Y-106275000D03*
X112125000Y-106775000D03*
X114995000Y-106775000D03*
X114995000Y-106275000D03*
X114995000Y-105775000D03*
X114995000Y-105275000D03*
%TD*%
D24*
%TO.C,C2*%
X118050000Y-103450000D03*
X118050000Y-105350000D03*
%TD*%
D17*
%TO.C,C13*%
X116500000Y-100650000D03*
X118050000Y-100650000D03*
%TD*%
D18*
%TO.C,C5*%
X122125000Y-120075000D03*
X122125000Y-121625000D03*
%TD*%
D25*
%TO.C,U2*%
X132650000Y-103575000D03*
X131850000Y-103575000D03*
X131050000Y-103575000D03*
X130250000Y-103575000D03*
X129450000Y-103575000D03*
X128650000Y-103575000D03*
X127850000Y-103575000D03*
X127050000Y-103575000D03*
D26*
X125675000Y-104950000D03*
X125675000Y-105750000D03*
X125675000Y-106550000D03*
X125675000Y-107350000D03*
X125675000Y-108150000D03*
X125675000Y-108950000D03*
X125675000Y-109750000D03*
X125675000Y-110550000D03*
D25*
X127050000Y-111925000D03*
X127850000Y-111925000D03*
X128650000Y-111925000D03*
X129450000Y-111925000D03*
X130250000Y-111925000D03*
X131050000Y-111925000D03*
X131850000Y-111925000D03*
X132650000Y-111925000D03*
D26*
X134025000Y-110550000D03*
X134025000Y-109750000D03*
X134025000Y-108950000D03*
X134025000Y-108150000D03*
X134025000Y-107350000D03*
X134025000Y-106550000D03*
X134025000Y-105750000D03*
X134025000Y-104950000D03*
%TD*%
D27*
%TO.C,U6*%
X131330000Y-121525000D03*
X131330000Y-120575000D03*
X131330000Y-119625000D03*
X128820000Y-119625000D03*
X128820000Y-120575000D03*
X128820000Y-121525000D03*
%TD*%
D28*
%TO.C,R6*%
X118900000Y-109275000D03*
X118900000Y-107625000D03*
%TD*%
D29*
%TO.C,C14*%
X119550000Y-114975000D03*
X118000000Y-114975000D03*
%TD*%
D30*
%TO.C,Q1*%
X135250000Y-77250000D03*
X135250000Y-75350000D03*
X133375000Y-76300000D03*
%TD*%
D17*
%TO.C,C12*%
X113650000Y-93250000D03*
X115200000Y-93250000D03*
%TD*%
%TO.C,C16*%
X124250000Y-114900000D03*
X125800000Y-114900000D03*
%TD*%
D31*
%TO.C,R3*%
X111825000Y-101400000D03*
X113475000Y-101400000D03*
%TD*%
%TO.C,R2*%
X128275000Y-117000000D03*
X129925000Y-117000000D03*
%TD*%
D32*
%TO.C,R4*%
X131525000Y-88025000D03*
X131525000Y-89675000D03*
%TD*%
D33*
%TO.C,C4*%
X131900000Y-117625000D03*
X131900000Y-116075000D03*
%TD*%
M02*
